<?xml version="1.0" encoding="UTF-8" standalone="no"?>
<svg
   xmlns:dc="http://purl.org/dc/elements/1.1/"
   xmlns:cc="http://creativecommons.org/ns#"
   xmlns:rdf="http://www.w3.org/1999/02/22-rdf-syntax-ns#"
   xmlns:svg="http://www.w3.org/2000/svg"
   xmlns="http://www.w3.org/2000/svg"
   id="svg9"
   version="1.1"
   viewBox="0 0 838.58 791.27">
  <metadata
     id="metadata13">
    <rdf:RDF>
      <cc:Work
         rdf:about="">
        <dc:format>image/svg+xml</dc:format>
        <dc:type
           rdf:resource="http://purl.org/dc/dcmitype/StillImage" />
        <dc:title></dc:title>
      </cc:Work>
    </rdf:RDF>
  </metadata>
  <defs
     id="defs4">
    <style
       id="style2">.cls-1{fill:none;stroke:#231f20;stroke-miterlimit:10;}</style>
  </defs>
  <g
     data-name="Layer 2"
     id="Layer_2">
    <g
       id="Districts">
      <path
         d="M1.13,158.08c2.48,1.5,2.46,4.9,2.93,7.45a14.43,14.43,0,0,0,5.6,9.4c4.09,2.91,9.34,4.49,12.3,8.81,2.46,3.59,3.26,7.23,3.77,11.46s1.44,8.73,3.83,12.22a24.65,24.65,0,0,1,3.74,8.33c.86,3.74.23,7.87,3.43,10.56,2.26,1.9,5.41,1.67,7.66,3.35,3.72,2.8-1,9.65-2.29,12.54-1,2.27-1.87,4.59-2.66,7-.25.75-.86,1.21-.6,2.12.21.76,1.44,1.29,2,1.68a8.12,8.12,0,0,1,3.58,3.95c1.58,3.89,1.82,7.9,2.7,11.94a58.76,58.76,0,0,0,4.64,13,145.92,145.92,0,0,1,6.6,15.88c1.87,5.42,3.14,10,8.44,13.14a26,26,0,0,0,7.54,3c2.31.51,4.68.48,7,1.1a68.43,68.43,0,0,1,7.14,2.84c8,3.18,16.14-.75,24.34-.69,3,0,5.08-.88,7.73-2.48a72.73,72.73,0,0,0,6.21-3.91,10,10,0,0,1,2.74-1.94c.45-.14,1,0,1.43-.14,1.32-.4,2.49-1.83,3.52-2.71,4.71-4,9.22-8.14,14-12,1.8-1.46,3.25-3.26,5-4.77,5-4.32,10.53-9.26,16.23-12.68,2.79-1.68,5.68-3.22,8.59-4.68s6.08-3,9.25-4.24c2.83-1.11,5.77-2.7,8.85-2.8,4.42-.13,8.71,2.53,12.64,4.21a53.34,53.34,0,0,0,7.5,2.43c1.79.47,4.27.6,5.75,1.83,1.87,1.55,2.43,4.29,4.47,5.86,1.72,1.31,3.65,1.7,5.08,3.37,3,3.5,2.34,9.82,3.19,14.19.77,3.92,1.89,7,4.71,10a52.35,52.35,0,0,1,4.47,4.81c3.6,4.78,3.63,10.58,6.2,15.82,2.07,4.19,6.09,5.38,9.13,8.59,3.85,4,4.63,9.75,9.17,13.36,3.75,3,7.49,3.74,12,4.33,4.85.63,8.1,0,12.7-2.2a63.12,63.12,0,0,1,8.47-3.7,14.26,14.26,0,0,1,2.22-.43,70.44,70.44,0,0,0,9.91-2.29c3.59-1.14,7.1-2.74,10.66-4A100.28,100.28,0,0,0,337,335.12a9.27,9.27,0,0,1,5-1.27c5.12-.1,10.16-1.33,15.32-.66a15.63,15.63,0,0,1,5.81,2.37c2.46,1.43,4,2.31,7,2.66a54.33,54.33,0,0,0,10.11.6,8.21,8.21,0,0,0,3.8-1.63c4.23-2.55,8.32-5.35,12.43-8.08a33.8,33.8,0,0,0,8.63-8.24c1.89-2.43,4.71-6.16,5.3-9.37.41-2.19-.8-6.54-1.61-8.54-2.34-5.73-8.51-8.45-13.76-10.95-1.91-.91-6.73-4.29-9.1-2.65-.13,1.11-5.21-.69-6.26-3.14a16.25,16.25,0,0,1-.38-9.73,8,8,0,0,1,3.26-4.87,4.17,4.17,0,0,1,2-.65c2.07-.35,4.08-1.12,6.17-1.37,2.64-.32,4.89.92,7.51.78,3.32-.17,6.75-2.33,9.65-3.77a141.42,141.42,0,0,0,14-7.92c2.94-1.92,5.95-4.44,7.05-7.94,1.49-4.7-2.38-8.1-3.92-12.22-1.89-5.09-1.66-10.7-3.68-15.74-1.32-3.3-3.07-5.32-3.33-9-.16-2.13-1.11-2.51-2.76-3.66-5-3.52-3.36-10.29-1.53-15.28,1.43-3.9,3.13-8.17,5.88-11.34,1.93-2.23,5.47-3.44,8.13-4.53,3.23-1.33,6.38-3,9.81-3.75s4.9,0,6.34,3.38a12,12,0,0,0,1.27,2.88c.95,1,2.31,1.15,3.43,1.9,2.1,1.39,3.28,3,5.86,3.63s5.16.61,7.57,1.7c1.69.76,4.26,1.5,5.59,2.83,1.16,1.14,1.51,2.65,2.22,4,1.22,2.38,2.44,3.18,4.76,4.37,1.47.75,3.19,2.44,4.78,2.71,2,.32,6.67-3.53,7.72-4.89,2-2.6,2.81-6.47,4.06-9.51,1.12-2.73,2.45-5.51,3.33-8.32a36.59,36.59,0,0,0,1.2-6.7c.39-3.06.66-7.23,2.56-9.8,2.35-3.17,7.87.49,10.12,2.2,1.55,1.19,2.56,2.55,4,3.81s3.38,1.82,4.74,3.14c2.83,2.75,3.15,6.91,6.33,9.6a34.31,34.31,0,0,0,4.16,2.74,27.84,27.84,0,0,1,3.29,2.9c1.81,1.5,4.28,1.93,6.62,2.15,4.1.39,6.11-3.28,8.24-6.53,2-3,1.36-5,.59-8.1a18.57,18.57,0,0,1-.52-3.92c0-1.51-.45-3.28-.4-4.77a36.32,36.32,0,0,1,.92-4.53c.18-1,.17-2.3.92-3.17,2.63-3.06,6.94-2.48,10.24-1.64,2.52.64,5.55.56,7.8,2,1.74,1.08,2.63,2.9,4.34,4,3,2,7.49,1.74,10.81,3.17a53.51,53.51,0,0,1,23,19.27c6.13,9.55,1,20-1.08,30-.31,1.45-.34,3-.71,4.45-1,3.91-4.25,7-6.79,10a80.5,80.5,0,0,1-7.27,8.07,18.26,18.26,0,0,0-2.67,2.53,24,24,0,0,0-3.82,7.6c-.51,2.18.07,3,1,5,2,4.28.27,8.85-1.83,12.8-4.84,9.07-14.7,18.14-25.3,13.1-2.65-1.26-5.51-3.1-8.37-3.89a8.38,8.38,0,0,1-2.68-.72c-1.41-1-1.79-3.65-2.06-5.14-.73-4.08-.25-8.67-2-12.5-1.29-2.88-3.33-4.9-5.41-7.19l-.89-1.12a1.15,1.15,0,0,0-1.88-.6c-2.5-.27-9.85,4.57-11.64,5.53-2.54,1.36-5.07,2.82-7.65,4.12-1.14.58-2.63,1-3.43,2.09-4,5.37,3,12.06,4.68,16.46,1.57,4.18-.37,8.67,1.1,12.69.59,1.61,1.41,2.63,1.54,4.41.31,4.32-1.25,7.15,2,10.79,2,2.3,4,4.53,5.21,7.44,1,2.44,1.37,5.05,2.26,7.51,1.82,5,6.74,7.81,8.1,13.08,1.19,4.6,2.28,6.66,6.63,9.3,3.78,2.3,8.39,3,12.27,5,3.53,1.9,4.83,4.73,6.87,7.91,3.27,5.12,8.49,8.11,13,11.95,5.06,4.28,7.44,10.25,8.37,16.72.62,4.25-1.15,7.76-2.95,11.47-1.93,4-3.94,7.91-6.22,11.7a52.34,52.34,0,0,1-11.85,14c-2.94,2.41-6.7,5.34-10.46,6.41-4.56,1.3-9.55,1.46-14.24,1.66-4.39.2-9.95,1.1-13.69-1.44a10.9,10.9,0,0,0-5.24-1.5,51.47,51.47,0,0,0-11.44-.06,12.26,12.26,0,0,0-4.54,1.29c-1.8,1-1.72,2.25-2.12,4.15-.85,4.14-3.52,7.59-3.21,12a56.22,56.22,0,0,1-.06,5.95c-.09,3.48,1.59,6.46,2.33,9.8,1.43,6.46-1.34,12.79-6,17.22-1,.92-1.3,1-1.7,2a2.77,2.77,0,0,1,.07,3.25c-1.07,1.41-2.15,2.81-3.22,4.21A40.67,40.67,0,0,1,460.22,499c-6.12.65-11.64.7-17.2-1.91-6.89-3.23-15.1-3.08-22.34-5.31-2.07-.64-4.56-2.14-6.84-1.45-2.81.85-5.33,4.29-7.55,6-4.63,3.62-8.56,7.95-13.39,11.33a16.05,16.05,0,0,1-12.59,2.47c-5.26-1-9.52-3.71-14.59-5.26-2.7-.83-5.58-1.27-8.23-2.21-3.57-1.25-6.45-3.27-10.15-4.28-4.37-1.19-9-1.7-13.4-2.65a32.42,32.42,0,0,0-15.11.09s-6.57,3.19-9.49,6.8c-1.57,1.94-3.16,3.72-3.41,6.35-.09.94,0,1.94,0,2.88,0,2.56-2.33,3.76-4,5.41-2,1.87-4.73,3.81-6,6.2a13.36,13.36,0,0,0-1.13,2.06,8.73,8.73,0,0,0-.06,2.23,33.21,33.21,0,0,1-.53,6.82,20.18,20.18,0,0,0-.3,4.25,4.55,4.55,0,0,0,.79,3.33,6.64,6.64,0,0,0,1.88,1.25c1.2.63,2.3.5,3.49.9,2.17.73,4.25,3.28,5.08,5.31.72,1.76.1,2.87-.32,4.61-.26,1.09-1.19,2.61-1,3.77.13.73.52.69,1,1.2a2,2,0,0,1,.74,1.79,10.51,10.51,0,0,0,.79,4c2,4.57,3.82,10.87,8.52,13.29a9.79,9.79,0,0,0,5.07.81,30.82,30.82,0,0,0,6.77-.84c1.67-.47,3.44-1,5.07-1.64.65-.25.89-.51,1.46-.18,1.14.64,1.29,2.92,1.83,4s.78,1.27,2,1.31c3.59.13,7.34-2,10.51-3.42,2.74-1.22,5.45-2.5,8.19-3.7a30.06,30.06,0,0,1,5.14-2.08,33.26,33.26,0,0,1,7.05-.45c4.32-.06,8.89-1.39,13.19-.82a3.4,3.4,0,0,1,3.07,2.08c1.75,3.29,1.59,7.32,3.25,10.72a18.52,18.52,0,0,0,2.61,3.89c1.4,1.63,3.34,2.52,4.82,4,3.59,3.66,1.1,9.63,0,13.8-.62,2.33-2.23,5.28,1.18,5.75,1.86.27,3.78.42,5.12,2,.84,1,.95,1.9,2.12,2.69,2.95,2,7.24,1.19,10.49.82,2.44-.28,5.12-1,7.6-.92,1.76,0,1.77.47,2.59,1.73a3,3,0,0,0,1.91,1.21c2.37.54,5.17-.06,7.59,0,3.86.07,4,2.44,5.9,5.13,1.06,1.51,2.56,2.44,3.84,3.72a16.92,16.92,0,0,1,4,6.5c.4,1.15.72,2.32,1.17,3.45a11.64,11.64,0,0,0,4.85,5.53,18.88,18.88,0,0,1,3.68,2.62c1.31,1.49,1.55,3.56,2.6,5.2,2.43,3.8,6.87,2.19,10.55,3.14.5,2.07-1.83,3.9-2.86,5.51-.57.89-1.33,1.8-1.83,2.71s-.85,2.31-1.34,3.41c-1.51,3.38-3.89,6.35-5.31,9.74-.78,1.86-.57,2.69.74,4.09,2,2.12,4,4.21,4.37,7.27.39,2.87-.39,5.77.05,8.62.58,3.69,3.53,5.84,6.37,7.93,4.73,3.49,10.14,5.61,15.07,8.76a14.29,14.29,0,0,1,5.48,7,18.29,18.29,0,0,0,1.5,3.73,6.35,6.35,0,0,0,3.41,2.15,34.35,34.35,0,0,0,7.57,1.2c2.25.23,5,.1,7.12.92,2.83,1.11,4.89,3.36,7.58,4.71,4.78,2.41,10.08,1.74,15.21,1.07a120,120,0,0,0,22.72-5.64c5.08-1.74,9.92-5.22,12.26-10.19a5.64,5.64,0,0,0,.63-4c-.75-3.33-2.62-6.4-3.46-9.73-.74-2.93-1-6-1.49-9-.29-1.86-1.12-4.24.15-5.84,2.35-3,7.33-4.32,10.86-5.27,1.66-.44,4.17-1.22,5.79-.25s2.62,2.88,3.63,4.56c2.16,3.62,5.12,6,8.47,8.41,2.7,2,4.54,4.05,4.92,7.46a26,26,0,0,0,1.51,6.15c.39,1.1.74,2.22,1.06,3.34.72,2.54.88,5.76,2.62,7.91,2.52,3.12,6.33,4.64,8,8.52,1.27,3,1,6.43,2.65,9.36,1.22,2.13,4.13,3.79,6.22,5a29.54,29.54,0,0,0,7.69,3.32c6.57,1.43,12.58-.62,18.15-4.23,4.73-3.07,10.41-7.28,12.34-12.84.66-1.91.71-3.88,2.09-5.43a12.73,12.73,0,0,1,7.75-3.64c2.69-.15,4.78,2,6.59,3.67,3.16,2.91,6.22,6.41,6.44,10.86.35,6.78-3.43,14.1-.46,20.76,2.46,5.53,7.17,9.38,11.49,13.39,1.61,1.51,3.15,3.2,4.86,4.61s3.82,2.58,5.58,4.06a38.32,38.32,0,0,0,3.85,3.64c1,.67,1.92,1.33,2.88,2a2.15,2.15,0,0,1,1.21,2,15.48,15.48,0,0,0,0,2.36,7.11,7.11,0,0,0,.42,1.78c.38.65.69.44,1.38.15,1-.41,2-.79,2.95-1.2.73-.31,1.57-.81,2.36-.46.45.2.71.75,1.19,1,.85.36,2.23-.1,3.07-.29a19.44,19.44,0,0,1,4.54-.77c1.37,0,2.22-.87,3.28-1.72s1.91-1.5,2.83-2.29a39.5,39.5,0,0,0,2.8-2.84c1.56-1.62,2.89-3.42,4.49-5a40.91,40.91,0,0,1,5.68-5.09,9.15,9.15,0,0,0,2.31-1.57c.81-1,0-.94-.73-1.51a2.53,2.53,0,0,1-.81-1.05,6.78,6.78,0,0,1,.24-2.45,13.29,13.29,0,0,1,1.25-3.41c.83-1.7,1.94-4.06,3.56-5.18.9-.63,2-.33,3.09-.35,1.94-.06,3.84-.56,5.79-.53a10.06,10.06,0,0,0,3-.49c2.87-.86,5.78-.66,8.71-1.09,1.63-.24,3.28-.58,4.86.05a7.81,7.81,0,0,0,1.85.75,9.33,9.33,0,0,0,3.13-.47c1.29-.28,2.5-.58,3.76-1a6.74,6.74,0,0,1,2.12-.44,6,6,0,0,0,1.53,0c.94-.19,1.88-.36,2.82-.58,2-.49,3.64-.72,5.56.24.35.18.67.4,1,.58a7.21,7.21,0,0,0,4.47.47c1.85-.24,4.33-1.39,6.16-.55,3.08,1.43,6.5-.59,9.48-1.56,2.46-.8,4.51-1.39,6.77.06a3.85,3.85,0,0,0,3.54.6c3.13-.58,6-2,9.23-2.12L704.18,330.53,624.5,7.4,576.2.52a48.64,48.64,0,0,1-14.59,7.3c-9.14,2.76-12.22.64-19.6,3.84-4.43,1.93-3.67,2.85-15,11.53-11,8.46-12.11,7.88-14.6,11.52C507.36,42.17,511,46,505.9,52s-13.61,7.53-16.9,8.07c-4.91.8-6-.13-11.91,0-10.92.23-12.56,3.47-23.43,5-14.51,2-15.58-3.16-23.82.39-7.56,3.25-7.87,8.15-17.29,11.14-5.46,1.73-7.17.66-10.75,3.07-3.88,2.6-3.29,4.81-8.84,12.68-3.57,5-5.81,8.23-10,11.14-3.87,2.69-5.12,2.17-8.07,5-3.94,3.78-2.93,5.89-6.53,8.84-2.09,1.72-2.69,1.21-10,4.22a94.44,94.44,0,0,0-9.22,4.23c-7.18,3.84-7,5.37-11.53,6.92-5.54,1.88-6.68-.11-10.37,1.92-3.13,1.71-4.82,4.88-8.07,11.14-4.52,8.72-3.31,9.36-5.76,11.91-5.74,6-15.28,5.48-17.29,5.37-4.94-.25-5-1.63-11.91-2.69-8.62-1.31-9.1.74-15.75-.38-9.86-1.66-10.88-6.53-19.21-6.53-4.29,0-3.76,1.3-11.52,2.69-9.93,1.78-12-.12-19.21,1.54-7.94,1.83-7,4.52-15,6.91-9.27,2.79-17.51,1.25-24.2,0C174,163.55,169,161.71,159,158c-13.53-5-13.69-6-19.21-7a52.14,52.14,0,0,0-21.52.84c-8.34,2.17-8.84,4.69-18.82,7.3-4.76,1.25-9.33,2.45-15.34,2.09C78.73,161,74,159.21,64.5,155.72c-8.92-3.27-8.81-3.91-12.68-4.61-2.06-.37-4.39-.6-16.9.39-8.35.66-12.53,1-15.75,1.54A89,89,0,0,0,1.13,158.08Z"
         class="cls-1"
         data-name="Landing Cove"
         id="Landing_Cove" />
    </g>
  </g>
  <g
     transform="translate(-1468.2648,-1556.6398)"
     id="Landing_Cove_Counties"
     data-name="Landing Cove Counties">
    <g
       transform="translate(-392.0952,137.2398)"
       id="Landing_Cove_Counties-8"
       data-name="Landing Cove Counties">
      <path
         style="fill:none;stroke:#000000;stroke-opacity:1"
         class="cls-3"
         d="m 2594.57,2131.49 c 0.07,-3.51 -0.07,-9.73 -1.85,-14 a 8,8 0 0 0 -0.75,-1.44 c -2,-3.08 -5.64,-3.81 -8,-4.45 -5.31,-1.48 -3.19,-2.35 -15.27,-7.78 -5.91,-2.66 -6,-2.27 -7.68,-3.55 -4.72,-3.66 -4.26,-7.16 -8.16,-10.86 -1.7,-1.59 -5.22,-2.72 -12.2,-4.89 -13.87,-4.33 -15.27,-3.34 -18.82,-6.34 -2.85,-2.4 -3.86,-4.64 -7.21,-5.38 -2.44,-0.54 -3.53,0.3 -7.59,-0.28 -2.14,-0.31 -2,-0.57 -5.85,-1.45 -4.38,-1 -6.57,-1.5 -8.26,-1.25 -3.54,0.54 -4,2.4 -7.16,2.2 -2,-0.13 -2.82,-0.9 -4.18,-0.28 -1.09,0.5 -1.29,1.35 -2.68,3.17 a 22.17,22.17 0 0 1 -3.17,3.36 c -1.92,1.57 -4.15,1.39 -10.39,1 -9.62,-0.56 -10.77,-0.51 -12.09,0.33 -2.28,1.45 -2.77,3.82 -4,7.87 a 119.23,119.23 0 0 1 -6.65,16.72"
         id="path64" />
      <path
         style="fill:none;stroke:#000000;stroke-opacity:1"
         class="cls-3"
         d="m 2496.7,2070.06 a 73.22,73.22 0 0 0 7.65,-11.13 22.73,22.73 0 0 1 3.25,-4.81 c 2.58,-2.9 3.78,-2.64 5.25,-4.55 2.05,-2.67 1.13,-5 1.85,-10.82 0,0 0.07,-0.53 0.39,-2 1,-4.34 1.33,-6.53 1.92,-7.56 1.54,-2.71 3.13,-1.44 6.34,-5 2.11,-2.34 2.09,-3.64 4,-4.55 1.7,-0.8 2.32,-0.1 4.84,-0.67 a 15.84,15.84 0 0 0 5.92,-3.08 18.31,18.31 0 0 0 5.41,-5.15 c 2.79,-4.43 1.15,-7.86 3.36,-9 1.13,-0.58 1.67,0.27 7.08,1.28 4.3,0.81 5.28,0.53 6,0.1 1.33,-0.84 1.16,-2 2.32,-4.56 1.46,-3.17 2.55,-3.08 5.21,-7 0.49,-0.72 1.63,-2.93 3.89,-7.35 2.59,-5 3.12,-6.27 3.07,-8.11 a 26.07,26.07 0 0 0 -1.2,-4.54 c -1.78,-5.87 -2.35,-6.85 -2.28,-8.95 0.09,-2.33 0.82,-2 1.18,-4.71 0.27,-2.1 -0.49,-2.75 -0.86,-6.58 a 19.11,19.11 0 0 1 -0.15,-3.75 c 0.21,-2.13 1,-3.56 2,-5.95 1,-2.39 1.59,-3.16 2.35,-3.55 1.13,-0.59 1.82,-0.12 3.15,-0.72 a 6.82,6.82 0 0 0 2.54,-2.57 c 1.43,-2.06 2.75,-4 2.84,-6.56 a 21.21,21.21 0 0 0 -0.94,-4.78 c -0.84,-3.29 -1.28,-3.74 -0.94,-4.73 0.49,-1.4 1.6,-1.18 3.75,-3.5 1.37,-1.49 1.21,-1.91 2.35,-3 1.46,-1.41 2.81,-1.77 4.55,-2.5 a 33.25,33.25 0 0 0 7.61,-4.66 c 1.66,-1.4 1.76,-1.91 5.27,-6 a 53.24,53.24 0 0 1 4.76,-5.33"
         id="path66" />
      <path
         style="fill:none;stroke:#000000;stroke-opacity:1"
         class="cls-3"
         d="m 2571.27,1951.36 a 18.31,18.31 0 0 0 -5,1.08 c -3.45,1.29 -3.92,2.7 -7,3.46 -2.6,0.63 -2.74,-0.24 -5.35,0.57 -2.1,0.66 -3,1.53 -4.58,1.19 -1.41,-0.31 -1.5,-1.2 -2.59,-1.19 -1.51,0 -1.71,1.74 -3.94,2.79 -1.87,0.88 -2.56,0.06 -3.55,0.93 -0.99,0.87 -1.07,2.59 -1.06,5.92 0,2.8 0.34,3 0,4.39 a 6.9,6.9 0 0 1 -2.78,4.48 c -1,0.58 -1.91,0.66 -3.84,0.83 -2.34,0.2 -2.51,-0.16 -4.81,0 -2.86,0.16 -3.26,0.77 -5.09,0.45 -1.57,-0.28 -1.64,-0.79 -3.13,-1.19 -1.49,-0.4 -3,-0.28 -6.66,0.77 -3.66,1.05 -4.47,1.55 -6.79,2.21 a 29.15,29.15 0 0 1 -20.07,-1.34 31.65,31.65 0 0 1 -5.48,-3 c -3.54,-2.46 -3.15,-3.29 -5.69,-4.93 -2.93,-1.87 -5.81,-2.29 -10.76,-3 a 34.07,34.07 0 0 0 -6.08,-0.44 38.48,38.48 0 0 0 -7.21,1 c -3.19,0.58 -7.78,1.41 -12.29,0.54 -6.25,-1.2 -5.61,-4.36 -11.75,-5.12 -1,-0.12 -1.45,-0.1 -9.51,-0.8 -2,-0.18 -3.05,-0.28 -4.06,-0.9 -2.72,-1.66 -2,-4.37 -4.39,-5.79 -0.61,-0.36 -2.66,-0.32 -6.72,-0.22 -3.86,0.09 -4.52,0.25 -5.22,0.54 -0.7,0.29 -0.53,0.34 -4.06,2.69 -1.88,1.25 -2.2,1.41 -2.6,2 -0.61,0.89 -0.76,1.78 -0.93,4.07 -0.15,2.1 -0.22,3.15 -0.22,4.8 0,6.28 -0.67,6.1 -0.29,8.61 a 14.45,14.45 0 0 0 3,7 c 1.5,1.8 2.2,1.54 7.65,5.18 4.44,3 5.16,3.93 5.63,4.87 0.33,0.65 0.38,1 0.84,6.08 0.5,5.61 0.58,6.7 -0.16,8 -0.23,0.4 -0.32,0.45 -2.92,2.85 -4.4,4 -4.78,4.49 -5.12,5.34 -0.75,1.9 0.12,2.33 -0.74,4.87 -0.75,2.23 -1.51,2.15 -2.24,4.13 -0.4,1.11 -0.37,3.08 -0.28,7 0.07,3.28 0.2,4.19 -0.29,5.79 -0.4,1.3 -0.65,1.21 -1.19,2.91 -0.54,1.7 -0.48,2.47 -1,4.77 -0.53,2.12 -0.65,1.73 -0.9,3 -0.6,3.07 0.34,3.92 -0.54,5.8 -0.33,0.7 -0.37,0.37 -1.86,2.43 a 15,15 0 0 0 -2.15,3.43 13.9,13.9 0 0 0 -0.38,4.19 9.69,9.69 0 0 1 -1,5.6 14.15,14.15 0 0 0 -1.28,4.77 17.29,17.29 0 0 0 1.12,4 37.05,37.05 0 0 0 1.92,5.16 c 1.34,2.47 1.94,2.08 2.43,3.65 0.87,2.75 -0.45,5.61 -0.89,6.56 -0.65,1.38 -0.89,1.18 -1.73,3 -1.07,2.27 -0.89,3.05 -1.83,3.68 -0.94,0.63 -1.59,0 -3.14,0.93 -0.82,0.47 -1,0.84 -1.76,1 a 7.33,7.33 0 0 1 -2.05,-0.06 6.35,6.35 0 0 0 -2.4,0.09 c -0.91,0.37 -1.15,1.16 -1.79,2.12 -1.13,1.68 -2,1.51 -3.52,3 -2.26,2.2 -1.35,3.35 -3.71,6 a 15.13,15.13 0 0 1 -3.59,2.91 33.24,33.24 0 0 1 -4.74,2.08 23.92,23.92 0 0 0 -5.47,3.75 56.29,56.29 0 0 0 -8,8"
         id="path68" />
      <path
         style="fill:none;stroke:#000000;stroke-opacity:1"
         class="cls-3"
         d="m 2347,1904.27 c 1.12,4.41 2.2,6 3,6.63 a 16.07,16.07 0 0 1 2.14,1.9 6.1,6.1 0 0 1 0.74,0.89 c 0.25,0.36 0.79,1.2 1.73,5.14 0.85,3.55 0.57,3.54 1.1,4.8 0.64,1.51 1.11,1.68 3.17,4.51 2.35,3.23 1.92,3.26 3.36,4.95 a 24,24 0 0 0 4.95,4.32 15.66,15.66 0 0 0 4.9,2.59 35.53,35.53 0 0 1 3.7,0.87 10.08,10.08 0 0 1 3.36,1.73 c 1.35,1.16 1.4,2.29 2.4,4.75 a 37.29,37.29 0 0 0 4,7 53.17,53.17 0 0 0 3.62,4.8"
         id="path70" />
      <path
         style="fill:none;stroke:#000000;stroke-opacity:1"
         class="cls-3"
         d="m 2557.85,1722.75 c -4.73,-0.1 -6.8,1.24 -7.8,2.52 -0.78,1 -0.62,1.55 -2,5.25 a 26.43,26.43 0 0 1 -2.41,5.53 13.71,13.71 0 0 1 -6.74,4.91 c -4.33,1.63 -5,-0.24 -10.12,1.15 -1.68,0.46 -8.09,2.18 -9,5.76 a 5.38,5.38 0 0 1 -1.34,2.89 c -0.82,0.79 -1.35,0.61 -2.11,1.15 -1.59,1.12 -1.73,3.61 -1.93,7.75 -0.14,3.06 0.13,3.67 -0.51,4.35 -1.47,1.55 -4.2,-0.28 -5.89,1.28 -1.33,1.23 0.08,2.63 -1.28,5.12 -1.21,2.22 -2.56,1.55 -5.57,4.8 a 2.53,2.53 0 0 1 -1.73,1.09 c -1.11,0 -1.42,-1.31 -2.44,-1.51 -1.02,-0.2 -1.95,0.9 -4.54,4.07 -3.58,4.4 -3.92,4.88 -4.29,5.89 -0.54,1.51 -1.31,3.63 -0.38,5.45 0.77,1.5 1.92,1.27 4.42,3.65 a 9.79,9.79 0 0 1 2.56,3.2 c 0.81,1.87 0.26,3.27 -0.13,6 -0.5,3.57 0.22,2.69 -0.06,11.71 -0.06,1.8 -0.05,3.59 -0.13,5.38 a 17.09,17.09 0 0 0 0.19,5.51 c 0.38,1.5 0.71,1.53 1.09,2.88 0.74,2.62 -0.1,4 -0.13,6.34 0,3.08 1.35,5.4 3,8.06 1.68,2.82 2.06,2.11 5.25,6.41 3.19,4.3 2.82,5 5,6.78 1.56,1.3 2.66,1.69 3.91,3.46 1,1.49 0.84,2 1.92,3.59 a 13.47,13.47 0 0 0 3.9,3.58 31.22,31.22 0 0 0 5.89,2.88 59.31,59.31 0 0 1 7.94,4.61 c 5.13,3.29 6.25,4.61 6.92,6.09 a 6.2,6.2 0 0 1 0.57,4 6.71,6.71 0 0 1 -1.34,2.49 19.33,19.33 0 0 1 -4.16,4.61 13.65,13.65 0 0 1 -4.74,2.56 c -2.18,0.63 -3.26,0.26 -4,1.22 -1,1.18 -0.42,3.1 -0.26,3.65 a 11.53,11.53 0 0 0 3.26,4.74 3.53,3.53 0 0 1 1.35,1.66 3,3 0 0 1 -0.58,2.56 c -0.74,1 -1.45,0.62 -2.11,1.41 -0.44,0.53 -0.4,1 -0.38,3.84 0,1.37 0,2.74 0,4.1 0,1.89 0,2.83 0,3 a 11.69,11.69 0 0 1 -3.08,6.66 12.46,12.46 0 0 1 -6.91,4 9,9 0 0 1 -2.88,0.06 12.59,12.59 0 0 1 -3.59,-1.28 c -0.43,-0.17 -4.12,-1.63 -6.47,-0.25 -2.35,1.38 -1.2,4.47 -4.11,6.37 -1.15,0.76 -2,0.69 -2.74,1.76 a 5.36,5.36 0 0 0 -0.7,3.65 c 0.19,3.18 1.11,4.11 1.6,6.66 0.19,1 0,0.83 -0.26,7.49 -0.21,4.66 -0.21,6.45 1,7.3 0.82,0.59 1.37,0.12 2.37,0.7 1.61,0.93 1.9,3.13 2.24,5.64 0.39,2.86 0.77,5.54 1.28,9.28"
         id="path72" />
      <path
         style="fill:none;stroke:#000000;stroke-opacity:1"
         class="cls-3"
         d="m 2441.36,1803.14 a 12.79,12.79 0 0 1 5.89,-1.48 c 1.51,0 1.88,0.31 3.91,0.32 a 11,11 0 0 0 5.12,-0.77 8.91,8.91 0 0 0 3.65,-3.33 c 1.2,-2 0.71,-3.09 1.92,-4.16 0.62,-0.55 1.39,-0.83 3.65,-1 3.53,-0.26 5,0.19 7.46,0.19 a 21.43,21.43 0 0 0 7,-1.22 22.21,22.21 0 0 0 7.37,-4.23"
         id="path74" />
      <path
         style="fill:none;stroke:#000000;stroke-opacity:1"
         class="cls-3"
         d="m 2441.94,1682.55 a 14.26,14.26 0 0 1 5.15,5 c 1,1.75 0.82,2.35 2.37,5.18 a 19.05,19.05 0 0 0 3.33,4.81 c 2,2 2.73,1.53 3.65,3 0.92,1.47 0.35,2.1 1,6.15 a 19.61,19.61 0 0 0 1.09,4.55 c 1.2,2.92 2.32,2.65 3.33,5.06 0.77,1.83 0.73,3.88 0.64,8 -0.06,3 -0.32,3.38 0.07,4.61 a 7.09,7.09 0 0 0 4.35,4.67 c 0.51,0.15 0.46,0 3.46,0.13 1.91,0.06 3,0.09 4.1,0.19 2.61,0.25 4.09,0.39 5.69,1.28 0.9,0.5 3,1.66 3.14,3.52 0.14,1.58 -1.15,3 -1.73,3.59 -1.39,1.51 -2.65,1.65 -2.62,2.37 0.03,0.72 1.53,0.73 3,2.23 1.47,1.5 0.86,2.17 2,3.07 0.95,0.74 2.49,0.72 5.54,0.65 a 28.29,28.29 0 0 0 4.29,-0.32 c 3.56,-0.57 3.43,-1.33 5.57,-1.47 1.72,-0.11 3.66,0.54 7.56,1.86 a 28,28 0 0 0 4,1.28 16.22,16.22 0 0 0 5.14,0.13"
         id="path76" />
      <path
         style="fill:none;stroke:#000000;stroke-opacity:1"
         class="cls-3"
         d="m 2445.65,1588.37 c -0.18,-5.78 -0.15,-10.08 -0.09,-12.92 0.07,-3.42 0.16,-3.62 0.19,-6.88 a 31,31 0 0 1 0.19,-5.44 14.06,14.06 0 0 1 2.62,-6.44 c 1.6,-2 2.38,-1.59 4.58,-3.87 2.2,-2.28 1.83,-3.21 3.94,-5.8 a 22.25,22.25 0 0 1 6.66,-5.34 27,27 0 0 1 7.59,-3 c 3.6,-0.81 3.86,-0.06 6.69,-0.9 a 15.15,15.15 0 0 0 7.33,-4.51 12.77,12.77 0 0 0 3.07,-6.12 10.36,10.36 0 0 0 -0.51,-6.49 7.16,7.16 0 0 1 -0.8,-2 5.36,5.36 0 0 1 0.38,-3.62 c 0.53,-0.92 1,-0.73 2.24,-1.92 1.64,-1.49 1.32,-2.13 3.11,-4 1.34,-1.37 1.66,-1.16 2.27,-2.17 0.61,-1.01 0.4,-1.36 1.12,-3.4 0.58,-1.63 0.88,-2.46 1.54,-2.91 a 6.69,6.69 0 0 1 2.88,-0.64 c 0.95,-0.1 1.73,-0.14 2.25,-0.15"
         id="path78" />
      <path
         style="fill:none;stroke:#000000;stroke-opacity:1"
         class="cls-3"
         d="m 2297.9,1594.71 a 21.79,21.79 0 0 1 -1.5,-4.44 c -0.64,-2.89 -1.12,-5 -0.24,-7.06 1.25,-2.9 3.69,-1.94 6.24,-5.83 0.85,-1.3 1.18,-2.32 2.52,-3.17 1.34,-0.85 2,-0.57 3,-1.54 a 4.46,4.46 0 0 0 1.3,-3 c 0,-0.24 0,-2.2 -1.23,-3 -0.84,-0.51 -1.28,0.15 -2.3,-0.36 -0.58,-0.29 -1.1,-1 -2.16,-2.55 a 7.91,7.91 0 0 1 -0.66,-1 5.1,5.1 0 0 1 -0.09,-3.24 25.33,25.33 0 0 0 0.25,-5.3 c 0,-2.3 0,-3.46 -0.64,-4.29 -1.12,-1.54 -2.8,-1.09 -3.2,-2.18 -0.51,-1.37 1.53,-3.77 4,-5 2.73,-1.37 4.19,0.83 7.81,-0.13 3.42,-0.91 3.1,-3.11 6.77,-4.12 2.8,-0.77 3.34,0.41 7.06,-0.36 3,-0.63 2.9,-1.46 5.64,-1.92 4,-0.68 4.89,1 7.17,-0.13 2.49,-1.19 2.06,-3.46 4.73,-4.48 1.77,-0.68 2.29,0.18 4.49,-0.39 0.37,-0.1 4,-1.09 5.12,-3.71 1.26,-3 -2.26,-4.73 -1.92,-9.35 0.26,-3.63 2.53,-3.91 2.56,-7.68 0,-2.43 -0.92,-2.59 -1.67,-6.66 -0.7,-3.86 -1.07,-5.86 0,-7.43 1.83,-2.65 5.6,-0.86 7.94,-3.84 1.51,-1.91 0.37,-3.18 2.18,-5.25 1.81,-2.07 3.69,-1.69 4.35,-3.46 0.49,-1.3 -0.3,-2.14 -0.76,-4.48 a 15.4,15.4 0 0 1 0.1,-6.34"
         id="path80" />
      <path
         style="fill:none;stroke:#000000;stroke-opacity:1"
         class="cls-3"
         d="m 2092.94,1702.9 c 7.1,-1 9.45,-3.22 10.2,-5.16 0.91,-2.34 -0.72,-3.79 0.38,-7.68 0.83,-2.94 2.07,-3.22 2.69,-6.34 a 9.63,9.63 0 0 0 -0.19,-5.76 c -1.4,-3.39 -4.8,-3.81 -4.61,-5.57 0.19,-1.76 3.16,-1.56 4,-4 0.58,-1.61 -0.47,-2.26 -0.19,-4.41 0.39,-2.9 2.47,-3.08 2.95,-5.31 0.83,-3.88 -4.93,-5.91 -4.48,-10.25 0.33,-3.23 3.71,-4.23 3.07,-6.34 -0.55,-1.81 -3.59,-2.75 -5.76,-2.88 -2.17,-0.13 -3.09,1 -5.38,0.57 -1.79,-0.37 -1.9,-1.21 -3.46,-1.82 -4,-1.55 -6.8,2.47 -10,1.25 -2.21,-0.85 -1.26,-3 -4.41,-6.92 -1.55,-1.94 -4.82,-6 -9.42,-6.53 -2.11,-0.22 -4.46,0.33 -5.37,-1 -0.49,-0.74 -0.23,-1.52 -0.95,-2.26 a 3.52,3.52 0 0 0 -2.61,-0.82 c -8.46,0 -9.42,0.26 -10.27,-0.48 -2,-1.71 0.56,-5.29 -2.12,-8.74 -0.82,-1.06 -1,-0.7 -2.78,-2.3 -1.78,-1.6 -4.56,-4.21 -4.81,-7.49 -0.21,-2.91 1.85,-3.4 1.45,-5.86 -0.55,-3.34 -4.81,-5.3 -6.25,-6 -4.5,-2.07 -5.91,-0.23 -8.93,-2.4 -2.57,-1.84 -2.15,-3.61 -5.47,-5.66 -1.68,-1 -2.52,-1 -3.75,-2.21 a 9.27,9.27 0 0 1 -2.55,-5"
         id="path82" />
      <path
         style="fill:none;stroke:#000000;stroke-opacity:1"
         class="cls-3"
         d="m 2173.83,1577.12 a 16.23,16.23 0 0 0 7.55,5.89 c 3.22,1.13 5.47,0.52 7.56,2.56 a 7.7,7.7 0 0 1 2.17,5.18 c -0.05,3.65 -3.35,4.43 -3.07,7.11 0.36,3.5 5.34,3.27 7.3,8.07 1.44,3.51 -0.46,5.5 1.54,7.87 2,2.37 4.31,1.46 5.18,3.46 0.81,1.84 -1,3.06 -1.34,6.72 -0.21,2.34 0.35,4.06 1.15,6.53 1,3.18 2,6.19 4.61,8.46 3.08,2.66 4.68,1 8.83,4.22 1.63,1.25 1.8,1.82 5,4.61 1.75,1.53 3.25,2.71 4.22,3.46 a 18,18 0 0 1 8.07,1.15 19.48,19.48 0 0 1 5.76,3.65 31.84,31.84 0 0 1 5.77,6.92 c 1.1,1.76 0.62,1.6 3.07,6.53 0.44,0.88 1.39,2.79 2.71,5.19 2.63,4.75 3.21,5.07 3.63,6.71 a 11.42,11.42 0 0 1 -1,7.62"
         id="path84" />
      <path
         style="fill:none;stroke:#000000;stroke-opacity:1"
         class="cls-3"
         d="m 2538,2147.11 a 79.9,79.9 0 0 1 15.48,-12.91 c 7.69,-4.9 10.91,-5 12.34,-5 4.2,0.12 4.81,2.09 11,3.17 4.35,0.76 7.78,0.44 11.91,0.05 8.23,-0.78 7.76,-2.19 12.73,-2.26 7.85,-0.11 8.53,3.42 17.14,3.41 a 32.44,32.44 0 0 0 11.77,-1.82 c 4.18,-1.53 5.75,-3.21 9.36,-3.17 3,0 3.35,1.18 7.49,2.35 6.13,1.73 6.68,-0.4 13.83,1.11 a 82.38,82.38 0 0 1 10.47,3.21 c 2.78,1 3,1.24 4.22,1.54 2.7,0.67 6.54,0.81 11.73,-1.31"
         id="path86" />
      <g
         style="fill:none;stroke:#000000;stroke-opacity:1"
         id="Marsh">
        <path
           style="fill:none;stroke:#000000;stroke-opacity:1"
           class="cls-3"
           d="m 2347,1904.27 c 1.12,4.41 2.2,6 3,6.63 a 16.07,16.07 0 0 1 2.14,1.9 6.1,6.1 0 0 1 0.74,0.89 c 0.25,0.36 0.79,1.2 1.73,5.14 0.85,3.55 0.57,3.54 1.1,4.8 0.64,1.51 1.11,1.68 3.17,4.51 2.35,3.23 1.92,3.26 3.36,4.95 a 24,24 0 0 0 4.95,4.32 15.66,15.66 0 0 0 4.9,2.59 35.53,35.53 0 0 1 3.7,0.87 10.08,10.08 0 0 1 3.36,1.73 c 1.35,1.16 1.4,2.29 2.4,4.75 a 37.29,37.29 0 0 0 4,7 53.17,53.17 0 0 0 3.62,4.8 v 0 c -0.61,0.89 -0.76,1.78 -0.93,4.07 -0.15,2.1 -0.22,3.15 -0.22,4.8 0,6.28 -0.67,6.1 -0.29,8.61 a 14.45,14.45 0 0 0 3,7 c 1.5,1.8 2.2,1.54 7.65,5.18 4.44,3 5.16,3.93 5.63,4.87 0.33,0.65 0.38,1 0.84,6.08 0.5,5.61 0.58,6.7 -0.16,8 -0.23,0.4 -0.32,0.45 -2.92,2.85 -4.4,4 -4.78,4.49 -5.12,5.34 -0.75,1.9 0.12,2.33 -0.74,4.87 -0.75,2.23 -1.51,2.15 -2.24,4.13 -0.4,1.11 -0.37,3.08 -0.28,7 0.07,3.28 0.2,4.19 -0.29,5.79 -0.4,1.3 -0.65,1.21 -1.19,2.91 -0.54,1.7 -0.48,2.47 -1,4.77 -0.53,2.12 -0.65,1.73 -0.9,3 -0.6,3.07 0.34,3.92 -0.54,5.8 -0.33,0.7 -0.37,0.37 -1.86,2.43 a 15,15 0 0 0 -2.15,3.43 13.9,13.9 0 0 0 -0.38,4.19 9.69,9.69 0 0 1 -1,5.6 14.15,14.15 0 0 0 -1.28,4.77 17.29,17.29 0 0 0 1.12,4 37.05,37.05 0 0 0 1.92,5.16 c 1.34,2.47 1.94,2.08 2.43,3.65 0.87,2.75 -0.45,5.61 -0.89,6.56 -0.65,1.38 -0.89,1.18 -1.73,3 -1.07,2.27 -0.89,3.05 -1.83,3.68 -0.94,0.63 -1.59,0 -3.14,0.93 -0.82,0.47 -1,0.84 -1.76,1 a 7.33,7.33 0 0 1 -2.05,-0.06 6.35,6.35 0 0 0 -2.4,0.09 c -0.91,0.37 -1.15,1.16 -1.79,2.12 -1.13,1.68 -2,1.51 -3.52,3 -2.26,2.2 -1.35,3.35 -3.71,6 a 15.13,15.13 0 0 1 -3.59,2.91 33.24,33.24 0 0 1 -4.74,2.08 23.92,23.92 0 0 0 -5.47,3.75 56.29,56.29 0 0 0 -8,8 105.11,105.11 0 0 1 -13,-7.51 c -2.84,-2.09 -5.79,-4.24 -6.37,-7.93 -0.44,-2.85 0.33,-5.75 -0.06,-8.62 -0.41,-3.06 -2.35,-5.15 -4.36,-7.27 -1.31,-1.4 -1.52,-2.23 -0.74,-4.09 1.41,-3.39 3.8,-6.37 5.3,-9.74 0.49,-1.1 0.76,-2.36 1.34,-3.41 0.58,-1.05 1.26,-1.82 1.84,-2.71 1,-1.61 3.36,-3.44 2.86,-5.51 -3.68,-1 -8.12,0.66 -10.55,-3.14 -1.05,-1.64 -1.29,-3.71 -2.6,-5.2 a 19.51,19.51 0 0 0 -3.68,-2.62 11.59,11.59 0 0 1 -4.85,-5.53 c -0.45,-1.13 -0.78,-2.3 -1.17,-3.45 a 16.94,16.94 0 0 0 -4,-6.5 c -1.27,-1.28 -2.77,-2.21 -3.84,-3.72 -1.89,-2.69 -2,-5.06 -5.89,-5.13 -2.42,0 -5.22,0.55 -7.59,0 a 3,3 0 0 1 -1.91,-1.21 c -0.82,-1.26 -0.84,-1.69 -2.59,-1.73 -2.48,-0.06 -5.17,0.64 -7.6,0.92 -3.25,0.37 -7.54,1.19 -10.49,-0.82 -1.17,-0.79 -1.28,-1.7 -2.12,-2.69 -1.34,-1.58 -3.27,-1.73 -5.13,-2 -3.4,-0.47 -1.8,-3.42 -1.17,-5.75 1.13,-4.17 3.61,-10.14 0,-13.8 -1.48,-1.51 -3.42,-2.41 -4.83,-4 a 17.79,17.79 0 0 1 -2.6,-3.88 c -1.66,-3.4 -1.51,-7.43 -3.26,-10.72 a 3.36,3.36 0 0 0 -3.06,-2.08 c -4.3,-0.57 -8.87,0.76 -13.2,0.82 a 33.21,33.21 0 0 0 -7,0.45 30.06,30.06 0 0 0 -5.14,2.08 c -2.75,1.2 -5.45,2.48 -8.19,3.7 -3.17,1.4 -6.92,3.55 -10.51,3.42 -1.25,0 -1.51,-0.26 -2,-1.31 -0.49,-1.05 -0.69,-3.37 -1.83,-4 -0.58,-0.32 -0.81,-0.06 -1.46,0.19 -1.63,0.61 -3.4,1.17 -5.07,1.64 a 30.82,30.82 0 0 1 -6.77,0.84 9.79,9.79 0 0 1 -5.07,-0.81 c -4.7,-2.42 -6.52,-8.72 -8.52,-13.29 a 10.51,10.51 0 0 1 -0.79,-4 2,2 0 0 0 -0.74,-1.79 c -0.46,-0.51 -0.85,-0.47 -1,-1.2 -0.21,-1.16 0.71,-2.68 1,-3.77 0.42,-1.74 1,-2.85 0.32,-4.61 -0.83,-2 -2.91,-4.58 -5.09,-5.31 -1.19,-0.4 -2.28,-0.27 -3.48,-0.9 a 6.64,6.64 0 0 1 -1.88,-1.25 4.63,4.63 0 0 1 -0.8,-3.34 20.83,20.83 0 0 1 0.31,-4.24 33.21,33.21 0 0 0 0.53,-6.82 8.3,8.3 0 0 1 0.06,-2.23 12.56,12.56 0 0 1 1.13,-2.06 c 1.28,-2.39 4.06,-4.33 6,-6.2 1.72,-1.65 4,-2.85 4.05,-5.41 0,-0.94 -0.11,-1.94 0,-2.88 0.25,-2.63 1.84,-4.41 3.42,-6.35 2.92,-3.61 9.49,-6.8 9.49,-6.8 a 32.42,32.42 0 0 1 15.11,-0.09 c 4.43,1 9,1.46 13.4,2.65 3.69,1 6.58,3 10.15,4.28 2.64,0.94 5.53,1.38 8.22,2.21 5.07,1.55 9.33,4.29 14.6,5.26 a 16.06,16.06 0 0 0 12.59,-2.47 c 4.83,-3.38 8.76,-7.71 13.38,-11.33 2.22,-1.73 4.75,-5.18 7.56,-6 2.27,-0.69 4.77,0.81 6.84,1.45 7.24,2.23 15.45,2.08 22.34,5.31 5.56,2.61 11.08,2.56 17.2,1.91 a 40.74,40.74 0 0 0 26.12,-13.78"
           id="path88" />
      </g>
    </g>
  </g>
</svg>
