<?xml version="1.0" encoding="UTF-8" standalone="no"?>
<svg
   xmlns:dc="http://purl.org/dc/elements/1.1/"
   xmlns:cc="http://creativecommons.org/ns#"
   xmlns:rdf="http://www.w3.org/1999/02/22-rdf-syntax-ns#"
   xmlns:svg="http://www.w3.org/2000/svg"
   xmlns="http://www.w3.org/2000/svg"
   viewBox="0 0 838.57621 791.18192"
   version="1.1"
   id="svg9"
   width="838.57623"
   height="791.18195">
  <metadata
     id="metadata13">
    <rdf:RDF>
      <cc:Work
         rdf:about="">
        <dc:format>image/svg+xml</dc:format>
        <dc:type
           rdf:resource="http://purl.org/dc/dcmitype/StillImage" />
        <dc:title></dc:title>
      </cc:Work>
    </rdf:RDF>
  </metadata>
  <defs
     id="defs4">
    <style
       id="style2">.cls-1{fill:none;stroke:#231f20;stroke-miterlimit:10;}</style>
  </defs>
  <g
     style="fill:none;fill-opacity:1;stroke-width:1;stroke-miterlimit:4;stroke-dasharray:none"
     id="Layer_2"
     data-name="Layer 2"
     transform="translate(513.80821,1219.6486)">
    <g
       style="fill:none;fill-opacity:1;stroke-width:1;stroke-miterlimit:4;stroke-dasharray:none"
       id="Districts" />
  </g>
  <g
     transform="translate(-1346.5518,-199.75137)"
     id="Marsh"
     style="fill:none;fill-opacity:1;stroke:#000000;stroke-width:1;stroke-miterlimit:4;stroke-dasharray:none;stroke-opacity:1" />
  <path
     d="m 153.52203,155.93613 c 0.3129,1.8902 1.2307,3.8459 2.577,5.209 v 1e-4 c 1.23,1.21 2.07,1.21 3.75,2.21 3.32,2.05 2.9,3.82 5.47,5.66 3.02,2.17 4.43,0.33 8.93,2.4 1.44,0.7 5.7,2.66 6.25,6 0.4,2.46 -1.66,2.95 -1.45,5.86 0.25,3.28 3.03,5.89 4.81,7.49 1.78,1.6 1.96,1.24 2.78,2.3 2.68,3.45 0.12,7.03 2.12,8.74 0.85,0.74 1.81,0.48 10.27,0.48 0.945,-0.09 1.8862,0.2059 2.61,0.82 0.72,0.74 0.46,1.52 0.95,2.26 0.91,1.33 3.26,0.78 5.37,1 4.6,0.53 7.87,4.59 9.42,6.53 3.15,3.92 2.2,6.07 4.41,6.92001 3.2,1.22 6,-2.80001 10,-1.25001 1.56,0.61 1.67,1.45001 3.46,1.82001 2.29,0.43 3.21,-0.7 5.38,-0.57 2.17,0.13 5.21,1.07 5.76,2.88 0.64,2.11 -2.74,3.11 -3.07,6.34 -0.45,4.34 5.31,6.37 4.48,10.25 -0.48,2.23 -2.56,2.41 -2.95,5.31 -0.28,2.15 0.77,2.8 0.19,4.41 -0.84,2.44 -3.81,2.24 -4,4 -0.19,1.76 3.21,2.18 4.61,5.57 0.6498,1.8556 0.7161,3.8656 0.19,5.76 -0.62,3.12 -1.86,3.4 -2.69,6.34 -1.1,3.89 0.53,5.34 -0.38,7.68 -0.75,1.94 -3.121,4.2211 -10.221,5.2209 M 576.18909,0.53433441 l 48.3007,6.88089999 18.0293,73.1171996 54.96876,222.912006 6.6816,27.0996 45.7813,143.6483 77.0292,241.69353 10.92,34.2578 c -1.615,0.06 -3.1399,0.4461 -4.6524,0.8886 -1.5125,0.4425 -3.0131,0.9425 -4.5781,1.2325 -0.6033,0.1981 -1.2357,0.2397 -1.8437,0.1367 -0.6081,-0.1031 -1.191,-0.3505 -1.6954,-0.7363 -0.565,-0.3625 -1.1175,-0.5983 -1.666,-0.7344 -0.5484,-0.1361 -1.0933,-0.1738 -1.6445,-0.1406 -1.1025,0.066 -2.2309,0.4144 -3.4609,0.8144 -1.49,0.485 -3.0887,1.2322 -4.7012,1.6797 -0.8063,0.2237 -1.6157,0.3735 -2.416,0.3769 -0.8003,0 -1.5914,-0.1385 -2.3614,-0.496 -0.4575,-0.21 -0.9558,-0.2962 -1.4746,-0.3028 -0.5187,-0.01 -1.0576,0.066 -1.5976,0.1719 -1.08,0.2125 -2.1629,0.5597 -3.0879,0.6797 -0.751,0.1618 -1.5189,0.2024 -2.2735,0.123 -0.7545,-0.079 -1.4963,-0.2773 -2.1972,-0.5918 -0.33,-0.18 -0.65,-0.4 -1,-0.58 -0.96,-0.48 -1.85,-0.6629 -2.75,-0.6641 -0.9,-10e-4 -1.8106,0.1788 -2.8106,0.4238 -0.94,0.22 -1.8783,0.3901 -2.8183,0.5801 -0.5079,0.065 -1.0234,0.065 -1.5313,0 -0.7258,0.032 -1.4408,0.1795 -2.1191,0.4395 -1.26,0.42 -2.4698,0.72 -3.7598,1 -1.009,0.3338 -2.0683,0.4937 -3.1308,0.4707 -0.6462,-0.1698 -1.2677,-0.4219 -1.8497,-0.75 -0.79,-0.315 -1.5983,-0.3879 -2.4121,-0.3516 -0.8137,0.036 -1.6322,0.1808 -2.4472,0.3008 -1.465,0.215 -2.9264,0.2735 -4.3789,0.3847 -1.4525,0.1113 -2.8971,0.2751 -4.3321,0.7051 -0.9694,0.3143 -1.981,0.4803 -3,0.4903 -1.95,-0.03 -3.849,0.4692 -5.789,0.5292 -0.545,0.01 -1.0935,-0.059 -1.6172,-0.053 -0.5238,0.01 -1.0246,0.089 -1.4746,0.4043 -0.81,0.56 -1.4924,1.4286 -2.0762,2.3711 -0.5837,0.9425 -1.0674,1.9586 -1.4824,2.8086 -0.5707,1.0741 -0.9913,2.2217 -1.25,3.4102 -0.229,0.7952 -0.3103,1.6247 -0.2403,2.4492 0.1718,0.4158 0.452,0.779 0.8106,1.0508 0.365,0.285 0.7489,0.4125 0.9414,0.5937 0.1925,0.1813 0.1921,0.4161 -0.2129,0.9161 -0.6851,0.6385 -1.4628,1.1683 -2.3086,1.5703 -2.0477,1.5161 -3.9509,3.22 -5.6816,5.0898 -1.6,1.58 -2.9283,3.38 -4.4883,5 -0.8849,0.9932 -1.8202,1.941 -2.8008,2.8399 -0.92,0.79 -1.7701,1.439 -2.8301,2.289 -0.53,0.425 -1.0072,0.856 -1.5234,1.1797 -0.5163,0.3238 -1.0709,0.541 -1.7559,0.541 -1.5385,0.076 -3.0635,0.3339 -4.541,0.7695 -0.42,0.095 -0.975,0.2579 -1.5312,0.3516 -0.5563,0.094 -1.1141,0.1195 -1.5391,-0.061 -0.48,-0.25 -0.7394,-0.8 -1.1894,-1 -0.395,-0.175 -0.8032,-0.1376 -1.2032,-0.018 -0.4,0.12 -0.7912,0.3216 -1.1562,0.4766 -0.95,0.41 -1.9512,0.7912 -2.9512,1.2011 -0.345,0.145 -0.5934,0.2699 -0.8047,0.2774 -0.2112,0.01 -0.3842,-0.1027 -0.5742,-0.4277 -0.216,-0.5728 -0.3569,-1.1724 -0.4199,-1.7813 -0.06,-0.7855 -0.06,-1.5739 0,-2.3594 0.013,-0.4234 -0.1001,-0.8298 -0.3106,-1.1777 -0.2104,-0.3479 -0.5193,-0.6373 -0.9004,-0.8223 -0.96,-0.67 -1.8789,-1.33 -2.8789,-2 -1.3658,-1.1231 -2.6537,-2.3399 -3.8515,-3.6406 -1.76,-1.48 -3.8681,-2.6486 -5.5781,-4.0586 -1.71,-1.41 -3.2514,-3.1013 -4.8614,-4.6113 -2.16,-2.005 -4.4164,-3.97 -6.4414,-6.125 -1.0125,-1.0775 -1.9672,-2.2011 -2.8222,-3.4024 -0.855,-1.2012 -1.6116,-2.4788 -2.2266,-3.8613 -0.3713,-0.8325 -0.6368,-1.6765 -0.8184,-2.5273 -0.1815,-0.8508 -0.2781,-1.7099 -0.3125,-2.5742 -0.069,-1.7288 0.1139,-3.4794 0.3789,-5.2344 0.265,-1.755 0.6124,-3.5141 0.8711,-5.2578 0.2588,-1.7438 0.4293,-3.4711 0.3418,-5.1661 -0.073,-1.4755 -0.459,-2.8472 -1.0566,-4.1269 -0.5977,-1.2797 -1.4077,-2.4679 -2.3301,-3.5781 -0.937,-1.1278 -1.9884,-2.1762 -3.0527,-3.1563 -0.905,-0.835 -1.8818,-1.7901 -2.9668,-2.5176 -0.5425,-0.3637 -1.1124,-0.6703 -1.7149,-0.8769 -0.6025,-0.2066 -1.2376,-0.3129 -1.9101,-0.2754 -1.4631,0.141 -2.8784,0.5327 -4.18946,1.1484 -1.311,0.6158 -2.5177,1.4563 -3.5605,2.4922 -0.69,0.775 -1.047,1.6551 -1.3145,2.5801 -0.2675,0.925 -0.4454,1.8946 -0.7754,2.8496 -0.4825,1.39 -1.1983,2.6954 -2.0761,3.9199 -0.8779,1.2246 -1.9168,2.368 -3.043,3.4336 -1.1263,1.0657 -2.3406,2.0535 -3.5684,2.9668 -1.2278,0.9133 -2.4698,1.7521 -3.6523,2.5196 -1.3925,0.9025 -2.8124,1.7072 -4.2617,2.3847 -1.4494,0.6775 -2.9275,1.2286 -4.4375,1.6211 -1.51,0.3925 -3.0507,0.6263 -4.625,0.6738 -1.5744,0.047 -3.1817,-0.092 -4.8242,-0.4492 -1.354,-0.3679 -2.68,-0.832 -3.9649,-1.3867 -1.2849,-0.5547 -2.5303,-1.2004 -3.7266,-1.9336 -1.045,-0.605 -2.2943,-1.3218 -3.4355,-2.1543 -1.1413,-0.8325 -2.17321,-1.7807 -2.78321,-2.8457 -0.4125,-0.7325 -0.7051,-1.4969 -0.9316,-2.2773 -0.22659,-0.7805 -0.38839,-1.5776 -0.53719,-2.377 -0.2975,-1.5987 -0.5466,-3.2051 -1.1815,-4.7051 -0.4175,-0.97 -0.9682,-1.7924 -1.5996,-2.5293 -0.6314,-0.7368 -1.3439,-1.3881 -2.082,-2.0156 -1.4763,-1.255 -3.0584,-2.4165 -4.3184,-3.9765 -0.435,-0.5375 -0.772,-1.1413 -1.043,-1.7852 -0.2709,-0.6439 -0.4766,-1.3278 -0.6504,-2.0234 -0.3475,-1.3913 -0.5677,-2.8297 -0.9277,-4.0997 -0.32,-1.1199 -0.6686,-2.2417 -1.0586,-3.3417 -0.752,-1.9808 -1.2588,-4.0446 -1.5097,-6.1485 -0.095,-0.8525 -0.2827,-1.6212 -0.5508,-2.3242 -0.2682,-0.703 -0.6185,-1.3412 -1.041,-1.9356 -0.845,-1.1887 -1.9801,-2.2011 -3.3301,-3.2011 -1.675,-1.205 -3.251,-2.4032 -4.6797,-3.752 -1.4288,-1.3487 -2.7091,-2.8482 -3.7891,-4.6582 -0.5886,-0.979 -1.1743,-2.0357 -1.8808,-2.9394 -0.5058,-0.6471 -1.074,-1.2164 -1.75,-1.6211 -0.405,-0.2425 -0.8645,-0.3753 -1.3535,-0.4317 -0.4891,-0.056 -1.0067,-0.035 -1.5254,0.029 -1.0375,0.1288 -2.0802,0.4324 -2.9102,0.6524 -1.765,0.475 -3.893,1.0434 -5.873,1.8672 -0.99,0.4118 -1.9425,0.8887 -2.795,1.4492 -0.8525,0.5605 -1.6058,1.2051 -2.1933,1.9551 -0.3175,0.4 -0.5034,0.8489 -0.5996,1.3261 -0.096,0.4772 -0.1011,0.9824 -0.059,1.4961 0.085,1.0275 0.3647,2.0876 0.5097,3.0176 0.49,3 0.7503,6.07 1.4903,9 0.42,1.665 1.0974,3.2652 1.7636,4.8652 0.6663,1.6 1.3203,3.2003 1.6953,4.8653 0.1462,0.6826 0.1635,1.3785 0.057,2.0566 -0.1068,0.6782 -0.3365,1.3387 -0.6855,1.9434 -0.585,1.2425 -1.3273,2.391 -2.1895,3.4433 -0.8621,1.0524 -1.8453,2.007 -2.914,2.8614 -1.0688,0.8543 -2.2231,1.6092 -3.4277,2.2578 -1.2047,0.6486 -2.4605,1.1919 -3.7305,1.6269 -3.6857,1.308 -7.4295,2.4339 -11.2207,3.375 -3.7912,0.9412 -7.6286,1.6982 -11.4981,2.2656 -2.565,0.3351 -5.1725,0.6692 -7.7363,0.6192 -1.2819,-0.025 -2.5535,-0.1465 -3.8027,-0.4121 -1.2492,-0.2656 -2.4769,-0.6749 -3.6719,-1.2774 -1.345,-0.675 -2.5313,-1.5753 -3.73628,-2.4453 -1.205,-0.87 -2.4288,-1.7106 -3.8438,-2.2656 -1.06,-0.41 -2.276,-0.5829 -3.5097,-0.6816 -1.2338,-0.099 -2.4844,-0.1233 -3.6094,-0.2383 -2.5602,-0.1164 -5.0996,-0.5181 -7.5703,-1.1992 -0.67,-0.1637 -1.305,-0.4338 -1.8809,-0.7969 -0.5759,-0.3631 -1.0928,-0.8195 -1.5293,-1.3535 -0.6355,-1.1844 -1.1386,-2.4358 -1.5,-3.7305 -0.518,-1.4283 -1.2567,-2.756 -2.1816,-3.9375 -0.925,-1.1815 -2.0366,-2.2169 -3.2989,-3.0625 -0.6532,-0.4174 -1.315,-0.8163 -1.9824,-1.2031 -2.1847,-1.2662 -4.4297,-2.3977 -6.6426,-3.5918 -2.2128,-1.1941 -4.3936,-2.4511 -6.4453,-3.9649 -1.42,-1.045 -2.8662,-2.1052 -4.0312,-3.3652 -0.5825,-0.63 -1.0956,-1.3094 -1.4981,-2.0625 -0.4025,-0.7531 -0.6948,-1.5795 -0.8398,-2.502 -0.22,-1.425 -0.1342,-2.8627 -0.043,-4.3027 0.091,-1.44 0.1872,-2.8833 -0.01,-4.3183 -0.092,-0.765 -0.2859,-1.4676 -0.5567,-2.127 -0.2707,-0.6594 -0.6175,-1.2744 -1.0156,-1.8594 -0.7962,-1.17 -1.7969,-2.2232 -2.7969,-3.2832 -0.655,-0.7 -1.0355,-1.258 -1.1543,-1.873 -0.1187,-0.615 0.024,-1.2868 0.4141,-2.2168 0.71,-1.695 1.6599,-3.2843 2.6211,-4.8731 0.9613,-1.5887 1.9345,-3.1772 2.6895,-4.8672 0.49,-1.1 0.8398,-2.5001 1.3398,-3.4101 0.5,-0.91 1.2601,-1.819 1.8301,-2.709 0.515,-0.805 1.3551,-1.6645 2.0039,-2.582 0.3244,-0.4588 0.6014,-0.9321 0.7656,-1.42 0.1642,-0.4878 0.2149,-0.9903 0.09,-1.5078 -1.84,-0.475 -3.8704,-0.3107 -5.7441,-0.5019 -0.9369,-0.096 -1.833,-0.2795 -2.6485,-0.6778 -0.8154,-0.3982 -1.5487,-1.0109 -2.1562,-1.9609 -0.525,-0.82 -0.8481,-1.7475 -1.2031,-2.6562 -0.355,-0.9088 -0.7435,-1.798 -1.3985,-2.543 -1.1174,-1.0175 -2.3526,-1.8982 -3.6797,-2.6211 -1.0859,-0.6354 -2.054,-1.4374 -2.873,-2.3711 -0.819,-0.9338 -1.4884,-1.9987 -1.9766,-3.1582 -0.45,-1.13 -0.7699,-2.3012 -1.1699,-3.4512 -0.4104,-1.2215 -0.9579,-2.3881 -1.6289,-3.4785 -0.671,-1.0904 -1.4656,-2.1047 -2.3711,-3.0215 -0.64,-0.64 -1.3344,-1.1922 -2.0019,-1.7734 -0.6675,-0.5813 -1.3079,-1.1904 -1.8379,-1.9454 -0.95,-1.345 -1.4599,-2.6113 -2.2149,-3.5488 -0.3775,-0.4687 -0.8167,-0.8548 -1.4023,-1.1289 -0.5857,-0.2741 -1.3182,-0.4356 -2.2832,-0.4531 -1.21,-0.03 -2.5157,0.1047 -3.8145,0.1797 -1.2987,0.075 -2.5904,0.09 -3.7754,-0.1797 -0.7701,-0.1388 -1.4556,-0.572 -1.9101,-1.209 -0.41,-0.63 -0.6164,-1.0629 -0.9414,-1.3379 -0.325,-0.275 -0.7685,-0.3926 -1.6485,-0.3926 -1.24,-0.04 -2.5294,0.1192 -3.8144,0.3242 -1.285,0.205 -2.5652,0.4558 -3.7852,0.5958 -1.625,0.185 -3.5099,0.4797 -5.3574,0.4785 -0.9238,-7e-4 -1.8392,-0.076 -2.707,-0.2754 -0.8678,-0.1996 -1.6883,-0.5235 -2.4258,-1.0235 -0.585,-0.395 -0.9049,-0.8168 -1.1836,-1.2656 -0.2788,-0.4487 -0.5156,-0.92383 -0.9356,-1.42383 -0.67,-0.79 -1.4852,-1.2235 -2.3652,-1.4922 -0.88,-0.2688 -1.8259,-0.3728 -2.7559,-0.5078 -0.8525,-0.1175 -1.392,-0.3905 -1.7109,-0.7695 -0.3189,-0.3791 -0.4175,-0.8645 -0.3906,-1.4082 0.054,-1.0875 0.6119,-2.4073 0.9219,-3.5723 0.55,-2.085 1.4465,-4.6206 1.7578,-7.0918 0.1556,-1.2356 0.1663,-2.4542 -0.088,-3.5938 -0.1271,-0.5697 -0.3204,-1.1209 -0.5938,-1.6425 -0.2733,-0.5217 -0.6274,-1.0152 -1.0761,-1.4727 -0.74,-0.74 -1.5945,-1.3321 -2.4395,-1.9434 -0.845,-0.6112 -1.6809,-1.2416 -2.3809,-2.0566 -1.0311,-1.181 -1.9075,-2.4868 -2.6093,-3.8887 -0.83,-1.7 -1.2056,-3.5586 -1.5918,-5.4023 -0.1932,-0.9219 -0.3895,-1.8408 -0.6465,-2.7344 -0.257,-0.8936 -0.5742,-1.7615 -1.0117,-2.584 -0.261,-0.6197 -0.6924,-1.1341 -1.2266,-1.4961 -0.5342,-0.3619 -1.1714,-0.5714 -1.8437,-0.5839 -1.075,-0.1425 -2.167,-0.1666 -3.2676,-0.1211 -1.1007,0.045 -2.2103,0.1605 -3.3203,0.2949 -2.22,0.2687 -4.4416,0.6165 -6.6016,0.6465 -2.3593,-0.1007 -4.7234,0.049 -7.0508,0.4492 -1.7738,0.5335 -3.495,1.2299 -5.1406,2.0801 -2.74,1.2 -5.4495,2.4811 -8.1895,3.7011 -1.58497,0.71 -3.31512,1.5973 -5.09762,2.291 -0.89125,0.3469 -1.79524,0.6441 -2.70117,0.8477 -0.90594,0.2036 -1.81344,0.3138 -2.71094,0.2813 -0.61,-0.02 -0.97586,-0.078 -1.25586,-0.2657 -0.28,-0.1875 -0.47414,-0.5049 -0.74414,-1.0449 -0.27,-0.54 -0.44195,-1.381 -0.68946,-2.166 -0.2475,-0.785 -0.57062,-1.514 -1.14062,-1.834 -0.285,-0.165 -0.48672,-0.1819 -0.69922,-0.1269 -0.2125,0.055 -0.43672,0.1816 -0.76172,0.3066 -1.63,0.64 -3.39836,1.1706 -5.06836,1.6406 -2.2186,0.5297 -4.49068,0.8109 -6.77148,0.8399 -0.866,0.093 -1.73537,0.07 -2.58789,-0.066 -0.85253,-0.1362 -1.68657,-0.3861 -2.48047,-0.7442 -1.175,-0.605 -2.17039,-1.4527 -3.0332,-2.4551 -0.86282,-1.0023 -1.59399,-2.1584 -2.24024,-3.3828 -1.2925,-2.4487 -2.24804,-5.1661 -3.24804,-7.4512 -0.5219,-1.269 -0.78937,-2.6279 -0.78907,-4 0.039,-0.3421 -0.0112,-0.6839 -0.13867,-0.9921 -0.12745,-0.3083 -0.33236,-0.5841 -0.60156,-0.7989 -0.24,-0.255 -0.45711,-0.3726 -0.63086,-0.5175 -0.17375,-0.145 -0.30414,-0.3167 -0.36914,-0.6817 -0.095,-0.58 0.0908,-1.2509 0.33203,-1.9121 0.24125,-0.6612 0.53797,-1.3144 0.66797,-1.8594 0.21,-0.87 0.47039,-1.5818 0.58789,-2.2968 0.1175,-0.7151 0.0924,-1.4326 -0.26758,-2.3125 -0.415,-1.015 -1.14211,-2.1601 -2.03711,-3.1426 -0.895,-0.9825 -1.95797,-1.803 -3.04297,-2.168 -1.19,-0.4 -2.29023,-0.2684 -3.49023,-0.8984 -0.6934,-0.3063 -1.33016,-0.7291 -1.88086,-1.25 -0.34335,-0.4825 -0.58458,-1.0223 -0.71875,-1.5879 -0.13418,-0.5656 -0.16036,-1.157 -0.0703,-1.7422 -0.0502,-1.4233 0.0511,-2.8479 0.30078,-4.25 0.4109,-2.249 0.58829,-4.5348 0.52929,-6.8203 -0.0754,-0.7428 -0.0548,-1.4928 0.0605,-2.2305 0.3154,-0.7185 0.69251,-1.4084 1.12891,-2.0605 0.635,-1.195 1.63531,-2.2775 2.72656,-3.295 1.09125,-1.0175 2.27344,-1.9693 3.27344,-2.9043 0.835,-0.825 1.8357,-1.537 2.62695,-2.3632 0.39563,-0.4132 0.73789,-0.8553 0.98242,-1.3536 0.24453,-0.4982 0.39063,-1.0533 0.39063,-1.6933 0,-0.94 -0.09,-1.9409 0,-2.8809 0.125,-1.315 0.58593,-2.4173 1.21093,-3.4336 0.625,-1.0162 1.41422,-1.946 2.19922,-2.916 0.73,-0.9025 1.68828,-1.7772 2.71485,-2.584 1.02656,-0.8067 2.12125,-1.5455 3.125,-2.1699 2.0075,-1.2487 3.65039,-2.0449 3.65039,-2.0449 2.47965,-0.6099 5.01293,-0.9224 7.54883,-0.9375 2.5359,-0.015 5.07379,0.2674 7.56054,0.8476 4.4,0.95 9.03039,1.4585 13.4004,2.6485 1.85,0.505 3.4943,1.2633 5.123,2.0508 1.6288,0.7875 3.2424,1.6054 5.0274,2.2304 2.65,0.94 5.5305,1.379 8.2305,2.209 2.535,0.775 4.8664,1.8397 7.2226,2.836 1.1781,0.4981 2.3618,0.9795 3.5801,1.3984 1.2183,0.4189 2.4721,0.7754 3.7871,1.0254 1.0894,0.2407 2.1913,0.3651 3.2891,0.3769 1.0978,0.012 2.1917,-0.089 3.2636,-0.2988 1.072,-0.2103 2.1209,-0.5293 3.1328,-0.9551 1.012,-0.4257 1.9866,-0.9573 2.9043,-1.5918 2.415,-1.69 4.6046,-3.6186 6.7696,-5.5761 2.165,-1.9575 4.3041,-3.9439 6.6191,-5.7539 1.11,-0.855 2.296,-2.1423 3.5547,-3.3223 0.6294,-0.59 1.2773,-1.1543 1.9434,-1.6231 0.6661,-0.4687 1.3502,-0.8421 2.0527,-1.0546 0.57,-0.1725 1.1538,-0.2079 1.7402,-0.1543 0.5864,0.054 1.1747,0.1964 1.7578,0.3808 1.1663,0.3688 2.3068,0.9027 3.3418,1.2227 1.81,0.5575 3.6807,0.9664 5.5762,1.3164 1.8955,0.35 3.8152,0.6423 5.7246,0.9648 1.9094,0.3225 3.8085,0.6754 5.6602,1.1504 1.8517,0.475 3.6564,1.0714 5.3789,1.8789 1.39,0.6525 2.7788,1.1381 4.1738,1.4903 1.395,0.3521 2.7968,0.5712 4.2168,0.6875 2.84,0.2325 5.7506,0.057 8.8106,-0.2676 2.5391,-0.2835 5.0273,-0.804 7.4375,-1.5449 2.4101,-0.741 4.7418,-1.7033 6.9648,-2.8711 2.223,-1.1679 4.3368,-2.5413 6.3145,-4.1055 1.9776,-1.5642 3.8181,-3.3181 5.4921,-5.2481 0.1063,-0.1391 0.2139,-0.2788 0.3204,-0.4179 0.9653,-1.261 1.9366,-2.5231 2.9003,-3.793 0.3408,-0.4923 0.5045,-1.0666 0.4922,-1.6367 -0.012,-0.5701 -0.2008,-1.1361 -0.5625,-1.6133 0.2,-0.5 0.375,-0.7693 0.625,-1.0293 0.25,-0.26 0.5743,-0.5107 1.0743,-0.9707 1.165,-1.1075 2.2128,-2.333 3.1054,-3.6504 0.8927,-1.3173 1.6316,-2.7254 2.1797,-4.1972 0.5481,-1.4719 0.9057,-3.009 1.0371,-4.5801 0.1314,-1.5711 0.035,-3.178 -0.3222,-4.793 -0.37,-1.67 -0.9734,-3.2482 -1.4747,-4.8457 -0.2506,-0.7987 -0.4764,-1.6029 -0.6328,-2.4238 -0.1564,-0.821 -0.2451,-1.6593 -0.2226,-2.5293 0.125,-1.9809 0.1455,-3.9682 0.061,-5.9512 -0.078,-1.1025 0.032,-2.1441 0.2519,-3.1523 0.22,-1.0082 0.5505,-1.9816 0.918,-2.9472 0.735,-1.9313 1.616,-3.8304 2.041,-5.9004 0.2,-0.95 0.2802,-1.7371 0.5352,-2.4121 0.255,-0.675 0.6839,-1.2363 1.5839,-1.7363 1.4155,-0.72 2.9585,-1.1592 4.5411,-1.291 1.9018,-0.2027 3.811,-0.2991 5.7207,-0.2891 1.9096,0.01 3.8191,0.1271 5.71868,0.3496 0.9228,0.024 1.8345,0.164 2.7149,0.416 0.8803,0.252 1.7296,0.6161 2.5254,1.084 0.935,0.635 1.9838,1.0545 3.0996,1.3242 1.1157,0.2697 2.2988,0.3901 3.5019,0.4238 2.4063,0.067 4.8929,-0.2085 7.0879,-0.3085 2.345,-0.1001 4.7642,-0.1905 7.168,-0.418 2.4037,-0.2275 4.7922,-0.5922 7.0722,-1.2422 0.94,-0.2675 1.8795,-0.6505 2.8067,-1.1133 0.9272,-0.4628 1.8417,-1.0041 2.7304,-1.5879 1.7775,-1.1675 3.4519,-2.504 4.9219,-3.709 2.3717,-1.9664 4.5603,-4.1341 6.543,-6.4765 1.9827,-2.3424 3.761,-4.8596 5.3086,-7.5235 2.28,-3.79 4.2887,-7.6992 6.2187,-11.6992 0.8605,-1.7736 1.7138,-3.5022 2.3028,-5.2871 0.2944,-0.8924 0.5244,-1.7986 0.6543,-2.7324 0.1299,-0.9338 0.1597,-1.8937 0.061,-2.8945 -0.018,-0.1837 -0.039,-0.3702 -0.066,-0.5567 -0.2325,-1.6175 -0.5573,-3.2038 -0.9903,-4.7402 -0.4329,-1.5364 -0.9746,-3.0233 -1.6465,-4.4414 -0.6718,-1.4181 -1.4726,-2.7667 -2.4218,-4.0293 -0.9492,-1.2627 -2.0475,-2.4378 -3.3125,-3.5078 -2.255,-1.92 -4.6874,-3.6286 -6.9649,-5.4961 -1.1387,-0.9338 -2.2381,-1.9065 -3.2578,-2.9668 -1.0197,-1.0603 -1.9598,-2.2083 -2.7773,-3.4883 -1.02,-1.59 -1.8538,-3.0911 -2.875,-4.4336 -0.5107,-0.6712 -1.0686,-1.3026 -1.7188,-1.8848 -0.6501,-0.5822 -1.3929,-1.1168 -2.2754,-1.5918 -1.94,-1 -4.0638,-1.6742 -6.1738,-2.3867 -2.11,-0.7125 -4.2057,-1.4633 -6.0957,-2.6133 -1.0875,-0.66 -1.9726,-1.2836 -2.7051,-1.9199 -0.7325,-0.6362 -1.3124,-1.2841 -1.7949,-1.9941 -0.4825,-0.71 -0.8676,-1.4821 -1.2051,-2.3633 -0.3375,-0.8813 -0.6283,-1.8715 -0.9258,-3.0215 -0.34,-1.3175 -0.903,-2.4818 -1.5839,-3.5644 -0.681,-1.0827 -1.4793,-2.085 -2.293,-3.0782 -0.8138,-0.9931 -1.6424,-1.9765 -2.3809,-3.0254 -0.7384,-1.0489 -1.3868,-2.1621 -1.8418,-3.4121 -0.89,-2.46 -1.2597,-5.0697 -2.2597,-7.5097 -0.605,-1.455 -1.4074,-2.7405 -2.3086,-3.9493 -0.9013,-1.2087 -1.9024,-2.3421 -2.9024,-3.4921 -0.8125,-0.91 -1.325,-1.7686 -1.6406,-2.6133 -0.3156,-0.8447 -0.4334,-1.6742 -0.4609,-2.5254 -0.055,-1.7025 0.2565,-3.4904 0.1015,-5.6504 -0.065,-0.89 -0.3026,-1.5908 -0.5976,-2.2695 -0.295,-0.6788 -0.6464,-1.3357 -0.9414,-2.1407 -0.36748,-1.005 -0.52288,-2.0402 -0.57228,-3.0918 -0.049,-1.0515 0.01,-2.1196 0.059,-3.1933 0.053,-1.0738 0.1029,-2.1531 0.041,-3.2246 -0.062,-1.0716 -0.2364,-2.1347 -0.6289,-3.1797 -0.42,-1.1 -1.172,-2.344 -2.002,-3.6738 -0.83,-1.3299 -1.7368,-2.7465 -2.4668,-4.1934 -0.73,-1.4469 -1.2823,-2.9239 -1.4023,-4.375 -0.06,-0.7255 -0.012,-1.4449 0.1758,-2.1504 0.1881,-0.7054 0.5156,-1.3971 1.0156,-2.0683 0.4,-0.5451 0.9729,-0.9226 1.5879,-1.2364 0.615,-0.3137 1.2718,-0.5635 1.8418,-0.8535 2.57998,-1.3 5.11038,-2.7591 7.65038,-4.1191 0.895,-0.48 3.1809,-1.9303 5.5547,-3.2266 1.1868,-0.6481 2.3962,-1.2587 3.4648,-1.6894 1.0686,-0.4308 1.9961,-0.6828 2.6211,-0.6153 0.326,-0.2873 0.7457,-0.3485 1.1094,-0.2324 0.3637,0.1161 0.6702,0.4089 0.7695,0.832 l 0.8906,1.1211 c 1.04,1.145 2.0707,2.2218 3.002,3.3731 0.9312,1.1512 1.7632,2.3764 2.4082,3.8164 0.4375,0.9575 0.7367,1.9634 0.9492,2.9961 0.2125,1.0326 0.3386,2.092 0.4336,3.1601 0.19,2.1363 0.2522,4.3038 0.6172,6.3438 0.135,0.745 0.2985,1.7801 0.6035,2.7539 0.1525,0.4869 0.34,0.9587 0.5781,1.3711 0.2382,0.4123 0.5264,0.7656 0.8789,1.0156 0.8471,0.3873 1.7526,0.6317 2.6797,0.7207 1.43,0.395 2.86,1.0513 4.2637,1.7676 1.4038,0.7162 2.7805,1.4911 4.1055,2.1211 1.325,0.63 2.6401,1.0392 3.9336,1.2558 1.2935,0.2167 2.5672,0.2413 3.8125,0.1 1.2453,-0.1416 2.4622,-0.4497 3.6425,-0.8945 1.1804,-0.4448 2.3232,-1.0259 3.4219,-1.7188 1.0988,-0.6928 2.152,-1.497 3.1524,-2.3828 1.0004,-0.8857 1.9486,-1.8534 2.8339,-2.8769 1.7707,-2.047 3.294,-4.3145 4.504,-6.582 0.4835,-0.9095 0.9483,-1.8522 1.3515,-2.8165 0,0 0,0 0,0 0.6739,-1.6113 1.1787,-3.2818 1.3223,-4.9628 0.072,-0.8405 0.053,-1.685 -0.08,-2.5235 -0.1326,-0.8385 -0.3789,-1.6726 -0.7637,-2.4961 -0.465,-1 -0.8435,-1.7041 -1.041,-2.4316 -0.1975,-0.7275 -0.214,-1.4784 0.041,-2.5684 0.4053,-1.3703 0.9311,-2.699 1.5703,-3.9707 0.6392,-1.2717 1.3922,-2.486 2.25,-3.6289 0.8026,-0.9311 1.697,-1.778 2.6699,-2.5293 2.6023,-2.5233 5.0307,-5.2197 7.2696,-8.0703 1.27,-1.5 2.7176,-3.022 3.9726,-4.6582 0.6275,-0.8181 1.2064,-1.6644 1.6914,-2.5508 0.485,-0.8864 0.877,-1.8135 1.127,-2.7909 0.37,-1.45021 0.399,-2.99931 0.709,-4.44931 0.52,-2.5 1.2305,-5.0293 1.9082,-7.5645 0.6776,-2.5351 1.3228,-5.0773 1.7109,-7.6054 0.1941,-1.2641 0.3235,-2.5249 0.3613,-3.7793 0.038,-1.2545 -0.017,-2.5028 -0.1914,-3.7422 -0.1743,-1.2395 -0.4678,-2.4702 -0.9101,-3.6895 -0.4424,-1.2192 -1.0326,-2.4254 -1.7989,-3.6191 -1.1481,-1.7176 -2.3912,-3.3622 -3.7207,-4.9258 -1.3294,-1.5636 -2.745,-3.0467 -4.2402,-4.4433 -1.4952,-1.3965 -3.0695,-2.7074 -4.7148,-3.9238 -1.6454,-1.2164 -3.3627,-2.3381 -5.1426,-3.3613 -1.6736,-0.9621 -3.4025,-1.8371 -5.1817,-2.6172 -1.66,-0.715 -3.6129,-1.0073 -5.5254,-1.3711 -0.9562,-0.1819 -1.9021,-0.3809 -2.7968,-0.6602 -0.8947,-0.2792 -1.7383,-0.6386 -2.4883,-1.1386 -0.855,-0.55 -1.5045,-1.2803 -2.1582,-2.0078 -0.6538,-0.7275 -1.3117,-1.4522 -2.1817,-1.9922 -1.125,-0.72 -2.445,-1.0589 -3.7988,-1.2989 -1.3537,-0.24 -2.74,-0.3811 -4,-0.7011 -0.825,-0.21 -1.7138,-0.4028 -2.623,-0.5274 -0.9092,-0.1247 -1.8387,-0.1815 -2.7481,-0.1152 -0.9094,0.066 -1.7995,0.2544 -2.625,0.6172 -0.8254,0.3628 -1.5866,0.901 -2.2441,1.666 -0.375,0.435 -0.5601,0.9784 -0.6738,1.5371 -0.1138,0.5588 -0.1561,1.1328 -0.2461,1.6328 -0.4025,1.4889 -0.7098,3.0013 -0.92,4.5293 -0.05,1.49 0.3985,3.2615 0.3985,4.7715 0.033,1.3215 0.2091,2.6355 0.5215,3.9199 0.385,1.55 0.7379,2.8235 0.7441,4.0859 0,0.6312 -0.082,1.2601 -0.291,1.9179 -0.2092,0.6578 -0.543,1.3457 -1.043,2.0957 -1.065,1.625 -2.1015,3.3539 -3.3828,4.6289 -0.6406,0.6375 -1.3423,1.162 -2.1406,1.502 -0.7983,0.34 -1.6918,0.4958 -2.7168,0.3984 -1.17,-0.11 -2.3735,-0.2712 -3.5098,-0.5937 -1.1362,-0.3225 -2.2063,-0.8067 -3.1113,-1.5567 -1.0187,-1.0517 -2.1179,-2.0198 -3.2891,-2.8984 -1.4512,-0.8113 -2.8417,-1.7273 -4.1601,-2.7402 -0.795,-0.6725 -1.4122,-1.4368 -1.9336,-2.2481 -0.5214,-0.8112 -0.9477,-1.6693 -1.3633,-2.5292 -0.4156,-0.86 -0.8192,-1.7222 -1.2969,-2.541 -0.4776,-0.8187 -1.0288,-1.5937 -1.7363,-2.2812 -0.68,-0.66 -1.5049,-1.1313 -2.3399,-1.5938 -0.83498,-0.4625 -1.68028,-0.9169 -2.40028,-1.5469 -1.44,-1.26 -2.45,-2.6205 -4,-3.8105 -0.5625,-0.4275 -1.3286,-0.9757 -2.1993,-1.5098 -0.8706,-0.534 -1.8447,-1.0536 -2.8222,-1.4199 -0.9775,-0.3662 -1.9587,-0.5798 -2.8418,-0.5039 -0.4416,0.038 -0.86,0.1477 -1.2403,0.3477 -0.3802,0.1999 -0.7218,0.4904 -1.0156,0.8867 -0.475,0.6425 -0.8479,1.3854 -1.1465,2.1855 -0.2986,0.8002 -0.5243,1.6562 -0.7011,2.5293 -0.3538,1.7463 -0.5179,3.554 -0.7129,5.084 -0.191,2.2658 -0.5919,4.51 -1.1992,6.7011 -0.88,2.81 -2.2101,5.5903 -3.3301,8.3203 -0.625,1.52 -1.1413,3.2474 -1.75,4.9199 -0.6088,1.6725 -1.3106,3.2898 -2.3106,4.5898 -0.525,0.68 -1.9551,1.9818 -3.5039,3.0743 -0.7744,0.5462 -1.579,1.0397 -2.3144,1.3769 -0.7355,0.3372 -1.4024,0.5175 -1.9024,0.4375 -0.795,-0.135 -1.623,-0.6238 -2.4355,-1.1738 -0.8125,-0.55 -1.6088,-1.1602 -2.3438,-1.5352 -1.16,-0.595 -2.0454,-1.092 -2.7929,-1.7382 -0.7475,-0.6463 -1.3568,-1.4429 -1.9668,-2.6329 -0.355,-0.675 -0.6202,-1.3893 -0.9414,-2.0781 -0.3213,-0.6887 -0.6993,-1.3519 -1.2793,-1.9219 -0.665,-0.665 -1.6402,-1.1807 -2.6602,-1.6269 -1.02,-0.4463 -2.0847,-0.8231 -2.9297,-1.2031 -1.205,-0.545 -2.4519,-0.8115 -3.7207,-1.0215 -1.2687,-0.21 -2.5596,-0.3628 -3.8496,-0.6778 -1.29,-0.315 -2.2294,-0.8743 -3.1094,-1.5293 -0.88,-0.655 -1.7,-1.4046 -2.75,-2.0996 -0.56,-0.375 -1.1805,-0.6011 -1.7793,-0.8574 -0.5987,-0.2562 -1.1754,-0.543 -1.6504,-1.043 -0.5479,-0.9001 -0.9764,-1.8692 -1.2714,-2.8808 -0.36,-0.8449 -0.7214,-1.5246 -1.1153,-2.0585 -0.3939,-0.5339 -0.8204,-0.9216 -1.3086,-1.1797 -0.4881,-0.2581 -1.037,-0.3866 -1.6797,-0.4043 -0.6426,-0.018 -1.3788,0.076 -2.2363,0.2637 -1.715,0.375 -3.3585,0.9787 -4.9785,1.6562 -1.62,0.6775 -3.2151,1.4287 -4.8301,2.0937 -1.33,0.545 -2.8811,1.1184 -4.3398,1.8359 -0.7294,0.3588 -1.4353,0.7532 -2.0801,1.1973 -0.6448,0.444 -1.2284,0.9386 -1.7109,1.4961 -1.375,1.585 -2.4881,3.4452 -3.4356,5.3965 -0.9475,1.9512 -1.7283,3.9933 -2.4433,5.9433 -0.4575,1.2475 -0.9034,2.6067 -1.2364,3.9981 -0.3329,1.3914 -0.5536,2.8152 -0.5605,4.1933 -0.01,1.3782 0.1999,2.7103 0.7207,3.918 0.2604,0.6038 0.5992,1.1772 1.0293,1.709 0.4301,0.5317 0.9511,1.0209 1.5761,1.4609 0.825,0.575 1.4758,0.9579 1.9395,1.4629 0.4638,0.505 0.7403,1.1323 0.8203,2.1973 0.065,0.92 0.2241,1.7376 0.4453,2.4961 0.2213,0.7584 0.5048,1.4577 0.8223,2.1465 0.635,1.37761 1.4025,2.70751 2.0625,4.35741 0.505,1.26 0.8701,2.5569 1.1621,3.8711 0.292,1.3142 0.5109,2.6461 0.7266,3.9804 0.2156,1.3344 0.4273,2.6698 0.7031,3.9903 0.2758,1.3204 0.6154,2.6259 1.0879,3.8984 0.77,2.06 2.1219,3.9401 3.0957,5.8926 0.4869,0.9762 0.8793,1.9716 1.0566,3.0156 0.1774,1.0441 0.1401,2.1375 -0.2324,3.3125 -0.275,0.875 -0.6695,1.6888 -1.1523,2.4473 -0.4829,0.7584 -1.0529,1.4615 -1.6817,2.1152 -1.2575,1.3075 -2.7448,2.417 -4.2148,3.377 -4.5126,2.9035 -9.1869,5.5476 -14,7.9199 -1.45,0.72 -3.033,1.6201 -4.668,2.3613 -0.8175,0.3706 -1.6487,0.7023 -2.4824,0.9512 -0.8338,0.2489 -1.67,0.4145 -2.5,0.457 -1.05,0.056 -2.0414,-0.1087 -3.0215,-0.3066 -0.9801,-0.198 -1.949,-0.4285 -2.957,-0.502 -0.4992,-0.037 -1.0073,-0.034 -1.5313,0.029 -2.09,0.25 -4.0999,1.0192 -6.1699,1.3692 -0.7112,0.042 -1.3998,0.2664 -2,0.6504 -0.8318,0.5762 -1.5387,1.3006 -2.0918,2.1269 -0.5531,0.8263 -0.9541,1.7555 -1.1699,2.7441 -0.4355,1.603 -0.6188,3.2519 -0.5547,4.8926 0.064,1.6408 0.3764,3.2719 0.9355,4.836 0.2625,0.6125 0.7764,1.1857 1.4024,1.6816 0.6259,0.4959 1.3635,0.9159 2.0722,1.2246 0.7088,0.3088 1.3895,0.5057 1.9004,0.5567 0.511,0.051 0.8523,-0.045 0.8848,-0.3223 0.5925,-0.41 1.3393,-0.5067 2.1543,-0.4063 0.815,0.1005 1.6984,0.3986 2.5684,0.7754 1.74,0.7538 3.4219,1.8263 4.3769,2.2813 2.625,1.25 5.4814,2.5549 7.9727,4.2637 1.2456,0.8543 2.3991,1.8103 3.3886,2.9101 0.9896,1.0999 1.8135,2.3429 2.3985,3.7754 0.405,1 0.9111,2.588 1.2636,4.1992 0.3525,1.6113 0.5527,3.2468 0.3477,4.3418 -0.1475,0.8025 -0.4356,1.6375 -0.8125,2.4766 -0.3769,0.839 -0.8421,1.6812 -1.3496,2.5 -1.015,1.6375 -2.1937,3.1776 -3.1387,4.3926 -1.1826,1.6183 -2.5032,3.1251 -3.9472,4.5039 -1.4441,1.3787 -3.0104,2.6297 -4.6817,3.7363 -4.11,2.73 -8.2016,5.5301 -12.4316,8.0801 -0.5535,0.4293 -1.1564,0.7847 -1.7949,1.0586 -0.6386,0.2739 -1.3115,0.4671 -2.004,0.5722 -3.3813,0.1152 -6.7653,-0.087 -10.1093,-0.6015 -1.5,-0.175 -2.6357,-0.4814 -3.7032,-0.9239 -1.0675,-0.4425 -2.0668,-1.0213 -3.2968,-1.7363 -0.8783,-0.5873 -1.8119,-1.0815 -2.7852,-1.4785 -0.9733,-0.397 -1.9869,-0.6961 -3.0254,-0.8906 -1.29,-0.1675 -2.5734,-0.216 -3.8515,-0.1934 -1.2782,0.023 -2.5518,0.1163 -3.8243,0.2344 -2.545,0.2362 -5.08449,0.5691 -7.64449,0.6191 -0.87665,-0.029 -1.74812,0.066 -2.58984,0.2793 -0.84173,0.2138 -1.65371,0.5463 -2.41016,0.9903 -3.9815,2.2358 -8.11057,4.198 -12.35938,5.871 -3.56,1.26 -7.07015,2.86 -10.66015,4 -3.2438,1.0011 -6.55596,1.7656 -9.91016,2.2891 -0.7502,0.084 -1.4932,0.2278 -2.2207,0.4297 -2.91,1.0247 -5.73965,2.2625 -8.46875,3.7012 -2.3,1.1 -4.26406,1.8064 -6.25781,2.1601 -0.99688,0.1769 -2,0.2667 -3.0586,0.2715 -1.05859,0 -2.17226,-0.075 -3.38476,-0.2324 -2.255,-0.295 -4.31766,-0.628 -6.28516,-1.2617 -0.98375,-0.3169 -1.94414,-0.7085 -2.89258,-1.209 -0.94843,-0.5005 -1.88476,-1.1094 -2.82226,-1.8594 -1.135,-0.9025 -2.03492,-1.9376 -2.80664,-3.0469 -0.77172,-1.1092 -1.41524,-2.2919 -2.03711,-3.4863 -0.62188,-1.1944 -1.22274,-2.4006 -1.90821,-3.5586 -0.68546,-1.158 -1.45546,-2.2676 -2.41796,-3.2676 -1.52,-1.605 -3.28399,-2.7052 -4.92774,-3.9277 -0.82187,-0.6112 -1.61461,-1.253 -2.33008,-2.0039 -0.71547,-0.7509 -1.35359,-1.6107 -1.87109,-2.6582 -0.6425,-1.31 -1.12641,-2.6564 -1.54688,-4.0117 -0.42046,-1.3553 -0.77859,-2.721 -1.16796,-4.0723 -0.38938,-1.3512 -0.81016,-2.6866 -1.35938,-3.9844 -0.54922,-1.2978 -1.22695,-2.5569 -2.12695,-3.7519 -1.3879,-1.6953 -2.87955,-3.3024 -4.46875,-4.8106 -0.705,-0.75 -1.30477,-1.5054 -1.81836,-2.2773 -0.5136,-0.7719 -0.94227,-1.5595 -1.30664,-2.377 -0.72875,-1.635 -1.20094,-3.3857 -1.58594,-5.3457 -0.3853,-1.9808 -0.46067,-4.3613 -0.70703,-6.6992 -0.12318,-1.1689 -0.28962,-2.3283 -0.55859,-3.4199 -0.26898,-1.0916 -0.64066,-2.1163 -1.17579,-3.0195 -0.2206,-0.3724 -0.46774,-0.7238 -0.74804,-1.0508 -0.715,-0.835 -1.55539,-1.3503 -2.43164,-1.8203 -0.87625,-0.47 -1.78844,-0.8958 -2.64844,-1.5508 -1.02,-0.785 -1.67008,-1.8625 -2.29883,-2.9375 -0.62875,-1.075 -1.23687,-2.1469 -2.17187,-2.9219 -0.74,-0.615 -1.72907,-0.9542 -2.75782,-1.1992 -1.02875,-0.245 -2.09718,-0.3959 -2.99218,-0.6309 -2.5565,-0.6239 -5.0634,-1.4358 -7.5,-2.4297 -1.965,-0.84 -4.02047,-1.9244 -6.13672,-2.7832 -1.05813,-0.4293 -2.13164,-0.8032 -3.2168,-1.0605 -1.08516,-0.2573 -2.18211,-0.3997 -3.28711,-0.3672 -1.54,0.05 -3.04383,0.4727 -4.51758,1.0215 -1.47375,0.5487 -2.91703,1.2243 -4.33203,1.7793 -3.17,1.24 -6.34,2.7802 -9.25,4.2402 -2.91,1.46 -5.79985,2.9997 -8.58985,4.6797 -2.85,1.71 -5.65696,3.7995 -8.37696,6.002 -2.72,2.2025 -5.35351,4.5177 -7.85351,6.6777 -1.75,1.51 -3.2,3.3115 -5,4.7715 -4.78,3.86 -9.29,8 -14,12 -0.515,0.44 -1.06414,1.0157 -1.65039,1.5332 -0.58625,0.5175 -1.20914,0.9758 -1.86914,1.1758 -0.43,0.14 -0.97969,6e-4 -1.42969,0.1406 -1.0161,0.4876 -1.94273,1.1429 -2.74023,1.9394 -2.0029,1.407 -4.07449,2.7122 -6.20899,3.9102 -1.325,0.8 -2.50812,1.4198 -3.73437,1.8398 -1.22625,0.42 -2.4961,0.6407 -3.9961,0.6407 -2.05,-0.015 -4.09742,0.219 -6.13867,0.5293 -2.04125,0.3103 -4.07742,0.6956 -6.10742,0.9843 -2.030003,0.2888 -4.052113,0.4801 -6.068363,0.4004 -1.00812,-0.04 -2.01531,-0.1467 -3.01953,-0.3437 -1.00422,-0.197 -2.00586,-0.4834 -3.00586,-0.8809 -2.3249,-1.0797 -4.70932,-2.0276 -7.14062,-2.8398 -2.32,-0.62 -4.69,-0.5896 -7,-1.0996 -1.32745,-0.2996 -2.62618,-0.7036 -3.88672,-1.2051 -1.26054,-0.5015 -2.48195,-1.1007 -3.65235,-1.7949 -1.325,-0.785 -2.39937,-1.6616 -3.29297,-2.6172 -0.89359,-0.9556 -1.60796,-1.9902 -2.21484,-3.0977 -1.21375,-2.215 -1.99859,-4.7158 -2.93359,-7.4258 -0.94295,-2.7092 -1.96398,-5.3893 -3.06446,-8.0371 -1.10047,-2.6478 -2.28,-5.2642 -3.53515,-7.8437 -1.026,-2.068 -1.92845,-4.1929 -2.70313,-6.3633 -0.77467,-2.1704 -1.4222,-4.3864 -1.9375,-6.6367 -0.44,-2.02 -0.71843,-4.0317 -1.08593,-6.0254 -0.3675,-1.9938 -0.82329,-3.9691 -1.61329,-5.9141 -0.3574,-0.841 -0.85186,-1.6096 -1.45703,-2.2773 -0.60516,-0.6677 -1.32109,-1.2337 -2.12304,-1.6719 -0.27999,-0.195 -0.7271,-0.4249 -1.13085,-0.7012 -0.40375,-0.2762 -0.76414,-0.5985 -0.86914,-0.9785 -0.13,-0.455 -0.0419,-0.7986 0.10937,-1.1211 0.15125,-0.3225 0.36524,-0.625 0.49024,-1 0.79,-2.41 1.66014,-4.73 2.66014,-7 0.645,-1.445 2.14719,-3.879 3.02344,-6.3027 0.43812,-1.2119 0.72062,-2.4209 0.66016,-3.502 -0.0302,-0.5405 -0.14666,-1.0508 -0.3711,-1.5117 -0.22443,-0.4609 -0.55648,-0.8726 -1.02148,-1.2226 -0.5625,-0.42 -1.1811,-0.7205 -1.82813,-0.9649 -0.64703,-0.2443 -1.32242,-0.4339 -1.99803,-0.6289 -0.67563,-0.195 -1.35172,-0.3961 -2,-0.6679 -0.64829,-0.2719 -1.26899,-0.6149 -1.83399,-1.0899 -0.8,-0.6725 -1.36125,-1.4339 -1.76562,-2.2578 -0.40438,-0.8239 -0.65313,-1.7088 -0.82813,-2.627 -0.35,-1.83611 -0.40594,-3.80381 -0.83594,-5.67391 -0.3585,-1.4927 -0.85637,-2.9454 -1.48242,-4.3397 -0.62605,-1.3944 -1.38051,-2.7305 -2.25781,-3.9903 -0.5975,-0.8725 -1.10391,-1.8083 -1.53516,-2.7871 -0.43125,-0.9787 -0.78843,-1.9999 -1.08593,-3.045 -0.595,-2.0899 -0.95399,-4.2737 -1.20899,-6.3887 -0.255,-2.115 -0.58305,-4.0812 -1.1543,-5.9686 -0.28562,-0.9438 -0.63164,-1.8691 -1.06054,-2.7814 -0.42891,-0.9122 -0.93969,-1.8115 -1.55469,-2.709 -0.74,-1.08 -1.62336,-1.9899 -2.5957,-2.791 -0.97235,-0.8011 -2.03399,-1.4931 -3.13086,-2.1424 -2.19375,-1.2987 -4.52922,-2.4219 -6.5742099,-3.8769 -0.75708,-0.5692 -1.45104,-1.2071 -2.07422,-1.9024 -0.62318,-0.6952 -1.17663,-1.4476 -1.65234,-2.246 -0.47572,-0.7987 -0.87283,-1.6425 -1.1875,-2.5216 -0.31468,-0.879 -0.54548,-1.7936 -0.68555,-2.7304 -0.235,-1.275 -0.34719,-2.763 -0.71094,-4.1191 -0.18187,-0.6783 -0.42703,-1.3231 -0.78125,-1.8926 -0.35422,-0.5695 -0.8175,-1.0625 -1.4375,-1.4375 2.90965,-1.155 5.87587,-2.1549 8.8867199,-2.9961 3.01084,-0.8413 6.06538,-1.5245 9.15233,-2.045 3.22,-0.54 7.4,-0.8791 15.75,-1.5391 6.25499,-0.4949 9.96539,-0.685 12.36913,-0.705 2.40375,-0.02 3.50125,0.1295 4.53125,0.3145 1.93501,0.35 2.87407,0.6855 4.44532,1.3417 1.57125,0.6562 3.77437,1.6326 8.23437,3.2677 4.75,1.7449 8.30711,3.0659 11.34961,3.9784 1.52125,0.4562 2.91328,0.8098 4.26172,1.0644 1.34844,0.2547 2.65305,0.4113 3.99805,0.4689 1.5025,0.09 2.9157,0.081 4.26367,0 1.34797,-0.081 2.63062,-0.2358 3.875,-0.4415 2.48875,-0.4112 4.82117,-1.0234 7.20117,-1.6484 2.495003,-0.6525 4.397893,-1.3004 5.978513,-1.9375 1.58063,-0.6371 2.83938,-1.2651 4.04688,-1.879 1.2075,-0.6136 2.36461,-1.2127 3.74023,-1.7948 1.37563,-0.5823 2.96969,-1.147 5.05469,-1.6895 1.75918,-0.4436 3.5377,-0.7934 5.32617,-1.0508 1.78847,-0.2572 3.58752,-0.4218 5.39063,-0.4921 1.8031,-0.07 3.60902,-0.047 5.41211,0.07 1.80308,0.1171 3.60222,0.3277 5.39062,0.6329 2.32565,0.4213 3.70178,0.842 5.52539,1.5625 1.82362,0.7205 4.09585,1.7394 8.21875,3.3574 1.54,0.6043 3.3376,1.2933 5.4668,2.0801 5,1.855 8.74906,3.2424 11.91406,4.2949 3.165,1.0525 5.74626,1.7702 8.40626,2.2852 1.6725,0.3125 3.44071,0.6433 5.29883,0.9199 1.85813,0.2766 3.80649,0.4975 5.83398,0.5938 2.0275,0.096 4.13579,0.066 6.31641,-0.1622 2.18063,-0.2284 4.4325,-0.654 6.75,-1.3515 2,-0.5975 3.44258,-1.2132 4.60352,-1.8301 1.16093,-0.6169 2.04117,-1.2359 2.91992,-1.8359 0.87875,-0.6 1.75476,-1.1817 2.9082,-1.7285 1.15344,-0.5469 2.58336,-1.0582 4.56836,-1.5157 1.8025,-0.415 3.28336,-0.6083 4.64649,-0.6914 1.36312,-0.083 2.60945,-0.056 3.93945,-0.033 1.33,0.023 2.74414,0.042 4.44726,-0.057 1.70313,-0.098 3.69524,-0.3147 6.17774,-0.7597 3.88,-0.695 5.6868,-1.3665 7.06055,-1.8653 0.68687,-0.2493 1.2646,-0.456 1.93945,-0.5996 0.67484,-0.1436 1.44703,-0.2246 2.51953,-0.2246 2.0825,0 3.70781,0.3046 5.12891,0.7871 1.42109,0.4825 2.63797,1.143 3.90234,1.8555 1.26437,0.7125 2.57711,1.478 4.18945,2.168 1.61235,0.69 3.52524,1.3037 5.99024,1.7187 1.6625,0.28 2.93789,0.3619 4.05273,0.3477 1.11485,-0.014 2.06766,-0.1242 3.08203,-0.2286 1.01438,-0.1043 2.09008,-0.2028 3.45118,-0.1933 1.36109,0.01 3.00906,0.1276 5.16406,0.4551 3.455,0.53 5.19711,1.1397 6.69336,1.6484 0.74812,0.2544 1.4339,0.483 2.24218,0.6641 0.80829,0.1811 1.73766,0.3144 2.97266,0.3769 0.5025,0.027 1.47742,0.08 2.74414,0.051 1.26672,-0.03 2.82703,-0.1402 4.50391,-0.4433 1.67687,-0.3032 3.47015,-0.7986 5.20312,-1.5918 0.86649,-0.3967 1.71713,-0.868 2.53125,-1.4278 0.81412,-0.5598 1.5911,-1.207 2.3086,-1.957 0.6125,-0.6375 0.99515,-1.1561 1.29687,-1.7109 0.30172,-0.5549 0.52227,-1.1454 0.80664,-1.9297 0.56875,-1.5688 1.39625,-3.9096 3.65625,-8.2696 1.625,-3.13 2.86008,-5.4866 4.08008,-7.2753 0.61,-0.8944 1.21586,-1.6478 1.86523,-2.2833 0.64938,-0.6354 1.3425,-1.1545 2.125,-1.582 0.9225,-0.5075 1.6861,-0.7623 2.39844,-0.8906 0.71235,-0.1283 1.37242,-0.1294 2.0918,-0.125 0.71937,0 1.49781,0.014 2.44141,-0.096 0.94359,-0.1095 2.0525,-0.3386 3.4375,-0.8086 1.13249,-0.3875 1.97078,-0.7739 2.70312,-1.1953 0.73234,-0.4214 1.35898,-0.8781 2.06836,-1.4063 1.41875,-1.0562 3.16976,-2.3983 6.75973,-4.3183 2.9953,-1.5742 6.0719,-2.9867 9.2188,-4.2305 3.655,-1.505 5.634,-2.13 6.959,-2.5937 1.325,-0.4638 1.996,-0.765 3.041,-1.625 0.9,-0.7375 1.5132,-1.4221 1.9863,-2.0938 0.4731,-0.6717 0.8074,-1.3312 1.1524,-2.0156 0.345,-0.6844 0.6992,-1.3945 1.2148,-2.1699 0.5156,-0.7755 1.1927,-1.6156 2.1777,-2.5606 1.475,-1.415 2.5245,-1.9927 3.6895,-2.5527 1.165,-0.56 2.4459,-1.1023 4.3809,-2.4473 1.0475,-0.7275 1.9731,-1.4754 2.8281,-2.2656 0.855,-0.7902 1.6393,-1.623396 2.4043,-2.521496 1.53,-1.7962 2.9826,-3.8535 4.7676,-6.3535 2.775,-3.935 4.0136,-6.4552 5.0449,-8.3164 0.5156,-0.9306 0.9796,-1.6968 1.5566,-2.3926 0.577,-0.6958 1.2683,-1.3207 2.2383,-1.9707 0.895,-0.6025 1.6728,-0.9883 2.4219,-1.2539 0.749,-0.2656 1.4693,-0.4121 2.248,-0.5371 1.5575,-0.25 3.3501,-0.4143 6.0801,-1.2793 2.355,-0.7475 4.1394,-1.6143 5.6113,-2.5449 1.4719,-0.9307 2.6305,-1.9253 3.7305,-2.9278 1.1,-1.0025 2.1415,-2.0134 3.3809,-2.9765 1.2393,-0.9631 2.6764,-1.8789 4.5664,-2.6914 1.03,-0.4438 1.9487,-0.7506 2.7949,-0.9532 0.8462,-0.2025 1.6204,-0.3008 2.3633,-0.3242 1.4857,-0.047 2.8447,0.2039 4.4004,0.502 1.5556,0.2981 3.3066,0.644 5.5761,0.791 2.2696,0.147 5.0581,0.096 8.6856,-0.4043 2.7175,-0.3825 4.8579,-0.872 6.7109,-1.3945 1.853,-0.5225 3.4175,-1.0788 4.9844,-1.5938 1.5669,-0.515 3.1369,-0.9896 4.9961,-1.3496 1.8592,-0.36 4.0083,-0.6046 6.7383,-0.6621 2.955,-0.065 4.705,0.1337 6.33,0.25 1.625,0.1163 3.1251,0.15 5.5801,-0.25 1.4979,-0.2458 4.0784,-0.697 6.9258,-1.6816 1.4237,-0.4924 2.9134,-1.1178 4.3691,-1.918 1.4557,-0.8002 2.8761,-1.7747 4.1602,-2.9649 0.5046,-0.4676 0.9891,-0.9691 1.4453,-1.5058 0.6375,-0.75 1.1387,-1.4667 1.5371,-2.1602 0.3984,-0.6935 0.6945,-1.3637 0.9219,-2.0234 0.4548,-1.3194 0.6351,-2.5941 0.8144,-3.9141 0.1794,-1.32 0.3581,-2.6856 0.8067,-4.1875 0.4486,-1.5018 1.1672,-3.1408 2.4297,-5.0058 0.6225,-0.91 1.159,-1.5549 1.7851,-2.1446 0.62608,-0.5896 1.34238,-1.1229 2.32418,-1.8066 1.9638,-1.3675 4.9903,-3.3384 10.4903,-7.5684 5.665,-4.34 8.3079,-6.7406 10.0879,-8.2968 0.89,-0.7782 1.5642,-1.3446 2.2929,-1.8379 0.7288,-0.4933 1.5117,-0.9121 2.6192,-1.3946 1.845,-0.8 3.4212,-1.2681 4.8906,-1.5625 1.4694,-0.2942996 2.8325,-0.4158996 4.25,-0.5233996 1.4175,-0.1075 2.8888,-0.2001 4.5781,-0.4394 1.6894,-0.2394 3.5959,-0.6245 5.8809,-1.3145 2.6198,-0.7973 5.1632,-1.8142 7.6035,-3.0352 2.4403,-1.221 4.7775,-2.6469 6.9863,-4.26559999 z M 504.44131,53.530634 c -0.2364,1.0417 -0.3756,2.1297 -0.4063,3.2207 -0.031,1.091 0.049,2.1856 0.252,3.2343 0.23,1.17 0.5426,1.964 0.7363,2.629 0.1938,0.665 0.2685,1.1996 0.023,1.8496 -0.165,0.4425 -0.4077,0.7504 -0.7051,0.9961 -0.2973,0.2456 -0.6496,0.4285 -1.039,0.621 -0.7788,0.385 -1.7005,0.8088 -2.6055,1.8438 -0.4525,0.5175 -0.7213,0.9838 -0.8926,1.4238 -0.1712,0.44 -0.2455,0.8542 -0.3105,1.2617 -0.065,0.4075 -0.1202,0.8086 -0.2539,1.2286 -0.1338,0.42 -0.3471,0.8584 -0.7246,1.3359 -0.585,0.745 -1.2596,1.1917 -1.9707,1.4844 -0.7111,0.2926 -1.4576,0.4304 -2.1895,0.5586 -0.7319,0.1281 -1.4483,0.2466 -2.0957,0.498 -0.6473,0.2514 -1.2261,0.6363 -1.6836,1.2988 -0.2675,0.3925 -0.444,0.8107 -0.5488,1.2793 -0.1049,0.4686 -0.1384,0.9868 -0.1152,1.5762 0.046,1.1788 0.314,2.6442 0.664,4.5742 0.375,2.035 0.7935,3.0928 1.1172,3.9453 0.3238,0.8525 0.5527,1.4999 0.5527,2.7149 -0.01,0.9425 -0.1539,1.6662 -0.375,2.2793 -0.2211,0.6131 -0.5164,1.1158 -0.8183,1.6133 -0.3019,0.4975 -0.6115,0.9903 -0.8613,1.5859 -0.2499,0.5956 -0.4409,1.2937 -0.5059,2.2012 -0.085,1.155 0.072,2.129496 0.334,2.988296 0.2625,0.8587 0.6326,1.6024 0.9726,2.2949 0.34,0.6925 0.6514,1.334 0.7989,1.9902 0.1475,0.6563 0.1294,1.3262 -0.1856,2.0762 -0.28,0.655 -0.7151,1.209 -1.2187,1.6719 -0.5036,0.4628 -1.0743,0.8351 -1.6211,1.1289 -1.0938,0.5875 -2.0943,0.8601 -2.2793,0.9101 -1.1,0.285 -1.78,0.2131 -2.4063,0.1543 -0.6262,-0.059 -1.199,-0.1037 -2.084,0.2363 -0.6675,0.255 -1.1415,0.5881 -1.5156,0.9629 -0.374,0.3749 -0.6472,0.791 -0.916,1.2129 -0.2688,0.4219 -0.5332,0.8481 -0.8848,1.2442 -0.3515,0.3961 -0.7915,0.7611 -1.414,1.0586 -0.57,0.2825 -1.053,0.3903 -1.5196,0.4023 -0.4665,0.012 -0.9161,-0.071 -1.4199,-0.168 -0.5037,-0.097 -1.0606,-0.2077 -1.7422,-0.2519 -0.6815,-0.044 -1.4882,-0.022 -2.4882,0.1484 -1.37,0.23 -2.0302,0.5528 -2.7227,0.8965 -0.6925,0.3438 -1.416,0.7084 -2.916,1.0234 -1.86,0.385 -2.925,0.2822 -3.875,0.1797 -0.95,-0.1025 -1.7856,-0.2053 -3.1856,0.1797 -0.9175,0.2525 -1.5854,0.5789 -2.125,0.9414 -0.5395,0.3625 -0.9504,0.7613 -1.3535,1.1563 -0.4031,0.395 -0.7983,0.7867 -1.3066,1.1367 -0.5083,0.35 -1.1294,0.6592 -1.9844,0.8867 -0.905,0.24 -1.6747,0.2823 -2.3633,0.2324 -0.6886,-0.05 -1.2976,-0.1929 -1.8769,-0.3222 -0.5794,-0.1294 -1.1297,-0.2456 -1.7071,-0.2442 -0.5773,0.001 -1.1807,0.1204 -1.8632,0.4629 -1.235,0.615 -2.3622,1.5223 -3.1172,2.4473 -0.3775,0.4625 -0.6622,0.9303 -0.8203,1.3672 -0.1582,0.4368 -0.19,0.843 -0.062,1.1855 0.1,0.2725 0.2804,0.4488 0.5117,0.584 0.2312,0.1352 0.5133,0.2298 0.8183,0.3379 0.61,0.2162 1.3092,0.4878 1.8692,1.2578 0.32,0.415 0.4805,0.9125 0.5605,1.5938 0.08,0.6812 0.08,1.5472 0.08,2.6972 0.1024,1.7705 0.019,3.5458 -0.25,5.2988 -0.1615,0.5306 -0.2339,1.0818 -0.2187,1.629 0.015,0.5471 0.1178,1.0905 0.3086,1.6113 0.1944,0.3495 0.4151,0.6838 0.6601,1 1.06,1.55 1.5802,2.2608 2.1602,2.5508 0.51,0.255 0.8743,0.2171 1.2168,0.1796 0.3425,-0.037 0.664,-0.075 1.084,0.1797 0.615,0.4 0.9224,1.091 1.0761,1.711 0.1538,0.62 0.1524,1.169 0.1524,1.289 -0.019,0.5643 -0.1447,1.1141 -0.3653,1.6231 -0.2205,0.509 -0.5348,0.9772 -0.9336,1.3769 -0.5,0.485 -0.9155,0.6589 -1.373,0.8164 -0.4575,0.1575 -0.957,0.2997 -1.627,0.7247 -0.67,0.425 -1.0871,0.8922 -1.4433,1.416 -0.3563,0.5237 -0.6531,1.1039 -1.0781,1.7539 -0.6375,0.9725 -1.2682,1.6422 -1.875,2.1445 -0.6069,0.5023 -1.19,0.8363 -1.7325,1.1406 -0.5425,0.3044 -1.0439,0.5785 -1.4882,0.9571 -0.4444,0.3786 -0.8301,0.8629 -1.1426,1.5879 -0.44,1.03 -0.5412,2.0725 -0.4512,3.2187 0.09,1.1463 0.3695,2.3948 0.6895,3.8398 0.3389,1.5296 0.832,2.9396 1.4902,4.3614 m 205,-94.712896 c -0.52,0.01 -1.2902,-0.018 -2.2402,0.082 -0.9957,0 -1.9785,0.2156 -2.8789,0.6406 -0.33,0.225 -0.5708,0.5442 -0.8008,1.0117 -0.23,0.4675 -0.4502,1.0835 -0.7402,1.8985 -0.72,2.04 -0.5092,2.3904 -1.1192,3.4004 -0.61,1.01 -0.9295,0.7999 -2.2695,2.1699 -0.895,0.935 -1.2626,1.5626 -1.6113,2.1426 -0.3488,0.58 -0.68,1.1124 -1.5,1.8574 -0.62,0.595 -1.0461,0.8443 -1.3848,1.0605 -0.3388,0.2163 -0.5885,0.3994 -0.8535,0.8594 -0.2725,0.5627 -0.4435,1.1628 -0.5078,1.7754 -0.064,0.6126 -0.023,1.2367 0.1269,1.8437 0.1643,0.7032 0.4348,1.377496 0.8008,1.999996 0.4314,1.0262 0.6912,2.1094 0.7773,3.2051 0.086,1.0957 0,2.2042 -0.2675,3.2852 -0.2236,1.1407 -0.6008,2.24 -1.1172,3.2695 -0.5165,1.0295 -1.1725,1.9884 -1.9532,2.8496 -0.978,1.0902 -2.1033,2.0276 -3.3378,2.7871 -1.2346,0.7596 -2.5783,1.3431 -3.9922,1.7246 -1.415,0.42 -2.1879,0.4422 -3.0567,0.461 -0.8687,0.019 -1.8328,0.032 -3.6328,0.4375 -1.3337,0.3048 -2.6415,0.7114 -3.9101,1.2129 -1.2687,0.5014 -2.498,1.0977 -3.6797,1.7871 -1.272,0.6667 -2.4747,1.4535 -3.5899,2.3476 -1.1152,0.8942 -2.143,1.8956 -3.0703,2.9922 -1.055,1.295 -1.4912,2.1763 -1.9375,3.0176 -0.4462,0.8412 -0.9039,1.6432 -2.0039,2.7832 -1.1,1.14 -1.8437,1.6085 -2.5137,2.041 -0.67,0.4325 -1.2664,0.8281 -2.0664,1.8281 -0.6993,0.9468 -1.2727,1.9749 -1.7129,3.0567 -0.4401,1.0818 -0.746,2.2186 -0.9062,3.3847 -0.223,1.8043 -0.2855,3.6241 -0.1895,5.4395 -0.03,3.26 -0.1214,3.4609 -0.1914,6.8809 -0.06,2.84 0.2224,7.2453 0.4024,13.0253 m -4.0001,94.28521 v 0 c 1.0575,0.6002 2.0248,1.2774 2.8848,2.0645 0.86,0.787 1.613,1.6834 2.2441,2.7226 1,1.75 0.8192,2.3497 2.3692,5.1797 0.8557,1.7652 1.979,3.3882 3.33,4.8105 1,1 1.683,1.3811 2.2305,1.6973 0.5475,0.3163 0.9599,0.5677 1.4199,1.3027 0.46,0.7351 0.5478,1.26 0.6016,2.1075 0.054,0.8475 0.073,2.016 0.3984,4.041 0.1805,1.5547 0.5463,3.0831 1.0899,4.5508 0.6,1.46 1.1801,2.1219 1.7363,2.7207 0.5563,0.5987 1.0888,1.1348 1.5938,2.3398 0.385,0.915 0.5675,1.8844 0.6425,3.1406 0.075,1.2563 0.043,2.7994 0,4.8594 -0.03,1.5 -0.111,2.345 -0.1347,2.9688 -0.024,0.6237 0.01,1.0256 0.2051,1.6406 0.3139,1.0791 0.8736,2.0512 1.6191,2.8516 0.7455,0.8003 1.6763,1.4287 2.7305,1.8183 0.51,0.15 0.4589,9e-4 3.4589,0.1309 1.91,0.06 2.9997,0.089 4.0997,0.1894 1.305,0.125 2.3283,0.2229 3.2246,0.4004 0.8962,0.1775 1.6668,0.4339 2.4668,0.8789 0.45,0.25 1.1985,0.665 1.8535,1.25 0.3275,0.2925 0.6326,0.6278 0.8633,1.0059 0.2306,0.3781 0.3868,0.8006 0.4218,1.2656 0.07,0.79 -0.2162,1.5398 -0.5937,2.166 -0.3775,0.6263 -0.8448,1.1289 -1.1348,1.4238 -0.695,0.755 -1.3587,1.1668 -1.8437,1.4805 -0.485,0.3138 -0.7924,0.5287 -0.7774,0.8887 0.015,0.36 0.3985,0.5423 0.961,0.8223 0.5625,0.28 1.304,0.6582 2.039,1.4082 0.735,0.75 0.9513,1.2922 1.125,1.7597 0.1738,0.4675 0.305,0.8606 0.875,1.3106 0.475,0.37 1.0974,0.5501 1.9824,0.6289 0.885,0.079 2.0336,0.055 3.5586,0.02 1.436,0 2.8693,-0.103 4.2891,-0.3184 1.78,-0.285 2.6384,-0.6177 3.3184,-0.8965 0.68,-0.2787 1.1819,-0.5042 2.2519,-0.5742 0.86,-0.055 1.7754,0.081 2.9629,0.3945 1.1875,0.3138 2.6477,0.8049 4.5977,1.4649 1.2994,0.5262 2.6365,0.9553 4,1.2812 1.6955,0.3163 3.5094,0.3262 5.2187,0.096 0.061,-0.051 0.1254,-0.1004 0.1914,-0.1464 m 49.9444,200.5227 c 1.6079,-0.5922 3.3105,-0.9948 5.0195,-1.1191 -0.1729,-1.2421 -0.2236,-2.4981 -0.1504,-3.75 0.105,-1.065 0.3563,-1.9545 0.7051,-2.877 0.3487,-0.9225 0.7949,-1.8792 1.2949,-3.0742 0.5,-1.195 0.8981,-1.9834 1.2656,-2.5234 0.3675,-0.54 0.706,-0.8304 1.086,-1.0254 1.13,-0.59 1.8184,-0.1207 3.1484,-0.7207 1.0623,-0.6127 1.9408,-1.5008 2.541,-2.5703 0.715,-1.03 1.4019,-2.0293 1.9219,-3.0918 0.52,-1.0625 0.873,-2.1868 0.918,-3.4668 -0.1287,-1.6241 -0.4436,-3.2294 -0.9395,-4.7813 -0.42,-1.645 -0.7415,-2.579 -0.914,-3.2265 -0.1725,-0.6475 -0.1974,-1.0089 -0.027,-1.5039 0.245,-0.7 0.6464,-0.9943 1.2539,-1.4043 0.6075,-0.41 1.4211,-0.9357 2.4961,-2.0957 1.37,-1.49 1.2115,-1.91 2.3515,-3 0.73,-0.705 1.4324,-1.1464 2.1699,-1.5039 0.7375,-0.3575 1.5089,-0.6311 2.3789,-0.9961 1.3673,-0.6022 2.6917,-1.2939 3.9629,-2.0723 1.2712,-0.7784 2.4886,-1.6418 3.6465,-2.5859 1.66,-1.4 1.7615,-1.91 5.2715,-6 1.6255,-1.9024 3.3103,-3.8964 4.6504,-5.4727 m -52.4681,-170.7391 c -1.1825,-0.025 -2.2007,0.034 -3.0762,0.1582 -0.8755,0.1241 -1.6088,0.3137 -2.2266,0.5449 -1.2356,0.4625 -2.0058,1.0963 -2.5058,1.7363 -0.39,0.5 -0.5454,0.8883 -0.7754,1.6133 -0.23,0.725 -0.5346,1.7867 -1.2246,3.6367 -0.5897,1.9293 -1.3985,3.786 -2.4102,5.5313 -0.8412,1.1484 -1.8494,2.1503 -2.9863,2.9785 -1.137,0.8283 -2.4029,1.4831 -3.7539,1.9317 -1.0825,0.4075 -1.9358,0.5962 -2.6875,0.6718 -0.7517,0.076 -1.4018,0.037 -2.0762,-0.01 -0.6744,-0.045 -1.3722,-0.098 -2.2227,-0.053 -0.8504,0.046 -1.8528,0.1896 -3.1328,0.5371 -0.84,0.23 -2.8628,0.776 -4.789,1.711 -0.9632,0.4675 -1.9011,1.0312 -2.6563,1.7031 -0.7551,0.6719 -1.3272,1.4507 -1.5547,2.3457 -0.1447,1.0765 -0.6116,2.0846 -1.3398,2.8906 -0.82,0.79 -1.3494,0.6104 -2.1094,1.1504 -0.066,0.046 -0.1304,0.095 -0.1914,0.1465 -0.3528,0.2957 -0.6256,0.6706 -0.8398,1.1289 -0.2143,0.4583 -0.3691,1.0004 -0.4864,1.6289 -0.2345,1.257 -0.3182,2.8615 -0.414,4.8457 -0.07,1.53 -0.036,2.4464 -0.066,3.0664 -0.03,0.62 -0.1234,0.9432 -0.4434,1.2832 -0.3675,0.3875 -0.8137,0.564 -1.3027,0.6348 -0.4891,0.071 -1.0199,0.036 -1.5586,0 -0.5388,-0.034 -1.085,-0.068 -1.6016,0 -0.5165,0.072 -1.0033,0.2487 -1.4258,0.6387 -0.3325,0.3075 -0.4942,0.6256 -0.5703,0.9687 -0.076,0.3431 -0.067,0.7116 -0.059,1.1191 0.01,0.4075 0.015,0.8549 -0.064,1.3555 -0.08,0.5006 -0.2479,1.0553 -0.5879,1.6778 -0.3025,0.555 -0.6133,0.9283 -0.957,1.2285 -0.3438,0.3001 -0.7198,0.527 -1.1523,0.7851 -0.865,0.5163 -1.956,1.1621 -3.461,2.7871 -0.3976,0.5906 -1.0242,0.9862 -1.7285,1.0899 -0.555,0 -0.9102,-0.3292 -1.2539,-0.6817 -0.3438,-0.3525 -0.6775,-0.73 -1.1875,-0.83 -0.51,-0.1 -0.9959,0.1252 -1.6797,0.7714 -0.6837,0.6463 -1.5644,1.7139 -2.8594,3.2989 -3.58,4.4 -3.921,4.8806 -4.291,5.8906 -0.2744,0.7674 -0.6081,1.6932 -0.748,2.6562 -0.068,0.466 -0.089,0.9399 -0.037,1.4102 0.052,0.4703 0.1776,0.9353 0.4062,1.3828 0.385,0.75 0.8643,1.0686 1.5606,1.4961 0.6962,0.4275 1.6093,0.9643 2.8593,2.1543 1.0695,0.8741 1.9426,1.9659 2.5606,3.2012 0.405,0.935 0.4698,1.7508 0.3848,2.6758 -0.085,0.925 -0.3207,1.9592 -0.5157,3.3242 -0.25,1.785 -0.1938,2.4568 -0.1113,3.8105 0.082,1.3538 0.1908,3.3885 0.051,7.8985 -0.06,1.8 -0.049,3.5908 -0.1289,5.3808 -0.2353,1.8348 -0.1716,3.6955 0.1895,5.5098 0.38,1.5 0.7098,1.5289 1.0898,2.8789 0.37,1.31 0.3459,2.3104 0.2246,3.2754 -0.1212,0.965 -0.3385,1.8944 -0.3535,3.0644 0,1.54 0.3371,2.89 0.8808,4.1875 0.5438,1.2975 1.2942,2.5431 2.1192,3.8731 0.84,1.41 1.3548,1.9379 2.0586,2.6504 0.7037,0.7125 1.5964,1.6097 3.1914,3.7597 1.595,2.15 2.3001,3.401 2.8789,4.336 0.5787,0.935 1.0311,1.5533 2.1211,2.4433 0.78,0.65 1.4441,1.0735 2.0703,1.5547 0.6263,0.4813 1.2148,1.0213 1.8398,1.9063 1,1.49 0.84,1.9998 1.92,3.5898 0.5252,0.7198 1.1183,1.3848 1.7715,1.9844 0.6532,0.5996 1.3649,1.1339 2.1269,1.5957 1.8568,1.1641 3.8316,2.1303 5.8906,2.8809 2.7618,1.3292 5.4159,2.8698 7.9395,4.6093 2.565,1.645 4.1278,2.7964 5.1328,3.7227 1.005,0.9262 1.4521,1.6272 1.7871,2.3672 0.3157,0.6161 0.5248,1.2771 0.6211,1.9531 0.096,0.676 0.08,1.3671 -0.051,2.0469 -0.2647,0.9158 -0.7213,1.7648 -1.3398,2.4902 -0.5646,0.8754 -1.197,1.7018 -1.8926,2.4727 -0.6956,0.7708 -1.4546,1.4855 -2.2676,2.1367 -0.6972,0.5798 -1.4483,1.0868 -2.2422,1.5156 -0.7939,0.4288 -1.6308,0.7799 -2.498,1.0449 -1.09,0.315 -1.9041,0.3801 -2.5391,0.4864 -0.635,0.1062 -1.0909,0.2543 -1.4609,0.7343 -0.5,0.59 -0.6045,1.3643 -0.5645,2.0606 0.04,0.6962 0.2247,1.3129 0.3047,1.5879 0.3343,0.915 0.7824,1.7818 1.3301,2.5781 0.5477,0.7963 1.1948,1.5225 1.9297,2.1621 0.6109,0.4003 1.0841,0.9805 1.3515,1.6602 0.105,0.4485 0.1046,0.9096 0.01,1.3476 -0.099,0.438 -0.2959,0.8534 -0.5859,1.2129 -0.37,0.5 -0.7335,0.6545 -1.086,0.7832 -0.3525,0.1288 -0.6953,0.232 -1.0253,0.627 -0.22,0.265 -0.3189,0.5139 -0.3614,1.0527 -0.043,0.5387 -0.028,1.3671 -0.018,2.7871 v 4.0996 3 c -0.1426,1.2465 -0.4839,2.4538 -1.0039,3.5781 -0.52,1.1244 -1.2187,2.1661 -2.0762,3.0821 -0.9011,1.0276 -1.9596,1.8926 -3.1269,2.5683 -1.1673,0.6757 -2.4434,1.162 -3.7832,1.4317 -0.9506,0.1745 -1.9239,0.1953 -2.8809,0.06 -1.2547,-0.242 -2.465,-0.6749 -3.5898,-1.2813 -0.215,-0.085 -1.2437,-0.4913 -2.5137,-0.705 -0.635,-0.1069 -1.3305,-0.1659 -2.0137,-0.1114 -0.6831,0.055 -1.3539,0.2214 -1.9414,0.5664 -0.5875,0.345 -0.9564,0.7971 -1.2246,1.3106 -0.2681,0.5134 -0.4361,1.0884 -0.6211,1.6797 -0.185,0.5912 -0.3884,1.1989 -0.7265,1.7773 -0.3382,0.5784 -0.8116,1.1285 -1.5391,1.6035 -0.575,0.38 -1.0747,0.5524 -1.5234,0.7637 -0.4488,0.2112 -0.8468,0.4611 -1.2168,0.9961 -0.3306,0.5471 -0.5573,1.1436 -0.6758,1.7617 -0.1185,0.6181 -0.1281,1.2581 -0.023,1.8887 0.095,1.59 0.3725,2.6176 0.6875,3.5664 0.315,0.9487 0.6671,1.8187 0.9121,3.0937 0.19,1 2e-4,0.8283 -0.2598,7.4883 -0.105,2.33 -0.1582,3.9438 -0.033,5.0801 0.062,0.5681 0.171,1.0168 0.3379,1.3769 0.1669,0.3602 0.3928,0.6313 0.6953,0.8438 0.41,0.295 0.7522,0.3248 1.1172,0.3535 0.365,0.029 0.752,0.056 1.252,0.3457 0.4025,0.2325 0.7235,0.5456 0.9824,0.9219 0.2589,0.3762 0.4571,0.8166 0.6152,1.3066 0.3163,0.98 0.4726,2.1571 0.6426,3.4121 0.39,2.86 0.6013,5.5491 1.1113,9.2891 0.1999,-0.054 0.4005,-0.109 0.5996,-0.168 m 105.2211,-84.4727 c -1.3401,1.5763 -3.0249,3.5703 -4.6504,5.4727 -3.51,4.09 -3.6115,4.6 -5.2715,6 -1.1579,0.9441 -2.3753,1.8075 -3.6465,2.5859 -1.2712,0.7785 -2.5956,1.4701 -3.9629,2.0723 -0.87,0.365 -1.6414,0.6386 -2.3789,0.9961 -0.7375,0.3575 -1.4399,0.7989 -2.1699,1.5039 -1.14,1.09 -0.9816,1.51 -2.3516,3 -1.075,1.16 -1.8886,1.6857 -2.4961,2.0957 -0.6075,0.41 -1.0089,0.7043 -1.2539,1.4043 -0.17,0.495 -0.1451,0.8564 0.027,1.5039 0.1725,0.6475 0.4941,1.5816 0.9141,3.2266 0.4959,1.5519 0.8107,3.1571 0.9394,4.7812 -0.045,1.28 -0.3979,2.4043 -0.9179,3.4668 -0.52,1.0625 -1.2069,2.0618 -1.9219,3.0918 -0.6002,1.0695 -1.4787,1.9576 -2.541,2.5703 -1.33,0.6 -2.0185,0.1307 -3.1485,0.7207 -0.38,0.195 -0.7184,0.4854 -1.0859,1.0254 -0.3675,0.54 -0.7656,1.3285 -1.2656,2.5235 -0.5,1.195 -0.9462,2.1517 -1.2949,3.0742 -0.3488,0.9225 -0.6001,1.8119 -0.7051,2.8769 -0.073,1.2519 -0.023,2.5079 0.1504,3.75 0.185,1.915 0.4674,3.0338 0.6699,3.9375 0.2025,0.9038 0.3244,1.5926 0.1894,2.6426 -0.18,1.355 -0.4507,1.9486 -0.6894,2.4961 -0.2388,0.5475 -0.4452,1.0479 -0.4902,2.2129 -0.035,1.05 0.091,1.8212 0.4472,3.0625 0.3563,1.2412 0.944,2.9537 1.834,5.8887 0.5358,1.4742 0.9366,2.9926 1.1992,4.539 0.025,0.92 -0.095,1.6986 -0.5449,2.8711 -0.45,1.1725 -1.2304,2.7383 -2.5254,5.2383 -2.26,4.42 -3.3987,6.63157 -3.8887,7.35157 -1.33,1.96 -2.2691,2.9175 -3.0566,3.78125 -0.7875,0.86375 -1.4243,1.63375 -2.1543,3.21875 -0.58,1.28 -0.827,2.20882 -1.0957,2.92382 -0.2688,0.715 -0.5596,1.21477 -1.2246,1.63477 -0.36,0.215 -0.7838,0.39352 -1.6563,0.41602 -0.8725,0.0225 -2.1937,-0.11063 -4.3437,-0.51563 -2.705,-0.505 -4.192,-0.97008 -5.1445,-1.23633 -0.9525,-0.26625 -1.3706,-0.33297 -1.9356,-0.043 -0.5525,0.285 -0.8638,0.71258 -1.0644,1.26368 -0.2007,0.55109 -0.291,1.22507 -0.3985,2.00195 -0.1075,0.77687 -0.2327,1.6568 -0.5058,2.61914 -0.2732,0.96234 -0.6932,2.00773 -1.3907,3.11523 -0.7151,1.0351 -1.533,1.99063 -2.4394,2.85352 -0.9065,0.86289 -1.9017,1.63352 -2.9707,2.29687 -0.8661,0.7177 -1.8046,1.33922 -2.7969,1.85547 -0.9923,0.51625 -2.0382,0.92731 -3.123,1.22461 -1.26,0.285 -2.0461,0.2518 -2.7286,0.24805 -0.6825,-0.004 -1.2613,0.0219 -2.1113,0.42187 -0.955,0.455 -1.4283,1.00704 -1.9258,1.73829 -0.4975,0.73125 -1.0192,1.64054 -2.0742,2.81054 -0.8025,0.89 -1.5044,1.47844 -2.1289,1.90235 -0.6245,0.4239 -1.1723,0.68289 -1.668,0.91601 -0.4956,0.23313 -0.9377,0.44016 -1.3535,0.75781 -0.4158,0.31766 -0.8044,0.74633 -1.1894,1.42383 -0.59,1.03 -0.92,3.22055 -1.92,7.56055 -0.32,1.47 -0.3906,2 -0.3906,2 -0.36,2.91 -0.3095,4.94805 -0.4258,6.5918 -0.058,0.82187 -0.1578,1.54562 -0.3711,2.23047 -0.2132,0.68484 -0.5402,1.33054 -1.0527,1.99804 -0.735,0.955 -1.4027,1.36805 -2.209,1.9043 -0.8062,0.53625 -1.751,1.19453 -3.041,2.64453 -1.2845,1.4578 -2.3767,3.07495 -3.25,4.81055 -1.1008,1.9689 -2.3208,3.88667 -3.6269,5.74607 -1.3062,1.8595 -2.6989,3.6614 -4.1426,5.3946 m 190.7695,65.2006 c -1.2975,0.53 -2.5021,0.9304 -3.623,1.2246 -1.1209,0.2942 -2.157,0.4807 -3.1152,0.58 -1.9166,0.1987 -3.5211,0.05 -4.8711,-0.2851 -1.22,-0.3 -1.4407,-0.541 -4.2207,-1.541 -3.4149,-1.301 -6.9134,-2.3724 -10.4707,-3.209 -1.7875,-0.3775 -3.1617,-0.5287 -4.3145,-0.5684 -1.1528,-0.04 -2.0837,0.032 -2.9824,0.096 -0.8988,0.064 -1.7657,0.12 -2.791,0.053 -1.0253,-0.067 -2.2097,-0.2589 -3.7422,-0.6914 -2.07,-0.585 -3.1919,-1.172 -4.1719,-1.6132 -0.98,-0.4413 -1.8183,-0.7364 -3.3183,-0.7364 -0.9025,-0.01 -1.6764,0.088 -2.3965,0.2637 -0.7202,0.1758 -1.3853,0.4293 -2.0684,0.7324 -1.3662,0.6063 -2.8045,1.4088 -4.8945,2.1738 -1.8887,0.6639 -3.8307,1.1505 -5.8008,1.4551 -1.9701,0.3047 -3.9678,0.4277 -5.9688,0.3653 -2.1525,0 -3.8098,-0.2172 -5.207,-0.545 -1.3972,-0.3278 -2.5347,-0.7635 -3.6484,-1.1972 -1.1138,-0.4338 -2.2037,-0.8644 -3.5059,-1.1797 -1.3022,-0.3153 -2.8168,-0.5158 -4.7793,-0.4883 -1.6696,0.024 -2.7253,0.1979 -3.7031,0.4492 -0.9778,0.2513 -1.8781,0.5805 -3.2363,0.9102 -1.3266,0.322 -3.0905,0.6445 -5.791,0.9004 -2.065,0.195 -3.9536,0.3725 -5.87109,0.4062 -1.9175,0.034 -3.8621,-0.075 -6.0371,-0.4551 -1.5475,-0.27 -2.747,-0.5971 -3.7403,-0.9355 -0.9933,-0.3384 -1.7822,-0.6885 -2.5078,-1.0098 -0.7256,-0.3212 -1.3883,-0.6136 -2.1328,-0.832 -0.7445,-0.2184 -1.5691,-0.3626 -2.6191,-0.3926 -0.715,0 -1.8793,0.025 -3.8243,0.6621 -0.9725,0.3188 -2.1393,0.7899 -3.5449,1.4883 -1.4056,0.6984 -3.0501,1.6246 -4.9726,2.8496 -2.8422,1.8163 -5.6134,3.864 -8.25,6.0762 -2.6367,2.2122 -5.1384,4.5888 -7.4356,7.0586 m 56.7266,-15.8164 c 0.035,-1.755 0.031,-4.1958 -0.2051,-6.7305 -0.1183,-1.2673 -0.295,-2.5577 -0.5527,-3.7988 -0.2578,-1.2411 -0.598,-2.4325 -1.043,-3.5 -0.2005,-0.5042 -0.4518,-0.9861 -0.75,-1.4394 -0.5,-0.77 -1.1024,-1.3947 -1.7617,-1.9063 -0.6594,-0.5116 -1.376,-0.9106 -2.1035,-1.2344 -1.455,-0.6475 -2.9548,-0.9905 -4.1348,-1.3105 -1.3275,-0.37 -2.1891,-0.7017 -2.9258,-1.0762 -0.7367,-0.3745 -1.348,-0.7914 -2.1699,-1.332 -0.8219,-0.5406 -1.8545,-1.204 -3.4375,-2.0723 -1.583,-0.8683 -3.7163,-1.9413 -6.7363,-3.2988 -2.955,-1.33 -4.4546,-1.898 -5.4258,-2.293 -0.9713,-0.395 -1.4139,-0.6178 -2.2539,-1.2578 -1.18,-0.915 -2.0372,-1.8201 -2.7188,-2.7207 -0.6815,-0.9006 -1.1867,-1.7959 -1.6679,-2.6934 -0.4813,-0.8975 -0.9386,-1.7975 -1.5176,-2.7031 -0.5791,-0.9056 -1.2809,-1.8172 -2.2559,-2.7422 -0.85,-0.795 -2.1541,-1.476 -4.1191,-2.2285 -1.965,-0.7525 -4.5901,-1.5771 -8.0801,-2.6621 -6.935,-2.165 -10.7538,-2.9992 -13.2813,-3.668 -1.2637,-0.3343 -2.2035,-0.6267 -3.0507,-1.0234 -0.8472,-0.3967 -1.6008,-0.8984 -2.4883,-1.6484 -1.425,-1.2 -2.3905,-2.36 -3.418,-3.3125 -0.5137,-0.4763 -1.044,-0.9004 -1.6543,-1.252 -0.6103,-0.3516 -1.3012,-0.6294 -2.1387,-0.8144 -1.22,-0.27 -2.1025,-0.195 -3.1875,-0.125 -1.085,0.07 -2.3723,0.1337 -4.4023,-0.1563 -2.14,-0.31 -1.9996,-0.5692 -5.8496,-1.4492 -1.904,-0.4347 -3.3943,-0.7748 -4.6094,-1 -1.5802,-0.2929 -2.695,-0.3913 -3.6504,-0.25 -0.885,0.135 -1.5776,0.3524 -2.1679,0.5996 -0.5904,0.2472 -1.0785,0.5236 -1.5547,0.7773 -0.4763,0.2538 -0.9416,0.484 -1.4844,0.6387 -0.5428,0.1547 -1.1631,0.2336 -1.9531,0.1836 -1,-0.065 -1.7051,-0.2887 -2.3301,-0.4199 -0.625,-0.1313 -1.1696,-0.1694 -1.8496,0.1406 -0.545,0.25 -0.8685,0.5874 -1.2285,1.0899 -0.36,0.5025 -0.7562,1.17 -1.4512,2.08 -0.9368,1.2273 -1.9991,2.3528 -3.1699,3.3594 -0.48,0.3925 -0.9801,0.6752 -1.5567,0.8731 -0.5765,0.1978 -1.2307,0.312 -2.0195,0.3632 -1.5775,0.1025 -3.6945,-0.041 -6.8145,-0.2363 -4.81,-0.28 -7.5032,-0.4069 -9.1582,-0.3594 -1.655,0.048 -2.2716,0.2695 -2.9316,0.6895 -0.57,0.3625 -1.0283,0.7821 -1.4141,1.2715 -0.3857,0.4893 -0.6998,1.0494 -0.9804,1.6894 -0.5613,1.28 -0.9905,2.8852 -1.6055,4.9102 -0.8961,2.8664 -1.8524,5.7085 -2.9141,8.5097 -1.0616,2.8013 -2.2295,5.5609 -3.5468,8.2598 M 710.92271,531.93701 c -1.709,0.1243 -3.4116,0.5269 -5.0195,1.1191 -1.725,0.645 -2.705,1.3209 -3.6387,1.9297 -0.9338,0.6087 -1.8213,1.1512 -3.3613,1.5312 -1.3,0.315 -1.9857,0.2543 -2.6719,0.2168 -0.6863,-0.038 -1.3727,-0.052 -2.6777,0.3535 -1.05,0.33 -1.8014,0.7113 -2.4864,0.9688 -0.685,0.2575 -1.3037,0.3907 -2.0937,0.2207 -0.705,-0.155 -1.081,-0.4548 -1.416,-0.7148 -0.335,-0.26 -0.6289,-0.4797 -1.1739,-0.4747 -0.3775,0 -0.6735,0.1076 -0.9394,0.2872 -0.266,0.1795 -0.503,0.4297 -0.7617,0.7128 -0.5175,0.5663 -1.1253,1.2641 -2.2403,1.7891 -0.935,0.44 -1.5735,0.455 -2.1035,0.4688 -0.53,0.014 -0.9503,0.026 -1.4453,0.4609 -0.495,0.435 -0.7637,1.0841 -0.9062,2.0391 -0.1425,0.955 -0.1593,2.2178 -0.1543,3.8828 0,1.4 0.084,2.1489 0.1269,2.7226 0.043,0.5738 0.043,0.971 -0.1269,1.666 -0.1486,0.9013 -0.4729,1.7543 -0.9454,2.5157 -0.4724,0.7613 -1.0923,1.4316 -1.8339,1.9648 -0.5,0.29 -0.9786,0.4546 -1.5723,0.5684 -0.5938,0.1137 -1.3026,0.1767 -2.2676,0.2617 -2.34,0.2 -2.5105,-0.16 -4.8105,0 -1.43,0.08 -2.2454,0.2718 -2.9317,0.4043 -0.6862,0.1325 -1.2432,0.2049 -2.1582,0.045 -1.57,-0.28 -1.6408,-0.7895 -3.1308,-1.1895 -0.745,-0.2 -1.4944,-0.2694 -2.5157,-0.1582 -1.0212,0.1113 -2.3145,0.4028 -4.1445,0.9278 -3.66,1.05 -4.4691,1.5509 -6.7891,2.2109 -0.1991,0.059 -0.3997,0.1139 -0.5996,0.168 -1.6161,0.4373 -3.2566,0.7329 -4.9062,0.8867 -1.6496,0.1538 -3.3083,0.1664 -4.9551,0.039 -1.6468,-0.1274 -3.2829,-0.3947 -4.8906,-0.8008 -1.6077,-0.4061 -3.1864,-0.9505 -4.7188,-1.6328 -1.9211,-0.8168 -3.7571,-1.8217 -5.4804,-3 -1.77,-1.23 -2.5563,-2.0534 -3.2188,-2.7734 -0.6625,-0.72 -1.2007,-1.3363 -2.4707,-2.1563 -1.465,-0.935 -2.918,-1.508 -4.623,-1.9355 -1.705,-0.4275 -3.6618,-0.7095 -6.1368,-1.0645 -2.0094,-0.328 -4.0443,-0.4767 -6.08,-0.4414 -2.4295,0.1048 -4.8447,0.4396 -7.211,1 -1.595,0.29 -3.5384,0.6432 -5.6484,0.8145 -1.055,0.086 -2.1513,0.1253 -3.2656,0.09 -1.1144,-0.035 -2.2475,-0.1458 -3.375,-0.3633 -1.5625,-0.3 -2.6946,-0.7224 -3.6094,-1.1992 -0.9148,-0.4769 -1.6123,-1.0079 -2.3066,-1.5254 -0.6944,-0.5175 -1.3861,-1.0215 -2.2872,-1.4434 -0.901,-0.4219 -2.0118,-0.7631 -3.5468,-0.9531 -1,-0.12 -1.4498,-0.099 -9.5098,-0.7988 -1,-0.09 -1.7636,-0.1602 -2.4023,-0.2852 -0.6388,-0.125 -1.1532,-0.3052 -1.6582,-0.6152 -0.68,-0.415 -1.1457,-0.8966 -1.4981,-1.4063 -0.3523,-0.5097 -0.5909,-1.0469 -0.8203,-1.5781 -0.2294,-0.5313 -0.4487,-1.0555 -0.7598,-1.5352 -0.3111,-0.4797 -0.715,-0.9165 -1.3125,-1.2715 -0.305,-0.18 -0.9701,-0.2587 -2.0664,-0.2812 -1.0962,-0.023 -2.6223,0.013 -4.6523,0.062 -3.86,0.09 -4.5207,0.2491 -5.2207,0.5391 -0.7,0.29 -0.5306,0.3414 -4.0606,2.6914 -1.8107,1.2039 -2.173,1.3957 -2.5547,1.9355 -0.015,0.021 -0.03,0.042 -0.045,0.062 -0.305,0.445 -0.4939,0.8898 -0.6289,1.5098 -0.135,0.62 -0.2157,1.4155 -0.3007,2.5605 -0.15,2.1 -0.2207,3.1508 -0.2207,4.8008 0,3.14 -0.1672,4.665 -0.2872,5.7188 -0.12,1.0537 -0.1919,1.6356 0,2.8906 0.1781,1.2798 0.5268,2.524 1.0313,3.7012 0.5045,1.1771 1.1647,2.2872 1.9687,3.2988 0.75,0.9 1.3,1.2854 2.3438,1.90038 1.0437,0.615 2.5816,1.45929 5.3066,3.27929 2.22,1.5 3.509,2.48203 4.3028,3.20703 0.7937,0.725 1.0911,1.19407 1.3261,1.66407 0.33,0.65 0.3799,1.00007 0.8399,6.08007 0.25,2.805 0.3947,4.47899 0.3847,5.61524 -0.01,1.13625 -0.1749,1.73476 -0.5449,2.38476 -0.23,0.4 -0.3199,0.44961 -2.9199,2.84961 -2.2,2 -3.3945,3.12282 -4.082,3.85157 -0.6875,0.72875 -0.8671,1.06328 -1.0371,1.48828 -0.375,0.95 -0.3444,1.53281 -0.3282,2.19531 0.016,0.6625 0.018,1.40383 -0.4121,2.67383 -0.375,1.115 -0.7519,1.6539 -1.1269,2.16015 -0.375,0.50625 -0.7483,0.98071 -1.1133,1.97071 -0.2,0.555 -0.293,1.32406 -0.3242,2.44531 -0.031,1.12125 -10e-5,2.59469 0.045,4.55469 0.035,1.64 0.084,2.68789 0.064,3.52539 -0.02,0.8375 -0.1105,1.46367 -0.3555,2.26367 -0.4,1.3 -0.6495,1.21016 -1.1895,2.91016 -0.54,1.7 -0.48,2.47148 -1,4.77148 -0.53,2.12 -0.6503,1.73 -0.9003,3 -0.3,1.535 -0.2141,2.51445 -0.1641,3.3457 0.05,0.83125 0.065,1.51313 -0.375,2.45313 -0.33,0.7 -0.3713,0.36969 -1.8613,2.42969 -0.8684,1.0409 -1.5901,2.19448 -2.1485,3.42968 -0.3385,1.3693 -0.4675,2.78355 -0.3808,4.19145 0.1172,0.9623 0.089,1.9311 -0.08,2.875 -0.1686,0.9438 -0.4769,1.8623 -0.9199,2.7246 -0.703,1.5027 -1.1356,3.1168 -1.2793,4.7695 0.2112,1.3735 0.5864,2.7165 1.1191,4 0.5111,1.7652 1.1528,3.4902 1.9199,5.1602 0.67,1.235 1.1564,1.7546 1.5352,2.1621 0.3787,0.4075 0.6495,0.7033 0.8945,1.4883 0.2175,0.6875 0.2993,1.381 0.291,2.0507 -0.01,0.6697 -0.106,1.3156 -0.2441,1.9043 -0.2763,1.1775 -0.7156,2.1305 -0.9356,2.6055 -0.65,1.38 -0.8904,1.18 -1.7304,3 -0.535,1.135 -0.7567,1.8976 -0.9629,2.4551 -0.2063,0.5575 -0.3972,0.9096 -0.8672,1.2246 -0.47,0.315 -0.8681,0.314 -1.3418,0.3515 -0.4738,0.037 -1.0238,0.1132 -1.7988,0.5782 -0.82,0.47 -0.9998,0.84 -1.7598,1 -0.6828,0.076 -1.3717,0.055 -2.0488,-0.061 -0.7984,-0.1229 -1.6134,-0.092 -2.4004,0.09 -0.455,0.185 -0.7424,0.4761 -0.9961,0.8398 -0.2538,0.3638 -0.4749,0.8013 -0.7949,1.2813 -0.565,0.84 -1.0646,1.2165 -1.6133,1.5703 -0.5488,0.3537 -1.1463,0.6847 -1.9063,1.4297 -0.565,0.55 -0.9318,1.0336 -1.2011,1.4922 -0.2694,0.4585 -0.4403,0.891 -0.6153,1.3378 -0.175,0.4469 -0.3548,0.909 -0.6367,1.4239 -0.2819,0.5148 -0.6659,1.0836 -1.2559,1.7461 -1.0406,1.1481 -2.2532,2.1297 -3.5918,2.9101 -1.5235,0.8155 -3.1065,1.511 -4.7382,2.0801 -1.9886,0.9899 -3.8303,2.2521 -5.4707,3.75 -1.4643,1.1956 -2.8547,2.4417 -4.1778,3.7559 -1.3231,1.3142 -2.5798,2.6958 -3.7754,4.1601 m 45.4711,-171.27705 c 0.015,-0.021 0.03,-0.042 0.045,-0.062 -1.2962,-1.5304 -2.5899,-3.2002 -3.7051,-4.8672 -1.5824,-2.1819 -2.9236,-4.529 -4,-7 -0.5,-1.23 -0.7621,-2.1263 -1.0684,-2.8613 -0.3062,-0.735 -0.657,-1.3087 -1.332,-1.8887 -1.0009,-0.7833 -2.1403,-1.3688 -3.3594,-1.7285 -1.2169,-0.3558 -2.4512,-0.6473 -3.6992,-0.8711 -1.7743,-0.5651 -3.434,-1.442 -4.9004,-2.5898 -1.8402,-1.2063 -3.505,-2.6602 -4.9492,-4.3203 -1.44,-1.69 -1.0113,-1.7193 -3.3613,-4.9493 -1.03,-1.415 -1.6622,-2.165 -2.1172,-2.75 -0.455,-0.585 -0.7327,-1.0047 -1.0527,-1.7597 -0.53,-1.26 -0.2497,-1.2508 -1.0997,-4.8008 -0.47,-1.97 -0.8393,-3.1646 -1.123,-3.9121 -0.2838,-0.7475 -0.4824,-1.0485 -0.6074,-1.2285 -0.2179,-0.3195 -0.466,-0.6162 -0.7403,-0.8887 -0.6554,-0.6957 -1.3702,-1.332 -2.1386,-1.9004 -0.4,-0.315 -0.8435,-0.884 -1.3262,-1.9258 -0.4827,-1.0418 -1.0045,-2.5567 -1.5645,-4.7617 -0.1065,0.1391 -0.214,0.2789 -0.3203,0.418 m 140.6069,-117.22377 c -1.0808,0.9356 -2.2636,1.7761 -3.5157,2.4981 -1.252,0.7219 -2.5727,1.3239 -3.9257,1.7851 -1.1246,0.3967 -2.2785,0.6983 -3.4493,0.9024 -1.1707,0.204 -2.3582,0.3113 -3.5507,0.3183 -1.23,0 -2.2119,-0.1133 -3.3282,-0.1933 -1.1162,-0.08 -2.3658,-0.1261 -4.1308,0 -1.13,0.085 -1.8889,0.1974 -2.4414,0.3574 -0.5525,0.16 -0.899,0.3676 -1.209,0.6426 -0.605,0.535 -0.7861,1.0742 -0.9649,1.7304 -0.1787,0.6563 -0.355,1.4297 -0.955,2.4297 -0.4392,0.716 -0.9755,1.3613 -1.5899,1.9219 -0.6144,0.5605 -1.3074,1.0363 -2.0605,1.4082 -0.8106,0.3302 -1.6543,0.5602 -2.5137,0.6894 -0.8594,0.1293 -1.7337,0.1573 -2.6055,0.08 -2.03,-0.01 -2.4001,-0.3203 -3.9101,-0.3203 -1.0269,0.01 -2.0364,0.1212 -3.0156,0.3535 -0.9793,0.2324 -1.9299,0.583 -2.8379,1.0625 0.099,1.0008 0.069,1.9608 -0.061,2.8946 -0.1299,0.9338 -0.3599,1.84 -0.6543,2.7324 -0.589,1.7849 -1.4423,3.5135 -2.3028,5.2871 -1.93,4 -3.9387,7.9092 -6.2187,11.6992 -1.5476,2.6639 -3.3259,5.181 -5.3086,7.5235 -1.9827,2.3424 -4.1713,4.5101 -6.543,6.4765 -1.47,1.205 -3.1444,2.5415 -4.9219,3.709 -0.8887,0.5838 -1.8032,1.1251 -2.7304,1.5879 -0.9272,0.4628 -1.8667,0.8458 -2.8067,1.1133 -2.28,0.65 -4.6685,1.0147 -7.0722,1.2422 -2.4038,0.2275 -4.823,0.3179 -7.168,0.4179 -2.195,0.1 -4.6816,0.3761 -7.0879,0.3086 -1.2031,-0.034 -2.3862,-0.1541 -3.5019,-0.4238 -1.1158,-0.2697 -2.1646,-0.6892 -3.0996,-1.3242 -0.7958,-0.4679 -1.6451,-0.832 -2.5254,-1.084 -0.8804,-0.252 -1.7921,-0.3919 -2.7149,-0.416 -1.8996,-0.2225 -3.8091,-0.3396 -5.7187,-0.3496 -1.9097,-0.01 -3.8189,0.086 -5.7207,0.289 -1.5826,0.1319 -3.1256,0.5711 -4.5411,1.2911 -0.9,0.5 -1.3289,1.0613 -1.5839,1.7363 -0.255,0.675 -0.3352,1.4621 -0.5352,2.4121 -0.425,2.07 -1.306,3.9691 -2.041,5.9004 -0.3675,0.9656 -0.698,1.939 -0.918,2.9472 -0.22,1.0083 -0.3294,2.0499 -0.2519,3.1524 0.085,1.983 0.064,3.9703 -0.061,5.9512 -0.023,0.87 0.066,1.7083 0.2226,2.5293 0.1564,0.8209 0.3822,1.625 0.6328,2.4238 0.5013,1.5975 1.1047,3.1757 1.4747,4.8457 0.3575,1.615 0.4536,3.2219 0.3222,4.793 -0.1314,1.5711 -0.489,3.1082 -1.0371,4.58 -0.5481,1.4719 -1.287,2.88 -2.1797,4.1973 -0.8926,1.3173 -1.9404,2.5429 -3.1054,3.6504 -0.5,0.46 -0.8243,0.7107 -1.0743,0.9707 -0.25,0.26 -0.425,0.5293 -0.625,1.0293 0.3617,0.4771 0.5503,1.0431 0.5625,1.6133 0.012,0.5701 -0.1514,1.1444 -0.4922,1.6367 -0.9637,1.2699 -1.935,2.532 -2.9003,3.793 m 94.85,-221.4401 c -0.4033,0.9642 -0.8681,1.9069 -1.3516,2.8164 -1.21,2.2675 -2.7333,4.535 -4.5039,6.582 -0.8853,1.0235 -1.8336,1.9912 -2.834,2.8769 -1.0004,0.8858 -2.0536,1.69 -3.1523,2.3829 -1.0988,0.6928 -2.2415,1.2739 -3.4219,1.7187 -1.1804,0.4448 -2.3973,0.7529 -3.6426,0.8945 -1.2453,0.1417 -2.519,0.1171 -3.8125,-0.1 -1.2935,-0.2166 -2.6086,-0.6258 -3.9336,-1.2558 -1.325,-0.63 -2.7017,-1.4049 -4.1054,-2.1211 -1.4038,-0.7163 -2.8337,-1.3726 -4.2637,-1.7676 -0.9271,-0.089 -1.8326,-0.3334 -2.6797,-0.7207 -0.3525,-0.25 -0.6408,-0.6033 -0.8789,-1.0156 -0.2381,-0.4124 -0.4256,-0.8842 -0.5781,-1.3711 -0.305,-0.9738 -0.4685,-2.0089 -0.6035,-2.7539 -0.365,-2.04 -0.4272,-4.2075 -0.6172,-6.3438 -0.095,-1.0681 -0.2211,-2.1275 -0.4336,-3.1601 -0.2125,-1.0327 -0.5117,-2.0386 -0.9492,-2.9961 -0.645,-1.44 -1.477,-2.6652 -2.4082,-3.8164 -0.9313,-1.1513 -1.962,-2.2281 -3.002,-3.3731 l -0.8906,-1.1211 c -0.099,-0.4231 -0.4059,-0.7159 -0.7696,-0.832 -0.3636,-0.1161 -0.7833,-0.055 -1.1093,0.2324 -0.625,-0.067 -1.5525,0.1845 -2.6211,0.6153 -1.0686,0.4307 -2.278,1.0413 -3.4649,1.6894 -2.3737,1.2963 -4.6597,2.7466 -5.5547,3.2266 -2.54,1.36 -5.0703,2.8191 -7.6503,4.1191 -0.57,0.29 -1.2268,0.5398 -1.8418,0.8535 -0.615,0.3138 -1.1879,0.6914 -1.5879,1.2364 -0.5,0.6712 -0.8275,1.3629 -1.0157,2.0683 -0.1881,0.7055 -0.2357,1.4249 -0.1757,2.1504 0.12,1.4511 0.6723,2.9281 1.4023,4.375 0.73,1.4469 1.6368,2.8635 2.4668,4.1934 0.83,1.3298 1.582,2.5738 2.002,3.6738 0.3925,1.045 0.567,2.1081 0.6289,3.1797 0.062,1.0715 0.012,2.1508 -0.041,3.2246 -0.053,1.0737 -0.108,2.1418 -0.059,3.1934 0.049,1.0515 0.2047,2.0868 0.5722,3.0918 0.295,0.805 0.6464,1.4618 0.9414,2.1406 0.295,0.6787 0.5327,1.3795 0.5977,2.2695 0.155,2.16 -0.1566,3.9479 -0.1016,5.6504 0.027,0.8512 0.1453,1.6807 0.461,2.5254 0.3156,0.8447 0.8281,1.7033 1.6406,2.6133 1,1.15 2.0011,2.2834 2.9023,3.4922 0.9013,1.2087 1.7036,2.4942 2.3086,3.9492 1,2.44 1.3698,5.0497 2.2598,7.5097 0.455,1.25 1.1034,2.3632 1.8418,3.4122 0.7384,1.0489 1.5671,2.0322 2.3808,3.0253 0.8138,0.9932 1.6121,1.9955 2.293,3.0782 0.681,1.0826 1.244,2.2469 1.584,3.5644 0.2975,1.15 0.5883,2.1403 0.9258,3.0215 0.3375,0.8813 0.7226,1.6533 1.2051,2.3633 0.4825,0.71 1.0624,1.3579 1.7949,1.9941 0.7325,0.6363 1.6176,1.2599 2.7051,1.9199 1.89,1.15 3.9857,1.9008 6.0957,2.6133 2.11,0.7125 4.2338,1.3867 6.1738,2.3867 0.8825,0.475 1.6252,1.0097 2.2754,1.5918 0.6501,0.5822 1.2081,1.2136 1.7187,1.8848 1.0213,1.3425 1.855,2.8436 2.875,4.4336 0.8175,1.28 1.7577,2.428 2.7774,3.4883 1.0197,1.0603 2.119,2.033 3.2578,2.9668 2.2775,1.8675 4.7098,3.5761 6.9648,5.4961 1.265,1.07 2.3633,2.2451 3.3125,3.5078 0.9493,1.2626 1.75,2.6112 2.4219,4.0293 0.6719,1.4181 1.2135,2.905 1.6465,4.4414 0.433,1.5364 0.7577,3.1227 0.9902,4.7402 0.027,0.1865 0.048,0.373 0.066,0.5567 l 0.003,-0.009 M 313.39639,157.69493 c 0.9335,1.339 2.0737,2.5338 3.3613,3.5391 1.2877,1.0053 2.7222,1.8207 4.2481,2.4004 1.61,0.565 2.9788,0.6957 4.2051,0.9394 0.6131,0.1219 1.1909,0.2722 1.746,0.5196 0.5552,0.2473 1.0869,0.5915 1.6094,1.1015 0.6749,0.696 1.2061,1.5061 1.5742,2.3848 0.3682,0.8787 0.573,1.8258 0.5957,2.7949 -0.013,0.9125 -0.2289,1.6452 -0.541,2.2734 -0.312,0.6283 -0.719,1.1534 -1.1172,1.6465 -0.3981,0.4932 -0.7858,0.9559 -1.0566,1.4629 -0.2708,0.507 -0.4255,1.0585 -0.3555,1.7285 0.09,0.875 0.4695,1.5169 1.0176,2.0625 0.5481,0.5457 1.2657,0.9944 2.0332,1.4844 0.7675,0.49 1.5839,1.0204 2.332,1.7285 0.7482,0.7081 1.428,1.593 1.918,2.793 0.36,0.8775 0.5108,1.6598 0.5664,2.3769 0.056,0.7172 0.015,1.3701 -0.01,1.9864 -0.023,0.6162 -0.026,1.1968 0.1,1.7715 0.1257,0.5746 0.3809,1.1438 0.8809,1.7363 0.5,0.5925 1.0198,0.9805 1.5312,1.2598 0.5114,0.2792 1.0143,0.45 1.4825,0.6093 0.4681,0.1594 0.9013,0.3061 1.2714,0.5391 0.3702,0.233 0.6771,0.5508 0.8946,1.0508 0.2025,0.46 0.2427,0.8822 0.1816,1.3125 -0.061,0.4303 -0.223,0.869 -0.4199,1.3652 -0.3938,0.9925 -0.9316,2.213 -1.1016,4.043 -0.105,1.17 -0.016,2.1855 0.1973,3.2168 0.2137,1.0312 0.5531,2.0775 0.9531,3.3125 0.5,1.59 0.9999,3.1385 1.7012,4.5722 0.3506,0.7169 0.7521,1.4056 1.2285,2.0567 0.4764,0.6511 1.0272,1.2645 1.6797,1.832 0.77,0.665 1.4477,1.0594 2.0957,1.3281 0.648,0.2688 1.2661,0.4123 1.918,0.5723 0.6518,0.16 1.3374,0.337 2.1191,0.6758 0.7817,0.3387 1.6598,0.8376 2.6973,1.6426 1.63,1.25 1.8,1.8213 5,4.6113 1.75,1.53 3.2507,2.709 4.2207,3.459 1.3712,-0.1194 2.7477,-0.08 4.1015,0.1133 1.3539,0.1929 2.6854,0.5394 3.9688,1.0371 1.0598,0.4342 2.0773,0.9596 3.041,1.5703 0.9637,0.6107 1.8735,1.3071 2.7187,2.0801 1.1208,1.0107 2.1668,2.0976 3.1309,3.2539 0.9641,1.1562 1.8459,2.3817 2.6387,3.666 1.1,1.76 0.6203,1.5993 3.0703,6.5293 0.44,0.88 1.3909,2.7914 2.7109,5.1914 1.315,2.375 2.1164,3.6408 2.6426,4.5195 0.5263,0.8788 0.7763,1.3695 0.9863,2.1895 0.2785,1.2896 0.3485,2.5929 0.1973,3.8671 -0.1512,1.2743 -0.5232,2.5193 -1.125,3.6934"
     style="fill:none;fill-opacity:1;stroke:#000000;stroke-width:1;stroke-miterlimit:4;stroke-dasharray:none;stroke-opacity:1"
     id="path86-7-3" />
</svg>
