<svg xmlns="http://www.w3.org/2000/svg" viewBox="0 0 838.58 791.27"><defs><style>.cls-1{fill:none;stroke:#231f20;stroke-miterlimit:10;}</style></defs><g id="Layer_2" data-name="Layer 2"><g id="Districts"><path id="Landing_Cove" data-name="Landing Cove" class="cls-1" d="M1.13,158.08c2.48,1.5,2.46,4.9,2.93,7.45a14.43,14.43,0,0,0,5.6,9.4c4.09,2.91,9.34,4.49,12.3,8.81,2.46,3.59,3.26,7.23,3.77,11.46s1.44,8.73,3.83,12.22a24.65,24.65,0,0,1,3.74,8.33c.86,3.74.23,7.87,3.43,10.56,2.26,1.9,5.41,1.67,7.66,3.35,3.72,2.8-1,9.65-2.29,12.54-1,2.27-1.87,4.59-2.66,7-.25.75-.86,1.21-.6,2.12.21.76,1.44,1.29,2,1.68a8.12,8.12,0,0,1,3.58,3.95c1.58,3.89,1.82,7.9,2.7,11.94a58.76,58.76,0,0,0,4.64,13,145.92,145.92,0,0,1,6.6,15.88c1.87,5.42,3.14,10,8.44,13.14a26,26,0,0,0,7.54,3c2.31.51,4.68.48,7,1.1a68.43,68.43,0,0,1,7.14,2.84c8,3.18,16.14-.75,24.34-.69,3,0,5.08-.88,7.73-2.48a72.73,72.73,0,0,0,6.21-3.91,10,10,0,0,1,2.74-1.94c.45-.14,1,0,1.43-.14,1.32-.4,2.49-1.83,3.52-2.71,4.71-4,9.22-8.14,14-12,1.8-1.46,3.25-3.26,5-4.77,5-4.32,10.53-9.26,16.23-12.68,2.79-1.68,5.68-3.22,8.59-4.68s6.08-3,9.25-4.24c2.83-1.11,5.77-2.7,8.85-2.8,4.42-.13,8.71,2.53,12.64,4.21a53.34,53.34,0,0,0,7.5,2.43c1.79.47,4.27.6,5.75,1.83,1.87,1.55,2.43,4.29,4.47,5.86,1.72,1.31,3.65,1.7,5.08,3.37,3,3.5,2.34,9.82,3.19,14.19.77,3.92,1.89,7,4.71,10a52.35,52.35,0,0,1,4.47,4.81c3.6,4.78,3.63,10.58,6.2,15.82,2.07,4.19,6.09,5.38,9.13,8.59,3.85,4,4.63,9.75,9.17,13.36,3.75,3,7.49,3.74,12,4.33,4.85.63,8.1,0,12.7-2.2a63.12,63.12,0,0,1,8.47-3.7,14.26,14.26,0,0,1,2.22-.43,70.44,70.44,0,0,0,9.91-2.29c3.59-1.14,7.1-2.74,10.66-4A100.28,100.28,0,0,0,337,335.12a9.27,9.27,0,0,1,5-1.27c5.12-.1,10.16-1.33,15.32-.66a15.63,15.63,0,0,1,5.81,2.37c2.46,1.43,4,2.31,7,2.66a54.33,54.33,0,0,0,10.11.6,8.21,8.21,0,0,0,3.8-1.63c4.23-2.55,8.32-5.35,12.43-8.08a33.8,33.8,0,0,0,8.63-8.24c1.89-2.43,4.71-6.16,5.3-9.37.41-2.19-.8-6.54-1.61-8.54-2.34-5.73-8.51-8.45-13.76-10.95-1.91-.91-6.73-4.29-9.1-2.65-.13,1.11-5.21-.69-6.26-3.14a16.25,16.25,0,0,1-.38-9.73,8,8,0,0,1,3.26-4.87,4.17,4.17,0,0,1,2-.65c2.07-.35,4.08-1.12,6.17-1.37,2.64-.32,4.89.92,7.51.78,3.32-.17,6.75-2.33,9.65-3.77a141.42,141.42,0,0,0,14-7.92c2.94-1.92,5.95-4.44,7.05-7.94,1.49-4.7-2.38-8.1-3.92-12.22-1.89-5.09-1.66-10.7-3.68-15.74-1.32-3.3-3.07-5.32-3.33-9-.16-2.13-1.11-2.51-2.76-3.66-5-3.52-3.36-10.29-1.53-15.28,1.43-3.9,3.13-8.17,5.88-11.34,1.93-2.23,5.47-3.44,8.13-4.53,3.23-1.33,6.38-3,9.81-3.75s4.9,0,6.34,3.38a12,12,0,0,0,1.27,2.88c.95,1,2.31,1.15,3.43,1.9,2.1,1.39,3.28,3,5.86,3.63s5.16.61,7.57,1.7c1.69.76,4.26,1.5,5.59,2.83,1.16,1.14,1.51,2.65,2.22,4,1.22,2.38,2.44,3.18,4.76,4.37,1.47.75,3.19,2.44,4.78,2.71,2,.32,6.67-3.53,7.72-4.89,2-2.6,2.81-6.47,4.06-9.51,1.12-2.73,2.45-5.51,3.33-8.32a36.59,36.59,0,0,0,1.2-6.7c.39-3.06.66-7.23,2.56-9.8,2.35-3.17,7.87.49,10.12,2.2,1.55,1.19,2.56,2.55,4,3.81s3.38,1.82,4.74,3.14c2.83,2.75,3.15,6.91,6.33,9.6a34.31,34.31,0,0,0,4.16,2.74,27.84,27.84,0,0,1,3.29,2.9c1.81,1.5,4.28,1.93,6.62,2.15,4.1.39,6.11-3.28,8.24-6.53,2-3,1.36-5,.59-8.1a18.57,18.57,0,0,1-.52-3.92c0-1.51-.45-3.28-.4-4.77a36.32,36.32,0,0,1,.92-4.53c.18-1,.17-2.3.92-3.17,2.63-3.06,6.94-2.48,10.24-1.64,2.52.64,5.55.56,7.8,2,1.74,1.08,2.63,2.9,4.34,4,3,2,7.49,1.74,10.81,3.17a53.51,53.51,0,0,1,23,19.27c6.13,9.55,1,20-1.08,30-.31,1.45-.34,3-.71,4.45-1,3.91-4.25,7-6.79,10a80.5,80.5,0,0,1-7.27,8.07,18.26,18.26,0,0,0-2.67,2.53,24,24,0,0,0-3.82,7.6c-.51,2.18.07,3,1,5,2,4.28.27,8.85-1.83,12.8-4.84,9.07-14.7,18.14-25.3,13.1-2.65-1.26-5.51-3.1-8.37-3.89a8.38,8.38,0,0,1-2.68-.72c-1.41-1-1.79-3.65-2.06-5.14-.73-4.08-.25-8.67-2-12.5-1.29-2.88-3.33-4.9-5.41-7.19l-.89-1.12a1.15,1.15,0,0,0-1.88-.6c-2.5-.27-9.85,4.57-11.64,5.53-2.54,1.36-5.07,2.82-7.65,4.12-1.14.58-2.63,1-3.43,2.09-4,5.37,3,12.06,4.68,16.46,1.57,4.18-.37,8.67,1.1,12.69.59,1.61,1.41,2.63,1.54,4.41.31,4.32-1.25,7.15,2,10.79,2,2.3,4,4.53,5.21,7.44,1,2.44,1.37,5.05,2.26,7.51,1.82,5,6.74,7.81,8.1,13.08,1.19,4.6,2.28,6.66,6.63,9.3,3.78,2.3,8.39,3,12.27,5,3.53,1.9,4.83,4.73,6.87,7.91,3.27,5.12,8.49,8.11,13,11.95,5.06,4.28,7.44,10.25,8.37,16.72.62,4.25-1.15,7.76-2.95,11.47-1.93,4-3.94,7.91-6.22,11.7a52.34,52.34,0,0,1-11.85,14c-2.94,2.41-6.7,5.34-10.46,6.41-4.56,1.3-9.55,1.46-14.24,1.66-4.39.2-9.95,1.1-13.69-1.44a10.9,10.9,0,0,0-5.24-1.5,51.47,51.47,0,0,0-11.44-.06,12.26,12.26,0,0,0-4.54,1.29c-1.8,1-1.72,2.25-2.12,4.15-.85,4.14-3.52,7.59-3.21,12a56.22,56.22,0,0,1-.06,5.95c-.09,3.48,1.59,6.46,2.33,9.8,1.43,6.46-1.34,12.79-6,17.22-1,.92-1.3,1-1.7,2a2.77,2.77,0,0,1,.07,3.25c-1.07,1.41-2.15,2.81-3.22,4.21A40.67,40.67,0,0,1,460.22,499c-6.12.65-11.64.7-17.2-1.91-6.89-3.23-15.1-3.08-22.34-5.31-2.07-.64-4.56-2.14-6.84-1.45-2.81.85-5.33,4.29-7.55,6-4.63,3.62-8.56,7.95-13.39,11.33a16.05,16.05,0,0,1-12.59,2.47c-5.26-1-9.52-3.71-14.59-5.26-2.7-.83-5.58-1.27-8.23-2.21-3.57-1.25-6.45-3.27-10.15-4.28-4.37-1.19-9-1.7-13.4-2.65a32.42,32.42,0,0,0-15.11.09s-6.57,3.19-9.49,6.8c-1.57,1.94-3.16,3.72-3.41,6.35-.09.94,0,1.94,0,2.88,0,2.56-2.33,3.76-4,5.41-2,1.87-4.73,3.81-6,6.2a13.36,13.36,0,0,0-1.13,2.06,8.73,8.73,0,0,0-.06,2.23,33.21,33.21,0,0,1-.53,6.82,20.18,20.18,0,0,0-.3,4.25,4.55,4.55,0,0,0,.79,3.33,6.64,6.64,0,0,0,1.88,1.25c1.2.63,2.3.5,3.49.9,2.17.73,4.25,3.28,5.08,5.31.72,1.76.1,2.87-.32,4.61-.26,1.09-1.19,2.61-1,3.77.13.73.52.69,1,1.2a2,2,0,0,1,.74,1.79,10.51,10.51,0,0,0,.79,4c2,4.57,3.82,10.87,8.52,13.29a9.79,9.79,0,0,0,5.07.81,30.82,30.82,0,0,0,6.77-.84c1.67-.47,3.44-1,5.07-1.64.65-.25.89-.51,1.46-.18,1.14.64,1.29,2.92,1.83,4s.78,1.27,2,1.31c3.59.13,7.34-2,10.51-3.42,2.74-1.22,5.45-2.5,8.19-3.7a30.06,30.06,0,0,1,5.14-2.08,33.26,33.26,0,0,1,7.05-.45c4.32-.06,8.89-1.39,13.19-.82a3.4,3.4,0,0,1,3.07,2.08c1.75,3.29,1.59,7.32,3.25,10.72a18.52,18.52,0,0,0,2.61,3.89c1.4,1.63,3.34,2.52,4.82,4,3.59,3.66,1.1,9.63,0,13.8-.62,2.33-2.23,5.28,1.18,5.75,1.86.27,3.78.42,5.12,2,.84,1,.95,1.9,2.12,2.69,2.95,2,7.24,1.19,10.49.82,2.44-.28,5.12-1,7.6-.92,1.76,0,1.77.47,2.59,1.73a3,3,0,0,0,1.91,1.21c2.37.54,5.17-.06,7.59,0,3.86.07,4,2.44,5.9,5.13,1.06,1.51,2.56,2.44,3.84,3.72a16.92,16.92,0,0,1,4,6.5c.4,1.15.72,2.32,1.17,3.45a11.64,11.64,0,0,0,4.85,5.53,18.88,18.88,0,0,1,3.68,2.62c1.31,1.49,1.55,3.56,2.6,5.2,2.43,3.8,6.87,2.19,10.55,3.14.5,2.07-1.83,3.9-2.86,5.51-.57.89-1.33,1.8-1.83,2.71s-.85,2.31-1.34,3.41c-1.51,3.38-3.89,6.35-5.31,9.74-.78,1.86-.57,2.69.74,4.09,2,2.12,4,4.21,4.37,7.27.39,2.87-.39,5.77.05,8.62.58,3.69,3.53,5.84,6.37,7.93,4.73,3.49,10.14,5.61,15.07,8.76a14.29,14.29,0,0,1,5.48,7,18.29,18.29,0,0,0,1.5,3.73,6.35,6.35,0,0,0,3.41,2.15,34.35,34.35,0,0,0,7.57,1.2c2.25.23,5,.1,7.12.92,2.83,1.11,4.89,3.36,7.58,4.71,4.78,2.41,10.08,1.74,15.21,1.07a120,120,0,0,0,22.72-5.64c5.08-1.74,9.92-5.22,12.26-10.19a5.64,5.64,0,0,0,.63-4c-.75-3.33-2.62-6.4-3.46-9.73-.74-2.93-1-6-1.49-9-.29-1.86-1.12-4.24.15-5.84,2.35-3,7.33-4.32,10.86-5.27,1.66-.44,4.17-1.22,5.79-.25s2.62,2.88,3.63,4.56c2.16,3.62,5.12,6,8.47,8.41,2.7,2,4.54,4.05,4.92,7.46a26,26,0,0,0,1.51,6.15c.39,1.1.74,2.22,1.06,3.34.72,2.54.88,5.76,2.62,7.91,2.52,3.12,6.33,4.64,8,8.52,1.27,3,1,6.43,2.65,9.36,1.22,2.13,4.13,3.79,6.22,5a29.54,29.54,0,0,0,7.69,3.32c6.57,1.43,12.58-.62,18.15-4.23,4.73-3.07,10.41-7.28,12.34-12.84.66-1.91.71-3.88,2.09-5.43a12.73,12.73,0,0,1,7.75-3.64c2.69-.15,4.78,2,6.59,3.67,3.16,2.91,6.22,6.41,6.44,10.86.35,6.78-3.43,14.1-.46,20.76,2.46,5.53,7.17,9.38,11.49,13.39,1.61,1.51,3.15,3.2,4.86,4.61s3.82,2.58,5.58,4.06a38.32,38.32,0,0,0,3.85,3.64c1,.67,1.92,1.33,2.88,2a2.15,2.15,0,0,1,1.21,2,15.48,15.48,0,0,0,0,2.36,7.11,7.11,0,0,0,.42,1.78c.38.65.69.44,1.38.15,1-.41,2-.79,2.95-1.2.73-.31,1.57-.81,2.36-.46.45.2.71.75,1.19,1,.85.36,2.23-.1,3.07-.29a19.44,19.44,0,0,1,4.54-.77c1.37,0,2.22-.87,3.28-1.72s1.91-1.5,2.83-2.29a39.5,39.5,0,0,0,2.8-2.84c1.56-1.62,2.89-3.42,4.49-5a40.91,40.91,0,0,1,5.68-5.09,9.15,9.15,0,0,0,2.31-1.57c.81-1,0-.94-.73-1.51a2.53,2.53,0,0,1-.81-1.05,6.78,6.78,0,0,1,.24-2.45,13.29,13.29,0,0,1,1.25-3.41c.83-1.7,1.94-4.06,3.56-5.18.9-.63,2-.33,3.09-.35,1.94-.06,3.84-.56,5.79-.53a10.06,10.06,0,0,0,3-.49c2.87-.86,5.78-.66,8.71-1.09,1.63-.24,3.28-.58,4.86.05a7.81,7.81,0,0,0,1.85.75,9.33,9.33,0,0,0,3.13-.47c1.29-.28,2.5-.58,3.76-1a6.74,6.74,0,0,1,2.12-.44,6,6,0,0,0,1.53,0c.94-.19,1.88-.36,2.82-.58,2-.49,3.64-.72,5.56.24.35.18.67.4,1,.58a7.21,7.21,0,0,0,4.47.47c1.85-.24,4.33-1.39,6.16-.55,3.08,1.43,6.5-.59,9.48-1.56,2.46-.8,4.51-1.39,6.77.06a3.85,3.85,0,0,0,3.54.6c3.13-.58,6-2,9.23-2.12L704.18,330.53,624.5,7.4,576.2.52a48.64,48.64,0,0,1-14.59,7.3c-9.14,2.76-12.22.64-19.6,3.84-4.43,1.93-3.67,2.85-15,11.53-11,8.46-12.11,7.88-14.6,11.52C507.36,42.17,511,46,505.9,52s-13.61,7.53-16.9,8.07c-4.91.8-6-.13-11.91,0-10.92.23-12.56,3.47-23.43,5-14.51,2-15.58-3.16-23.82.39-7.56,3.25-7.87,8.15-17.29,11.14-5.46,1.73-7.17.66-10.75,3.07-3.88,2.6-3.29,4.81-8.84,12.68-3.57,5-5.81,8.23-10,11.14-3.87,2.69-5.12,2.17-8.07,5-3.94,3.78-2.93,5.89-6.53,8.84-2.09,1.72-2.69,1.21-10,4.22a94.44,94.44,0,0,0-9.22,4.23c-7.18,3.84-7,5.37-11.53,6.92-5.54,1.88-6.68-.11-10.37,1.92-3.13,1.71-4.82,4.88-8.07,11.14-4.52,8.72-3.31,9.36-5.76,11.91-5.74,6-15.28,5.48-17.29,5.37-4.94-.25-5-1.63-11.91-2.69-8.62-1.31-9.1.74-15.75-.38-9.86-1.66-10.88-6.53-19.21-6.53-4.29,0-3.76,1.3-11.52,2.69-9.93,1.78-12-.12-19.21,1.54-7.94,1.83-7,4.52-15,6.91-9.27,2.79-17.51,1.25-24.2,0C174,163.55,169,161.71,159,158c-13.53-5-13.69-6-19.21-7a52.14,52.14,0,0,0-21.52.84c-8.34,2.17-8.84,4.69-18.82,7.3-4.76,1.25-9.33,2.45-15.34,2.09C78.73,161,74,159.21,64.5,155.72c-8.92-3.27-8.81-3.91-12.68-4.61-2.06-.37-4.39-.6-16.9.39-8.35.66-12.53,1-15.75,1.54A89,89,0,0,0,1.13,158.08Z"/></g></g></svg>