<?xml version="1.0" encoding="utf-8"?>
<!-- Generator: Adobe Illustrator 25.4.4, SVG Export Plug-In . SVG Version: 6.00 Build 0)  -->
<svg version="1.1" id="svg13" xmlns="http://www.w3.org/2000/svg" xmlns:xlink="http://www.w3.org/1999/xlink" x="0px" y="0px"
	 viewBox="0 0 1060.4 656.8" style="enable-background:new 0 0 1060.4 656.8;" xml:space="preserve">
<style type="text/css">
	.st0{fill:none;stroke:#231F20;stroke-miterlimit:10;}
	.st1{fill:none;stroke:#231F20;}
</style>
<path id="Elysian_Katonia_1" class="st0" d="M888.6,438.7c-0.2-1.3-0.7-2.6-1.4-3.8c-1.4-1.7-3.3-2.9-4.8-4.5
	c-2.8-2.8-7.3-2.9-11-3.3c-5.8-0.3-10.7-4.2-12.6-9.6c-0.8-2.6-1-5.3-0.6-7.9c0.3-1.6,0.4-3.1,0.3-4.7c-0.1-0.7-0.5-1.2-0.4-1.9
	c0.2-2.5,1.3-4.8,2-7.1s1.9-6.3,0.6-8.8c-0.7-0.9-1.4-1.8-2.2-2.7c-1.1-1.6-2.7-2.3-4-3.6c-0.6-0.5-1.2-1.1-1.7-1.8
	c-0.5-1-0.9-2.1-0.9-3.3c-0.3-2-0.3-4-0.7-6c-0.2-0.8-0.4-1.6-0.5-2.4c0-1.1,0.8-2.4,1.2-3.3c1-2,2.1-4,3.3-5.9
	c0.4-0.8,1.3-1.6,1.5-2.4c0.1-0.7,0-1.3,0.1-2c0.2-1,0.4-2.1,0.5-3.2c0.1-1.6,0.1-3.7-1-5c-0.9-0.8-2-1.3-3.2-1.5
	c-1.6-0.5-3.8-1.3-3.8-3.3c0-1,0.4-1.9,1-2.6c0.7-1.2,1.6-2.3,2.4-3.3c1.1-1.2,2.2-2.2,3.1-3.5c0.6-1,1.4-1.9,2.2-2.7
	c1-0.9,1.9-0.4,3-0.6c1.4-0.3,2.8-0.9,4.1-1.6c0.9-0.6,1.6-1.4,2.5-1.9s2.1-1.3,3.1-2c1.6-1.1,2.8-2.6,3.5-4.4
	c0.6-1.2,1.8-3.5,1.1-4.8c-0.9-1.5-2.3-2.2-2.8-4c-0.7-2.4-0.6-4.9,0.4-7.2c0.7-1.7,2-3.1,3.5-4.2c1.4-1.1,2.9-2,4.5-2.9
	c0.6-0.4,1.3-0.7,2-0.7c0.7,0,1.5,0,2.2,0c3.6-0.5,7-1.6,10.2-3.2c1.7-0.8,3.2-1.4,3.4-3.4c0.2-1,0.3-2,0.4-3
	c-0.1-1.1-0.2-2.1-0.4-3.2c-0.3-1-0.6-2-1.2-2.9c-0.4-0.7-1.4-1.4-1.5-2.2s0.7-1.7,1.1-2.2c1-1.2,2.1-2.2,3.4-3.2
	c3.4-2.7,7.5-4.5,11.8-5.1c1.9-0.3,4.6-0.1,7.5-1.1c1.9-0.8,3.8-1.4,5.8-1.9c1.8-0.3,3.7-0.5,5.6-0.5c2.2,0,4.5,0.5,6.6,0.3
	c1.8-0.2,3.6-0.6,5.4-1c3.2-0.6,6.3-1.9,9.5-2.8c1-0.3,1.9-0.5,2.9-0.8c0.7-0.4,1.4-0.6,2.1-0.8c0.6,0,1,0.3,1.5,0.2
	c2.2-0.4,4.4-1,6.6-1.7c3.1-1,5.7-2.8,8.5-4.4c1.3-0.9,2.9-1.4,4.5-1.5c1.5,0,3.1,0.9,4.6,1.5c2.4,1,4.8,1.8,7.2,2.4
	c2.4,0.4,4.9,0.3,7.3-0.2c1.9-0.3,3.7-0.7,5.5-1.4c1.3-0.6,2.6-1.4,3.8-2.3c2.4-1.7,4.6-3.7,6.5-5.9c1.7-1.9,3.6-3.6,5.6-5
	c3.4-2.3,7.1-4.1,11-5.3c3.6-1.1,7.4-1.1,11.1-0.1c4,1.2,7.8,3.1,11.2,5.5c2.5,2,4.8,4.3,6.9,6.7L889,440c0-0.1-0.1-0.2-0.1-0.4
	C888.8,439.3,888.7,439,888.6,438.7L888.6,438.7z"/>
<path id="Elysian_Katonia_2" class="st0" d="M398.1,30.5c-2,0.9-3.5,2.7-4.1,4.8c-1,2.5-1.6,5.1-1.8,7.7c0,3.4,2.6,4.3,5.5,4.7
	c1.7,0.2,6.4-0.1,7,2.2c0.3,0.9-0.4,2-0.6,2.9c-0.4,1.3-0.8,2.5-1.4,3.7c-1.8,4.1-4.2,7.8-8.1,10.2c-1.6,1-3.4,1.6-5.2,1.7
	c-3.9,0.2-7.9,0.8-11.8,0.4c-3.8-0.4-7.1-2.9-8.4-6.6c-0.9-2.2-0.9-5.5-3.3-6.6c-2.2-1-4.4-0.4-6.7-0.4c-2.1,0.1-4.2-0.4-6-1.4
	c-2.5-1.5-5.3-3.7-8.2-4.3c-1.8-0.4-5-1.1-6.8-0.4c-0.5,1.2,1.2,3.6,1.5,4.3c1.5,2.8,3,5.6,4.5,8.4c2.6,4.9,4.7,10,7.3,14.9
	c0.5,1,2.8,3.1,2.3,4.5c-0.4,1.1-2.3,2.1-3.1,2.8c-1.4,1.3-3,2.5-4.6,3.6c-1.2,0.9-2.6,1.7-4,2.2c-0.8,0.2-1.5,0-2.3,0.2
	c-1.1,0.3-2.1,0.6-3.1,1c-1,0.3-1.9,0.5-2.9,0.7c-0.8,0.2-1.4,0.7-2.2,1c-2.6,0.6-5.4,0.6-8-0.2c-1-0.3-2-0.6-3-0.9
	c-0.5-0.2-1.5-0.8-2-0.8c-0.9,0.1-1.9,1.3-2.5,1.9c-1.5,1.5-2.7,3.2-3.7,5c-1.6,2.8-2.5,5.8-2.7,9c0,1.6,0.5,2.9,0.7,4.4
	c0.2,2.7-1.4,5.9-2.8,8.1c-0.7,1.1-1.2,2.4-1.9,3.5c-1.5,2-3.5,3.7-5.8,4.9c-1.4,0.8-3.8,2.8-5.6,2.1c-0.2-0.6,0.1-1.2,0.2-1.8
	c-1-0.5-3.2,1.2-3.7,1.6c-2.5,1.4-5,2.9-7.5,4.2c-2,1.1-4,1.9-6.1,2.6c-3.5,1-6.8,2.3-10,4c-4.9,2.5-9.8,4.9-14.7,7.4
	c-1.6,0.8-4.5,1.7-5.5,3.4c-0.5,0.9,0,1.9,0.2,2.8c0.5,1.7,0.7,3.5,0.7,5.3c0,4.2-0.9,8.3-0.8,12.4c0.1,3.6,2.4,3.9,4.9,5.7
	c1.9,1.4,4.1,3.3,4.8,5.7c0.6,2.2,1.4,2.9,3.8,3.4c1.8,0.4,3.6,0.6,5.4,1.1c1,0.3,2,0.3,3,0.1c3.4-0.6,6.8-0.9,10.2-1.6
	c2.5-0.5,5-0.8,7.5-0.9c1.7,0,3.4-0.2,5.1-0.5c0.7-0.1,2.2-0.7,2.8-0.1c1,1-0.9,3.6-1.2,4.1c-1.3,2.2-3.2,5.3-5.2,7
	c-1.6,1.3-4.7,1.8-6.6,2.1c-1.5,0.2-1.9-0.4-3.1-0.8c-2.4-0.9-7.2,1.8-8.9,2.5c-5.3,2.2-10.5,4.7-15.4,7.6c-2.8,1.7-5.6,3.4-8.2,5.4
	c-2.8,2.1-6.4,4.5-7.6,8.1c-1.3,4.2,2.1,8.2,3.6,11.8c2.3,5.4,1.7,11.2,1.7,16.9c0.1,1.4,0.1,2.8,0,4.2c-0.3,1.9-2.2,3.8-3.4,5.1
	c-1.6,1.9-3.2,3.6-5,5.4l-3.5,3.4c-0.4,0.2-0.6,0.5-0.8,0.9c-0.3,1.8,1.9,4.3,3,5.2c1.9,1.5,4.7,2,7,2.2c1.4,0,2.7,0.2,4,0.6
	c1.1,0.4,2,1.2,3.1,1.7c1.6,0.5,3.3,0.6,4.9,0.4c1.6-0.1,3.5-0.7,5.1-0.4c2.2,0.4,3,2.1,3.6,4c0.5,1.7,1.5,3.1,1.8,4.9
	c0.2,1.4,0.3,2.6,0.6,4c0.6,2.6-0.6,5.3-1.2,7.8c-0.5,1.8-1,3.5-1.4,5.3c-0.3,1.1-0.5,2.3-0.5,3.5c0.2,1.5,0.5,3,1,4.5
	c0.3,1.2,0.4,3,1,4c0.8,1.2,2,1.4,3.5,0.6c3.7-1.1,7.4-2.4,11.1-3.7c3.3-1.1,6.7-2.3,10.1-3.2c1.6-0.6,3.2-0.9,4.9-0.9
	c1.3,0.1,2.7-0.2,3.8-0.9c3-1.7,5.4-6.2,7.3-9c2.4-3.9,4.6-7.9,6.6-12c1.2-2.1,2-4.5,2.1-7c-0.1-2.1-1.5-3.4-2.3-5.3
	c-1-1.9-1.2-4.1-0.5-6.1c1-5.4,2.6-10.7,4.6-15.9c2-5.6,4.5-10.9,6.9-16.3c0.6-1.4,1-3.3,2.6-3.9l2.1-0.2c2.4,0,4.9,0,7.3,0.2
	c2.6,0.3,6.9,0.8,8.9,3s2.3,5.9,2.5,8.7c0.2,2.1,0,4.1,1.3,5.9s2.2,2.7,2.7,5c0.9,4-0.8,7.9,0.5,11.7c2,0.3,4,0.2,6-0.4
	c2.2-0.5,4.5-1.6,6.8-1.8c1.1-0.1,2.3,0.1,3.3,0.7c2.5,1.2,5.6,0.2,8.2-0.5c4.1-1,8.1-2.1,12.1-3c2.4-0.5,5-1.3,7.2-0.1
	c2.9,1.5,4.3,5.3,6.1,8c2.9,4.3,0.3,9.6-1.3,14c-0.9,2.5-2.6,5.3-3,8c-0.4,1.3-0.1,2.6,0.8,3.6c0.7,0.7,1.8,1.1,2.5,1.7
	s1.3,1.7,2,2.2c1.8,1.2,4-0.1,5.8-0.8l7.3-4.4c4.6-3,9-6.2,13.2-9.5c6.8-5.2,13.4-10.6,19.7-16.4c0.6-0.6,1.6-1.8,2.5-2.1
	s1.6,0.1,2.5,0c3.5-0.5,6.8-2.3,9.9-4c4.1-2.3,8-5,11.6-8.1c3.8-3.4,7.9-7.2,10.1-11.8c1.3-2.9,2.4-5.8,3.4-8.9l1.4-4.8l0.3-4
	c-0.5-2.5-2.4-3.8-4.3-5.2c-2.2-1.7-4.1-3.2-5.3-5.8c-1.4-3.1-1.4-7-1.4-10.3c0-2.2,0.4-4.6-0.7-6.5c-1.7-3.1-7.9-0.2-8.4-3.2
	c-0.6-3.9,6-4.8,9.4-6.8c5.4-3.2,11-5.8,16.9-7.9c5.3-1.9,13-5.2,18-1c3,2.5,7.3,1.7,10.2,5c2.2,2.5,3.5,5.7,3.5,9
	c0.1,2.9-0.8,5.7-0.3,8.6c2,0.7,3.9,0.4,6,0.2c2.7-0.4,5.4-0.1,7.9,0.7c2.5,1,5,1.9,7.6,2.6c3.7,0.8,7.4,0.6,11.2,0.9
	c2.2,0.2,4.6,0.3,6.4,1.8c1.6,1.3,1.7,4.1,2.2,5.9c0.8,2.6,2.5,3.5,4.9,4.2l3.9,0.8c2.4-0.1,3.8,0.9,4.2,2.9
	c0.9,1.2,0.9,2.9-0.2,4.1c-0.7,2.7-1.9,5.2-3.4,7.5c-1,1.9-2,3.8-2.9,5.7c-0.7,1.5-1.1,3-1.7,4.6c-1.5,3.3-3.5,6.3-5.9,9
	c-2.5,3.2-5.4,6.1-8.7,8.6c-2.2,1.6-4.4,3.1-6.7,4.6c-0.7,0.5-5.1,4.1-5.8,2.6c-0.4-0.8,0.4-1.7,0.6-2.5c-0.9-0.9-2.2-1.1-3.3-0.6
	c-2.7,0.2-5.3,0.6-7.9,1.4c-4.1,0.9-8.1,2-12.2,3.1c-6,1.7-11.9,3.8-17.8,5.8c-3.6,1.4-7.3,2.5-11.1,3.2c-1.7,0.2-3.4,0.2-5.2,0.2
	c-1.4,0-2,0.8-3.1,1.7c-2.6,2.6-5,5.4-7.2,8.4l-2.1,2.7c-1,0.7-1.4,2-0.9,3.1c5.5,1.6,11.6,0.1,16.9,2.8c1.4,0.8,2.7,1.9,3.7,3.1
	c1.5,1.6,3.1,2,5.3,1.9c2.3,0,4.6-0.2,6.8-0.7h3.7c1.8,0.7,2.2,2,2.6,3.7c0.4,1.8,1.2,3.5,2.3,4.9c1.9,2,4.8,2.8,6.7,4.9
	c1.4,1.5,2.1,3.5,2,5.6c0,1.6-0.3,3.1,1,4.1c2.3,1.8,5.5,1.2,8,2.3l3.3,1.8l2.2,3.6c1.7,3.8,1.8,8.4,2.5,12.4c0.3,1,0.4,2,0.4,3
	c0,0.6-0.5,1.2-0.1,1.7c6,1.4,12.4,0.6,18.4,1.4c2.5,0.2,5,0.8,7.4,1.8c0.8,0.8,1.6,2,2.8,2c4.9,0.2,8.2-5.1,11.4-9
	c6.3-6.2,12.4-12.7,18.3-19.4c3-2.3,4.9-5.8,5.2-9.6c-0.9-1.6-2-3-3.3-4.3c0.2-2.5,1.8-4.7,4.1-5.7c3.5-3.3,7.6-5.8,12.1-7.5
	c4.2-2.1,8.8-3.4,13.5-3.6c3.3-0.9,6.7-0.6,9.8,0.9l3.2,3.8c1.2,3.3,2.2,6.6,3.1,9.9l1.8,3.4c1.3,1.2,3.2,2,3.8,3.6
	s-0.9,3.2-2.2,4.4c-1.3,1.7-3.8,3-4,5.1c0,0.5,0.3,1.1,0.7,1.4c1.4,0.8,3.2-0.2,4.8-0.2c5.9-0.6,11.8-1.9,17.4-3.7
	c3.4-1.1,6.8-2.4,10-4c1-0.5,5-1.5,4.4-2.8c-0.3-0.6-2.2-0.9-2.4-1.6l0.2-2.5c0.9-2.3,1.8-4.5,2.7-6.8c1-2.6,2-5.2,1.6-8
	c-0.4-2.4-1.7-4.4-2.8-6.6c-1.8-3.5-1.9-6.8,0.5-10.2c1.4-1.9,3.7-4.7,5.9-5.8c1.5-0.6,3.1-0.8,4.8-0.7c3.3-0.1,6.6-0.6,9.9-0.6
	c2.6-0.1,4.9,0.3,7.3-0.8c3.8-1.7,7.2-4.6,10.4-7.3s7.5-5.9,9.1-10c1.1-1.3,1-2.4-0.2-3.4c-0.6-1.2-1.6-2.2-2.9-2.8
	c-1.8-1-3.3-2.5-4.4-4.3l-0.3-4l1-4.1l0.3-3.4l-2.1-2.2l-4.8-1.6l-5.4-1.7c-2.9-0.9-4.3-2.8-4.4-5.5c-0.7-1.8-0.8-3.9-0.1-5.8
	c0.2-2.2,0.6-4.3,1.3-6.4c0.9-3.5,2.1-6.9,3.6-10.2c1-2.1,2.3-4,3.8-5.7c0.7-0.8,1.7-2.4,3-2.3c0.6,0,0.9,0.6,1.4,0.8
	c1.1,0.7,2.2,1.3,3.4,1.9c2.1,1.1,4.1,2.2,6,3.5c1,1.4,2.1,1.7,3.2,0.8c1.3-0.3,2.2-1.3,2.4-2.6c2.2-3.8,3.6-7.9,4.1-12.3
	c0.6-2.1,0.7-4.4,0.2-6.6c0.3-1.7-0.3-3.5-1.6-4.7c-0.9-1.8-2.6-3-4.6-3.4l-2.4-1c-1.2-1.1-0.1-2.5,0.5-3.6c1.1-2,2-4.1,2.7-6.3
	c0.7-2.5,1.1-5.1,2-7.6c2.1-6,7.2-10.7,10.7-15.9c-0.9-1-3.1,0.6-4.1,1l-5.2,2.2l-4.7,1.1l-2.3-2l0.9-6l2.8-7.7l2.1-7l-0.7-2.9
	c-0.4-3.6-2.5-6.1-6.3-7.5c-4-2.6-9.2-4.2-12.7-7.6c-2.5-2.4-5-5-5.2-8.8l0.2-4c0.5-1.8,0-3-1.5-3.6c-2.3-1.7-5-2.4-7.5-3.7l-2.1-1
	c-2-1.4-2.6-3-1.8-5c0.8-5.1,4.8-8.9,3.5-14.4c-1.5-6.3,3.4-11.1,7.4-15.4c3.6-3.8,7.9-7,11.9-10.4c3-2.5,5.9-5.5,9.1-7.7
	c1.9-1.3,4.6-2.4,2.2-5l-2.3-1.3c-3.2-1.9-6.6-3.4-10.2-4.4c-4.5-1.7-9-3.3-13.6-4.9c-1.4-0.5-2.8-0.9-4.1-1.5
	c-1.7-0.7-3.5-1.1-5.3-0.9c-4.4,0.1-8.8,0.5-13.2,1.2c-3.7,0.4-7.4,0.5-11.1,0.9s-7.5,3.7-9,7.2c-0.9,2.1,0,4.1,0.2,6.2
	c0.4,3.9-1.2,6.6-3.5,9.5l-5.2,4l-5.3,2.5c-2.6,0.7-5.8,1.1-8-1.1c-1.9-2.1-3.1-4.7-3.5-7.5c-0.4-2.7,0.1-5.8-1-8.3
	c-0.7-1.7-2.2-2.7-3.5-4c-1.8-1.7-2.6-4-3.6-6.2l-1-2.3c-1.8-3.3-4.9-5.8-8.5-6.8L618,1.2c-3.1-1.2-6.6-0.9-9.4,1l-2.3,1.1
	c-1.4,2.1-1.2,3.8,0.6,5.2c1.6,2.1,3.5,3.1,5.7,4.5c2,1.3,3.7,1.8,4.2,4.1c-0.3,1.3-0.7,2.5-1.1,3.7c-0.4,1.2-0.8,2.4-1.1,3.6
	c-1.7,3.2-5.1,5.6-8,7.5c-5,3.4-10.3,6.2-15.9,8.4c-2.2,0.8-5.2,2.4-7.6,1.5c-1.6-0.6-3.3-1.6-4.8-2.3c-2.5-0.9-4.9-2.1-7.2-3.4
	c-3.3-2-6.1-4.8-8.1-8.1c-2.1-3.2-4-6.5-6.2-9.7s-4.7-6.1-7.1-9.2c-0.8-1-1.7-2.6-2.6-3.6c-1.1-1.2-2.2-1.1-3.8-1
	c-2.9,0.1-7.5,2.4-10,4.1c-2.3,1.3-3.8,3.6-4,6.3c-0.2,1.7,1.1,3.6,1.6,5.3c0.4,1.4,0.7,2.9,1,4.4c0.2,1.2,0.6,2.3,0.8,3.5
	c0.2,1.4,0,2.8-0.7,4.1c-2.5,7.1-6.5,13.7-11.6,19.2c-5,5.1-13.7,9.9-20.9,6.5l-2-0.9c-1.3-1.1-2.3-2.5-3-4c-0.2-0.4-1-2.1-1.5-2.4
	s-1.1,0-1.7,0c-2.9-0.2-5.4-6.3-5.8-7.8l-0.4-3.7c-0.7-3.5-0.8-7.2-0.2-10.7l-1.3-4.7c-2.1-1.5-4.3-2.9-6.5-4.2l-2.3-1.3
	c-0.9-2.1-3-3.5-5.3-3.7c-3.6-1.3-7.1-0.7-10.6,1.9l-8.4,4.4l-4.9,3.9l-1.3,3c0.2,2,2.4,3.2,2.9,5c0.7,2.4-0.3,4.6-1.2,6.8
	s-1.7,5-3.8,6.2c-0.8,0.5-2.1,0.2-3,0c-2.6-0.7-5.1-1.8-7.4-3.4c-2.6-1.7-4.6-4-6.9-6.1c-1.7-1.8-3.7-3.3-5.9-4.5
	c-2.9-1.4-6.6-1.4-9.7-1.8C409.4,29.7,401,28.9,398.1,30.5L398.1,30.5z"/>
<path id="Elysian_Katonia_3" class="st0" d="M143.4,450.7c-2.4,3.5-2.6,8.3-2.6,12.4c0,3.1-2.7,3.2-5.2,3.4c-4.1,0.4-7.1-1-10.6-3.2
	c-6.4-4.1-13.7-0.2-20.7,0c-3.1-0.1-6.2,0.1-9.2,0.4c-0.8,0.1-1.2,0-1.8,0.7c-0.2,0.4-0.4,0.9-0.5,1.4c-0.8,1.9-1.8,3.7-3,5.3
	c-2.1,3.2-4.5,6.2-7.2,8.8c-0.9,1-2,1.9-3.1,2.7c-0.9,0.5-1.4,0.3-2.4,0c-1.5-0.5-3.1-0.8-4.8-1c-4.1-0.5-8.2,0.2-12.1-1.2
	c-3.3-1.1-5.8-3.9-9.1-4.7c-4.1-1-8.3-0.7-12.5-1.5c-3.3-0.6-6.3-2.9-9.5-3.8s-6.4,0-9.6,0.9c-2.5,0.7-4.9,1.6-7.2,2.7
	c-1.5,0.7-1.9,1.3-2.5,2.8c-1.6,4-3.2,8-4.8,12c-1.3,3.4-2.3,7-3.4,10.5c-0.5,1.5-0.8,3.1-1,4.6c0.2,3.4,0.7,6.8,1.4,10.1
	c1,3.5,1,7.9,2.9,11.1c1.3,2.1,4.2,2.7,6.3,3.8c1.1,0.6,2.1,1.5,2.8,2.6c0.3,0.5,0.7,0.9,1.2,1.3c0.6,0.4,1,0.2,1.2,1
	c0.5,1.5-2.8,4.5-3.5,5.2c-1.7,1.7-3.4,3.3-5.2,4.8c-0.7,0.5-1.3,1-1.8,1.7c-0.6,1-0.7,3.2-0.8,4.3c-0.4,2.2-0.6,4.5-0.8,6.8
	c-0.2,2-0.4,4.5,0.4,6.5c1.8,4.6,7.4,6.4,11.8,7.3c4.9,1.1,10.4,1.6,15-0.9c2.1-1.1,4-2.6,6-3.9c1.4-0.8,2.9-1.4,4.4-1.8
	c1.9-0.7,2.7,0,4,1.4c0.4,0.5,0.8,0.9,1.3,1.3c0.8,0.3,1.6,0.6,2.4,0.8c0.6,0.3,1.1,0.7,1.4,1.3c0.4,0.9,0.4,2,0,2.9
	c-0.3,1.6-0.6,3.2-0.9,4.8c-0.6,2.8-0.9,5.8-1.9,8.5c-0.5,1.4-1.2,2.7-1.7,4.1c-0.4,1-1.2,2.1-1.1,3.3c1.2,1.2,4.2,0.4,5.7,0.5
	c1.9,0,5.5-0.1,7,1.3s0.7,4.5,0.2,6.4c-0.8,2.4-1.7,4.8-2.7,7.1c0.8,0.6,1.8,0.2,2.7,0.7c2.5,1.2,2.4,5.9,2.4,8
	c0.1,5.8-0.8,11.8-1.2,17.6c-0.2,3.1-0.5,6.2-0.8,9.3c-0.1,1.3,0,2.7-0.2,4s-0.7,2.8-0.3,4c0.5,1.5,2.2,1.5,3.5,1.6
	c3.1,0.3,5.9-0.3,8.7,1.4c1.6,0.9,2.4,1.8,4.3,1.9c2.4,0,4.9-0.5,7.1-1.5c2.8-1.2,5.5-2,7.3-4.4c3.6-4.6,6.5-9.8,9.7-14.6
	c2.2-3.3,4.7-6.7,6.6-10.2c0.5-1.3,1.4-2.3,2.6-3.1c4.2-2.9,8.7-5.5,13.3-7.6c1.3-0.6,2.9-1.7,4.4-1c0.9,0.6,1.8,1.3,2.6,2
	c1.4,1,2.9,1.5,4.2,2.5c1.6,1.5,3,3.1,4.2,4.9c0.8,1,2.2,2.7,3.5,3.1c2,0.6,4.9-1.4,6.5-2.2c1.6-0.6,3.2-1.4,4.7-2.3
	c2.3-1.7,4.4-3.7,6.2-6l2.5-3.1c1.1-1.4,2.2-2.9,3.2-4.4c0.8-2.1-0.8-2.9-2.1-4.2c-2.4-2.4-4.6-5.2-5.3-8.7
	c-0.5-2.8-0.6-5.6-0.5-8.4c0-2.1-0.3-5,0.3-7.1c0.4-1.7,2.1-1.6,3.6-1.8c2.3-0.2,5.6-0.6,7.8,0c2.9,0.8,3.4,2.8,4.5,5.2
	c0.8,1.7,3,1.4,4.6,1.7l3,0.6c1.8,0.6,3.5,1.6,4.9,2.9c2.7,1.7,4.8,1,7.6-0.4c3.4-1.6,6.5-3.8,9.1-6.5c1.7-1.7,3.1-3.3,1.7-5.7
	l-2.4-1.8c-2.3-1.4-4.5-3-6.6-4.8c-2.2-2.3-3.5-5.3-3.6-8.5c-0.2-2-0.2-4,0-6c0.6-3.6,4.5-7.6,6.9-10c2.5-2.6,5.3-4.9,8.4-6.8
	c1.2-0.8,2.7-1.3,4.1-1.4c3.2-0.4,6.4-0.8,9.5-1.2c3.5-0.4,6.8-0.9,10.1,0.5c2.3,0.8,4.5,1.9,6.5,3.2c3.1,2.3,4.4,6.1,5.8,9.5
	c0.8,1.9,1.8,3.6,2.5,5.5c0.9,2.2,0.7,4.4,1.3,6.6c1.2,4.3,4.5,4.2,8.4,3.6c4.1-0.7,8.2-1.7,12.1-3c1.8-0.6,3.4-1.7,4.5-3.2
	c1.9-2.2,3.4-4.6,4.5-7.3c0.4-0.7,0.4-1.6-0.1-2.3c-0.8-0.9-1.3-1.9-1.7-3.1c-0.5-1.8-0.6-3.7-0.5-5.6c0-2.2,1-5.4,0-7.5
	c-0.9-2-3.4-3.1-4.8-4.7c-1.9-2.2-3-5-2.9-7.9c0-3.2,1.4-6.7,0.9-9.9l-0.6-1.9c-2.2-1.4-4.7-2.3-7.3-2.6c-4.2-1.1-9.3-1.7-12.9-4.4
	c-4.2-3.1-6.2-8.8-7.3-13.6c-1.4-6.3-1.1-12.3,1.7-18.2c1.8-3.6,4.2-6.9,7-9.8c1.3-1.4,2.3-2,2.5-4c0.3-2.8-0.6-5.8-3-7.5
	c-2.9-1.3-6.1-1.6-9.1-0.8c-3.2,0.6-6.3,1.5-9.3,2.7c-2.1,0.7-4,1.6-5.7,2.9c-1.2,1.2-2.2,2.5-3,4c-1.3,2-2.6,4-3.8,6.1
	c-0.6,1.3-1.3,2.5-2,3.6c-1.3,1.4-2.8,2.6-4.6,3.4c-3.3,1.9-6.8,3.4-10.4,4.6c-3.6,1.1-6.7,1.8-10.3,0.4c-3.3-1.5-6.3-3.5-9.1-5.9
	c-2.9-2.4-5.4-5.4-7.9-8.2c-1.7-1.8-3-3.6-5.2-4.8s-4.6-2.8-7-4C157.9,451.5,146.4,446.4,143.4,450.7L143.4,450.7z"/>
<path id="Elysian_Katonia_4" class="st0" d="M545.5,452.8c-4.8,3.6-11.1,4.5-15.8,8.3c-2.1,1.7-6.2,3.9-6.4,7
	c-0.3,3.7,4.5,7.6,6.5,10c1.7,2.1,3.9,4.8,3.8,7.8c0,1.8-0.2,3.6-0.7,5.2c-0.7,1.6-2.6,3.5-3.8,4.8c-2.1,2.4-4.7,4.4-7.5,6
	c-1.9,1-3,0.5-5.4,1c-1.3,0.3-2.6,0.9-3.6,1.7c-1.7,1.2-3.4,2.5-5.1,3.7c-3.4,2.4-6.9,4.5-10.6,6.4c-1.5,0.9-3.2,1.6-4.9,2.2
	c-1,0.3-4.8,1.2-4.5,2.2c1,2.8,6.9,1,9.7,1.3s5.5,0.4,7.9,1.9c1.1,0.6,2,1.5,2.7,2.6c0.3,0.5,0.8,1.1,1.1,1.6
	c0.5,1.2,0.4,1.2,0.1,2.5c-0.7,3.8-1.8,7.5-2.4,11.2c-0.3,1.9-0.4,2.9,1.5,3.6c1.4,0.5,3.1,0.2,4.4,1.1c2.5,1.7,1.4,5.6,1.5,8
	c0.1,1.1-0.1,1.3,1.3,1.7c1.6,0.2,3.2,0.3,4.7,0.1c3.2-0.1,6.1-1.1,9.2,0.1c1.1,0.5,2.1,1.3,2.8,2.2c1.8,1.9,3.4,2.5,6.1,2.9
	c5.9,1,18.1-0.4,17.9,8.4c-0.1,3.8-1,7.6-1.4,11.5c-0.2,1.8-0.6,3.5-0.9,5.2c-0.2,1.2,0,2.4-0.2,3.6c-0.2,1.6-0.8,3.2-1.6,4.6
	c-1.2,1.6-4,2.2-5.6,3.4c-1.2,0.9-2.3,2-3.3,3.1c-0.4,0.4-1.6,1.3-1.7,2s1.8,1.2,2.2,1.4c3.8,1.2,7.5,2.5,11.3,3.6
	c4.8,1.2,9.3,3.4,13.2,6.5c1.7,1.3,3.3,2.9,4.6,4.7c0.5,0.9,1.1,1.7,1.9,2.4c2,1.4,4.3-0.9,5.7-2.2c6-5.5,11.3-12.8,15.9-19.6
	c1.5-2.3,2.7-4.7,3.6-7.2c0.9-2.6,3.2-3.5,5.7-4.4c5.7-2.1,13.1-3.5,18.7-0.8c1.7,0.8,3.6,1.7,4.7,3.2c1.6,2.1,1.7,5.5,2.3,7.9
	c0.5,2.7,1.4,5.4,2.6,7.9c0.9,1.7,1.8,1.8,3.2,2.7c2,1.2,1.4,2.6,1,4.5c-1,4.3,0.2,7.9,4.1,10.2c5.5,3.3,12.6,4.1,18.6,6.1
	c3,1,5.7,2.4,8.7,0.9c5.9-3,8.3-10,9.6-16.1s1.7-11.7-0.6-17.5c-2-5.1,0.5-9.4,1.6-14.4c0.4-1.7,0.8-3.2,0.1-4.9
	c-0.6-1.4-2.1-2.5-2.9-3.8c-2.7-4.3-0.7-11.1,0.3-15.5c0.8-3.6,1.6-7.6,3.1-11.1c0.9-2.2,2.2-4.2,4-5.8c3.6-3.2,9.8-3.9,14.4-4.5
	c4.4-0.4,8.9-0.4,13.4-0.1c2.7,0,5.4,0.4,8,1.2c2.6,0.8,3.5,1.5,6.1,0.3c1.9-1,3.8-2.2,5.5-3.6c1.5-1,2.1-1.2,2.1-3.4
	c0-2.4-2.4-6-3.5-8.2c-2.6-5.4-5.2-11-8-16.3c-2.8-5.1-6.2-10.2-7.2-16c-0.8-5-0.9-10-1.3-15c-0.3-4.2-0.6-7.4-4-10.1
	c-1.5-1.1-3.4-3-5.5-3c-2.3,0.1-4.9,1.9-6.9,2.9s-3,1.1-4.4,2.8c-2.2,2.5-4.2,5.1-6.5,7.6c-1.4,1.5-4.6,3.4-4.1,5.5
	c0.3,1.4,2.1,1.9,2.7,3.6s-0.6,3.7-1.2,5.1c-0.9,2.1-1.6,4.2-2.4,6.2c-0.4,1.4-1,2.8-1.6,4.1c-2,3.7-7.5,7.2-10.8,9.4
	c-3.7,2.5-7.7,5.3-12,6.5c-2,0.5-4.3,0.4-6.2,1.1s-1.5,1.7-1.1,3.6c0.8,3.3-0.4,7.5-1.3,10.7c-0.5,1.7-1.6,3.8-1.2,5.6
	c0.4,1.5,2,2.3,2.8,3.6c2,3,1.2,6.8,0.4,10.1c-0.5,1.7-0.6,3.9-2,5c-3.1,2.4-8.4,1.1-11.7-0.1c-4.3-1.5-8-5.6-12.7-5.1
	c-1.7,0.3-3.5,0.5-5.2,0.6c-3.6-0.2-4.2-2.8-4.7-5.8c-0.6-3.6-0.2-7.4-0.6-11.1c-0.4-3.3-1.4-6.5-3-9.4c-2.6-5-1.3-9.9,0-15
	c0.3-1.3,0.8-2.3,1.2-3.6c0.5-1.7,0-2.8-0.6-4.2c-1.8-4.3-6-9.3-3.4-14c1.7-3.2,5.3-6,7.9-8.1c4.1-3.3,8.5-6.2,13.2-8.7
	c2.4-1.2,5-1.6,5.7-4.6c1.7-7.2-7.5-13.4-12.4-16.6c-3.4-2.2-6.6-4.6-9.6-7.4c-3-2.7-8.1-3.2-11.8-4.4c-6.3-1.9-13-3.2-19.7-1.5
	c-4,1-8,2.2-12,3.2c-3.9,0.9-7.7,2.3-11.3,4.2c-3.1,1.8-6.3,3.5-8.9,6S546.5,452.1,545.5,452.8L545.5,452.8z"/>
<path id="path2130" class="st1" d="M549.5,264.9c10.8-1.9,11.2-1,15,2.6c0.6,0.7,1.3,1.5,1.8,2.2c1.2,1.1,2.7,0.8,4.1,2.4
	c3.2,3.8,5.8,6.8,5.1,13.4c-0.2,1.8,0.6,6.7,1.8,7.9c2.3,2.3,0.6-1.5,8.1,5.1c1.2,1.1,8.3,1.4,10.7,1.4c1.9,0,6-0.1,6.5-1.4
	c1.3-3.2,7.1-0.2,7.1-0.2c0.8,0.9,1.9,3.4,0.9,4.1"/>
<path id="path3893" class="st1" d="M562.7,206c3-0.5,8.1,0.4,10.5-2.1c16.2-17.5,20.1-1.8,40.7-1.6c6.6,0.1,14.7,4.2,25.2,2.8
	c6.4-0.9,16.8-3.3,19.7-11.2c1.9-5.1,6.9,0.2,20.6,0.1c7-0.1,15.3-3.5,27.9,0.8c3.4,1.2,8.8-1.1,11.4-1.9"/>
<path id="path5314" class="st1" d="M522.4,183.8c11.7-8.2,15.7-36.3,8.2-27.6c-5.9,6.9-8.8-17.5-11.5-26.4c-1.4-4.6-0.7-17,2.8-13.5
	c5.8,5.7,3.2-6.1,3.9-9c2.5-10.2-10-17.4-6.5-25.4c0.7-1.5,4.3-1.3,4.7-3.8c1.3-8.8,15-5,14.3-11.3c-1.3-11-12.8-18.1-15.2-18.7"/>
<path id="path6326" class="st1" d="M353.8,81.1c0.7,0,7.4,17.9,6,27.6c-0.5,3.6-0.2,16,5.5,13.9c11.9-4.2,8.1,14.9,8.1,14.9
	c-1.2,7.5,5,13.6,14.8,15.3c3.7,0.7-7,3.1,9.4,7.6c1.9,2.9,4.3,3.7,7.4,4.3c2.6,0.5,11.1,1.4,12.9,2.3c1.8,1,3.6,2.2,5.3,3.4
	c1.9,1.2-1.6,6.6,1.1,7.8c5.6,2.3,11.4,2.4,10.6,15.9c-0.3,5.3,1.2,12.1-5,16.5c-2.3,1.7,2.8,10.6,4.5,12.9s4.3,2.6,5.5,5.3
	c0.4,1,11.2,5.9,8.2,19.7c-0.1,7.7,3.5,7.8,4.6,8.6c4.2,3.2,5.2-5.5,7.8,4.9"/>
<path id="path6328" class="st1" d="M288.2,195.9c8.7,3.7,7.3,4.7,16,9.3c14.4,7.7,20.8-15.9,31.5-7.1c8.2,6.7,22.2-7.1,40.6,3.4
	c7.6,4.3,5.2,1.1,19.7-7.2c13.1-7.5-8.7-16.3,1.8-33.7"/>
</svg>
