<?xml version="1.0" encoding="UTF-8" standalone="no"?>
<svg
   xmlns:dc="http://purl.org/dc/elements/1.1/"
   xmlns:cc="http://creativecommons.org/ns#"
   xmlns:rdf="http://www.w3.org/1999/02/22-rdf-syntax-ns#"
   xmlns:svg="http://www.w3.org/2000/svg"
   xmlns="http://www.w3.org/2000/svg"
   viewBox="0 0 1060.42 656.75"
   version="1.1"
   id="svg13"
   width="1060.42"
   height="656.75">
  <metadata
     id="metadata17">
    <rdf:RDF>
      <cc:Work
         rdf:about="">
        <dc:format>image/svg+xml</dc:format>
        <dc:type
           rdf:resource="http://purl.org/dc/dcmitype/StillImage" />
        <dc:title></dc:title>
      </cc:Work>
    </rdf:RDF>
  </metadata>
  <defs
     id="defs4">
    <style
       id="style2">.cls-1{fill:none;stroke:#231f20;stroke-miterlimit:10;}</style>
  </defs>
  <g
     id="Layer_2"
     data-name="Layer 2">
    <g
       id="Districts">
      <g
         id="Elysian_Katonia"
         data-name="Elysian Katonia">
        <path
           id="Elysian_Katonia_1"
           data-name="Elysian Katonia 1"
           class="cls-1"
           d="m 888.62,438.67 a 11.14,11.14 0 0 0 -1.4,-3.77 c -1.39,-1.68 -3.27,-2.94 -4.82,-4.48 -2.82,-2.81 -7.29,-2.86 -11,-3.29 a 14.12,14.12 0 0 1 -12.57,-9.63 17.64,17.64 0 0 1 -0.62,-7.91 21.4,21.4 0 0 0 0.33,-4.72 c -0.08,-0.66 -0.51,-1.25 -0.44,-1.93 0.23,-2.45 1.27,-4.79 2,-7.15 0.73,-2.36 1.92,-6.32 0.61,-8.8 a 28.47,28.47 0 0 0 -2.18,-2.66 c -1.1,-1.58 -2.7,-2.32 -4,-3.65 a 11.46,11.46 0 0 1 -1.68,-1.8 7.91,7.91 0 0 1 -0.93,-3.27 c -0.28,-2 -0.35,-4 -0.7,-6 a 17.07,17.07 0 0 1 -0.54,-2.41 c 0,-1.06 0.84,-2.37 1.23,-3.34 a 52.63,52.63 0 0 1 3.27,-5.86 c 0.43,-0.75 1.34,-1.58 1.48,-2.43 0.1,-0.66 0,-1.31 0.12,-2 a 25.86,25.86 0 0 0 0.52,-3.17 c 0.12,-1.62 0.14,-3.74 -1,-5 a 6.72,6.72 0 0 0 -3.22,-1.54 c -1.63,-0.5 -3.79,-1.33 -3.77,-3.31 a 4.23,4.23 0 0 1 1.05,-2.59 32,32 0 0 1 2.44,-3.33 c 1.07,-1.17 2.17,-2.21 3.13,-3.49 a 16,16 0 0 1 2.2,-2.72 c 1,-0.86 1.87,-0.35 3,-0.63 a 13.32,13.32 0 0 0 4.1,-1.65 c 0.88,-0.61 1.61,-1.35 2.52,-1.94 0.91,-0.59 2.06,-1.31 3.06,-2 a 10.21,10.21 0 0 0 3.55,-4.42 c 0.59,-1.24 1.84,-3.52 1.08,-4.82 -0.87,-1.47 -2.26,-2.22 -2.84,-4 a 10.51,10.51 0 0 1 0.36,-7.18 9.59,9.59 0 0 1 3.49,-4.16 32.23,32.23 0 0 1 4.46,-2.87 3.85,3.85 0 0 1 2,-0.7 20.2,20.2 0 0 0 2.2,-0.05 33.6,33.6 0 0 0 10.22,-3.25 c 1.74,-0.84 3.17,-1.4 3.39,-3.35 a 18.17,18.17 0 0 0 0.38,-3 19,19 0 0 0 -0.44,-3.18 11.32,11.32 0 0 0 -1.18,-2.94 c -0.36,-0.67 -1.4,-1.44 -1.51,-2.16 -0.11,-0.72 0.68,-1.66 1.12,-2.21 a 20.36,20.36 0 0 1 3.39,-3.17 24.67,24.67 0 0 1 11.82,-5.14 c 1.86,-0.29 4.56,-0.14 7.46,-1.11 a 40.46,40.46 0 0 1 5.8,-1.88 29.83,29.83 0 0 1 5.57,-0.51 c 2.2,0 4.45,0.5 6.63,0.33 a 47.78,47.78 0 0 0 5.42,-1 c 3.23,-0.64 6.34,-1.9 9.5,-2.79 1,-0.27 1.94,-0.48 2.88,-0.8 a 10.73,10.73 0 0 1 2.11,-0.84 c 0.56,0 1,0.28 1.55,0.18 a 46.37,46.37 0 0 0 6.6,-1.72 c 3.08,-1 5.74,-2.83 8.55,-4.35 a 9.39,9.39 0 0 1 4.52,-1.53 c 1.54,0 3.13,0.94 4.57,1.47 a 50.55,50.55 0 0 0 7.25,2.42 20.65,20.65 0 0 0 7.35,-0.2 24.89,24.89 0 0 0 5.5,-1.37 19,19 0 0 0 3.77,-2.31 42.39,42.39 0 0 0 6.54,-5.94 33.09,33.09 0 0 1 5.61,-5 41.92,41.92 0 0 1 11,-5.33 19.46,19.46 0 0 1 11.06,-0.07 38.84,38.84 0 0 1 11.24,5.48 51.67,51.67 0 0 1 6.93,6.71 L 889,440 c 0,-0.11 -0.09,-0.23 -0.13,-0.35 a 5.22,5.22 0 0 1 -0.25,-0.98 z" />
        <path
           id="Elysian_Katonia_2"
           data-name="Elysian Katonia 2"
           class="cls-1"
           d="m 398.08,30.45 c -1.97548,0.948162 -3.47557,2.665132 -4.15,4.75 -1.02485,2.458912 -1.63316,5.071293 -1.8,7.73 0,3.36 2.62,4.33 5.54,4.73 1.74,0.25 6.41,-0.11 7,2.22 0.26,0.94 -0.35,2 -0.63,2.91 -0.3842,1.269447 -0.83482,2.517834 -1.35,3.74 -1.8,4.09 -4.25,7.8 -8.15,10.17 -1.55805,1.040788 -3.37717,1.622906 -5.25,1.68 -3.89,0.19 -7.88,0.83 -11.78,0.45 -3.84415,-0.361679 -7.12917,-2.92103 -8.42,-6.56 -0.85,-2.24 -0.86,-5.52 -3.32,-6.64 -2.2,-1 -4.37,-0.38 -6.66,-0.38 -2.09027,0.07667 -4.16267,-0.410342 -6,-1.41 -2.51,-1.55 -5.26,-3.68 -8.19,-4.28 -1.84,-0.38 -5,-1.14 -6.83,-0.41 -0.52,1.16 1.18,3.64 1.55,4.35 1.46,2.82 3,5.59 4.52,8.4 2.59,4.88 4.74,10 7.31,14.86 0.53,1 2.81,3.13 2.3,4.49 -0.4,1.06 -2.27,2.09 -3.1,2.82 -1.44225,1.313209 -2.98347,2.513423 -4.61,3.59 -1.22346,0.927859 -2.56959,1.681696 -4,2.24 -0.75,0.21 -1.53,0 -2.29,0.16 -1.0694,0.268818 -2.12136,0.602775 -3.15,1 -0.95,0.3 -1.93,0.46 -2.88,0.74 -0.79,0.23 -1.44,0.73 -2.22,1 -2.63639,0.63708 -5.39305,0.578501 -8,-0.17 -1,-0.29 -2,-0.59 -3,-0.91 -0.53,-0.18 -1.47,-0.82 -2,-0.77 -0.94,0.09 -1.94,1.3 -2.55,1.9 -1.47674,1.471991 -2.72399,3.157463 -3.7,5 -1.56345,2.7596 -2.48622,5.8355 -2.7,9 0,1.58 0.54,2.9 0.68,4.43 0.25,2.7 -1.37,5.91 -2.78,8.12 -0.72,1.13 -1.16,2.41 -1.87,3.5 -1.54677,2.03223 -3.5196,3.70129 -5.78,4.89 -1.38,0.81 -3.81,2.76 -5.57,2.14 -0.18,-0.63 0.13,-1.19 0.18,-1.83 -0.95,-0.49 -3.19,1.25 -3.74,1.57 -2.49,1.42 -4.95,2.94 -7.5,4.24 -1.95005,1.05419 -4.00015,1.91175 -6.12,2.56 -3.47019,0.96183 -6.82377,2.30327 -10,4 -4.87,2.54 -9.81,4.91 -14.7,7.42 -1.56,0.8 -4.52,1.7 -5.46,3.43 -0.49,0.89 0,1.86 0.21,2.77 0.47499,1.73694 0.71711,3.52929 0.72,5.33 0,4.16 -0.86,8.27 -0.75,12.43 0.09,3.57 2.39,3.87 4.89,5.68 1.93,1.4 4.07,3.33 4.77,5.7 0.65,2.19 1.43,2.9 3.8,3.39 1.8,0.37 3.61,0.65 5.39,1.1 0.97961,0.26143 2.00648,0.29224 3,0.09 3.39,-0.62 6.83,-0.95 10.22,-1.55 2.46993,-0.52842 4.98468,-0.81975 7.51,-0.87 1.7064,-0.0137 3.40879,-0.16759 5.09,-0.46 0.67,-0.1 2.25,-0.69 2.81,-0.11 0.95,1 -0.93,3.61 -1.25,4.14 -1.32,2.2 -3.16,5.32 -5.21,7 -1.61,1.31 -4.69,1.83 -6.65,2.15 -1.48,0.24 -1.87,-0.37 -3.08,-0.81 -2.35,-0.85 -7.23,1.75 -8.94,2.46 -5.31029,2.16934 -10.45701,4.71931 -15.4,7.63 -2.8,1.68 -5.59,3.42 -8.21,5.36 -2.84,2.09 -6.43,4.5 -7.55,8.07 -1.33,4.22 2.09,8.2 3.63,11.81 2.32,5.4 1.68,11.16 1.68,16.89 0.10999,1.38782 0.10999,2.78218 0,4.17 -0.33,1.9 -2.24,3.78 -3.39,5.12 -1.58,1.86 -3.23,3.65 -5,5.39 -1.16,1.14667 -2.32333,2.29333 -3.49,3.44 -0.36244,0.19786 -0.6399,0.52156 -0.78,0.91 -0.33,1.75 1.88,4.34 3,5.25 1.92,1.55 4.67,2 7,2.18 1.35627,-0.007 2.70552,0.19523 4,0.6 1.09,0.44 2,1.25 3.08,1.72 1.57809,0.50612 3.25266,0.63625 4.89,0.38 1.63,-0.1 3.49,-0.73 5.1,-0.43 2.16,0.41 2.95,2.13 3.56,4 0.55,1.66 1.55,3.11 1.76,4.85 0.17,1.37 0.3,2.64 0.58,4 0.56,2.65 -0.56,5.31 -1.25,7.81 -0.49,1.75 -1,3.51 -1.38,5.29 -0.34822,1.12072 -0.53016,2.28647 -0.54,3.46 0.21075,1.52792 0.54518,3.0362 1,4.51 0.29,1.2 0.37,3 1,4 0.8,1.21333 1.95667,1.43 3.47,0.65 3.73333,-1.12 7.42667,-2.35333 11.08,-3.7 3.33,-1.1 6.68,-2.26 10.06,-3.2 1.58564,-0.55063 3.24305,-0.86729 4.92,-0.94 1.33673,0.12825 2.67722,-0.20335 3.8,-0.94 3,-1.73 5.41,-6.16 7.28,-9 2.41333,-3.88 4.62667,-7.86333 6.64,-11.95 1.23446,-2.14174 1.9694,-4.53457 2.15,-7 -0.15,-2.08 -1.5,-3.44 -2.27,-5.27 -0.98347,-1.89234 -1.17067,-4.09904 -0.52,-6.13 1.0199,-5.42328 2.55348,-10.73722 4.58,-15.87 2,-5.57 4.46,-10.88 6.92,-16.26 0.64,-1.41 1,-3.27 2.58,-3.93 l 2.07,-0.19 c 2.44,0 4.89,0 7.32,0.22 2.63,0.29 6.88,0.82 8.87,3 1.99,2.18 2.27,5.9 2.49,8.67 0.17,2.14 0,4.06 1.34,5.86 1.34,1.8 2.17,2.73 2.67,5 0.92,4 -0.81,7.92 0.55,11.75 2.00304,0.29154 4.04445,0.17246 6,-0.35 2.2,-0.5 4.51,-1.58 6.76,-1.79 1.14293,-0.10821 2.29084,0.14727 3.28,0.73 2.52,1.2 5.59,0.16 8.16,-0.45 4.06,-1 8.07,-2.1 12.14,-3 2.39,-0.53 5,-1.27 7.2,-0.07 2.88,1.54 4.32,5.3 6.12,8 2.87,4.26 0.27,9.62 -1.33,14 -0.94,2.55 -2.59,5.33 -3,8 -0.36834,1.25141 -0.0744,2.60425 0.78,3.59 0.7,0.71 1.78,1.09 2.55,1.73 0.77,0.64 1.26,1.73 2,2.21 1.83,1.16 4,-0.07 5.79,-0.82 l 7.31,-4.35 c 4.54667,-2.98 8.96333,-6.15 13.25,-9.51 6.81,-5.2 13.44,-10.58 19.74,-16.38 0.64,-0.58 1.64,-1.84 2.53,-2.07 0.89,-0.23 1.6,0.11 2.54,0 3.48,-0.48 6.84,-2.34 9.9,-4 4.1647,-2.26063 8.05389,-4.99547 11.59,-8.15 3.79,-3.35 7.87,-7.18 10.1,-11.84 1.31416,-2.88285 2.4366,-5.8493 3.36,-8.88 l 1.37,-4.8 0.32,-4 c -0.52,-2.52 -2.39,-3.78 -4.27,-5.25 -2.17,-1.69 -4.12,-3.2 -5.26,-5.82 -1.37,-3.14 -1.41,-7 -1.36,-10.34 0,-2.16 0.4,-4.56 -0.66,-6.47 -1.72,-3.11 -7.87,-0.17 -8.35,-3.16 -0.62,-3.89 6,-4.82 9.41,-6.78 5.36052,-3.15377 11.0012,-5.80506 16.85,-7.92 5.32,-1.88 13.05,-5.23 18,-1 3,2.54 7.28,1.73 10.17,5 2.23298,2.47186 3.49422,5.66936 3.55,9 0.09,2.87 -0.8,5.73 -0.35,8.55 2,0.7 3.92,0.42 6,0.21 2.65637,-0.36731 5.36151,-0.12449 7.91,0.71 2.4726,1.03429 5.00757,1.91268 7.59,2.63 3.73,0.81 7.38,0.55 11.17,0.89 2.22,0.2 4.56,0.3 6.38,1.77 1.57,1.27 1.72,4.12 2.24,5.92 0.75,2.61 2.45,3.49 4.9,4.21 l 3.94,0.77 c 2.40667,-0.0667 3.79667,0.90333 4.17,2.91 0.92445,1.22111 0.85745,2.92523 -0.16,4.07 -0.68997,2.69276 -1.85122,5.2421 -3.43,7.53 -1,1.9 -2,3.8 -2.93,5.74 -0.7,1.49 -1.11,3 -1.74,4.55 -1.53166,3.26597 -3.52173,6.29654 -5.91,9 -2.51261,3.22279 -5.4185,6.11861 -8.65,8.62 -2.18,1.6 -4.42,3.14 -6.68,4.62 -0.71,0.47 -5.08,4.11 -5.83,2.62 -0.39,-0.77 0.37,-1.69 0.59,-2.53 -0.85975,-0.88489 -2.19004,-1.1187 -3.3,-0.58 -2.67902,0.15791 -5.33208,0.61406 -7.91,1.36 -4.08,0.94 -8.14,2 -12.17,3.15 -6,1.7 -11.86,3.82 -17.76,5.84 -3.58076,1.40351 -7.28302,2.47469 -11.06,3.2 -1.7177,0.17125 -3.44421,0.23804 -5.17,0.2 -1.4,0.05 -2.05,0.76 -3.07,1.74 -2.61691,2.61361 -5.03999,5.41435 -7.25,8.38 l -2.07,2.68 c -1.02803,0.6814 -1.40233,2.01271 -0.88,3.13 5.47,1.63 11.65,0.14 16.85,2.79 1.4309,0.80945 2.69906,1.87756 3.74,3.15 1.52,1.63 3.12,1.95 5.3,1.88 2.28951,0.01 4.5732,-0.23142 6.81,-0.72 h 3.69 c 1.75,0.7 2.15,2.05 2.64,3.69 0.54,1.82 1,3.46 2.31,4.88 1.93,2 4.79,2.81 6.73,4.85 1.40151,1.50834 2.12425,3.52479 2,5.58 0,1.56 -0.27,3.07 1,4.06 2.26,1.76 5.51,1.2 8,2.27 l 3.33,1.78 2.21,3.56 c 1.68,3.77 1.81,8.36 2.52,12.4 0.26492,0.97905 0.41262,1.98611 0.44,3 0,0.59 -0.51,1.17 -0.12,1.74 6,1.37 12.36,0.59 18.44,1.44 2.54304,0.17201 5.0352,0.79505 7.36,1.84 0.85,0.79 1.64,2 2.8,2 4.9,0.16 8.22,-5.12 11.37,-9 6.34,-6.23333 12.43333,-12.69 18.28,-19.37 3.02793,-2.29281 4.92828,-5.77315 5.22,-9.56 -0.87566,-1.57504 -1.98113,-3.01081 -3.28,-4.26 0.24559,-2.48813 1.81238,-4.65108 4.1,-5.66 3.49237,-3.27763 7.60692,-5.82117 12.1,-7.48 4.21459,-2.13111 8.82458,-3.36702 13.54,-3.63 3.25858,-0.90535 6.73538,-0.59251 9.78,0.88 l 3.23,3.77 c 1.18,3.26 2.22,6.56333 3.12,9.91 l 1.78,3.43 c 1.27,1.19 3.17,2 3.75,3.65 0.58,1.65 -0.93,3.23 -2.21,4.42 -1.31,1.71 -3.78,3 -4,5.1 -0.0184,0.54631 0.25608,1.06092 0.72,1.35 1.39,0.78 3.19,-0.16 4.78,-0.23 5.9202,-0.62413 11.76077,-1.8539 17.43,-3.67 3.42618,-1.06828 6.76863,-2.38855 10,-3.95 1,-0.49 5,-1.54 4.44,-2.78 -0.31,-0.64 -2.18,-0.92 -2.44,-1.63 l 0.2,-2.53 c 0.92,-2.26 1.82,-4.54 2.71,-6.82 1,-2.59 2,-5.22 1.57,-8 -0.39,-2.42 -1.73,-4.42 -2.85,-6.59 -1.77,-3.47 -1.89,-6.82 0.54,-10.22 1.38,-1.94 3.69,-4.7 5.92,-5.76 1.51934,-0.553 3.13612,-0.78785 4.75,-0.69 3.29,-0.15 6.57,-0.56 9.86,-0.65 2.57,-0.07 4.91,0.28 7.31,-0.79 3.85,-1.71 7.2,-4.58 10.39,-7.27 3.19,-2.69 7.49,-5.92 9.14,-10 1.13333,-1.27333 1.05,-2.40333 -0.25,-3.39 -0.61094,-1.22373 -1.62938,-2.19619 -2.88,-2.75 -1.81728,-1.0409 -3.33601,-2.53208 -4.41,-4.33 l -0.29,-4 0.95,-4.14 0.34,-3.37 -2.09,-2.23 -4.75,-1.55 -5.42,-1.74 c -2.83333,-0.96 -4.27333,-2.79667 -4.32,-5.51 -0.73561,-1.84114 -0.7853,-3.88529 -0.14,-5.76 0.1558,-2.17065 0.59278,-4.31188 1.3,-6.37 0.87022,-3.51152 2.08616,-6.92821 3.63,-10.2 1.03544,-2.05994 2.32554,-3.98165 3.84,-5.72 0.69,-0.81 1.72,-2.42 3,-2.33 0.58,0 0.92,0.55 1.36,0.84 1.08441,0.69969 2.21728,1.32127 3.39,1.86 2.06585,1.05731 4.06915,2.23258 6,3.52 1,1.4 2.07,1.68 3.22,0.82 1.25364,-0.28921 2.20678,-1.30958 2.41,-2.58 2.2374,-3.75365 3.63924,-7.94555 4.11,-12.29 0.61895,-2.14675 0.67063,-4.41731 0.15,-6.59 0.30953,-1.74441 -0.30292,-3.52506 -1.62,-4.71 -0.88836,-1.79054 -2.58666,-3.04192 -4.56,-3.36 l -2.42,-1 c -1.2,-1.08 -0.08,-2.53 0.45,-3.63 1.09285,-2.0272 1.99988,-4.1492 2.71,-6.34 0.72,-2.53 1.1,-5.13 2,-7.63 2.12,-6 7.15,-10.74 10.67,-15.91 -0.86,-1 -3.1,0.58 -4.06,1 l -5.2,2.19 -4.72,1.08 -2.31,-2 0.92,-6 2.8,-7.71 2.06,-7 -0.74,-2.86 c -0.35333,-3.62 -2.46333,-6.12333 -6.33,-7.51 -4,-2.6 -9.22,-4.23 -12.73,-7.57 -2.52,-2.41 -5,-5 -5.24,-8.78 l 0.18,-4 c 0.50667,-1.773333 0.0133,-2.98 -1.48,-3.62 -2.27,-1.69 -5,-2.42 -7.53,-3.69 l -2.06,-1 c -2,-1.36 -2.57,-3 -1.76,-5 0.84,-5.14 4.79,-8.93 3.5,-14.36 -1.49,-6.3 3.43,-11.14 7.44,-15.39 3.57,-3.78 7.92,-7 11.9,-10.38 3,-2.49 5.91,-5.5 9.12,-7.69 1.92,-1.31 4.64,-2.43 2.23,-5 l -2.27,-1.3 C 728.05863,17.115881 724.60888,15.636936 721,14.68 716.52,13 712,11.41 707.41,9.81 706.03,9.33 704.64,8.9 703.3,8.29 701.63442,7.5550468 699.81716,7.2293107 698,7.34 c -4.42381,0.1212491 -8.83574,0.5186895 -13.21,1.19 -3.69,0.45 -7.43,0.49 -11.11,0.93 -3.68,0.44 -7.54,3.74 -9,7.16 -0.91,2.13 0,4.07 0.18,6.18 0.37,3.94 -1.2,6.6 -3.55,9.52 l -5.16,4 -5.33,2.55 c -2.58,0.7 -5.83,1.07 -7.95,-1.08 -1.85274,-2.110459 -3.07581,-4.698649 -3.53,-7.47 -0.44,-2.73 0.06,-5.79 -1,-8.33 -0.73,-1.73 -2.19,-2.68 -3.53,-3.95 -1.81,-1.72 -2.62,-4 -3.62,-6.22 l -1,-2.26 c -1.78536,-3.334636 -4.8682,-5.7842638 -8.52,-6.77 l -3.71,-1.61 c -3.0977,-1.22808345 -6.60125,-0.85417223 -9.37,1 l -2.28,1.12 c -1.42667,2.0933333 -1.23667,3.8233333 0.57,5.19 1.64,2.1 3.49,3.07 5.73,4.5 2,1.3 3.65,1.8 4.18,4.13 -0.27547,1.253216 -0.64656,2.483483 -1.11,3.68 -0.43,1.17 -0.81,2.35 -1.14,3.56 -1.69,3.25 -5.09,5.62 -8,7.49 -4.99691,3.365939 -10.34089,6.185443 -15.94,8.41 -2.15,0.77 -5.25,2.37 -7.6,1.48 -1.61,-0.62 -3.28,-1.63 -4.84,-2.29 -2.46724,-0.947424 -4.86052,-2.077213 -7.16,-3.38 -3.30599,-2.024214 -6.07441,-4.816654 -8.07,-8.14 -2.08,-3.23 -4,-6.55 -6.19,-9.7 -2.19,-3.15 -4.74,-6.15 -7.07,-9.23 -0.79,-1 -1.66,-2.58 -2.58,-3.6 -1.13,-1.25 -2.25,-1.08 -3.83,-1 -2.92,0.12 -7.45,2.41 -10,4.13 -2.24767,1.3290836 -3.7179,3.659112 -3.95,6.26 -0.16,1.74 1.06,3.65 1.58,5.29 0.40988,1.448214 0.74367,2.91689 1,4.4 0.25,1.17 0.57,2.33 0.82,3.5 0.20061,1.392231 -0.0297,2.812509 -0.66,4.07 -2.52474,7.136021 -6.48253,13.680161 -11.63,19.23 -5,5.12 -13.67,9.93 -20.85,6.51 l -1.95,-0.93 c -1.25092,-1.125269 -2.27,-2.484042 -3,-4 -0.23,-0.43 -1,-2.09 -1.54,-2.39 -0.54,-0.3 -1.06,0 -1.73,0 -2.86,-0.2 -5.44,-6.34 -5.82,-7.79 L 485.1,39 c -0.69981,-3.529814 -0.7709,-7.155466 -0.21,-10.71 l -1.27,-4.73 c -2.12,-1.5 -4.29,-2.91 -6.53,-4.22 L 474.83,18 c -0.94137,-2.107833 -2.97587,-3.51811 -5.28,-3.66 -3.56667,-1.333333 -7.08667,-0.686667 -10.56,1.94 l -8.36,4.37 -4.92,3.85 -1.28,3 c 0.16,2 2.36,3.17 2.92,5 0.74,2.39 -0.34,4.64 -1.24,6.85 -0.9,2.21 -1.69,5 -3.76,6.19 -0.79,0.47 -2.13,0.15 -3,0 -2.62296,-0.699569 -5.10822,-1.83907 -7.35,-3.37 -2.63,-1.74 -4.6,-4 -6.9,-6.1 -1.73102,-1.783157 -3.70356,-3.31474 -5.86,-4.55 -2.94,-1.44 -6.56,-1.35 -9.72,-1.82 -0.1475,-0.03906 -8.52,-0.79 -11.44,0.75 z" />
        <path
           id="Elysian_Katonia_3"
           data-name="Elysian Katonia 3"
           class="cls-1"
           d="m 143.37,450.69 c -2.41,3.48 -2.56,8.31 -2.62,12.4 0,3.09 -2.69,3.22 -5.24,3.43 -4.15,0.35 -7.15,-1 -10.56,-3.16 -6.42,-4.11 -13.74,-0.23 -20.7,0 a 74.83,74.83 0 0 0 -9.24,0.37 c -0.79,0.13 -1.22,0 -1.82,0.72 a 6.26,6.26 0 0 0 -0.5,1.37 31.92,31.92 0 0 1 -3,5.34 50.61,50.61 0 0 1 -7.17,8.84 16.72,16.72 0 0 1 -3.12,2.69 c -0.92,0.52 -1.44,0.28 -2.41,0 a 25.56,25.56 0 0 0 -4.75,-1 c -4.1,-0.55 -8.18,0.16 -12.14,-1.18 -3.34,-1.13 -5.77,-3.86 -9.14,-4.66 -4.12,-1 -8.34,-0.74 -12.47,-1.51 -3.33,-0.63 -6.26,-2.86 -9.53,-3.75 -3.27,-0.89 -6.37,0 -9.6,0.89 a 46.63,46.63 0 0 0 -7.21,2.68 c -1.49,0.67 -1.85,1.29 -2.46,2.82 -1.61,4 -3.25,8 -4.83,12 -1.34,3.42 -2.31,7 -3.39,10.46 a 25.6,25.6 0 0 0 -1,4.65 73.22,73.22 0 0 0 1.36,10.11 c 1,3.55 1,7.86 2.87,11.09 1.3,2.13 4.17,2.71 6.3,3.79 a 7.93,7.93 0 0 1 2.8,2.63 6.24,6.24 0 0 0 1.2,1.29 c 0.62,0.43 1,0.21 1.25,1 0.5,1.51 -2.84,4.53 -3.5,5.2 -1.67,1.69 -3.38,3.28 -5.2,4.8 a 8.84,8.84 0 0 0 -1.78,1.68 c -0.63,1 -0.68,3.23 -0.84,4.28 -0.36,2.24 -0.62,4.49 -0.8,6.75 -0.16,2.05 -0.38,4.55 0.38,6.54 1.77,4.64 7.36,6.37 11.82,7.34 4.91,1.07 10.41,1.62 15,-0.87 2.09,-1.14 4,-2.61 6,-3.88 a 20,20 0 0 1 4.4,-1.83 c 1.9,-0.67 2.71,0 4,1.36 a 10.86,10.86 0 0 0 1.28,1.34 17,17 0 0 0 2.37,0.82 2.88,2.88 0 0 1 1.43,1.34 3.78,3.78 0 0 1 0.05,2.9 c -0.26,1.62 -0.57,3.24 -0.9,4.85 -0.57,2.81 -0.86,5.81 -1.88,8.51 -0.53,1.38 -1.15,2.74 -1.71,4.11 -0.4,1 -1.21,2.14 -1.12,3.26 1.18,1.16 4.25,0.42 5.74,0.45 1.93,0 5.48,-0.09 7,1.31 1.52,1.4 0.71,4.45 0.17,6.37 a 70.23,70.23 0 0 1 -2.71,7.11 c 0.75,0.6 1.81,0.25 2.67,0.68 2.54,1.25 2.37,5.92 2.41,8 0.13,5.83 -0.78,11.79 -1.24,17.59 q -0.37,4.65 -0.77,9.3 c -0.11,1.33 0,2.65 -0.18,4 -0.18,1.35 -0.73,2.82 -0.34,4 0.46,1.46 2.21,1.48 3.48,1.6 3.11,0.29 5.93,-0.34 8.73,1.36 1.55,0.93 2.44,1.77 4.34,1.87 a 16.61,16.61 0 0 0 7.07,-1.5 c 2.82,-1.17 5.46,-2 7.35,-4.41 3.55,-4.57 6.51,-9.78 9.67,-14.62 2.18,-3.34 4.73,-6.68 6.59,-10.23 a 6.87,6.87 0 0 1 2.57,-3.07 96.13,96.13 0 0 1 13.33,-7.64 c 1.27,-0.61 2.92,-1.71 4.39,-1 a 20.06,20.06 0 0 1 2.64,2 c 1.36,1 2.9,1.51 4.22,2.55 a 27.25,27.25 0 0 1 4.18,4.86 c 0.81,1 2.16,2.69 3.49,3.08 2,0.56 4.88,-1.43 6.54,-2.17 a 32.57,32.57 0 0 0 4.68,-2.27 33.5,33.5 0 0 0 6.18,-6 l 2.54,-3.13 c 1.12,-1.43 2.18,-2.9 3.2,-4.41 0.84,-2.06 -0.78,-2.89 -2.12,-4.24 -2.39,-2.42 -4.6,-5.25 -5.31,-8.69 a 41.34,41.34 0 0 1 -0.54,-8.38 c 0,-2.11 -0.29,-5 0.28,-7.11 0.45,-1.65 2.09,-1.6 3.58,-1.75 2.32,-0.23 5.56,-0.59 7.82,0 2.87,0.76 3.4,2.81 4.53,5.15 0.83,1.74 3,1.44 4.65,1.71 l 3,0.62 a 13.28,13.28 0 0 1 4.91,2.86 c 2.67,1.73 4.77,1 7.59,-0.37 a 34.11,34.11 0 0 0 9.15,-6.48 c 1.68,-1.69 3.06,-3.34 1.67,-5.74 l -2.4,-1.85 a 40.15,40.15 0 0 1 -6.56,-4.8 12.59,12.59 0 0 1 -3.63,-8.51 27.45,27.45 0 0 1 0,-6 c 0.65,-3.59 4.52,-7.6 6.87,-10 a 43.71,43.71 0 0 1 8.39,-6.82 8.67,8.67 0 0 1 4.15,-1.37 c 3.19,-0.36 6.35,-0.85 9.53,-1.24 3.48,-0.43 6.78,-0.89 10.07,0.51 a 31.43,31.43 0 0 1 6.52,3.23 c 3.07,2.32 4.41,6.1 5.78,9.51 0.75,1.88 1.75,3.63 2.52,5.48 0.89,2.15 0.67,4.38 1.28,6.58 1.19,4.29 4.49,4.15 8.41,3.64 a 74.94,74.94 0 0 0 12.1,-3 8.63,8.63 0 0 0 4.55,-3.24 24.41,24.41 0 0 0 4.47,-7.31 2.32,2.32 0 0 0 -0.07,-2.33 9.41,9.41 0 0 1 -1.71,-3.06 19.11,19.11 0 0 1 -0.54,-5.64 c 0.05,-2.25 1,-5.36 0,-7.54 -0.93,-2 -3.42,-3.12 -4.83,-4.73 a 11.63,11.63 0 0 1 -2.92,-7.91 c 0,-3.21 1.42,-6.74 0.94,-9.92 l -0.59,-1.91 a 17,17 0 0 0 -7.3,-2.6 c -4.23,-1.08 -9.26,-1.7 -12.89,-4.4 -4.21,-3.13 -6.22,-8.75 -7.31,-13.64 -1.41,-6.34 -1.1,-12.29 1.71,-18.22 a 38.43,38.43 0 0 1 7,-9.76 c 1.27,-1.35 2.28,-2 2.46,-4 0.26,-2.76 -0.59,-5.83 -3,-7.46 a 13.78,13.78 0 0 0 -9.15,-0.83 51.61,51.61 0 0 0 -9.29,2.66 20.22,20.22 0 0 0 -5.73,2.9 18.91,18.91 0 0 0 -3,4 q -2,3 -3.77,6.12 a 32,32 0 0 1 -2,3.65 14,14 0 0 1 -4.6,3.43 60.47,60.47 0 0 1 -10.43,4.62 c -3.63,1.15 -6.72,1.83 -10.34,0.36 a 38.58,38.58 0 0 1 -9.06,-5.85 c -2.95,-2.38 -5.38,-5.44 -7.95,-8.2 -1.7,-1.83 -3,-3.6 -5.22,-4.82 -2.22,-1.22 -4.6,-2.76 -7,-3.95 -0.03,-0.04 -11.48,-5.18 -14.49,-0.85 z" />
        <path
           id="Elysian_Katonia_4"
           data-name="Elysian Katonia 4"
           class="cls-1"
           d="m 545.49,452.84 c -4.81,3.63 -11.06,4.45 -15.8,8.32 -2.12,1.74 -6.15,3.92 -6.42,6.95 -0.34,3.7 4.47,7.6 6.48,10.05 1.69,2.08 3.93,4.84 3.84,7.75 a 16.23,16.23 0 0 1 -0.74,5.25 c -0.68,1.63 -2.58,3.5 -3.79,4.79 a 28.45,28.45 0 0 1 -7.51,6 c -1.89,1 -3,0.53 -5.36,1 a 8.84,8.84 0 0 0 -3.62,1.74 c -1.71,1.25 -3.41,2.5 -5.15,3.71 a 90.06,90.06 0 0 1 -10.64,6.43 27.16,27.16 0 0 1 -4.86,2.2 c -1.05,0.31 -4.8,1.24 -4.46,2.2 1,2.85 6.92,1 9.71,1.3 2.79,0.3 5.53,0.4 7.89,1.9 a 7.31,7.31 0 0 1 2.69,2.6 c 0.31,0.51 0.83,1.1 1.09,1.64 0.55,1.16 0.36,1.24 0.14,2.46 -0.69,3.75 -1.82,7.46 -2.42,11.21 -0.3,1.87 -0.43,2.87 1.55,3.62 1.37,0.52 3.11,0.2 4.36,1.07 2.48,1.72 1.36,5.56 1.5,8 0.07,1.14 -0.1,1.33 1.31,1.66 a 21,21 0 0 0 4.73,0.12 c 3.16,-0.12 6.14,-1.06 9.25,0.08 a 7.55,7.55 0 0 1 2.84,2.21 c 1.79,1.89 3.42,2.5 6.07,2.93 5.89,1 18.07,-0.36 17.9,8.44 -0.07,3.85 -1,7.64 -1.42,11.45 -0.2,1.77 -0.6,3.45 -0.89,5.19 -0.2,1.19 0,2.38 -0.21,3.57 a 12.36,12.36 0 0 1 -1.62,4.58 c -1.23,1.62 -4,2.18 -5.58,3.39 a 35.49,35.49 0 0 0 -3.31,3.06 c -0.44,0.44 -1.57,1.26 -1.66,2 -0.11,0.89 1.8,1.23 2.2,1.36 3.75,1.23 7.49,2.48 11.28,3.56 a 36.83,36.83 0 0 1 13.21,6.46 23.46,23.46 0 0 1 4.56,4.67 9.14,9.14 0 0 0 1.86,2.41 c 2,1.36 4.28,-0.87 5.69,-2.18 6,-5.53 11.33,-12.83 15.91,-19.57 a 32,32 0 0 0 3.56,-7.24 c 0.94,-2.56 3.23,-3.46 5.74,-4.37 5.66,-2.07 13.13,-3.49 18.72,-0.83 1.68,0.79 3.59,1.66 4.72,3.2 1.56,2.12 1.72,5.46 2.29,7.92 a 32.22,32.22 0 0 0 2.59,7.86 c 0.92,1.68 1.76,1.79 3.24,2.65 2,1.16 1.42,2.57 1,4.46 -1,4.35 0.21,7.87 4.14,10.22 5.51,3.3 12.57,4.1 18.58,6.08 3,1 5.7,2.43 8.74,0.86 5.9,-3.05 8.35,-10 9.62,-16.08 1.27,-6.08 1.65,-11.66 -0.63,-17.48 -2,-5.08 0.51,-9.39 1.62,-14.36 0.38,-1.66 0.84,-3.2 0.06,-4.87 -0.64,-1.38 -2.11,-2.54 -2.93,-3.84 -2.73,-4.34 -0.73,-11.11 0.29,-15.52 0.84,-3.64 1.62,-7.64 3.12,-11.07 a 15.65,15.65 0 0 1 4,-5.79 c 3.6,-3.23 9.75,-3.92 14.39,-4.51 a 86.46,86.46 0 0 1 13.37,-0.12 28.46,28.46 0 0 1 7.95,1.15 c 2.56,0.84 3.51,1.54 6.13,0.27 a 37.32,37.32 0 0 0 5.51,-3.57 c 1.46,-1 2.12,-1.25 2.07,-3.39 -0.05,-2.39 -2.41,-6 -3.45,-8.19 -2.6,-5.44 -5.15,-11 -8,-16.28 -2.76,-5.09 -6.25,-10.19 -7.22,-16 -0.83,-4.95 -0.91,-10 -1.3,-15 -0.33,-4.22 -0.56,-7.41 -4,-10.06 -1.47,-1.15 -3.44,-3.05 -5.49,-3 -2.34,0.09 -4.91,1.92 -6.91,2.9 -2,0.98 -3,1.07 -4.41,2.76 -2.17,2.52 -4.25,5.1 -6.48,7.57 -1.37,1.51 -4.64,3.43 -4.13,5.52 0.34,1.4 2.12,1.88 2.72,3.63 0.6,1.75 -0.58,3.67 -1.19,5.1 -0.89,2.06 -1.59,4.16 -2.37,6.25 a 28.86,28.86 0 0 1 -1.64,4.11 c -2.05,3.66 -7.51,7.17 -10.81,9.39 -3.67,2.49 -7.69,5.35 -12,6.47 -2,0.52 -4.32,0.43 -6.25,1.11 -1.93,0.68 -1.5,1.67 -1.07,3.56 0.76,3.33 -0.37,7.54 -1.35,10.65 -0.54,1.68 -1.64,3.77 -1.17,5.58 0.4,1.53 2,2.35 2.84,3.6 2,3 1.23,6.85 0.39,10.1 -0.45,1.71 -0.58,3.86 -2,5 -3.08,2.39 -8.43,1.09 -11.65,-0.06 -4.31,-1.55 -8,-5.56 -12.74,-5.12 a 35.55,35.55 0 0 1 -5.25,0.56 c -3.62,-0.2 -4.25,-2.83 -4.71,-5.78 -0.56,-3.61 -0.23,-7.43 -0.6,-11.08 a 25,25 0 0 0 -3,-9.37 c -2.62,-5 -1.31,-9.87 0.05,-15 0.34,-1.3 0.85,-2.34 1.25,-3.58 0.52,-1.66 0,-2.75 -0.61,-4.24 -1.82,-4.26 -6,-9.3 -3.44,-14 1.73,-3.18 5.27,-6 7.9,-8.11 a 83.47,83.47 0 0 1 13.07,-8.71 c 2.42,-1.24 5,-1.59 5.67,-4.58 1.71,-7.25 -7.52,-13.37 -12.42,-16.57 a 72.56,72.56 0 0 1 -9.59,-7.36 c -3,-2.71 -8.08,-3.23 -11.79,-4.35 -6.35,-1.92 -13,-3.16 -19.66,-1.49 -4,1 -8,2.23 -12,3.24 a 46,46 0 0 0 -11.29,4.22 c -3.13,1.75 -6.28,3.45 -8.87,5.95 -2.59,2.5 -2.53,2.71 -3.52,3.45 z" />
      </g>
    </g>
  </g>
</svg>
