<svg xmlns="http://www.w3.org/2000/svg" viewBox="0 0 1060.42 656.75"><defs><style>.cls-1{fill:none;stroke:#231f20;stroke-miterlimit:10;}</style></defs><g id="Layer_2" data-name="Layer 2"><g id="Districts"><g id="Elysian_Katonia" data-name="Elysian Katonia"><path id="Elysian_Katonia_1" data-name="Elysian Katonia 1" class="cls-1" d="M888.62,438.67a11.14,11.14,0,0,0-1.4-3.77c-1.39-1.68-3.27-2.94-4.82-4.48-2.82-2.81-7.29-2.86-11-3.29a14.12,14.12,0,0,1-12.57-9.63,17.64,17.64,0,0,1-.62-7.91,21.4,21.4,0,0,0,.33-4.72c-.08-.66-.51-1.25-.44-1.93.23-2.45,1.27-4.79,2-7.15s1.92-6.32.61-8.8a28.47,28.47,0,0,0-2.18-2.66c-1.1-1.58-2.7-2.32-4-3.65a11.46,11.46,0,0,1-1.68-1.8,7.91,7.91,0,0,1-.93-3.27c-.28-2-.35-4-.7-6a17.07,17.07,0,0,1-.54-2.41c0-1.06.84-2.37,1.23-3.34a52.63,52.63,0,0,1,3.27-5.86c.43-.75,1.34-1.58,1.48-2.43.1-.66,0-1.31.12-2a25.86,25.86,0,0,0,.52-3.17c.12-1.62.14-3.74-1-5a6.72,6.72,0,0,0-3.22-1.54c-1.63-.5-3.79-1.33-3.77-3.31a4.23,4.23,0,0,1,1.05-2.59,32,32,0,0,1,2.44-3.33c1.07-1.17,2.17-2.21,3.13-3.49a16,16,0,0,1,2.2-2.72c1-.86,1.87-.35,3-.63a13.32,13.32,0,0,0,4.1-1.65c.88-.61,1.61-1.35,2.52-1.94s2.06-1.31,3.06-2a10.21,10.21,0,0,0,3.55-4.42c.59-1.24,1.84-3.52,1.08-4.82-.87-1.47-2.26-2.22-2.84-4a10.51,10.51,0,0,1,.36-7.18,9.59,9.59,0,0,1,3.49-4.16,32.23,32.23,0,0,1,4.46-2.87,3.85,3.85,0,0,1,2-.7,20.2,20.2,0,0,0,2.2-.05,33.6,33.6,0,0,0,10.22-3.25c1.74-.84,3.17-1.4,3.39-3.35a18.17,18.17,0,0,0,.38-3,19,19,0,0,0-.44-3.18,11.32,11.32,0,0,0-1.18-2.94c-.36-.67-1.4-1.44-1.51-2.16s.68-1.66,1.12-2.21a20.36,20.36,0,0,1,3.39-3.17,24.67,24.67,0,0,1,11.82-5.14c1.86-.29,4.56-.14,7.46-1.11a40.46,40.46,0,0,1,5.8-1.88,29.83,29.83,0,0,1,5.57-.51c2.2,0,4.45.5,6.63.33a47.78,47.78,0,0,0,5.42-1c3.23-.64,6.34-1.9,9.5-2.79,1-.27,1.94-.48,2.88-.8a10.73,10.73,0,0,1,2.11-.84c.56,0,1,.28,1.55.18a46.37,46.37,0,0,0,6.6-1.72c3.08-1,5.74-2.83,8.55-4.35a9.39,9.39,0,0,1,4.52-1.53c1.54,0,3.13.94,4.57,1.47a50.55,50.55,0,0,0,7.25,2.42,20.65,20.65,0,0,0,7.35-.2,24.89,24.89,0,0,0,5.5-1.37,19,19,0,0,0,3.77-2.31,42.39,42.39,0,0,0,6.54-5.94,33.09,33.09,0,0,1,5.61-5,41.92,41.92,0,0,1,11-5.33,19.46,19.46,0,0,1,11.06-.07,38.84,38.84,0,0,1,11.24,5.48,51.67,51.67,0,0,1,6.93,6.71L889,440c0-.11-.09-.23-.13-.35A5.22,5.22,0,0,1,888.62,438.67Z"/><path id="Elysian_Katonia_2" data-name="Elysian Katonia 2" class="cls-1" d="M398.08,30.45a8,8,0,0,0-4.15,4.75,24,24,0,0,0-1.8,7.73c0,3.36,2.62,4.33,5.54,4.73,1.74.25,6.41-.11,7,2.22.26.94-.35,2-.63,2.91a37.87,37.87,0,0,1-1.35,3.74c-1.8,4.09-4.25,7.8-8.15,10.17a10,10,0,0,1-5.25,1.68c-3.89.19-7.88.83-11.78.45a9.92,9.92,0,0,1-8.42-6.56c-.85-2.24-.86-5.52-3.32-6.64-2.2-1-4.37-.38-6.66-.38a11.66,11.66,0,0,1-6-1.41c-2.51-1.55-5.26-3.68-8.19-4.28-1.84-.38-5-1.14-6.83-.41-.52,1.16,1.18,3.64,1.55,4.35,1.46,2.82,3,5.59,4.52,8.4,2.59,4.88,4.74,10,7.31,14.86.53,1,2.81,3.13,2.3,4.49-.4,1.06-2.27,2.09-3.1,2.82a38,38,0,0,1-4.61,3.59,16.62,16.62,0,0,1-4,2.24c-.75.21-1.53,0-2.29.16a27.05,27.05,0,0,0-3.15,1c-.95.3-1.93.46-2.88.74-.79.23-1.44.73-2.22,1a15.66,15.66,0,0,1-8-.17c-1-.29-2-.59-3-.91-.53-.18-1.47-.82-2-.77-.94.09-1.94,1.3-2.55,1.9a20.82,20.82,0,0,0-3.7,5,21.15,21.15,0,0,0-2.7,9c0,1.58.54,2.9.68,4.43.25,2.7-1.37,5.91-2.78,8.12-.72,1.13-1.16,2.41-1.87,3.5a17.5,17.5,0,0,1-5.78,4.89c-1.38.81-3.81,2.76-5.57,2.14-.18-.63.13-1.19.18-1.83-.95-.49-3.19,1.25-3.74,1.57-2.49,1.42-4.95,2.94-7.5,4.24a33.42,33.42,0,0,1-6.12,2.56,49,49,0,0,0-10,4c-4.87,2.54-9.81,4.91-14.7,7.42-1.56.8-4.52,1.7-5.46,3.43-.49.89,0,1.86.21,2.77a20.33,20.33,0,0,1,.72,5.33c0,4.16-.86,8.27-.75,12.43.09,3.57,2.39,3.87,4.89,5.68,1.93,1.4,4.07,3.33,4.77,5.7.65,2.19,1.43,2.9,3.8,3.39,1.8.37,3.61.65,5.39,1.1a6.56,6.56,0,0,0,3,.09c3.39-.62,6.83-.95,10.22-1.55a39.67,39.67,0,0,1,7.51-.87,31.17,31.17,0,0,0,5.09-.46c.67-.1,2.25-.69,2.81-.11.95,1-.93,3.61-1.25,4.14-1.32,2.2-3.16,5.32-5.21,7-1.61,1.31-4.69,1.83-6.65,2.15-1.48.24-1.87-.37-3.08-.81-2.35-.85-7.23,1.75-8.94,2.46a119.16,119.16,0,0,0-15.4,7.63c-2.8,1.68-5.59,3.42-8.21,5.36-2.84,2.09-6.43,4.5-7.55,8.07-1.33,4.22,2.09,8.2,3.63,11.81,2.32,5.4,1.68,11.16,1.68,16.89a26.39,26.39,0,0,1,0,4.17c-.33,1.9-2.24,3.78-3.39,5.12-1.58,1.86-3.23,3.65-5,5.39q-1.74,1.72-3.49,3.44a1.69,1.69,0,0,0-.78.91c-.33,1.75,1.88,4.34,3,5.25,1.92,1.55,4.67,2,7,2.18a13.17,13.17,0,0,1,4,.6c1.09.44,2,1.25,3.08,1.72a10.63,10.63,0,0,0,4.89.38c1.63-.1,3.49-.73,5.1-.43,2.16.41,2.95,2.13,3.56,4,.55,1.66,1.55,3.11,1.76,4.85.17,1.37.3,2.64.58,4,.56,2.65-.56,5.31-1.25,7.81-.49,1.75-1,3.51-1.38,5.29a12,12,0,0,0-.54,3.46,28.5,28.5,0,0,0,1,4.51c.29,1.2.37,3,1,4q1.2,1.82,3.47.65,5.6-1.68,11.08-3.7c3.33-1.1,6.68-2.26,10.06-3.2a17.28,17.28,0,0,1,4.92-.94,5.9,5.9,0,0,0,3.8-.94c3-1.73,5.41-6.16,7.28-9q3.62-5.82,6.64-11.95a16.42,16.42,0,0,0,2.15-7c-.15-2.08-1.5-3.44-2.27-5.27a8,8,0,0,1-.52-6.13,87,87,0,0,1,4.58-15.87c2-5.57,4.46-10.88,6.92-16.26.64-1.41,1-3.27,2.58-3.93l2.07-.19c2.44,0,4.89,0,7.32.22,2.63.29,6.88.82,8.87,3s2.27,5.9,2.49,8.67c.17,2.14,0,4.06,1.34,5.86s2.17,2.73,2.67,5c.92,4-.81,7.92.55,11.75a14.92,14.92,0,0,0,6-.35c2.2-.5,4.51-1.58,6.76-1.79a5.45,5.45,0,0,1,3.28.73c2.52,1.2,5.59.16,8.16-.45,4.06-1,8.07-2.1,12.14-3,2.39-.53,5-1.27,7.2-.07,2.88,1.54,4.32,5.3,6.12,8,2.87,4.26.27,9.62-1.33,14-.94,2.55-2.59,5.33-3,8a3.83,3.83,0,0,0,.78,3.59c.7.71,1.78,1.09,2.55,1.73s1.26,1.73,2,2.21c1.83,1.16,4-.07,5.79-.82l7.31-4.35q6.82-4.47,13.25-9.51c6.81-5.2,13.44-10.58,19.74-16.38.64-.58,1.64-1.84,2.53-2.07s1.6.11,2.54,0c3.48-.48,6.84-2.34,9.9-4a61.44,61.44,0,0,0,11.59-8.15c3.79-3.35,7.87-7.18,10.1-11.84a72,72,0,0,0,3.36-8.88l1.37-4.8.32-4c-.52-2.52-2.39-3.78-4.27-5.25-2.17-1.69-4.12-3.2-5.26-5.82-1.37-3.14-1.41-7-1.36-10.34,0-2.16.4-4.56-.66-6.47-1.72-3.11-7.87-.17-8.35-3.16-.62-3.89,6-4.82,9.41-6.78A100.88,100.88,0,0,1,493.55,179c5.32-1.88,13.05-5.23,18-1,3,2.54,7.28,1.73,10.17,5a13.77,13.77,0,0,1,3.55,9c.09,2.87-.8,5.73-.35,8.55,2,.7,3.92.42,6,.21a17.65,17.65,0,0,1,7.91.71,64.18,64.18,0,0,0,7.59,2.63c3.73.81,7.38.55,11.17.89,2.22.2,4.56.3,6.38,1.77,1.57,1.27,1.72,4.12,2.24,5.92.75,2.61,2.45,3.49,4.9,4.21l3.94.77q3.61-.1,4.17,2.91a3.21,3.21,0,0,1-.16,4.07,23.55,23.55,0,0,1-3.43,7.53c-1,1.9-2,3.8-2.93,5.74-.7,1.49-1.11,3-1.74,4.55a37.9,37.9,0,0,1-5.91,9,49,49,0,0,1-8.65,8.62c-2.18,1.6-4.42,3.14-6.68,4.62-.71.47-5.08,4.11-5.83,2.62-.39-.77.37-1.69.59-2.53a2.86,2.86,0,0,0-3.3-.58,36.1,36.1,0,0,0-7.91,1.36c-4.08.94-8.14,2-12.17,3.15-6,1.7-11.86,3.82-17.76,5.84a62.72,62.72,0,0,1-11.06,3.2,42.64,42.64,0,0,1-5.17.2c-1.4.05-2.05.76-3.07,1.74a76.17,76.17,0,0,0-7.25,8.38l-2.07,2.68a2.49,2.49,0,0,0-.88,3.13c5.47,1.63,11.65.14,16.85,2.79a13.28,13.28,0,0,1,3.74,3.15c1.52,1.63,3.12,1.95,5.3,1.88a31.27,31.27,0,0,0,6.81-.72l3.69,0c1.75.7,2.15,2.05,2.64,3.69.54,1.82,1,3.46,2.31,4.88,1.93,2,4.79,2.81,6.73,4.85a7.53,7.53,0,0,1,2,5.58c0,1.56-.27,3.07,1,4.06,2.26,1.76,5.51,1.2,8,2.27l3.33,1.78,2.21,3.56c1.68,3.77,1.81,8.36,2.52,12.4a12.81,12.81,0,0,1,.44,3c0,.59-.51,1.17-.12,1.74,6,1.37,12.36.59,18.44,1.44a21.49,21.49,0,0,1,7.36,1.84c.85.79,1.64,2,2.8,2,4.9.16,8.22-5.12,11.37-9q9.51-9.35,18.28-19.37a13.27,13.27,0,0,0,5.22-9.56,18.14,18.14,0,0,0-3.28-4.26,6.93,6.93,0,0,1,4.1-5.66,35.8,35.8,0,0,1,12.1-7.48,34.23,34.23,0,0,1,13.54-3.63A13.91,13.91,0,0,1,641,296l3.23,3.77q1.77,4.89,3.12,9.91l1.78,3.43c1.27,1.19,3.17,2,3.75,3.65s-.93,3.23-2.21,4.42c-1.31,1.71-3.78,3-4,5.1a1.53,1.53,0,0,0,.72,1.35c1.39.78,3.19-.16,4.78-.23a87.05,87.05,0,0,0,17.43-3.67,72.77,72.77,0,0,0,10-3.95c1-.49,5-1.54,4.44-2.78-.31-.64-2.18-.92-2.44-1.63l.2-2.53c.92-2.26,1.82-4.54,2.71-6.82,1-2.59,2-5.22,1.57-8-.39-2.42-1.73-4.42-2.85-6.59-1.77-3.47-1.89-6.82.54-10.22,1.38-1.94,3.69-4.7,5.92-5.76a11.8,11.8,0,0,1,4.75-.69c3.29-.15,6.57-.56,9.86-.65,2.57-.07,4.91.28,7.31-.79,3.85-1.71,7.2-4.58,10.39-7.27s7.49-5.92,9.14-10q1.7-1.91-.25-3.39a5.88,5.88,0,0,0-2.88-2.75,12.2,12.2,0,0,1-4.41-4.33l-.29-4,.95-4.14.34-3.37-2.09-2.23-4.75-1.55-5.42-1.74q-4.25-1.44-4.32-5.51a8.27,8.27,0,0,1-.14-5.76,25.14,25.14,0,0,1,1.3-6.37,54.78,54.78,0,0,1,3.63-10.2,27.53,27.53,0,0,1,3.84-5.72c.69-.81,1.72-2.42,3-2.33.58,0,.92.55,1.36.84a27.18,27.18,0,0,0,3.39,1.86,60.51,60.51,0,0,1,6,3.52c1,1.4,2.07,1.68,3.22.82a3.16,3.16,0,0,0,2.41-2.58,30.4,30.4,0,0,0,4.11-12.29,12.92,12.92,0,0,0,.15-6.59,5.13,5.13,0,0,0-1.62-4.71,6.19,6.19,0,0,0-4.56-3.36l-2.42-1c-1.2-1.08-.08-2.53.45-3.63a38.15,38.15,0,0,0,2.71-6.34c.72-2.53,1.1-5.13,2-7.63,2.12-6,7.15-10.74,10.67-15.91-.86-1-3.1.58-4.06,1l-5.2,2.19-4.72,1.08-2.31-2,.92-6,2.8-7.71,2.06-7-.74-2.86q-.53-5.43-6.33-7.51c-4-2.6-9.22-4.23-12.73-7.57-2.52-2.41-5-5-5.24-8.78l.18-4q.76-2.66-1.48-3.62c-2.27-1.69-5-2.42-7.53-3.69l-2.06-1c-2-1.36-2.57-3-1.76-5,.84-5.14,4.79-8.93,3.5-14.36-1.49-6.3,3.43-11.14,7.44-15.39,3.57-3.78,7.92-7,11.9-10.38,3-2.49,5.91-5.5,9.12-7.69,1.92-1.31,4.64-2.43,2.23-5l-2.27-1.3A38.34,38.34,0,0,0,721,14.68C716.52,13,712,11.41,707.41,9.81c-1.38-.48-2.77-.91-4.11-1.52A11.41,11.41,0,0,0,698,7.34a106.28,106.28,0,0,0-13.21,1.19c-3.69.45-7.43.49-11.11.93s-7.54,3.74-9,7.16c-.91,2.13,0,4.07.18,6.18.37,3.94-1.2,6.6-3.55,9.52l-5.16,4-5.33,2.55c-2.58.7-5.83,1.07-7.95-1.08a15,15,0,0,1-3.53-7.47c-.44-2.73.06-5.79-1-8.33-.73-1.73-2.19-2.68-3.53-3.95-1.81-1.72-2.62-4-3.62-6.22l-1-2.26a13.72,13.72,0,0,0-8.52-6.77l-3.71-1.61a10.13,10.13,0,0,0-9.37,1L606.31,3.3q-2.14,3.14.57,5.19c1.64,2.1,3.49,3.07,5.73,4.5,2,1.3,3.65,1.8,4.18,4.13a25.12,25.12,0,0,1-1.11,3.68c-.43,1.17-.81,2.35-1.14,3.56-1.69,3.25-5.09,5.62-8,7.49a84.14,84.14,0,0,1-15.94,8.41c-2.15.77-5.25,2.37-7.6,1.48-1.61-.62-3.28-1.63-4.84-2.29A53.25,53.25,0,0,1,571,36.07a24.08,24.08,0,0,1-8.07-8.14c-2.08-3.23-4-6.55-6.19-9.7S552,12.08,549.67,9c-.79-1-1.66-2.58-2.58-3.6-1.13-1.25-2.25-1.08-3.83-1-2.92.12-7.45,2.41-10,4.13a8.11,8.11,0,0,0-3.95,6.26c-.16,1.74,1.06,3.65,1.58,5.29a43.13,43.13,0,0,1,1,4.4c.25,1.17.57,2.33.82,3.5a6.89,6.89,0,0,1-.66,4.07,55.5,55.5,0,0,1-11.63,19.23c-5,5.12-13.67,9.93-20.85,6.51l-1.95-.93a12.92,12.92,0,0,1-3-4c-.23-.43-1-2.09-1.54-2.39s-1.06,0-1.73,0c-2.86-.2-5.44-6.34-5.82-7.79L485.1,39a30.57,30.57,0,0,1-.21-10.71l-1.27-4.73c-2.12-1.5-4.29-2.91-6.53-4.22L474.83,18a6.2,6.2,0,0,0-5.28-3.66q-5.35-2-10.56,1.94l-8.36,4.37-4.92,3.85-1.28,3c.16,2,2.36,3.17,2.92,5,.74,2.39-.34,4.64-1.24,6.85s-1.69,5-3.76,6.19c-.79.47-2.13.15-3,0A24,24,0,0,1,432,42.17c-2.63-1.74-4.6-4-6.9-6.1a26.58,26.58,0,0,0-5.86-4.55c-2.94-1.44-6.56-1.35-9.72-1.82C409.56,29.7,401,28.91,398.08,30.45Z"/><path id="Elysian_Katonia_3" data-name="Elysian Katonia 3" class="cls-1" d="M143.37,450.69c-2.41,3.48-2.56,8.31-2.62,12.4,0,3.09-2.69,3.22-5.24,3.43-4.15.35-7.15-1-10.56-3.16-6.42-4.11-13.74-.23-20.7,0a74.83,74.83,0,0,0-9.24.37c-.79.13-1.22,0-1.82.72a6.26,6.26,0,0,0-.5,1.37,31.92,31.92,0,0,1-3,5.34A50.61,50.61,0,0,1,82.52,480a16.72,16.72,0,0,1-3.12,2.69c-.92.52-1.44.28-2.41,0a25.56,25.56,0,0,0-4.75-1c-4.1-.55-8.18.16-12.14-1.18-3.34-1.13-5.77-3.86-9.14-4.66-4.12-1-8.34-.74-12.47-1.51-3.33-.63-6.26-2.86-9.53-3.75s-6.37,0-9.6.89a46.63,46.63,0,0,0-7.21,2.68c-1.49.67-1.85,1.29-2.46,2.82-1.61,4-3.25,8-4.83,12-1.34,3.42-2.31,7-3.39,10.46a25.6,25.6,0,0,0-1,4.65,73.22,73.22,0,0,0,1.36,10.11c1,3.55,1,7.86,2.87,11.09C6,527.42,8.87,528,11,529.08a7.93,7.93,0,0,1,2.8,2.63A6.24,6.24,0,0,0,15,533c.62.43,1,.21,1.25,1,.5,1.51-2.84,4.53-3.5,5.2-1.67,1.69-3.38,3.28-5.2,4.8a8.84,8.84,0,0,0-1.78,1.68c-.63,1-.68,3.23-.84,4.28-.36,2.24-.62,4.49-.8,6.75-.16,2.05-.38,4.55.38,6.54,1.77,4.64,7.36,6.37,11.82,7.34,4.91,1.07,10.41,1.62,15-.87,2.09-1.14,4-2.61,6-3.88a20,20,0,0,1,4.4-1.83c1.9-.67,2.71,0,4,1.36a10.86,10.86,0,0,0,1.28,1.34,17,17,0,0,0,2.37.82,2.88,2.88,0,0,1,1.43,1.34,3.78,3.78,0,0,1,.05,2.9c-.26,1.62-.57,3.24-.9,4.85-.57,2.81-.86,5.81-1.88,8.51-.53,1.38-1.15,2.74-1.71,4.11-.4,1-1.21,2.14-1.12,3.26,1.18,1.16,4.25.42,5.74.45,1.93,0,5.48-.09,7,1.31s.71,4.45.17,6.37a70.23,70.23,0,0,1-2.71,7.11c.75.6,1.81.25,2.67.68,2.54,1.25,2.37,5.92,2.41,8,.13,5.83-.78,11.79-1.24,17.59q-.37,4.65-.77,9.3c-.11,1.33,0,2.65-.18,4s-.73,2.82-.34,4c.46,1.46,2.21,1.48,3.48,1.6,3.11.29,5.93-.34,8.73,1.36,1.55.93,2.44,1.77,4.34,1.87a16.61,16.61,0,0,0,7.07-1.5c2.82-1.17,5.46-2,7.35-4.41,3.55-4.57,6.51-9.78,9.67-14.62,2.18-3.34,4.73-6.68,6.59-10.23a6.87,6.87,0,0,1,2.57-3.07,96.13,96.13,0,0,1,13.33-7.64c1.27-.61,2.92-1.71,4.39-1a20.06,20.06,0,0,1,2.64,2c1.36,1,2.9,1.51,4.22,2.55a27.25,27.25,0,0,1,4.18,4.86c.81,1,2.16,2.69,3.49,3.08,2,.56,4.88-1.43,6.54-2.17a32.57,32.57,0,0,0,4.68-2.27,33.5,33.5,0,0,0,6.18-6l2.54-3.13c1.12-1.43,2.18-2.9,3.2-4.41.84-2.06-.78-2.89-2.12-4.24-2.39-2.42-4.6-5.25-5.31-8.69a41.34,41.34,0,0,1-.54-8.38c0-2.11-.29-5,.28-7.11.45-1.65,2.09-1.6,3.58-1.75,2.32-.23,5.56-.59,7.82,0,2.87.76,3.4,2.81,4.53,5.15.83,1.74,3,1.44,4.65,1.71l3,.62a13.28,13.28,0,0,1,4.91,2.86c2.67,1.73,4.77,1,7.59-.37a34.11,34.11,0,0,0,9.15-6.48c1.68-1.69,3.06-3.34,1.67-5.74L200,573.91a40.15,40.15,0,0,1-6.56-4.8,12.59,12.59,0,0,1-3.63-8.51,27.45,27.45,0,0,1,0-6c.65-3.59,4.52-7.6,6.87-10a43.71,43.71,0,0,1,8.39-6.82,8.67,8.67,0,0,1,4.15-1.37c3.19-.36,6.35-.85,9.53-1.24,3.48-.43,6.78-.89,10.07.51a31.43,31.43,0,0,1,6.52,3.23c3.07,2.32,4.41,6.1,5.78,9.51.75,1.88,1.75,3.63,2.52,5.48.89,2.15.67,4.38,1.28,6.58,1.19,4.29,4.49,4.15,8.41,3.64a74.94,74.94,0,0,0,12.1-3,8.63,8.63,0,0,0,4.55-3.24,24.41,24.41,0,0,0,4.47-7.31,2.32,2.32,0,0,0-.07-2.33,9.41,9.41,0,0,1-1.71-3.06,19.11,19.11,0,0,1-.54-5.64c.05-2.25,1-5.36,0-7.54-.93-2-3.42-3.12-4.83-4.73a11.63,11.63,0,0,1-2.92-7.91c0-3.21,1.42-6.74.94-9.92l-.59-1.91a17,17,0,0,0-7.3-2.6c-4.23-1.08-9.26-1.7-12.89-4.4-4.21-3.13-6.22-8.75-7.31-13.64-1.41-6.34-1.1-12.29,1.71-18.22a38.43,38.43,0,0,1,7-9.76c1.27-1.35,2.28-2,2.46-4,.26-2.76-.59-5.83-3-7.46a13.78,13.78,0,0,0-9.15-.83,51.61,51.61,0,0,0-9.29,2.66,20.22,20.22,0,0,0-5.73,2.9,18.91,18.91,0,0,0-3,4q-2,3-3.77,6.12a32,32,0,0,1-2,3.65,14,14,0,0,1-4.6,3.43A60.47,60.47,0,0,1,197.43,474c-3.63,1.15-6.72,1.83-10.34.36a38.58,38.58,0,0,1-9.06-5.85c-2.95-2.38-5.38-5.44-7.95-8.2-1.7-1.83-3-3.6-5.22-4.82s-4.6-2.76-7-3.95C157.83,451.5,146.38,446.36,143.37,450.69Z"/><path id="Elysian_Katonia_4" data-name="Elysian Katonia 4" class="cls-1" d="M545.49,452.84c-4.81,3.63-11.06,4.45-15.8,8.32-2.12,1.74-6.15,3.92-6.42,6.95-.34,3.7,4.47,7.6,6.48,10.05,1.69,2.08,3.93,4.84,3.84,7.75a16.23,16.23,0,0,1-.74,5.25c-.68,1.63-2.58,3.5-3.79,4.79a28.45,28.45,0,0,1-7.51,6c-1.89,1-3,.53-5.36,1a8.84,8.84,0,0,0-3.62,1.74c-1.71,1.25-3.41,2.5-5.15,3.71a90.06,90.06,0,0,1-10.64,6.43,27.16,27.16,0,0,1-4.86,2.2c-1.05.31-4.8,1.24-4.46,2.2,1,2.85,6.92,1,9.71,1.3s5.53.4,7.89,1.9a7.31,7.31,0,0,1,2.69,2.6c.31.51.83,1.1,1.09,1.64.55,1.16.36,1.24.14,2.46-.69,3.75-1.82,7.46-2.42,11.21-.3,1.87-.43,2.87,1.55,3.62,1.37.52,3.11.2,4.36,1.07,2.48,1.72,1.36,5.56,1.5,8,.07,1.14-.1,1.33,1.31,1.66a21,21,0,0,0,4.73.12c3.16-.12,6.14-1.06,9.25.08a7.55,7.55,0,0,1,2.84,2.21c1.79,1.89,3.42,2.5,6.07,2.93,5.89,1,18.07-.36,17.9,8.44-.07,3.85-1,7.64-1.42,11.45-.2,1.77-.6,3.45-.89,5.19-.2,1.19,0,2.38-.21,3.57a12.36,12.36,0,0,1-1.62,4.58c-1.23,1.62-4,2.18-5.58,3.39a35.49,35.49,0,0,0-3.31,3.06c-.44.44-1.57,1.26-1.66,2-.11.89,1.8,1.23,2.2,1.36,3.75,1.23,7.49,2.48,11.28,3.56a36.83,36.83,0,0,1,13.21,6.46,23.46,23.46,0,0,1,4.56,4.67,9.14,9.14,0,0,0,1.86,2.41c2,1.36,4.28-.87,5.69-2.18,6-5.53,11.33-12.83,15.91-19.57a32,32,0,0,0,3.56-7.24c.94-2.56,3.23-3.46,5.74-4.37,5.66-2.07,13.13-3.49,18.72-.83,1.68.79,3.59,1.66,4.72,3.2,1.56,2.12,1.72,5.46,2.29,7.92a32.22,32.22,0,0,0,2.59,7.86c.92,1.68,1.76,1.79,3.24,2.65,2,1.16,1.42,2.57,1,4.46-1,4.35.21,7.87,4.14,10.22,5.51,3.3,12.57,4.1,18.58,6.08,3,1,5.7,2.43,8.74.86,5.9-3.05,8.35-10,9.62-16.08s1.65-11.66-.63-17.48c-2-5.08.51-9.39,1.62-14.36.38-1.66.84-3.2.06-4.87-.64-1.38-2.11-2.54-2.93-3.84-2.73-4.34-.73-11.11.29-15.52.84-3.64,1.62-7.64,3.12-11.07a15.65,15.65,0,0,1,4-5.79c3.6-3.23,9.75-3.92,14.39-4.51a86.46,86.46,0,0,1,13.37-.12,28.46,28.46,0,0,1,7.95,1.15c2.56.84,3.51,1.54,6.13.27a37.32,37.32,0,0,0,5.51-3.57c1.46-1,2.12-1.25,2.07-3.39-.05-2.39-2.41-6-3.45-8.19-2.6-5.44-5.15-11-8-16.28-2.76-5.09-6.25-10.19-7.22-16-.83-4.95-.91-10-1.3-15-.33-4.22-.56-7.41-4-10.06-1.47-1.15-3.44-3.05-5.49-3-2.34.09-4.91,1.92-6.91,2.9s-3,1.07-4.41,2.76c-2.17,2.52-4.25,5.1-6.48,7.57-1.37,1.51-4.64,3.43-4.13,5.52.34,1.4,2.12,1.88,2.72,3.63s-.58,3.67-1.19,5.1c-.89,2.06-1.59,4.16-2.37,6.25a28.86,28.86,0,0,1-1.64,4.11c-2.05,3.66-7.51,7.17-10.81,9.39-3.67,2.49-7.69,5.35-12,6.47-2,.52-4.32.43-6.25,1.11s-1.5,1.67-1.07,3.56c.76,3.33-.37,7.54-1.35,10.65-.54,1.68-1.64,3.77-1.17,5.58.4,1.53,2,2.35,2.84,3.6,2,3,1.23,6.85.39,10.1-.45,1.71-.58,3.86-2,5-3.08,2.39-8.43,1.09-11.65-.06-4.31-1.55-8-5.56-12.74-5.12a35.55,35.55,0,0,1-5.25.56c-3.62-.2-4.25-2.83-4.71-5.78-.56-3.61-.23-7.43-.6-11.08a25,25,0,0,0-3-9.37c-2.62-5-1.31-9.87.05-15,.34-1.3.85-2.34,1.25-3.58.52-1.66,0-2.75-.61-4.24-1.82-4.26-6-9.3-3.44-14,1.73-3.18,5.27-6,7.9-8.11a83.47,83.47,0,0,1,13.07-8.71c2.42-1.24,5-1.59,5.67-4.58,1.71-7.25-7.52-13.37-12.42-16.57a72.56,72.56,0,0,1-9.59-7.36c-3-2.71-8.08-3.23-11.79-4.35-6.35-1.92-13-3.16-19.66-1.49-4,1-8,2.23-12,3.24a46,46,0,0,0-11.29,4.22c-3.13,1.75-6.28,3.45-8.87,5.95S546.48,452.1,545.49,452.84Z"/></g></g></g></svg>