<?xml version="1.0" encoding="UTF-8" standalone="no"?>
<svg
   xmlns:dc="http://purl.org/dc/elements/1.1/"
   xmlns:cc="http://creativecommons.org/ns#"
   xmlns:rdf="http://www.w3.org/1999/02/22-rdf-syntax-ns#"
   xmlns:svg="http://www.w3.org/2000/svg"
   xmlns="http://www.w3.org/2000/svg"
   height="737.53986"
   width="881.15607"
   id="svg20"
   version="1.1"
   viewBox="0 0 881.1561 737.53983">
  <metadata
     id="metadata24">
    <rdf:RDF>
      <cc:Work
         rdf:about="">
        <dc:format>image/svg+xml</dc:format>
        <dc:type
           rdf:resource="http://purl.org/dc/dcmitype/StillImage" />
        <dc:title></dc:title>
      </cc:Work>
    </rdf:RDF>
  </metadata>
  <defs
     id="defs4">
    <style
       id="style2">
      .cls-1 {
        fill: none;
        stroke: #231f20;
        stroke-miterlimit: 10;
      }
    </style>
  </defs>
  <g
     transform="translate(1038.865,1193.2309)"
     id="Districts" />
  <path
     id="path20"
     d="m 400.16993,190.79964 c -1.05563,-3 -2.15449,-5.8806 -3.30078,-8.6582 -1.1463,-2.7777 -2.33989,-5.4527 -3.58008,-8.0372 -2.48038,-5.1688 -5.15201,-9.9798 -8.02735,-14.5507 -2.87533,-4.5709 -5.95388,-8.9014 -9.25,-13.1075 -3.29611,-4.206 -6.81,-8.2869 -10.55273,-12.3613 -3.74273,-4.0743 -7.71451,-8.1426 -11.92969,-12.3183 -4.21518,-4.1758 -8.67326,-8.4605 -13.38672,-12.9707 -9.42691,-9.020602 -19.87617,-18.943702 -31.45117,-30.701202"
     style="fill:none;stroke:#231f20;stroke-linecap:round;stroke-linejoin:round;stroke-opacity:1;paint-order:fill markers stroke" />
  <path
     id="path18"
     d="m 377.64068,281.05546 c -6.35562,6.9141 -12.64961,13.4603 -18.9082,19.6465 -6.2586,6.1862 -12.4821,12.0116 -18.70117,17.4824 -6.21908,5.4708 -12.43285,10.5875 -18.66993,15.3555 -6.23708,4.7679 -12.49795,9.188 -18.81054,13.2656 -6.3126,4.0776 -12.67742,7.8132 -19.12305,11.2129 -3.22281,1.6999 -6.46557,3.3149 -9.73242,4.8477 -3.26686,1.5327 -6.55692,2.9824 -9.875,4.3496 -3.31809,1.3672 -6.66451,2.6522 -10.04102,3.8554 -3.37651,1.2032 -6.78444,2.3245 -10.22656,3.3653 -3.44212,1.0408 -6.91868,2.0009 -10.43359,2.8808 -3.51492,0.8799 -7.06721,1.6798 -10.66211,2.4004 -3.59491,0.7206 -7.23198,1.361 -10.91407,1.9239 -3.68208,0.5628 -7.40909,1.0483 -11.18554,1.455 -7.55293,0.8134 -15.30183,1.3156 -23.27543,1.5137 -7.9735,0.1981 -16.1714,0.092 -24.623,-0.3125 -8.4516,-0.4047 -17.1573,-1.1084 -26.1445,-2.1035 -8.9873,-0.9951 -18.2575,-2.2826 -27.837901,-3.8555 -9.5805,-1.5728 -19.4701,-3.4302 -29.7012,-5.5683 -10.2311,-2.1382 -20.8029,-4.5571 -31.74215,-7.2481 -10.9393,-2.6909 -22.2463,-5.6555 -33.9512997,-8.8867"
     style="fill:none;stroke:#231f20;stroke-linecap:round;stroke-linejoin:round;stroke-opacity:1;paint-order:fill markers stroke" />
  <path
     id="path16"
     d="m 639.30087,199.61946 c -6.8075,-3.0988 -13.2296,-6.377 -19.3457,-9.74812 -6.1161,-3.371 -11.9267,-6.8353 -17.5118,-10.3027 -11.1701,-6.9349 -21.4391,-13.886 -31.4472,-20.1504 -5.0041,-3.1322 -9.9424,-6.0924 -14.8965,-8.793 -4.9541,-2.7006 -9.9238,-5.1413 -14.9883,-7.2343 -2.5322,-1.0466 -5.0878,-2.0075 -7.6777,-2.8692 -2.5899,-0.8616 -5.2133,-1.6245 -7.8809,-2.2793 -2.6676,-0.6547 -5.3792,-1.2011 -8.1445,-1.6269 -2.7653,-0.4259 -5.5856,-0.7313 -8.4688,-0.9063 -3.02621,-0.1837 -6.24777,-0.226 -9.66402,-0.062 -3.41625,0.1635 -7.02618,0.5334 -10.82618,1.1699 -3.8,0.6366 -7.79125,1.54 -11.96875,2.7754 -4.1775,1.2354 -8.54109,2.8017 -13.08984,4.7617 -4.54875,1.96 -9.28156,4.3147 -14.19531,7.125 -4.91375,2.8104 -10.00875,6.0768 -15.28125,9.8633 -5.2725,3.7866 -10.72266,8.0939 -16.34766,12.9825 -2.8125,2.4442 -5.6689,5.034 -8.56836,7.7773 -2.89945,2.7433 -5.8425,5.6391 -8.82812,8.6973 0.99,2.81312 1.76833,5.62772 2.35742,8.43162 0.58909,2.8039 0.98928,5.5968 1.22266,8.3691 0.23337,2.7724 0.29978,5.5235 0.22265,8.2422 -0.0771,2.7187 -0.2982,5.406 -0.64062,8.0489 -0.34243,2.6428 -0.80663,5.2424 -1.36914,7.7871 -0.56252,2.5447 -1.22354,5.0345 -1.96094,7.459 -1.47481,4.8488 -3.25313,9.4335 -5.15625,13.6679 -1.90313,4.2344 -3.93059,8.1183 -5.90039,11.5606 -1.96981,3.4422 -3.8818,6.4435 -5.55664,8.916 -3.34969,4.945 -5.74805,7.7734 -5.74805,7.7734 1.0075,0.7475 2.18438,2.0249 3.48047,3.7442 1.29609,1.7192 2.71023,3.8801 4.19336,6.3925 1.48312,2.5125 3.03492,5.377 4.60351,8.5039 1.5686,3.127 3.15454,6.5154 4.70704,10.0782 1.5525,3.5628 3.07101,7.2991 4.50585,11.1191 1.43485,3.8201 2.78633,7.7244 4.00196,11.6231 1.21562,3.8986 2.29656,7.7911 3.1914,11.5898 0.89485,3.7987 1.60368,7.5034 2.07618,11.0234"
     style="fill:none;stroke:#231f20;stroke-linecap:round;stroke-linejoin:round;stroke-opacity:1;paint-order:fill markers stroke" />
  <path
     id="path14"
     d="m 747.10387,217.74788 c -2.16261,-0.46616 -4.2352,-0.67317 -6.0101,-0.765 -2.4629,-0.1226 -5.3707,-0.1419 -8.6777,-0.1446 -3.307,0 -7.0139,0.011 -11.0762,-0.047 -4.0622,-0.058 -8.4803,-0.1881 -13.209,-0.4765 -4.7286,-0.2884 -9.7678,-0.7358 -15.0742,-1.4297 -5.3063,-0.6939 -10.8787,-1.6337 -16.6738,-2.9082 -5.7951,-1.2746 -11.8127,-2.8837 -18.0078,-4.9141 -3.0976,-1.0152 -6.241,-2.1361 -9.4219,-3.373 -3.1809,-1.237 -6.3992,-2.5897 -9.6523,-4.0703 -0.5194,9.485 -0.7332,18.4833 -0.6817,27.0527 0.052,8.5694 0.3683,16.7107 0.9082,24.4766 0.54,7.7658 1.304,15.1579 2.25,22.2324 0.9461,7.0744 2.074,13.8311 3.3438,20.3261 1.2698,6.4951 2.6803,12.7282 4.1914,18.7559 1.5111,6.0277 3.1229,11.849 4.793,17.5215 3.3402,11.345 6.9167,22.0911 10.3984,32.6875 1.7409,5.2982 3.4567,10.5587 5.1094,15.8379 1.6527,5.2791 3.2405,10.577 4.7226,15.9492 1.4822,5.3722 2.8587,10.8192 4.0879,16.3965 1.2292,5.5772 2.3112,11.2852 3.2051,17.1797 0.8939,5.8944 1.6,11.9751 2.0762,18.2988 0.4761,6.3237 0.7231,12.8909 0.6992,19.7559 -0.024,6.8649 -0.3194,14.02851 -0.9258,21.54683 -0.6064,7.51831 -1.5237,15.39007 -2.7949,23.67382"
     style="fill:none;stroke:#231f20;stroke-linecap:round;stroke-linejoin:round;stroke-opacity:1;paint-order:fill markers stroke" />
  <path
     id="path934-9"
     d="m 513.37115,0.50063765 c 1.8477,0.1584 3.675,0.4932 5.459,0.99999995 2.3,0.52 4.6111,0.9882 6.8711,1.6582 1.5586,0.4791 3.0478,1.1412 4.4394,1.9688 1.3916,0.8275 2.6845,1.8222 3.8496,2.9629 0.5931,0.5819 1.2547,1.0825 1.9688,1.4941 0.714,0.4117 1.4805,0.7335004 2.2812,0.9551004 2.1176,0.4042 4.2011,0.9718 6.2305,1.6992 1.085,0.485 1.9016,1.1874 2.5391,2.0274 0.6375,0.84 1.0959,1.8185 1.4609,2.8535 0.365,1.035 0.5794,2.1023 0.8457,3.1523 0.2662,1.05 0.5843,2.0819 1.1543,3.0469 0.5983,0.9829 1.279,1.9099 2.0351,2.7715 0.7562,0.8616 1.5875,1.6581 2.4844,2.3789 0.865,0.69 1.7942,1.3154 2.668,1.9941 0.8737,0.6788 1.692,1.4114 2.332,2.3164 0.5961,0.9451 1.0539,1.9635 1.3653,3.0254 0.3113,1.0619 0.4758,2.1679 0.4843,3.2852 0.235,3.795 0.345,7.5501 0.92,11.1914 0.2875,1.8206 0.6914,3.6126 1.2851,5.3672 0.5938,1.7545 1.3783,3.4706 2.4258,5.1406 1.4,2.23 3.0793,4.2494 4.5293,6.4394 1.59,2.39 3.0203,4.8599 4.8203,7.0899 0.6354,0.8292 1.3412,1.6004 2.1074,2.3047 0.7662,0.7043 1.593,1.3428 2.4727,1.9062 1.15,0.695 2.4051,1.0589 3.6738,1.3926 1.2688,0.3338 2.5509,0.637 3.7559,1.207 1.1014,0.5288 2.1522,1.1518 3.1425,1.8594 0.9904,0.7077 1.9203,1.5004 2.7774,2.3711 0.785,0.805 1.421,1.7347 2.0723,2.6484 0.6512,0.9138 1.3179,1.8108 2.1679,2.5508 1,0.87 2.1476,1.5065 3.3809,1.9473 1.2333,0.4408 2.5514,0.6867 3.8945,0.7773 1.3431,0.091 2.7115,0.026 4.041,-0.1543 1.3296,-0.1804 2.622,-0.4771 3.8145,-0.8496 0.605,-0.19 2.1562,-0.7311 3.5137,-1.4824 0.6787,-0.3756 1.3096,-0.8037 1.748,-1.2676 0.4384,-0.4639 0.6852,-0.9629 0.5977,-1.4804 -0.05,-0.29 -0.3899,-0.5989 -0.7774,-0.8789 -0.3875,-0.28 -0.8225,-0.5312 -1.0625,-0.7012 -1.0431,-0.5664 -2.0455,-1.2047 -3,-1.9102 -0.3637,-0.3129 -0.6619,-0.688 -0.8808,-1.1054 -0.219,-0.4175 -0.3596,-0.8764 -0.4102,-1.3536 -0.025,-0.575 0.2103,-1.1724 0.4141,-1.7636 0.2037,-0.5913 0.3765,-1.1766 0.2265,-1.7266 -0.1575,-0.5825 -0.5304,-0.9419 -1.0078,-1.1992 -0.4773,-0.2574 -1.0584,-0.413 -1.6328,-0.5899 -0.5744,-0.1768 -1.1413,-0.3737 -1.5898,-0.7148 -0.4486,-0.3411 -0.7789,-0.8262 -0.879,-1.5762 -0.115,-0.865 0.032,-1.7522 0.2891,-2.6172 0.2575,-0.865 0.6262,-1.7074 0.9512,-2.4824 0.9021,-1.9888 1.9417,-3.9101 3.1113,-5.748 1.1696,-1.8379 2.4691,-3.5924 3.8887,-5.252 1.655,-2.055 3.2972,-4.1653 5.1347,-6.039 0.9188,-0.9369 1.8856,-1.8154 2.9278,-2.5977 1.0422,-0.7823 2.1594,-1.4684 3.3769,-2.0234 1.71,-0.785 3.6272,-1.5978 5.586,-2.2403 1.9587,-0.6425 3.959,-1.1157 5.834,-1.2207 0.81,-0.045 1.6202,-0.1153 2.3339,0.023 0.3569,0.069 0.6897,0.1916 0.9864,0.3946 0.2967,0.2029 0.557,0.4878 0.7695,0.8828 0.3374,0.7438 0.8313,1.4052 1.4492,1.9394 0.6275,0.49 1.3408,0.8499 2.1016,1.1289 0.7608,0.2791 1.57,0.4778 2.3906,0.6465 1.6413,0.3375 3.3276,0.5547 4.7676,1.0547 1.1775,0.425 2.0551,1.0085 2.709,1.7129 0.6539,0.7044 1.086,1.53 1.3691,2.4375 0.2831,0.9075 0.4173,1.8973 0.4824,2.9316 0.065,1.0344 0.061,2.1123 0.061,3.1973 -0.059,2.1563 0.2183,4.3095 0.8203,6.3809 0.873,2.1316 1.9058,4.194 3.0899,6.1699 0.565,1.105 1.1715,2.1258 1.709,3.1758 0.5375,1.05 1.006,2.1285 1.291,3.3535 0.44,2.04 0.8394,4.1308 1.4394,6.1308 0.145,0.7051 0.382,1.3843 0.7032,2.0215 0.3211,0.6373 0.7265,1.2316 1.207,1.7676 0.58,0.56 1.2194,0.8626 1.9082,1.0488 0.6888,0.1863 1.4262,0.2566 2.2012,0.3516 1.525,0.195 4.0563,0.4098 6.2988,1.0586 1.1213,0.3244 2.1704,0.7586 2.9863,1.3515 0.408,0.2965 0.7563,0.6326 1.0274,1.0157 0.271,0.383 0.4648,0.8124 0.5586,1.2949 0.2,1.025 0.044,1.9447 0.1875,2.6172 0.072,0.3362 0.2185,0.61 0.5215,0.8047 0.3029,0.1947 0.7634,0.3106 1.4609,0.3281 1.24,0.035 2.7001,0.1326 4.0801,0.4414 0.69,0.154402 1.3601,0.362002 1.9726,0.640602 0.6125,0.2786 1.167,0.6284 1.627,1.0684 0.92,0.88 1.4979,1.9312 2.0254,3.0137 0.5275,1.0825 1.0046,2.1953 1.7246,3.1953 0.6798,1.0067 1.4606,1.9426 2.3301,2.791 0.6646,0.4788 1.2288,1.0829 1.6601,1.7793 0.2783,0.6376 0.418,1.3188 0.418,2 0,0.6812 -0.1397,1.3624 -0.418,2 -0.4043,1.2933 -0.9174,2.5473 -1.5312,3.75 -0.6139,1.2026 -1.3285,2.3533 -2.1387,3.4394 -1.14,1.56 -2.5377,3.3772 -3.6289,5.3047 -0.5456,0.9638 -1.0139,1.9567 -1.336,2.957 -0.322,1.0004 -0.4975,2.0098 -0.455,3.0098 0.027,0.715 0.2661,1.3438 0.6406,1.9082 0.3745,0.5644 0.8839,1.0637 1.457,1.5137 1.1463,0.9 2.5418,1.6076 3.5918,2.2676 0.84,0.53 1.4994,1.1714 2.1719,1.7851 0.6725,0.6138 1.358,1.2003 2.248,1.6153 2.5069,0.9877 4.9437,2.1459 7.2911,3.4687 1.09,0.715 1.9173,1.5446 2.6211,2.4746 0.7037,0.93 1.2839,1.9612 1.8789,3.0762 0.485,0.9 1.0837,1.734 1.5625,2.6152 0.4787,0.8813 0.8359,1.8096 0.8359,2.8946 -0.01,1.735 -0.4139,3.5031 -0.9727,5.2343 -0.5587,1.7313 -1.2671,3.4257 -1.8671,5.0157 -0.4801,1.285 -0.8597,2.6125 -1.2735,3.9238 -0.4137,1.3112 -0.8615,2.6062 -1.4765,3.8262 -0.5803,1.2457 -1.2503,2.4451 -2.004,3.5898 -0.7536,1.1447 -1.5908,2.2344 -2.5058,3.2598 l -1.3399,-2.9004 c -0.3322,0.9111 -0.5295,1.8603 -0.5918,2.8183 -0.062,0.9581 0.011,1.9266 0.2227,2.8731 -0.1113,0.7248 -0.012,1.4489 0.2656,2.0976 0.2776,0.6488 0.7329,1.2225 1.334,1.6426 0.6645,1.0484 1.5235,1.9423 2.5195,2.6426 0.9961,0.70032 2.1285,1.20612 3.3399,1.47662 l 2.3398,1.0703 c 2.88,1.36 5.6914,2.8496 8.6114,4.0996 2.23,0.95 4.5293,1.6605 6.7793,2.5605 1.9086,0.663 3.7139,1.5705 5.373,2.6934 1.6591,1.1229 3.1712,2.4608 4.4961,3.9863 1.57,1.92 2.7206,3.9199 4.1406,5.9199 0.8463,1.1966 1.7732,2.3249 2.7735,3.3789 1.6631,1.7526 3.5278,3.2987 5.5507,4.6075 2.023,1.3087 4.2051,2.3804 6.5059,3.1836 1.2189,0.4693 2.472,0.8398 3.7461,1.1074 1.2741,0.2675 2.5683,0.4316 3.873,0.4922 2.343,-0.064 4.6803,-0.2638 7,-0.5996 1.415,-0.14 3.3453,-0.3935 5.1954,-0.3047 0.9249,0.044 1.83,0.1755 2.6406,0.4472 0.8106,0.2718 1.5267,0.6844 2.0742,1.2969 0.8899,1.1736 1.6612,2.433 2.3008,3.7598 0.7908,1.4007 1.7872,2.6643 2.9472,3.7519 1.1601,1.0876 2.4849,2.0003 3.9336,2.6992 0.605,0.2725 1.2609,0.4014 1.9434,0.4356 0.6825,0.034 1.3916,-0.027 2.1016,-0.1328 1.42,-0.2113 2.8442,-0.6032 4.0742,-0.7832 4.35,-0.64 8.7405,-0.9293 13.0605,-1.7793 0.635,-0.125 1.5043,-0.4288 2.3731,-0.6113 0.8687,-0.1825 1.7372,-0.2437 2.3672,0.1113 0.22,0.12 0.6298,0.83 0.8398,1 0.4604,0.3323 0.9808,0.5543 1.5254,0.6601 0.5445,0.1059 1.1127,0.095 1.6641,-0.041 4.08,-0.41 8.0699,-1.3592 12.1699,-1.6992 1.85,-0.155 3.7418,-0.2175 5.6094,-0.062 1.8675,0.155 3.7109,0.5272 5.4609,1.2422 2.0708,0.8978 4.0757,1.9395 6,3.1191 2,1.18 4.0545,2.416 5.957,3.836 0.9513,0.71 1.8638,1.4664 2.7129,2.2851 0.8491,0.8188 1.6351,1.7002 2.3301,2.6602 0.885,1.225 1.4598,2.5922 1.8144,4.043 0.3547,1.4507 0.4885,2.9853 0.4922,4.541 0.01,3.1112 -0.5061,6.3102 -0.8261,9.1152 -0.18,1.585 -0.3138,3.0223 -0.2188,4.416 0.095,1.3938 0.4184,2.7443 1.1484,4.1543 0.82,1.58 1.719,3.0989 2.629,4.6289 1.3699,2.325 2.9089,4.5659 4.4277,6.8184 1.5187,2.2525 3.0175,4.5176 4.3125,6.8926 0.8731,1.713 1.5935,3.496 2.1523,5.3281 0.5588,1.832 0.9559,3.7123 1.1875,5.6211 0.305,1.96 0.5605,3.8751 0.4492,5.7363 -0.056,0.9306 -0.2021,1.8493 -0.4804,2.752 -0.2783,0.9026 -0.6876,1.7896 -1.2676,2.6621 -0.8887,1.2275 -1.8827,2.3731 -2.9668,3.4238 -1.0841,1.0507 -2.2589,2.0076 -3.5137,2.8574 -0.5326,0.4189 -1.1137,0.767 -1.7285,1.0391 -0.6148,0.2721 -1.2635,0.4674 -1.9316,0.5801 -2.0857,0.1893 -4.1512,0.5299 -6.1817,1.0195 -2.0304,0.4896 -4.026,1.128 -5.9687,1.9102 -3.2092,1.4225 -6.302,3.0943 -9.25,5 -1.1037,0.5529 -2.1566,1.1981 -3.1485,1.9257 -0.9918,0.7276 -1.9223,1.5371 -2.7812,2.4239 l -2.4805,2.2109 c -0.54,0.7425 -0.8808,1.3566 -1.0547,1.8867 -0.1739,0.5302 -0.1796,0.9767 -0.053,1.3848 0.1269,0.4081 0.3877,0.7779 0.75,1.1543 0.3624,0.3764 0.825,0.7583 1.3575,1.1933 2.5232,2.1186 5.2269,4.0127 8.08,5.6602 1.53,0.865 3.0279,1.8522 4.5567,2.7734 1.5287,0.9213 3.0891,1.777 4.7441,2.377 1.1218,0.4252 2.3243,0.5929 3.5196,0.4902 1.48,-0.13 3.0605,-1.0508 4.5605,-1.1308 l -106.7307,202.7208 -77.9765,-44.7286 L 408.40045,355.12966 183.10942,737.03986 6.0898993,616.82896 3.0819993,356.63556 0.49999925,133.45974 c 1.12000005,0.29 1.99240005,0.7908 2.96490005,1.1758 0.4862,0.1925 0.9984,0.3548 1.5781,0.4492 0.5797,0.094 1.2263,0.1202 1.9863,0.035 1.67,-0.17 3.4032997,-0.5582 5.1132997,-1.0019 1.71,-0.4438 3.3985,-0.9429 4.9785,-1.3379 3.645,-0.9125 7.7401,-2.0414 12.002,-2.9922 2.1309,-0.4754 4.3034,-0.907 6.4824,-1.2442 2.179,-0.3371 4.36329,-0.5793 6.51949,-0.6796 2.1563,-0.1004 4.283,-0.057 6.3457,0.1777 2.0627,0.235 4.0625,0.6611 5.961,1.3301 1.8984,0.669 3.696,1.5798 5.3593,2.7812 0.8317,0.6007 1.6291,1.275 2.3887,2.0274 0.7596,0.7523 1.4814,1.5837 2.1602,2.5 0.76,1.0325 1.3647,2.184 1.8418,3.4101 0.477,1.2261 0.8275,2.5253 1.0781,3.8496 0.5012,2.6488 0.606,5.3992 0.541,7.8692 0,1.7509 -0.147,3.4952 -0.4414,5.2148 -0.2944,1.7196 -0.7343,3.4157 -1.3184,5.0664 -0.785,2 -1.6529,3.7644 -2.3242,5.5781 -0.3356,0.9069 -0.6216,1.8263 -0.8242,2.793 -0.2027,0.9667 -0.3223,1.9806 -0.3223,3.0781 0.01,2.47 0.4395,4.9202 0.4395,7.4102 0.01,2.33 0.041,4.7731 -0.051,7.2031 -0.091,2.43 -0.3086,4.847 -0.8086,7.12702 -0.1875,0.8925 -0.5188,1.854 -0.9492,2.8359 -0.4305,0.9819 -0.96,1.9845 -1.5469,2.957 -1.1738,1.945 -2.5735,3.771 -3.8535,5.086 -1.155,1.19 -2.509,2.0903 -3.8965,2.9453 -1.3875,0.855 -2.8085,1.6658 -4.1035,2.6758 -1.295,1.01 -3.1213,2.289 -4.4688,3.789 -0.6737,0.75 -1.228,1.5564 -1.5371,2.4102 -0.309,0.8537 -0.3719,1.7562 -0.064,2.7012 0.7353,1.7086 1.7491,3.2835 3,4.6601 0.9388,1.1063 1.9738,2.0679 3.086,2.916 1.1121,0.8482 2.3012,1.5828 3.5468,2.2305 2.4913,1.2953 5.2092,2.2472 7.9942,3.0859 2.785,0.8388 5.6377,1.5635 8.3965,2.4063 2.7587,0.8428 5.4234,1.8038 7.8359,3.1113 1.5559,0.7847 3.007,1.7288 4.334,2.8106 1.3269,1.0817 2.5291,2.3007 3.5898,3.6328 1.0607,1.332 1.9792,2.777 2.7363,4.3125 0.7572,1.5355 1.3532,3.1613 1.7696,4.8535 0.385,1.4225 0.6121,2.7673 0.7168,4.0723 0.1047,1.305 0.087,2.5695 -0.012,3.832 -0.1975,2.525 -0.7235,5.0407 -1.2735,7.8457 -0.33,1.775 -0.2108,3.4726 -0.068,5.1738 0.1425,1.7013 0.3084,3.4053 0.068,5.1953 -0.26,1.905 -0.873,3.8035 -1.4043,5.711 -0.2656,0.9537 -0.5108,1.9101 -0.6816,2.8711 -0.1708,0.9609 -0.2669,1.9259 -0.2344,2.8984 0.064,1.7351 0.2913,3.4564 0.6797,5.1406 0.3884,1.6843 0.9383,3.3321 1.6406,4.9199 0.3925,0.8125 0.8985,1.557 1.4805,2.252 0.582,0.695 1.2391,1.3401 1.9297,1.9551 1.3812,1.23 2.8985,2.3376 4.2285,3.4726 2.8743,2.5615 5.907001,4.9387 9.080101,7.1192 3.572,2.3551 7.0143,4.903 10.31053,7.6308 0.6475,0.52 1.387,0.9028 2.1778,1.2071 0.7907,0.3042 1.6332,0.5289 2.4863,0.7382 1.7062,0.4188 3.4558,0.7702 4.9258,1.5352 1.47,0.765 2.5822,1.1595 3.7422,1.3633 1.16,0.2037 2.3673,0.2168 4.0273,0.2168 3.83,0.02 7.5196,-0.7598 11.3496,-0.7598 0.8475,0 1.6385,-0.1359 2.3887,-0.3672 0.7501,-0.2312 1.4603,-0.5583 2.1484,-0.9433 1.3763,-0.77 2.6639,-1.7695 4.0039,-2.6895 1.4543,-1.0527 2.8524,-2.1803 4.1875,-3.3769 1.3352,-1.1967 2.6074,-2.4622 3.8125,-3.793 1.405,-1.465 2.5353,-3.1213 3.6778,-4.7676 1.1425,-1.6462 2.2969,-3.2829 3.7519,-4.7129 1.5675,-1.5425 3.1967,-2.8059 4.8867,-3.7851 1.69,-0.9792 3.4414,-1.6738 5.2539,-2.0782 1.8125,-0.4043 3.6861,-0.5199 5.6211,-0.3378 1.93503,0.182 3.93083,0.6614 5.98833,1.4414 1.78,0.67 3.3625,1.5265 4.9688,2.3203 1.6062,0.7937 3.2363,1.5244 5.1113,1.9394 1.74,0.375 3.5305,0.3724 5.3105,0.1524 1.78,-0.22 3.55,-0.6574 5.25,-1.1524 0.85,-0.2475 1.5573,-0.5613 2.1758,-0.9316 0.6184,-0.3703 1.1474,-0.7972 1.6387,-1.2735 0.9825,-0.9525 1.814,-2.1 2.914,-3.375 1.8395,-1.9612 3.4783,-4.1025 4.8906,-6.3906 1.4293,-2.4035 2.6706,-4.9141 3.711,-7.5097 0.425,-1.145 0.5272,-2.3982 0.5234,-3.6719 0,-1.2738 -0.1133,-2.5688 -0.1133,-3.7988 -0.02,-1.815 -0.01,-3.6117 0.3887,-5.2754 0.1975,-0.8319 0.4913,-1.6304 0.9219,-2.3809 0.4306,-0.7505 0.998,-1.4537 1.748,-2.0937 1.725,-1.505 3.691,-2.7567 5.7422,-3.8692 2.0513,-1.1125 4.1878,-2.0843 6.2578,-3.0293 1.185,-0.54 2.3528,-0.8842 3.5137,-1.0859 1.1609,-0.2017 2.3148,-0.262 3.4785,-0.2363 2.3275,0.051 4.6875,0.4471 7.1875,0.7421 3.9,0.46 7.6818,0.3802 11.5918,0.6602 4.79,0.35 9.3985,0.709 14.2285,0.709 3.9266,-0.1606 7.8594,4e-4 11.7598,0.4804 0.99,0.15 2.0651,0.4945 3.1426,0.7833 1.0775,0.2887 2.1582,0.5222 3.1582,0.4472 0.8775,-0.072 1.7554,-0.292 2.6269,-0.6015 0.8716,-0.3096 1.7375,-0.7095 2.5938,-1.1426 1.7125,-0.8663 3.3835,-1.8669 4.9785,-2.5469 2.155,-0.915 4.3265,-1.7525 6.4277,-2.7187 2.1013,-0.9663 4.1337,-2.0603 6.0137,-3.4903 1.735,-1.335 3.5637,-2.8433 5.1699,-4.5371 0.8031,-0.8469 1.5517,-1.7399 2.2031,-2.6816 0.6515,-0.9418 1.207,-1.9327 1.627,-2.9727 0.86,-2.07 1.19,-4.3199 2,-6.4199 0.755,-1.955 2.2598,-4.4136 3.416,-6.9336 0.5781,-1.26 1.0695,-2.5352 1.336,-3.7695 0.2664,-1.2344 0.3082,-2.4279 -0.012,-3.5254 -0.3,-1.04 -0.9008,-1.8442 -1.4258,-2.6817 -0.2625,-0.4187 -0.5055,-0.8461 -0.6836,-1.3164 -0.1781,-0.4703 -0.291,-0.9822 -0.291,-1.5722 -0.023,-1.07 0.12,-2.1117 0.3476,-3.1387 0.2277,-1.027 0.5393,-2.041 0.8574,-3.0567 0.3182,-1.0156 0.6418,-2.0325 0.8907,-3.0683 0.2489,-1.0358 0.4233,-2.0902 0.4433,-3.1777 0.06,-3.17 0.18,-6.5202 0,-9.6602 -0.058,-0.955 -0.2651,-1.7948 -0.5918,-2.5508 -0.3267,-0.7559 -0.7728,-1.42722 -1.3047,-2.04102 -1.0637,-1.2275 -2.4726,-2.2266 -3.9726,-3.2266 -2.72,-1.815 -5.387,-3.7 -8.0957,-5.5175 -2.7088,-1.8175 -5.4588,-3.5683 -8.3438,-5.1133 -1.645,-0.88 -3.2543,-1.6651 -4.8554,-2.3067 -1.6011,-0.6415 -3.1943,-1.139 -4.8086,-1.4453 -1.6144,-0.3062 -3.2507,-0.4208 -4.9356,-0.2949 -1.6848,0.1259 -3.4179,0.4915 -5.2304,1.1465 -1.635,0.59 -3.3631,1.1697 -5.1231,1.5547 -1.76,0.385 -3.5534,0.5767 -5.3183,0.3867 -0.905,-0.09 -1.7267,-0.3814 -2.5567,-0.6289 -0.83,-0.2475 -1.6685,-0.4511 -2.6035,-0.3711 -1.1125,0.095 -2.4246,0.2565 -3.7988,0.5215 -1.3743,0.265 -2.8097,0.6322 -4.1641,1.1347 -1.3544,0.5025 -2.6287,1.1418 -3.6816,1.9493 -0.5265,0.4037 -0.9982,0.8491 -1.3965,1.3418 -0.3984,0.4926 -0.724,1.0311 -0.959,1.6211 -0.5675,1.4275 -0.8983,2.9343 -1.1133,4.4785 -0.215,1.5442 -0.313,3.1262 -0.418,4.7031 -0.105,1.57692 -0.2156,3.15032 -0.4531,4.67582 -0.2375,1.5254 -0.6023,3.0026 -1.2148,4.3926 -0.4173,0.8994 -0.9765,1.7183 -1.6504,2.4277 -0.674,0.7094 -1.463,1.3106 -2.3399,1.7734 -1.69,1.03 -3.2276,2.2467 -4.7539,3.4805 -1.5262,1.2337 -3.0405,2.4851 -4.6855,3.5801 -1.2896,0.8855 -2.6823,1.5999 -4.1406,2.1308 -1.4584,0.5309 -2.982,0.8766 -4.5391,1.0274 -0.75,0.072 -1.4491,0.023 -2.1172,-0.1035 -0.6681,-0.1269 -1.3055,-0.3314 -1.9355,-0.5664 -1.26,-0.47 -2.4875,-1.065 -3.8575,-1.42 -3.84,-1 -7.5596,-1.9593 -11.3496,-3.2793 -1.715,-0.6 -3.7912,-1.5194 -5.875,-2.1582 -1.0418,-0.3193 -2.0855,-0.5682 -3.0879,-0.6718 -1.0023,-0.1036 -1.9628,-0.063 -2.8378,0.1992 -1.3978,0.3888 -2.7054,1.0493 -3.8497,1.9414 -1.5,1.135 -3.13,2.2448 -4.8476,3.289 -1.7177,1.0443 -3.5238,2.0227 -5.3769,2.8946 -1.8532,0.8719 -3.7538,1.6359 -5.6602,2.2539 -1.9064,0.618 -3.8178,1.0886 -5.69533,1.3711 -1.1557,0.1227 -2.3182,0.1 -3.459,-0.068 -1.1407,-0.168 -2.2607,-0.4809 -3.332,-0.9317 -0.5925,-0.2175 -1.1112,-0.5119 -1.5801,-0.8652 -0.4689,-0.3533 -0.8873,-0.7653 -1.2754,-1.2109 -0.7762,-0.8913 -1.4345,-1.9239 -2.1445,-2.9239 -0.945,-1.305 -2.0923,-2.997 -3.416,-4.4882 -0.6619,-0.7457 -1.3666,-1.4404 -2.1133,-2.0118 -0.7467,-0.5714 -1.5344,-1.0195 -2.3594,-1.2695 -0.655,-0.19 -1.2976,-0.208 -1.9316,-0.1367 -0.6341,0.071 -1.2596,0.2323 -1.8809,0.4023 -0.6212,0.17 -1.2389,0.3489 -1.8555,0.4551 -0.6165,0.1063 -1.2335,0.1395 -1.8535,0.02 -1.41,-0.28 -2.5889,-1.4091 -4.1289,-1.8691 -1.33,-0.41 -2.3048,-0.6316 -3.1836,-1.0078 -0.8787,-0.3763 -1.6624,-0.9084 -2.6074,-1.9434 -0.8851,-1.0161 -1.6552,-2.1247 -2.2988,-3.3086 -0.89,-1.515 -1.938,-2.8081 -3.043,-4.0469 -1.105,-1.23872 -2.2667,-2.42462 -3.3867,-3.72462 -0.7482,-0.7607 -1.3887,-1.6138 -1.9082,-2.5351 -0.5195,-0.9214 -0.9179,-1.9095 -1.1816,-2.9434 -0.265,-1.46 -0.3227,-2.921 -0.4102,-4.3848 -0.088,-1.4637 -0.2048,-2.9312 -0.5898,-4.4062 -0.255,-0.9675 -0.5995,-1.826 -1.0137,-2.6113 -0.4142,-0.7854 -0.9001,-1.4976 -1.4395,-2.1739 -1.0787,-1.3525 -2.373,-2.559 -3.748,-3.914 -0.805,-0.795 -1.8181,-1.5663 -2.6231,-2.4375 -0.4025,-0.4357 -0.7531,-0.8964 -1,-1.3985 -0.2468,-0.502 -0.3894,-1.0445 -0.3769,-1.6445 0.013,-0.6 0.1827,-1.1449 0.4551,-1.6465 0.2723,-0.5015 0.6464,-0.9599 1.0683,-1.3887 0.8438,-0.8575 1.8763,-1.5944 2.6563,-2.3144 3.76,-3.48 7.4205,-7.0302 11.0605,-10.6602 1.045,-1.045 2.2119,-2.5836 3.5156,-3.8711 0.6519,-0.6437 1.3389,-1.2244 2.0606,-1.6504 0.7217,-0.4259 1.4784,-0.6962 2.2734,-0.7187 1.79,-0.05 3.6104,0.061 5.4004,0.061 1.2266,0.033 2.4451,-0.1048 3.6231,-0.4043 1.1779,-0.2995 2.3152,-0.7619 3.3769,-1.377 0.675,-0.395 1.6246,-1.0092 2.4746,-1.6992 0.85,-0.69 1.6,-1.4554 1.875,-2.1504 0.23,-0.575 0.2607,-1.1579 0.1543,-1.7363 -0.1064,-0.5784 -0.3504,-1.1533 -0.666,-1.707 -0.6312,-1.1075 -1.5528,-2.1366 -2.2578,-2.9766 -2.08,-2.49 -4.15,-5.07 -6,-7.75 -1.495,-2.17 -2.6333,-4.5568 -3.7383,-6.9668 -1.105,-2.41 -2.176,-4.8435 -3.541,-7.1035 -0.6225,-1.03 -1.3477,-1.9373 -2.1191,-2.7852 -0.7715,-0.8478 -1.5893,-1.635 -2.4024,-2.4238 -0.8131,-0.788702 -1.6215,-1.578802 -2.3691,-2.431602 -0.7477,-0.8528 -1.4348,-1.7686 -2.0098,-2.8086 -0.6175,-1.1175 -1.0626,-2.2054 -1.3809,-3.2871 -0.3182,-1.0817 -0.5093,-2.1582 -0.625,-3.25 -0.2312,-2.1838 -0.1543,-4.4336 -0.1543,-6.9336 0.034,-1.1274 -0.017,-2.2546 -0.1523,-3.3711 -0.1354,-1.1165 -0.3559,-2.222 -0.6582,-3.3086 -0.15,-0.515 -0.4122,-1.1104 -0.6172,-1.7129 -0.205,-0.6025 -0.3534,-1.2128 -0.2734,-1.7578 0.077,-0.5225 0.2607,-0.9642 0.5176,-1.3457 0.2568,-0.3816 0.5893,-0.7031 0.9668,-0.9844 0.755,-0.5625 1.6911,-0.9641 2.5761,-1.3691 1.4803,-0.7255 3.0104,-1.3405 4.5762,-1.8418 1.5658,-0.5014 3.1685,-0.8891 4.7949,-1.1582 0.795,-0.087 1.5244,-0.075 2.2149,0.02 0.6904,0.094 1.3421,0.2705 1.9765,0.5136 1.2688,0.4863 2.4736,1.2372 3.8086,2.1172 l 0.6094,-0.1504 c 0.1692,0 0.3364,0.039 0.4902,0.1094 l 0.6797,0.1602 c 0.56,0.11 1.1409,0.2307 1.7109,0.3007 l 1.5996,0.1895 c 0.31,0.04 0.6197,0.1404 0.9297,0.1504 0.31,0.01 0.62,-0.08 0.92,-0.08 v 1 c 1.151,0.3068 2.267,0.7319 3.33,1.2695 0.63,0.39 1.1991,0.851 1.7891,1.291 0.6815,0.5921 1.425,1.1034 2.2148,1.5293 0.7899,0.426 1.6269,0.7656 2.4961,1.0098 1.035,0.19 1.9567,0.2076 2.7969,0.08 0.8402,-0.1275 1.5985,-0.3991 2.3066,-0.7891 0.7082,-0.39 1.365,-0.8986 2.004,-1.4961 0.6389,-0.5975 1.26,-1.2851 1.8925,-2.0351 0.9324,-0.9738 2.0463,-1.7314 3.26373,-2.2422 1.2174,-0.5108 2.5387,-0.7748 3.8867,-0.7578 0.7501,0.04 1.4928,0.1569 2.2188,0.3496 0.58,0.09 1.3699,-0.08 1.9199,0.09 0.465,0.145 0.9198,0.6665 1.3223,1.2402 0.4025,0.5738 0.7528,1.2006 1.0078,1.5606 0.8595,1.3304 1.7887,2.6151 2.7812,3.8496 0.88,1 1.9287,1.75 3.0625,2.375 1.1337,0.625 2.3514,1.125 3.5664,1.625 1.13,0.455 2.3098,0.9964 3.5098,1.4726 1.2,0.4763 2.4208,0.8879 3.6308,1.0879 0.69,0.115 1.3808,0.1292 2.0664,0.066 0.6856,-0.063 1.3657,-0.2022 2.0332,-0.3984 1.335,-0.3925 2.6208,-1.008 3.8008,-1.668 0.72,-0.44 1.5803,-0.8749 2.4141,-1.3574 0.8337,-0.4825 1.6408,-1.0126 2.2558,-1.6426 0.7062,-0.8815 1.2146,-1.9046 1.4903,-3 0.9518,-2.9723 2.0909,-5.8824 3.4101,-8.7109 0.725,-1.5662 1.6433,-3.0253 2.7305,-4.3477 1.0871,-1.3224 2.3419,-2.5073 3.7383,-3.5215 1.5407,-1.1221 3.2168,-2.0285 4.9824,-2.7011 1.7656,-0.6726 3.6207,-1.1115 5.5176,-1.2989 1.2694,-0.2194 2.5565,-0.2566 3.8242,-0.1152 1.2677,0.1414 2.5171,0.4613 3.707,0.9551 0.8517,0.4959 1.6544,1.0653 2.4024,1.7012 0.7479,0.6358 1.4399,1.3388 2.0664,2.0996 1.1719,1.4017 2.4394,2.7184 3.791,3.9414 1.3516,1.2229 2.7872,2.3525 4.2988,3.3789 1.12,0.73 2.3977,1.4592 3.4902,2.3554 0.5463,0.4482 1.0461,0.9382 1.4571,1.4903 0.4109,0.552 0.7338,1.1658 0.9238,1.8633 0.19,0.6975 0.2448,1.4116 0.2207,2.1347 -0.024,0.7231 -0.1282,1.455 -0.2519,2.1875 -0.2475,1.465 -0.5791,2.9329 -0.5391,4.3379 0.05,1.61 0.2598,3.1808 0.2598,4.8008 -0.01,2.13 -0.08,4.27 -0.088,6.4062 -0.01,2.1363 0.053,4.2679 0.3183,6.3829 0.05,0.385 0.123,1.1547 0.3242,1.8847 0.1007,0.365 0.2319,0.7199 0.4102,1.0117 0.1783,0.2919 0.403,0.5204 0.6855,0.6329 0.33,0.130002 0.899,0.04 1.459,-0.1075 0.56,-0.1475 1.1104,-0.3511 1.4004,-0.4511 2.635,-0.885 5.0695,-2.0889 7.4707,-3.3614 2.4013,-1.2725 4.7695,-2.6143 7.2695,-3.7793 1.635,-0.765 3.1347,-1.8067 4.5684,-2.9179 1.4338,-1.1113 2.8019,-2.2921 4.1719,-3.3321 1.5305,-1.1635 3.1745,-2.3459 4.7344,-3.6289 1.5598,-1.2829 3.0353,-2.6672 4.2265,-4.2363 0.2794,-0.368 0.5435,-0.7454 0.7891,-1.1348 0.5071,-0.8071 0.9167,-1.6602 1.2265,-2.5429 0.3099,-0.8827 0.5204,-1.795 0.6289,-2.7188 0.1086,-0.9238 0.1144,-1.8586 0.018,-2.789 -0.097,-0.9305 -0.2973,-1.8571 -0.6035,-2.7598 -0.27,-0.885 -0.7878,-1.9099 -1.1328,-2.9512 -0.1725,-0.5206 -0.3022,-1.0453 -0.3359,-1.5586 -0.034,-0.5133 0.028,-1.0152 0.2383,-1.4902 0.28,-0.635 0.8152,-1.0191 1.4277,-1.2891 0.6125,-0.27 1.3026,-0.4246 1.8926,-0.5996 1.69,-0.51 3.4011,-0.9015 5.1211,-1.2715 2.799,-0.6847 5.5304,-1.6207 8.1601,-2.7988 2,-0.8 4.08,-1.4396 6,-2.3496 0.79,-0.37 1.2664,-0.72 1.5977,-1.1875 0.3312,-0.4675 0.5157,-1.0526 0.7207,-1.8926 0.7043,-2.2922 1.2467,-4.6314 1.6211,-7 0.1725,-1.6875 -0.081,-3.3988 -0.4766,-5.1113 -0.3959,-1.7125 -0.9347,-3.4275 -1.3359,-5.125 -0.4013,-1.6975 -0.6644,-3.377 -0.5078,-5.0195 0.078,-0.8213 0.2606,-1.6336 0.5839,-2.4336 0.3234,-0.8 0.7871,-1.5876 1.4258,-2.3614 0.855,-1.0225 1.8456,-1.8826 2.9278,-2.6054 1.0822,-0.7228 2.2567,-1.3075 3.4804,-1.7813 1.2238,-0.4737 2.4957,-0.836 3.7754,-1.1113 1.2797,-0.2753 2.5664,-0.4643 3.8164,-0.5918 2.2491,-0.2302 4.5099,-0.27 6.7578,-0.1211 2.248,0.1489 4.4826,0.487 6.6817,1.0117 1.51,0.355 2.996,0.8073 4.3535,1.4785 0.6787,0.3357 1.3255,0.7254 1.9277,1.1856 0.6022,0.4601 1.1602,0.9904 1.6602,1.6054 0.345,0.425 1.1588,1.2898 1.8301,2.1973 0.3356,0.4538 0.6352,0.9185 0.8222,1.3438 0.1871,0.4253 0.2615,0.8118 0.1465,1.1093 -0.21,0.5 -0.8579,0.942 -1.5566,1.3145 -0.6988,0.3725 -1.4483,0.6745 -1.8633,0.8945 -1.87,1 -3.7991,1.91 -5.6191,3 -0.605,0.37 -1.541,0.9547 -2.3985,1.6797 -0.8575,0.725 -1.6366,1.5915 -1.9316,2.5215 -0.1475,0.465 -0.1192,0.9196 0.023,1.3613 0.1426,0.4417 0.3994,0.8705 0.7051,1.2774 0.6112,0.8137 1.4218,1.5454 1.9218,2.1504 1.905,2.25 3.4998,4.7397 5.2285,7.1035 0.8644,1.1818 1.7614,2.3333 2.7481,3.4062 0.9867,1.073 2.0632,2.067 3.2832,2.9395 2.87,2.01 6,3.3508 9,5.1308 1.95,1.18 3.7793,2.5107 5.7793,3.6407 0.7628,0.5278 1.5927,0.9437 2.4629,1.2382 0.8701,0.2946 1.7804,0.4678 2.707,0.5118 2.5681,-0.14 5.1429,-0.14 7.7109,0 0.8121,0.083 1.6049,0.2711 2.3614,0.5586 0.7565,0.2874 1.4767,0.6728 2.1386,1.1503 0.6601,0.46 1.2187,1.0913 1.8887,1.5313 0.81,0.53 1.7378,0.7933 2.6953,0.9258 0.9575,0.1325 1.945,0.1328 2.875,0.1328 3.767,-0.078 7.5223,-0.4518 11.2305,-1.1192 0.645,-0.105 1.2296,-0.1797 1.7559,-0.3535 0.5262,-0.1737 0.9943,-0.4472 1.4043,-0.9472 1.5798,-2.0631 3.032,-4.2194 4.3496,-6.459 0.65,-1.055 1.3082,-2.1609 1.7382,-3.3184 0.215,-0.5787 0.3735,-1.1701 0.4454,-1.7754 0.072,-0.6053 0.056,-1.2249 -0.074,-1.8574 -0.185,-0.92 -0.5889,-1.7451 -0.9864,-2.5801 -0.3975,-0.835 -0.7883,-1.6786 -0.9433,-2.6386 -0.175,-1.21 -0.2511,-2.4174 -0.3711,-3.6211 -0.12,-1.2038 -0.2839,-2.4046 -0.6289,-3.5996 -0.3816,-1.2007 -0.8563,-2.3669 -1.418,-3.4903 -0.5617,-1.1234 -1.2098,-2.2048 -1.9414,-3.2304 -0.225,-0.345 -0.6103,-0.8687 -0.9453,-1.42 -0.335,-0.5512 -0.6195,-1.13 -0.6445,-1.58 -0.017,-0.3375 0.091,-0.6136 0.2793,-0.8399 0.1885,-0.2262 0.4578,-0.4016 0.7597,-0.5391 0.6038,-0.275 1.3399,-0.3961 1.8399,-0.4511 0.975,-0.095 2.0078,0 3.039,0.1504 1.0313,0.1487 2.0613,0.3507 3.0313,0.4707 2.5564,0.3866 5.0705,1.0118 7.5097,1.8691 0.85,0.28 1.775,0.5366 2.625,0.9141 0.85,0.3775 1.6258,0.8765 2.1758,1.6465 0.3433,0.6946 0.5953,1.4302 0.75,2.1894 0.2008,0.7941 0.5475,1.5366 1.0156,2.1914 0.4682,0.6548 1.0578,1.2231 1.7442,1.6699 1.235,0.74 2.5457,1.0639 3.8769,1.3164 1.3313,0.2525 2.6839,0.4329 4.0039,0.8829 1.4709,0.5946 2.8458,1.4037 4.0801,2.4003 1.855,1.325 3.9289,2.4344 6.0664,3.4219 2.1375,0.9875 4.3384,1.8525 6.4434,2.6875 0.91,0.36 2.2085,0.9764 3.541,1.4551 0.6663,0.2394 1.3407,0.4441 1.9785,0.5664 0.6378,0.1224 1.2398,0.1609 1.7598,0.068 0.64,-0.115 1.112,-0.4448 1.5195,-0.8711 0.4075,-0.4262 0.7509,-0.9492 1.1309,-1.4492 0.955,-1.27 1.8645,-2.6666 2.4883,-4.1504 0.3118,-0.7419 0.5528,-1.5053 0.6914,-2.2851 0.1386,-0.7799 0.175,-1.5754 0.08,-2.3829 -0.085,-0.7025 -0.01,-1.3871 0.164,-2.0605 0.1696,-0.6734 0.4295,-1.3363 0.7051,-2 0.5513,-1.3275 1.165,-2.6556 1.25,-4.0606 0.049,-1.7456 0.3703,-3.4722 0.9512,-5.1191 0.96,-2.45 2.6293,-4.66 3.7793,-7 0.425,-0.88 1.0326,-1.9348 1.5176,-3.0273 0.485,-1.0925 0.8482,-2.2239 0.7832,-3.2539 -0.1437,-1.0744 0,-2.1675 0.4101,-3.17 0.55,-1.3850004 1.4168,-2.6478004 2.4356,-3.7890004 1.0187,-1.1413 2.1887,-2.1606 3.3437,-3.0606 1.155,-0.9 2.5185,-1.8678 3.9785,-2.6015 0.73,-0.3669 1.483,-0.6744 2.248,-0.88679995 0.765,-0.2123 1.542,-0.328 2.3145,-0.3105 z"
     style="fill:none;stroke:#231f20;stroke-linecap:round;stroke-linejoin:round;stroke-opacity:1;paint-order:fill markers stroke" />
</svg>
