<svg xmlns="http://www.w3.org/2000/svg" viewBox="0 0 881.16 737.71">
  <defs>
    <style>
      .cls-1 {
        fill: none;
        stroke: #231f20;
        stroke-miterlimit: 10;
      }
    </style>
  </defs>
  <g id="Layer_2" data-name="Layer 2">
    <g id="Districts">
      <path id="New_Avalon" data-name="New Avalon" class="cls-1" d="M865.32,353.28c-1.5.08-3,1-4.48,1.13a8,8,0,0,1-3.52-.49c-3.31-1.2-6.24-3.42-9.3-5.15a56.51,56.51,0,0,1-8.08-5.66c-2.13-1.74-3.16-2.65-1-5.62l2.48-2.21a21.93,21.93,0,0,1,5.93-4.35,67.21,67.21,0,0,1,9.25-5A42.92,42.92,0,0,1,868.75,323a8.1,8.1,0,0,0,3.66-1.62,26,26,0,0,0,6.48-6.28c2.32-3.49,1.91-7.23,1.3-11.15A32.82,32.82,0,0,0,876.85,293c-2.59-4.75-6-9.06-8.74-13.71-.91-1.53-1.81-3.05-2.63-4.63-1.46-2.82-1.29-5.4-.93-8.57.64-5.61,2.06-12.8-1.48-17.7-2.78-3.84-7-6.42-11-8.78a48.06,48.06,0,0,0-6-3.12c-3.5-1.43-7.37-1.49-11.07-1.18-4.1.34-8.09,1.29-12.17,1.7a3.87,3.87,0,0,1-3.19-.62c-.21-.17-.62-.88-.84-1-1.26-.71-3.47.25-4.74.5-4.32.85-8.71,1.14-13.06,1.78-2.46.36-5.7,1.57-8.12.48a15.77,15.77,0,0,1-6.88-6.45,22.12,22.12,0,0,0-2.3-3.76c-2.19-2.45-7.08-1.72-9.91-1.44a60.31,60.31,0,0,1-7,.6,24.35,24.35,0,0,1-7.62-1.6,30.46,30.46,0,0,1-14.83-11.17c-1.42-2-2.57-4-4.14-5.92a23.12,23.12,0,0,0-9.87-6.68c-2.25-.9-4.55-1.61-6.78-2.56-2.92-1.25-5.73-2.74-8.61-4.1L712.6,194a9.35,9.35,0,0,1-5.86-4.12,3.85,3.85,0,0,1-1.6-3.74,10.15,10.15,0,0,1,.37-5.69l1.34,2.9a28.12,28.12,0,0,0,4.51-6.85c1.23-2.44,1.79-5.18,2.75-7.75,1.2-3.18,2.83-6.78,2.84-10.25,0-2.17-1.43-3.71-2.4-5.51-1.19-2.23-2.32-4.12-4.5-5.55a58.63,58.63,0,0,0-7.29-3.47c-1.78-.83-2.74-2.34-4.42-3.4-2.1-1.32-5.58-2.83-5.69-5.69-.17-4,3.14-8.15,5.42-11.27a24,24,0,0,0,3.67-7.19,5,5,0,0,0,0-4,6.25,6.25,0,0,0-1.66-1.78,17.87,17.87,0,0,1-2.33-2.79c-1.44-2-1.91-4.45-3.75-6.21s-5.2-2.08-7.68-2.15c-2.79-.07-1.77-1.7-2.17-3.75-.75-3.86-7.82-4.33-10.87-4.72-1.55-.19-2.95-.28-4.11-1.4a8.13,8.13,0,0,1-1.91-3.79c-.6-2-1-4.09-1.44-6.13-.57-2.45-1.87-4.32-3-6.53A45.69,45.69,0,0,1,659.73,67a20.83,20.83,0,0,1-.82-6.38c0-4.34.09-8.58-4.62-10.28-2.88-1-6.75-.87-9.26-2.83a5.65,5.65,0,0,1-1.45-1.94c-.85-1.58-2.47-1.39-4.09-1.3-3.75.21-8,1.89-11.42,3.46-4.87,2.22-8.13,6.55-11.44,10.66a46.42,46.42,0,0,0-7,11c-.65,1.55-1.47,3.37-1.24,5.1.4,3,4.48,1.75,5.11,4.08.3,1.1-.69,2.34-.64,3.49a3.77,3.77,0,0,0,1.29,2.46,25.6,25.6,0,0,0,3,1.91c.48.34,1.74,1,1.84,1.58.35,2.07-4.65,3.85-5.86,4.23C608.36,93.73,602,94,598,90.52c-1.7-1.48-2.67-3.59-4.24-5.2a21.15,21.15,0,0,0-5.92-4.23c-2.41-1.14-5.13-1.21-7.43-2.6a18,18,0,0,1-4.58-4.21c-1.8-2.23-3.23-4.7-4.82-7.09-1.45-2.19-3.13-4.21-4.53-6.44-4.19-6.68-4.16-14.11-4.63-21.7A12,12,0,0,0,560,32.74c-1.28-1.81-3.27-2.93-5-4.31a19.84,19.84,0,0,1-4.52-5.15c-1.14-1.93-1.27-4.13-2-6.2s-1.83-3.91-4-4.88a41.55,41.55,0,0,0-6.23-1.7A9.8,9.8,0,0,1,534,8.05a20.43,20.43,0,0,0-8.29-4.93c-2.26-.67-4.57-1.14-6.87-1.66a29.06,29.06,0,0,0-5.46-1c-3.09-.07-6.23,2-8.54,3.8s-4.68,4.08-5.78,6.85a6.18,6.18,0,0,0-.41,3.17c.13,2.06-1.45,4.52-2.3,6.28-1.15,2.34-2.82,4.55-3.78,7a16.8,16.8,0,0,0-.95,5.12c-.17,2.81-2.46,5.31-2.12,8.12.38,3.23-1.35,6.28-3.26,8.82-.76,1-1.37,2.09-2.65,2.32-2.08.37-5.46-1.37-7.28-2.09-4.21-1.67-8.8-3.46-12.51-6.11a16.1,16.1,0,0,0-4.08-2.4c-2.64-.9-5.41-.72-7.88-2.2a6.51,6.51,0,0,1-2.76-3.86,9,9,0,0,0-.75-2.19c-1.1-1.54-3.1-2-4.8-2.56a41.25,41.25,0,0,0-7.51-1.87c-1.94-.24-4.12-.81-6.07-.62-1,.11-2.95.48-2.88,1.83.05.9,1.14,2.31,1.59,3a24.19,24.19,0,0,1,3.36,6.72c.69,2.39.65,4.8,1,7.22.31,1.92,1.56,3.38,1.93,5.22.52,2.53-.81,4.84-2.11,6.95a64,64,0,0,1-4.35,6.46c-.82,1-1.87,1.09-3.16,1.3a71.82,71.82,0,0,1-11.23,1.12c-1.86,0-3.95,0-5.57-1.06-.67-.44-1.23-1.07-1.89-1.53a9.3,9.3,0,0,0-4.5-1.71,70.82,70.82,0,0,0-7.71,0,9.91,9.91,0,0,1-5.17-1.75c-2-1.13-3.83-2.46-5.78-3.64-3-1.78-6.13-3.12-9-5.13-4.88-3.49-7.45-8.95-11.26-13.45-1-1.21-3.24-2.93-2.65-4.79s3.12-3.46,4.33-4.2c1.82-1.09,3.75-2,5.62-3,.83-.44,3-1.21,3.42-2.21.46-1.19-2.11-3.8-2.8-4.65-2-2.46-4.92-3.56-7.94-4.27a40.25,40.25,0,0,0-13.44-.89c-5,.51-10.58,2-14,6.09-5.11,6.19,1,13.3.31,20.05a50.87,50.87,0,0,1-1.62,7c-.41,1.68-.74,2.34-2.32,3.08-1.92.91-4,1.55-6,2.35a47.66,47.66,0,0,1-8.16,2.8c-1.72.37-3.43.76-5.12,1.27-1.18.35-2.76.62-3.32,1.89-.84,1.9.69,4.23,1.23,6a12.67,12.67,0,0,1-1.27,10.81c-2.34,3.71-6.33,6.4-9.75,9C297,88,294.27,90.64,291,92.17c-5,2.33-9.47,5.37-14.74,7.14-.58.2-2.2.82-2.86.56-1.13-.45-1.32-2.76-1.42-3.53-.53-4.23-.24-8.53-.23-12.79,0-1.62-.21-3.19-.26-4.8-.08-2.81,1.33-5.87.57-8.66s-3.63-4.25-5.87-5.71a39.38,39.38,0,0,1-8.09-7.32,16.63,16.63,0,0,0-4.47-3.8,13.6,13.6,0,0,0-7.53-.84,21.41,21.41,0,0,0-10.5,4,20.23,20.23,0,0,0-6.47,7.87A74,74,0,0,0,225.72,73,7.87,7.87,0,0,1,224.23,76C223,77.26,221,78.12,219.56,79c-2.36,1.32-5.14,2.46-7.9,2-2.42-.4-4.88-1.65-7.14-2.56-2.43-1-4.87-2-6.63-4a45.88,45.88,0,0,1-2.78-3.85c-.51-.72-1.4-2.51-2.33-2.8-.55-.17-1.34,0-1.92-.09a10.93,10.93,0,0,0-2.22-.35,9.73,9.73,0,0,0-7.15,3c-2.53,3-4.86,5-9,4.24a12.22,12.22,0,0,1-4.71-2.54c-.59-.44-1.16-.9-1.79-1.29a17.19,17.19,0,0,0-3.33-1.27l0-1c-.3,0-.61.09-.92.08s-.62-.11-.93-.15l-1.6-.19c-.57-.07-1.15-.19-1.71-.3l-.68-.16a1.21,1.21,0,0,0-.49-.11l-.61.15c-2.67-1.76-4.82-3-8-2.65a33.85,33.85,0,0,0-9.37,3c-1.77.81-3.75,1.61-4.06,3.7-.16,1.09.59,2.44.89,3.47a22.42,22.42,0,0,1,.81,6.68c0,5-.31,9,2.16,13.47,2.3,4.16,6.41,6.33,8.9,10.45,2.73,4.52,4.29,9.73,7.28,14.07,1.85,2.68,3.92,5.26,6,7.75,1.41,1.68,3.69,4.12,2.77,6.42-.55,1.39-3,3.06-4.35,3.85a13.25,13.25,0,0,1-7,1.78c-1.79,0-3.61-.11-5.4-.06-3.18.09-5.76,4.15-7.85,6.24-3.64,3.63-7.3,7.18-11.06,10.66-1.56,1.44-4.13,2.95-4.18,5.35s2.39,3.89,4,5.48c2.75,2.71,5.18,4.83,6.2,8.7.77,2.95.47,5.87,1,8.79a12.07,12.07,0,0,0,3.09,5.48c2.24,2.6,4.65,4.74,6.43,7.77a18.47,18.47,0,0,0,2.3,3.31c1.89,2.07,3.13,2.13,5.79,2.95,1.54.46,2.72,1.59,4.13,1.87,2.48.48,4.9-1.5,7.52-.74,3.3,1,6,5.16,7.89,7.77,1.42,2,2.63,4.13,5,5a13.76,13.76,0,0,0,6.79,1c7.51-1.13,15.58-5.27,21.58-9.81a11.1,11.1,0,0,1,3.85-1.94c3.5-1.05,8.37,1.43,11.8,2.63,3.79,1.32,7.51,2.28,11.35,3.28,2.74.71,4.91,2.38,7.91,2.09a18.48,18.48,0,0,0,8.68-3.16c3.29-2.19,6.06-5,9.44-7.06A9.06,9.06,0,0,0,262,201.2c2.45-5.56.93-12.54,3.2-18.25,1.88-4.72,9.55-6.19,14-6.57,1.87-.16,3.35.82,5.16,1,3.53.38,7.17-.76,10.44-1.94,7.25-2.62,13.25-.62,19.83,2.9,5.77,3.09,11,7,16.44,10.63,3,2,5.64,4,5.87,7.82.18,3.14.06,6.49,0,9.66-.08,4.35-2.63,8.16-2.54,12.44,0,2.36,1.8,3.49,2.4,5.57,1.28,4.39-3.23,10.32-4.74,14.23-.81,2.1-1.14,4.35-2,6.42-1.68,4.16-5.53,7.52-9,10.19-3.76,2.86-8.13,4.38-12.44,6.21-3.19,1.36-6.69,4-10.2,4.29-2,.15-4.32-.93-6.3-1.23a72.15,72.15,0,0,0-11.76-.48c-4.83,0-9.44-.36-14.23-.71-3.91-.28-7.69-.2-11.59-.66-5-.59-9.44-1.58-14.18.58-4.14,1.89-8.55,3.89-12,6.9-3,2.56-3.1,6.12-3.06,9.75,0,2.46.44,5.18-.41,7.47a54,54,0,0,1-3.71,7.51,40.23,40.23,0,0,1-4.89,6.39c-2.2,2.55-3.33,4.59-6.73,5.58s-7.08,1.75-10.56,1c-3.75-.83-6.52-2.92-10.08-4.26-8.23-3.12-15.48-1.41-21.75,4.76-2.91,2.86-4.62,6.55-7.43,9.48a51.65,51.65,0,0,1-8,7.17c-2.68,1.84-5.15,4-8.54,4-3.83,0-7.52.78-11.35.76-3.32,0-4.83-.05-7.77-1.58s-7-1.4-9.59-3.48a118.36,118.36,0,0,0-10.31-7.63A91.76,91.76,0,0,1,95.1,310c-2.66-2.27-6.07-4.43-7.64-7.68a27.36,27.36,0,0,1-2.32-10.06c-.13-3.89,1.8-7.67,2.32-11.48.48-3.58-.66-6.82,0-10.37,1.1-5.61,2.11-10.06.57-15.75a23.87,23.87,0,0,0-12.43-15.61c-9.65-5.23-23.35-4.9-30.86-13.75a16.81,16.81,0,0,1-3-4.66c-1.23-3.78,3.48-6.88,6.07-8.9s5.69-3.24,8-5.62c2.56-2.63,5.6-7.31,6.35-10.88,1-4.56.87-9.67.86-14.33,0-2.49-.43-4.94-.44-7.41,0-4.39,1.9-7.45,3.47-11.45a30.73,30.73,0,0,0,1.76-10.28c.13-4.94-.42-11-3.46-15.13-10.86-14.66-32.64-7.55-47.22-3.9-3.16.79-6.75,2-10.09,2.34C4,135.42,2.75,134,.51,133.42L6.1,616.79,183.12,737,408.41,355.09,758.67,556,865.4,353.28"/>
    </g>
    <g id="New_Avalon_Counties" data-name="New Avalon Counties">
      <path class="cls-1" d="M408.41,355.09c-3.78-28.16-22.7-68.08-30.76-74.06"/>
      <path class="cls-1" d="M3.09,356.64c187.28,51.7,272.87,35,374.56-75.61"/>
      <path class="cls-1" d="M377.65,281c-1,0,38.37-45.23,22.53-90.24-16.89-48-45.08-65.71-91.38-112.74"/>
      <path class="cls-1" d="M680.66,511.22C701,378.68,631,351.34,639.31,199.58"/>
      <path class="cls-1" d="M747.09,217.68c-12.24-3.34-55.73,5.59-107.78-18.1-54.46-24.79-84.23-61.11-130.36-63.91-24.21-1.47-61,6.19-108.77,55.12"/>
    </g>
  </g>
</svg>
