<?xml version="1.0" encoding="UTF-8" standalone="no"?>
<svg
   xmlns:dc="http://purl.org/dc/elements/1.1/"
   xmlns:cc="http://creativecommons.org/ns#"
   xmlns:rdf="http://www.w3.org/1999/02/22-rdf-syntax-ns#"
   xmlns:svg="http://www.w3.org/2000/svg"
   xmlns="http://www.w3.org/2000/svg"
   height="737.54077"
   width="881.1557"
   id="svg20"
   version="1.1"
   viewBox="0 0 881.15573 737.54075">
  <metadata
     id="metadata24">
    <rdf:RDF>
      <cc:Work
         rdf:about="">
        <dc:format>image/svg+xml</dc:format>
        <dc:type
           rdf:resource="http://purl.org/dc/dcmitype/StillImage" />
        <dc:title></dc:title>
      </cc:Work>
    </rdf:RDF>
  </metadata>
  <defs
     id="defs4">
    <style
       id="style2">
      .cls-1 {
        fill: none;
        stroke: #231f20;
        stroke-miterlimit: 10;
      }
    </style>
  </defs>
  <path
     id="rect855"
     style="fill:none;stroke:#231f20;stroke-linecap:round;stroke-linejoin:round;stroke-opacity:1;paint-order:fill markers stroke"
     d="m 3.0820445,356.6365 c 11.7050005,3.23125 23.0118755,6.19576 33.9511725,8.88672 10.939297,2.69096 21.511077,5.10988 31.742187,7.24805 10.23111,2.13817 20.120734,3.99549 29.701172,5.56836 9.580444,1.57287 18.850614,2.8604 27.837894,3.85547 8.98728,0.99506 17.69289,1.69876 26.14453,2.10351 8.45164,0.40476 16.64953,0.51056 24.62305,0.3125 7.97351,-0.19806 15.72248,-0.70028 23.27539,-1.51367 3.77645,-0.40669 7.50346,-0.89221 11.18554,-1.45508 3.68209,-0.56287 7.31916,-1.20322 10.91407,-1.92383 3.5949,-0.7206 7.14719,-1.52048 10.66211,-2.40039 3.51491,-0.87991 6.99147,-1.84008 10.43359,-2.88086 3.44212,-1.04077 6.85005,-2.16203 10.22656,-3.36523 3.37651,-1.2032 6.72293,-2.48827 10.04102,-3.85547 3.31808,-1.36719 6.60814,-2.81686 9.875,-4.34961 3.26685,-1.53275 6.50961,-3.14779 9.73242,-4.84765 6.44563,-3.39974 12.81045,-7.13531 19.12305,-11.2129 6.31259,-4.07758 12.57346,-8.49767 18.81054,-13.26562 6.23708,-4.76795 12.45085,-9.88465 18.66993,-15.35547 6.21907,-5.47081 12.44257,-11.29624 18.70117,-17.48242 6.25859,-6.18619 12.55258,-12.73242 18.9082,-19.64649 0,0 2.39836,-2.82843 5.74805,-7.77343 1.67484,-2.4725 3.58683,-5.47375 5.55664,-8.91602 1.9698,-3.44226 3.99726,-7.32617 5.90039,-11.56055 1.90312,-4.23437 3.68144,-8.81914 5.15625,-13.66796 0.7374,-2.42442 1.39842,-4.91427 1.96094,-7.45899 0.56251,-2.54471 1.02671,-5.1443 1.36914,-7.78711 0.34242,-2.64281 0.5635,-5.33012 0.64062,-8.04883 0.0771,-2.7187 0.0107,-5.4698 -0.22265,-8.24218 -0.23338,-2.77239 -0.63357,-5.56529 -1.22266,-8.36914 -0.58909,-2.80386 -1.36742,-5.61852 -2.35742,-8.43164 -1.05563,-3 -2.15449,-5.88055 -3.30078,-8.65821 -1.1463,-2.77765 -2.33989,-5.45266 -3.58008,-8.03711 -2.48038,-5.16889 -5.15201,-9.97986 -8.02735,-14.55078 -2.87533,-4.57091 -5.95388,-8.90136 -9.25,-13.10742 -3.29611,-4.20606 -6.81,-8.28698 -10.55273,-12.36133 -3.74273,-4.07434 -7.71451,-8.14261 -11.92969,-12.31836 -4.21518,-4.17575 -8.67326,-8.46041 -13.38672,-12.9707 -9.42691,-9.020579 -19.87617,-18.943674 -31.45117,-30.701172 -1.19126,1.569079 -2.66669,2.953362 -4.22656,4.236328 -1.55987,1.282966 -3.20385,2.465345 -4.73438,3.628906 -1.37,1.04 -2.73812,2.220781 -4.17187,3.332031 -1.43375,1.11125 -2.93336,2.152969 -4.56836,2.917969 -2.5,1.165 -4.86828,2.506797 -7.26953,3.779297 -2.40125,1.2725 -4.8357,2.476328 -7.4707,3.361328 -0.29,0.1 -0.84039,0.303672 -1.40039,0.451172 -0.56001,0.1475 -1.12899,0.237421 -1.45899,0.107422 -0.2825,-0.1125 -0.50727,-0.340938 -0.68555,-0.632813 -0.17828,-0.291875 -0.30953,-0.646719 -0.41015,-1.011719 -0.20125,-0.73 -0.27422,-1.499765 -0.32422,-1.884765 -0.265,-2.115 -0.32586,-4.246563 -0.31836,-6.382813 0.007,-2.13625 0.0829,-4.27625 0.0879,-6.40625 0,-1.62 -0.20977,-3.190781 -0.25977,-4.800781 -0.04,-1.405 0.29157,-2.872891 0.53907,-4.337891 0.12375,-0.7325 0.22789,-1.464375 0.25195,-2.1875 0.0241,-0.723125 -0.0307,-1.437265 -0.2207,-2.134765 -0.19,-0.6975 -0.51289,-1.31125 -0.92383,-1.863282 -0.41094,-0.552031 -0.91078,-1.042109 -1.45703,-1.490234 -1.0925,-0.89625 -2.37024,-1.625469 -3.49024,-2.355469 -1.51162,-1.02641 -2.94723,-2.155951 -4.29883,-3.378906 -1.35159,-1.222955 -2.61903,-2.539635 -3.79101,-3.941406 -0.62651,-0.760782 -1.31846,-1.463774 -2.06641,-2.099609 -0.74794,-0.635836 -1.55063,-1.205297 -2.40234,-1.701172 -1.18988,-0.493819 -2.43936,-0.813665 -3.70703,-0.955078 -1.26767,-0.141414 -2.55478,-0.104238 -3.82422,0.115234 -1.89685,0.187383 -3.75197,0.626217 -5.51758,1.298828 -1.7656,0.672611 -3.44169,1.578999 -4.98242,2.701172 -1.39637,1.014209 -2.65112,2.199078 -3.73828,3.521484 -1.08716,1.322406 -2.00549,2.78149 -2.73047,4.347656 -1.31921,2.828519 -2.45831,5.7386 -3.41016,8.710938 -0.27564,1.095335 -0.78404,2.118507 -1.49023,3 -0.615,0.63 -1.42211,1.160078 -2.25586,1.642578 -0.83375,0.4825 -1.69406,0.917422 -2.41406,1.357422 -1.18,0.66 -2.46578,1.275469 -3.80078,1.667969 -0.6675,0.19625 -1.34758,0.335625 -2.03321,0.398437 -0.68562,0.06281 -1.3764,0.04859 -2.0664,-0.06641 -1.21,-0.2 -2.43086,-0.611641 -3.63086,-1.087891 -1.2,-0.47625 -2.37977,-1.017656 -3.50977,-1.472656 -1.215,-0.5 -2.43266,-1 -3.56641,-1.625 -1.13374,-0.625 -2.1825,-1.375 -3.0625,-2.375 -0.99251,-1.234484 -1.92165,-2.519147 -2.78124,-3.849609 -0.255,-0.36 -0.60532,-0.986797 -1.00782,-1.560547 -0.4025,-0.57375 -0.85726,-1.095235 -1.32226,-1.240235 -0.55,-0.17 -1.33992,1.57e-4 -1.91992,-0.08984 -0.72602,-0.192638 -1.4687,-0.309535 -2.21876,-0.34961 -1.34802,-0.01693 -2.66931,0.247014 -3.88671,0.757813 -1.21741,0.510799 -2.33131,1.268453 -3.26368,2.242187 -0.6325,0.75 -1.25367,1.437657 -1.89257,2.035157 -0.63891,0.5975 -1.29579,1.106093 -2.00391,1.496093 -0.70812,0.39 -1.46648,0.661563 -2.30664,0.789063 -0.84016,0.1275 -1.76188,0.109922 -2.79688,-0.08008 -0.86919,-0.244145 -1.70627,-0.583833 -2.49609,-1.009766 -0.78982,-0.425933 -1.53331,-0.937173 -2.21484,-1.529297 -0.59,-0.44 -1.15907,-0.901015 -1.78907,-1.291015 -1.063,-0.537567 -2.17907,-0.96272 -3.33007,-1.269532 v -1 c -0.3,0 -0.60993,0.09008 -0.91993,0.08008 -0.31,-0.01 -0.61968,-0.11039 -0.92968,-0.15039 l -1.59961,-0.189453 c -0.57,-0.07 -1.15094,-0.190781 -1.71094,-0.300781 l -0.67969,-0.160157 c -0.15384,-0.07053 -0.321,-0.10738 -0.49023,-0.109375 l -0.60938,0.150391 c -1.335,-0.88 -2.53984,-1.630938 -3.80859,-2.117188 -0.63438,-0.243125 -1.28609,-0.41914 -1.97656,-0.513671 -0.69047,-0.09453 -1.41985,-0.107032 -2.21485,-0.01953 -1.62638,0.269171 -3.22909,0.656869 -4.79492,1.158203 -1.56583,0.501334 -3.09589,1.116304 -4.57617,1.841797 -0.885,0.405 -1.82117,0.806641 -2.57617,1.369141 -0.3775,0.28125 -0.70992,0.602812 -0.9668,0.984375 -0.25687,0.381562 -0.44008,0.823203 -0.51758,1.345703 -0.08,0.545 0.0684,1.155312 0.27344,1.757813 0.205,0.6025 0.46719,1.19789 0.61719,1.71289 0.30225,1.08662 0.52282,2.192091 0.6582,3.308594 0.13539,1.116503 0.18614,2.243726 0.15234,3.371094 0,2.5 -0.077,4.749843 0.1543,6.933593 0.11563,1.091875 0.30672,2.168282 0.625,3.25 0.31828,1.081719 0.76336,2.16961 1.38086,3.28711 0.575,1.04 1.26211,1.955781 2.00977,2.808593 0.74765,0.852813 1.55601,1.642891 2.36914,2.431637 0.81312,0.78875 1.63093,1.57602 2.40234,2.42383 0.77141,0.84781 1.49664,1.75516 2.11914,2.78516 1.365,2.26 2.43602,4.69351 3.54102,7.10351 1.105,2.41 2.24328,4.7968 3.73828,6.9668 1.85,2.68 3.92,5.26 6,7.75 0.705,0.84 1.62656,1.86906 2.25781,2.97656 0.31563,0.55375 0.55961,1.1286 0.66602,1.70703 0.1064,0.57844 0.0757,1.16133 -0.1543,1.73633 -0.275,0.695 -1.025,1.46039 -1.875,2.15039 -0.85,0.69 -1.79961,1.30422 -2.47461,1.69922 -1.06173,0.61506 -2.19903,1.07743 -3.37695,1.37695 -1.17793,0.29953 -2.39648,0.43748 -3.62305,0.4043 -1.79,0 -3.61039,-0.11055 -5.40039,-0.0606 -0.795,0.0225 -1.55172,0.29282 -2.27344,0.71875 -0.72172,0.42594 -1.40867,1.00664 -2.06055,1.6504 -1.30374,1.2875 -2.47062,2.82609 -3.51562,3.87109 -3.64,3.63 -7.30055,7.18016 -11.06055,10.66015 -0.78,0.72 -1.8125,1.45696 -2.65625,2.31446 -0.42187,0.42875 -0.79601,0.88711 -1.06836,1.38867 -0.27234,0.50156 -0.44257,1.04648 -0.45507,1.64648 -0.0125,0.6 0.13007,1.1425 0.37695,1.64454 0.24687,0.50203 0.5975,0.96281 1,1.39843 0.805,0.87125 1.81805,1.6425 2.62305,2.4375 1.375,1.355 2.66929,2.56157 3.74804,3.91407 0.53938,0.67625 1.02524,1.38851 1.43946,2.17382 0.41421,0.78532 0.75867,1.64383 1.01367,2.61133 0.385,1.475 0.50234,2.9425 0.58984,4.40625 0.0875,1.46375 0.14516,2.92477 0.41016,4.38477 0.26373,1.03385 0.66211,2.02199 1.18164,2.94336 0.51953,0.92136 1.16005,1.77445 1.9082,2.53515 1.12,1.3 2.28172,2.48586 3.38672,3.72461 1.105,1.23875 2.15297,2.53188 3.04297,4.04688 0.64362,1.18393 1.41371,2.29246 2.29883,3.30859 0.945,1.035 1.72867,1.56711 2.60742,1.94336 0.87875,0.37625 1.85359,0.59781 3.18359,1.00781 1.54,0.46 2.71891,1.58914 4.12891,1.86914 0.62,0.12 1.23695,0.0867 1.85351,-0.0195 0.61657,-0.10625 1.23422,-0.28508 1.85547,-0.45508 0.62125,-0.17 1.2468,-0.33109 1.88086,-0.40234 0.63406,-0.0712 1.27664,-0.0533 1.93164,0.13672 0.825,0.25 1.61266,0.69812 2.35938,1.26953 0.74672,0.57141 1.4514,1.26609 2.11328,2.01172 1.32375,1.49125 2.47102,3.18328 3.41602,4.48828 0.70999,1 1.36828,2.03258 2.14453,2.92383 0.38812,0.44562 0.80648,0.85765 1.27539,1.21094 0.4689,0.35328 0.98757,0.64773 1.58008,0.86523 1.07126,0.45075 2.19128,0.76364 3.33203,0.93164 1.14075,0.168 2.30325,0.19113 3.45898,0.0684 1.8775,-0.2825 3.78891,-0.75312 5.69531,-1.37109 1.90641,-0.61797 3.80703,-1.38203 5.66016,-2.25391 1.85312,-0.87187 3.6593,-1.85031 5.37695,-2.89453 1.71766,-1.04422 3.34766,-2.15406 4.84766,-3.28906 1.14421,-0.89207 2.45182,-1.55257 3.84961,-1.94141 0.875,-0.2625 1.83555,-0.30281 2.83789,-0.19922 1.00234,0.1036 2.04601,0.3525 3.08789,0.67188 2.08375,0.63875 4.16,1.5582 5.875,2.1582 3.79,1.32 7.50961,2.2793 11.34961,3.2793 1.37,0.355 2.59742,0.94992 3.85742,1.41992 0.63,0.235 1.26742,0.43953 1.93555,0.5664 0.66812,0.12688 1.36718,0.17602 2.11718,0.10352 1.5571,-0.15078 3.08074,-0.49643 4.53907,-1.02734 1.45833,-0.53092 2.85103,-1.2453 4.14062,-2.13086 1.645,-1.095 3.1593,-2.34633 4.68555,-3.58008 1.52625,-1.23375 3.06391,-2.45047 4.75391,-3.48047 0.8769,-0.4628 1.66588,-1.064 2.33984,-1.77344 0.67396,-0.70943 1.23314,-1.52826 1.65039,-2.42773 0.6125,-1.39 0.97734,-2.86711 1.21484,-4.39258 0.2375,-1.52547 0.34813,-3.09891 0.45313,-4.67578 0.105,-1.57688 0.20297,-3.15891 0.41797,-4.70313 0.215,-1.54421 0.54578,-3.05101 1.11328,-4.47851 0.235,-0.59 0.56064,-1.12844 0.95898,-1.6211 0.39834,-0.49265 0.87,-0.93804 1.39649,-1.34179 1.05297,-0.8075 2.32726,-1.44672 3.68164,-1.94922 1.35437,-0.5025 2.78984,-0.86977 4.16406,-1.13477 1.37422,-0.265 2.68633,-0.42648 3.79883,-0.52148 0.935,-0.08 1.77351,0.12359 2.60351,0.37109 0.83,0.2475 1.65165,0.53891 2.55665,0.62891 1.76499,0.19 3.55835,-0.002 5.31835,-0.38672 1.76,-0.385 3.48805,-0.96469 5.12305,-1.55469 1.8125,-0.655 3.54563,-1.02054 5.23047,-1.14648 1.68484,-0.12594 3.32117,-0.0113 4.93555,0.29492 1.61437,0.30625 3.2075,0.80375 4.80859,1.44531 1.60109,0.64157 3.21047,1.42664 4.85547,2.30664 2.885,1.545 5.635,3.29579 8.34375,5.11328 2.70875,1.8175 5.3757,3.70258 8.0957,5.51758 1.5,1 2.90891,1.99907 3.97266,3.22657 0.53187,0.61375 0.97797,1.28507 1.30469,2.04101 0.32671,0.75594 0.53429,1.59578 0.59179,2.55078 0.18,3.14 0.06,6.49016 0,9.66016 -0.02,1.0875 -0.19445,2.14195 -0.44336,3.17773 -0.2489,1.03578 -0.5725,2.05274 -0.89062,3.06836 -0.31813,1.01563 -0.62977,2.02961 -0.85742,3.05664 -0.22766,1.02703 -0.37016,2.06868 -0.34766,3.13867 0,0.59001 0.11289,1.10196 0.29102,1.57227 0.17812,0.47031 0.42109,0.89766 0.68359,1.31641 0.525,0.8375 1.12578,1.64164 1.42578,2.68164 0.32,1.0975 0.27813,2.29101 0.0117,3.52539 -0.26641,1.23437 -0.75781,2.50953 -1.33594,3.76953 -1.15625,2.52 -2.66101,4.97859 -3.41601,6.93359 -0.81,2.1 -1.14,4.34992 -2,6.41993 -0.42,1.03999 -0.97555,2.03093 -1.62696,2.97265 -0.6514,0.94172 -1.4,1.83477 -2.20312,2.68164 -1.60625,1.69375 -3.43492,3.20211 -5.16992,4.53711 -1.88,1.43 -3.91242,2.52399 -6.01367,3.49024 -2.10126,0.96625 -4.27274,1.80375 -6.42774,2.71875 -1.595,0.68 -3.26601,1.68062 -4.97852,2.54687 -0.85624,0.43313 -1.72218,0.83305 -2.59374,1.14258 -0.87157,0.30953 -1.74946,0.52906 -2.62696,0.60156 -1,0.075 -2.0807,-0.15851 -3.1582,-0.44726 -1.0775,-0.28875 -2.15258,-0.63321 -3.14258,-0.78321 -3.90039,-0.48 -7.83323,-0.641 -11.75976,-0.48047 -4.83,0 -9.43852,-0.35898 -14.22852,-0.70898 -3.91,-0.28 -7.6918,-0.20016 -11.5918,-0.66016 -2.5,-0.295 -4.86,-0.69093 -7.1875,-0.74218 -1.16375,-0.0256 -2.31758,0.0346 -3.47851,0.23632 -1.16094,0.20172 -2.32867,0.54594 -3.51367,1.08594 -2.07,0.945 -4.20657,1.9168 -6.25782,3.0293 -2.05125,1.1125 -4.01718,2.36414 -5.74218,3.86914 -0.75,0.64 -1.31743,1.34328 -1.74805,2.09375 -0.43063,0.75047 -0.72438,1.54898 -0.92188,2.38086 -0.395,1.66375 -0.40867,3.46039 -0.38867,5.27539 0,1.23 0.10953,2.52508 0.11328,3.79883 0.004,1.27375 -0.0984,2.52687 -0.52344,3.67187 -1.04034,2.59562 -2.28168,5.10627 -3.71093,7.50977 -1.41236,2.28806 -3.05118,4.42939 -4.89063,6.39062 -1.1,1.275 -1.93156,2.4225 -2.91406,3.375 -0.49125,0.47625 -1.02023,0.90313 -1.63867,1.27344 -0.61844,0.37031 -1.32578,0.68414 -2.17578,0.93164 -1.7,0.495 -3.47,0.93234 -5.25,1.15234 -1.78,0.22 -3.57055,0.22266 -5.31055,-0.15234 -1.875,-0.415 -3.50508,-1.1457 -5.11133,-1.93945 -1.60625,-0.79375 -3.18875,-1.65031 -4.96875,-2.32032 -2.0575,-0.77999 -4.05328,-1.25937 -5.98828,-1.4414 -1.935,-0.18203 -3.80859,-0.0665 -5.62109,0.33789 -1.8125,0.40437 -3.56391,1.09891 -5.25391,2.07812 -1.69,0.97922 -3.31922,2.24266 -4.88672,3.78516 -1.455,1.43 -2.60945,3.06664 -3.75195,4.71289 -1.1425,1.64625 -2.27274,3.30258 -3.67774,4.76758 -1.20509,1.33079 -2.47735,2.59634 -3.8125,3.79297 -1.33514,1.19662 -2.73318,2.32424 -4.1875,3.37695 -1.34,0.92 -2.62765,1.91945 -4.0039,2.68945 -0.68813,0.385 -1.39828,0.71211 -2.14844,0.94336 -0.75016,0.23125 -1.54117,0.36719 -2.38867,0.36719 -3.83,0 -7.51961,0.77977 -11.34961,0.75977 -1.66,0 -2.86734,-0.013 -4.02734,-0.2168 -1.16,-0.20375 -2.27219,-0.59828 -3.74219,-1.36328 -1.47,-0.765 -3.21953,-1.11641 -4.92578,-1.53516 -0.85313,-0.20937 -1.69555,-0.43406 -2.48633,-0.73828 -0.79078,-0.30422 -1.53024,-0.68703 -2.17774,-1.20703 -3.29623,-2.72781 -6.73849,-5.27574 -10.31054,-7.63086 -3.17304,-2.1805 -6.205783,-4.55767 -9.080083,-7.11914 -1.33,-1.135 -2.847265,-2.24266 -4.228515,-3.47266 -0.690625,-0.615 -1.347657,-1.26007 -1.929688,-1.95507 -0.582031,-0.695 -1.087969,-1.43946 -1.480468,-2.25196 -0.702368,-1.58786 -1.252207,-3.23566 -1.640626,-4.91992 -0.388418,-1.68426 -0.615728,-3.40553 -0.679687,-5.14062 -0.0325,-0.9725 0.06359,-1.9375 0.234375,-2.89844 0.170781,-0.96094 0.416016,-1.91735 0.681641,-2.8711 0.53125,-1.9075 1.144297,-3.80593 1.404297,-5.71093 0.24,-1.79 0.07414,-3.49407 -0.06836,-5.19532 -0.1425,-1.70125 -0.26164,-3.39882 0.06836,-5.17382 0.549999,-2.805 1.075937,-5.32071 1.273437,-7.84571 0.09875,-1.2625 0.116406,-2.52703 0.01172,-3.83203 -0.104688,-1.305 -0.331797,-2.64976 -0.716797,-4.07226 -0.416344,-1.69217 -1.012389,-3.31802 -1.769531,-4.85352 -0.757143,-1.5355 -1.675652,-2.98047 -2.736328,-4.3125 -1.060677,-1.33203 -2.262898,-2.55104 -3.589844,-3.63281 -1.326946,-1.08177 -2.778034,-2.02584 -4.333985,-2.81055 -2.4125,-1.3075 -5.077187,-2.26851 -7.835937,-3.11133 -2.75875,-0.84281 -5.611484,-1.5675 -8.396484,-2.40625 -2.785001,-0.83875 -5.502891,-1.79062 -7.994141,-3.08593 -1.245625,-0.64766 -2.434688,-1.38231 -3.546875,-2.23047 -1.112188,-0.84817 -2.147188,-1.80977 -3.085938,-2.91602 -1.250939,-1.37665 -2.264714,-2.95153 -3,-4.66016 -0.3075,-0.94499 -0.244609,-1.84742 0.06445,-2.70117 0.309062,-0.85375 0.863359,-1.66015 1.537109,-2.41015 1.3475,-1.5 3.17375,-2.77907 4.46875,-3.78907 1.295,-1.01 2.716016,-1.82078 4.103515,-2.67578 1.3875,-0.855 2.741485,-1.75531 3.896485,-2.94531 1.28,-1.315 2.679766,-3.14094 3.853515,-5.08594 0.586875,-0.9725 1.116407,-1.97515 1.546876,-2.95703 0.430468,-0.98187 0.761718,-1.94344 0.949218,-2.83594 0.5,-2.28 0.717344,-4.69695 0.808594,-7.12695 0.09125,-2.43 0.05578,-4.87312 0.05078,-7.20312 0,-2.49 -0.429453,-4.94016 -0.439453,-7.41016 0,-1.0975 0.11961,-2.11141 0.322266,-3.07812 0.202656,-0.96672 0.488593,-1.8861 0.824218,-2.79297 0.671251,-1.81375 1.539219,-3.57813 2.324219,-5.57813 0.584062,-1.65067 1.023955,-3.34681 1.31836,-5.0664 0.294404,-1.7196 0.443086,-3.46389 0.441406,-5.21485 0.065,-2.47 -0.03977,-5.22039 -0.541016,-7.86914 -0.250625,-1.32437 -0.601094,-2.62352 -1.078125,-3.84961 -0.477031,-1.22609 -1.081797,-2.37766 -1.841797,-3.41016 -0.67875,-0.91624 -1.400517,-1.74766 -2.160156,-2.5 -0.759639,-0.75233 -1.556992,-1.42661 -2.388672,-2.02734 -1.663359,-1.20146 -3.460937,-2.11226 -5.359375,-2.78125 -1.898437,-0.66898 -3.898203,-1.09502 -5.960937,-1.33008 -2.062735,-0.23506 -4.189453,-0.27804 -6.345703,-0.17773 -2.15625,0.10031 -4.340547,0.34256 -6.519532,0.67969 -2.178984,0.33713 -4.351484,0.76875 -6.482422,1.24414 -4.261874,0.95078 -8.356953,2.07968 -12.001953,2.99218 -1.58,0.395 -3.268515,0.89414 -4.978515,1.33789 -1.71,0.44376 -3.4432819,0.83196 -5.1132819,1.00196 -0.76,0.085 -1.4066406,0.0592 -1.9863281,-0.0352 -0.5796875,-0.0944 -1.091875,-0.25672 -1.578125,-0.44922 -0.9725,-0.385 -1.8448438,-0.88578 -2.96484375,-1.17578 z" />
  <path
     id="path929"
     style="fill:none;stroke:#231f20;stroke-linecap:round;stroke-linejoin:round;stroke-opacity:1;paint-order:fill markers stroke"
     d="m 408.40041,355.13064 c -0.4725,-3.52 -1.18133,-7.22478 -2.07618,-11.02343 -0.89484,-3.79866 -1.97578,-7.69118 -3.1914,-11.58985 -1.21563,-3.89867 -2.56711,-7.80299 -4.00196,-11.62304 -1.43484,-3.82006 -2.95335,-7.55633 -4.50585,-11.11914 -1.5525,-3.56282 -3.13844,-6.9512 -4.70704,-10.07813 -1.56859,-3.12693 -3.12039,-5.99148 -4.60351,-8.50391 -1.48313,-2.51242 -2.89727,-4.6733 -4.19336,-6.39257 -1.29609,-1.71928 -2.47297,-2.99664 -3.48047,-3.74415 -6.35562,6.91407 -12.64961,13.4603 -18.9082,19.64649 -6.2586,6.18618 -12.4821,12.01161 -18.70117,17.48242 -6.21908,5.47082 -12.43285,10.58752 -18.66993,15.35547 -6.23708,4.76795 -12.49795,9.18804 -18.81054,13.26562 -6.3126,4.07759 -12.67742,7.81316 -19.12305,11.2129 -3.22281,1.69986 -6.46557,3.3149 -9.73242,4.84765 -3.26686,1.53275 -6.55692,2.98242 -9.875,4.34961 -3.31809,1.3672 -6.66451,2.65227 -10.04102,3.85547 -3.37651,1.2032 -6.78444,2.32446 -10.22656,3.36523 -3.44212,1.04078 -6.91868,2.00095 -10.43359,2.88086 -3.51492,0.87991 -7.06721,1.67979 -10.66211,2.40039 -3.59491,0.72061 -7.23198,1.36096 -10.91407,1.92383 -3.68208,0.56287 -7.40909,1.04839 -11.18554,1.45508 -7.55291,0.81339 -15.30188,1.31561 -23.27539,1.51367 -7.97352,0.19806 -16.17141,0.0923 -24.62305,-0.3125 -8.45164,-0.40475 -17.15725,-1.10845 -26.14453,-2.10351 -8.98728,-0.99507 -18.25745,-2.2826 -27.837894,-3.85547 -9.580438,-1.57287 -19.470062,-3.43019 -29.701172,-5.56836 -10.23111,-2.13817 -20.80289,-4.55709 -31.742187,-7.24805 C 26.09392,362.83226 14.787045,359.86775 3.0820445,356.6365 L 6.089857,616.82986 183.10939,737.0408 Z" />
  <path
     id="path927"
     style="fill:none;stroke:#231f20;stroke-linecap:round;stroke-linejoin:round;stroke-opacity:1;paint-order:fill markers stroke"
     d="m 680.68361,511.31228 c 1.27125,-8.28375 2.18852,-16.15551 2.79492,-23.67382 0.6064,-7.51832 0.90185,-14.68193 0.92578,-21.54688 0.0239,-6.86495 -0.22306,-13.4322 -0.69922,-19.75586 -0.47615,-6.32365 -1.18231,-12.4044 -2.07617,-18.29883 -0.89386,-5.89442 -1.97589,-11.60242 -3.20508,-17.17968 -1.22918,-5.57727 -2.60576,-11.02432 -4.08789,-16.39649 -1.48212,-5.37217 -3.06996,-10.67007 -4.72265,-15.94922 -1.65269,-5.27915 -3.3685,-10.53969 -5.10938,-15.83789 -3.48174,-10.59638 -7.05824,-21.34253 -10.39844,-32.6875 -1.67009,-5.67248 -3.28183,-11.49375 -4.79296,-17.52148 -1.51114,-6.02774 -2.92161,-12.26081 -4.19141,-18.75586 -1.2698,-6.49505 -2.39768,-13.25174 -3.34375,-20.32617 -0.94607,-7.07444 -1.71003,-14.46654 -2.25,-22.23242 -0.53997,-7.76589 -0.85671,-15.90716 -0.9082,-24.47657 -0.0515,-8.56941 0.16226,-17.56773 0.68164,-27.05273 -6.8075,-3.09875 -13.22959,-6.37697 -19.34571,-9.74805 -6.11611,-3.37107 -11.92664,-6.83531 -17.51172,-10.30273 -11.17015,-6.93485 -21.43914,-13.88602 -31.44726,-20.15039 -5.00406,-3.13219 -9.9424,-6.09237 -14.89648,-8.79297 -4.95409,-2.70061 -9.92383,-5.14133 -14.98829,-7.23438 -2.53222,-1.04652 -5.08785,-2.0075 -7.67773,-2.86914 -2.58989,-0.86164 -5.21327,-1.62454 -7.88086,-2.2793 -2.66759,-0.65475 -5.3792,-1.20107 -8.14453,-1.62695 -2.76534,-0.42587 -5.58563,-0.73125 -8.46875,-0.90625 -3.02625,-0.18375 -6.24781,-0.22601 -9.66406,-0.0625 -3.41625,0.16352 -7.02618,0.53336 -10.82618,1.16992 -3.8,0.63657 -7.79125,1.54 -11.96875,2.77539 -4.1775,1.2354 -8.54109,2.80172 -13.08984,4.76172 -4.54875,1.96 -9.28156,4.31461 -14.19531,7.125 -4.91375,2.81039 -10.00875,6.07672 -15.28125,9.86328 -5.2725,3.78657 -10.72266,8.09391 -16.34766,12.98243 -2.8125,2.44425 -5.6689,5.03401 -8.56836,7.77734 -2.89945,2.74333 -5.8425,5.63914 -8.82812,8.69727 0.99,2.81312 1.76833,5.62778 2.35742,8.43164 0.58909,2.80385 0.98928,5.59675 1.22266,8.36914 0.23337,2.77238 0.29978,5.52348 0.22265,8.24218 -0.0771,2.71871 -0.2982,5.40602 -0.64062,8.04883 -0.34243,2.64281 -0.80663,5.2424 -1.36914,7.78711 -0.56252,2.54472 -1.22354,5.03457 -1.96094,7.45899 -1.47481,4.84882 -3.25313,9.43359 -5.15625,13.66796 -1.90313,4.23438 -3.93059,8.11829 -5.90039,11.56055 -1.96981,3.44227 -3.8818,6.44352 -5.55664,8.91602 -3.34969,4.945 -5.74805,7.77343 -5.74805,7.77343 1.0075,0.74751 2.18438,2.02487 3.48047,3.74415 1.29609,1.71927 2.71023,3.88015 4.19336,6.39257 1.48312,2.51243 3.03492,5.37698 4.60351,8.50391 1.5686,3.12693 3.15454,6.51531 4.70704,10.07813 1.5525,3.56281 3.07101,7.29908 4.50585,11.11914 1.43485,3.82005 2.78633,7.72437 4.00196,11.62304 1.21562,3.89867 2.29656,7.79119 3.1914,11.58985 0.89485,3.79865 1.60368,7.50343 2.07618,11.02343 z" />
  <path
     id="path925"
     style="fill:none;stroke:#231f20;stroke-linecap:round;stroke-linejoin:round;stroke-opacity:1;paint-order:fill markers stroke"
     d="m 747.10353,217.74978 c -1.53,-0.4175 -3.54686,-0.64308 -6.00976,-0.76562 -2.46291,-0.12254 -5.37075,-0.14183 -8.67774,-0.14453 -3.30699,-0.003 -7.01391,0.0111 -11.07617,-0.0469 -4.06226,-0.058 -8.48029,-0.18817 -13.20899,-0.47656 -4.72869,-0.28839 -9.76789,-0.73577 -15.07421,-1.42969 -5.30632,-0.69392 -10.87871,-1.63363 -16.67383,-2.9082 -5.79512,-1.27457 -11.81272,-2.88371 -18.00781,-4.91406 -3.09755,-1.01518 -6.24099,-2.13609 -9.42188,-3.37305 -3.18089,-1.23695 -6.39922,-2.58969 -9.65234,-4.07031 -0.51938,9.485 -0.73313,18.48332 -0.68164,27.05273 0.0515,8.56941 0.36823,16.71068 0.9082,24.47657 0.53997,7.76588 1.30393,15.15798 2.25,22.23242 0.94607,7.07443 2.07395,13.83112 3.34375,20.32617 1.2698,6.49505 2.68027,12.72812 4.19141,18.75586 1.51113,6.02773 3.12287,11.849 4.79296,17.52148 3.3402,11.34497 6.9167,22.09112 10.39844,32.6875 1.74088,5.2982 3.45669,10.55874 5.10938,15.83789 1.65269,5.27915 3.24053,10.57705 4.72265,15.94922 1.48213,5.37217 2.85871,10.81922 4.08789,16.39649 1.22919,5.57726 2.31122,11.28526 3.20508,17.17968 0.89386,5.89443 1.60002,11.97518 2.07617,18.29883 0.47616,6.32366 0.72316,12.89091 0.69922,19.75586 -0.0239,6.86495 -0.31938,14.02856 -0.92578,21.54688 -0.6064,7.51831 -1.52367,15.39007 -2.79492,23.67382 l 77.97656,44.72854 106.73047,-202.7207 c -1.5,0.08 -3.08055,1.00086 -4.56055,1.13086 -1.19523,0.10265 -2.39778,-0.065 -3.51953,-0.49024 -1.655,-0.6 -3.21539,-1.4557 -4.74414,-2.37695 -1.52875,-0.92125 -3.02664,-1.90844 -4.55664,-2.77344 -2.85318,-1.64752 -5.55689,-3.54156 -8.08008,-5.66015 -0.5325,-0.43501 -0.99507,-0.81696 -1.35742,-1.19336 -0.36234,-0.37641 -0.62312,-0.74618 -0.75,-1.1543 -0.12687,-0.40813 -0.12117,-0.85461 0.0527,-1.38477 0.1739,-0.53015 0.51468,-1.14422 1.05468,-1.88672 l 2.48047,-2.21093 c 0.85886,-0.88674 1.7894,-1.69625 2.78125,-2.42383 0.99186,-0.72759 2.04472,-1.37286 3.14844,-1.92578 2.94803,-1.90567 6.04082,-3.57745 9.25,-5 1.94267,-0.78214 3.93833,-1.42052 5.96875,-1.91016 2.03042,-0.48964 4.09601,-0.83023 6.18164,-1.01953 0.66816,-0.11266 1.31684,-0.30795 1.93164,-0.58008 0.6148,-0.27212 1.19588,-0.62023 1.72852,-1.03906 1.25476,-0.84982 2.42954,-1.80676 3.51367,-2.85742 1.08413,-1.05067 2.07807,-2.19632 2.96679,-3.42383 0.58001,-0.8725 0.9893,-1.75945 1.26758,-2.66211 0.27828,-0.90266 0.42485,-1.82133 0.48047,-2.75195 0.11125,-1.86125 -0.14422,-3.77633 -0.44922,-5.73633 -0.23162,-1.90875 -0.62868,-3.78905 -1.1875,-5.6211 -0.55881,-1.83204 -1.27922,-3.61505 -2.15234,-5.32812 -1.295,-2.375 -2.79375,-4.64008 -4.3125,-6.89258 -1.51875,-2.2525 -3.05774,-4.49336 -4.42773,-6.81836 -0.91,-1.53 -1.80891,-3.0489 -2.62891,-4.6289 -0.73,-1.41 -1.05344,-2.76055 -1.14844,-4.1543 -0.095,-1.39375 0.0387,-2.83102 0.21875,-4.41602 0.32,-2.805 0.83367,-6.00398 0.82617,-9.11523 -0.004,-1.55563 -0.1375,-3.09023 -0.49218,-4.54102 -0.35469,-1.45078 -0.92946,-2.81797 -1.81446,-4.04297 -0.695,-0.96 -1.48101,-1.8414 -2.33008,-2.66015 -0.84906,-0.81875 -1.76164,-1.57516 -2.71289,-2.28516 -1.9025,-1.42 -3.95703,-2.65594 -5.95703,-3.83593 -1.92426,-1.1796 -3.92922,-2.22133 -6,-3.11915 -1.75,-0.715 -3.59343,-1.08718 -5.46093,-1.24218 -1.86751,-0.155 -3.75938,-0.0925 -5.60938,0.0625 -4.1,0.34 -8.08992,1.28922 -12.16992,1.69922 -0.5514,0.13571 -1.11952,0.14685 -1.66406,0.041 -0.54455,-0.10584 -1.06497,-0.3278 -1.5254,-0.66016 -0.21,-0.16999 -0.61984,-0.87999 -0.83984,-1 -0.63,-0.355 -1.49844,-0.29382 -2.36719,-0.11132 -0.86875,0.1825 -1.73804,0.48633 -2.37304,0.61132 -4.32,0.85 -8.71055,1.1393 -13.06055,1.7793 -1.23,0.18 -2.65422,0.57195 -4.07422,0.7832 -0.71,0.10563 -1.41906,0.16704 -2.10156,0.13282 -0.6825,-0.0342 -1.33836,-0.16305 -1.94336,-0.43555 -1.44878,-0.69895 -2.77351,-1.61164 -3.93359,-2.69922 -1.16009,-1.08758 -2.1564,-2.35123 -2.94727,-3.75195 -0.63957,-1.32678 -1.41084,-2.58614 -2.30078,-3.75977 -0.5475,-0.6125 -1.2636,-1.02515 -2.07422,-1.29687 -0.81062,-0.27172 -1.71563,-0.40289 -2.64062,-0.44727 -1.85001,-0.0888 -3.78032,0.16469 -5.19532,0.30469 -2.31969,0.33585 -4.65699,0.5358 -7,0.59961 -1.30469,-0.0606 -2.59893,-0.22466 -3.87304,-0.49219 -1.27411,-0.26753 -2.52723,-0.63811 -3.7461,-1.10742 -2.30077,-0.80317 -4.48287,-1.87483 -6.50586,-3.18359 -2.02298,-1.30877 -3.88768,-2.85491 -5.55078,-4.60743 z" />
  <path
     id="path923"
     style="fill:none;stroke:#231f20;stroke-linecap:round;stroke-linejoin:round;stroke-opacity:1;paint-order:fill markers stroke"
     d="m 513.37111,0.50173757 c -0.7725,-0.0175 -1.54945,0.0982031 -2.31445,0.31054688 -0.765,0.21234375 -1.51805,0.51984375 -2.24805,0.88671875 -1.46,0.73375 -2.82352,1.7015625 -3.97852,2.6015625 -1.155,0.9 -2.325,1.9192969 -3.34375,3.0605469 -1.01875,1.14125 -1.88554,2.4040625 -2.43554,3.7890624 -0.41229,1.002428 -0.55385,2.095584 -0.41016,3.169922 0.065,1.03 -0.2982,2.161406 -0.7832,3.253906 -0.485,1.0925 -1.09258,2.147344 -1.51758,3.027344 -1.15,2.34 -2.8193,4.55 -3.7793,7 -0.58085,1.646918 -0.90254,3.373471 -0.95117,5.119141 -0.085,1.405 -0.69875,2.733046 -1.25,4.060546 -0.27562,0.66375 -0.53555,1.326563 -0.70508,2 -0.16953,0.673438 -0.24906,1.358047 -0.16406,2.060547 0.095,0.8075 0.0585,1.602969 -0.0801,2.382813 -0.13859,0.779843 -0.37953,1.543281 -0.6914,2.285156 -0.62375,1.48375 -1.53329,2.880391 -2.48829,4.150391 -0.38,0.5 -0.72335,1.022968 -1.13085,1.449218 -0.40751,0.42625 -0.87954,0.756094 -1.51954,0.871094 -0.52,0.0925 -1.12195,0.05398 -1.75976,-0.06836 -0.63781,-0.122344 -1.31227,-0.327032 -1.97852,-0.566406 -1.3325,-0.47875 -2.63101,-1.095079 -3.54101,-1.455079 -2.105,-0.835 -4.30586,-1.7 -6.44336,-2.6875 -2.1375,-0.9875 -4.21141,-2.096875 -6.06641,-3.421875 -1.23433,-0.996648 -2.60926,-1.805777 -4.08008,-2.40039 -1.32,-0.45 -2.67265,-0.630313 -4.0039,-0.882813 -1.33125,-0.2525 -2.64196,-0.576406 -3.87696,-1.316406 -0.68643,-0.4468 -1.27595,-1.015132 -1.74414,-1.669922 -0.46819,-0.654789 -0.81482,-1.397364 -1.01562,-2.191406 -0.15469,-0.759241 -0.40677,-1.494782 -0.75,-2.189453 -0.55,-0.77 -1.32578,-1.268985 -2.17578,-1.646485 -0.85,-0.3775 -1.775,-0.634062 -2.625,-0.914062 -2.4392,-0.857312 -4.95336,-1.482541 -7.50977,-1.869141 -0.97,-0.12 -2,-0.321953 -3.03125,-0.470703 -1.03125,-0.14875 -2.06406,-0.24539 -3.03906,-0.150391 -0.5,0.055 -1.23609,0.176172 -1.83984,0.451172 -0.30188,0.1375 -0.57118,0.312813 -0.75977,0.539063 -0.18859,0.22625 -0.2968,0.502344 -0.2793,0.839844 0.025,0.45 0.30953,1.028828 0.64453,1.580078 0.335,0.55125 0.72032,1.074922 0.94532,1.419922 0.73157,1.025668 1.37969,2.107051 1.9414,3.230468 0.56171,1.123418 1.03638,2.289574 1.41797,3.490235 0.345,1.195 0.50891,2.395859 0.62891,3.599609 0.12,1.20375 0.19609,2.411094 0.37109,3.621094 0.155,0.96 0.54586,1.803672 0.94336,2.638672 0.3975,0.835 0.80133,1.660078 0.98633,2.580078 0.13,0.6325 0.14609,1.252109 0.0742,1.857422 -0.0719,0.605312 -0.23032,1.19664 -0.44532,1.77539 -0.43,1.1575 -1.08828,2.26336 -1.73828,3.31836 -1.31752,2.239643 -2.76981,4.395953 -4.34961,6.458984 -0.41,0.5 -0.87804,0.773516 -1.40429,0.947266 -0.52625,0.17375 -1.11086,0.248515 -1.75586,0.353515 -3.70816,0.667322 -7.46355,1.040952 -11.23047,1.119141 -0.93,0 -1.9175,-3.13e-4 -2.875,-0.132813 -0.9575,-0.132499 -1.88531,-0.395781 -2.69531,-0.925781 -0.67,-0.44 -1.22867,-1.07125 -1.88868,-1.53125 -0.66196,-0.477535 -1.38217,-0.862921 -2.13867,-1.15039 -0.7565,-0.28747 -1.54928,-0.476009 -2.36133,-0.558594 -2.56808,-0.139999 -5.14284,-0.139999 -7.71093,0 -0.92659,-0.04395 -1.83687,-0.217178 -2.70703,-0.511719 -0.87016,-0.294541 -1.70012,-0.710396 -2.46289,-1.238281 -2,-1.13 -3.8293,-2.460625 -5.7793,-3.640625 -3,-1.78 -6.13,-3.120859 -9,-5.13086 -1.22,-0.8725 -2.29649,-1.866484 -3.2832,-2.939453 -0.98672,-1.072968 -1.88368,-2.224375 -2.74805,-3.40625 -1.72875,-2.36375 -3.32352,-4.853515 -5.22852,-7.103515 -0.5,-0.605 -1.31062,-1.336641 -1.92187,-2.150391 -0.30563,-0.406875 -0.56242,-0.835625 -0.70508,-1.277344 -0.14266,-0.441718 -0.17094,-0.896328 -0.0234,-1.361328 0.295,-0.93 1.07414,-1.796484 1.93164,-2.521484 0.8575,-0.725 1.79344,-1.309688 2.39844,-1.679688 1.82,-1.09 3.74914,-2 5.61914,-3 0.415,-0.22 1.16453,-0.522031 1.86328,-0.894531 0.69875,-0.3725 1.34664,-0.814453 1.55664,-1.314453 0.115,-0.2975 0.0405,-0.684062 -0.14648,-1.109375 -0.18703,-0.425313 -0.48664,-0.89 -0.82227,-1.34375 -0.67125,-0.9075 -1.48508,-1.772266 -1.83008,-2.197266 -0.5,-0.615 -1.05796,-1.145312 -1.66015,-1.605468 -0.60219,-0.460157 -1.24899,-0.849922 -1.92774,-1.185547 -1.3575,-0.67125 -2.84351,-1.123516 -4.35351,-1.478516 -2.19911,-0.524742 -4.43369,-0.862859 -6.68164,-1.011719 -2.24795,-0.148859 -4.50872,-0.109088 -6.75781,0.121094 -1.25,0.1275 -2.53672,0.316484 -3.81641,0.591797 -1.27969,0.275312 -2.55164,0.637578 -3.77539,1.111328 -1.22375,0.47375 -2.39828,1.058438 -3.48047,1.78125 -1.08219,0.722813 -2.07273,1.582969 -2.92773,2.605469 -0.63875,0.77375 -1.10247,1.561328 -1.42579,2.361328 -0.32332,0.8 -0.5057,1.612344 -0.58398,2.433594 -0.15656,1.6425 0.10656,3.322031 0.50781,5.019531 0.40125,1.6975 0.94,3.4125 1.33594,5.125 0.39594,1.7125 0.64906,3.423828 0.47656,5.111328 -0.37434,2.3686 -0.91678,4.707766 -1.62109,7 -0.205,0.84 -0.38945,1.425078 -0.7207,1.892578 -0.33125,0.4675 -0.80766,0.8175 -1.59766,1.1875 -1.92,0.91 -4,1.54961 -6,2.34961 -2.62976,1.178097 -5.36111,2.114096 -8.16016,2.798828 -1.72,0.37 -3.43109,0.761484 -5.12109,1.271484 -0.59,0.175 -1.28008,0.329609 -1.89258,0.599609 -0.6125,0.270001 -1.14773,0.654063 -1.42773,1.289063 -0.21,0.475 -0.27203,0.976953 -0.23828,1.490234 0.0337,0.513282 0.16343,1.037969 0.33593,1.558594 0.345,1.04125 0.86282,2.066172 1.13282,2.951172 0.3062,0.902716 0.50669,1.829309 0.60351,2.759766 0.0968,0.930457 0.091,1.865283 -0.0176,2.789062 -0.10853,0.923779 -0.31907,1.836068 -0.6289,2.71875 -0.30983,0.882683 -0.71948,1.735802 -1.22657,2.542969 -0.24559,0.389375 -0.50968,0.766786 -0.78906,1.134766 11.575,11.757498 22.02426,21.680593 31.45117,30.701173 4.71346,4.51029 9.17154,8.79495 13.38672,12.9707 4.21518,4.17575 8.18696,8.24402 11.92969,12.31836 3.74273,4.07435 7.25662,8.15527 10.55273,12.36133 3.29612,4.20606 6.37467,8.53651 9.25,13.10742 2.87534,4.57092 5.54697,9.38189 8.02735,14.55078 1.24019,2.58445 2.43378,5.25946 3.58008,8.03711 1.14629,2.77766 2.24515,5.65821 3.30078,8.65821 2.98562,-3.05813 5.92867,-5.95394 8.82812,-8.69727 2.89946,-2.74333 5.75586,-5.33309 8.56836,-7.77734 5.625,-4.88852 11.07516,-9.19586 16.34766,-12.98243 5.2725,-3.78656 10.3675,-7.05289 15.28125,-9.86328 4.91375,-2.81039 9.64656,-5.165 14.19531,-7.125 4.54875,-1.96 8.91234,-3.52632 13.08984,-4.76172 4.1775,-1.23539 8.16875,-2.13882 11.96875,-2.77539 3.8,-0.63656 7.40993,-1.0064 10.82618,-1.16992 3.41625,-0.16351 6.63781,-0.12125 9.66406,0.0625 2.88312,0.175 5.70341,0.48038 8.46875,0.90625 2.76533,0.42588 5.47694,0.9722 8.14453,1.62695 2.66759,0.65476 5.29097,1.41766 7.88086,2.2793 2.58988,0.86164 5.14551,1.82262 7.67773,2.86914 5.06446,2.09305 10.0342,4.53377 14.98829,7.23438 4.95408,2.7006 9.89242,5.66078 14.89648,8.79297 10.00812,6.26437 20.27711,13.21554 31.44726,20.15039 5.58508,3.46742 11.39561,6.93166 17.51172,10.30273 6.11612,3.37108 12.53821,6.6493 19.34571,9.74805 3.25312,1.48062 6.47145,2.83336 9.65234,4.07031 3.18089,1.23696 6.32433,2.35787 9.42188,3.37305 6.19509,2.03035 12.21269,3.63949 18.00781,4.91406 5.79512,1.27457 11.36751,2.21428 16.67383,2.9082 5.30632,0.69392 10.34552,1.1413 15.07421,1.42969 4.7287,0.28839 9.14673,0.41858 13.20899,0.47656 4.06226,0.058 7.76918,0.0442 11.07617,0.0469 3.30699,0.003 6.21483,0.022 8.67774,0.14453 2.4629,0.12254 4.47976,0.34812 6.00976,0.76562 -1.00022,-1.054 -1.92717,-2.1823 -2.77344,-3.3789 -1.42,-2 -2.57062,-3.99992 -4.14062,-5.91992 -1.32485,-1.52548 -2.83696,-2.86343 -4.4961,-3.98633 -1.65913,-1.1229 -3.46442,-2.03043 -5.37304,-2.69336 -2.25,-0.9 -4.5493,-1.61055 -6.7793,-2.56055 -2.92,-1.25 -5.73133,-2.73961 -8.61133,-4.09961 l -2.33982,-1.07033 c -1.21141,-0.27048 -2.34381,-0.77628 -3.33984,-1.47656 -0.99603,-0.70028 -1.85507,-1.59418 -2.51954,-2.64258 -0.60108,-0.42007 -1.05643,-0.9938 -1.33398,-1.64258 -0.27755,-0.64877 -0.37691,-1.37282 -0.26563,-2.09766 -0.21144,-0.94652 -0.28495,-1.91497 -0.22265,-2.87304 0.0623,-0.95808 0.25955,-1.90719 0.5918,-2.81836 l 1.33984,2.90039 c 0.91501,-1.02533 1.75217,-2.11503 2.50586,-3.25977 0.75368,-1.14473 1.42366,-2.34411 2.00391,-3.58984 0.615,-1.22 1.06281,-2.51492 1.47656,-3.82617 0.41375,-1.31125 0.79343,-2.63883 1.27344,-3.92383 0.6,-1.59 1.30843,-3.28438 1.86718,-5.01562 0.55875,-1.73125 0.96766,-3.49938 0.97266,-5.23438 0,-1.085 -0.35719,-2.01328 -0.83594,-2.89453 -0.47875,-0.88125 -1.0775,-1.71524 -1.5625,-2.61524 -0.595,-1.115 -1.17515,-2.14617 -1.8789,-3.07617 -0.70376,-0.93 -1.5311,-1.75961 -2.6211,-2.47461 -2.34738,-1.3228 -4.78416,-2.48097 -7.29101,-3.46875 -0.89,-0.415 -1.57555,-1.00148 -2.24805,-1.61523 -0.6725,-0.61375 -1.33188,-1.25516 -2.17188,-1.78516 -1.05,-0.66 -2.44554,-1.36758 -3.59179,-2.26758 -0.57313,-0.45 -1.0825,-0.94929 -1.45703,-1.51367 -0.37454,-0.56437 -0.61313,-1.1932 -0.64063,-1.9082 -0.0425,-1 0.13305,-2.00945 0.45508,-3.00977 0.32203,-1.00031 0.79031,-1.99328 1.33594,-2.95703 1.09125,-1.9275 2.4889,-3.74468 3.6289,-5.30468 0.81026,-1.08613 1.52481,-2.23683 2.13867,-3.43946 0.61387,-1.20263 1.12695,-2.45665 1.53125,-3.75 0.27829,-0.63762 0.41797,-1.31881 0.41797,-2 0,-0.68119 -0.13968,-1.36237 -0.41797,-2 -0.43134,-0.69638 -0.99552,-1.30048 -1.66015,-1.7793 -0.86948,-0.84838 -1.65026,-1.78423 -2.33008,-2.79101 -0.72,-1 -1.19711,-2.11281 -1.72461,-3.19531 -0.5275,-1.0825 -1.10539,-2.13368 -2.02539,-3.01368 -0.46,-0.43999 -1.01445,-0.78976 -1.62695,-1.06835 -0.6125,-0.2786 -1.28266,-0.48625 -1.97266,-0.640629 -1.38,-0.30875 -2.84008,-0.406407 -4.08008,-0.441407 -0.6975,-0.0175 -1.15797,-0.133437 -1.46093,-0.328125 -0.30297,-0.194687 -0.44961,-0.468437 -0.52149,-0.804687 -0.14375,-0.6725 0.0125,-1.592188 -0.1875,-2.617188 -0.0937,-0.4825 -0.28754,-0.911894 -0.55859,-1.294922 -0.27106,-0.383027 -0.61938,-0.71914 -1.02735,-1.015624 -0.81593,-0.592969 -1.86507,-1.027188 -2.98633,-1.351563 -2.2425,-0.64875 -4.77382,-0.863594 -6.29882,-1.058594 -0.775,-0.095 -1.51242,-0.165312 -2.20118,-0.351562 -0.68875,-0.18625 -1.3282,-0.488828 -1.9082,-1.048828 -0.4805,-0.535971 -0.88589,-1.130341 -1.20703,-1.767579 -0.32114,-0.637237 -0.55819,-1.316404 -0.70312,-2.021484 -0.6,-2 -0.99946,-4.090859 -1.43946,-6.130859 -0.285,-1.225 -0.75351,-2.303516 -1.29101,-3.353516 -0.5375,-1.05 -1.14399,-2.070781 -1.70899,-3.175781 -1.18406,-1.975835 -2.21684,-4.038305 -3.08984,-6.169922 -0.60203,-2.07138 -0.87897,-4.224563 -0.82031,-6.380859 0,-1.085 0.005,-2.162891 -0.0606,-3.197266 -0.0652,-1.034375 -0.1993,-2.024141 -0.48242,-2.931641 -0.28313,-0.9075 -0.71524,-1.733125 -1.36914,-2.4375 -0.65391,-0.704375 -1.53149,-1.28789 -2.70899,-1.71289 -1.44,-0.5 -3.12633,-0.717188 -4.76758,-1.054688 -0.82062,-0.16875 -1.62984,-0.367422 -2.39062,-0.646484 -0.76078,-0.279063 -1.47406,-0.638906 -2.10156,-1.128906 -0.61788,-0.53425 -1.1118,-1.195576 -1.44922,-1.939454 -0.2125,-0.394999 -0.47281,-0.679843 -0.76953,-0.882812 -0.29672,-0.202969 -0.62946,-0.325156 -0.98633,-0.394531 -0.71375,-0.13875 -1.52399,-0.06844 -2.33399,-0.02344 -1.875,0.105 -3.87523,0.578203 -5.83398,1.220703 -1.95875,0.6425 -3.87594,1.455235 -5.58594,2.240235 -1.2175,0.555 -2.33476,1.241093 -3.37695,2.023437 -1.04219,0.782344 -2.00898,1.660781 -2.92774,2.597656 -1.8375,1.873751 -3.47976,3.984063 -5.13476,6.039063 -1.41961,1.659541 -2.7191,3.414055 -3.88867,5.251953 -1.16957,1.837898 -2.20923,3.759181 -3.11133,5.748047 -0.325,0.775 -0.69367,1.617422 -0.95117,2.482422 -0.2575,0.865 -0.40407,1.752187 -0.28907,2.617187 0.10001,0.75 0.43032,1.235079 0.87891,1.576172 0.44859,0.341094 1.01547,0.537969 1.58985,0.714844 0.57437,0.176875 1.15546,0.3325 1.63281,0.589844 0.47734,0.257343 0.85031,0.616719 1.00781,1.199218 0.15,0.55 -0.0228,1.135313 -0.22656,1.726563 -0.20375,0.59125 -0.43906,1.188672 -0.41406,1.763672 0.0506,0.477149 0.19123,0.936044 0.41015,1.353515 0.21892,0.417472 0.51715,0.792505 0.88086,1.105469 0.95451,0.705442 1.95693,1.343804 3,1.910157 0.24,0.17 0.675,0.421171 1.0625,0.701171 0.3875,0.28 0.72734,0.588907 0.77734,0.878907 0.0875,0.5175 -0.15921,1.016562 -0.59765,1.480468 -0.43844,0.463907 -1.0693,0.891954 -1.74805,1.267578 -1.3575,0.75125 -2.90867,1.292422 -3.51367,1.482422 -1.1925,0.3725 -2.48492,0.669141 -3.81445,0.84961 -1.32953,0.180469 -2.69789,0.244922 -4.04102,0.154297 -1.34312,-0.09063 -2.66125,-0.336563 -3.89453,-0.777344 -1.23323,-0.440779 -2.38081,-1.077264 -3.38081,-1.947264 -0.85,-0.74 -1.51672,-1.637031 -2.16797,-2.550781 -0.65125,-0.91375 -1.28726,-1.843437 -2.07226,-2.648438 -0.85708,-0.870695 -1.78698,-1.663447 -2.77735,-2.371093 -0.99037,-0.707647 -2.04114,-1.330657 -3.14258,-1.859375 -1.205,-0.57 -2.48711,-0.873282 -3.75586,-1.207032 -1.26875,-0.333749 -2.52382,-0.697578 -3.67382,-1.392578 -0.87972,-0.563441 -1.70644,-1.201924 -2.47266,-1.90625 -0.76622,-0.704325 -1.47204,-1.475431 -2.10742,-2.304687 -1.8,-2.23 -3.23031,-4.699844 -4.82031,-7.089844 -1.45,-2.19 -3.1293,-4.209453 -4.5293,-6.439453 -1.0475,-1.67 -1.83203,-3.386094 -2.42578,-5.140625 -0.59375,-1.754531 -0.99766,-3.546563 -1.28516,-5.367187 -0.575,-3.64125 -0.68492,-7.396407 -0.91992,-11.191407 -0.009,-1.117279 -0.17303,-2.223232 -0.48438,-3.285156 -0.31134,-1.061924 -0.76915,-2.080364 -1.36523,-3.025391 -0.64,-0.905 -1.45828,-1.637656 -2.33203,-2.316406 -0.87375,-0.67875 -1.80297,-1.304141 -2.66797,-1.99414 -0.89697,-0.720762 -1.72819,-1.517325 -2.48438,-2.378907 -0.75618,-0.861581 -1.43687,-1.788572 -2.03515,-2.771484 -0.57,-0.965 -0.88805,-1.996875 -1.1543,-3.046875 -0.26625,-1.05 -0.4807,-2.117344 -0.8457,-3.152344 -0.365,-1.035 -0.82344,-2.013516 -1.46094,-2.853516 -0.6375,-0.839999 -1.45406,-1.542343 -2.53906,-2.027343 -2.02942,-0.727433 -4.11285,-1.295035 -6.23047,-1.699219 -0.80073,-0.221577 -1.56719,-0.543443 -2.28125,-0.955078 -0.71406,-0.411635 -1.37572,-0.9122577 -1.96875,-1.4941407 -1.16512,-1.1407121 -2.45804,-2.1353356 -3.84961,-2.9628906 -1.39157,-0.8275549 -2.88085,-1.4896819 -4.43945,-1.96875 -2.26,-0.67 -4.5711,-1.1382031 -6.8711,-1.6582031 -1.78392,-0.50678922 -3.61124,-0.84164976 -5.45898,-1.00000003 z" />
  <path
     style="fill:none;stroke:#231f20;stroke-linecap:round;stroke-linejoin:round;stroke-opacity:1;paint-order:fill markers stroke"
     d="m 513.37111,0.50173757 c 1.84774,0.15835027 3.67506,0.49321081 5.45898,1.00000003 2.3,0.52 4.6111,0.9882031 6.8711,1.6582031 1.5586,0.4790681 3.04788,1.1411951 4.43945,1.96875 1.39157,0.827555 2.68449,1.8221785 3.84961,2.9628906 0.59303,0.581883 1.25469,1.0825057 1.96875,1.4941407 0.71406,0.411635 1.48052,0.733501 2.28125,0.955078 2.11762,0.404184 4.20105,0.971786 6.23047,1.699219 1.085,0.485 1.90156,1.187344 2.53906,2.027343 0.6375,0.84 1.09594,1.818516 1.46094,2.853516 0.365,1.035 0.57945,2.102344 0.8457,3.152344 0.26625,1.05 0.5843,2.081875 1.1543,3.046875 0.59828,0.982912 1.27897,1.909903 2.03515,2.771484 0.75619,0.861582 1.58741,1.658145 2.48438,2.378907 0.865,0.689999 1.79422,1.31539 2.66797,1.99414 0.87375,0.67875 1.69203,1.411406 2.33203,2.316406 0.59608,0.945027 1.05389,1.963467 1.36523,3.025391 0.31135,1.061924 0.47583,2.167877 0.48438,3.285156 0.235,3.795 0.34492,7.550157 0.91992,11.191407 0.2875,1.820624 0.69141,3.612656 1.28516,5.367187 0.59375,1.754531 1.37828,3.470625 2.42578,5.140625 1.4,2.23 3.0793,4.249453 4.5293,6.439453 1.59,2.39 3.02031,4.859844 4.82031,7.089844 0.63538,0.829256 1.3412,1.600362 2.10742,2.304687 0.76622,0.704326 1.59294,1.342809 2.47266,1.90625 1.15,0.695 2.40507,1.058829 3.67382,1.392578 1.26875,0.33375 2.55086,0.637032 3.75586,1.207032 1.10144,0.528718 2.15221,1.151728 3.14258,1.859375 0.99037,0.707646 1.92027,1.500398 2.77735,2.371093 0.785,0.805001 1.42101,1.734688 2.07226,2.648438 0.65125,0.91375 1.31797,1.810781 2.16797,2.550781 1,0.87 2.14758,1.506485 3.38086,1.947266 1.23328,0.440781 2.55141,0.686719 3.89453,0.777344 1.34313,0.09063 2.71149,0.02617 4.04102,-0.154297 1.32953,-0.180469 2.62195,-0.47711 3.81445,-0.84961 0.605,-0.19 2.15617,-0.731172 3.51367,-1.482422 0.67875,-0.375624 1.30961,-0.803671 1.74805,-1.267578 0.43844,-0.463906 0.68515,-0.962968 0.59765,-1.480468 -0.05,-0.29 -0.38984,-0.598907 -0.77734,-0.878907 -0.3875,-0.28 -0.8225,-0.531171 -1.0625,-0.701171 -1.04307,-0.566353 -2.04549,-1.204715 -3,-1.910157 -0.36371,-0.312964 -0.66194,-0.687997 -0.88086,-1.105469 -0.21892,-0.417471 -0.35954,-0.876366 -0.41015,-1.353515 -0.025,-0.575 0.21031,-1.172422 0.41406,-1.763672 0.20375,-0.59125 0.37656,-1.176563 0.22656,-1.726563 -0.1575,-0.582499 -0.53047,-0.941875 -1.00781,-1.199218 -0.47735,-0.257344 -1.05844,-0.412969 -1.63281,-0.589844 -0.57438,-0.176875 -1.14126,-0.37375 -1.58985,-0.714844 -0.44859,-0.341093 -0.7789,-0.826172 -0.87891,-1.576172 -0.115,-0.865 0.0316,-1.752187 0.28907,-2.617187 0.2575,-0.865 0.62617,-1.707422 0.95117,-2.482422 0.9021,-1.988866 1.94176,-3.910149 3.11133,-5.748047 1.16957,-1.837898 2.46906,-3.592412 3.88867,-5.251953 1.655,-2.055 3.29726,-4.165312 5.13476,-6.039063 0.91876,-0.936875 1.88555,-1.815312 2.92774,-2.597656 1.04219,-0.782344 2.15945,-1.468437 3.37695,-2.023437 1.71,-0.785 3.62719,-1.597735 5.58594,-2.240235 1.95875,-0.6425 3.95898,-1.115703 5.83398,-1.220703 0.81,-0.045 1.62024,-0.115312 2.33399,0.02344 0.35687,0.06938 0.68961,0.191562 0.98633,0.394531 0.29672,0.202969 0.55703,0.487813 0.76953,0.882812 0.33742,0.743878 0.83134,1.405204 1.44922,1.939454 0.6275,0.49 1.34078,0.849843 2.10156,1.128906 0.76078,0.279062 1.57,0.477734 2.39062,0.646484 1.64125,0.3375 3.32758,0.554688 4.76758,1.054688 1.1775,0.425 2.05508,1.008515 2.70899,1.71289 0.6539,0.704375 1.08601,1.53 1.36914,2.4375 0.28312,0.9075 0.41726,1.897266 0.48242,2.931641 0.0652,1.034375 0.0606,2.112266 0.0606,3.197266 -0.0587,2.156296 0.21828,4.309479 0.82031,6.380859 0.873,2.131617 1.90578,4.194087 3.08984,6.169922 0.565,1.105 1.17149,2.125781 1.70899,3.175781 0.5375,1.05 1.00601,2.128516 1.29101,3.353516 0.44,2.04 0.83946,4.130859 1.43946,6.130859 0.14493,0.70508 0.38198,1.384247 0.70312,2.021484 0.32114,0.637238 0.72653,1.231608 1.20703,1.767579 0.58,0.56 1.21945,0.862578 1.9082,1.048828 0.68876,0.18625 1.42618,0.256562 2.20118,0.351562 1.525,0.195 4.05632,0.409844 6.29882,1.058594 1.12126,0.324375 2.1704,0.758594 2.98633,1.351563 0.40797,0.296484 0.75629,0.632597 1.02735,1.015624 0.27105,0.383028 0.46484,0.812422 0.55859,1.294922 0.2,1.025 0.0437,1.944688 0.1875,2.617188 0.0719,0.33625 0.21852,0.61 0.52149,0.804687 0.30296,0.194688 0.76343,0.310625 1.46093,0.328125 1.24,0.035 2.70008,0.132657 4.08008,0.441407 0.69,0.154377 1.36016,0.362027 1.97266,0.640627 0.6125,0.27859 1.16695,0.62836 1.62695,1.06835 0.92,0.88 1.49789,1.93118 2.02539,3.01368 0.5275,1.0825 1.00461,2.19531 1.72461,3.19531 0.67982,1.00678 1.4606,1.94263 2.33008,2.79101 0.66463,0.47882 1.22881,1.08292 1.66015,1.7793 0.27829,0.63763 0.41797,1.31881 0.41797,2 0,0.68119 -0.13968,1.36238 -0.41797,2 -0.4043,1.29335 -0.91738,2.54737 -1.53125,3.75 -0.61386,1.20263 -1.32841,2.35333 -2.13867,3.43946 -1.14,1.56 -2.53765,3.37718 -3.6289,5.30468 -0.54563,0.96375 -1.01391,1.95672 -1.33594,2.95703 -0.32203,1.00032 -0.49758,2.00977 -0.45508,3.00977 0.0275,0.715 0.26609,1.34383 0.64063,1.9082 0.37453,0.56438 0.8839,1.06367 1.45703,1.51367 1.14625,0.9 2.54179,1.60758 3.59179,2.26758 0.84,0.53 1.49938,1.17141 2.17188,1.78516 0.6725,0.61375 1.35805,1.20023 2.24805,1.61523 2.50685,0.98778 4.94363,2.14595 7.29101,3.46875 1.09,0.715 1.91734,1.54461 2.6211,2.47461 0.70375,0.93 1.2839,1.96117 1.8789,3.07617 0.485,0.9 1.08375,1.73399 1.5625,2.61524 0.47875,0.88125 0.83594,1.80953 0.83594,2.89453 -0.005,1.735 -0.41391,3.50313 -0.97266,5.23438 -0.55875,1.73124 -1.26718,3.42562 -1.86718,5.01562 -0.48001,1.285 -0.85969,2.61258 -1.27344,3.92383 -0.41375,1.31125 -0.86156,2.60617 -1.47656,3.82617 -0.58025,1.24573 -1.25023,2.44511 -2.00391,3.58984 -0.75369,1.14474 -1.59085,2.23444 -2.50586,3.25977 l -1.33984,-2.90039 c -0.33225,0.91117 -0.5295,1.86028 -0.5918,2.81836 -0.0623,0.95807 0.0112,1.92652 0.22265,2.87304 -0.11128,0.72484 -0.0119,1.44889 0.26563,2.09766 0.27755,0.64878 0.7329,1.22251 1.33398,1.64258 0.66447,1.0484 1.52351,1.9423 2.51954,2.64258 0.99603,0.70028 2.12843,1.20608 3.33984,1.47656 l 2.33984,1.07031 c 2.88,1.36 5.69133,2.84961 8.61133,4.09961 2.23,0.95 4.5293,1.66055 6.7793,2.56055 1.90862,0.66293 3.71391,1.57046 5.37304,2.69336 1.65914,1.1229 3.17125,2.46085 4.4961,3.98633 1.57,1.92 2.72062,3.91992 4.14062,5.91992 0.84627,1.1966 1.77322,2.3249 2.77344,3.3789 1.6631,1.75252 3.5278,3.29866 5.55078,4.60743 2.02299,1.30876 4.20509,2.38042 6.50586,3.18359 1.21887,0.46931 2.47199,0.83989 3.7461,1.10742 1.27411,0.26753 2.56835,0.43161 3.87304,0.49219 2.34301,-0.0638 4.68031,-0.26376 7,-0.59961 1.415,-0.14 3.34531,-0.39344 5.19532,-0.30469 0.92499,0.0444 1.83,0.17555 2.64062,0.44727 0.81062,0.27172 1.52672,0.68437 2.07422,1.29687 0.88994,1.17363 1.66121,2.43299 2.30078,3.75977 0.79087,1.40072 1.78718,2.66437 2.94727,3.75195 1.16008,1.08758 2.48481,2.00027 3.93359,2.69922 0.605,0.2725 1.26086,0.40133 1.94336,0.43555 0.6825,0.0342 1.39156,-0.0272 2.10156,-0.13282 1.42,-0.21125 2.84422,-0.6032 4.07422,-0.7832 4.35,-0.64 8.74055,-0.9293 13.06055,-1.7793 0.635,-0.12499 1.50429,-0.42882 2.37304,-0.61132 0.86875,-0.1825 1.73719,-0.24368 2.36719,0.11132 0.22,0.12001 0.62984,0.83001 0.83984,1 0.46043,0.33236 0.98085,0.55432 1.5254,0.66016 0.54454,0.10584 1.11266,0.0947 1.66406,-0.041 4.08,-0.41 8.06992,-1.35922 12.16992,-1.69922 1.85,-0.155 3.74187,-0.2175 5.60938,-0.0625 1.8675,0.155 3.71093,0.52718 5.46093,1.24218 2.07078,0.89782 4.07574,1.93955 6,3.11915 2,1.17999 4.05453,2.41593 5.95703,3.83593 0.95125,0.71 1.86383,1.46641 2.71289,2.28516 0.84907,0.81875 1.63508,1.70015 2.33008,2.66015 0.885,1.225 1.45977,2.59219 1.81446,4.04297 0.35468,1.45079 0.48843,2.98539 0.49218,4.54102 0.008,3.11125 -0.50617,6.31023 -0.82617,9.11523 -0.18,1.585 -0.31375,3.02227 -0.21875,4.41602 0.095,1.39375 0.41844,2.7443 1.14844,4.1543 0.82,1.58 1.71891,3.0989 2.62891,4.6289 1.36999,2.325 2.90898,4.56586 4.42773,6.81836 1.51875,2.2525 3.0175,4.51758 4.3125,6.89258 0.87312,1.71307 1.59353,3.49608 2.15234,5.32812 0.55882,1.83205 0.95588,3.71235 1.1875,5.6211 0.305,1.96 0.56047,3.87508 0.44922,5.73633 -0.0556,0.93062 -0.20219,1.84929 -0.48047,2.75195 -0.27828,0.90266 -0.68757,1.78961 -1.26758,2.66211 -0.88872,1.22751 -1.88266,2.37316 -2.96679,3.42383 -1.08413,1.05066 -2.25891,2.0076 -3.51367,2.85742 -0.53264,0.41883 -1.11372,0.76694 -1.72852,1.03906 -0.6148,0.27213 -1.26348,0.46742 -1.93164,0.58008 -2.08563,0.1893 -4.15122,0.52989 -6.18164,1.01953 -2.03042,0.48964 -4.02608,1.12802 -5.96875,1.91016 -3.20918,1.42255 -6.30197,3.09433 -9.25,5 -1.10372,0.55292 -2.15658,1.19819 -3.14844,1.92578 -0.99185,0.72758 -1.92239,1.53709 -2.78125,2.42383 l -2.48047,2.21093 c -0.54,0.7425 -0.88078,1.35657 -1.05468,1.88672 -0.17391,0.53016 -0.17961,0.97664 -0.0527,1.38477 0.12688,0.40812 0.38766,0.77789 0.75,1.1543 0.36235,0.3764 0.82492,0.75835 1.35742,1.19336 2.52319,2.11859 5.2269,4.01263 8.08008,5.66015 1.53,0.865 3.02789,1.85219 4.55664,2.77344 1.52875,0.92125 3.08914,1.77695 4.74414,2.37695 1.12175,0.4252 2.3243,0.59289 3.51953,0.49024 1.48,-0.13 3.06055,-1.05086 4.56055,-1.13086 L 758.66017,556.0408 680.68361,511.31228 408.40041,355.13064 183.10939,737.0408 6.089857,616.82986 3.0820445,356.6365 0.50001325,133.46072 c 1.11999995,0.29 1.99234375,0.79078 2.96484375,1.17578 0.48625,0.1925 0.9984375,0.35485 1.578125,0.44922 0.5796875,0.0944 1.2263281,0.12016 1.9863281,0.0352 1.67,-0.17 3.4032819,-0.5582 5.1132819,-1.00196 1.71,-0.44375 3.398515,-0.94289 4.978515,-1.33789 3.645,-0.9125 7.740079,-2.0414 12.001953,-2.99218 2.130938,-0.47539 4.303438,-0.90701 6.482422,-1.24414 2.178985,-0.33713 4.363282,-0.57938 6.519532,-0.67969 2.15625,-0.10031 4.282968,-0.0573 6.345703,0.17773 2.062734,0.23506 4.0625,0.6611 5.960937,1.33008 1.898438,0.66899 3.696016,1.57979 5.359375,2.78125 0.83168,0.60073 1.629033,1.27501 2.388672,2.02734 0.759639,0.75234 1.481406,1.58376 2.160156,2.5 0.76,1.0325 1.364766,2.18407 1.841797,3.41016 0.477031,1.22609 0.8275,2.52524 1.078125,3.84961 0.50125,2.64875 0.606016,5.39914 0.541016,7.86914 0.0017,1.75096 -0.147002,3.49525 -0.441406,5.21485 -0.294405,1.71959 -0.734298,3.41573 -1.31836,5.0664 -0.785,2 -1.652968,3.76438 -2.324219,5.57813 -0.335625,0.90687 -0.621562,1.82625 -0.824218,2.79297 -0.202656,0.96671 -0.322266,1.98062 -0.322266,3.07812 0.01,2.47 0.439453,4.92016 0.439453,7.41016 0.005,2.33 0.04047,4.77312 -0.05078,7.20312 -0.09125,2.43 -0.308594,4.84695 -0.808594,7.12695 -0.1875,0.8925 -0.51875,1.85407 -0.949218,2.83594 -0.430469,0.98188 -0.960001,1.98453 -1.546876,2.95703 -1.173749,1.945 -2.573515,3.77094 -3.853515,5.08594 -1.155,1.19 -2.508985,2.09031 -3.896485,2.94531 -1.387499,0.855 -2.808515,1.66578 -4.103515,2.67578 -1.295,1.01 -3.12125,2.28907 -4.46875,3.78907 -0.67375,0.75 -1.228047,1.5564 -1.537109,2.41015 -0.309063,0.85375 -0.371954,1.75618 -0.06445,2.70117 0.735286,1.70863 1.749061,3.28351 3,4.66016 0.93875,1.10625 1.97375,2.06785 3.085938,2.91602 1.112187,0.84816 2.30125,1.58281 3.546875,2.23047 2.49125,1.29531 5.20914,2.24718 7.994141,3.08593 2.785,0.83875 5.637734,1.56344 8.396484,2.40625 2.75875,0.84282 5.423437,1.80383 7.835937,3.11133 1.555951,0.78471 3.007039,1.72878 4.333985,2.81055 1.326946,1.08177 2.529167,2.30078 3.589844,3.63281 1.060676,1.33203 1.979185,2.777 2.736328,4.3125 0.757142,1.5355 1.353187,3.16135 1.769531,4.85352 0.385,1.4225 0.612109,2.76726 0.716797,4.07226 0.104687,1.305 0.08703,2.56953 -0.01172,3.83203 -0.1975,2.525 -0.723438,5.04071 -1.273437,7.84571 -0.33,1.775 -0.21086,3.47257 -0.06836,5.17382 0.1425,1.70125 0.30836,3.40532 0.06836,5.19532 -0.26,1.905 -0.873047,3.80343 -1.404297,5.71093 -0.265625,0.95375 -0.51086,1.91016 -0.681641,2.8711 -0.170781,0.96094 -0.266875,1.92594 -0.234375,2.89844 0.06396,1.73509 0.291269,3.45636 0.679687,5.14062 0.388419,1.68426 0.938258,3.33206 1.640626,4.91992 0.392499,0.8125 0.898437,1.55696 1.480468,2.25196 0.582031,0.695 1.239063,1.34007 1.929688,1.95507 1.38125,1.23 2.898515,2.33766 4.228515,3.47266 2.8743,2.56147 5.907039,4.93864 9.080079,7.11914 3.57205,2.35512 7.01431,4.90305 10.31054,7.63086 0.6475,0.52 1.38696,0.90281 2.17774,1.20703 0.79078,0.30422 1.6332,0.52891 2.48633,0.73828 1.70625,0.41875 3.45578,0.77016 4.92578,1.53516 1.47,0.765 2.58219,1.15953 3.74219,1.36328 1.16,0.20375 2.36734,0.2168 4.02734,0.2168 3.83,0.02 7.51961,-0.75977 11.34961,-0.75977 0.8475,0 1.63851,-0.13594 2.38867,-0.36719 0.75016,-0.23125 1.46031,-0.55836 2.14844,-0.94336 1.37625,-0.77 2.6639,-1.76945 4.0039,-2.68945 1.45432,-1.05271 2.85236,-2.18033 4.1875,-3.37695 1.33515,-1.19663 2.60741,-2.46218 3.8125,-3.79297 1.405,-1.465 2.53524,-3.12133 3.67774,-4.76758 1.1425,-1.64625 2.29695,-3.28289 3.75195,-4.71289 1.5675,-1.5425 3.19672,-2.80594 4.88672,-3.78516 1.69,-0.97921 3.44141,-1.67375 5.25391,-2.07812 1.8125,-0.40438 3.68609,-0.51992 5.62109,-0.33789 1.935,0.18203 3.93078,0.66141 5.98828,1.4414 1.78,0.67001 3.3625,1.52657 4.96875,2.32032 1.60625,0.79375 3.23633,1.52445 5.11133,1.93945 1.74,0.375 3.53055,0.37234 5.31055,0.15234 1.78,-0.22 3.55,-0.65734 5.25,-1.15234 0.85,-0.2475 1.55734,-0.56133 2.17578,-0.93164 0.61844,-0.37031 1.14742,-0.79719 1.63867,-1.27344 0.9825,-0.9525 1.81406,-2.1 2.91406,-3.375 1.83945,-1.96123 3.47827,-4.10256 4.89063,-6.39062 1.42925,-2.4035 2.67059,-4.91415 3.71093,-7.50977 0.42501,-1.145 0.52719,-2.39812 0.52344,-3.67187 -0.004,-1.27375 -0.11328,-2.56883 -0.11328,-3.79883 -0.02,-1.815 -0.006,-3.61164 0.38867,-5.27539 0.1975,-0.83188 0.49125,-1.63039 0.92188,-2.38086 0.43062,-0.75047 0.99805,-1.45375 1.74805,-2.09375 1.725,-1.505 3.69093,-2.75664 5.74218,-3.86914 2.05125,-1.1125 4.18782,-2.0843 6.25782,-3.0293 1.185,-0.54 2.35273,-0.88422 3.51367,-1.08594 1.16093,-0.20171 2.31476,-0.26195 3.47851,-0.23632 2.3275,0.0512 4.6875,0.44718 7.1875,0.74218 3.9,0.46 7.6818,0.38016 11.5918,0.66016 4.79,0.35 9.39852,0.70898 14.22852,0.70898 3.92653,-0.16053 7.85937,4.7e-4 11.75976,0.48047 0.99,0.15 2.06508,0.49446 3.14258,0.78321 1.0775,0.28875 2.1582,0.52226 3.1582,0.44726 0.8775,-0.0725 1.75539,-0.29203 2.62696,-0.60156 0.87156,-0.30953 1.7375,-0.70945 2.59374,-1.14258 1.71251,-0.86625 3.38352,-1.86687 4.97852,-2.54687 2.155,-0.915 4.32648,-1.7525 6.42774,-2.71875 2.10125,-0.96625 4.13367,-2.06024 6.01367,-3.49024 1.735,-1.335 3.56367,-2.84336 5.16992,-4.53711 0.80312,-0.84687 1.55172,-1.73992 2.20312,-2.68164 0.65141,-0.94172 1.20696,-1.93266 1.62696,-2.97265 0.86,-2.07001 1.19,-4.31993 2,-6.41993 0.755,-1.955 2.25976,-4.41359 3.41601,-6.93359 0.57813,-1.26 1.06953,-2.53516 1.33594,-3.76953 0.26641,-1.23438 0.30828,-2.42789 -0.0117,-3.52539 -0.3,-1.04 -0.90078,-1.84414 -1.42578,-2.68164 -0.2625,-0.41875 -0.50547,-0.8461 -0.68359,-1.31641 -0.17813,-0.47031 -0.29102,-0.98226 -0.29102,-1.57227 -0.0225,-1.06999 0.12,-2.11164 0.34766,-3.13867 0.22765,-1.02703 0.53929,-2.04101 0.85742,-3.05664 0.31812,-1.01562 0.64172,-2.03258 0.89062,-3.06836 0.24891,-1.03578 0.42336,-2.09023 0.44336,-3.17773 0.06,-3.17 0.18,-6.52016 0,-9.66016 -0.0575,-0.955 -0.26508,-1.79484 -0.59179,-2.55078 -0.32672,-0.75594 -0.77282,-1.42726 -1.30469,-2.04101 -1.06375,-1.2275 -2.47266,-2.22657 -3.97266,-3.22657 -2.72,-1.815 -5.38695,-3.70008 -8.0957,-5.51758 -2.70875,-1.81749 -5.45875,-3.56828 -8.34375,-5.11328 -1.645,-0.88 -3.25438,-1.66507 -4.85547,-2.30664 -1.60109,-0.64156 -3.19422,-1.13906 -4.80859,-1.44531 -1.61438,-0.30625 -3.25071,-0.42086 -4.93555,-0.29492 -1.68484,0.12594 -3.41797,0.49148 -5.23047,1.14648 -1.635,0.59 -3.36305,1.16969 -5.12305,1.55469 -1.76,0.385 -3.55336,0.57672 -5.31835,0.38672 -0.905,-0.09 -1.72665,-0.38141 -2.55665,-0.62891 -0.83,-0.2475 -1.66851,-0.45109 -2.60351,-0.37109 -1.1125,0.095 -2.42461,0.25648 -3.79883,0.52148 -1.37422,0.265 -2.80969,0.63227 -4.16406,1.13477 -1.35438,0.5025 -2.62867,1.14172 -3.68164,1.94922 -0.52649,0.40375 -0.99815,0.84914 -1.39649,1.34179 -0.39834,0.49266 -0.72398,1.0311 -0.95898,1.6211 -0.5675,1.4275 -0.89828,2.9343 -1.11328,4.47851 -0.215,1.54422 -0.31297,3.12625 -0.41797,4.70313 -0.105,1.57687 -0.21563,3.15031 -0.45313,4.67578 -0.2375,1.52547 -0.60234,3.00258 -1.21484,4.39258 -0.41725,0.89947 -0.97643,1.7183 -1.65039,2.42773 -0.67396,0.70944 -1.46294,1.31064 -2.33984,1.77344 -1.69,1.03 -3.22766,2.24672 -4.75391,3.48047 -1.52625,1.23375 -3.04055,2.48508 -4.68555,3.58008 -1.28959,0.88556 -2.68229,1.59994 -4.14062,2.13086 -1.45833,0.53091 -2.98197,0.87656 -4.53907,1.02734 -0.75,0.0725 -1.44906,0.0234 -2.11718,-0.10352 -0.66813,-0.12687 -1.30555,-0.3314 -1.93555,-0.5664 -1.26,-0.47 -2.48742,-1.06492 -3.85742,-1.41992 -3.84,-1 -7.55961,-1.9593 -11.34961,-3.2793 -1.715,-0.6 -3.79125,-1.51945 -5.875,-2.1582 -1.04188,-0.31938 -2.08555,-0.56828 -3.08789,-0.67188 -1.00234,-0.10359 -1.96289,-0.0633 -2.83789,0.19922 -1.39779,0.38884 -2.7054,1.04934 -3.84961,1.94141 -1.5,1.135 -3.13,2.24484 -4.84766,3.28906 -1.71765,1.04422 -3.52383,2.02266 -5.37695,2.89453 -1.85313,0.87188 -3.75375,1.63594 -5.66016,2.25391 -1.9064,0.61797 -3.81781,1.08859 -5.69531,1.37109 -1.15573,0.12277 -2.31823,0.0996 -3.45898,-0.0684 -1.14075,-0.168 -2.26077,-0.48089 -3.33203,-0.93164 -0.59251,-0.2175 -1.11118,-0.51195 -1.58008,-0.86523 -0.46891,-0.35329 -0.88727,-0.76532 -1.27539,-1.21094 -0.77625,-0.89125 -1.43454,-1.92383 -2.14453,-2.92383 -0.945,-1.305 -2.09227,-2.99703 -3.41602,-4.48828 -0.66188,-0.74563 -1.36656,-1.44031 -2.11328,-2.01172 -0.74672,-0.57141 -1.53438,-1.01953 -2.35938,-1.26953 -0.655,-0.19 -1.29758,-0.20797 -1.93164,-0.13672 -0.63406,0.0713 -1.25961,0.23234 -1.88086,0.40234 -0.62125,0.17 -1.2389,0.34883 -1.85547,0.45508 -0.61656,0.10625 -1.23351,0.13953 -1.85351,0.0195 -1.41,-0.28 -2.58891,-1.40914 -4.12891,-1.86914 -1.33,-0.41 -2.30484,-0.63156 -3.18359,-1.00781 -0.87875,-0.37625 -1.66242,-0.90836 -2.60742,-1.94336 -0.88512,-1.01613 -1.65521,-2.12466 -2.29883,-3.30859 -0.89,-1.515 -1.93797,-2.80813 -3.04297,-4.04688 -1.105,-1.23875 -2.26672,-2.42461 -3.38672,-3.72461 -0.74815,-0.7607 -1.38867,-1.61379 -1.9082,-2.53515 -0.51953,-0.92137 -0.91791,-1.90951 -1.18164,-2.94336 -0.265,-1.46 -0.32266,-2.92102 -0.41016,-4.38477 -0.0875,-1.46375 -0.20484,-2.93125 -0.58984,-4.40625 -0.255,-0.9675 -0.59946,-1.82601 -1.01367,-2.61133 -0.41422,-0.78531 -0.90008,-1.49757 -1.43946,-2.17382 -1.07875,-1.3525 -2.37304,-2.55907 -3.74804,-3.91407 -0.805,-0.795 -1.81805,-1.56625 -2.62305,-2.4375 -0.4025,-0.43562 -0.75313,-0.8964 -1,-1.39843 -0.24688,-0.50204 -0.38945,-1.04454 -0.37695,-1.64454 0.0125,-0.6 0.18273,-1.14492 0.45507,-1.64648 0.27235,-0.50156 0.64649,-0.95992 1.06836,-1.38867 0.84375,-0.8575 1.87625,-1.59446 2.65625,-2.31446 3.76,-3.47999 7.42055,-7.03015 11.06055,-10.66015 1.045,-1.045 2.21188,-2.58359 3.51562,-3.87109 0.65188,-0.64376 1.33883,-1.22446 2.06055,-1.6504 0.72172,-0.42593 1.47844,-0.69625 2.27344,-0.71875 1.79,-0.05 3.61039,0.0606 5.40039,0.0606 1.22657,0.0332 2.44512,-0.10477 3.62305,-0.4043 1.17792,-0.29952 2.31522,-0.76189 3.37695,-1.37695 0.675,-0.395 1.62461,-1.00922 2.47461,-1.69922 0.85,-0.69 1.6,-1.45539 1.875,-2.15039 0.23,-0.575 0.2607,-1.15789 0.1543,-1.73633 -0.10641,-0.57843 -0.35039,-1.15328 -0.66602,-1.70703 -0.63125,-1.1075 -1.55281,-2.13656 -2.25781,-2.97656 -2.08,-2.49 -4.15,-5.07 -6,-7.75 -1.495,-2.17 -2.63328,-4.5568 -3.73828,-6.9668 -1.105,-2.41 -2.17602,-4.84351 -3.54102,-7.10351 -0.6225,-1.03 -1.34773,-1.93735 -2.11914,-2.78516 -0.77141,-0.84781 -1.58922,-1.63508 -2.40234,-2.42383 -0.81313,-0.788747 -1.62149,-1.578825 -2.36914,-2.431638 -0.74766,-0.852812 -1.43477,-1.768593 -2.00977,-2.808593 -0.6175,-1.1175 -1.06258,-2.205391 -1.38086,-3.28711 -0.31828,-1.081718 -0.50937,-2.158125 -0.625,-3.25 -0.23125,-2.18375 -0.1543,-4.433593 -0.1543,-6.933593 0.0338,-1.127368 -0.017,-2.254591 -0.15234,-3.371094 -0.13538,-1.116503 -0.35595,-2.221974 -0.6582,-3.308594 -0.15,-0.515 -0.41219,-1.11039 -0.61719,-1.71289 -0.205,-0.602501 -0.35344,-1.212813 -0.27344,-1.757813 0.0775,-0.5225 0.26071,-0.964141 0.51758,-1.345703 0.25688,-0.381563 0.5893,-0.703125 0.9668,-0.984375 0.755,-0.5625 1.69117,-0.964141 2.57617,-1.369141 1.48028,-0.725493 3.01034,-1.340463 4.57617,-1.841797 1.56583,-0.501334 3.16854,-0.889032 4.79492,-1.158203 0.795,-0.0875 1.52438,-0.075 2.21485,0.01953 0.69047,0.09453 1.34218,0.270546 1.97656,0.513671 1.26875,0.48625 2.47359,1.237188 3.80859,2.117188 l 0.60938,-0.150391 c 0.16923,0.002 0.33639,0.03884 0.49023,0.109375 l 0.67967,0.160139 c 0.56,0.11 1.14094,0.230781 1.71094,0.300781 l 1.59961,0.189453 c 0.31,0.04 0.61968,0.14039 0.92968,0.15039 0.31,0.01 0.61993,-0.08008 0.91993,-0.08008 v 1 c 1.151,0.306812 2.26707,0.731965 3.33007,1.269532 0.63,0.39 1.19907,0.851015 1.78907,1.291015 0.68153,0.592124 1.42502,1.103364 2.21484,1.529297 0.78982,0.425933 1.6269,0.765621 2.49609,1.009766 1.035,0.19 1.95672,0.207578 2.79688,0.08008 0.84016,-0.1275 1.59852,-0.399063 2.30664,-0.789063 0.70812,-0.39 1.365,-0.898593 2.00391,-1.496093 0.6389,-0.5975 1.26007,-1.285157 1.89257,-2.035157 0.93237,-0.973734 2.04627,-1.731388 3.26368,-2.242187 1.2174,-0.510799 2.53869,-0.774743 3.88671,-0.757813 0.75006,0.04008 1.49274,0.156972 2.21876,0.34961 0.58,0.09 1.36992,-0.08016 1.91992,0.08984 0.465,0.145 0.91976,0.666485 1.32226,1.240235 0.4025,0.57375 0.75282,1.200547 1.00782,1.560547 0.85959,1.330462 1.78873,2.615125 2.78124,3.849609 0.88,1 1.92876,1.75 3.0625,2.375 1.13375,0.625 2.35141,1.125 3.56641,1.625 1.13,0.455 2.30977,0.996406 3.50977,1.472656 1.2,0.47625 2.42086,0.887891 3.63086,1.087891 0.69,0.115 1.38078,0.129219 2.0664,0.06641 0.68563,-0.06281 1.36571,-0.202187 2.03321,-0.398437 1.335,-0.3925 2.62078,-1.007969 3.80078,-1.667969 0.72,-0.44 1.58031,-0.874922 2.41406,-1.357422 0.83375,-0.4825 1.64086,-1.012578 2.25586,-1.642578 0.70619,-0.881493 1.21459,-1.904665 1.49023,-3 0.95185,-2.972338 2.09095,-5.882419 3.41016,-8.710938 0.72498,-1.566166 1.64331,-3.02525 2.73047,-4.347656 1.08716,-1.322406 2.34191,-2.507275 3.73828,-3.521484 1.54073,-1.122173 3.21682,-2.028561 4.98242,-2.701172 1.76561,-0.672611 3.62073,-1.111445 5.51758,-1.298828 1.26944,-0.219472 2.55655,-0.256648 3.82422,-0.115234 1.26767,0.141413 2.51715,0.461259 3.70703,0.955078 0.85171,0.495875 1.6544,1.065336 2.40234,1.701172 0.74795,0.635835 1.4399,1.338827 2.06641,2.099609 1.17198,1.401771 2.43942,2.718451 3.79101,3.941406 1.3516,1.222955 2.78721,2.352496 4.29883,3.378906 1.12,0.73 2.39774,1.459219 3.49024,2.355469 0.54625,0.448125 1.04609,0.938203 1.45703,1.490234 0.41094,0.552032 0.73383,1.165782 0.92383,1.863282 0.19,0.6975 0.24476,1.41164 0.2207,2.134765 -0.0241,0.723125 -0.1282,1.455 -0.25195,2.1875 -0.2475,1.465 -0.57907,2.932891 -0.53907,4.337891 0.05,1.61 0.25977,3.180781 0.25977,4.800781 -0.005,2.13 -0.0804,4.27 -0.0879,6.40625 -0.007,2.13625 0.0534,4.267813 0.31836,6.382813 0.05,0.385 0.12297,1.154765 0.32422,1.884765 0.10062,0.365 0.23187,0.719844 0.41015,1.011719 0.17828,0.291875 0.40305,0.520313 0.68555,0.632813 0.33,0.129998 0.89898,0.04008 1.45899,-0.107422 0.56,-0.1475 1.11039,-0.351172 1.40039,-0.451172 2.635,-0.885 5.06945,-2.088828 7.4707,-3.361328 2.40125,-1.2725 4.76953,-2.614297 7.26953,-3.779297 1.635,-0.765 3.13461,-1.806719 4.56836,-2.917969 1.43375,-1.11125 2.80187,-2.292031 4.17187,-3.332031 1.53053,-1.163561 3.17451,-2.34594 4.73438,-3.628906 1.55987,-1.282966 3.0353,-2.667249 4.22656,-4.236328 0.27938,-0.36798 0.54347,-0.745391 0.78906,-1.134766 0.50709,-0.807167 0.91674,-1.660286 1.22657,-2.542969 0.30983,-0.882682 0.52037,-1.794971 0.6289,-2.71875 0.10853,-0.923779 0.1144,-1.858605 0.0176,-2.789062 -0.0968,-0.930457 -0.29731,-1.85705 -0.60351,-2.759766 -0.27,-0.885 -0.78782,-1.909922 -1.13282,-2.951172 -0.1725,-0.520625 -0.30218,-1.045312 -0.33593,-1.558594 -0.0337,-0.513281 0.0283,-1.015234 0.23828,-1.490234 0.28,-0.635 0.81523,-1.019062 1.42773,-1.289063 0.6125,-0.27 1.30258,-0.424609 1.89258,-0.599609 1.69,-0.51 3.40109,-0.901484 5.12109,-1.271484 2.79905,-0.684732 5.5304,-1.620731 8.16016,-2.798828 2,-0.8 4.08,-1.43961 6,-2.34961 0.79,-0.37 1.26641,-0.72 1.59766,-1.1875 0.33125,-0.4675 0.5157,-1.052578 0.7207,-1.892578 0.70431,-2.292234 1.24675,-4.6314 1.62109,-7 0.1725,-1.6875 -0.0806,-3.398828 -0.47656,-5.111328 -0.39594,-1.7125 -0.93469,-3.4275 -1.33594,-5.125 -0.40125,-1.6975 -0.66437,-3.377031 -0.50781,-5.019531 0.0783,-0.82125 0.26066,-1.633594 0.58398,-2.433594 0.32332,-0.8 0.78704,-1.587578 1.42579,-2.361328 0.855,-1.0225 1.84554,-1.882656 2.92773,-2.605469 1.08219,-0.722812 2.25672,-1.3075 3.48047,-1.78125 1.22375,-0.47375 2.4957,-0.836016 3.77539,-1.111328 1.27969,-0.275313 2.56641,-0.464297 3.81641,-0.591797 2.24909,-0.230182 4.50986,-0.269953 6.75781,-0.121094 2.24795,0.14886 4.48253,0.486977 6.68164,1.011719 1.51,0.355 2.99601,0.807266 4.35351,1.478516 0.67875,0.335625 1.32555,0.72539 1.92774,1.185547 0.60219,0.460156 1.16015,0.990468 1.66015,1.605468 0.345,0.425 1.15883,1.289766 1.83008,2.197266 0.33563,0.45375 0.63524,0.918437 0.82227,1.34375 0.18703,0.425313 0.26148,0.811875 0.14648,1.109375 -0.21,0.5 -0.85789,0.941953 -1.55664,1.314453 -0.69875,0.3725 -1.44828,0.674531 -1.86328,0.894531 -1.87,1 -3.79914,1.91 -5.61914,3 -0.605,0.37 -1.54094,0.954688 -2.39844,1.679688 -0.8575,0.725 -1.63664,1.591484 -1.93164,2.521484 -0.1475,0.465 -0.11922,0.91961 0.0234,1.361328 0.14266,0.441719 0.39945,0.870469 0.70508,1.277344 0.61125,0.81375 1.42187,1.545391 1.92187,2.150391 1.905,2.25 3.49977,4.739765 5.22852,7.103515 0.86437,1.181875 1.76133,2.333282 2.74805,3.40625 0.98671,1.072969 2.0632,2.066953 3.2832,2.939453 2.87,2.010001 6,3.35086 9,5.13086 1.95,1.18 3.7793,2.510625 5.7793,3.640625 0.76277,0.527885 1.59273,0.94374 2.46289,1.238281 0.87016,0.294541 1.78044,0.467769 2.70703,0.511719 2.56809,-0.139999 5.14285,-0.139999 7.71093,0 0.81205,0.08259 1.60483,0.271124 2.36133,0.558594 0.7565,0.287469 1.47671,0.672855 2.13867,1.15039 0.66001,0.46 1.21868,1.09125 1.88868,1.53125 0.81,0.53 1.73781,0.793282 2.69531,0.925781 0.9575,0.1325 1.945,0.132813 2.875,0.132813 3.76692,-0.07819 7.52231,-0.451819 11.23047,-1.119141 0.645,-0.105 1.22961,-0.179765 1.75586,-0.353515 0.52625,-0.17375 0.99429,-0.447266 1.40429,-0.947266 1.5798,-2.063031 3.03209,-4.219341 4.34961,-6.458984 0.65,-1.055 1.30828,-2.16086 1.73828,-3.31836 0.215,-0.57875 0.37344,-1.170078 0.44532,-1.77539 0.0719,-0.605313 0.0558,-1.224922 -0.0742,-1.857422 -0.185,-0.92 -0.58883,-1.745078 -0.98633,-2.580078 -0.3975,-0.835 -0.78836,-1.678672 -0.94336,-2.638672 -0.175,-1.21 -0.25109,-2.417344 -0.37109,-3.621094 -0.12,-1.20375 -0.28391,-2.404609 -0.62891,-3.599609 -0.38159,-1.200661 -0.85626,-2.366817 -1.41797,-3.490235 -0.56171,-1.123417 -1.20983,-2.2048 -1.9414,-3.230468 -0.225,-0.345 -0.61032,-0.868672 -0.94532,-1.419922 -0.335,-0.55125 -0.61953,-1.130078 -0.64453,-1.580078 -0.0175,-0.3375 0.0907,-0.613594 0.2793,-0.839844 0.18859,-0.22625 0.45789,-0.401563 0.75977,-0.539063 0.60375,-0.275 1.33984,-0.396172 1.83984,-0.451172 0.975,-0.095 2.00781,0.0016 3.03906,0.150391 1.03125,0.14875 2.06125,0.350703 3.03125,0.470703 2.55641,0.3866 5.07057,1.011829 7.50977,1.869141 0.85,0.28 1.775,0.536562 2.625,0.914062 0.85,0.3775 1.62578,0.876485 2.17578,1.646485 0.34323,0.694671 0.59531,1.430212 0.75,2.189453 0.2008,0.794042 0.54743,1.536617 1.01562,2.191406 0.46819,0.65479 1.05771,1.223122 1.74414,1.669922 1.235,0.74 2.54571,1.063906 3.87696,1.316406 1.33125,0.2525 2.6839,0.432813 4.0039,0.882813 1.47082,0.594613 2.84575,1.403742 4.08008,2.40039 1.855,1.325 3.92891,2.434375 6.06641,3.421875 2.1375,0.9875 4.33836,1.8525 6.44336,2.6875 0.91,0.36 2.20851,0.976329 3.54101,1.455079 0.66625,0.239374 1.34071,0.444062 1.97852,0.566406 0.63781,0.122343 1.23976,0.160859 1.75976,0.06836 0.64,-0.115 1.11203,-0.444844 1.51954,-0.871094 0.4075,-0.42625 0.75085,-0.949218 1.13085,-1.449218 0.955,-1.27 1.86454,-2.666641 2.48829,-4.150391 0.31187,-0.741875 0.55281,-1.505313 0.6914,-2.285156 0.1386,-0.779844 0.17508,-1.575313 0.0801,-2.382813 -0.085,-0.7025 -0.005,-1.387109 0.16406,-2.060547 0.16953,-0.673437 0.42946,-1.33625 0.70508,-2 0.55125,-1.3275 1.165,-2.655546 1.25,-4.060546 0.0486,-1.74567 0.37032,-3.472223 0.95117,-5.119141 0.96,-2.45 2.6293,-4.66 3.7793,-7 0.425,-0.88 1.03258,-1.934844 1.51758,-3.027344 0.485,-1.0925 0.8482,-2.223906 0.7832,-3.253906 -0.14369,-1.074338 -0.002,-2.167494 0.41016,-3.169922 0.55,-1.3849999 1.41679,-2.6478124 2.43554,-3.7890624 1.01875,-1.14125 2.18875,-2.1605469 3.34375,-3.0605469 1.155,-0.9 2.51852,-1.8678125 3.97852,-2.6015625 0.73,-0.366875 1.48305,-0.674375 2.24805,-0.88671875 0.765,-0.21234375 1.54195,-0.32804688 2.31445,-0.31054688 z"
     id="path934" />
  <g
     transform="translate(-0.00975237,0.04080007)"
     id="Districts" />
</svg>
