<?xml version="1.0" encoding="UTF-8" standalone="no"?>
<svg
   xmlns:dc="http://purl.org/dc/elements/1.1/"
   xmlns:cc="http://creativecommons.org/ns#"
   xmlns:rdf="http://www.w3.org/1999/02/22-rdf-syntax-ns#"
   xmlns:svg="http://www.w3.org/2000/svg"
   xmlns="http://www.w3.org/2000/svg"
   id="svg923"
   version="1.1"
   viewBox="0 0 99.999999 99.999999"
   height="100mm"
   width="100mm">
  <defs
     id="defs917" />
  <metadata
     id="metadata920">
    <rdf:RDF>
      <cc:Work
         rdf:about="">
        <dc:format>image/svg+xml</dc:format>
        <dc:type
           rdf:resource="http://purl.org/dc/dcmitype/StillImage" />
        <dc:title></dc:title>
      </cc:Work>
    </rdf:RDF>
  </metadata>
  <g
     transform="translate(-46.982443,-128.53083)"
     id="layer1">
    <g
       transform="matrix(1.4398226,0,0,1.4398226,-20.663937,-56.530754)"
       id="g844">
      <rect
         style="fill:#000000;fill-opacity:1;stroke-width:8.98775"
         id="rect1513"
         width="69.453003"
         height="69.453003"
         x="46.982441"
         y="128.53082" />
      <path
         style="fill:#ffd000;fill-opacity:1;stroke-width:0.264583"
         d="m 77.715154,190.50802 c -3.121502,-0.89998 -3.286122,-0.90938 -5.784381,-2.67654 -2.231575,-1.57852 -3.925713,-3.24716 -5.661979,-6.42498 -1.507439,-2.75901 -1.778367,-4.43272 -2.320821,-7.79839 -0.426646,-2.64713 0.135253,-7.91533 1.052243,-9.26086 0.434259,-0.63721 1.082009,-1.68314 2.276455,-0.17131 0.153094,0.19377 0.320956,0.62168 0.347166,0.99219 0.147087,2.07925 0.238255,-0.0825 0.411532,-1.02841 0.573104,-3.12848 1.696654,-4.90325 5.913873,-9.34163 4.397928,-4.62856 5.876292,-6.51385 7.728984,-9.85641 1.140135,-2.05699 1.328349,-2.60119 1.326851,-3.83646 -0.0012,-0.99126 -0.16542,-1.6866 -0.527423,-2.23321 -0.588568,-0.88871 -1.194896,-2.96138 -0.712797,-3.44348 0.174625,-0.17463 1.066022,0.19915 1.446815,0.40078 1.214247,0.64293 3.530155,2.61143 4.580493,4.57446 0.769969,1.43904 0.891696,1.93916 0.979527,4.02449 0.07381,1.75243 -0.0453,3.0268 -0.451038,4.82585 -0.303234,1.34453 -0.550169,2.83281 -0.548748,3.30729 0.0045,1.51485 1.155035,3.42021 3.857577,6.38859 4.83463,5.3102 5.420614,6.03712 6.342745,7.86823 1.317826,2.61685 1.794793,4.89206 1.601676,7.64025 -0.151641,2.15794 -0.46096,3.76446 -0.94244,4.89479 -0.123974,0.29104 -0.359691,0.88899 -0.523817,1.32877 -0.418275,1.12079 -2.789281,4.36905 -4.311669,5.9974 -0.63332,0.6774 -1.778987,1.52839 -2.382593,2.0173 -1.111392,0.90022 -3.922404,2.11656 -6.195796,2.27676 -2.561497,0.18051 -4.58076,0.3769 -7.502435,-0.46547 z"
         id="path950" />
    </g>
  </g>
</svg>
