<svg xmlns="http://www.w3.org/2000/svg" viewBox="0 0 447.95 758.67"><defs><style>.cls-1{fill:none;stroke:#231f20;stroke-miterlimit:10;}</style></defs><g id="Layer_2" data-name="Layer 2"><g id="Districts"><g id="Los_Vooperis" data-name="Los Vooperis"><path id="Los_Vooperis_1" data-name="Los Vooperis 1" class="cls-1" d="M409.93.35c1.81,1.81,2.87,2.68,4.64,4.55a15.8,15.8,0,0,1,3.77,6.6A40.6,40.6,0,0,0,420.22,17a17.17,17.17,0,0,1,1.24,3.21c.89,4-1.15,8.22-2.12,12-.9,3.48-1.63,7.73,2.36,9.46,2.46,1.07,5.23,1.44,7.58,2.8s3.61,3.49,5.52,5.17c1.6,1.42,3.29,2.42,3.87,4.6s.28,4.48.87,6.66a24.17,24.17,0,0,0,2,4.78c1.32,2.59,2.45,5,2.5,8,.05,2.52.17,5,.27,7.53.21,5.06-.54,10.13,0,15.17.36,3.63-.7,7.27-1.5,10.77a13.07,13.07,0,0,0-.47,4.89,8.26,8.26,0,0,0,1.59,3.34c1.44,2.14,4.77,6.15,3.08,8.83a26.84,26.84,0,0,1-3.95,4.1c-1.06,1-2.11,2.11-3.17,3.17-1.41,1.41-3.33,2.84-4.46,4.5a6.76,6.76,0,0,0-.76,2.14c-.85,3.2-1.57,6.32-2.69,9.45a22.19,22.19,0,0,1-6.24,9.16c-1.83,1.67-3.66,3.32-5.41,5.08a26.26,26.26,0,0,1-3.1,3,53.38,53.38,0,0,1-10.88,5.42c-3.43,1.39-7.23,1.8-10.48,3.65a15.17,15.17,0,0,0-5.88,5.55c-.53,1-.74,2.13-1.28,3.12a36,36,0,0,1-3.68,4.92,23.92,23.92,0,0,1-6.06,5.33,16.53,16.53,0,0,1-5.05,2.45c-5.38,1.2-10.9,2.33-16.44,2.3-2.17,0-4.3-.1-6.46-.28-1.07-.09-2.63.15-3.5-.61a25.47,25.47,0,0,1-1.68-2.35,10,10,0,0,0-4.23-2.32,28.45,28.45,0,0,0-6.95-1.43,17.79,17.79,0,0,0-5.25-.14,59.18,59.18,0,0,0-7.9,2.25A9.75,9.75,0,0,0,317.2,195a87.52,87.52,0,0,0-7.08,8.86,107.72,107.72,0,0,1-10.66,12.79c-2,2-4,4.25-6.9,5.08a8.62,8.62,0,0,1-3.68.21c-2.76-.3-5.5-.68-8.28-.88-1.16-.09-2.33-.17-3.48-.36a5,5,0,0,0-1.44-.19c-1.27.14-2.46,1.12-3.64,1.56s-2.51,1-2.65-.48a9.09,9.09,0,0,0-.87-3.82l-1.71-3.13c-.36-.67-.69-1.26-1.46-1.44a13.75,13.75,0,0,1-1.77-.21,15.08,15.08,0,0,1-1.76-1c-3.42-1.77-7.53-1.09-11.24-1.47a7.72,7.72,0,0,1-3.64-.83,7.64,7.64,0,0,1-2.23-2.89c-.79-1.56-1.36-3.21-2.24-4.72s-1.58-3-2.28-4.53a24.31,24.31,0,0,1-1-2.57L409.93.35"/><path id="Los_Vooperis_2" data-name="Los Vooperis 2" class="cls-1" d="M230.24,332.75c1.44,4.7,6.16,7.26,9.51,10.46s6.59,6.38,7.25,11c1.61,11.21-2.49,22.75-5.12,33.58-.54,2.24-1.6,4.37-2,6.63-.38,2-.65,4-1.18,6-.38,1.46-.73,2.37.52,3.37,1.42,1.15,4.36,1.3,6.05,1.51a67.87,67.87,0,0,0,9.35.47c2.82,0,6.86-.33,9.13,1.95,1.5,1.51,2.15,3.95,2.76,5.9,1.18,3.77,4.72,5.8,6,9.63.86,2.57-.81,8.36,3.07,8.55,4.53.23,8.16-5.57,12.67-4.14,2.09.67,3.93,1.91,6.14,2.3,4,.71,9.66-1.62,13.1-3.49,4.91-2.68,13.51-8.89,13.26-15.53a27.75,27.75,0,0,0-1.19-5.85c-.74-2.53-1.42-5.16-2.33-7.64-1.63-4.49-5.9-8.9-5.57-13.88a35,35,0,0,1,2.59-9.95c.71-1.91,1.6-3.86.74-5.73-1.09-2.36-3.9-4.29-5.46-6.38-2.42-3.26-3.37-7.15-4.63-10.94-1.36-4.11-2.78-7.84-5.43-11.32-2.16-2.83-5-5.21-7.28-8-4.5-5.42-8.37-10.88-14.44-14.69-2.26-1.42-4.51-2.8-6.77-4.22a17.71,17.71,0,0,0-7.28-2.53c-1.56-.26-3.12-.91-4.69-1.09s-3.21.42-4.81.55c-4,.31-7.72,2.72-11.15,4.68C243,314,227.38,323.42,230.24,332.75Z"/><path id="Los_Vooperis_3" data-name="Los Vooperis 3" class="cls-1" d="M13.84,447.11C9,451.63,2.64,455.46.74,462.3c-1.63,5.89,5.47,9.47,9.21,12.44,1.9,1.52,3.17,3,3.44,5.51a21.35,21.35,0,0,1-.84,8.41c-.27.91-.63,1.79-.91,2.71a24,24,0,0,0-.51,3.26c-.2,1.22-.67,2.11.06,3.19a11.37,11.37,0,0,0,3,2.61,4.62,4.62,0,0,1,2.23,5.24,55.25,55.25,0,0,1-2.66,10.1c-.49,1.41-1,2.81-1.41,4.24s-1.12,2.72-1.44,4.11c-1,4.4,4.23,4.87,7.33,5a30.19,30.19,0,0,0,17.25-4.81,20.72,20.72,0,0,1,3.65-1.82A18.66,18.66,0,0,1,42,521.23c3.56-.73,5.47,3.74,7.93,5.26,1.36.84,2.35.19,3.66-.43,2.23-1.07,4.44-2.25,6.56-3.5A38.5,38.5,0,0,0,68,516.8c1.66-1.65,2.54-3.81,3.52-5.9,1.67-3.55,2.11-7.63,3.46-11.31,1.72-4.68,3.84-9.14,5.23-13.93,1-3.41,2-7.42,0-10.67-1.39-2.24-3.86-3.95-5.83-5.66a98,98,0,0,1-8.65-8.15,88.92,88.92,0,0,1-6.12-7.58c-.5-.7-.9-1.48-1.38-2.2a10.14,10.14,0,0,0-3.53-3,25.43,25.43,0,0,0-8.19-2.72,36.75,36.75,0,0,0-6.93-.75c-4.07.05-8.18-.19-12.25,0-2,.09-4,.77-6,.91-1,.07-2.06-.11-3.09,0a19.31,19.31,0,0,0-3.88.89Z"/><path id="Los_Vooperis_4" data-name="Los Vooperis 4" class="cls-1" d="M174.61,493.57c-2.37,1.68-5.59,4-6.31,7.06-.89,3.72.58,7.93,1.69,11.41.7,2.19,1.32,4.4,1.89,6.62a9.16,9.16,0,0,1-1.31,6.81c-1,1.64-2.45,3-3.38,4.61-.61,1-.84,2.37-1.41,3.46-1.63,3.09.29,4.1,2.88,5.7s5.4,3.11,7.36,5.35c3.46,3.95,1.29,9,.45,13.51-.6,3.21-.56,8.17,1,11,3.09,5.59,10.15,5,15.6,5.07,2.09,0,3.9-.49,5.91-.59a55.49,55.49,0,0,1,8.64.47,77.63,77.63,0,0,0,16.42-.44c1.56-.16,5-.13,6.3-1.16s-.21-2.23-.51-3.61c-.8-3.65.82-8.24,3.34-10.89,1.57-1.65,3.33-4.07,5.33-5.15,1.16-.62,3.31-.87,4.59-1.26,2.06-.63,4.15-1,6.21-1.72s4.56-1.18,6.51-2.27c2.37-1.32,4.39-3.58,6.39-5.4,3.58-3.25,3.86-7.62,3-12-.39-2.11-.41-4.42-1.27-6.38a22.08,22.08,0,0,0-2.61-4.62c-1.33-1.76-3-3-4.49-4.65-2.37-2.64-6-4.76-9-6.55a53.67,53.67,0,0,1-4.67-2.67,23.74,23.74,0,0,1-4.26-4.58,31.65,31.65,0,0,1-2.38-4.35,47.87,47.87,0,0,0-3.43-5.18c-1.17-1.62-2.69-2.92-4-4.41A19.74,19.74,0,0,0,224,482.1a61.52,61.52,0,0,0-10.35-4.8c-7.3-2.43-14.6.73-21.08,4.09a20.23,20.23,0,0,0-2.8,2.18c-1.59,1.18-3.43,2.13-5.12,3.18a37.74,37.74,0,0,0-6.51,5.66Z"/><path id="Los_Vooperis_5" data-name="Los Vooperis 5" class="cls-1" d="M348.61,488.93c-.43.26-2.09.62-2.53.93s-.94.83-1.42,1.23a6.76,6.76,0,0,0-1.9,1.74c-.5.94-.43,2.16.29,4.22.6,1.72,1.49,3.35,2.12,5.06a13.76,13.76,0,0,1-.62,9.93c-.94,2.19-3,5.41.53,5.9a20,20,0,0,1,7.76,2.86c2.78,1.77,4.59,4.61,7.48,6.29,2.58,1.5,5.57,2.1,8.16,3.6,2,1.14,4.15,2.12,6.23,3.07s4,.1,5.79-1.35a16.92,16.92,0,0,0,5.7-9.43,15.67,15.67,0,0,0-.2-8c-1.57-4.86-6-8.24-9.79-11.3s-6.69-7.39-10.76-10.18c-2.77-1.89-6-2.73-9.22-3.61-2.6-.71-6.84-1.45-7.62-1"/><path id="Los_Vooperis_6" data-name="Los Vooperis 6" class="cls-1" d="M377.58,577.13c-2.69,2.29-4.84,4.79-2.24,8,2.26,2.79,5.76,4.88,7.56,8.08,1,1.77.81,4.43,2.18,5.94.9,1,2.34,1.06,3.53,1.47a22.19,22.19,0,0,1,3.76,1.67c2.2,1.28,2.71,3,3.26,5.24s2.44,4.3,3.89,6.09a22.3,22.3,0,0,1,3.19,6.26c.36,1,.53,2.17,1.58,2.61s2.39,0,3.46-.23a52.48,52.48,0,0,0,7.28-2c.87-.27,1.71-.12,2.59-.35a18.71,18.71,0,0,0,3-1.63c2.38-1.17,6.12-3.2,7.49-5.65,1.19-2.14-.33-4.25,0-6.56.29-2.1.68-4.36-.87-6.09s-4.6-2.57-6.72-3.74A24.56,24.56,0,0,1,413.7,590c-2-2.4-4-4.7-4.93-7.7a18.25,18.25,0,0,0-2.5-5.5c-1.49-2-3.54-4-5.87-4.77a19.7,19.7,0,0,0-3.65-.83,26.54,26.54,0,0,0-4.64.1C388.2,571.44,381.16,574.08,377.58,577.13Z"/><path id="Los_Vooperis_7" data-name="Los Vooperis 7" class="cls-1" d="M126.48,673.36c-3.23-.23-5.36,3.48-8.1,5.16-1.68,1-3.12,1.84-4.15,3.62-1.53,2.6-3.56,7.21-2.82,10.35.57,2.44,4.36,3.74,6.41,4.67,2.37,1.07,3.54,2.11,4.31,4.6.65,2.13,1.06,4.34,1.76,6.44,1.09,3.27,3.81,5.66,5.63,8.5,2,3.09,4.24,5.78,5,9.47a42.92,42.92,0,0,1,1.27,8.63c0,2.05-.22,3.43,1.13,5.13s3.47,2.72,5.24,3.9a33.78,33.78,0,0,0,6.35,3.49c3.89,1.54,7.34,1.42,11.46,1.45,8.28.07,18.09-3.47,25.94.3,4.7,2.26,7.62,7.36,12.82,8.71,6.05,1.57,12.86-2,18.19-4.4a12.27,12.27,0,0,0,5.31-5.86c2.1-4.56,2.78-9.6,5.13-14.12,1.52-2.92,3-6.45,5.71-8.47s6.52-1.44,9.74-1.07a31.26,31.26,0,0,1,9.53,3.11c2.54,1.16,3.86.59,6.24-.91,3-1.9,5.05-6.07,6-9.41a38.92,38.92,0,0,0,1.2-14.55c-.75-8.27-5.1-14.09-10.24-20.28-4.37-5.25-10.15-8-16.18-10.86a24.24,24.24,0,0,1-9.22-7.47c-1.75-2.37-3-5-5.57-6.64-2.07-1.32-4.7-.91-7-.91a87.84,87.84,0,0,0-10,.75c-5.14.58-10.15.87-14.87,3.14-4.94,2.37-9.14,5.81-13.26,9.38A15.31,15.31,0,0,1,169,672.84c-7.77,0-15.4-2.41-23.15-2.38-3.33,0-6.5-.18-9.73.83-2,.64-3.31,1.72-5.37,2.22A17.25,17.25,0,0,1,126.48,673.36Z"/><path id="Los_Vooperis_8" data-name="Los Vooperis 8" class="cls-1" d="M346.86,662.6c-.82-.83-2.74-1.36-4.15-2a2.92,2.92,0,0,0-2-.27,6,6,0,0,0-1.14.36c-.46.21-.17,1.21-.27,1.6-.59,2.31-3,3.66-4.51,5.52-1,1.21-2.47,2.41-2.95,3.94-1.08,3.39,3.1,4.91,4.82,7,2.64,3.25,2.21,7.5,2.06,11.35-.13,3.18-1.26,7-.53,10.16.53,2.29,1.56,4.55,2,6.9.76,4.07.53,8,.83,12.1.53,7.13,9.16,5,13.8,4a14.83,14.83,0,0,0,7-3,10.31,10.31,0,0,0,2.44-3.92,24.36,24.36,0,0,1,3.79-6c3.68-4.51,9.77-5.88,15.41-5.33a36.43,36.43,0,0,1,6.38,1.2c1.21.35,2.15.92,3.45.73,4-.6,6.5-6.51,7.83-9.82,1-2.46,2.21-5.48.89-8a16,16,0,0,0-6.59-6.57c-3.24-1.81-6.86-3.1-10.27-4.61-4-1.78-7.86-3.8-12-5.25-4-1.39-8.27-2-12.36-3-6.11-1.56-9.24-2.41-13.9-7.12"/></g></g></g></svg>