<svg xmlns="http://www.w3.org/2000/svg" viewBox="0 0 703.66 481.25">
  <defs>
    <style>
      .cls-1 {
        fill: none;
        stroke: #231f20;
        stroke-miterlimit: 10;
      }
    </style>
  </defs>
  <g id="Layer_2" data-name="Layer 2">
    <g id="Districts">
      <path id="Old_King" data-name="Old King" class="cls-1" d="M54.68.84a4.89,4.89,0,0,1,2.56.5,6.85,6.85,0,0,0,3.21.49A19.32,19.32,0,0,1,65,2.3a8.08,8.08,0,0,1,3.55,2.1,7.06,7.06,0,0,0,2.78,1.73c1.94.62,4,.35,5.93.82,2.6.62,4.62,2.45,7.14,3.27a12.22,12.22,0,0,1,2.69,1.26,8,8,0,0,1,2,2,5.11,5.11,0,0,0,4.29,1.78,3.18,3.18,0,0,1,1.5.23,8,8,0,0,1,1.85,1.2A5.59,5.59,0,0,1,98,18.41a10.58,10.58,0,0,1,1,2,5.17,5.17,0,0,1-2.48.23c-1.68,0-3.36,0-5,0a29.38,29.38,0,0,0-6,.51,28,28,0,0,0-4.83,1,1.58,1.58,0,0,0,.37.93,15.75,15.75,0,0,0,.6,1.62c.76,1.44,2.17,2.12,3.4,3.06,1,.75,1.29,1.8,2,2.76.81,1.12,1.5,1.26,2.86,1.38a22.66,22.66,0,0,1,5.36.88,15.8,15.8,0,0,0,4.82.84c1,0,2.49-.35,3.38.22a1.72,1.72,0,0,0,.51.53c.32.15,0,1.61.4,3a2.93,2.93,0,0,0,.77,1.53c.43.37.2,1.1.3,1.64.34,2-.55,4.08.08,6,.34,1.05.3,1.28-.42,2.41-1.64,2.54-4.18,4.54-6.49,6.43l-3.35,2.74a6,6,0,0,1-1.83,1.2c-1.8.6-3.88-.75-5.19-1.82S85.53,55.18,84,54.18a3.66,3.66,0,0,0-.92-.54c-1.06-.07-1.49,1.46-1.65,2.3-.55,2.8,1.4,5,2.46,7.45a47.61,47.61,0,0,1,1.54,5,5.6,5.6,0,0,0,2.39,3.57c2.26,1.36,5,1.09,7.44,1.79s3.51,3.13,3.5,5.59A7.5,7.5,0,0,1,98,82.89c-1.19,2.23-4.36,3-6.51,3.69a15.62,15.62,0,0,1-6.06,1.08,4.19,4.19,0,0,1-3.11-1.72A5,5,0,0,0,78,83.83c-1.33,0-3.37-.17-4.14,1.2a1.43,1.43,0,0,0,0,1.36c.76,2.09,2.7,3.86,4.06,5.55,1.68,2.09,3.27,4.11,5.72,5.35.7.36,1.49.63,2.17,1s1.37,1.06,2.08,1.54c1.82,1.25,3.94,1.8,5.77,3s3.24,3,4.85,4.55c.64.6,1.1.89,1,1.84,0,.67-.38,1.33-.47,2-.18,1.22.93,1.6.93,2.71,0,.85-.81,1.84-1.17,2.56-.18.36-.34.74-.52,1.1a4.6,4.6,0,0,1-2.1,1.81c-1.48.89-3,1.76-4.5,2.57-.84.44-1.7.87-2.57,1.26-1.06.46-2.64.63-3.51,1.45s-.9,2.56-.79,3.62a16.36,16.36,0,0,0,1.75,5c1.21,2.5,3.92,4.28,4.94,6.89.94,2.44-1.33,4.19-2.42,6.09a22.19,22.19,0,0,0-.68,2.51,45.08,45.08,0,0,1-3.4,6.07,2.93,2.93,0,0,0-.67,2.38,19,19,0,0,0,1.18,2.49,20.47,20.47,0,0,1,1.33,8.65c0,.71-.26,1.43-.22,2.13,0,.4.18.74.22,1.13.15,1.29-.68,2.66-1.28,3.73a3.34,3.34,0,0,1-2,1.93,46.13,46.13,0,0,1-5.39.49,6.12,6.12,0,0,0-3.1.83,37.84,37.84,0,0,1-3.41,2.4,14.33,14.33,0,0,1-6.27,2.1,4.7,4.7,0,0,1-4-1.11c-1.94-1.73-2.21-4.61-2.76-7a18.07,18.07,0,0,0-1.7-4.4,9.22,9.22,0,0,1-1-2.64c-.36-2,.12-4,.22-6,0-.9-.25-1.14-1.18-1.27s-2.18,0-3.2-.09a10.83,10.83,0,0,0-3.81,0A10.8,10.8,0,0,0,45.23,162c-.88.55-1.65,1.29-2.55,1.78a6.53,6.53,0,0,1-1.23.56c-.62,0-1-.83-1.28-1.24-.9-1.32-2.49-2.59-2.48-4.3,0-.53.17-1.06.17-1.59a2.6,2.6,0,0,1,0-1.3,20.21,20.21,0,0,1,2.52-3.71,50.21,50.21,0,0,1,7.76-7.8,22.08,22.08,0,0,1,2.89-1.89c.14-.07,1-2.66,1-2.61s.71-1.33-1.65-3.53c-1.21-1.13-2.1-2.52-3.42-3.54a6.4,6.4,0,0,0-3.81-1.79c-2.29,0-4.51,2.06-6,3.58a21.3,21.3,0,0,0-2.34,3.28,10.63,10.63,0,0,1-2.54,2.51c-1.25.94-3.37,2.58-5,2.83A10.45,10.45,0,0,1,24,143a12.27,12.27,0,0,1-4.73-2c-1.18-.79-2.45-1.35-3.67-2.06-.35-.2-.88-.72-1.29-.92a3.66,3.66,0,0,0-1.86,0,23.12,23.12,0,0,0-3.2.49,12.28,12.28,0,0,0-7.39,5.67,7.78,7.78,0,0,0-1.33,3.4c0,1.1.64,1.56,1.24,2.36.79,1.05,1,2.44,1.57,3.59a8.1,8.1,0,0,0,2,2.31,9.26,9.26,0,0,1,1.2,1.58,13.53,13.53,0,0,1,2,3.52c.38,1.22.63,2.5.89,3.74a31,31,0,0,1,.62,4.18,18,18,0,0,1-2.47,7c-1.15,2.26-2.57,4.41-3.68,6.68-1,2-1.46,3.33,0,5.13a32.15,32.15,0,0,0,8.7,7.47c1.09.64,2.12,1.25,3.16,2a12.92,12.92,0,0,0,3.14,1.75c1.1.36,2.37.06,3.4.48a1,1,0,0,1,1,.68c.15.62.27,1.25.36,1.88a4.82,4.82,0,0,0,.58,1.13c.63,1.08.49,2.19.88,3.32a10.32,10.32,0,0,0,2.13,3c1.63,2,2.65,4.37,4,6.56a9.56,9.56,0,0,0,6.8,4.91c3.5.66,7.1.05,10.63.75a17.76,17.76,0,0,1,6.41,2.5,27.78,27.78,0,0,0,3.9,2,13,13,0,0,1,5.87,4.85c.76,1.27,1.41,2.57,2.21,3.82v1.66a15.54,15.54,0,0,1,4.17,6c1,2.56.68,5,.07,7.56-.28,1.22-.78,2.32-1,3.52a20.69,20.69,0,0,0-.42,4.79c0,3.17,3.08,3.68,5,5.51,3,2.76,2.65,7.15,3.36,10.83a4.81,4.81,0,0,1,.2,2.07,9,9,0,0,1-1.12,3,9.89,9.89,0,0,1-4,3.22c-.51.27-1.58.77-1.72,1.39s.61,1.41,1,1.9a8.23,8.23,0,0,0,5,2.79,14.82,14.82,0,0,1,2,.5c.86.34,1.58.92,2.41,1.32a32,32,0,0,0,3.43,1A14.11,14.11,0,0,1,88,293.33a5.08,5.08,0,0,1,1.42,1.43c1,1.24,2.32.87,3.67.49a11.73,11.73,0,0,1,3.74-.74c1.1.06,1.49.6,2.25,1.25,1,.85,2.22.79,3.46.91a12,12,0,0,1,4.17.95c3.06,1.45,3.1,4.27,3.29,7.32a18.11,18.11,0,0,1-2.43,10c-1.14,1.93-4,3.69-3.43,6.27.33,1.49,1.68,2.32,2.88,3.09a64.09,64.09,0,0,0,8.46,4.21c2.3,1,4.65,2,6.95,3,1.4.64,3.23,1.54,3.8,3.12s0,3.29.7,4.59c.51.9,1.41,1.09,2.07,1.78,1,1,.18,3.25-.15,4.34-1.46,4.89-4.56,9-4,14.32a6.15,6.15,0,0,0,1.25,3.45c1,1,2.58.75,3.86,1.09,1.66.44,2.65,2,3.88,3a14.25,14.25,0,0,0,4,2.63c4.21,1.63,8.8,0,12.61-1.93,1.14-.59,2.27-1.22,3.45-1.73s2.58-.6,3.81-1a23.86,23.86,0,0,1,7.64-1.39,10.53,10.53,0,0,1,4.91,1,30.81,30.81,0,0,0,4.48,1.65c3.19.9,5.68,1.41,8.12,3.89a24.9,24.9,0,0,1,6.76,14.16A108.1,108.1,0,0,1,191.07,404a16.2,16.2,0,0,1-4.24,10.66c-2.33,2.37-5.72,3.52-8.26,5.72-1.4,1.21-3.16,3.26-2.06,5.15,1,1.69,2.91,3,4.14,4.48s1.77,3.38,3,4.92a27.67,27.67,0,0,1,2.62,3.81c.74,1.37,1.24,2.7,2.8,3.34s3.47.54,5.12,1.07a13.55,13.55,0,0,1,1.78.74c1.15.53,2,.14,3.17-.26a41.72,41.72,0,0,1,4.89-1.82,36.62,36.62,0,0,1,4.2-.13,10.09,10.09,0,0,1,5.72.74c1.88,1,3.12,2.91,5,4,2.6,1.46,5.09,2.51,7.33,4.53,1.68,1.52,3,3.13,5.37,3.29s5,0,7.3.54a6,6,0,0,1,3.23,2.29c2,2.31,3.33,5.06,5.05,7.56a85.4,85.4,0,0,0,5.68,7.3,13.43,13.43,0,0,0,2.78,2.9c1.39.82,3.53.25,5,.28,2.05,0,3.41.78,5.23,1.64,3.7,1.76,7.71,2.18,11.74,2.39a97.27,97.27,0,0,1,11.82,1.12,17.14,17.14,0,0,0,5.19.44c1.3-.18,2.59-.48,3.87-.73,2.15-.41,4.57,0,6.76-.14,2.37-.16,4.72-.51,7.1-.62a29.36,29.36,0,0,0,6.43-1.05c.35-.1,1.39-.29,1.56-.69.31-.72-.21-.44-.51-1-.55-1,1.17-2.55,1.77-3.1,2-1.82,4.38-3.38,6.22-5.35.76-.82,1.4-1.75,2.16-2.56a7.52,7.52,0,0,0,1.4-1.53,4.94,4.94,0,0,0,.3-1.08,19.47,19.47,0,0,1,2.06-3.94c1.77-3,3.89-5.78,5.58-8.82a19,19,0,0,1,3-4.65c3.83-3.78,8.75-6.82,11.86-11.31,1.13-1.63-1-2.07-2.23-2.66a19.17,19.17,0,0,1-2.69-1.13c-.93-.65-.66-1.24-.33-2.16.45-1.24,2.49-2.59,3.54-3.43s2.08-1.55,3.13-2.33c.72-.54,1.32-.85,1.4-1.75s-.94-2.07-1.46-2.88c-2.25-3.55-3-7.53-3.7-11.63-.57-3.58-.72-7.09-3.84-9.43a24.49,24.49,0,0,0-3.52-1.74,4,4,0,0,1-2.07-2.47c-.57-1.45-.55-3.67-.77-5.24-.53-3.74-1.29-7.49-1.22-11.28.08-4.16.49-8.71,2.36-12.5,1.23-2.49,3.05-4.55,4.46-6.91.56-.94.95-2,1.42-2.95a22.15,22.15,0,0,1,5.3-7.23,6.84,6.84,0,0,1,5.12-1.44c2.48.12,4.95.37,7.42.57a42.23,42.23,0,0,0,6.36-.14c3-.21,6.17,0,9-.95a15,15,0,0,0,6.25-4c1-1.18.8-2.88,1.22-4.37s1.4-4.09,2.92-4.95a6.83,6.83,0,0,1,2.63-.44,17,17,0,0,1,6,.28c3.13.8,5.59,3.54,8,5.5a51.29,51.29,0,0,0,14.58,8.37c5.52,2,11.64,1.44,17.36,1a13.59,13.59,0,0,1,3.09-.09c1.53.32,2.58,2.18,3.32,3.34,1.48,2.3,2.88,4.66,3.14,7.44.23,2.47.35,4.47,2.17,6.34a52.54,52.54,0,0,0,5.11,4.78c2.78,2.18,6.11,1.92,9.41,2.46,3.05.49,6.14,1.45,7,4.84a32.2,32.2,0,0,1,.64,8c0,2.64,0,4.94,1.23,7.35,1.31,2.58,2.26,4.41,1.67,7.39-.54,2.65-1.3,4.26,1.07,6.09a30.61,30.61,0,0,0,5.59,3.43c1.6.76,3.22,1.45,4.76,2.32s3.13,2,5.05,2.13c2.08.09,4.52-2.56,5.89-3.85a44,44,0,0,0,5-6,24.91,24.91,0,0,0,3.11-4.64c1.3-2.92,1.27-6.38,1.45-9.51a22.19,22.19,0,0,1,.59-4.58,58.67,58.67,0,0,1,2.29-5.77c.83-2.16,0-3.85-.16-6a24.28,24.28,0,0,1,.57-4.78c.24-1.52.46-3,.69-4.57a12.91,12.91,0,0,1,2.8-6.38c1.5-2,2.91-4,4.42-6,2.63-3.42,5.23-7,5.28-11.55,0-3.95,1-7.74,1-11.71,0-1.69-.52-3.43-.34-5.1a9.6,9.6,0,0,1,2.42-5.22,13.33,13.33,0,0,1,4.42-2.91,17.69,17.69,0,0,1,4.71-.6c1.39-.1,2.82.1,4.21-.06a23.24,23.24,0,0,0,3.09-.65c2.61-.68,4.59-2.69,6.76-4.17l1.92-.78a27.91,27.91,0,0,0,4.06-3c.81-.76,1.42-1.7,2.2-2.45,1-.94,2.16-1.77,3.14-2.76a10.53,10.53,0,0,0,2.45-3.11,21,21,0,0,0,.51-4,20.25,20.25,0,0,0-.28-5.76,15.8,15.8,0,0,1-.15-4.29c.19-1.83.69-3.57,1-5.36a7.77,7.77,0,0,1,.67-2.72,15.16,15.16,0,0,1,5-4.71,20,20,0,0,1,11-3.15,33.1,33.1,0,0,0,4.67,0,7.59,7.59,0,0,0,3-1.35c1.85-1.26,4.31-3.25,4.32-5.67,0-1.62.62-3.13.79-4.73.11-1.06.31-2.07.42-3.12a14.52,14.52,0,0,1,1.78-5.17,9.28,9.28,0,0,0,1.06-2.14c.15-.94-1-1.23-1.63-1.6-1.27-.7-2.2-2-3.27-3-1.95-1.74-4.1-3.29-6.19-4.86a10.3,10.3,0,0,1-3.78-5.33c-.52-1.69-1-3.34-1.62-5-1-2.66.42-5.49,2.1-7.52a23.61,23.61,0,0,1,4.66-4.32,12.48,12.48,0,0,1,4.58-1.65c2.1-.42,4.14.18,6.26-.24a7.94,7.94,0,0,0,2.35-1,29.76,29.76,0,0,0,5.72-4.66c.91-.88,2.17-2,2.46-3.31a4.44,4.44,0,0,0-.28-1.87c-.29-1.11-.57-2.2-.81-3.32a10,10,0,0,0-1.4-3.93,14,14,0,0,0-1.6-1.66l-1.91-1.85c-1.08-1-.64-2.43-.46-3.79.16-1.2.44-2.34.71-3.52a8.14,8.14,0,0,1,.37-1.64c.45-.92,2.66-1.92,3.34-2.31a70.87,70.87,0,0,1,7.13-3.3,32.24,32.24,0,0,1,10-2.67c2.12-.19,4.24-.28,6.37-.41a33.78,33.78,0,0,1,4.61-.16q2.14.21,4.26.45a26,26,0,0,0,5.51.13,33.39,33.39,0,0,0,8.18-2.39c2.62-1.07,5.5-2.51,7.08-4.92.4-.61.94-1.1,1.34-1.71.64-1,1.11-2,1.77-3s1.19-2,2-2.93a25.8,25.8,0,0,1,2.43-2.16,9.15,9.15,0,0,0,6.61-2.83,23,23,0,0,0,5.85-8.21,2.27,2.27,0,0,0,.2-1.53c-.24-.48-.68-.45-1.06-.65a1.85,1.85,0,0,1-1-1.7,10.81,10.81,0,0,1,.45-2.33c.24-1.13.45-2.27.68-3.4.38-1.83,1.25-3.65,1.22-5.54V126c0-.87.23-1.57.28-2.41a8.92,8.92,0,0,1,.25-2.82,19.5,19.5,0,0,1,2-3.52c.63-.94.3-1.73.09-2.76a7.53,7.53,0,0,0-.45-1.69c-.31-.64-.78-1.16-1-1.82a2.19,2.19,0,0,1-.06-2,23.56,23.56,0,0,1,3.11-4.79,34.37,34.37,0,0,1,5-4.72,15.6,15.6,0,0,1,3.26-2.06,17.23,17.23,0,0,0,3.49-2,13,13,0,0,0,2.18-2.26,8.05,8.05,0,0,0,1.3-1.89,18.58,18.58,0,0,0,.37-2,6.08,6.08,0,0,0,.16-2.81,6.41,6.41,0,0,0-.93-1.49,6.59,6.59,0,0,1-1.23-3.51,19.73,19.73,0,0,1,.69-3.88c.21-1,.31-2.08.57-3.12a3,3,0,0,0-.29-2.56c-.8-1.11-2.19-.92-3.18-1.73-1.57-1.29-.56-3.37-1-5-.25-.92-1.09-1.23-1.85-1.65a8,8,0,0,1-2.3-2.23,10.62,10.62,0,0,1-1.76-3,7.91,7.91,0,0,0-1.87-2.68A12.94,12.94,0,0,1,687.54,53a32.18,32.18,0,0,1-2.27-4.69c-.64-1.55-1.42-3.3-3.4-3.2-2.63.14-5.48,1.43-7.9,2.45-1.29.55-2.56,1-3.87,1.54a7.86,7.86,0,0,0-1.82.82c-2.61,1.86-3.34,5-2.79,8a9.48,9.48,0,0,1,.3,2,12.3,12.3,0,0,1-.8,3.49,40.79,40.79,0,0,1-3.64,8.52,21.57,21.57,0,0,1-2,3.07,5.3,5.3,0,0,1-2.13,1.26c-1.09.43-2.21.83-3.32,1.2a5.94,5.94,0,0,1-3.21.49c-.61-.18-1.17-.69-1.79-.92a15.33,15.33,0,0,0-4.67-.65,4.37,4.37,0,0,1-3.79-1.62,16,16,0,0,0-2.16-2.41,5.39,5.39,0,0,0-3.07-.92,50,50,0,0,1-5.18-.56,9.3,9.3,0,0,0-1.65-.34,4.74,4.74,0,0,0-2.95,1.06c-2.84,2-4.6,5.27-5.82,8.41a58.13,58.13,0,0,0-2.17,7.77,7.5,7.5,0,0,1-1.37,3.39,17.42,17.42,0,0,1-1.61,1.35A16.68,16.68,0,0,1,612.89,94c-1.37.86-3.34.32-4.85.21s-3.23.13-4.8-.1-3-.7-4.5-.9-2.55-.31-3.08-1.83c-.6-1.74-.81-3.48-1.86-5-1.2-1.8-3.77-2.16-5.64-3A10.78,10.78,0,0,1,586,82.25c-.91-.67-1.68-1.49-2.6-2.14a13.3,13.3,0,0,0-5.62-2.55,9.37,9.37,0,0,0-4-.18,19.72,19.72,0,0,0-4.26,1.94c-1.19.68-1.61,2-2.56,2.41s-1.63.87-2.45,1.28c-2.49,1.21-4.7,2.91-7.12,4.23a7,7,0,0,1-3.84.94c-1,0-2-.3-3-.34a30.46,30.46,0,0,0-4.87.26c-1.84.21-4,.51-5.28-1.08a12.26,12.26,0,0,0-1.18-1.67A10.52,10.52,0,0,0,537,84c-1.48-.8-3.06-1.11-3.56-2.88a18.55,18.55,0,0,1-.38-2.35c-.13-.83-.45-1.61-.58-2.45-.44-2.84.09-5.82,0-8.7-.07-3.49-2.76-4.94-5.81-5.79A40.53,40.53,0,0,1,520,59.42c-2.23-1.06-5.06-.43-7.33.18-1.12.31-2.27.42-3.39.73a14.65,14.65,0,0,0-1.77.39c-2,.8-4,3.18-4.9,5s-.58,2.38.19,4a17.82,17.82,0,0,1,1.44,6.91,21.19,21.19,0,0,0,.6,2.22,7.83,7.83,0,0,1-.6,2.93,19.25,19.25,0,0,1-4.91,8.93,3.11,3.11,0,0,1-1.92.9c-2.09.32-4.23.57-6.34.76-4.26.38-8.16,0-11.75-2.46-2.74-1.89-5.35-4-8.13-5.77a4.28,4.28,0,0,1-1.31-1.08c-.22-.34-.16-.57-.33-1a3.58,3.58,0,0,0-1.33-1.48c-4.19-2.92-9.78-3.32-14.7-3.69-3.75-.28-6.71-1.12-9.4-3.78-2.47-2.44-5.72-3.28-8.89-4.43-5-1.81-7.33-7.4-9.88-11.63-1-1.67-2.17-3.24-3.19-4.89a16.78,16.78,0,0,1-2.35-4.69c-1-4.3.34-9,1.76-13,1.14-3.24,2.43-6.42,3.68-9.62a8.18,8.18,0,0,0,.66-2.82c.07-1.87,1.12-3.59.82-5.51-.18-1.18-.53-2.32-.82-3.48-.53-2.18-.77-4.41-1.34-6.58a19,19,0,0,0-2.84-6Z"/>
    </g>
    <g id="Old_King_Counties" data-name="Old King Counties">
      <path class="cls-1" d="M392.35,331.14a29.36,29.36,0,0,1-5.07-3.76c-2.12-2-3.21-3-3.77-4.72s.12-2.2-.44-4.92a12.38,12.38,0,0,0-1.64-4.33,9.09,9.09,0,0,0-3.61-3.61c-1.47-.74-1.81-.27-4.58-1.23-1.43-.49-1.15-.55-3.11-1.27-2.61-1-3-.81-3.95-1.53S365,304.41,364,304.1s-1.25.13-2.36-.19-.79-.65-2.28-1.31a6.56,6.56,0,0,1-1.85-.93,4.9,4.9,0,0,1-.77-.82c-.93-1.29-.49-2.85-.68-5a12.72,12.72,0,0,0-1-3.78c-.55-1.32-.87-1.48-2.48-4.08-1.44-2.35-1.29-2.41-2.14-3.64a24,24,0,0,0-3.47-3.95,39.42,39.42,0,0,0-5.78-4.47c-3.2-2.1-3.62-1.93-7.63-4.36-1.7-1-3.22-2.05-6.25-4.11-3.31-2.24-3.88-2.71-7.62-5.28s-5.68-3.9-7.33-4.91a70.54,70.54,0,0,0-9.14-5c-3.87-1.7-5.92-2.1-8.72-4.41a10.11,10.11,0,0,1-3-3.48c-.74-1.57-.86-3.18-1.06-5.91a18.75,18.75,0,0,0-.36-3.81,28.6,28.6,0,0,0-1.33-3.3c-1.11-3-.7-3.57-1.72-5.06a14.37,14.37,0,0,0-2.31-2.28c-.84-.74-1.64-1.37-3.11-2.44a56.92,56.92,0,0,0-5.67-3.86c-.48-.28-.2-.1-4-2.09l-2.77-1.44c-2.31-1.16-3.08-1.34-6.34-2.72-2.3-1-3.86-1.65-5.89-2.7-2.82-1.46-2.67-1.67-4.66-2.61a46.67,46.67,0,0,0-14-3.5,23.25,23.25,0,0,0-6.65.42c-2.92.65-3.1,1.38-6.72,2.64a38.62,38.62,0,0,1-8.2,1.8,64.39,64.39,0,0,1-8.16.31c-10.3,0-9.35-.66-14.5-.39a15.76,15.76,0,0,1-5.81-.36,28.74,28.74,0,0,0-3.89-1.22c-2-.38-2.39-.09-3.55-.45-1.68-.51-2.33-1.58-3.89-3.22-1.39-1.45-.8-.53-7.22-5.69-1.58-1.27-2.91-2.2-4.75-3.48a32.54,32.54,0,0,0-3.7-2.44c-1.33-.56-2.36-.59-6.41-.42a79.75,79.75,0,0,0-9.5.7,44.53,44.53,0,0,0-5.7,1.39l-47.89-.39a20.63,20.63,0,0,1-5.61-3c-2.07-1.89-2.05-3.18-4.3-4.56-1.8-1.1-2.69-.81-4.23-2a8.5,8.5,0,0,1-2.59-3.63"/>
      <path class="cls-1" d="M269.24,214.24A76.29,76.29,0,0,1,276,207.5c4.05-3.55,6-4.45,8-7.73.34-.53,1.14-2.14,2.71-5.33,1.41-2.85,1.7-4,3-6.14a11.83,11.83,0,0,1,3.29-4,12.62,12.62,0,0,1,4.19-1.67c2.76-.77,4.61-1.06,6.25-1.38,2.49-.47,2.13-.56,8.21-2.14,7.25-1.88,6.81-1.51,8.79-2.25a73,73,0,0,0,8.27-4.27,71.38,71.38,0,0,0,7.65-4.54,46,46,0,0,0,6.73-6.61c1.57-1.79,1.43-1.81,4-4.91,3.62-4.38,3.94-4.37,5.79-6.73,1.38-1.77,1.22-1.79,5.79-8.92,3.6-5.61,4.57-7,5.21-7.81a48.33,48.33,0,0,1,5.12-6.17,39.06,39.06,0,0,1,7-5.54c1-.59,2.48-1.32,5.46-2.79,4.24-2.09,4.36-2,6-2.94a32.66,32.66,0,0,0,5.88-4.21,24.9,24.9,0,0,0,4.54-5.14c1.34-2.09,1-2.43,3.17-7.15,2-4.55,1.9-3.32,3.58-7.15,1.14-2.6,1.53-3.91,3-4.89.74-.5,1.07-.45,3.73-1.15a56.14,56.14,0,0,0,5.88-1.77c2.54-1,2.38-1.29,5.56-2.58a49.06,49.06,0,0,1,4.75-1.67c3.32-1,3.49-.61,5.27-1.35a19.4,19.4,0,0,0,4.93-3.25,35.44,35.44,0,0,0,4.13-3.9"/>
    </g>
  </g>
</svg>
