<?xml version="1.0" encoding="UTF-8" standalone="no"?>
<svg
   xmlns:dc="http://purl.org/dc/elements/1.1/"
   xmlns:cc="http://creativecommons.org/ns#"
   xmlns:rdf="http://www.w3.org/1999/02/22-rdf-syntax-ns#"
   xmlns:svg="http://www.w3.org/2000/svg"
   xmlns="http://www.w3.org/2000/svg"
   height="481.27789"
   width="703.65521"
   id="svg14"
   version="1.1"
   viewBox="0 0 703.65524 481.27789">
  <metadata
     id="metadata18">
    <rdf:RDF>
      <cc:Work
         rdf:about="">
        <dc:format>image/svg+xml</dc:format>
        <dc:type
           rdf:resource="http://purl.org/dc/dcmitype/StillImage" />
        <dc:title></dc:title>
      </cc:Work>
    </rdf:RDF>
  </metadata>
  <defs
     id="defs4">
    <style
       id="style2">
      .cls-1 {
        fill: none;
        stroke: #231f20;
        stroke-miterlimit: 10;
      }
    </style>
  </defs>
  <g
     transform="translate(-0.02929688,0.03906247)"
     data-name="Layer 2"
     id="Layer_2">
    <path
       d="m 392.30078,331.13086 c -1.82021,-1.0675 -3.47151,-2.31811 -5.02148,-3.75 -1.06,-1 -1.86125,-1.7518 -2.46875,-2.4668 -0.6075,-0.715 -1.02078,-1.3939 -1.30078,-2.2539 -0.28,-0.86 -0.25071,-1.41094 -0.22071,-2.08594 0.03,-0.675 0.0612,-1.47399 -0.21875,-2.83399 -0.26949,-1.53363 -0.82651,-3.00272 -1.64062,-4.33007 -0.41689,-0.76174 -0.93903,-1.45661 -1.54688,-2.06446 -0.60784,-0.60784 -1.30076,-1.12803 -2.0625,-1.54492 -0.735,-0.37 -1.18773,-0.4382 -1.80273,-0.5332 -0.615,-0.095 -1.39235,-0.21727 -2.77735,-0.69727 -1.43,-0.49 -1.14937,-0.54953 -3.10937,-1.26953 -2.61,-1 -3.00117,-0.81125 -3.95117,-1.53125 -0.475,-0.36 -0.76907,-0.69953 -1.07031,-0.98828 C 364.80813,304.4925 364.5,304.25461 364,304.09961 c -1,-0.31 -1.24937,0.13055 -2.35938,-0.18945 -1.11,-0.32 -0.79124,-0.65055 -2.28124,-1.31055 -0.66202,-0.21011 -1.28606,-0.52371 -1.84961,-0.92969 -0.28729,-0.24287 -0.5452,-0.51832 -0.76954,-0.82031 -0.465,-0.645 -0.58718,-1.35774 -0.61718,-2.17773 -0.03,-0.82 0.0325,-1.74727 -0.0625,-2.82227 -0.13653,-1.30401 -0.47384,-2.57837 -1,-3.7793 -0.55,-1.32 -0.87047,-1.48008 -2.48047,-4.08008 -1.44,-2.35 -1.29063,-2.41062 -2.14063,-3.64062 -1.00852,-1.43977 -2.17092,-2.7636 -3.46875,-3.94922 -1.78412,-1.66573 -3.72035,-3.16286 -5.78125,-4.4707 -3.2,-2.1 -3.6189,-1.92938 -7.6289,-4.35938 -1.7,-1 -3.22,-2.04937 -6.25,-4.10937 -3.31,-2.24 -3.8811,-2.71125 -7.6211,-5.28125 -3.74,-2.57 -5.68007,-3.90016 -7.33007,-4.91016 -2.91927,-1.88968 -5.97293,-3.5609 -9.13868,-5 -1.935,-0.85 -3.41547,-1.37531 -4.76172,-1.97656 -1.34625,-0.60125 -2.55898,-1.27859 -3.95898,-2.43359 -0.62691,-0.45719 -1.19786,-0.98257 -1.70117,-1.56641 -0.50331,-0.58384 -0.939,-1.22468 -1.29883,-1.91211 -0.37,-0.785 -0.58492,-1.58148 -0.73242,-2.52148 -0.1475,-0.94001 -0.22813,-2.02368 -0.32813,-3.38868 0.0103,-1.27895 -0.10974,-2.55614 -0.35937,-3.81054 -0.37442,-1.12654 -0.81869,-2.22945 -1.33008,-3.30078 -0.555,-1.5 -0.73078,-2.39196 -0.89453,-3.09571 -0.16375,-0.70375 -0.31617,-1.21789 -0.82617,-1.96289 -0.68142,-0.8448 -1.45497,-1.61093 -2.3086,-2.28125 -0.84,-0.74 -1.64132,-1.36945 -3.11132,-2.43945 -1.8107,-1.39948 -3.70405,-2.68786 -5.66993,-3.85938 -0.48,-0.28 -0.2,-0.0998 -4,-2.08984 l -2.76953,-1.44141 c -2.31,-1.16 -3.07984,-1.33875 -6.33984,-2.71875 -2.3,-1 -3.86063,-1.65117 -5.89063,-2.70117 -2.82,-1.46 -2.67015,-1.66937 -4.66015,-2.60937 -2.22849,-0.94274 -4.5229,-1.70983 -6.86328,-2.29493 -2.34039,-0.58509 -4.72677,-0.9882 -7.13672,-1.20507 -2.22533,-0.18001 -4.46344,-0.0387 -6.64844,0.41992 -1.46,0.325 -2.23516,0.67055 -3.09766,1.0918 -0.8625,0.42124 -1.81304,0.91882 -3.62304,1.54882 -2.6598,0.89619 -5.4086,1.49858 -8.19922,1.79883 -2.7107,0.27588 -5.43634,0.37997 -8.16016,0.31055 -5.15,0 -7.48789,-0.16563 -9.18164,-0.29688 -1.69375,-0.13125 -2.74336,-0.22875 -5.31836,-0.0937 -0.97111,0.12091 -1.94934,0.15206 -2.92187,0.0918 -0.97254,-0.0603 -1.93992,-0.21131 -2.88868,-0.45117 -1.26615,-0.49824 -2.56671,-0.90664 -3.89062,-1.2207 -2,-0.38 -2.38883,-0.0892 -3.54883,-0.44922 -0.84,-0.255 -1.42273,-0.6493 -1.99023,-1.18555 -0.5675,-0.53625 -1.12039,-1.21516 -1.90039,-2.03516 -1.39,-1.45 -0.80071,-0.52945 -7.22071,-5.68945 -1.58,-1.27 -2.91,-2.20047 -4.75,-3.48047 -1.17645,-0.89648 -2.41187,-1.71115 -3.69922,-2.43945 -0.665,-0.28 -1.25554,-0.42813 -2.18554,-0.48438 -0.93,-0.0563 -2.19961,-0.0205 -4.22461,0.0645 -3.17779,0.0438 -6.35011,0.2768 -9.5,0.69922 -1.92849,0.33752 -3.83184,0.80249 -5.69922,1.39062 l -47.890626,-0.39062 c -2.013866,-0.70393 -3.905738,-1.71596 -5.609375,-3 -1.035,-0.945 -1.548984,-1.73946 -2.083984,-2.47071 -0.535,-0.73125 -1.091797,-1.39789 -2.216797,-2.08789 -0.9,-0.55 -1.57289,-0.75305 -2.21289,-0.9668 -0.640001,-0.21375 -1.247579,-0.4382 -2.017579,-1.0332 -0.585499,-0.47897 -1.087299,-1.04508 -1.507812,-1.66797 -0.420513,-0.62289 -0.759035,-1.3042 -1.021485,-2.01367 -1.091689,0.86207 -2.230241,1.66368 -3.410156,2.40039 -0.948856,0.58961 -1.959574,1.06558 -3.011718,1.41797 -1.052145,0.35239 -2.145248,0.58082 -3.257813,0.68164 -0.71667,0.13539 -1.444179,0.10212 -2.128906,-0.0879 -0.684728,-0.19001 -1.326673,-0.53615 -1.871094,-1.02148 -0.485,-0.4325 -0.867109,-0.93571 -1.173828,-1.48633 -0.306719,-0.55063 -0.539141,-1.14813 -0.728516,-1.76563 -0.37875,-1.235 -0.582422,-2.55304 -0.857422,-3.74804 -0.371981,-1.53465 -0.944687,-3.01431 -1.701171,-4.40039 -0.466879,-0.82346 -0.804165,-1.71256 -1,-2.63868 -0.18,-1 -0.15,-2 -0.0625,-3 0.0875,-1 0.233203,-2 0.283203,-3 0,-0.45 -0.06344,-0.73508 -0.242188,-0.92382 -0.17875,-0.18875 -0.4725,-0.28266 -0.9375,-0.34766 -0.93,-0.13 -2.181172,1.6e-4 -3.201172,-0.0898 -1.260021,-0.22516 -2.548572,-0.22515 -3.808593,0 -0.971425,0.33125 -1.89114,0.79992 -2.730469,1.39062 -0.88,0.55 -1.650781,1.2893 -2.550781,1.7793 -0.389528,0.22871 -0.802204,0.41692 -1.230469,0.56054 -0.31,0 -0.560078,-0.20804 -0.767578,-0.46679 -0.2075,-0.25875 -0.371719,-0.56844 -0.511719,-0.77344 -0.45,-0.66 -1.073281,-1.30766 -1.582031,-2.00391 -0.50875,-0.69625 -0.903438,-1.43992 -0.898438,-2.29492 0,-0.53 0.169922,-1.05984 0.169922,-1.58984 -0.110081,-0.42634 -0.110081,-0.87444 0,-1.30078 0.699756,-1.32633 1.546443,-2.5716 2.521484,-3.71094 1.146563,-1.43821 2.368777,-2.81132 3.664063,-4.11328 1.295286,-1.30197 2.663409,-2.53161 4.095703,-3.68555 0.912517,-0.70448 1.877477,-1.33703 2.888672,-1.89062 0.14,-0.07 1,-2.65938 1,-2.60938 0,0.025 0.178047,-0.30812 0.06055,-0.92187 -0.05875,-0.30688 -0.191719,-0.68313 -0.457032,-1.1211 -0.265312,-0.43797 -0.661953,-0.93828 -1.251953,-1.48828 -1.21,-1.13 -2.099922,-2.51906 -3.419921,-3.53906 -0.515914,-0.50461 -1.109824,-0.9142 -1.753907,-1.2168 -0.644083,-0.3026 -1.338887,-0.49923 -2.05664,-0.57422 -0.5725,0 -1.141875,0.12883 -1.695313,0.34571 -0.553437,0.21687 -1.091719,0.5225 -1.605469,0.875 -1.0275,0.705 -1.954218,1.59937 -2.699218,2.35937 -0.881888,1.01694 -1.665237,2.11643 -2.339844,3.28125 -0.699072,0.97391 -1.55887,1.82232 -2.541016,2.50977 -0.625,0.47 -1.467422,1.11507 -2.357422,1.67382 -0.89,0.55875 -1.827578,1.03125 -2.642578,1.15625 C 26.173693,143.33283 25.070581,143.2516 24,143 c -0.850045,-0.16278 -1.677957,-0.4148 -2.470703,-0.75 -0.792746,-0.3352 -1.550795,-0.75358 -2.259766,-1.25 -1.18,-0.79 -2.449922,-1.35055 -3.669922,-2.06055 -0.35,-0.2 -0.879062,-0.71992 -1.289062,-0.91992 -0.609656,-0.16017 -1.251672,-0.16017 -1.861328,0 -1.076806,0.0884 -2.145312,0.25234 -3.199219,0.49024 -1.5561786,0.42308 -2.9983429,1.14408 -4.2539062,2.10742 -1.2555634,0.96333 -2.3251509,2.16892 -3.1367188,3.5625 -0.7067384,1.0118 -1.16270102,2.17761 -1.33007812,3.40039 0,0.55 0.16148437,0.94047 0.39648437,1.29297 0.23499995,0.3525 0.54375005,0.6664 0.84374995,1.0664 0.7900001,1.05 1.0003125,2.43985 1.5703126,3.58985 0.5140839,0.88991 1.1928244,1.67439 2,2.31054 0.4554299,0.48217 0.8569573,1.01196 1.1992187,1.58008 0.8394321,1.06639 1.5136448,2.25253 2,3.51953 0.38,1.22 0.630625,2.50024 0.890625,3.74024 0.301502,1.37761 0.5097436,2.77387 0.6210935,4.17969 -0.1640223,1.2398 -0.4571912,2.4559 -0.8710935,3.6289 -0.4139023,1.173 -0.949241,2.30291 -1.5996094,3.3711 -1.15,2.25999 -2.5696875,4.40968 -3.6796875,6.67968 -0.5,1 -0.8663281,1.83313 -0.9238281,2.64063 -0.02875,0.40375 0.019453,0.80187 0.1660156,1.21093 0.1465625,0.40907 0.3928125,0.8293 0.7578125,1.2793 1.2144631,1.49562 2.557814,2.87692 4.0136719,4.12696 1.4558579,1.25003 3.0234415,2.36948 4.6855465,3.34374 1.09,0.64 2.120157,1.25 3.160157,2 0.960006,0.7268 2.017525,1.31585 3.140625,1.75 1.1,0.36001 2.37039,0.0585 3.40039,0.47852 0.448152,-0.0234 0.857006,0.25627 1,0.68164 0.15,0.62 0.269375,1.24891 0.359375,1.87891 0.14264,0.4006 0.337745,0.78143 0.580078,1.13086 0.63,1.08 0.488907,2.19031 0.878907,3.32031 0.524571,1.11951 1.246893,2.13566 2.130859,3 0.815,1 1.477969,2.09078 2.105469,3.20703 0.6275,1.11625 1.219531,2.25656 1.894531,3.35156 0.694693,1.29835 1.668449,2.40006 2.832031,3.24024 1.163583,0.84017 2.517774,1.41897 3.96875,1.66992 1.75,0.33 3.523985,0.34383 5.302735,0.36133 1.77875,0.0175 3.561171,0.0387 5.326172,0.38867 1.1396,0.20376 2.254684,0.51884 3.328124,0.9375 1.073441,0.41866 2.105392,0.9409 3.082032,1.5625 1.245298,0.76834 2.549746,1.43709 3.90039,2 1.198442,0.49727 2.307578,1.16894 3.296875,1.98633 0.989298,0.81739 1.857897,1.78012 2.572266,2.86328 0.76,1.27 1.410938,2.57031 2.210937,3.82031 v 1.66016 c 0.923559,0.82007 1.741468,1.74484 2.441407,2.75195 0.699939,1.00711 1.28183,2.09655 1.728515,3.24805 0.5,1.28 0.669922,2.53125 0.638672,3.78125 -0.03125,1.25 -0.263359,2.49929 -0.568359,3.77929 -0.28,1.22 -0.78,2.31954 -1,3.51954 -0.325688,1.57492 -0.466562,3.18345 -0.419922,4.79101 0,0.7925 0.191016,1.41727 0.509766,1.93945 0.31875,0.52219 0.764531,0.94016 1.269531,1.31641 1.01,0.7525 2.260703,1.33891 3.220703,2.25391 0.75,0.69 1.289297,1.4807 1.689453,2.33789 0.400156,0.85719 0.661485,1.78117 0.84961,2.73242 0.376249,1.9025 0.465312,3.91977 0.820312,5.75976 0.216817,0.66717 0.284298,1.37399 0.199219,2.07032 -0.190999,1.05891 -0.569476,2.07499 -1.119141,3 -0.513286,0.70339 -1.114629,1.3317 -1.787109,1.87304 -0.672481,0.54135 -1.4161,0.99449 -2.212891,1.34571 -0.255,0.135 -0.649297,0.3282 -0.998047,0.56445 -0.34875,0.23625 -0.652656,0.51617 -0.722656,0.82617 -0.07,0.31 0.08398,0.6618 0.302734,0.99805 0.21875,0.33625 0.502266,0.65734 0.697266,0.90234 0.639505,0.74924 1.403236,1.37126 2.25,1.84375 0.846764,0.4725 1.77656,0.79453 2.75,0.94532 0.677465,0.12004 1.345748,0.28711 2,0.5 0.86,0.34 1.580156,0.92031 2.410156,1.32031 1.123818,0.39695 2.268624,0.7308 3.429688,1 0.900214,0.40926 1.755692,0.91202 2.550781,1.5 0.564081,0.37705 1.046835,0.86298 1.419922,1.42969 0.5,0.62 1.079375,0.83851 1.703125,0.85351 0.62375,0.015 1.291797,-0.17328 1.966797,-0.36328 1.197971,-0.44897 2.461555,-0.69917 3.740234,-0.74023 0.55,0.03 0.921953,0.18054 1.251953,0.40429 0.33,0.22375 0.618047,0.52071 0.998047,0.84571 0.5,0.425 1.055622,0.62226 1.640622,0.72851 0.585,0.10625 1.19836,0.12164 1.81836,0.18164 1.43567,0.0644 2.84998,0.38541 4.17188,0.94922 0.765,0.3625 1.34031,0.81219 1.77734,1.32813 0.43703,0.51593 0.73524,1.09867 0.94336,1.73242 0.41625,1.2675 0.47336,2.73476 0.56836,4.25976 0.087,1.74909 -0.081,3.49354 -0.49023,5.17774 -0.40926,1.6842 -1.05947,3.30815 -1.93946,4.82226 -0.57,0.965 -1.57117,1.88883 -2.35742,2.89258 -0.39312,0.50188 -0.73172,1.02406 -0.9375,1.58203 -0.20578,0.55797 -0.27726,1.15188 -0.13477,1.79688 0.165,0.745 0.58454,1.32445 1.11329,1.81445 0.52875,0.49 1.16562,0.89039 1.76562,1.27539 2.71256,1.6096 5.54119,3.01575 8.46094,4.20899 2.3,1 4.64922,2 6.94922,3 0.7,0.32 1.50718,0.70453 2.21093,1.20703 0.70376,0.5025 1.30485,1.12406 1.58985,1.91406 0.285,0.79 0.28453,1.61094 0.30078,2.39844 0.0162,0.7875 0.0484,1.5414 0.39844,2.1914 0.255,0.45 0.60726,0.7225 0.97851,0.96875 0.37125,0.24625 0.7618,0.46555 1.0918,0.81055 0.25,0.25 0.38672,0.57867 0.44531,0.94727 0.0586,0.36859 0.0391,0.77757 -0.0215,1.18945 -0.12125,0.82375 -0.40922,1.65812 -0.57422,2.20312 -0.73,2.445 -1.87031,4.6943 -2.75781,6.99805 -0.44375,1.15188 -0.82391,2.3175 -1.0586,3.52734 -0.23468,1.20985 -0.32359,2.46493 -0.18359,3.79493 0.028,0.6252 0.15057,1.23861 0.36133,1.82031 0.21076,0.5817 0.50965,1.1309 0.88867,1.62891 0.5,0.5 1.14617,0.68796 1.82617,0.79296 0.68,0.105 1.39516,0.12688 2.03516,0.29688 0.83,0.22 1.49086,0.72101 2.09961,1.29101 0.60875,0.57 1.16429,1.20899 1.77929,1.70899 1.17549,1.09596 2.5279,1.98603 4,2.63086 1.0525,0.4075 2.12907,0.61195 3.21094,0.6582 1.08188,0.0463 2.16914,-0.0666 3.24414,-0.28906 1.075,-0.2225 2.13805,-0.55633 3.16992,-0.95508 1.03188,-0.39875 2.03188,-0.86125 2.98438,-1.34375 1.14,-0.59 2.27117,-1.22047 3.45117,-1.73047 1.18,-0.51 2.58055,-0.6 3.81055,-1 1.22684,-0.43871 2.48411,-0.77537 3.76172,-1.00781 1.2776,-0.23244 2.57421,-0.3613 3.87695,-0.38281 0.84664,-0.0333 1.69133,0.0372 2.51562,0.20508 0.8243,0.16788 1.62836,0.43314 2.39454,0.79492 1.44841,0.66505 2.9467,1.21709 4.48046,1.65039 1.595,0.45 3.01555,0.80351 4.3418,1.35351 0.66313,0.275 1.30133,0.59914 1.92774,1.00977 0.6264,0.41062 1.2396,0.90734 1.84961,1.52734 0.93011,0.96704 1.77727,2.00292 2.5332,3.09571 0.75593,1.09278 1.42149,2.24208 1.99219,3.4375 0.57069,1.19541 1.0455,2.43601 1.41992,3.71093 0.37442,1.27492 0.64735,2.58472 0.81445,3.91602 0.53632,3.22471 0.92605,6.46988 1.16797,9.72656 0.24191,3.25668 0.33718,6.5244 0.2832,9.79297 -0.0164,0.98789 -0.12413,1.96518 -0.3164,2.92188 -0.19228,0.95669 -0.46888,1.89367 -0.82813,2.79687 -0.35925,0.9032 -0.80101,1.77416 -1.31836,2.60156 -0.51735,0.8274 -1.11076,1.61055 -1.77734,2.33985 -1.165,1.185 -2.59453,2.06507 -4.05078,2.92382 -1.45625,0.85875 -2.93899,1.69688 -4.20899,2.79688 -0.7,0.605 -1.49125,1.41836 -1.96875,2.31836 -0.23875,0.45 -0.3975,0.92156 -0.42968,1.39844 -0.0322,0.47687 0.0629,0.95914 0.33789,1.43164 0.5,0.845 1.22812,1.59656 1.98437,2.32031 0.75625,0.72375 1.54125,1.42016 2.15625,2.16016 1.23,1.48 1.77,3.37992 3,4.91992 0.9781,1.19468 1.85364,2.46967 2.61914,3.81054 0.37,0.685 0.68125,1.35961 1.09375,1.94336 0.4125,0.58375 0.92703,1.07649 1.70703,1.39649 1.56,0.64 3.46914,0.54031 5.11914,1.07031 0.61015,0.20409 1.20624,0.45162 1.78125,0.74023 0.575,0.265 1.07368,0.30001 1.57618,0.21876 0.50249,-0.0813 1.00875,-0.27852 1.59374,-0.47852 1.59043,-0.7081 3.2223,-1.31627 4.88868,-1.82031 1.39636,-0.12369 2.79984,-0.16795 4.20117,-0.13086 0.96902,-0.15757 1.95057,-0.17152 2.91406,-0.0469 0.96349,0.12464 1.90766,0.38811 2.80469,0.78711 0.94,0.5 1.72,1.22805 2.5,1.9668 0.78,0.73875 1.56,1.4882 2.5,2.0332 1.3,0.73 2.57328,1.35719 3.80078,2.05469 1.2275,0.6975 2.4093,1.46461 3.5293,2.47461 0.84,0.76 1.59148,1.54375 2.42773,2.15625 0.41813,0.30625 0.85656,0.57039 1.33985,0.76758 0.48328,0.19718 1.01101,0.32718 1.60351,0.36718 1.185,0.08 2.43453,0.0795 3.67578,0.12696 1.24125,0.0475 2.47305,0.14211 3.62305,0.41211 0.65238,0.18793 1.26446,0.48393 1.81055,0.87109 0.54608,0.38716 1.02665,0.86651 1.41992,1.41992 1,1.155 1.83336,2.42024 2.63086,3.70899 0.7975,1.28875 1.55992,2.60156 2.41992,3.85156 1.76007,2.53415 3.65588,4.96989 5.67969,7.29883 0.77603,1.10058 1.71247,2.07857 2.77929,2.90039 0.695,0.41 1.57821,0.47179 2.47071,0.43554 0.8925,-0.0362 1.79429,-0.17125 2.52929,-0.15624 1.025,0 1.87743,0.19554 2.70117,0.49804 0.82375,0.3025 1.6193,0.71258 2.5293,1.14258 1.85,0.88 3.77735,1.42414 5.7461,1.77539 1.96875,0.35125 3.97914,0.51023 5.99414,0.61523 3.95913,0.1323 7.90679,0.50548 11.82031,1.11915 1.69748,0.41021 3.44714,0.55804 5.18945,0.43945 1.3,-0.18 2.58914,-0.47852 3.86914,-0.72852 1.075,-0.205 2.21774,-0.20562 3.36524,-0.17187 1.1475,0.0337 2.30148,0.10125 3.39648,0.0312 2.37,-0.16 4.71961,-0.50914 7.09961,-0.61914 2.17565,-0.11037 4.33195,-0.46332 6.42969,-1.05078 0.35,-0.1 1.39054,-0.28946 1.56054,-0.68946 0.155,-0.36 0.10141,-0.47054 -0.0273,-0.56054 -0.12875,-0.09 -0.33242,-0.15946 -0.48242,-0.43946 -0.1375,-0.25 -0.1343,-0.53554 -0.041,-0.83008 0.0933,-0.29453 0.27602,-0.59804 0.49414,-0.88867 0.43625,-0.58125 1.01641,-1.10781 1.31641,-1.38281 2,-1.82 4.37875,-3.37961 6.21875,-5.34961 0.76,-0.82 1.40016,-1.74859 2.16016,-2.55859 0.53509,-0.4429 1.00662,-0.95904 1.40039,-1.53125 0.14065,-0.34745 0.24208,-0.70986 0.30078,-1.08008 0.53397,-1.38768 1.22373,-2.70908 2.05859,-3.93945 1.77,-3 3.89008,-5.78032 5.58008,-8.82032 0.76771,-1.6881 1.77843,-3.2551 3,-4.65039 1.915,-1.89 4.10367,-3.59492 6.20117,-5.38867 1.04875,-0.89687 2.07477,-1.81555 3.03321,-2.79101 0.95843,-0.97547 1.84945,-2.00641 2.62695,-3.12891 0.2825,-0.4075 0.36078,-0.7418 0.30078,-1.02148 -0.06,-0.27969 -0.25875,-0.50547 -0.53125,-0.69922 -0.545,-0.3875 -1.385,-0.64446 -2,-0.93946 -0.92407,-0.30778 -1.82279,-0.6864 -2.68945,-1.13086 -0.465,-0.325 -0.63118,-0.63476 -0.63867,-0.97851 -0.007,-0.34375 0.14359,-0.72164 0.30859,-1.18164 0.225,-0.62 0.84742,-1.26774 1.54492,-1.86524 0.6975,-0.5975 1.46914,-1.14445 1.99414,-1.56445 1.05,-0.84 2.08086,-1.55008 3.13086,-2.33008 0.36,-0.27 0.68945,-0.48273 0.93945,-0.74023 0.25,-0.2575 0.42094,-0.55977 0.46094,-1.00977 0.04,-0.45 -0.19586,-0.96836 -0.50586,-1.47461 -0.31,-0.50625 -0.69508,-1.00125 -0.95508,-1.40625 -1.125,-1.775 -1.87539,-3.65617 -2.43164,-5.60742 -0.55625,-1.95125 -0.91758,-3.97148 -1.26758,-6.02148 -0.28499,-1.79 -0.46609,-3.56219 -0.96484,-5.17969 -0.24937,-0.80875 -0.57734,-1.57891 -1.03906,-2.29297 -0.46172,-0.71406 -1.05594,-1.37203 -1.83594,-1.95703 -1.12487,-0.67328 -2.30347,-1.25539 -3.52148,-1.74024 -0.50291,-0.24833 -0.94229,-0.5968 -1.29492,-1.01757 -0.35264,-0.42078 -0.61688,-0.91455 -0.77344,-1.45313 -0.285,-0.725 -0.42383,-1.64172 -0.51758,-2.57422 -0.0937,-0.9325 -0.14391,-1.88101 -0.25391,-2.66601 -0.265,-1.87 -0.58648,-3.74235 -0.83398,-5.6211 -0.2475,-1.87875 -0.41977,-3.7632 -0.38477,-5.6582 0.04,-2.08 0.16157,-4.25742 0.50782,-6.38867 0.17312,-1.06563 0.40242,-2.12 0.70507,-3.14453 0.30266,-1.02453 0.67899,-2.0193 1.14649,-2.9668 1.23,-2.49 3.04898,-4.55016 4.45898,-6.91016 0.56,-0.94 0.95188,-1.99921 1.42188,-2.94922 0.62771,-1.37302 1.39135,-2.67542 2.27929,-3.88671 0.88795,-1.2113 1.89904,-2.33197 3.01954,-3.34375 0.72126,-0.57553 1.54325,-0.99337 2.41406,-1.23828 0.8708,-0.24492 1.79151,-0.31636 2.70703,-0.20118 2.48,0.12 4.94992,0.36836 7.41992,0.56836 2.1205,0.11331 4.24592,0.0678 6.35938,-0.13867 1.5,-0.105 3.0432,-0.10476 4.56445,-0.19727 1.52125,-0.0925 3.02055,-0.2789 4.43555,-0.7539 1.19273,-0.39443 2.32706,-0.9355 3.37695,-1.60742 1.04989,-0.67193 2.01532,-1.47472 2.87305,-2.39258 0.5,-0.59 0.70062,-1.30961 0.82812,-2.06836 0.1275,-0.75875 0.18258,-1.55578 0.39258,-2.30078 0.21,-0.745 0.55937,-1.76719 1.04687,-2.71094 0.4875,-0.94375 1.11305,-1.80828 1.87305,-2.23828 z"
       style="fill:none;stroke:#000000;stroke-width:1;stroke-linecap:round;stroke-linejoin:round;stroke-miterlimit:4;stroke-dasharray:none;stroke-opacity:1;paint-order:fill markers stroke"
       id="rect846" />
    <path
       d="m 441.83203,71.365234 c -1.2701,1.408411 -2.60323,2.767678 -4.08203,3.955078 -1.46787,1.328547 -3.13015,2.424573 -4.92969,3.25 -1.78,0.740001 -1.94953,0.34961 -5.26953,1.34961 -1.61087,0.474998 -3.19629,1.03232 -4.75,1.669922 -3.18,1.29 -3.02055,1.580078 -5.56055,2.580078 -1.92624,0.696831 -3.89004,1.287246 -5.88085,1.769531 -2.66001,0.7 -2.98852,0.650391 -3.72852,1.150391 -0.735,0.49 -1.20125,1.06289 -1.625,1.83789 -0.42375,0.775 -0.805,1.752735 -1.375,3.052735 -1.68,3.83 -1.58008,2.60039 -3.58008,7.15039 -1.085,2.360001 -1.54273,3.624301 -1.89648,4.560551 -0.35375,0.93625 -0.60344,1.54289 -1.27344,2.58789 -1.26902,1.91453 -2.79786,3.64489 -4.54102,5.14062 -1.79811,1.61667 -3.7691,3.0296 -5.8789,4.21094 -1.64,0.94 -1.76,0.84945 -6,2.93945 -2.98,1.47 -4.46094,2.19906 -5.46094,2.78907 -1.26869,0.78654 -2.48962,1.64546 -3.6582,2.57031 -1.16859,0.92485 -2.28483,1.91665 -3.3418,2.9707 -1.87461,1.91131 -3.58631,3.975 -5.11914,6.16992 -0.64,0.81 -1.61094,2.20055 -5.21094,7.81055 -4.57,7.13 -4.40906,7.14992 -5.78906,8.91992 -1.85,2.36 -2.17102,2.34852 -5.79102,6.72852 -2.57,3.1 -2.43,3.12015 -4,4.91015 -2.01089,2.42814 -4.26655,4.64445 -6.73046,6.61133 -2.45314,1.67091 -5.00653,3.18625 -7.64844,4.53906 -2.66303,1.5978 -5.4268,3.02357 -8.27149,4.26954 -1.98,0.74 -1.53906,0.37 -8.78906,2.25 -6.08,1.57999 -5.72094,1.67062 -8.21094,2.14062 -1.64,0.32 -3.49,0.61086 -6.25,1.38086 -1.48562,0.30053 -2.9044,0.86615 -4.18945,1.66992 -0.68933,0.53698 -1.31549,1.14565 -1.86719,1.81641 -0.5517,0.67076 -1.028,1.40361 -1.42187,2.18359 -1.3,2.14 -1.59,3.28867 -3,6.13867 -1.57,3.19 -2.37094,4.80008 -2.71094,5.33008 -1,1.64 -1.98672,2.68492 -3.23047,3.76367 -1.24375,1.07875 -2.74453,2.1918 -4.76953,3.9668 -2.39182,2.10335 -4.71965,4.30387 -6.83008,6.68945 l 2.76953,1.44141 c 3.8,1.99 3.52,1.80984 4,2.08984 1.96588,1.17152 3.85923,2.4599 5.66993,3.85938 1.47,1.07 2.27132,1.69945 3.11132,2.43945 0.85363,0.67032 1.62718,1.43645 2.3086,2.28125 0.51,0.745 0.66242,1.25914 0.82617,1.96289 0.16375,0.70375 0.33953,1.59571 0.89453,3.09571 0.51139,1.07133 0.95566,2.17424 1.33008,3.30078 0.24963,1.2544 0.36967,2.53159 0.35937,3.81054 0.1,1.365 0.18063,2.44867 0.32813,3.38868 0.1475,0.94 0.36242,1.73648 0.73242,2.52148 0.35983,0.68743 0.79552,1.32827 1.29883,1.91211 0.50331,0.58384 1.07426,1.10922 1.70117,1.56641 1.4,1.155 2.61273,1.83234 3.95898,2.43359 1.34625,0.60125 2.82672,1.12656 4.76172,1.97656 3.16575,1.4391 6.21941,3.11032 9.13868,5 1.65,1.01 3.59007,2.34016 7.33007,4.91016 3.74,2.57 4.3111,3.04125 7.6211,5.28125 3.03,2.06 4.55,3.10937 6.25,4.10937 4.01,2.43 4.4289,2.25938 7.6289,4.35938 2.0609,1.30784 3.99713,2.80497 5.78125,4.4707 1.29783,1.18562 2.46023,2.50945 3.46875,3.94922 0.85,1.23 0.70063,1.29062 2.14063,3.64062 1.61,2.6 1.93047,2.76008 2.48047,4.08008 0.52616,1.20093 0.86347,2.47529 1,3.7793 0.095,1.075 0.0325,2.00227 0.0625,2.82227 0.03,0.81999 0.15218,1.53273 0.61718,2.17773 0.22434,0.30199 0.48225,0.57744 0.76954,0.82031 0.56355,0.40598 1.18759,0.71958 1.84961,0.92969 1.49,0.66 1.17124,0.99055 2.28124,1.31055 1.11001,0.32 1.35938,-0.12055 2.35938,0.18945 0.5,0.155 0.80813,0.39289 1.10938,0.68164 0.30124,0.28875 0.59531,0.62828 1.07031,0.98828 0.95,0.72 1.34117,0.53125 3.95117,1.53125 1.96,0.72 1.67937,0.77953 3.10937,1.26953 1.385,0.48 2.16235,0.60227 2.77735,0.69727 0.615,0.095 1.06773,0.1632 1.80273,0.5332 0.76174,0.41689 1.45466,0.93708 2.0625,1.54492 0.60785,0.60785 1.12999,1.30272 1.54688,2.06446 0.81411,1.32735 1.37113,2.79644 1.64062,4.33007 0.28,1.36 0.24875,2.15899 0.21875,2.83399 -0.03,0.675 -0.0593,1.22594 0.22071,2.08594 0.28,0.86 0.69328,1.5389 1.30078,2.2539 0.6075,0.715 1.40875,1.4668 2.46875,2.4668 1.54997,1.43189 3.20127,2.6825 5.02148,3.75 0.83924,-0.31804 1.73185,-0.46896 2.62891,-0.44141 1.00038,-0.13176 2.00971,-0.1738 3.01367,-0.12695 1.00396,0.0469 2.00256,0.18384 2.98633,0.4082 0.7825,0.2 1.52398,0.51993 2.23242,0.91992 0.70844,0.4 1.38336,0.87954 2.03711,1.39454 1.3075,1.03 2.52547,2.20554 3.73047,3.18554 2.18328,1.78647 4.50704,3.38541 6.94531,4.78516 2.43827,1.39975 4.99113,2.59944 7.63477,3.58398 1.38,0.5 2.79695,0.84063 4.23632,1.0625 1.43938,0.22188 2.90164,0.32602 4.36914,0.35352 2.935,0.055 5.89391,-0.19602 8.75391,-0.41602 1.02322,-0.14743 2.06173,-0.17747 3.0918,-0.0898 0.765,0.16 1.40883,0.70547 1.95508,1.35547 0.54625,0.65 0.99328,1.40437 1.36328,1.98437 0.74,1.15 1.45984,2.31602 2.02734,3.54102 0.5675,1.225 0.98328,2.50844 1.11328,3.89844 0.115,1.235 0.20203,2.35398 0.48828,3.39648 0.28625,1.0425 0.77164,2.00836 1.68164,2.94336 1.59522,1.70511 3.30172,3.30324 5.10938,4.78125 0.695,0.545 1.425,0.93789 2.17969,1.22852 0.75468,0.29062 1.53578,0.47773 2.33203,0.61523 1.5925,0.275 3.24844,0.34524 4.89844,0.61524 1.52499,0.245 3.06101,0.60898 4.32226,1.33398 0.63063,0.3625 1.19211,0.8143 1.65039,1.38867 0.45828,0.57438 0.81234,1.26969 1.02735,2.11719 0.27305,1.31477 0.46343,2.64453 0.57031,3.98047 0.10687,1.33594 0.13087,2.67807 0.0703,4.01953 0,1.32 5.5e-4,2.55547 0.1543,3.76172 0.15375,1.20625 0.46117,2.38484 1.07617,3.58984 0.655,1.29 1.21937,2.39242 1.54687,3.54492 0.16375,0.57625 0.26836,1.16399 0.29493,1.79492 0.0266,0.63094 -0.0244,1.30383 -0.17188,2.04883 -0.27,1.325 -0.59539,2.39102 -0.55664,3.35352 0.0194,0.48125 0.12922,0.93703 0.38281,1.38672 0.2536,0.44968 0.65164,0.89211 1.24414,1.34961 1.73512,1.34023 3.60906,2.4918 5.58985,3.43164 1.6,0.76 3.21976,1.44836 4.75976,2.31836 0.77,0.435 1.55282,0.93625 2.38281,1.34375 0.83,0.4075 1.70602,0.72211 2.66602,0.78711 0.52,0.0225 1.06281,-0.12688 1.60547,-0.38282 0.54266,-0.25593 1.0868,-0.61914 1.60742,-1.02539 1.04125,-0.8125 1.99274,-1.7964 2.67774,-2.4414 1.84123,-1.84783 3.51449,-3.85574 5,-6 1.20735,-1.42518 2.24994,-2.98226 3.10937,-4.64063 0.65,-1.46 0.96898,-3.05453 1.14648,-4.67578 0.17751,-1.62125 0.21469,-3.26898 0.30469,-4.83398 0.0369,-1.54303 0.23443,-3.07809 0.58985,-4.58008 0.66097,-1.9624 1.42444,-3.88796 2.28906,-5.76953 0.415,-1.08 0.41672,-2.04266 0.29297,-3.00391 -0.12375,-0.96125 -0.37313,-1.92109 -0.45313,-2.99609 0.0312,-1.60828 0.22245,-3.21073 0.57032,-4.78125 0.24,-1.52 0.4614,-2.99836 0.6914,-4.56836 0.16549,-1.17155 0.48986,-2.30943 0.96094,-3.38282 0.47108,-1.07338 1.08768,-2.08311 1.83789,-2.99804 1.5,-2 2.90992,-4 4.41992,-6 1.315,-1.71 2.62242,-3.46031 3.60742,-5.35156 0.4925,-0.94563 0.90539,-1.92618 1.19727,-2.95508 0.29187,-1.02891 0.46406,-2.10664 0.47656,-3.24414 0,-1.975 0.25,-3.91016 0.5,-5.84766 0.25,-1.9375 0.5,-3.87633 0.5,-5.86133 0,-1.69 -0.51984,-3.42961 -0.33984,-5.09961 0.127,-0.97325 0.40051,-1.91664 0.80859,-2.79687 0.40808,-0.88023 0.95063,-1.698 1.61133,-2.42383 0.63202,-0.62782 1.32213,-1.18834 2.0625,-1.67578 0.74037,-0.48744 1.53092,-0.90195 2.35742,-1.23438 1.5359,-0.41075 3.11916,-0.61217 4.70899,-0.59961 1.39,-0.1 2.82093,0.0995 4.21093,-0.0605 1.04355,-0.14636 2.07578,-0.36392 3.08985,-0.65039 1.305,-0.34 2.45242,-1.01266 3.54492,-1.78516 1.0925,-0.7725 2.12984,-1.64476 3.21484,-2.38476 l 1.91992,-0.7793 c 1.44118,-0.87531 2.80062,-1.87941 4.06055,-3 0.81,-0.76 1.41922,-1.69922 2.19922,-2.44922 1,-0.94 2.16062,-1.77172 3.14062,-2.76172 1.00596,-0.87243 1.83654,-1.92712 2.44922,-3.10937 0.29791,-1.31389 0.46847,-2.65339 0.50977,-4 0.18193,-1.92353 0.0883,-3.86296 -0.2793,-5.75977 -0.24493,-1.41652 -0.29578,-2.85889 -0.15039,-4.28906 0.19,-1.83 0.69,-3.57133 1,-5.36133 0.0567,-0.93977 0.28364,-1.86016 0.66992,-2.71875 0.64217,-0.96594 1.39165,-1.85241 2.23047,-2.64258 0.83882,-0.79017 1.76699,-1.48498 2.76953,-2.06836 1.64083,-1.04942 3.41664,-1.8483 5.26954,-2.3789 1.85289,-0.53061 3.78287,-0.79331 5.73046,-0.77149 1.55473,0.10995 3.1152,0.10995 4.66993,0 1.08667,-0.22527 2.11072,-0.6857 3,-1.34961 0.925,-0.63 2.0021,-1.44289 2.84961,-2.40039 0.42375,-0.47875 0.78984,-0.9925 1.05078,-1.53906 0.26093,-0.54656 0.41742,-1.12547 0.41992,-1.73047 0,-1.62 0.61906,-3.13047 0.78906,-4.73047 0.11,-1.06 0.30992,-2.06914 0.41992,-3.11914 0.13029,-0.91025 0.34653,-1.80437 0.64453,-2.66992 0.29801,-0.86555 0.67903,-1.70247 1.13672,-2.5 0.44403,-0.6647 0.80086,-1.38462 1.06055,-2.14063 0.075,-0.47 -0.17594,-0.77742 -0.52344,-1.01367 -0.3475,-0.23625 -0.79242,-0.40094 -1.10742,-0.58594 -0.635,-0.35 -1.18594,-0.85117 -1.71094,-1.38867 -0.525,-0.5375 -1.02359,-1.11133 -1.55859,-1.61133 -1.95,-1.74 -4.10141,-3.28937 -6.19141,-4.85937 -0.90255,-0.65966 -1.68391,-1.45732 -2.32226,-2.35742 -0.63835,-0.90011 -1.13298,-1.90274 -1.45703,-2.97266 -0.52,-1.69 -0.99914,-3.34 -1.61915,-5 -0.25,-0.665 -0.34882,-1.34062 -0.33007,-2.01172 0.0187,-0.67109 0.155,-1.3375 0.375,-1.98437 0.44,-1.29375 1.21468,-2.51039 2.05468,-3.52539 1.35157,-1.64341 2.91926,-3.09493 4.66016,-4.31836 1.40355,-0.84531 2.9599,-1.40637 4.58008,-1.65039 1.05,-0.21 2.08359,-0.1661 3.12109,-0.1211 1.0375,0.045 2.07867,0.0909 3.13867,-0.11914 0.83216,-0.20434 1.62537,-0.54204 2.34961,-1 2.09258,-1.31006 4.01472,-2.87557 5.72071,-4.66015 0.455,-0.44 0.99789,-0.94039 1.46289,-1.49414 0.465,-0.55375 0.85109,-1.16141 0.99609,-1.81641 0.042,-0.63621 -0.0528,-1.27314 -0.2793,-1.86914 -0.29,-1.11 -0.57054,-2.20031 -0.81054,-3.32031 -0.18518,-1.39386 -0.66261,-2.73269 -1.40039,-3.92969 -0.48679,-0.59638 -1.02154,-1.15176 -1.59961,-1.66016 l -1.91016,-1.84961 c -0.54,-0.5 -0.69867,-1.10726 -0.70117,-1.75976 -0.002,-0.6525 0.15219,-1.35125 0.24219,-2.03125 0.16,-1.2 0.43898,-2.33953 0.70898,-3.51953 0.0664,-0.55797 0.19149,-1.1082 0.37109,-1.64063 0.22501,-0.46 0.89024,-0.93976 1.58399,-1.35351 0.69375,-0.41375 1.41586,-0.76008 1.75586,-0.95508 2.31382,-1.23099 4.69305,-2.33347 7.12891,-3.30078 1.58389,-0.71138 3.22047,-1.29183 4.89257,-1.73828 1.67211,-0.44646 3.37974,-0.75883 5.10743,-0.93165 2.12,-0.19 4.24109,-0.28015 6.37109,-0.41015 1.53123,-0.15831 3.07085,-0.21193 4.60937,-0.16016 1.42667,0.14 2.84644,0.28922 4.25977,0.44922 1.82687,0.23843 3.67367,0.28287 5.50977,0.13086 1.40877,-0.222 2.80183,-0.53444 4.16796,-0.93359 1.36613,-0.39915 2.70503,-0.88565 4.01172,-1.45703 1.31,-0.535 2.68664,-1.16204 3.93164,-1.95704 0.6225,-0.3975 1.21102,-0.8375 1.74414,-1.32812 0.53313,-0.49063 1.0093,-1.03227 1.4043,-1.63477 0.4,-0.61 0.9418,-1.09898 1.3418,-1.70898 0.64,-1 1.10953,-2 1.76953,-3 0.66,-1 1.19,-1.99969 2,-2.92969 0.76378,-0.77037 1.57508,-1.49196 2.42969,-2.16016 1.2486,-0.001 2.469,-0.25675 3.59375,-0.73828 1.12474,-0.48152 2.1532,-1.18889 3.01562,-2.09179 1.26657,-1.1352 2.39986,-2.4045 3.38086,-3.78125 0.981,-1.37675 1.80931,-2.86189 2.46875,-4.42969 0.24327,-0.471 0.3152,-1.01159 0.20117,-1.5293 -0.24,-0.48 -0.68054,-0.45039 -1.06054,-0.65039 -0.3164,-0.16346 -0.57248,-0.40993 -0.7461,-0.70508 -0.17361,-0.29514 -0.26476,-0.63818 -0.2539,-0.99414 0.064,-0.79083 0.21612,-1.57227 0.45117,-2.33008 0.24,-1.12999 0.44968,-2.27039 0.67968,-3.40039 0.19001,-0.915 0.50243,-1.82804 0.76368,-2.74804 0.26125,-0.92 0.47007,-1.84797 0.45508,-2.79297 V 126 c 0,-0.87 0.23125,-1.57016 0.28124,-2.41016 -0.0673,-0.94731 0.0171,-1.89961 0.25,-2.82031 0.54274,-1.23955 1.21302,-2.41877 2,-3.51953 0.31501,-0.47 0.38938,-0.90195 0.35938,-1.3457 -0.03,-0.44375 -0.16453,-0.89907 -0.26953,-1.41407 -0.0838,-0.5789 -0.23604,-1.14551 -0.45117,-1.68945 -0.31,-0.64 -0.78,-1.16031 -1,-1.82031 -0.34118,-0.61803 -0.36212,-1.36263 -0.0586,-2 0.8386,-1.71687 1.88231,-3.32637 3.10938,-4.79102 1.5047,-1.73651 3.17975,-3.3165 5,-4.718747 0.99729,-0.818853 2.09208,-1.511352 3.25976,-2.060547 1.23743,-0.528121 2.40898,-1.19936 3.49024,-2 0.81531,-0.662483 1.54701,-1.421116 2.17969,-2.259765 0.52133,-0.564712 0.95989,-1.201797 1.30078,-1.890625 0.15976,-0.659411 0.28242,-1.327078 0.36914,-2 0.27238,-0.911259 0.32734,-1.874259 0.16015,-2.810547 -0.24016,-0.536987 -0.55278,-1.03664 -0.92968,-1.488281 -0.36926,-0.513817 -0.66007,-1.076902 -0.86719,-1.667969 -0.20713,-0.591067 -0.33104,-1.211835 -0.36328,-1.84375 0.0999,-1.31312 0.33054,-2.611841 0.68945,-3.878907 0.21,-1 0.31031,-2.081093 0.57031,-3.121093 0.14667,-0.426757 0.1941,-0.874973 0.14453,-1.3125 -0.0496,-0.437527 -0.19518,-0.862958 -0.43359,-1.246094 -0.4,-0.555 -0.94828,-0.786016 -1.51953,-0.978516 -0.57125,-0.1925 -1.16516,-0.346953 -1.66016,-0.751953 -0.3925,-0.3225 -0.62484,-0.693828 -0.75781,-1.095703 -0.13297,-0.401875 -0.16664,-0.834844 -0.16601,-1.277344 10e-4,-0.885 0.14382,-1.811953 -0.0762,-2.626953 -0.125,-0.46 -0.39812,-0.766719 -0.73437,-1.011718 -0.33625,-0.245 -0.73719,-0.428672 -1.11719,-0.638672 -0.90918,-0.580655 -1.69036,-1.339664 -2.29883,-2.230469 -0.74755,-0.896482 -1.34195,-1.910073 -1.75976,-3 -0.42999,-1.01376 -1.06802,-1.926258 -1.8711,-2.679688 C 689.02414,54.846924 688.2162,53.972472 687.53903,53 c -0.8822,-1.499404 -1.64088,-3.067331 -2.26953,-4.689453 -0.32,-0.775 -0.67476,-1.6 -1.19726,-2.21875 -0.26125,-0.309375 -0.56422,-0.567969 -0.92579,-0.742188 -0.36156,-0.174218 -0.78234,-0.265234 -1.27734,-0.240234 -1.315,0.07 -2.68359,0.428984 -4.02734,0.896484 -1.34375,0.4675 -2.6611,1.044688 -3.8711,1.554688 -1.29,0.55 -2.56109,0.999062 -3.87109,1.539062 -0.63905,0.194872 -1.25096,0.47074 -1.82031,0.820313 -0.6525,0.465 -1.18641,1.010469 -1.61328,1.613281 -0.42688,0.602813 -0.7468,1.262735 -0.9668,1.958985 -0.22,0.696249 -0.34117,1.428515 -0.37305,2.173828 -0.0319,0.745312 0.0266,1.503906 0.16406,2.253906 0.17103,0.654063 0.27043,1.324543 0.29883,2 -0.095,1.196127 -0.36336,2.372149 -0.79883,3.490234 -0.4429,1.484514 -0.97047,2.940977 -1.57812,4.363282 -0.60765,1.422304 -1.29601,2.80998 -2.0625,4.15625 -0.57839,1.078205 -1.24747,2.105555 -2,3.070312 -0.60062,0.582201 -1.32943,1.013736 -2.12891,1.259766 -1.09,0.43 -2.21031,0.831172 -3.32031,1.201172 -1.00372,0.458304 -2.1162,0.62626 -3.21094,0.488281 -0.61,-0.18 -1.16906,-0.689922 -1.78906,-0.919922 -1.51383,-0.456193 -3.08905,-0.673891 -4.66992,-0.648438 -0.72733,0.06355 -1.44616,-0.05746 -2.09766,-0.335937 -0.6515,-0.278479 -1.23669,-0.715516 -1.69336,-1.285156 -0.6367,-0.874273 -1.36055,-1.681893 -2.16015,-2.410157 -0.90638,-0.610847 -1.97542,-0.931622 -3.06836,-0.919921 -1.73523,-0.09652 -3.46588,-0.283984 -5.18164,-0.560547 -0.53858,-0.163018 -1.08929,-0.276662 -1.64844,-0.339844 -0.53755,0.0042 -1.06763,0.100068 -1.56641,0.279297 -0.49878,0.179229 -0.96743,0.442416 -1.38476,0.78125 -0.71,0.5 -1.35211,1.079922 -1.93555,1.716797 -0.58344,0.636875 -1.10828,1.330547 -1.58203,2.060547 -0.9475,1.459999 -1.69273,3.062812 -2.30273,4.632812 -0.9024,2.536622 -1.62741,5.132403 -2.16993,7.769531 -0.17001,1.225717 -0.6398,2.390949 -1.36914,3.390625 -0.50901,0.481984 -1.04603,0.932414 -1.60937,1.34961 -0.49052,0.530134 -1.01527,1.028082 -1.57032,1.490234 -0.68499,0.43 -1.52054,0.51 -2.37304,0.46875 -0.8525,-0.04125 -1.72352,-0.202812 -2.47852,-0.257812 -1.51,-0.11 -3.22883,0.128437 -4.79883,-0.101563 -1.57,-0.23 -3,-0.698437 -4.5,-0.898437 -0.75,-0.1 -1.38804,-0.179375 -1.90429,-0.421876 -0.51625,-0.2425 -0.91078,-0.648203 -1.17578,-1.408203 -0.3,-0.87 -0.50297,-1.741484 -0.76172,-2.583984 -0.25875,-0.8425 -0.57266,-1.656016 -1.09766,-2.416016 -0.3,-0.45 -0.68609,-0.811328 -1.125,-1.111328 -0.4389,-0.3 -0.93219,-0.54 -1.44531,-0.75 -1.02625,-0.42 -2.13531,-0.718672 -3.07031,-1.138672 C 587.39975,83.087074 586.67496,82.707125 586,82.25 c -0.91,-0.67 -1.67961,-1.490625 -2.59961,-2.140625 -0.82374,-0.639443 -1.71701,-1.177529 -2.66016,-1.605469 -0.94314,-0.427939 -1.93725,-0.74456 -2.96093,-0.943359 -1.30479,-0.347511 -2.66927,-0.408601 -4,-0.179688 -1.49199,0.475243 -2.92183,1.12595 -4.25977,1.939453 -0.595,0.340001 -0.99664,0.840391 -1.36914,1.306641 -0.3725,0.46625 -0.71445,0.898516 -1.18945,1.103516 -0.95,0.41 -1.63117,0.869297 -2.45117,1.279297 -2.49,1.21 -4.69914,2.910468 -7.11915,4.230468 -0.58154,0.337893 -1.20686,0.5878 -1.85351,0.746094 -0.64665,0.158294 -1.31446,0.224427 -1.98633,0.19336 -1,0 -2,-0.299844 -3,-0.339844 -1.62767,-0.04364 -3.25732,0.04308 -4.87109,0.259765 -0.92,0.105 -1.91961,0.232266 -2.84961,0.134766 -0.465,-0.04875 -0.91297,-0.153516 -1.32422,-0.345703 -0.41125,-0.192188 -0.78547,-0.471641 -1.10547,-0.869141 -0.34614,-0.588554 -0.74054,-1.147085 -1.17969,-1.669922 C 538.53933,84.809603 537.79294,84.356537 537,84 c -0.74,-0.4 -1.50594,-0.677422 -2.14844,-1.076172 -0.32125,-0.199375 -0.61,-0.428281 -0.85156,-0.71875 -0.24156,-0.290469 -0.43555,-0.643437 -0.56055,-1.085937 -0.17685,-0.774389 -0.30268,-1.558949 -0.3789,-2.34961 -0.13,-0.83 -0.45008,-1.609218 -0.58008,-2.449219 -0.22,-1.42 -0.19711,-2.875937 -0.13086,-4.335937 0.0662,-1.46 0.17586,-2.925234 0.13086,-4.365234 -0.0175,-0.8725 -0.20008,-1.61586 -0.50977,-2.25586 -0.30968,-0.64 -0.74609,-1.176406 -1.27734,-1.628906 -0.53125,-0.4525 -1.1557,-0.822812 -1.83789,-1.132813 -0.68219,-0.31 -1.42305,-0.558984 -2.18555,-0.771484 -2.28948,-0.606894 -4.52128,-1.41347 -6.66992,-2.410156 -0.5575,-0.265 -1.1532,-0.423438 -1.76758,-0.503906 -0.61437,-0.08047 -1.24781,-0.08383 -1.88281,-0.0332 -1.27,0.10125 -2.54469,0.411797 -3.67969,0.716797 -1.12,0.31 -2.27062,0.420469 -3.39062,0.730469 -0.59748,0.09334 -1.18814,0.224218 -1.76953,0.390625 -1,0.4 -1.99883,1.194688 -2.86133,2.117188 -0.8625,0.9225 -1.58907,1.972812 -2.03906,2.882812 -0.45,0.91 -0.595,1.504219 -0.53126,2.074219 0.0637,0.57 0.33766,1.115781 0.72266,1.925781 0.46797,1.09214 0.82325,2.225386 1.06445,3.382813 0.24121,1.157426 0.36777,2.33919 0.375,3.527343 0.15967,0.750315 0.35957,1.490156 0.59961,2.21875 -0.01,1.006146 -0.21321,2.000645 -0.59961,2.929688 -0.40236,1.681851 -1.02775,3.295029 -1.85351,4.796875 -0.82576,1.501846 -1.85206,2.894001 -3.05664,4.134766 -0.51481,0.515657 -1.19425,0.832621 -1.91992,0.898437 -2.09,0.32 -4.22985,0.569766 -6.33985,0.759766 -2.13,0.19 -4.1707,0.190937 -6.12695,-0.164063 -0.97813,-0.1775 -1.93406,-0.444687 -2.87109,-0.820312 -0.93704,-0.375625 -1.85446,-0.85961 -2.75196,-1.47461 -2.74,-1.89 -5.35086,-3.999531 -8.13086,-5.769531 -0.5044,-0.268911 -0.94842,-0.636212 -1.30859,-1.080078 -0.22,-0.34 -0.16008,-0.57 -0.33008,-1 -0.29457,-0.609101 -0.7558,-1.122727 -1.33008,-1.480469 -1.0475,-0.73 -2.18289,-1.301953 -3.37304,-1.755859 -1.19016,-0.453907 -2.435,-0.789297 -3.70313,-1.044922 -2.53625,-0.51125 -5.165,-0.703672 -7.625,-0.888672 -1.875,-0.14 -3.55265,-0.420547 -5.09765,-0.998047 -0.7725,-0.28875 -1.51219,-0.652187 -2.22657,-1.109375 -0.71437,-0.457187 -1.40367,-1.008828 -2.07617,-1.673828 -0.70567,-0.697098 -1.47416,-1.263694 -2.28711,-1.744141 z"
       style="fill:none;stroke:#000000;stroke-width:1;stroke-linecap:round;stroke-linejoin:round;stroke-miterlimit:4;stroke-dasharray:none;stroke-opacity:1;paint-order:fill markers stroke"
       id="path853" />
    <path
       d="M 421.73047,0.4609375 54.679688,0.83984375 c 0.882863,-0.0681933 1.768223,0.10462171 2.560546,0.50000005 1.015262,0.4182502 2.115177,0.5865395 3.208985,0.4902343 1.529927,-0.024063 3.058077,0.1344125 4.550781,0.4707031 0.67254,0.1905483 1.315461,0.4654125 1.912109,0.8183594 0.596649,0.3529469 1.147806,0.7835859 1.638672,1.28125 0.778289,0.7865559 1.729862,1.3796279 2.779297,1.7304688 0.97,0.31 1.97,0.3960937 2.96875,0.4648437 0.99875,0.06875 1.995938,0.1185157 2.960938,0.3535157 1.3,0.31 2.454609,0.9230468 3.599609,1.5605468 1.145,0.6375 2.281016,1.3009375 3.541016,1.7109374 0.944568,0.30905 1.84736,0.731941 2.689453,1.259766 0.780162,0.542589 1.457411,1.219838 2,2 0.531079,0.623242 1.195987,1.09906 1.93164,1.404297 0.735654,0.305236 1.543069,0.439187 2.359375,0.375 0.511234,-0.04551 1.025888,0.03388 1.5,0.230468 0.669102,0.312686 1.291292,0.715741 1.84961,1.199219 0.530056,0.486281 0.960806,1.070998 1.269531,1.720703 0.403045,0.629471 0.73825,1.299881 1,2 -0.795572,0.277619 -1.647411,0.357046 -2.480469,0.230469 h -5 c -2.012189,-0.03595 -4.022746,0.134717 -6,0.509766 -1.636282,0.190601 -3.25263,0.525232 -4.830078,1 0.01929,0.341905 0.150236,0.667975 0.371094,0.929687 0.170212,0.55057 0.370122,1.090524 0.599609,1.619141 0.38,0.72 0.922188,1.25125 1.523438,1.71875 0.60125,0.4675 1.261953,0.871797 1.876953,1.341797 0.5,0.375 0.821172,0.824531 1.107422,1.300781 0.28625,0.47625 0.537578,0.978984 0.892578,1.458984 0.405,0.56 0.778906,0.876406 1.222656,1.066407 0.44375,0.19 0.956719,0.254453 1.636719,0.314453 1.815488,0.07736 3.614455,0.371721 5.359375,0.878906 1.553305,0.528572 3.179776,0.811813 4.820313,0.839844 0.5,0 1.12367,-0.08727 1.73242,-0.103516 0.60875,-0.01625 1.20344,0.03922 1.64844,0.324219 0.1298,0.211374 0.30353,0.391471 0.50976,0.529297 0.32,0.15 3.9e-4,1.61 0.40039,3 0.0985,0.575312 0.36621,1.109331 0.76954,1.53125 0.215,0.185 0.26468,0.459609 0.27343,0.755859 0.009,0.29625 -0.0226,0.612812 0.0273,0.882812 0.17,1 0.0309,2.021251 -0.0703,3.03125 -0.10124,1.01 -0.16656,2.00875 0.14844,2.96875 0.17,0.525 0.245,0.845782 0.1875,1.175782 -0.0575,0.33 -0.24742,0.669375 -0.60742,1.234375 -0.82,1.27 -1.86344,2.405234 -2.99219,3.458984 -1.12875,1.05375 -2.341091,2.027656 -3.496091,2.972656 l -3.351562,2.738282 c -0.53128,0.5088 -1.151674,0.916736 -1.830078,1.201171 -0.45,0.15 -0.916172,0.178047 -1.384766,0.119141 C 91.595859,59.380547 91.12625,59.235234 90.671875,59.037109 89.763125,58.640859 88.914766,58.035 88.259766,57.5 86.949766,56.43 85.53,55.179687 84,54.179688 c -0.278648,-0.223966 -0.588528,-0.404961 -0.919922,-0.539063 -0.53,-0.035 -0.902109,0.329844 -1.162109,0.808594 -0.26,0.47875 -0.408281,1.070234 -0.488281,1.490234 -0.137501,0.7 -0.118126,1.363672 0.0039,2.001953 0.122031,0.638281 0.347422,1.252344 0.623047,1.855469 0.55125,1.20625 1.303984,2.36875 1.833984,3.59375 0.604588,1.637181 1.11776,3.306367 1.539063,5 0.145181,0.730209 0.433589,1.416606 0.839843,2.023437 0.406254,0.606832 0.930979,1.134409 1.550781,1.546876 1.13,0.68 2.379844,0.950625 3.652344,1.140624 1.2725,0.19 2.56711,0.298438 3.78711,0.648438 0.61,0.175 1.134843,0.457578 1.578125,0.822266 0.443281,0.364687 0.806172,0.81125 1.091797,1.3125 0.57125,1.0025 0.835078,2.225078 0.830078,3.455078 0.04121,1.227716 -0.219532,2.447543 -0.759766,3.550781 -0.2975,0.5575 -0.718672,1.023359 -1.216797,1.419922 -0.498125,0.396562 -1.072734,0.723203 -1.677734,1.001953 -1.21,0.5575 -2.540235,0.922578 -3.615235,1.267578 -0.964184,0.379197 -1.961563,0.660906 -2.976562,0.841797 -1.014999,0.180891 -2.048165,0.261042 -3.083984,0.238281 -0.620258,-0.04175 -1.214925,-0.219905 -1.746094,-0.513672 -0.53117,-0.293766 -0.998217,-0.703851 -1.363282,-1.207031 C 81.827725,85.24199 81.17331,84.695236 80.429688,84.332031 79.686065,83.968827 78.852921,83.789796 78,83.830078 c -0.665,0 -1.506797,-0.04281 -2.279297,0.08594 -0.38625,0.06437 -0.755859,0.170937 -1.076172,0.347656 -0.320312,0.176719 -0.592656,0.423125 -0.785156,0.765625 -0.229367,0.424321 -0.229367,0.937007 0,1.361328 0.38,1.045 1.054687,2.008828 1.804687,2.923828 0.75,0.915 1.57586,1.78 2.25586,2.625 0.84,1.045 1.658516,2.072891 2.572266,2.994141 0.913749,0.92125 1.923437,1.735468 3.148437,2.355468 0.7,0.36 1.489922,0.63 2.169922,1 0.68,0.370001 1.370078,1.061016 2.080078,1.541016 1.82,1.25 3.939531,1.8 5.769531,3 0.915,0.6 1.725313,1.35078 2.507813,2.14453 0.7825,0.79375 1.536797,1.63125 2.341797,2.40625 0.32,0.3 0.594843,0.52086 0.777343,0.78711 0.1825,0.26625 0.272657,0.57773 0.222657,1.05273 0,0.67 -0.380703,1.33 -0.470704,2 -0.09,0.61 0.143438,1.01024 0.398438,1.39649 0.255,0.38625 0.533203,0.7575 0.533203,1.3125 0,0.425 -0.203672,0.88437 -0.451172,1.32812 -0.2475,0.44375 -0.53875,0.87242 -0.71875,1.23242 -0.18,0.36 -0.341484,0.73961 -0.521484,1.09961 -0.497205,0.80494 -1.230129,1.43753 -2.099609,1.81055 -1.480001,0.89 -3,1.76031 -4.5,2.57031 -0.840001,0.44 -1.700313,0.86977 -2.570313,1.25977 -0.53,0.23 -1.189922,0.38734 -1.826172,0.58984 -0.63625,0.2025 -1.248594,0.44938 -1.683594,0.85938 -0.435,0.41 -0.659218,1.0507 -0.761718,1.7207 -0.1025,0.67 -0.08234,1.37039 -0.02734,1.90039 0.307833,1.75067 0.898913,3.43947 1.75,5 0.605,1.25 1.584766,2.3186 2.541015,3.40234 0.95625,1.08375 1.888438,2.18133 2.398438,3.48633 0.235,0.61 0.269531,1.17797 0.171875,1.71485 -0.09766,0.53687 -0.327969,1.0432 -0.621094,1.5332 -0.58625,0.98 -1.425703,1.8918 -1.970703,2.8418 -0.275539,0.82265 -0.502283,1.66052 -0.679687,2.50976 -0.975274,2.1079 -2.112382,4.13759 -3.400391,6.07032 -0.28176,0.32782 -0.483255,0.7108 -0.597656,1.11718 -0.114401,0.40638 -0.141629,0.83701 -0.07227,1.26367 0.332551,0.85747 0.726609,1.68989 1.179688,2.49024 0.53086,1.37687 0.90985,2.80186 1.132812,4.25195 0.222963,1.4501 0.289976,2.92569 0.197266,4.39844 0,0.71 -0.260703,1.42891 -0.220703,2.12891 0,0.4 0.180703,0.74086 0.220703,1.13085 0.075,0.645 -0.09562,1.30977 -0.359375,1.94727 -0.26375,0.6375 -0.619922,1.24625 -0.919922,1.78125 -0.177312,0.45167 -0.449768,0.85429 -0.791016,1.18359 -0.341248,0.32931 -0.751288,0.58694 -1.208984,0.74805 -1.785528,0.26868 -3.585917,0.43058 -5.390625,0.48828 -1.088767,-0.004 -2.158503,0.28259 -3.09961,0.83008 0.26245,0.70947 0.600972,1.39078 1.021485,2.01367 0.420513,0.62289 0.922313,1.189 1.507812,1.66797 0.77,0.595 1.377578,0.81945 2.017579,1.0332 0.64,0.21375 1.31289,0.4168 2.21289,0.9668 1.125,0.69 1.681797,1.35664 2.216797,2.08789 0.535,0.73125 1.048984,1.52571 2.083984,2.47071 1.703637,1.28404 3.595509,2.29607 5.609375,3 L 139.63086,192.25 c 1.86738,-0.58813 3.77073,-1.0531 5.69922,-1.39062 3.14989,-0.42242 6.32221,-0.65542 9.5,-0.69922 2.025,-0.085 3.29461,-0.12071 4.22461,-0.0645 0.93,0.0563 1.52054,0.20438 2.18554,0.48438 1.28735,0.7283 2.52277,1.54297 3.69922,2.43945 1.84,1.28 3.17,2.21047 4.75,3.48047 6.42,5.16 5.83071,4.23945 7.22071,5.68945 0.78,0.82 1.33289,1.49891 1.90039,2.03516 0.5675,0.53625 1.15023,0.93055 1.99023,1.18555 1.16,0.36 1.54883,0.0692 3.54883,0.44922 1.32391,0.31406 2.62447,0.72246 3.89062,1.2207 0.94876,0.23986 1.91614,0.39091 2.88868,0.45117 0.97253,0.0603 1.95076,0.0291 2.92187,-0.0918 2.575,-0.135 3.62461,-0.0375 5.31836,0.0937 1.69375,0.13125 4.03164,0.29688 9.18164,0.29688 2.72382,0.0694 5.44946,-0.0347 8.16016,-0.31055 2.79062,-0.30025 5.53942,-0.90264 8.19922,-1.79883 1.81,-0.63 2.76054,-1.12758 3.62304,-1.54882 0.8625,-0.42125 1.63766,-0.7668 3.09766,-1.0918 2.185,-0.4586 4.42311,-0.59993 6.64844,-0.41992 2.40995,0.21687 4.79633,0.61998 7.13672,1.20507 2.34038,0.5851 4.63479,1.35219 6.86328,2.29493 1.99,0.94 1.84015,1.14937 4.66015,2.60937 2.03,1.05 3.59063,1.70117 5.89063,2.70117 3.26,1.38 4.02984,1.55875 6.33984,2.71875 2.11043,-2.38558 4.43826,-4.5861 6.83008,-6.68945 2.025,-1.775 3.52578,-2.88805 4.76953,-3.9668 1.24375,-1.07875 2.23047,-2.12367 3.23047,-3.76367 0.34,-0.53 1.14094,-2.14008 2.71094,-5.33008 1.41,-2.85 1.7,-3.99867 3,-6.13867 0.39387,-0.77998 0.87017,-1.51283 1.42187,-2.18359 0.5517,-0.67076 1.17786,-1.27943 1.86719,-1.81641 1.28505,-0.80377 2.70383,-1.36939 4.18945,-1.66992 2.76,-0.77 4.61,-1.06086 6.25,-1.38086 2.49,-0.47 2.13094,-0.56063 8.21094,-2.14062 7.25,-1.88 6.80906,-1.51 8.78906,-2.25 2.84469,-1.24597 5.60846,-2.67174 8.27149,-4.26954 2.64191,-1.35281 5.1953,-2.86815 7.64844,-4.53906 2.46391,-1.96688 4.71957,-4.18319 6.73046,-6.61133 1.57,-1.79 1.43,-1.81015 4,-4.91015 3.62,-4.38 3.94102,-4.36852 5.79102,-6.72852 1.38,-1.77 1.21906,-1.78992 5.78906,-8.91992 3.6,-5.61 4.57094,-7.00055 5.21094,-7.81055 1.53283,-2.19492 3.24453,-4.25861 5.11914,-6.16992 1.05697,-1.05405 2.17321,-2.04585 3.3418,-2.9707 1.16858,-0.92485 2.38951,-1.78377 3.6582,-2.57031 1,-0.59001 2.48094,-1.31907 5.46094,-2.78907 4.24,-2.09 4.36,-1.99945 6,-2.93945 2.1098,-1.18134 4.08079,-2.59427 5.8789,-4.21094 1.74316,-1.49573 3.272,-3.22609 4.54102,-5.14062 0.67,-1.045 0.91969,-1.65164 1.27344,-2.58789 0.35375,-0.93625 0.81148,-2.20055 1.89648,-4.560551 2,-4.55 1.90008,-3.32039 3.58008,-7.15039 0.57,-1.3 0.95125,-2.277735 1.375,-3.052735 0.42375,-0.775 0.89,-1.34789 1.625,-1.83789 0.74,-0.5 1.06851,-0.450391 3.72852,-1.150391 1.99081,-0.482285 3.95461,-1.0727 5.88085,-1.769531 2.54,-1 2.38055,-1.290078 5.56055,-2.580078 1.55371,-0.637602 3.13913,-1.194924 4.75,-1.669922 3.32,-1 3.48953,-0.609609 5.26953,-1.34961 1.79954,-0.825427 3.46182,-1.921453 4.92969,-3.25 1.4788,-1.1874 2.81193,-2.546667 4.08203,-3.955078 -1.01627,-0.600612 -2.10144,-1.065721 -3.21484,-1.484375 -1.1134,-0.418654 -2.25455,-0.790447 -3.38672,-1.201171 -1.25,-0.452501 -2.33352,-1.141641 -3.29492,-1.986329 -0.96141,-0.844687 -1.80133,-1.843671 -2.56446,-2.919921 -1.52625,-2.1525 -2.74648,-4.607657 -4.02148,-6.722657 -1,-1.67 -2.16945,-3.240625 -3.18945,-4.890625 -1.02437,-1.430464 -1.817,-3.012586 -2.34961,-4.689453 -0.25,-1.075 -0.35485,-2.17539 -0.34766,-3.283203 0.007,-1.107813 0.12656,-2.223828 0.32031,-3.330078 0.3875,-2.2125 1.07711,-4.386719 1.78711,-6.386719 1.14,-3.24 2.42969,-6.421094 3.67969,-9.621094 0.38598,-0.893261 0.60964,-1.848538 0.66016,-2.820312 0.035,-0.935 0.31507,-1.832578 0.54882,-2.736328 0.23375,-0.90375 0.42149,-1.813438 0.27149,-2.773438 -0.18,-1.18 -0.53031,-2.320469 -0.82031,-3.480469 -0.53,-2.179999 -0.76985,-4.4081245 -1.33985,-6.5781245 -0.29362,-1.0755792 -0.68108,-2.1211261 -1.15625,-3.125 -0.47516,-1.0038739 -1.03788,-1.9660746 -1.68359,-2.875 z"
       style="fill:none;stroke:#000000;stroke-width:1;stroke-linecap:round;stroke-linejoin:round;stroke-miterlimit:4;stroke-dasharray:none;stroke-opacity:1;paint-order:fill markers stroke"
       id="path851" />
    <path
       id="path858"
       d="m 421.73047,0.4609375 c 0.64571,0.9089254 1.20843,1.8711261 1.68359,2.875 0.47517,1.0038739 0.86263,2.0494208 1.15625,3.125 0.57,2.17 0.80985,4.3981255 1.33985,6.5781245 0.29,1.16 0.64031,2.300469 0.82031,3.480469 0.15,0.96 -0.0377,1.869688 -0.27149,2.773438 -0.23375,0.90375 -0.51382,1.801328 -0.54882,2.736328 -0.0505,0.971774 -0.27418,1.927051 -0.66016,2.820312 -1.25,3.2 -2.53969,6.381094 -3.67969,9.621094 -0.71,2 -1.39961,4.174219 -1.78711,6.386719 -0.19375,1.10625 -0.31312,2.222265 -0.32031,3.330078 -0.007,1.107813 0.0977,2.208203 0.34766,3.283203 0.53261,1.676867 1.32524,3.258989 2.34961,4.689453 1.02,1.65 2.18945,3.220625 3.18945,4.890625 1.275,2.115 2.49523,4.570157 4.02148,6.722657 0.76313,1.07625 1.60305,2.075234 2.56446,2.919921 0.9614,0.844688 2.04492,1.533828 3.29492,1.986329 1.13217,0.410724 2.27332,0.782517 3.38672,1.201171 1.1134,0.418654 2.19857,0.883763 3.21484,1.484375 0.81295,0.480447 1.58144,1.047043 2.28711,1.744141 0.6725,0.665 1.3618,1.216641 2.07617,1.673828 0.71438,0.457188 1.45407,0.820625 2.22657,1.109375 1.545,0.5775 3.22265,0.858047 5.09765,0.998047 2.46,0.185 5.08875,0.377422 7.625,0.888672 1.26813,0.255625 2.51297,0.591015 3.70313,1.044922 1.19015,0.453906 2.32554,1.025859 3.37304,1.755859 0.57428,0.357742 1.03551,0.871368 1.33008,1.480469 0.17,0.43 0.11008,0.66 0.33008,1 0.36017,0.443866 0.80419,0.811167 1.30859,1.080078 2.78,1.77 5.39086,3.879531 8.13086,5.769531 0.8975,0.615 1.81492,1.098985 2.75196,1.47461 0.93703,0.375625 1.89296,0.642812 2.87109,0.820312 1.95625,0.355 3.99695,0.354063 6.12695,0.164063 2.11,-0.19 4.24985,-0.439766 6.33985,-0.759766 0.72567,-0.06582 1.40511,-0.38278 1.91992,-0.898437 1.20458,-1.240765 2.23088,-2.63292 3.05664,-4.134766 0.82576,-1.501846 1.45115,-3.115024 1.85351,-4.796875 0.3864,-0.929043 0.58961,-1.923542 0.59961,-2.929688 -0.24004,-0.728594 -0.43994,-1.468435 -0.59961,-2.21875 -0.007,-1.188153 -0.13379,-2.369917 -0.375,-3.527343 -0.2412,-1.157427 -0.59648,-2.290673 -1.06445,-3.382813 -0.385,-0.81 -0.65891,-1.355781 -0.72266,-1.925781 -0.0637,-0.57 0.0813,-1.164219 0.53126,-2.074219 0.44999,-0.91 1.17656,-1.960312 2.03906,-2.882812 0.8625,-0.9225 1.86133,-1.717188 2.86133,-2.117188 0.58139,-0.166407 1.17205,-0.297285 1.76953,-0.390625 1.12,-0.31 2.27062,-0.420469 3.39062,-0.730469 1.135,-0.305 2.40969,-0.615547 3.67969,-0.716797 0.635,-0.05062 1.26844,-0.04727 1.88281,0.0332 0.61438,0.08047 1.21008,0.238906 1.76758,0.503906 2.14864,0.996686 4.38044,1.803262 6.66992,2.410156 0.7625,0.2125 1.50336,0.461484 2.18555,0.771484 0.68219,0.310001 1.30664,0.680313 1.83789,1.132813 0.53125,0.4525 0.96766,0.988906 1.27734,1.628906 0.30969,0.64 0.49227,1.38336 0.50977,2.25586 0.045,1.44 -0.0646,2.905234 -0.13086,4.365234 -0.0662,1.46 -0.0891,2.915937 0.13086,4.335937 0.13,0.840001 0.45008,1.619219 0.58008,2.449219 0.0762,0.790661 0.20205,1.575221 0.3789,2.34961 0.125,0.4425 0.31899,0.795468 0.56055,1.085937 0.24156,0.290469 0.53031,0.519375 0.85156,0.71875 C 535.49406,83.322578 536.26,83.6 537,84 c 0.79294,0.356537 1.53933,0.809603 2.2207,1.349609 0.43915,0.522837 0.83355,1.081368 1.17969,1.669922 0.32,0.3975 0.69422,0.676953 1.10547,0.869141 0.41125,0.192187 0.85922,0.296953 1.32422,0.345703 0.93,0.0975 1.92961,-0.02977 2.84961,-0.134766 1.61377,-0.21669 3.24342,-0.303405 4.87109,-0.259765 1,0.04 2,0.339844 3,0.339844 0.67187,0.03107 1.33968,-0.03507 1.98633,-0.19336 0.64665,-0.158294 1.27197,-0.408201 1.85351,-0.746094 2.42001,-1.32 4.62915,-3.020468 7.11915,-4.230468 0.82,-0.41 1.50117,-0.869297 2.45117,-1.279297 0.475,-0.205 0.81695,-0.637266 1.18945,-1.103516 0.3725,-0.46625 0.77414,-0.96664 1.36914,-1.306641 1.33794,-0.813503 2.76778,-1.46421 4.25977,-1.939453 1.33073,-0.228913 2.69521,-0.167823 4,0.179688 1.02368,0.198799 2.01779,0.51542 2.96093,0.943359 0.94315,0.42794 1.83642,0.966026 2.66016,1.605469 0.92,0.65 1.68961,1.470625 2.59961,2.140625 0.67496,0.457125 1.39975,0.837074 2.16016,1.130859 0.935,0.42 2.04406,0.718672 3.07031,1.138672 0.51312,0.21 1.00641,0.45 1.44531,0.75 0.43891,0.3 0.825,0.661328 1.125,1.111328 0.525,0.76 0.83891,1.573516 1.09766,2.416016 0.25875,0.8425 0.46172,1.713984 0.76172,2.583984 0.265,0.76 0.65953,1.165703 1.17578,1.408203 0.51625,0.242501 1.15429,0.321876 1.90429,0.421876 1.5,0.2 2.93,0.668437 4.5,0.898437 1.57,0.23 3.28883,-0.0084 4.79883,0.101563 0.755,0.055 1.62602,0.216562 2.47852,0.257812 0.8525,0.04125 1.68805,-0.03875 2.37304,-0.46875 0.55505,-0.462152 1.0798,-0.9601 1.57032,-1.490234 0.56334,-0.417196 1.10036,-0.867626 1.60937,-1.34961 0.72934,-0.999676 1.19913,-2.164908 1.36914,-3.390625 0.54252,-2.637128 1.26753,-5.232909 2.16993,-7.769531 0.61,-1.57 1.35523,-3.172813 2.30273,-4.632812 0.47375,-0.73 0.99859,-1.423672 1.58203,-2.060547 0.58344,-0.636875 1.22555,-1.216797 1.93555,-1.716797 0.41733,-0.338834 0.88598,-0.602021 1.38476,-0.78125 0.49878,-0.179229 1.02886,-0.275047 1.56641,-0.279297 0.55915,0.06318 1.10986,0.176826 1.64844,0.339844 1.71576,0.276563 3.44641,0.464027 5.18164,0.560547 1.09294,-0.0117 2.16198,0.309074 3.06836,0.919921 0.7996,0.728264 1.52345,1.535884 2.16015,2.410157 0.45667,0.56964 1.04186,1.006677 1.69336,1.285156 0.6515,0.278478 1.37033,0.399491 2.09766,0.335937 1.58087,-0.02545 3.15609,0.192245 4.66992,0.648438 0.62,0.23 1.17906,0.739922 1.78906,0.919922 1.09474,0.137979 2.20722,-0.02998 3.21094,-0.488281 1.11,-0.37 2.23031,-0.771172 3.32031,-1.201172 0.79948,-0.24603 1.52829,-0.677565 2.12891,-1.259766 0.75253,-0.964757 1.42161,-1.992107 2,-3.070312 0.76649,-1.34627 1.45485,-2.733946 2.0625,-4.15625 0.60765,-1.422305 1.13522,-2.878768 1.57812,-4.363282 0.43547,-1.118085 0.70383,-2.294107 0.79883,-3.490234 -0.0284,-0.675457 -0.1278,-1.345937 -0.29883,-2 -0.1375,-0.75 -0.19593,-1.508594 -0.16406,-2.253906 0.0319,-0.745313 0.15305,-1.477579 0.37305,-2.173828 0.22,-0.69625 0.53992,-1.356172 0.9668,-1.958985 0.42687,-0.602812 0.96078,-1.148281 1.61328,-1.613281 0.56935,-0.349573 1.18126,-0.625441 1.82031,-0.820313 1.31,-0.54 2.58109,-0.989062 3.87109,-1.539062 1.21,-0.51 2.52735,-1.087188 3.8711,-1.554688 1.34375,-0.4675 2.71234,-0.826484 4.02734,-0.896484 0.495,-0.025 0.91578,0.06602 1.27734,0.240234 0.36157,0.174219 0.66454,0.432813 0.92579,0.742188 0.5225,0.61875 0.87726,1.44375 1.19726,2.21875 0.62865,1.622122 1.38733,3.190049 2.26953,4.689453 0.67717,0.972472 1.48511,1.846924 2.40039,2.599609 0.80308,0.75343 1.44111,1.665928 1.8711,2.679688 0.41781,1.089927 1.01221,2.103518 1.75976,3 0.60847,0.890805 1.38965,1.649814 2.29883,2.230469 0.38,0.21 0.78094,0.393672 1.11719,0.638672 0.33625,0.244999 0.60937,0.551718 0.73437,1.011718 0.22,0.815 0.0774,1.741953 0.0762,2.626953 -6.3e-4,0.4425 0.033,0.875469 0.16601,1.277344 0.13297,0.401875 0.36531,0.773203 0.75781,1.095703 0.495,0.405 1.08891,0.559453 1.66016,0.751953 0.57125,0.1925 1.11953,0.423516 1.51953,0.978516 0.23841,0.383136 0.38403,0.808567 0.43359,1.246094 0.0496,0.437527 0.002,0.885743 -0.14453,1.3125 -0.26,1.04 -0.36031,2.121093 -0.57031,3.121093 -0.35891,1.267066 -0.58955,2.565787 -0.68945,3.878907 0.0322,0.631915 0.15615,1.252683 0.36328,1.84375 0.20712,0.591067 0.49793,1.154152 0.86719,1.667969 0.3769,0.451641 0.68952,0.951294 0.92968,1.488281 0.16719,0.936288 0.11223,1.899288 -0.16015,2.810547 -0.0867,0.672922 -0.20938,1.340589 -0.36914,2 -0.34089,0.688828 -0.77945,1.325913 -1.30078,1.890625 -0.63268,0.838649 -1.36438,1.597282 -2.17969,2.259765 -1.08126,0.80064 -2.25281,1.471879 -3.49024,2 -1.16768,0.549195 -2.26247,1.241694 -3.25976,2.060547 -1.82025,1.402247 -3.4953,2.982237 -5,4.718747 -1.22707,1.46465 -2.27078,3.07415 -3.10938,4.79102 -0.30352,0.63737 -0.28258,1.38197 0.0586,2 0.22,0.66 0.69,1.18031 1,1.82031 0.21513,0.54394 0.36737,1.11055 0.45117,1.68945 0.105,0.515 0.23953,0.97032 0.26953,1.41407 0.03,0.44375 -0.0444,0.8757 -0.35938,1.3457 -0.78698,1.10076 -1.45726,2.27998 -2,3.51953 -0.2329,0.9207 -0.3173,1.873 -0.25,2.82031 -0.05,0.84 -0.28124,1.54016 -0.28124,2.41016 v 1.69922 c 0.015,0.945 -0.19383,1.87297 -0.45508,2.79297 -0.26125,0.92 -0.57367,1.83304 -0.76368,2.74804 -0.23,1.13 -0.43968,2.2704 -0.67968,3.40039 -0.23505,0.75781 -0.38717,1.53925 -0.45117,2.33008 -0.0109,0.35596 0.0803,0.699 0.2539,0.99414 0.17362,0.29515 0.4297,0.54162 0.7461,0.70508 0.38,0.2 0.82054,0.17039 1.06054,0.65039 0.11403,0.51771 0.0421,1.0583 -0.20117,1.5293 -0.65944,1.5678 -1.48775,3.05294 -2.46875,4.42969 -0.981,1.37675 -2.11429,2.64605 -3.38086,3.78125 -0.86242,0.9029 -1.89088,1.61027 -3.01562,2.09179 -1.12475,0.48153 -2.34515,0.73728 -3.59375,0.73828 -0.85461,0.6682 -1.66591,1.38979 -2.42969,2.16016 -0.81,0.93 -1.34,1.92969 -2,2.92969 -0.66,1 -1.12953,2 -1.76953,3 -0.4,0.61 -0.9418,1.09898 -1.3418,1.70898 -0.395,0.6025 -0.87117,1.14414 -1.4043,1.63477 -0.53312,0.49062 -1.12164,0.93062 -1.74414,1.32812 -1.245,0.795 -2.62164,1.42204 -3.93164,1.95704 -1.30669,0.57138 -2.64559,1.05788 -4.01172,1.45703 -1.36613,0.39915 -2.75919,0.71159 -4.16796,0.93359 -1.8361,0.15201 -3.6829,0.10757 -5.50977,-0.13086 -1.41333,-0.16 -2.8331,-0.30922 -4.25977,-0.44922 -1.53852,-0.0518 -3.07814,0.002 -4.60937,0.16016 -2.13,0.13 -4.25109,0.22015 -6.37109,0.41015 -1.72769,0.17282 -3.43532,0.48519 -5.10743,0.93165 -1.6721,0.44645 -3.30868,1.0269 -4.89257,1.73828 -2.43586,0.96731 -4.81509,2.06979 -7.12891,3.30078 -0.34,0.195 -1.06211,0.54133 -1.75586,0.95508 -0.69375,0.41375 -1.35898,0.89351 -1.58399,1.35351 -0.1796,0.53243 -0.30469,1.08266 -0.37109,1.64063 -0.27,1.18 -0.54898,2.31953 -0.70898,3.51953 -0.09,0.68 -0.24469,1.37875 -0.24219,2.03125 0.003,0.6525 0.16117,1.25976 0.70117,1.75976 l 1.91016,1.84961 c 0.57807,0.5084 1.11282,1.06378 1.59961,1.66016 0.73778,1.197 1.21521,2.53583 1.40039,3.92969 0.24,1.12 0.52054,2.21031 0.81054,3.32031 0.2265,0.596 0.3213,1.23293 0.2793,1.86914 -0.145,0.655 -0.53109,1.26266 -0.99609,1.81641 -0.465,0.55375 -1.00789,1.05414 -1.46289,1.49414 -1.70599,1.78458 -3.62813,3.35009 -5.72071,4.66015 -0.72424,0.45796 -1.51745,0.79566 -2.34961,1 -1.06,0.21 -2.10117,0.16414 -3.13867,0.11914 -1.0375,-0.045 -2.07109,-0.0889 -3.12109,0.1211 -1.62018,0.24402 -3.17653,0.80508 -4.58008,1.65039 -1.7409,1.22343 -3.30859,2.67495 -4.66016,4.31836 -0.84,1.015 -1.61468,2.23164 -2.05468,3.52539 -0.22,0.64687 -0.35625,1.31328 -0.375,1.98437 -0.0188,0.6711 0.0801,1.34672 0.33007,2.01172 0.62001,1.66 1.09915,3.31 1.61915,5 0.32405,1.06992 0.81868,2.07255 1.45703,2.97266 0.63835,0.9001 1.41971,1.69776 2.32226,2.35742 2.09,1.57 4.24141,3.11937 6.19141,4.85937 0.535,0.5 1.03359,1.07383 1.55859,1.61133 0.525,0.5375 1.07594,1.03867 1.71094,1.38867 0.315,0.185 0.75992,0.34969 1.10742,0.58594 0.3475,0.23625 0.59844,0.54367 0.52344,1.01367 -0.25969,0.75601 -0.61652,1.47593 -1.06055,2.14063 -0.45769,0.79753 -0.83871,1.63445 -1.13672,2.5 -0.298,0.86555 -0.51424,1.75967 -0.64453,2.66992 -0.11,1.05 -0.30992,2.05914 -0.41992,3.11914 -0.17,1.6 -0.78906,3.11047 -0.78906,4.73047 -0.002,0.605 -0.15899,1.18391 -0.41992,1.73047 -0.26094,0.54656 -0.62703,1.06031 -1.05078,1.53906 -0.84751,0.9575 -1.92461,1.77039 -2.84961,2.40039 -0.88928,0.66391 -1.91333,1.12434 -3,1.34961 -1.55473,0.10995 -3.1152,0.10995 -4.66993,0 -1.94759,-0.0218 -3.87757,0.24088 -5.73046,0.77149 -1.8529,0.5306 -3.62871,1.32948 -5.26954,2.3789 -1.00254,0.58338 -1.93071,1.27819 -2.76953,2.06836 -0.83882,0.79017 -1.5883,1.67664 -2.23047,2.64258 -0.38628,0.85859 -0.61322,1.77898 -0.66992,2.71875 -0.31,1.79 -0.81,3.53133 -1,5.36133 -0.14539,1.43017 -0.0945,2.87254 0.15039,4.28906 0.3676,1.89681 0.46123,3.83624 0.2793,5.75977 -0.0413,1.34661 -0.21186,2.68611 -0.50977,4 -0.61268,1.18225 -1.44326,2.23694 -2.44922,3.10937 -0.98,0.99 -2.14062,1.82172 -3.14062,2.76172 -0.78,0.75 -1.38922,1.68922 -2.19922,2.44922 -1.25993,1.12059 -2.61937,2.12469 -4.06055,3 l -1.91992,0.7793 c -1.085,0.74 -2.12234,1.61226 -3.21484,2.38476 -1.0925,0.7725 -2.23992,1.44516 -3.54492,1.78516 -1.01407,0.28647 -2.0463,0.50403 -3.08985,0.65039 -1.39,0.16 -2.82093,-0.0395 -4.21093,0.0605 -1.58983,-0.0126 -3.17309,0.18886 -4.70899,0.59961 -0.8265,0.33243 -1.61705,0.74694 -2.35742,1.23438 -0.74037,0.48744 -1.43048,1.04796 -2.0625,1.67578 -0.6607,0.72583 -1.20325,1.5436 -1.61133,2.42383 -0.40808,0.88023 -0.68159,1.82362 -0.80859,2.79687 -0.18,1.67 0.33984,3.40961 0.33984,5.09961 0,1.985 -0.25,3.92383 -0.5,5.86133 -0.25,1.9375 -0.5,3.87266 -0.5,5.84766 -0.0125,1.1375 -0.18469,2.21523 -0.47656,3.24414 -0.29188,1.0289 -0.70477,2.00945 -1.19727,2.95508 -0.985,1.89125 -2.29242,3.64156 -3.60742,5.35156 -1.51,2 -2.91992,4 -4.41992,6 -0.75021,0.91493 -1.36681,1.92466 -1.83789,2.99804 -0.47108,1.07339 -0.79545,2.21127 -0.96094,3.38282 -0.23,1.57 -0.4514,3.04836 -0.6914,4.56836 -0.34787,1.57052 -0.53912,3.17297 -0.57032,4.78125 0.08,1.075 0.32938,2.03484 0.45313,2.99609 0.12375,0.96125 0.12203,1.92391 -0.29297,3.00391 -0.86462,1.88157 -1.62809,3.80713 -2.28906,5.76953 -0.35542,1.50199 -0.55295,3.03705 -0.58985,4.58008 -0.09,1.565 -0.12718,3.21273 -0.30469,4.83398 -0.1775,1.62125 -0.49648,3.21578 -1.14648,4.67578 -0.85943,1.65837 -1.90202,3.21545 -3.10937,4.64063 -1.48551,2.14426 -3.15877,4.15217 -5,6 -0.685,0.645 -1.63649,1.6289 -2.67774,2.4414 -0.52062,0.40625 -1.06476,0.76946 -1.60742,1.02539 -0.54266,0.25594 -1.08547,0.40532 -1.60547,0.38282 -0.96,-0.065 -1.83602,-0.37961 -2.66602,-0.78711 -0.82999,-0.4075 -1.61281,-0.90875 -2.38281,-1.34375 -1.54,-0.87 -3.15976,-1.55836 -4.75976,-2.31836 -1.98079,-0.93984 -3.85473,-2.09141 -5.58985,-3.43164 -0.5925,-0.4575 -0.99054,-0.89993 -1.24414,-1.34961 -0.25359,-0.44969 -0.36344,-0.90547 -0.38281,-1.38672 -0.0387,-0.9625 0.28664,-2.02852 0.55664,-3.35352 0.1475,-0.745 0.19844,-1.41789 0.17188,-2.04883 -0.0266,-0.63093 -0.13118,-1.21867 -0.29493,-1.79492 -0.3275,-1.1525 -0.89187,-2.25492 -1.54687,-3.54492 -0.615,-1.205 -0.92242,-2.38359 -1.07617,-3.58984 -0.15375,-1.20625 -0.1543,-2.44172 -0.1543,-3.76172 0.0606,-1.34146 0.0366,-2.68359 -0.0703,-4.01953 -0.10688,-1.33594 -0.29726,-2.6657 -0.57031,-3.98047 -0.21501,-0.8475 -0.56907,-1.54281 -1.02735,-2.11719 -0.45828,-0.57437 -1.01976,-1.02617 -1.65039,-1.38867 -1.26125,-0.725 -2.79727,-1.08898 -4.32226,-1.33398 -1.65,-0.27 -3.30594,-0.34024 -4.89844,-0.61524 -0.79625,-0.1375 -1.57735,-0.32461 -2.33203,-0.61523 -0.75469,-0.29063 -1.48469,-0.68352 -2.17969,-1.22852 -1.80766,-1.47801 -3.51416,-3.07614 -5.10938,-4.78125 -0.91,-0.935 -1.39539,-1.90086 -1.68164,-2.94336 -0.28625,-1.0425 -0.37328,-2.16148 -0.48828,-3.39648 -0.13,-1.39 -0.54578,-2.67344 -1.11328,-3.89844 -0.5675,-1.225 -1.28734,-2.39102 -2.02734,-3.54102 -0.37,-0.58 -0.81703,-1.33437 -1.36328,-1.98437 -0.54625,-0.65 -1.19008,-1.19547 -1.95508,-1.35547 -1.03007,-0.0876 -2.06858,-0.0576 -3.0918,0.0898 -2.86,0.22 -5.81891,0.47102 -8.75391,0.41602 -1.4675,-0.0275 -2.92976,-0.13164 -4.36914,-0.35352 -1.43937,-0.22187 -2.85632,-0.5625 -4.23632,-1.0625 -2.64364,-0.98454 -5.1965,-2.18423 -7.63477,-3.58398 -2.43827,-1.39975 -4.76203,-2.99869 -6.94531,-4.78516 -1.205,-0.98 -2.42297,-2.15554 -3.73047,-3.18554 -0.65375,-0.515 -1.32867,-0.99454 -2.03711,-1.39454 -0.70844,-0.39999 -1.44992,-0.71992 -2.23242,-0.91992 -0.98377,-0.22436 -1.98237,-0.36135 -2.98633,-0.4082 -1.00396,-0.0469 -2.01329,-0.005 -3.01367,0.12695 -0.89706,-0.0276 -1.78967,0.12337 -2.62891,0.44141 -0.76,0.43 -1.38555,1.29453 -1.87305,2.23828 -0.4875,0.94375 -0.83687,1.96594 -1.04687,2.71094 -0.21,0.745 -0.26508,1.54203 -0.39258,2.30078 -0.1275,0.75875 -0.32812,1.47836 -0.82812,2.06836 -0.85773,0.91786 -1.82316,1.72065 -2.87305,2.39258 -1.04989,0.67192 -2.18422,1.21299 -3.37695,1.60742 -1.415,0.475 -2.9143,0.6614 -4.43555,0.7539 -1.52125,0.0925 -3.06445,0.0923 -4.56445,0.19727 -2.11346,0.2065 -4.23888,0.25198 -6.35938,0.13867 -2.47,-0.2 -4.93992,-0.44836 -7.41992,-0.56836 -0.91552,-0.11518 -1.83623,-0.0437 -2.70703,0.20118 -0.87081,0.24491 -1.6928,0.66275 -2.41406,1.23828 -1.1205,1.01178 -2.13159,2.13245 -3.01954,3.34375 -0.88794,1.21129 -1.65158,2.51369 -2.27929,3.88671 -0.47,0.95001 -0.86188,2.00922 -1.42188,2.94922 -1.41,2.36 -3.22898,4.42016 -4.45898,6.91016 -0.4675,0.9475 -0.84383,1.94227 -1.14649,2.9668 -0.30265,1.02453 -0.53195,2.0789 -0.70507,3.14453 -0.34625,2.13125 -0.46782,4.30867 -0.50782,6.38867 -0.035,1.895 0.13727,3.77945 0.38477,5.6582 0.2475,1.87875 0.56898,3.7511 0.83398,5.6211 0.11,0.785 0.16016,1.73351 0.25391,2.66601 0.0937,0.9325 0.23258,1.84922 0.51758,2.57422 0.15656,0.53858 0.4208,1.03235 0.77344,1.45313 0.35263,0.42077 0.79201,0.76924 1.29492,1.01757 1.21801,0.48485 2.39661,1.06696 3.52148,1.74024 0.78,0.585 1.37422,1.24297 1.83594,1.95703 0.46172,0.71406 0.78969,1.48422 1.03906,2.29297 0.49875,1.6175 0.67985,3.38969 0.96484,5.17969 0.35,2.05 0.71133,4.07023 1.26758,6.02148 0.55625,1.95125 1.30664,3.83242 2.43164,5.60742 0.26,0.405 0.64508,0.9 0.95508,1.40625 0.31,0.50625 0.54586,1.02461 0.50586,1.47461 -0.04,0.45 -0.21094,0.75227 -0.46094,1.00977 -0.25,0.2575 -0.57945,0.47023 -0.93945,0.74023 -1.05,0.78 -2.08086,1.49008 -3.13086,2.33008 -0.525,0.42 -1.29664,0.96695 -1.99414,1.56445 -0.6975,0.5975 -1.31992,1.24524 -1.54492,1.86524 -0.165,0.46 -0.31609,0.83789 -0.30859,1.18164 0.007,0.34375 0.17367,0.65351 0.63867,0.97851 0.86666,0.44446 1.76538,0.82308 2.68945,1.13086 0.615,0.295 1.455,0.55196 2,0.93946 0.2725,0.19375 0.47125,0.41953 0.53125,0.69922 0.06,0.27968 -0.0183,0.61398 -0.30078,1.02148 -0.7775,1.1225 -1.66852,2.15344 -2.62695,3.12891 -0.95844,0.97546 -1.98446,1.89414 -3.03321,2.79101 -2.0975,1.79375 -4.28617,3.49867 -6.20117,5.38867 -1.22157,1.39529 -2.23229,2.96229 -3,4.65039 -1.69,3.04 -3.81008,5.82032 -5.58008,8.82032 -0.83486,1.23037 -1.52462,2.55177 -2.05859,3.93945 -0.0587,0.37022 -0.16013,0.73263 -0.30078,1.08008 -0.39377,0.57221 -0.8653,1.08835 -1.40039,1.53125 -0.76,0.81 -1.40016,1.73859 -2.16016,2.55859 -1.84,1.97 -4.21875,3.52961 -6.21875,5.34961 -0.3,0.275 -0.88016,0.80156 -1.31641,1.38281 -0.21812,0.29063 -0.40085,0.59414 -0.49414,0.88867 -0.0933,0.29454 -0.0965,0.58008 0.041,0.83008 0.15,0.28 0.35367,0.34946 0.48242,0.43946 0.12875,0.09 0.18234,0.20054 0.0273,0.56054 -0.17,0.4 -1.21054,0.58946 -1.56054,0.68946 -2.09774,0.58746 -4.25404,0.94041 -6.42969,1.05078 -2.38,0.11 -4.72961,0.45914 -7.09961,0.61914 -1.095,0.07 -2.24898,0.002 -3.39648,-0.0312 -1.1475,-0.0337 -2.29024,-0.0331 -3.36524,0.17187 -1.28,0.25 -2.56914,0.54852 -3.86914,0.72852 -1.74231,0.11859 -3.49197,-0.0292 -5.18945,-0.43945 -3.91352,-0.61367 -7.86118,-0.98685 -11.82031,-1.11915 -2.015,-0.105 -4.02539,-0.26398 -5.99414,-0.61523 -1.96875,-0.35125 -3.8961,-0.89539 -5.7461,-1.77539 -0.91,-0.43 -1.70555,-0.84008 -2.5293,-1.14258 -0.82374,-0.3025 -1.67617,-0.49804 -2.70117,-0.49804 -0.735,-0.015 -1.63679,0.12 -2.52929,0.15624 -0.8925,0.0362 -1.77571,-0.0255 -2.47071,-0.43554 -1.06682,-0.82182 -2.00326,-1.79981 -2.77929,-2.90039 -2.02381,-2.32894 -3.91962,-4.76468 -5.67969,-7.29883 -0.86,-1.25 -1.62242,-2.56281 -2.41992,-3.85156 -0.7975,-1.28875 -1.63086,-2.55399 -2.63086,-3.70899 -0.39327,-0.55341 -0.87384,-1.03276 -1.41992,-1.41992 -0.54609,-0.38716 -1.15817,-0.68316 -1.81055,-0.87109 -1.15,-0.27 -2.3818,-0.36461 -3.62305,-0.41211 -1.24125,-0.0475 -2.49078,-0.047 -3.67578,-0.12696 -0.5925,-0.04 -1.12023,-0.17 -1.60351,-0.36718 -0.48329,-0.19719 -0.92172,-0.46133 -1.33985,-0.76758 -0.83625,-0.6125 -1.58773,-1.39625 -2.42773,-2.15625 -1.12,-1.01 -2.3018,-1.77711 -3.5293,-2.47461 -1.2275,-0.6975 -2.50078,-1.32469 -3.80078,-2.05469 -0.94,-0.545 -1.72,-1.29445 -2.5,-2.0332 -0.78,-0.73875 -1.56,-1.4668 -2.5,-1.9668 -0.89703,-0.399 -1.8412,-0.66247 -2.80469,-0.78711 -0.96349,-0.12464 -1.94504,-0.11069 -2.91406,0.0469 -1.40133,-0.0371 -2.80481,0.007 -4.20117,0.13086 -1.66638,0.50404 -3.29825,1.11221 -4.88868,1.82031 -0.58499,0.2 -1.09125,0.39726 -1.59374,0.47852 -0.5025,0.0813 -1.00118,0.0462 -1.57618,-0.21876 -0.57501,-0.28861 -1.1711,-0.53614 -1.78125,-0.74023 -1.65,-0.53 -3.55914,-0.43031 -5.11914,-1.07031 -0.78,-0.32 -1.29453,-0.81274 -1.70703,-1.39649 -0.4125,-0.58375 -0.72375,-1.25836 -1.09375,-1.94336 -0.7655,-1.34087 -1.64104,-2.61586 -2.61914,-3.81054 -1.23,-1.54 -1.77,-3.43992 -3,-4.91992 -0.615,-0.74 -1.4,-1.43641 -2.15625,-2.16016 -0.75625,-0.72375 -1.48437,-1.47531 -1.98437,-2.32031 -0.275,-0.4725 -0.37008,-0.95477 -0.33789,-1.43164 0.0322,-0.47688 0.19093,-0.94844 0.42968,-1.39844 0.4775,-0.9 1.26875,-1.71336 1.96875,-2.31836 1.27,-1.1 2.75274,-1.93813 4.20899,-2.79688 1.45625,-0.85875 2.88578,-1.73882 4.05078,-2.92382 0.66658,-0.7293 1.25999,-1.51245 1.77734,-2.33985 0.51735,-0.8274 0.95911,-1.69836 1.31836,-2.60156 0.35925,-0.9032 0.63585,-1.84018 0.82813,-2.79687 0.19227,-0.9567 0.29998,-1.93399 0.3164,-2.92188 0.054,-3.26857 -0.0413,-6.53629 -0.2832,-9.79297 -0.24192,-3.25668 -0.63165,-6.50185 -1.16797,-9.72656 -0.1671,-1.3313 -0.44003,-2.6411 -0.81445,-3.91602 -0.37442,-1.27492 -0.84923,-2.51552 -1.41992,-3.71093 -0.5707,-1.19542 -1.23626,-2.34472 -1.99219,-3.4375 -0.75593,-1.09279 -1.60309,-2.12867 -2.5332,-3.09571 -0.61001,-0.62 -1.22321,-1.11672 -1.84961,-1.52734 -0.62641,-0.41063 -1.26461,-0.73477 -1.92774,-1.00977 -1.32625,-0.55 -2.7468,-0.90351 -4.3418,-1.35351 -1.53376,-0.4333 -3.03205,-0.98534 -4.48046,-1.65039 -0.76618,-0.36178 -1.57024,-0.62704 -2.39454,-0.79492 -0.82429,-0.16789 -1.66898,-0.23838 -2.51562,-0.20508 -1.30274,0.0215 -2.59935,0.15037 -3.87695,0.38281 -1.27761,0.23244 -2.53488,0.5691 -3.76172,1.00781 -1.23,0.4 -2.63055,0.49 -3.81055,1 -1.18,0.51 -2.31117,1.14047 -3.45117,1.73047 -0.9525,0.4825 -1.9525,0.945 -2.98438,1.34375 -1.03187,0.39875 -2.09492,0.73258 -3.16992,0.95508 -1.075,0.2225 -2.16226,0.33531 -3.24414,0.28906 -1.08187,-0.0462 -2.15844,-0.2507 -3.21094,-0.6582 -1.4721,-0.64483 -2.82451,-1.5349 -4,-2.63086 -0.615,-0.5 -1.17054,-1.13899 -1.77929,-1.70899 -0.60875,-0.57 -1.26961,-1.07101 -2.09961,-1.29101 -0.64,-0.17 -1.35516,-0.19188 -2.03516,-0.29688 -0.68,-0.105 -1.32617,-0.29296 -1.82617,-0.79296 -0.37902,-0.49801 -0.67791,-1.04721 -0.88867,-1.62891 -0.21076,-0.5817 -0.33338,-1.19511 -0.36133,-1.82031 -0.14,-1.33 -0.0511,-2.58508 0.18359,-3.79493 0.23469,-1.20984 0.61485,-2.37546 1.0586,-3.52734 0.8875,-2.30375 2.02781,-4.55305 2.75781,-6.99805 0.165,-0.545 0.45297,-1.37937 0.57422,-2.20312 0.0606,-0.41188 0.0801,-0.82086 0.0215,-1.18945 C 129.38672,341.57867 129.25,341.25 129,341 c -0.33,-0.345 -0.72055,-0.5643 -1.0918,-0.81055 -0.37125,-0.24625 -0.72351,-0.51875 -0.97851,-0.96875 -0.35,-0.65 -0.38219,-1.4039 -0.39844,-2.1914 -0.0162,-0.7875 -0.0158,-1.60844 -0.30078,-2.39844 -0.285,-0.79 -0.88609,-1.41156 -1.58985,-1.91406 -0.70375,-0.5025 -1.51093,-0.88703 -2.21093,-1.20703 -2.3,-1 -4.64922,-2 -6.94922,-3 -2.91975,-1.19324 -5.74838,-2.59939 -8.46094,-4.20899 -0.6,-0.385 -1.23687,-0.78539 -1.76562,-1.27539 -0.52875,-0.49 -0.94829,-1.06945 -1.11329,-1.81445 -0.14249,-0.645 -0.071,-1.23891 0.13477,-1.79688 0.20578,-0.55797 0.54438,-1.08015 0.9375,-1.58203 0.78625,-1.00375 1.78742,-1.92758 2.35742,-2.89258 0.87999,-1.51411 1.5302,-3.13806 1.93946,-4.82226 0.40926,-1.6842 0.57725,-3.42865 0.49023,-5.17774 -0.095,-1.525 -0.15211,-2.99226 -0.56836,-4.25976 -0.20812,-0.63375 -0.50633,-1.21649 -0.94336,-1.73242 -0.43703,-0.51594 -1.01234,-0.96563 -1.77734,-1.32813 -1.3219,-0.56381 -2.73621,-0.88482 -4.17188,-0.94922 -0.62,-0.06 -1.23336,-0.0754 -1.81836,-0.18164 -0.585,-0.10625 -1.140622,-0.30351 -1.640622,-0.72851 -0.38,-0.325 -0.668047,-0.62196 -0.998047,-0.84571 -0.33,-0.22375 -0.701953,-0.37429 -1.251953,-0.40429 -1.278679,0.0411 -2.542263,0.29126 -3.740234,0.74023 -0.675,0.19 -1.343047,0.37828 -1.966797,0.36328 -0.62375,-0.015 -1.203125,-0.23351 -1.703125,-0.85351 -0.373087,-0.56671 -0.855841,-1.05264 -1.419922,-1.42969 -0.795089,-0.58798 -1.650567,-1.09074 -2.550781,-1.5 -1.161064,-0.2692 -2.30587,-0.60305 -3.429688,-1 -0.83,-0.4 -1.550156,-0.98031 -2.410156,-1.32031 -0.654252,-0.21289 -1.322535,-0.37996 -2,-0.5 -0.97344,-0.15079 -1.903236,-0.47282 -2.75,-0.94532 -0.846764,-0.47249 -1.610495,-1.09451 -2.25,-1.84375 -0.195,-0.245 -0.478516,-0.56609 -0.697266,-0.90234 -0.21875,-0.33625 -0.372734,-0.68805 -0.302734,-0.99805 0.07,-0.31 0.373906,-0.58992 0.722656,-0.82617 0.34875,-0.23625 0.743047,-0.42945 0.998047,-0.56445 0.796791,-0.35122 1.54041,-0.80436 2.212891,-1.34571 0.67248,-0.54134 1.273823,-1.16965 1.787109,-1.87304 0.549665,-0.92501 0.928142,-1.94109 1.119141,-3 0.08508,-0.69633 0.0176,-1.40315 -0.199219,-2.07032 -0.355,-1.83999 -0.444063,-3.85726 -0.820312,-5.75976 -0.188125,-0.95125 -0.449454,-1.87523 -0.84961,-2.73242 -0.400156,-0.85719 -0.939453,-1.64789 -1.689453,-2.33789 -0.96,-0.915 -2.210703,-1.50141 -3.220703,-2.25391 -0.505,-0.37625 -0.950781,-0.79422 -1.269531,-1.31641 -0.31875,-0.52218 -0.509766,-1.14695 -0.509766,-1.93945 -0.04664,-1.60756 0.09423,-3.21609 0.419922,-4.79101 0.22,-1.2 0.72,-2.29954 1,-3.51954 0.305,-1.28 0.537109,-2.52929 0.568359,-3.77929 0.03125,-1.25 -0.138672,-2.50125 -0.638672,-3.78125 -0.446685,-1.1515 -1.028576,-2.24094 -1.728515,-3.24805 -0.699939,-1.00711 -1.517848,-1.93188 -2.441407,-2.75195 v -1.66016 c -0.799999,-1.25 -1.450937,-2.55031 -2.210937,-3.82031 -0.714369,-1.08316 -1.582968,-2.04589 -2.572266,-2.86328 -0.989297,-0.81739 -2.098433,-1.48906 -3.296875,-1.98633 -1.350644,-0.56291 -2.655092,-1.23166 -3.90039,-2 -0.97664,-0.6216 -2.008591,-1.14384 -3.082032,-1.5625 -1.07344,-0.41866 -2.188524,-0.73374 -3.328124,-0.9375 -1.765001,-0.35 -3.547422,-0.37117 -5.326172,-0.38867 -1.77875,-0.0175 -3.552735,-0.0313 -5.302735,-0.36133 -1.450976,-0.25095 -2.805167,-0.82975 -3.96875,-1.66992 -1.163582,-0.84018 -2.137338,-1.94189 -2.832031,-3.24024 -0.675,-1.095 -1.267031,-2.23531 -1.894531,-3.35156 -0.6275,-1.11625 -1.290469,-2.20703 -2.105469,-3.20703 -0.883966,-0.86434 -1.606288,-1.88049 -2.130859,-3 -0.39,-1.13 -0.248907,-2.24031 -0.878907,-3.32031 -0.242333,-0.34943 -0.437438,-0.73026 -0.580078,-1.13086 -0.09,-0.63 -0.209375,-1.25891 -0.359375,-1.87891 -0.142994,-0.42537 -0.551848,-0.70504 -1,-0.68164 -1.03,-0.42 -2.30039,-0.11851 -3.40039,-0.47852 -1.1231,-0.43415 -2.180619,-1.0232 -3.140625,-1.75 -1.04,-0.75 -2.070157,-1.36 -3.160157,-2 -1.662105,-0.97426 -3.2296886,-2.09371 -4.6855465,-3.34374 -1.4558579,-1.25004 -2.7992088,-2.63134 -4.0136719,-4.12696 -0.365,-0.45 -0.61125,-0.87023 -0.7578125,-1.2793 -0.1465625,-0.40906 -0.1947656,-0.80718 -0.1660156,-1.21093 0.0575,-0.8075 0.4238281,-1.64063 0.9238281,-2.64063 1.11,-2.27 2.5296875,-4.41969 3.6796875,-6.67968 0.6503684,-1.06819 1.1857071,-2.1981 1.5996094,-3.3711 0.4139023,-1.173 0.7070712,-2.3891 0.8710935,-3.6289 -0.1113499,-1.40582 -0.3195915,-2.80208 -0.6210935,-4.17969 -0.26,-1.24 -0.510625,-2.52024 -0.890625,-3.74024 -0.4863552,-1.267 -1.1605679,-2.45314 -2,-3.51953 -0.3422614,-0.56812 -0.7437888,-1.09791 -1.1992187,-1.58008 -0.8071756,-0.63615 -1.4859161,-1.42063 -2,-2.31054 -0.5700001,-1.15 -0.7803125,-2.53985 -1.5703126,-3.58985 -0.2999999,-0.4 -0.60875,-0.7139 -0.84374995,-1.0664 -0.235,-0.3525 -0.39648437,-0.74297 -0.39648437,-1.29297 0.1673771,-1.22278 0.62333972,-2.38859 1.33007812,-3.40039 0.8115679,-1.39358 1.8811554,-2.59917 3.1367188,-3.5625 1.2555633,-0.96334 2.6977276,-1.68434 4.2539062,-2.10742 1.053907,-0.2379 2.122413,-0.40184 3.199219,-0.49024 0.609656,-0.16017 1.251672,-0.16017 1.861328,0 0.41,0.2 0.939062,0.71992 1.289062,0.91992 1.22,0.71 2.489922,1.27055 3.669922,2.06055 0.708971,0.49642 1.46702,0.9148 2.259766,1.25 0.792746,0.3352 1.620658,0.58722 2.470703,0.75 1.070581,0.2516 2.173693,0.33283 3.269531,0.24023 0.815,-0.125 1.752578,-0.5975 2.642578,-1.15625 0.89,-0.55875 1.732422,-1.20382 2.357422,-1.67382 0.982146,-0.68745 1.841944,-1.53586 2.541016,-2.50977 0.674607,-1.16482 1.457956,-2.26431 2.339844,-3.28125 0.745,-0.76 1.671718,-1.65437 2.699218,-2.35937 0.51375,-0.3525 1.052032,-0.65813 1.605469,-0.875 0.553438,-0.21688 1.122813,-0.34571 1.695313,-0.34571 0.717753,0.075 1.412557,0.27162 2.05664,0.57422 0.644083,0.3026 1.237993,0.71219 1.753907,1.2168 1.319999,1.02 2.209921,2.40906 3.419921,3.53906 0.59,0.55 0.986641,1.05031 1.251953,1.48828 0.265313,0.43797 0.398282,0.81422 0.457032,1.1211 0.1175,0.61375 -0.06055,0.94687 -0.06055,0.92187 0,-0.05 -0.86,2.53938 -1,2.60938 -1.011195,0.55359 -1.976155,1.18614 -2.888672,1.89062 -1.432294,1.15394 -2.800417,2.38358 -4.095703,3.68555 -1.295286,1.30196 -2.5175,2.67507 -3.664063,4.11328 -0.975041,1.13934 -1.821728,2.38461 -2.521484,3.71094 -0.110081,0.42634 -0.110081,0.87444 0,1.30078 0,0.53 -0.169922,1.05984 -0.169922,1.58984 -0.005,0.855 0.389688,1.59867 0.898438,2.29492 0.50875,0.69625 1.132031,1.34391 1.582031,2.00391 0.14,0.205 0.304219,0.51469 0.511719,0.77344 0.2075,0.25875 0.457578,0.46679 0.767578,0.46679 0.428265,-0.14362 0.840941,-0.33183 1.230469,-0.56054 0.9,-0.49 1.670781,-1.2293 2.550781,-1.7793 0.839329,-0.5907 1.759044,-1.05937 2.730469,-1.39062 1.260021,-0.22515 2.548572,-0.22516 3.808593,0 1.02,0.09 2.271172,-0.0402 3.201172,0.0898 0.465,0.065 0.75875,0.15891 0.9375,0.34766 0.17875,0.18874 0.242188,0.47382 0.242188,0.92382 -0.05,1 -0.195704,2 -0.283203,3 -0.0875,1 -0.1175,2 0.0625,3 0.195835,0.92612 0.533121,1.81522 1,2.63868 0.756484,1.38608 1.32919,2.86574 1.701171,4.40039 0.275,1.195 0.478672,2.51304 0.857422,3.74804 0.189375,0.6175 0.421797,1.215 0.728516,1.76563 0.306719,0.55062 0.688828,1.05383 1.173828,1.48633 0.544421,0.48533 1.186366,0.83147 1.871094,1.02148 0.684727,0.19001 1.412236,0.22328 2.128906,0.0879 1.112565,-0.10082 2.205668,-0.32925 3.257813,-0.68164 1.052144,-0.35239 2.062862,-0.82836 3.011718,-1.41797 1.179915,-0.73671 2.318467,-1.53832 3.410156,-2.40039 0.941107,-0.54749 2.010843,-0.83408 3.09961,-0.83008 1.804708,-0.0577 3.605097,-0.2196 5.390625,-0.48828 0.457696,-0.16111 0.867736,-0.41874 1.208984,-0.74805 0.341248,-0.3293 0.613704,-0.73192 0.791016,-1.18359 0.3,-0.535 0.656172,-1.14375 0.919922,-1.78125 0.26375,-0.6375 0.434375,-1.30227 0.359375,-1.94727 -0.04,-0.38999 -0.220703,-0.73085 -0.220703,-1.13085 -0.04,-0.7 0.220703,-1.41891 0.220703,-2.12891 0.09271,-1.47275 0.0257,-2.94834 -0.197266,-4.39844 -0.222962,-1.45009 -0.601952,-2.87508 -1.132812,-4.25195 -0.453079,-0.80035 -0.847137,-1.63277 -1.179688,-2.49024 -0.06936,-0.42666 -0.04214,-0.85729 0.07227,-1.26367 0.114401,-0.40638 0.315896,-0.78936 0.597656,-1.11718 1.288009,-1.93273 2.425117,-3.96242 3.400391,-6.07032 0.177404,-0.84924 0.404148,-1.68711 0.679687,-2.50976 0.545,-0.95 1.384453,-1.8618 1.970703,-2.8418 0.293125,-0.49 0.523438,-0.99633 0.621094,-1.5332 0.09766,-0.53688 0.06312,-1.10485 -0.171875,-1.71485 -0.51,-1.305 -1.442188,-2.40258 -2.398438,-3.48633 -0.956249,-1.08374 -1.936015,-2.15234 -2.541015,-3.40234 -0.851087,-1.56053 -1.442167,-3.24933 -1.75,-5 -0.055,-0.53 -0.07516,-1.23039 0.02734,-1.90039 0.1025,-0.67 0.326718,-1.3107 0.761718,-1.7207 0.435,-0.41 1.047344,-0.65688 1.683594,-0.85938 0.63625,-0.2025 1.296172,-0.35984 1.826172,-0.58984 0.87,-0.39 1.730312,-0.81977 2.570313,-1.25977 1.5,-0.81 3.019999,-1.68031 4.5,-2.57031 0.86948,-0.37302 1.602404,-1.00561 2.099609,-1.81055 0.18,-0.36 0.341484,-0.73961 0.521484,-1.09961 0.18,-0.36 0.47125,-0.78867 0.71875,-1.23242 0.2475,-0.44375 0.451172,-0.90312 0.451172,-1.32812 0,-0.555 -0.278203,-0.92625 -0.533203,-1.3125 -0.255,-0.38625 -0.488438,-0.78649 -0.398438,-1.39649 0.09,-0.67 0.470704,-1.33 0.470704,-2 0.05,-0.475 -0.04016,-0.78648 -0.222657,-1.05273 -0.1825,-0.26625 -0.457343,-0.48711 -0.777343,-0.78711 -0.805,-0.775 -1.559297,-1.6125 -2.341797,-2.40625 -0.7825,-0.79375 -1.592813,-1.54453 -2.507813,-2.14453 -1.83,-1.2 -3.949531,-1.75 -5.769531,-3.000002 -0.71,-0.48 -1.400078,-1.171015 -2.080078,-1.541016 -0.68,-0.37 -1.469922,-0.64 -2.169922,-1 -1.225,-0.62 -2.234688,-1.434218 -3.148437,-2.355468 -0.91375,-0.92125 -1.732266,-1.949141 -2.572266,-2.994141 -0.68,-0.845 -1.50586,-1.71 -2.25586,-2.625 -0.75,-0.915 -1.424687,-1.878828 -1.804687,-2.923828 -0.229367,-0.424321 -0.229367,-0.937007 0,-1.361328 0.1925,-0.3425 0.464844,-0.588906 0.785156,-0.765625 0.320313,-0.176719 0.689922,-0.283281 1.076172,-0.347656 0.7725,-0.12875 1.614297,-0.08594 2.279297,-0.08594 0.852921,-0.04028 1.686065,0.138749 2.429688,0.501953 0.743622,0.363205 1.398037,0.909959 1.890624,1.607422 0.365065,0.50318 0.832112,0.913265 1.363282,1.207031 0.531169,0.293767 1.125836,0.471917 1.746094,0.513672 1.035819,0.02276 2.068985,-0.05739 3.083984,-0.238281 1.014999,-0.180891 2.012378,-0.4626 2.976562,-0.841797 1.075,-0.345 2.405235,-0.710078 3.615235,-1.267578 0.605,-0.27875 1.179609,-0.605391 1.677734,-1.001953 0.498128,-0.396531 0.9193,-0.86239 1.2168,-1.41989 0.540234,-1.103238 0.800976,-2.323065 0.759766,-3.550781 0.005,-1.23 -0.258828,-2.452578 -0.830078,-3.455078 -0.285625,-0.50125 -0.648516,-0.947813 -1.091797,-1.3125 C 96.394609,74.207578 95.869766,73.925 95.259766,73.75 c -1.22,-0.35 -2.51461,-0.458438 -3.78711,-0.648438 -1.2725,-0.189999 -2.522344,-0.460624 -3.652344,-1.140624 -0.619802,-0.412467 -1.144527,-0.940044 -1.550781,-1.546876 -0.406254,-0.606831 -0.694662,-1.293228 -0.839843,-2.023437 -0.421303,-1.693633 -0.934475,-3.362819 -1.539063,-5 -0.53,-1.225 -1.282734,-2.3875 -1.833984,-3.59375 -0.275625,-0.603125 -0.501016,-1.217188 -0.623047,-1.855469 -0.122032,-0.638281 -0.141407,-1.301953 -0.0039,-2.001953 0.08,-0.42 0.228281,-1.011484 0.488281,-1.490234 0.26,-0.47875 0.632109,-0.843594 1.162109,-0.808594 0.331394,0.134102 0.641274,0.315097 0.919922,0.539063 1.53,0.999999 2.949766,2.250312 4.259766,3.320312 0.655,0.535 1.503359,1.140859 2.412109,1.537109 0.454375,0.198125 0.923984,0.343438 1.392578,0.402344 0.468594,0.05891 0.934766,0.03086 1.384766,-0.119141 0.678404,-0.284435 1.298798,-0.692371 1.830078,-1.201171 l 3.351562,-2.738282 c 1.155,-0.945 2.367345,-1.918906 3.496095,-2.972656 1.12875,-1.05375 2.17219,-2.188984 2.99219,-3.458984 0.36,-0.565 0.54992,-0.904375 0.60742,-1.234375 0.0575,-0.33 -0.0175,-0.650782 -0.1875,-1.175782 -0.315,-0.96 -0.24968,-1.95875 -0.14844,-2.96875 0.10125,-1.009999 0.24032,-2.03125 0.0703,-3.03125 -0.05,-0.27 -0.0186,-0.586562 -0.0273,-0.882812 -0.009,-0.29625 -0.0584,-0.570859 -0.27343,-0.755859 -0.40333,-0.421919 -0.67103,-0.955938 -0.76954,-1.53125 -0.4,-1.39 -0.0804,-2.85 -0.40039,-3 -0.20623,-0.137826 -0.37996,-0.317923 -0.50976,-0.529297 -0.445,-0.285 -1.03969,-0.340469 -1.64844,-0.324219 -0.60875,0.01625 -1.23242,0.103516 -1.73242,0.103516 -1.640541,-0.02803 -3.267012,-0.311272 -4.820317,-0.839844 -1.74492,-0.507185 -3.543887,-0.801546 -5.359375,-0.878906 -0.68,-0.06 -1.192969,-0.124453 -1.636719,-0.314453 -0.44375,-0.190001 -0.817656,-0.506407 -1.222656,-1.066407 -0.355,-0.48 -0.606328,-0.982734 -0.892578,-1.458984 -0.28625,-0.47625 -0.607422,-0.925781 -1.107422,-1.300781 -0.615,-0.47 -1.275703,-0.874297 -1.876953,-1.341797 -0.60125,-0.4675 -1.143438,-0.99875 -1.523438,-1.71875 -0.229487,-0.528617 -0.429397,-1.068571 -0.599609,-1.619141 -0.220858,-0.261712 -0.351804,-0.587782 -0.371094,-0.929687 1.577448,-0.474768 3.193796,-0.809399 4.830078,-1 1.977254,-0.375049 3.987811,-0.545716 6,-0.509766 h 5 c 0.833058,0.126577 1.684897,0.04715 2.480469,-0.230469 -0.26175,-0.700119 -0.596955,-1.370529 -1,-2 -0.308725,-0.649705 -0.739475,-1.234422 -1.269531,-1.720703 -0.558318,-0.483478 -1.180508,-0.886533 -1.84961,-1.199219 -0.474112,-0.19659 -0.988766,-0.275978 -1.5,-0.230468 -0.816306,0.06419 -1.623721,-0.06976 -2.359375,-0.375 -0.735653,-0.305237 -1.400561,-0.781055 -1.93164,-1.404297 -0.542589,-0.780162 -1.219838,-1.457411 -2,-2 -0.842093,-0.527825 -1.744885,-0.950716 -2.689453,-1.259766 -1.26,-0.4099999 -2.396016,-1.0734374 -3.541016,-1.7109374 -1.145,-0.6375 -2.299609,-1.2505468 -3.599609,-1.5605468 -0.965,-0.235 -1.962188,-0.2847657 -2.960938,-0.3535157 -0.99875,-0.06875 -1.99875,-0.1548437 -2.96875,-0.4648437 C 70.280643,5.7800185 69.32907,5.1869465 68.550781,4.4003906 68.059915,3.9027265 67.508758,3.4720875 66.912109,3.1191406 66.315461,2.7661937 65.67254,2.4913295 65,2.3007812 63.507296,1.9644906 61.979146,1.8060151 60.449219,1.8300781 59.355411,1.9263833 58.255496,1.758094 57.240234,1.3398438 56.447911,0.94446546 55.562551,0.77165045 54.679688,0.83984375 Z"
       style="fill:none;stroke:#000000;stroke-width:1;stroke-linecap:round;stroke-linejoin:round;stroke-miterlimit:4;stroke-dasharray:none;stroke-opacity:1;paint-order:fill markers stroke" />
    <g
       id="Districts" />
  </g>
</svg>
