<?xml version="1.0" encoding="UTF-8" standalone="no"?>
<svg
   xmlns:dc="http://purl.org/dc/elements/1.1/"
   xmlns:cc="http://creativecommons.org/ns#"
   xmlns:rdf="http://www.w3.org/1999/02/22-rdf-syntax-ns#"
   xmlns:svg="http://www.w3.org/2000/svg"
   xmlns="http://www.w3.org/2000/svg"
   viewBox="0 0 703.65524 481.27789"
   version="1.1"
   id="svg14"
   width="703.65521"
   height="481.27789">
  <metadata
     id="metadata18">
    <rdf:RDF>
      <cc:Work
         rdf:about="">
        <dc:format>image/svg+xml</dc:format>
        <dc:type
           rdf:resource="http://purl.org/dc/dcmitype/StillImage" />
        <dc:title></dc:title>
      </cc:Work>
    </rdf:RDF>
  </metadata>
  <defs
     id="defs4">
    <style
       id="style2">
      .cls-1 {
        fill: none;
        stroke: #231f20;
        stroke-miterlimit: 10;
      }
    </style>
  </defs>
  <path
     d="m 421.70117,0.49999997 c 0.64571,0.90892543 1.20843,1.87112613 1.68359,2.87500003 0.47517,1.0038739 0.86263,2.0494208 1.15625,3.125 0.57,2.17 0.80985,4.398125 1.33985,6.578124 0.29,1.16 0.64031,2.300469 0.82031,3.480469 0.15,0.96 -0.0377,1.869688 -0.27149,2.773438 -0.23375,0.90375 -0.51382,1.801328 -0.54882,2.736328 -0.0505,0.971774 -0.27418,1.927051 -0.66016,2.820312 -1.25,3.2 -2.53969,6.381094 -3.67969,9.621094 -0.71,2 -1.39961,4.174219 -1.78711,6.386719 -0.19375,1.10625 -0.31312,2.222265 -0.32031,3.330078 -0.007,1.107813 0.0977,2.208203 0.34766,3.283203 0.53261,1.676867 1.32524,3.258989 2.34961,4.689453 1.02,1.65 2.18945,3.220625 3.18945,4.890625 1.275,2.115 2.49523,4.570157 4.02148,6.722657 0.76313,1.07625 1.60305,2.075234 2.56446,2.919921 0.9614,0.844688 2.04492,1.533828 3.29492,1.986329 1.13217,0.410724 2.27332,0.782517 3.38672,1.201171 1.1134,0.418654 2.19857,0.883763 3.21484,1.484375 0.81295,0.480447 1.58144,1.047043 2.28711,1.744141 0.6725,0.665 1.3618,1.216641 2.07617,1.673828 0.71438,0.457188 1.45407,0.820625 2.22657,1.109375 1.545,0.5775 3.22265,0.858047 5.09765,0.998047 2.46,0.185 5.08875,0.377422 7.625,0.888672 1.26813,0.255625 2.51297,0.591015 3.70313,1.044922 1.19015,0.453906 2.32554,1.025859 3.37304,1.755859 0.57428,0.357742 1.03551,0.871368 1.33008,1.480469 0.17,0.43 0.11008,0.66 0.33008,1 0.36017,0.443866 0.80419,0.811167 1.30859,1.080078 2.78,1.77 5.39086,3.879531 8.13086,5.769531 0.8975,0.615 1.81492,1.098985 2.75196,1.47461 0.93703,0.375625 1.89296,0.642812 2.87109,0.820312 1.95625,0.355 3.99695,0.354063 6.12695,0.164063 2.11,-0.19 4.24985,-0.439766 6.33985,-0.759766 0.72567,-0.06582 1.40511,-0.38278 1.91992,-0.898437 1.20458,-1.240765 2.23088,-2.63292 3.05664,-4.134766 0.82576,-1.501846 1.45115,-3.115024 1.85351,-4.796875 0.3864,-0.929043 0.58961,-1.923542 0.59961,-2.929688 -0.24004,-0.728594 -0.43994,-1.468435 -0.59961,-2.21875 -0.007,-1.188153 -0.13379,-2.369917 -0.375,-3.527343 -0.2412,-1.157427 -0.59648,-2.290673 -1.06445,-3.382813 -0.385,-0.81 -0.65891,-1.355781 -0.72266,-1.925781 -0.0637,-0.57 0.0813,-1.164219 0.53126,-2.074219 0.44999,-0.91 1.17656,-1.960312 2.03906,-2.882812 0.8625,-0.9225 1.86133,-1.717188 2.86133,-2.117188 0.58139,-0.166407 1.17205,-0.297285 1.76953,-0.390625 1.12,-0.31 2.27062,-0.420469 3.39062,-0.730469 1.135,-0.305 2.40969,-0.615547 3.67969,-0.716797 0.635,-0.05062 1.26844,-0.04727 1.88281,0.0332 0.61438,0.08047 1.21008,0.238906 1.76758,0.503906 2.14864,0.996686 4.38044,1.803262 6.66992,2.410156 0.7625,0.2125 1.50336,0.461484 2.18555,0.771484 0.68219,0.310001 1.30664,0.680313 1.83789,1.132813 0.53125,0.4525 0.96766,0.988906 1.27734,1.628906 0.30969,0.64 0.49227,1.38336 0.50977,2.25586 0.045,1.44 -0.0646,2.905234 -0.13086,4.365234 -0.0662,1.46 -0.0891,2.915937 0.13086,4.335937 0.13,0.840001 0.45008,1.619219 0.58008,2.449219 0.0762,0.790661 0.20205,1.575221 0.3789,2.34961 0.125,0.4425 0.31899,0.795468 0.56055,1.085937 0.24156,0.290469 0.53031,0.519375 0.85156,0.71875 0.6425,0.398754 1.40844,0.676176 2.14844,1.076176 0.79294,0.356537 1.53933,0.809603 2.2207,1.349609 0.43915,0.522837 0.83355,1.081368 1.17969,1.669922 0.32,0.3975 0.69422,0.676953 1.10547,0.869141 0.41125,0.192187 0.85922,0.296953 1.32422,0.345703 0.93,0.0975 1.92961,-0.02977 2.84961,-0.134766 1.61377,-0.21669 3.24342,-0.303405 4.87109,-0.259765 1,0.04 2,0.339844 3,0.339844 0.67187,0.03107 1.33968,-0.03507 1.98633,-0.19336 0.64665,-0.158294 1.27197,-0.408201 1.85351,-0.746094 2.42001,-1.32 4.62915,-3.020468 7.11915,-4.230468 0.82,-0.41 1.50117,-0.869297 2.45117,-1.279297 0.475,-0.205 0.81695,-0.637266 1.18945,-1.103516 0.3725,-0.46625 0.77414,-0.96664 1.36914,-1.306641 1.33794,-0.813503 2.76778,-1.46421 4.25977,-1.939453 1.33073,-0.228913 2.69521,-0.167823 4,0.179688 1.02368,0.198799 2.01779,0.51542 2.96093,0.943359 0.94315,0.42794 1.83642,0.966026 2.66016,1.605469 0.92,0.65 1.68961,1.470625 2.59961,2.140625 0.67496,0.457125 1.39975,0.837074 2.16016,1.130859 0.935,0.42 2.04406,0.718672 3.07031,1.138672 0.51312,0.21 1.00641,0.45 1.44531,0.75 0.43891,0.3 0.825,0.661328 1.125,1.111328 0.525,0.76 0.83891,1.573516 1.09766,2.416016 0.25875,0.8425 0.46172,1.713984 0.76172,2.583984 0.265,0.76 0.65953,1.165703 1.17578,1.408203 0.51625,0.242501 1.15429,0.321876 1.90429,0.421876 1.5,0.2 2.93,0.668437 4.5,0.898437 1.57,0.23 3.28883,-0.0084 4.79883,0.101563 0.755,0.055 1.62602,0.216562 2.47852,0.257812 0.8525,0.04125 1.68805,-0.03875 2.37304,-0.46875 0.55505,-0.462152 1.0798,-0.9601 1.57032,-1.490234 0.56334,-0.417196 1.10036,-0.867626 1.60937,-1.34961 0.72934,-0.999676 1.19913,-2.164908 1.36914,-3.390625 0.54252,-2.637128 1.26753,-5.232909 2.16993,-7.769531 0.61,-1.57 1.35523,-3.172813 2.30273,-4.632812 0.47375,-0.73 0.99859,-1.423672 1.58203,-2.060547 0.58344,-0.636875 1.22555,-1.216797 1.93555,-1.716797 0.41733,-0.338834 0.88598,-0.602021 1.38476,-0.78125 0.49878,-0.179229 1.02886,-0.275047 1.56641,-0.279297 0.55915,0.06318 1.10986,0.176826 1.64844,0.339844 1.71576,0.276563 3.44641,0.464027 5.18164,0.560547 1.09294,-0.0117 2.16198,0.309074 3.06836,0.919921 0.7996,0.728264 1.52345,1.535884 2.16015,2.410157 0.45667,0.56964 1.04186,1.006677 1.69336,1.285156 0.6515,0.278478 1.37033,0.399491 2.09766,0.335937 1.58087,-0.02545 3.15609,0.192245 4.66992,0.648438 0.62,0.23 1.17906,0.739922 1.78906,0.919922 1.09474,0.137979 2.20722,-0.02998 3.21094,-0.488281 1.11,-0.37 2.23031,-0.771172 3.32031,-1.201172 0.79948,-0.24603 1.52829,-0.677565 2.12891,-1.259766 0.75253,-0.964757 1.42161,-1.992107 2,-3.070312 0.76649,-1.34627 1.45485,-2.733946 2.0625,-4.15625 0.60765,-1.422305 1.13522,-2.878768 1.57812,-4.363282 0.43547,-1.118085 0.70383,-2.294107 0.79883,-3.490234 -0.0284,-0.675457 -0.1278,-1.345937 -0.29883,-2 -0.1375,-0.75 -0.19593,-1.508594 -0.16406,-2.253906 0.0319,-0.745313 0.15305,-1.477579 0.37305,-2.173828 0.22,-0.69625 0.53992,-1.356172 0.9668,-1.958985 0.42687,-0.602812 0.96078,-1.148281 1.61328,-1.613281 0.56935,-0.349573 1.18126,-0.625441 1.82031,-0.820313 1.31,-0.54 2.58109,-0.989062 3.87109,-1.539062 1.21,-0.51 2.52735,-1.087188 3.8711,-1.554688 1.34375,-0.4675 2.71234,-0.826484 4.02734,-0.896484 0.495,-0.025 0.91578,0.06602 1.27734,0.240234 0.36157,0.174219 0.66454,0.432813 0.92579,0.742188 0.5225,0.61875 0.87726,1.44375 1.19726,2.21875 0.62865,1.622122 1.38733,3.190049 2.26953,4.689453 0.67717,0.972472 1.48511,1.846924 2.40039,2.599609 0.80308,0.75343 1.44111,1.665928 1.8711,2.679688 0.41781,1.089927 1.01221,2.103518 1.75976,3 0.60847,0.890805 1.38965,1.649814 2.29883,2.230469 0.38,0.21 0.78094,0.393672 1.11719,0.638672 0.33625,0.244999 0.60937,0.551718 0.73437,1.011718 0.22,0.815 0.0774,1.741953 0.0762,2.626953 -6.3e-4,0.4425 0.033,0.875469 0.16601,1.277344 0.13297,0.401875 0.36531,0.773203 0.75781,1.095703 0.495,0.405 1.08891,0.559453 1.66016,0.751953 0.57125,0.1925 1.11953,0.423516 1.51953,0.978516 0.23841,0.383136 0.38403,0.808567 0.43359,1.246094 0.0496,0.437527 0.002,0.885743 -0.14453,1.3125 -0.26,1.04 -0.36031,2.121093 -0.57031,3.121093 -0.35891,1.267066 -0.58955,2.565787 -0.68945,3.878907 0.0322,0.631915 0.15615,1.252683 0.36328,1.84375 0.20712,0.591067 0.49793,1.154152 0.86719,1.667969 0.3769,0.451641 0.68952,0.951294 0.92968,1.488281 0.16719,0.936288 0.11223,1.899288 -0.16015,2.810547 -0.0867,0.672922 -0.20938,1.340589 -0.36914,2 -0.34089,0.688828 -0.77945,1.325913 -1.30078,1.890625 -0.63268,0.838649 -1.36438,1.597282 -2.17969,2.259765 -1.08126,0.80064 -2.25281,1.471879 -3.49024,2 -1.16768,0.549195 -2.26247,1.241694 -3.25976,2.060547 -1.82025,1.402245 -3.4953,2.982235 -5,4.718745 -1.22707,1.46465 -2.27078,3.07415 -3.10938,4.79102 -0.30352,0.63737 -0.28258,1.38197 0.0586,2 0.22,0.66 0.69,1.18031 1,1.82031 0.21513,0.54394 0.36737,1.11055 0.45117,1.68945 0.105,0.515 0.23953,0.97032 0.26953,1.41407 0.03,0.44375 -0.0444,0.8757 -0.35938,1.3457 -0.78698,1.10076 -1.45726,2.27998 -2,3.51953 -0.2329,0.9207 -0.3173,1.873 -0.25,2.82031 -0.05,0.84 -0.28124,1.54016 -0.28124,2.41016 v 1.69922 c 0.015,0.945 -0.19383,1.87297 -0.45508,2.79297 -0.26125,0.92 -0.57367,1.83304 -0.76368,2.74804 -0.23,1.13 -0.43968,2.2704 -0.67968,3.40039 -0.23505,0.75781 -0.38717,1.53925 -0.45117,2.33008 -0.0109,0.35596 0.0803,0.699 0.2539,0.99414 0.17362,0.29515 0.4297,0.54162 0.7461,0.70508 0.38,0.2 0.82054,0.17039 1.06054,0.65039 0.11403,0.51771 0.0421,1.0583 -0.20117,1.5293 -0.65944,1.5678 -1.48775,3.05294 -2.46875,4.42969 -0.981,1.37675 -2.11429,2.64605 -3.38086,3.78125 -0.86242,0.9029 -1.89088,1.61027 -3.01562,2.09179 -1.12475,0.48153 -2.34515,0.73728 -3.59375,0.73828 -0.85461,0.6682 -1.66591,1.38979 -2.42969,2.16016 -0.81,0.93 -1.34,1.92969 -2,2.92969 -0.66,1 -1.12953,2 -1.76953,3 -0.4,0.61 -0.9418,1.09898 -1.3418,1.70898 -0.395,0.6025 -0.87117,1.14414 -1.4043,1.63477 -0.53312,0.49062 -1.12164,0.93062 -1.74414,1.32812 -1.245,0.795 -2.62164,1.42204 -3.93164,1.95704 -1.30669,0.57138 -2.64559,1.05788 -4.01172,1.45703 -1.36613,0.39915 -2.75919,0.71159 -4.16796,0.93359 -1.8361,0.15201 -3.6829,0.10757 -5.50977,-0.13086 -1.41333,-0.16 -2.8331,-0.30922 -4.25977,-0.44922 -1.53852,-0.0518 -3.07814,0.002 -4.60937,0.16016 -2.13,0.13 -4.25109,0.22015 -6.37109,0.41015 -1.72769,0.17282 -3.43532,0.48519 -5.10743,0.93165 -1.6721,0.44645 -3.30868,1.0269 -4.89257,1.73828 -2.43586,0.96731 -4.81509,2.06979 -7.12891,3.30078 -0.34,0.195 -1.06211,0.54133 -1.75586,0.95508 -0.69375,0.41375 -1.35898,0.89351 -1.58399,1.35351 -0.1796,0.53243 -0.30469,1.08266 -0.37109,1.64063 -0.27,1.18 -0.54898,2.31953 -0.70898,3.51953 -0.09,0.68 -0.24469,1.37875 -0.24219,2.03125 0.003,0.6525 0.16117,1.25976 0.70117,1.75976 l 1.91016,1.84961 c 0.57807,0.5084 1.11282,1.06378 1.59961,1.66016 0.73778,1.197 1.21521,2.53583 1.40039,3.92969 0.24,1.12 0.52054,2.21031 0.81054,3.32031 0.2265,0.596 0.3213,1.23293 0.2793,1.86914 -0.145,0.655 -0.53109,1.26266 -0.99609,1.81641 -0.465,0.55375 -1.00789,1.05414 -1.46289,1.49414 -1.70599,1.78458 -3.62813,3.35009 -5.72071,4.66015 -0.72424,0.45796 -1.51745,0.79566 -2.34961,1 -1.06,0.21 -2.10117,0.16414 -3.13867,0.11914 -1.0375,-0.045 -2.07109,-0.0889 -3.12109,0.1211 -1.62018,0.24402 -3.17653,0.80508 -4.58008,1.65039 -1.7409,1.22343 -3.30859,2.67495 -4.66016,4.31836 -0.84,1.015 -1.61468,2.23164 -2.05468,3.52539 -0.22,0.64687 -0.35625,1.31328 -0.375,1.98437 -0.0188,0.6711 0.0801,1.34672 0.33007,2.01172 0.62001,1.66 1.09915,3.31 1.61915,5 0.32405,1.06992 0.81868,2.07255 1.45703,2.97266 0.63835,0.9001 1.41971,1.69776 2.32226,2.35742 2.09,1.57 4.24141,3.11937 6.19141,4.85937 0.535,0.5 1.03359,1.07383 1.55859,1.61133 0.525,0.5375 1.07594,1.03867 1.71094,1.38867 0.315,0.185 0.75992,0.34969 1.10742,0.58594 0.3475,0.23625 0.59844,0.54367 0.52344,1.01367 -0.25969,0.75601 -0.61652,1.47593 -1.06055,2.14063 -0.45769,0.79753 -0.83871,1.63445 -1.13672,2.5 -0.298,0.86555 -0.51424,1.75967 -0.64453,2.66992 -0.11,1.05 -0.30992,2.05914 -0.41992,3.11914 -0.17,1.6 -0.78906,3.11047 -0.78906,4.73047 -0.002,0.605 -0.15899,1.18391 -0.41992,1.73047 -0.26094,0.54656 -0.62703,1.06031 -1.05078,1.53906 -0.84751,0.9575 -1.92461,1.77039 -2.84961,2.40039 -0.88928,0.66391 -1.91333,1.12434 -3,1.34961 -1.55473,0.10995 -3.1152,0.10995 -4.66993,0 -1.94759,-0.0218 -3.87757,0.24088 -5.73046,0.77149 -1.8529,0.5306 -3.62871,1.32948 -5.26954,2.3789 -1.00254,0.58338 -1.93071,1.27819 -2.76953,2.06836 -0.83882,0.79017 -1.5883,1.67664 -2.23047,2.64258 -0.38628,0.85859 -0.61322,1.77898 -0.66992,2.71875 -0.31,1.79 -0.81,3.53133 -1,5.36133 -0.14539,1.43017 -0.0945,2.87254 0.15039,4.28906 0.3676,1.89681 0.46123,3.83624 0.2793,5.75977 -0.0413,1.34661 -0.21186,2.68611 -0.50977,4 -0.61268,1.18225 -1.44326,2.23694 -2.44922,3.10937 -0.98,0.99 -2.14062,1.82172 -3.14062,2.76172 -0.78,0.75 -1.38922,1.68922 -2.19922,2.44922 -1.25993,1.12059 -2.61937,2.12469 -4.06055,3 l -1.91992,0.7793 c -1.085,0.74 -2.12234,1.61226 -3.21484,2.38476 -1.0925,0.7725 -2.23992,1.44516 -3.54492,1.78516 -1.01407,0.28647 -2.0463,0.50403 -3.08985,0.65039 -1.39,0.16 -2.82093,-0.0395 -4.21093,0.0605 -1.58983,-0.0126 -3.17309,0.18886 -4.70899,0.59961 -0.8265,0.33243 -1.61705,0.74694 -2.35742,1.23438 -0.74037,0.48744 -1.43048,1.04796 -2.0625,1.67578 -0.6607,0.72583 -1.20325,1.5436 -1.61133,2.42383 -0.40808,0.88023 -0.68159,1.82362 -0.80859,2.79687 -0.18,1.67 0.33984,3.40961 0.33984,5.09961 0,1.985 -0.25,3.92383 -0.5,5.86133 -0.25,1.9375 -0.5,3.87266 -0.5,5.84766 -0.0125,1.1375 -0.18469,2.21523 -0.47656,3.24414 -0.29188,1.0289 -0.70477,2.00945 -1.19727,2.95508 -0.985,1.89125 -2.29242,3.64156 -3.60742,5.35156 -1.51,2 -2.91992,4 -4.41992,6 -0.75021,0.91493 -1.36681,1.92466 -1.83789,2.99804 -0.47108,1.07339 -0.79545,2.21127 -0.96094,3.38282 -0.23,1.57 -0.4514,3.04836 -0.6914,4.56836 -0.34787,1.57052 -0.53912,3.17297 -0.57032,4.78125 0.08,1.075 0.32938,2.03484 0.45313,2.99609 0.12375,0.96125 0.12203,1.92391 -0.29297,3.00391 -0.86462,1.88157 -1.62809,3.80713 -2.28906,5.76953 -0.35542,1.50199 -0.55295,3.03705 -0.58985,4.58008 -0.09,1.565 -0.12718,3.21273 -0.30469,4.83398 -0.1775,1.62125 -0.49648,3.21578 -1.14648,4.67578 -0.85943,1.65837 -1.90202,3.21545 -3.10937,4.64063 -1.48551,2.14426 -3.15877,4.15217 -5,6 -0.685,0.645 -1.63649,1.6289 -2.67774,2.4414 -0.52062,0.40625 -1.06476,0.76946 -1.60742,1.02539 -0.54266,0.25594 -1.08547,0.40532 -1.60547,0.38282 -0.96,-0.065 -1.83602,-0.37961 -2.66602,-0.78711 -0.82999,-0.4075 -1.61281,-0.90875 -2.38281,-1.34375 -1.54,-0.87 -3.15976,-1.55836 -4.75976,-2.31836 -1.98079,-0.93984 -3.85473,-2.09141 -5.58985,-3.43164 -0.5925,-0.4575 -0.99054,-0.89993 -1.24414,-1.34961 -0.25359,-0.44969 -0.36344,-0.90547 -0.38281,-1.38672 -0.0387,-0.9625 0.28664,-2.02852 0.55664,-3.35352 0.1475,-0.745 0.19844,-1.41789 0.17188,-2.04883 -0.0266,-0.63093 -0.13118,-1.21867 -0.29493,-1.79492 -0.3275,-1.1525 -0.89187,-2.25492 -1.54687,-3.54492 -0.615,-1.205 -0.92242,-2.38359 -1.07617,-3.58984 -0.15375,-1.20625 -0.1543,-2.44172 -0.1543,-3.76172 0.0606,-1.34146 0.0366,-2.68359 -0.0703,-4.01953 -0.10688,-1.33594 -0.29726,-2.6657 -0.57031,-3.98047 -0.21501,-0.8475 -0.56907,-1.54281 -1.02735,-2.11719 -0.45828,-0.57437 -1.01976,-1.02617 -1.65039,-1.38867 -1.26125,-0.725 -2.79727,-1.08898 -4.32226,-1.33398 -1.65,-0.27 -3.30594,-0.34024 -4.89844,-0.61524 -0.79625,-0.1375 -1.57735,-0.32461 -2.33203,-0.61523 -0.75469,-0.29063 -1.48469,-0.68352 -2.17969,-1.22852 -1.80766,-1.47801 -3.51416,-3.07614 -5.10938,-4.78125 -0.91,-0.935 -1.39539,-1.90086 -1.68164,-2.94336 -0.28625,-1.0425 -0.37328,-2.16148 -0.48828,-3.39648 -0.13,-1.39 -0.54578,-2.67344 -1.11328,-3.89844 -0.5675,-1.225 -1.28734,-2.39102 -2.02734,-3.54102 -0.37,-0.58 -0.81703,-1.33437 -1.36328,-1.98437 -0.54625,-0.65 -1.19008,-1.19547 -1.95508,-1.35547 -1.03007,-0.0876 -2.06858,-0.0576 -3.0918,0.0898 -2.86,0.22 -5.81891,0.47102 -8.75391,0.41602 -1.4675,-0.0275 -2.92976,-0.13164 -4.36914,-0.35352 -1.43937,-0.22187 -2.85632,-0.5625 -4.23632,-1.0625 -2.64364,-0.98454 -5.1965,-2.18423 -7.63477,-3.58398 -2.43827,-1.39975 -4.76203,-2.99869 -6.94531,-4.78516 -1.205,-0.98 -2.42297,-2.15554 -3.73047,-3.18554 -0.65375,-0.515 -1.32867,-0.99454 -2.03711,-1.39454 -0.70844,-0.39999 -1.44992,-0.71992 -2.23242,-0.91992 -0.98377,-0.22436 -1.98237,-0.36135 -2.98633,-0.4082 -1.00396,-0.0469 -2.01329,-0.005 -3.01367,0.12695 -0.89706,-0.0276 -1.78967,0.12337 -2.62891,0.44141 -0.76,0.43 -1.38555,1.29453 -1.87305,2.23828 -0.4875,0.94375 -0.83687,1.96594 -1.04687,2.71094 -0.21,0.745 -0.26508,1.54203 -0.39258,2.30078 -0.1275,0.75875 -0.32812,1.47836 -0.82812,2.06836 -0.85773,0.91786 -1.82316,1.72065 -2.87305,2.39258 -1.04989,0.67192 -2.18422,1.21299 -3.37695,1.60742 -1.415,0.475 -2.9143,0.6614 -4.43555,0.7539 -1.52125,0.0925 -3.06445,0.0923 -4.56445,0.19727 -2.11346,0.2065 -4.23888,0.25198 -6.35938,0.13867 -2.47,-0.2 -4.93992,-0.44836 -7.41992,-0.56836 -0.91552,-0.11518 -1.83623,-0.0437 -2.70703,0.20118 -0.87081,0.24491 -1.6928,0.66275 -2.41406,1.23828 -1.1205,1.01178 -2.13159,2.13245 -3.01954,3.34375 -0.88794,1.21129 -1.65158,2.51369 -2.27929,3.88671 -0.47,0.95001 -0.86188,2.00922 -1.42188,2.94922 -1.41,2.36 -3.22898,4.42016 -4.45898,6.91016 -0.4675,0.9475 -0.84383,1.94227 -1.14649,2.9668 -0.30265,1.02453 -0.53195,2.0789 -0.70507,3.14453 -0.34625,2.13125 -0.46782,4.30867 -0.50782,6.38867 -0.035,1.895 0.13727,3.77945 0.38477,5.6582 0.2475,1.87875 0.56898,3.7511 0.83398,5.6211 0.11,0.785 0.16016,1.73351 0.25391,2.66601 0.0937,0.9325 0.23258,1.84922 0.51758,2.57422 0.15656,0.53858 0.4208,1.03235 0.77344,1.45313 0.35263,0.42077 0.79201,0.76924 1.29492,1.01757 1.21801,0.48485 2.39661,1.06696 3.52148,1.74024 0.78,0.585 1.37422,1.24297 1.83594,1.95703 0.46172,0.71406 0.78969,1.48422 1.03906,2.29297 0.49875,1.6175 0.67985,3.38969 0.96484,5.17969 0.35,2.05 0.71133,4.07023 1.26758,6.02148 0.55625,1.95125 1.30664,3.83242 2.43164,5.60742 0.26,0.405 0.64508,0.9 0.95508,1.40625 0.31,0.50625 0.54586,1.02461 0.50586,1.47461 -0.04,0.45 -0.21094,0.75227 -0.46094,1.00977 -0.25,0.2575 -0.57945,0.47023 -0.93945,0.74023 -1.05,0.78 -2.08086,1.49008 -3.13086,2.33008 -0.525,0.42 -1.29664,0.96695 -1.99414,1.56445 -0.6975,0.5975 -1.31992,1.24524 -1.54492,1.86524 -0.165,0.46 -0.31609,0.83789 -0.30859,1.18164 0.007,0.34375 0.17367,0.65351 0.63867,0.97851 0.86666,0.44446 1.76538,0.82308 2.68945,1.13086 0.615,0.295 1.455,0.55196 2,0.93946 0.2725,0.19375 0.47125,0.41953 0.53125,0.69922 0.06,0.27968 -0.0183,0.61398 -0.30078,1.02148 -0.7775,1.1225 -1.66852,2.15344 -2.62695,3.12891 -0.95844,0.97546 -1.98446,1.89414 -3.03321,2.79101 -2.0975,1.79375 -4.28617,3.49867 -6.20117,5.38867 -1.22157,1.39529 -2.23229,2.96229 -3,4.65039 -1.69,3.04 -3.81008,5.82032 -5.58008,8.82032 -0.83486,1.23037 -1.52462,2.55177 -2.05859,3.93945 -0.0587,0.37022 -0.16013,0.73263 -0.30078,1.08008 -0.39377,0.57221 -0.8653,1.08835 -1.40039,1.53125 -0.76,0.81 -1.40016,1.73859 -2.16016,2.55859 -1.84,1.97 -4.21875,3.52961 -6.21875,5.34961 -0.3,0.275 -0.88016,0.80156 -1.31641,1.38281 -0.21812,0.29063 -0.40085,0.59414 -0.49414,0.88867 -0.0933,0.29454 -0.0965,0.58008 0.041,0.83008 0.15,0.28 0.35367,0.34946 0.48242,0.43946 0.12875,0.09 0.18234,0.20054 0.0273,0.56054 -0.17,0.4 -1.21054,0.58946 -1.56054,0.68946 -2.09774,0.58746 -4.25404,0.94041 -6.42969,1.05078 -2.38,0.11 -4.72961,0.45914 -7.09961,0.61914 -1.095,0.07 -2.24898,0.002 -3.39648,-0.0312 -1.1475,-0.0337 -2.29024,-0.0331 -3.36524,0.17187 -1.28,0.25 -2.56914,0.54852 -3.86914,0.72852 -1.74231,0.11859 -3.49197,-0.0292 -5.18945,-0.43945 -3.91352,-0.61367 -7.86118,-0.98685 -11.82031,-1.11915 -2.015,-0.105 -4.02539,-0.26398 -5.99414,-0.61523 -1.96875,-0.35125 -3.8961,-0.89539 -5.7461,-1.77539 -0.91,-0.43 -1.70555,-0.84008 -2.5293,-1.14258 -0.82374,-0.3025 -1.67617,-0.49804 -2.70117,-0.49804 -0.735,-0.015 -1.63679,0.12 -2.52929,0.15624 -0.8925,0.0362 -1.77571,-0.0255 -2.47071,-0.43554 -1.06682,-0.82182 -2.00326,-1.79981 -2.77929,-2.90039 -2.02381,-2.32894 -3.91962,-4.76468 -5.67969,-7.29883 -0.86,-1.25 -1.62242,-2.56281 -2.41992,-3.85156 -0.7975,-1.28875 -1.63086,-2.55399 -2.63086,-3.70899 -0.39327,-0.55341 -0.87384,-1.03276 -1.41992,-1.41992 -0.54609,-0.38716 -1.15817,-0.68316 -1.81055,-0.87109 -1.15,-0.27 -2.3818,-0.36461 -3.62305,-0.41211 -1.24125,-0.0475 -2.49078,-0.047 -3.67578,-0.12696 -0.5925,-0.04 -1.12023,-0.17 -1.60351,-0.36718 -0.48329,-0.19719 -0.92172,-0.46133 -1.33985,-0.76758 -0.83625,-0.6125 -1.58773,-1.39625 -2.42773,-2.15625 -1.12,-1.01 -2.3018,-1.77711 -3.5293,-2.47461 -1.2275,-0.6975 -2.50078,-1.32469 -3.80078,-2.05469 -0.94,-0.545 -1.72,-1.29445 -2.5,-2.0332 -0.78,-0.73875 -1.56,-1.4668 -2.5,-1.9668 -0.89703,-0.399 -1.8412,-0.66247 -2.80469,-0.78711 -0.96349,-0.12464 -1.94504,-0.11069 -2.91406,0.0469 -1.40133,-0.0371 -2.80481,0.007 -4.20117,0.13086 -1.66638,0.50404 -3.29825,1.11221 -4.88868,1.82031 -0.58499,0.2 -1.09125,0.39726 -1.59374,0.47852 -0.5025,0.0813 -1.00118,0.0462 -1.57618,-0.21876 -0.57501,-0.28861 -1.1711,-0.53614 -1.78125,-0.74023 -1.65,-0.53 -3.55914,-0.43031 -5.11914,-1.07031 -0.78,-0.32 -1.29453,-0.81274 -1.70703,-1.39649 -0.4125,-0.58375 -0.72375,-1.25836 -1.09375,-1.94336 -0.7655,-1.34087 -1.64104,-2.61586 -2.61914,-3.81054 -1.23,-1.54 -1.77,-3.43992 -3,-4.91992 -0.615,-0.74 -1.4,-1.43641 -2.15625,-2.16016 -0.75625,-0.72375 -1.48437,-1.47531 -1.98437,-2.32031 -0.275,-0.4725 -0.37008,-0.95477 -0.33789,-1.43164 0.0322,-0.47688 0.19093,-0.94844 0.42968,-1.39844 0.4775,-0.9 1.26875,-1.71336 1.96875,-2.31836 1.27,-1.1 2.75274,-1.93813 4.20899,-2.79688 1.45625,-0.85875 2.88578,-1.73882 4.05078,-2.92382 0.66658,-0.7293 1.25999,-1.51245 1.77734,-2.33985 0.51735,-0.8274 0.95911,-1.69836 1.31836,-2.60156 0.35925,-0.9032 0.63585,-1.84018 0.82813,-2.79687 0.19227,-0.9567 0.29998,-1.93399 0.3164,-2.92188 0.054,-3.26857 -0.0413,-6.53629 -0.2832,-9.79297 -0.24192,-3.25668 -0.63165,-6.50185 -1.16797,-9.72656 -0.1671,-1.3313 -0.44003,-2.6411 -0.81445,-3.91602 -0.37442,-1.27492 -0.84923,-2.51552 -1.41992,-3.71093 -0.5707,-1.19542 -1.23626,-2.34472 -1.99219,-3.4375 -0.75593,-1.09279 -1.60309,-2.12867 -2.5332,-3.09571 -0.61001,-0.62 -1.22321,-1.11672 -1.84961,-1.52734 -0.62641,-0.41063 -1.26461,-0.73477 -1.92774,-1.00977 -1.32625,-0.55 -2.7468,-0.90351 -4.3418,-1.35351 -1.53376,-0.4333 -3.03205,-0.98534 -4.48046,-1.65039 -0.76618,-0.36178 -1.57024,-0.62704 -2.39454,-0.79492 -0.82429,-0.16789 -1.66898,-0.23838 -2.51562,-0.20508 -1.30274,0.0215 -2.59935,0.15037 -3.87695,0.38281 -1.27761,0.23244 -2.53488,0.5691 -3.76172,1.00781 -1.23,0.4 -2.63055,0.49 -3.81055,1 -1.18,0.51 -2.31117,1.14047 -3.45117,1.73047 -0.9525,0.4825 -1.9525,0.945 -2.98438,1.34375 -1.03187,0.39875 -2.09492,0.73258 -3.16992,0.95508 -1.075,0.2225 -2.16226,0.33531 -3.24414,0.28906 -1.08187,-0.0462 -2.15844,-0.2507 -3.21094,-0.6582 -1.4721,-0.64483 -2.82451,-1.5349 -4,-2.63086 -0.615,-0.5 -1.17054,-1.13899 -1.77929,-1.70899 -0.60875,-0.57 -1.26961,-1.07101 -2.09961,-1.29101 -0.64,-0.17 -1.35516,-0.19188 -2.03516,-0.29688 -0.68,-0.105 -1.32617,-0.29296 -1.82617,-0.79296 -0.37902,-0.49801 -0.67791,-1.04721 -0.88867,-1.62891 -0.21076,-0.5817 -0.33338,-1.19511 -0.36133,-1.82031 -0.14,-1.33 -0.0511,-2.58508 0.18359,-3.79493 0.23469,-1.20984 0.61485,-2.37546 1.0586,-3.52734 0.8875,-2.30375 2.02781,-4.55305 2.75781,-6.99805 0.165,-0.545 0.45297,-1.37937 0.57422,-2.20312 0.0606,-0.41188 0.0801,-0.82086 0.0215,-1.18945 -0.0586,-0.36859 -0.1953,-0.69726 -0.4453,-0.94726 -0.33,-0.345 -0.72055,-0.5643 -1.0918,-0.81055 -0.37125,-0.24625 -0.72351,-0.51875 -0.97851,-0.96875 -0.35,-0.65 -0.38219,-1.4039 -0.39844,-2.1914 -0.0162,-0.7875 -0.0158,-1.60844 -0.30078,-2.39844 -0.285,-0.79 -0.88609,-1.41156 -1.58985,-1.91406 -0.70375,-0.5025 -1.51093,-0.88703 -2.21093,-1.20703 -2.3,-1 -4.64922,-2 -6.94922,-3 -2.91975,-1.19324 -5.74838,-2.59939 -8.46094,-4.20899 -0.6,-0.385 -1.23687,-0.78539 -1.76562,-1.27539 -0.52875,-0.49 -0.94829,-1.06945 -1.11329,-1.81445 -0.14249,-0.645 -0.071,-1.23891 0.13477,-1.79688 0.20578,-0.55797 0.54438,-1.08015 0.9375,-1.58203 0.78625,-1.00375 1.78742,-1.92758 2.35742,-2.89258 0.87999,-1.51411 1.5302,-3.13806 1.93946,-4.82226 0.40926,-1.6842 0.57725,-3.42865 0.49023,-5.17774 -0.095,-1.525 -0.15211,-2.99226 -0.56836,-4.25976 -0.20812,-0.63375 -0.50633,-1.21649 -0.94336,-1.73242 -0.43703,-0.51594 -1.01234,-0.96563 -1.77734,-1.32813 -1.3219,-0.56381 -2.73621,-0.88482 -4.17188,-0.94922 -0.62,-0.06 -1.23336,-0.0754 -1.81836,-0.18164 -0.585,-0.10625 -1.140619,-0.30351 -1.640619,-0.72851 -0.38,-0.325 -0.668047,-0.62196 -0.998047,-0.84571 -0.33,-0.22375 -0.701953,-0.37429 -1.251953,-0.40429 -1.278679,0.0411 -2.542263,0.29126 -3.740234,0.74023 -0.675,0.19 -1.343047,0.37828 -1.966797,0.36328 -0.62375,-0.015 -1.203125,-0.23351 -1.703125,-0.85351 -0.373087,-0.56671 -0.855841,-1.05264 -1.419922,-1.42969 -0.795089,-0.58798 -1.650567,-1.09074 -2.550781,-1.5 -1.161064,-0.2692 -2.30587,-0.60305 -3.429688,-1 -0.83,-0.4 -1.550156,-0.98031 -2.410156,-1.32031 -0.654252,-0.21289 -1.322535,-0.37996 -2,-0.5 -0.97344,-0.15079 -1.903236,-0.47282 -2.75,-0.94532 -0.846764,-0.47249 -1.610495,-1.09451 -2.25,-1.84375 -0.195,-0.245 -0.478516,-0.56609 -0.697266,-0.90234 -0.21875,-0.33625 -0.372734,-0.68805 -0.302734,-0.99805 0.07,-0.31 0.373906,-0.58992 0.722656,-0.82617 0.34875,-0.23625 0.743047,-0.42945 0.998047,-0.56445 0.796791,-0.35122 1.54041,-0.80436 2.212891,-1.34571 0.67248,-0.54134 1.273823,-1.16965 1.787109,-1.87304 0.549665,-0.92501 0.928142,-1.94109 1.119141,-3 0.08508,-0.69633 0.0176,-1.40315 -0.199219,-2.07032 -0.355,-1.83999 -0.444063,-3.85726 -0.820312,-5.75976 -0.188125,-0.95125 -0.449454,-1.87523 -0.84961,-2.73242 -0.400156,-0.85719 -0.939453,-1.64789 -1.689453,-2.33789 -0.96,-0.915 -2.210703,-1.50141 -3.220703,-2.25391 -0.505,-0.37625 -0.950781,-0.79422 -1.269531,-1.31641 -0.31875,-0.52218 -0.509766,-1.14695 -0.509766,-1.93945 -0.04664,-1.60756 0.09423,-3.21609 0.419922,-4.79101 0.22,-1.2 0.72,-2.29954 1,-3.51954 0.305,-1.28 0.537109,-2.52929 0.568359,-3.77929 0.03125,-1.25 -0.138672,-2.50125 -0.638672,-3.78125 -0.446685,-1.1515 -1.028576,-2.24094 -1.728515,-3.24805 -0.699939,-1.00711 -1.517848,-1.93188 -2.441407,-2.75195 v -1.66016 c -0.799999,-1.25 -1.450937,-2.55031 -2.210937,-3.82031 -0.714369,-1.08316 -1.582968,-2.04589 -2.572266,-2.86328 -0.989297,-0.81739 -2.098433,-1.48906 -3.296875,-1.98633 -1.350644,-0.56291 -2.655092,-1.23166 -3.90039,-2 -0.97664,-0.6216 -2.008591,-1.14384 -3.082032,-1.5625 -1.07344,-0.41866 -2.188524,-0.73374 -3.328124,-0.9375 -1.765001,-0.35 -3.547422,-0.37117 -5.326172,-0.38867 -1.77875,-0.0175 -3.552735,-0.0313 -5.302735,-0.36133 -1.450976,-0.25095 -2.805167,-0.82975 -3.96875,-1.66992 -1.163582,-0.84018 -2.137338,-1.94189 -2.832031,-3.24024 -0.675,-1.095 -1.267031,-2.23531 -1.894531,-3.35156 -0.6275,-1.11625 -1.290469,-2.20703 -2.105469,-3.20703 -0.883966,-0.86434 -1.606288,-1.88049 -2.130859,-3 -0.39,-1.13 -0.248907,-2.24031 -0.878907,-3.32031 -0.242333,-0.34943 -0.437438,-0.73026 -0.580078,-1.13086 -0.09,-0.63 -0.209375,-1.25891 -0.359375,-1.87891 -0.142994,-0.42537 -0.551848,-0.70504 -1,-0.68164 -1.03,-0.42 -2.30039,-0.11851 -3.40039,-0.47852 -1.1231,-0.43415 -2.180619,-1.0232 -3.140625,-1.75 -1.04,-0.75 -2.070157,-1.36 -3.160157,-2 -1.662105,-0.97426 -3.2296885,-2.09371 -4.6855464,-3.34374 -1.4558579,-1.25004 -2.7992088,-2.63134 -4.0136719,-4.12696 -0.365,-0.45 -0.61125,-0.87023 -0.7578125,-1.2793 -0.1465625,-0.40906 -0.1947656,-0.80718 -0.1660156,-1.21093 0.0575,-0.8075 0.4238281,-1.64063 0.9238281,-2.64063 1.11,-2.27 2.5296875,-4.41969 3.6796875,-6.67968 0.6503684,-1.06819 1.1857071,-2.1981 1.5996094,-3.3711 0.4139023,-1.173 0.7070712,-2.3891 0.8710934,-3.6289 -0.1113498,-1.40582 -0.3195914,-2.80208 -0.6210934,-4.17969 -0.26,-1.24 -0.510625,-2.52024 -0.890625,-3.74024 -0.4863552,-1.267 -1.1605679,-2.45314 -2,-3.51953 -0.3422614,-0.56812 -0.7437888,-1.09791 -1.1992187,-1.58008 -0.8071756,-0.63615 -1.4859161,-1.42063 -2,-2.31054 -0.5700001,-1.15 -0.7803125,-2.53985 -1.5703126,-3.58985 -0.2999999,-0.4 -0.60875,-0.7139 -0.84374993,-1.0664 C 0.66148437,148.55961 0.5,148.16914 0.5,147.61914 c 0.1673771,-1.22278 0.6233397,-2.38859 1.3300781,-3.40039 0.8115679,-1.39358 1.8811554,-2.59917 3.1367188,-3.5625 1.2555633,-0.96334 2.6977276,-1.68434 4.2539062,-2.10742 1.0539069,-0.2379 2.1224129,-0.40184 3.1992189,-0.49024 0.609656,-0.16017 1.251672,-0.16017 1.861328,0 0.41,0.2 0.939062,0.71992 1.289062,0.91992 1.22,0.71 2.489922,1.27055 3.669922,2.06055 0.708971,0.49642 1.46702,0.9148 2.259766,1.25 0.792746,0.3352 1.620658,0.58722 2.470703,0.75 1.070581,0.2516 2.173693,0.33283 3.269531,0.24023 0.815,-0.125 1.752578,-0.5975 2.642578,-1.15625 0.89,-0.55875 1.732422,-1.20382 2.357422,-1.67382 0.982146,-0.68745 1.841944,-1.53586 2.541016,-2.50977 0.674607,-1.16482 1.457956,-2.26431 2.339844,-3.28125 0.745,-0.76 1.671718,-1.65437 2.699218,-2.35937 0.51375,-0.3525 1.052032,-0.65813 1.605469,-0.875 0.553438,-0.21688 1.122813,-0.34571 1.695313,-0.34571 0.717753,0.075 1.412557,0.27162 2.05664,0.57422 0.644083,0.3026 1.237993,0.71219 1.753907,1.2168 1.319999,1.02 2.209921,2.40906 3.419921,3.53906 0.59,0.55 0.986641,1.05031 1.251953,1.48828 0.265313,0.43797 0.398282,0.81422 0.457032,1.1211 0.1175,0.61375 -0.06055,0.94687 -0.06055,0.92187 0,-0.05 -0.86,2.53938 -1,2.60938 -1.011195,0.55359 -1.976155,1.18614 -2.888672,1.89062 -1.432294,1.15394 -2.800417,2.38358 -4.095703,3.68555 -1.295286,1.30196 -2.5175,2.67507 -3.664063,4.11328 -0.975041,1.13934 -1.821728,2.38461 -2.521484,3.71094 -0.110081,0.42634 -0.110081,0.87444 0,1.30078 0,0.53 -0.169922,1.05984 -0.169922,1.58984 -0.005,0.855 0.389688,1.59867 0.898438,2.29492 0.50875,0.69625 1.132031,1.34391 1.582031,2.00391 0.14,0.205 0.304219,0.51469 0.511719,0.77344 0.2075,0.25875 0.457578,0.46679 0.767578,0.46679 0.428265,-0.14362 0.840941,-0.33183 1.230469,-0.56054 0.9,-0.49 1.670781,-1.2293 2.550781,-1.7793 0.839329,-0.5907 1.759044,-1.05937 2.730469,-1.39062 1.260021,-0.22515 2.548572,-0.22516 3.808593,0 1.02,0.09 2.271172,-0.0402 3.201172,0.0898 0.465,0.065 0.75875,0.15891 0.9375,0.34766 0.17875,0.18874 0.242188,0.47382 0.242188,0.92382 -0.05,1 -0.195704,2 -0.283203,3 -0.0875,1 -0.1175,2 0.0625,3 0.195835,0.92612 0.533121,1.81522 1,2.63868 0.756484,1.38608 1.32919,2.86574 1.701171,4.40039 0.275,1.195 0.478672,2.51304 0.857422,3.74804 0.189375,0.6175 0.421797,1.215 0.728516,1.76563 0.306719,0.55062 0.688828,1.05383 1.173828,1.48633 0.544421,0.48533 1.186366,0.83147 1.871094,1.02148 0.684727,0.19001 1.412236,0.22328 2.128906,0.0879 1.112565,-0.10082 2.205668,-0.32925 3.257813,-0.68164 1.052144,-0.35239 2.062862,-0.82836 3.011718,-1.41797 1.179915,-0.73671 2.318467,-1.53832 3.410156,-2.40039 0.941107,-0.54749 2.010843,-0.83408 3.09961,-0.83008 1.804708,-0.0577 3.605097,-0.2196 5.390625,-0.48828 0.457696,-0.16111 0.867736,-0.41874 1.208984,-0.74805 0.341248,-0.3293 0.613704,-0.73192 0.791016,-1.18359 0.3,-0.535 0.656172,-1.14375 0.919922,-1.78125 0.26375,-0.6375 0.434375,-1.30227 0.359375,-1.94727 -0.04,-0.38999 -0.220703,-0.73085 -0.220703,-1.13085 -0.04,-0.7 0.220703,-1.41891 0.220703,-2.12891 0.09271,-1.47275 0.0257,-2.94834 -0.197266,-4.39844 -0.222962,-1.45009 -0.601952,-2.87508 -1.132812,-4.25195 -0.453079,-0.80035 -0.847137,-1.63277 -1.179688,-2.49024 -0.06936,-0.42666 -0.04214,-0.85729 0.07227,-1.26367 0.114401,-0.40638 0.315896,-0.78936 0.597656,-1.11718 1.288009,-1.93273 2.425117,-3.96242 3.400391,-6.07032 0.177404,-0.84924 0.404148,-1.68711 0.679687,-2.50976 0.545,-0.95 1.384453,-1.8618 1.970703,-2.8418 0.293125,-0.49 0.523438,-0.99633 0.621094,-1.5332 0.09766,-0.53688 0.06312,-1.10485 -0.171875,-1.71485 -0.51,-1.305 -1.442188,-2.40258 -2.398438,-3.48633 -0.956249,-1.08374 -1.936015,-2.15234 -2.541015,-3.40234 -0.851087,-1.56053 -1.442167,-3.24933 -1.75,-5 -0.055,-0.53 -0.07516,-1.23039 0.02734,-1.90039 0.1025,-0.67 0.326718,-1.3107 0.761718,-1.7207 0.435,-0.41 1.047344,-0.65688 1.683594,-0.85938 0.63625,-0.2025 1.296172,-0.35984 1.826172,-0.58984 0.87,-0.39 1.730312,-0.81977 2.570313,-1.25977 1.5,-0.81 3.019999,-1.68031 4.5,-2.57031 0.86948,-0.37302 1.602404,-1.00561 2.099609,-1.81055 0.18,-0.36 0.341484,-0.73961 0.521484,-1.09961 0.18,-0.36 0.47125,-0.78867 0.71875,-1.23242 0.2475,-0.44375 0.451172,-0.90312 0.451172,-1.32812 0,-0.555 -0.278203,-0.92625 -0.533203,-1.3125 -0.255,-0.38625 -0.488438,-0.78649 -0.398438,-1.39649 0.09,-0.67 0.470704,-1.33 0.470704,-2 0.05,-0.475 -0.04016,-0.78648 -0.222657,-1.05273 -0.1825,-0.26625 -0.457343,-0.48711 -0.777343,-0.78711 -0.805,-0.775 -1.559297,-1.6125 -2.341797,-2.40625 -0.7825,-0.79375 -1.592813,-1.54453 -2.507813,-2.14453 -1.83,-1.2 -3.949531,-1.75 -5.769531,-3 -0.71,-0.48 -1.400078,-1.171015 -2.080078,-1.541016 -0.68,-0.37 -1.469922,-0.64 -2.169922,-1 -1.225,-0.62 -2.234688,-1.434218 -3.148437,-2.355468 -0.91375,-0.92125 -1.732266,-1.949141 -2.572266,-2.994141 -0.68,-0.845 -1.50586,-1.71 -2.25586,-2.625 -0.75,-0.915 -1.424687,-1.878828 -1.804687,-2.923828 -0.229367,-0.424321 -0.229367,-0.937007 0,-1.361328 0.1925,-0.3425 0.464844,-0.588906 0.785156,-0.765625 0.320313,-0.176719 0.689922,-0.283281 1.076172,-0.347656 0.7725,-0.12875 1.614297,-0.08594 2.279297,-0.08594 0.852921,-0.04028 1.686065,0.138749 2.429688,0.501953 0.743622,0.363205 1.398037,0.909959 1.890624,1.607422 0.365065,0.50318 0.832112,0.913265 1.363282,1.207031 0.531169,0.293767 1.125836,0.471917 1.746094,0.513672 1.035819,0.02276 2.068985,-0.05739 3.083984,-0.238281 1.014999,-0.180891 2.012378,-0.4626 2.976562,-0.841797 1.075,-0.345 2.405235,-0.710078 3.615235,-1.267578 0.605,-0.27875 1.179609,-0.605391 1.677734,-1.001953 0.498128,-0.396531 0.9193,-0.86239 1.2168,-1.41989 0.540234,-1.103238 0.800976,-2.323065 0.759766,-3.550781 0.005,-1.23 -0.258828,-2.452578 -0.830078,-3.455078 -0.285625,-0.50125 -0.648516,-0.947813 -1.091797,-1.3125 -0.443282,-0.364688 -0.968125,-0.647266 -1.578125,-0.822266 -1.22,-0.35 -2.51461,-0.458438 -3.78711,-0.648438 C 90.170859,72.950625 88.921015,72.68 87.791015,72 87.171213,71.587533 86.646488,71.059956 86.240234,70.453124 85.83398,69.846293 85.545572,69.159896 85.400391,68.429687 c -0.421303,-1.693633 -0.934475,-3.362819 -1.539063,-5 -0.53,-1.225 -1.282734,-2.3875 -1.833984,-3.59375 -0.275625,-0.603125 -0.501016,-1.217188 -0.623047,-1.855469 -0.122032,-0.638281 -0.141407,-1.301953 -0.0039,-2.001953 0.08,-0.42 0.228281,-1.011484 0.488281,-1.490234 0.26,-0.47875 0.632109,-0.843594 1.162109,-0.808594 0.331394,0.134102 0.641274,0.315097 0.919922,0.539063 1.53,0.999999 2.949766,2.250312 4.259766,3.320312 0.655,0.535 1.503359,1.140859 2.412109,1.537109 0.454375,0.198125 0.923984,0.343438 1.392578,0.402344 0.468594,0.05891 0.934766,0.03086 1.384766,-0.119141 0.678404,-0.284435 1.298798,-0.692371 1.830078,-1.201171 l 3.351562,-2.738282 c 1.155,-0.945 2.367342,-1.918906 3.496092,-2.972656 1.12875,-1.05375 2.17219,-2.188984 2.99219,-3.458984 0.36,-0.565 0.54992,-0.904375 0.60742,-1.234375 0.0575,-0.33 -0.0175,-0.650782 -0.1875,-1.175782 -0.315,-0.96 -0.24968,-1.95875 -0.14844,-2.96875 0.10125,-1.009999 0.24032,-2.03125 0.0703,-3.03125 -0.05,-0.27 -0.0186,-0.586562 -0.0273,-0.882812 -0.009,-0.29625 -0.0584,-0.570859 -0.27343,-0.755859 -0.40333,-0.421919 -0.67103,-0.955938 -0.76954,-1.53125 -0.4,-1.39 -0.0804,-2.85 -0.40039,-3 -0.20623,-0.137826 -0.37996,-0.317923 -0.50976,-0.529297 -0.445,-0.285 -1.03969,-0.340469 -1.64844,-0.324219 -0.60875,0.01625 -1.23242,0.103516 -1.73242,0.103516 -1.640538,-0.02803 -3.267009,-0.311272 -4.820314,-0.839844 -1.74492,-0.507185 -3.543887,-0.801546 -5.359375,-0.878906 -0.68,-0.06 -1.192969,-0.124453 -1.636719,-0.314453 -0.44375,-0.190001 -0.817656,-0.506407 -1.222656,-1.066407 -0.355,-0.48 -0.606328,-0.982734 -0.892578,-1.458984 -0.28625,-0.47625 -0.607422,-0.925781 -1.107422,-1.300781 -0.615,-0.47 -1.275703,-0.874297 -1.876953,-1.341797 -0.60125,-0.4675 -1.143438,-0.99875 -1.523438,-1.71875 -0.229487,-0.528617 -0.429397,-1.068571 -0.599609,-1.619141 -0.220858,-0.261712 -0.351804,-0.587782 -0.371094,-0.929687 1.577448,-0.474768 3.193796,-0.809399 4.830078,-1 1.977254,-0.375049 3.987811,-0.545716 6,-0.509766 h 5 c 0.833058,0.126577 1.684897,0.04715 2.480469,-0.230469 -0.26175,-0.700119 -0.596955,-1.370529 -1,-2 -0.308725,-0.649705 -0.739475,-1.234422 -1.269531,-1.720703 -0.558318,-0.483478 -1.180508,-0.886533 -1.84961,-1.199219 -0.474112,-0.19659 -0.988766,-0.275978 -1.5,-0.230468 -0.816306,0.06419 -1.623721,-0.06976 -2.359375,-0.375 -0.735653,-0.305237 -1.400561,-0.781055 -1.93164,-1.404297 -0.542589,-0.780162 -1.219838,-1.457411 -2,-2 -0.842093,-0.527825 -1.744885,-0.950716 -2.689453,-1.259766 -1.26,-0.4099994 -2.396016,-1.0734369 -3.541016,-1.7109369 -1.145,-0.6375 -2.299609,-1.2505468 -3.599609,-1.5605468 -0.965,-0.235 -1.962188,-0.2847657 -2.960938,-0.3535157 -0.99875,-0.06875 -1.99875,-0.1548437 -2.96875,-0.4648437 C 70.251346,5.819081 69.299773,5.226009 68.521484,4.4394531 68.030618,3.941789 67.479461,3.51115 66.882812,3.1582031 66.286164,2.8052562 65.643243,2.530392 64.970703,2.3398437 63.477999,2.0035531 61.949849,1.8450776 60.419922,1.8691406 59.326114,1.9654458 58.226199,1.7971565 57.210937,1.3789063 56.418614,0.98352793 55.533254,0.81071292 54.650391,0.87890622 Z M 269.14062,214.22842 c 2.11043,-2.38558 4.43826,-4.5861 6.83008,-6.68945 2.025,-1.775 3.52578,-2.88805 4.76953,-3.9668 1.24375,-1.07875 2.23047,-2.12367 3.23047,-3.76367 0.34,-0.53 1.14094,-2.14008 2.71094,-5.33008 1.41,-2.85 1.7,-3.99867 3,-6.13867 0.39387,-0.77998 0.87017,-1.51283 1.42187,-2.18359 0.5517,-0.67076 1.17786,-1.27943 1.86719,-1.81641 1.28505,-0.80377 2.70383,-1.36939 4.18945,-1.66992 2.76,-0.77 4.61,-1.06086 6.25,-1.38086 2.49,-0.47 2.13094,-0.56063 8.21094,-2.14062 7.25,-1.88 6.80906,-1.51 8.78906,-2.25 2.84469,-1.24597 5.60846,-2.67174 8.27149,-4.26954 2.64191,-1.35281 5.1953,-2.86815 7.64844,-4.53906 2.46391,-1.96688 4.71957,-4.18319 6.73046,-6.61133 1.57,-1.79 1.43,-1.81015 4,-4.91015 3.62,-4.38 3.94102,-4.36852 5.79102,-6.72852 1.38,-1.77 1.21906,-1.78992 5.78906,-8.91992 3.6,-5.61 4.57094,-7.00055 5.21094,-7.81055 1.53283,-2.19492 3.24453,-4.25861 5.11914,-6.16992 1.05697,-1.05405 2.17321,-2.04585 3.3418,-2.9707 1.16858,-0.92485 2.38951,-1.78377 3.6582,-2.57031 1,-0.59001 2.48094,-1.31907 5.46094,-2.78907 4.24,-2.09 4.36,-1.99945 6,-2.93945 2.1098,-1.18134 4.08079,-2.59427 5.8789,-4.21094 1.74316,-1.49573 3.272,-3.22609 4.54102,-5.14062 0.67,-1.045 0.91969,-1.65164 1.27344,-2.58789 0.35375,-0.93625 0.81148,-2.20055 1.89648,-4.560549 2,-4.55 1.90008,-3.32039 3.58008,-7.15039 0.57,-1.3 0.95125,-2.277735 1.375,-3.052735 0.42375,-0.775 0.89,-1.34789 1.625,-1.83789 0.74,-0.5 1.06851,-0.450391 3.72852,-1.150391 1.99081,-0.482285 3.95461,-1.0727 5.88085,-1.769531 2.54,-1 2.38055,-1.290078 5.56055,-2.580078 1.55371,-0.637602 3.13913,-1.194924 4.75,-1.669922 3.32,-1 3.48953,-0.609609 5.26953,-1.34961 1.79954,-0.825427 3.46182,-1.921453 4.92969,-3.25 1.4788,-1.1874 2.81193,-2.546667 4.08203,-3.955078 M 392.27148,331.16992 c -1.82021,-1.0675 -3.47151,-2.31811 -5.02148,-3.75 -1.06,-1 -1.86125,-1.7518 -2.46875,-2.4668 -0.6075,-0.715 -1.02078,-1.3939 -1.30078,-2.2539 -0.28,-0.86 -0.25071,-1.41094 -0.22071,-2.08594 0.03,-0.675 0.0612,-1.47399 -0.21875,-2.83399 -0.26949,-1.53363 -0.82651,-3.00272 -1.64062,-4.33007 -0.41689,-0.76174 -0.93903,-1.45661 -1.54688,-2.06446 -0.60784,-0.60784 -1.30076,-1.12803 -2.0625,-1.54492 -0.735,-0.37 -1.18773,-0.4382 -1.80273,-0.5332 -0.615,-0.095 -1.39235,-0.21727 -2.77735,-0.69727 -1.43,-0.49 -1.14937,-0.54953 -3.10937,-1.26953 -2.61,-1 -3.00117,-0.81125 -3.95117,-1.53125 -0.475,-0.36 -0.76907,-0.69953 -1.07031,-0.98828 -0.30125,-0.28875 -0.60938,-0.52664 -1.10938,-0.68164 -1,-0.31 -1.24937,0.13055 -2.35938,-0.18945 -1.11,-0.32 -0.79124,-0.65055 -2.28124,-1.31055 -0.66202,-0.21011 -1.28606,-0.52371 -1.84961,-0.92969 -0.28729,-0.24287 -0.5452,-0.51832 -0.76954,-0.82031 -0.465,-0.645 -0.58718,-1.35774 -0.61718,-2.17773 -0.03,-0.82 0.0325,-1.74727 -0.0625,-2.82227 -0.13653,-1.30401 -0.47384,-2.57837 -1,-3.7793 -0.55,-1.32 -0.87047,-1.48008 -2.48047,-4.08008 -1.44,-2.35 -1.29063,-2.41062 -2.14063,-3.64062 -1.00852,-1.43977 -2.17092,-2.7636 -3.46875,-3.94922 -1.78412,-1.66573 -3.72035,-3.16286 -5.78125,-4.4707 -3.2,-2.1 -3.6189,-1.92938 -7.6289,-4.35938 -1.7,-1 -3.22,-2.04937 -6.25,-4.10937 -3.31,-2.24 -3.8811,-2.71125 -7.6211,-5.28125 -3.74,-2.57 -5.68007,-3.90016 -7.33007,-4.91016 -2.91927,-1.88968 -5.97293,-3.5609 -9.13868,-5 -1.935,-0.85 -3.41547,-1.37531 -4.76172,-1.97656 -1.34625,-0.60125 -2.55898,-1.27859 -3.95898,-2.43359 -0.62691,-0.45719 -1.19786,-0.98257 -1.70117,-1.56641 -0.50331,-0.58384 -0.939,-1.22468 -1.29883,-1.91211 -0.37,-0.785 -0.58492,-1.58148 -0.73242,-2.52148 -0.1475,-0.94001 -0.22813,-2.02368 -0.32813,-3.38868 0.0103,-1.27895 -0.10974,-2.55614 -0.35937,-3.81054 -0.37442,-1.12654 -0.81869,-2.22945 -1.33008,-3.30078 -0.555,-1.5 -0.73078,-2.39196 -0.89453,-3.09571 -0.16375,-0.70375 -0.31617,-1.21789 -0.82617,-1.96289 -0.68142,-0.8448 -1.45497,-1.61093 -2.3086,-2.28125 -0.84,-0.74 -1.64132,-1.36945 -3.11132,-2.43945 -1.8107,-1.39948 -3.70405,-2.68786 -5.66993,-3.85938 -0.48,-0.28 -0.2,-0.0998 -4,-2.08984 l -2.76953,-1.44141 c -2.31,-1.16 -3.07984,-1.33875 -6.33984,-2.71875 -2.3,-1 -3.86063,-1.65117 -5.89063,-2.70117 -2.82,-1.46 -2.67015,-1.66937 -4.66015,-2.60937 -2.22849,-0.94274 -4.5229,-1.70983 -6.86328,-2.29493 -2.34039,-0.58509 -4.72677,-0.9882 -7.13672,-1.20507 -2.22533,-0.18001 -4.46344,-0.0387 -6.64844,0.41992 -1.46,0.325 -2.23516,0.67055 -3.09766,1.0918 -0.8625,0.42124 -1.81304,0.91882 -3.62304,1.54882 -2.6598,0.89619 -5.4086,1.49858 -8.19922,1.79883 -2.7107,0.27588 -5.43634,0.37997 -8.16016,0.31055 -5.15,0 -7.48789,-0.16563 -9.18164,-0.29688 -1.69375,-0.13125 -2.74336,-0.22875 -5.31836,-0.0937 -0.97111,0.12091 -1.94934,0.15206 -2.92187,0.0918 -0.97254,-0.0603 -1.93992,-0.21131 -2.88868,-0.45117 -1.26615,-0.49824 -2.56671,-0.90664 -3.89062,-1.2207 -2,-0.38 -2.38883,-0.0892 -3.54883,-0.44922 -0.84,-0.255 -1.42273,-0.6493 -1.99023,-1.18555 -0.5675,-0.53625 -1.12039,-1.21516 -1.90039,-2.03516 -1.39,-1.45 -0.80071,-0.52945 -7.22071,-5.68945 -1.58,-1.27 -2.91,-2.20047 -4.75,-3.48047 -1.17645,-0.89648 -2.41187,-1.71115 -3.69922,-2.43945 -0.665,-0.28 -1.25554,-0.42813 -2.18554,-0.48438 -0.93,-0.0563 -2.19961,-0.0205 -4.22461,0.0645 -3.17779,0.0438 -6.35011,0.2768 -9.5,0.69922 -1.92849,0.33752 -3.83184,0.80249 -5.69922,1.39062 l -47.890623,-0.39062 c -2.013866,-0.70393 -3.905738,-1.71596 -5.609375,-3 -1.035,-0.945 -1.548984,-1.73946 -2.083984,-2.47071 -0.535,-0.73125 -1.091797,-1.39789 -2.216797,-2.08789 -0.9,-0.55 -1.57289,-0.75305 -2.21289,-0.9668 -0.640001,-0.21375 -1.247579,-0.4382 -2.017579,-1.0332 -0.585499,-0.47897 -1.087299,-1.04508 -1.507812,-1.66797 -0.420513,-0.62289 -0.759035,-1.3042 -1.021485,-2.01367"
     style="fill:none;stroke:#000000;stroke-width:1;stroke-linecap:round;stroke-linejoin:round;stroke-miterlimit:4;stroke-dasharray:none;stroke-opacity:1;paint-order:fill markers stroke"
     id="path858" />
  <g
     transform="translate(-0.02929688,0.03906247)"
     id="Districts" />
</svg>
