<?xml version="1.0" encoding="UTF-8" standalone="no"?>
<svg
   xmlns:dc="http://purl.org/dc/elements/1.1/"
   xmlns:cc="http://creativecommons.org/ns#"
   xmlns:rdf="http://www.w3.org/1999/02/22-rdf-syntax-ns#"
   xmlns:svg="http://www.w3.org/2000/svg"
   xmlns="http://www.w3.org/2000/svg"
   viewBox="0 0 772.09266 586.65567"
   version="1.1"
   id="svg9"
   width="772.09265"
   height="586.6557">
  <metadata
     id="metadata13">
    <rdf:RDF>
      <cc:Work
         rdf:about="">
        <dc:format>image/svg+xml</dc:format>
        <dc:type
           rdf:resource="http://purl.org/dc/dcmitype/StillImage" />
        <dc:title></dc:title>
      </cc:Work>
    </rdf:RDF>
  </metadata>
  <defs
     id="defs4">
    <style
       id="style2">.cls-1{fill:none;stroke:#231f20;stroke-miterlimit:10;}</style>
  </defs>
  <g
     transform="translate(4.995623e-4,-0.00245597)"
     id="layer3"
     style="opacity:1">
    <path
       id="path854-9-6-5"
       style="display:inline;opacity:1;fill:none;stroke:#000000;stroke-width:1;stroke-miterlimit:4;stroke-dasharray:none;stroke-opacity:1"
       d="m 519.83284,357.40695 c -0.98469,3.72988 -0.40443,7.01734 2.52033,11.10431 1.51219,2.11215 3.48157,3.84735 4.14975,6.42881 0.81471,3.15187 0.36339,5.57962 0.36339,8.76655 0,5.24416 -1.10777,11.04645 0.18756,15.74533 0.67404,2.44879 5.19305,2.23664 5.79675,4.25879 0.67991,2.26937 -1.26602,3.96541 -1.1488,6.29556 0.11137,2.25651 1.8756,3.93151 2.87787,5.84145 0.63493,1.37933 0.92649,2.71742 2.10045,3.3673 -33.00813,8.89162 -66.17848,17.83372 -95.85305,25.82738 -0.36315,-1.17018 -0.60927,-2.42845 -0.67938,-4.0621 -0.0586,-1.57331 0.12953,-3.13843 1.33108,-4.31607 2.32046,-2.27522 6.42215,-4.9648 9.21444,-6.63629 1.34691,-0.80594 3.23307,-1.28927 3.31687,-3.10511 0.15122,-3.28805 -4.01436,-5.99633 -4.43343,-9.31885 -0.36868,-2.92453 2.365,-9.03599 1.3176,-11.60225 -0.72562,-1.77845 -4.92167,-1.93566 -5.7317,-3.72637 -2.02739,-4.48556 1.21542,-12.32723 1.98324,-16.26225 0.0365,-0.27765 0.009,-0.41475 0.0451,-0.69241 2.17313,-0.8861 3.70703,-2.93363 5.26905,-4.4894 4.53776,-4.52121 9.41646,-9.60476 14.03569,-14.0646 1.24786,-1.20453 2.70203,-3.1209 4.52604,-2.90933 1.60012,0.18585 1.94417,2.88303 3.75764,3.27343 2.17686,0.46872 3.60465,-0.82464 4.82789,-2.18988 2.38962,-2.66737 2.42303,-4.47854 3.23481,-8.69175 0.92666,-4.80934 10.87375,-3.53877 14.58449,-6.73798 2.00982,-1.73286 1.79295,-4.88531 4.2998,-6.12724 2.03795,-1.00932 3.57359,0.95029 4.74056,2.33892 2.75126,3.27927 3.87661,9.02429 8.09084,10.0342 1.75536,0.41982 3.57239,1.22401 5.26514,1.21057 0.15249,0.11881 0.0366,0.28733 0.01,0.43928 z" />
    <g
       style="display:inline;opacity:1;stroke:#000000;stroke-width:1;stroke-miterlimit:4;stroke-dasharray:none;stroke-opacity:1"
       transform="translate(6.6979231e-4,0.00419459)"
       data-name="Layer 2"
       id="Layer_2-0">
      <g
         id="Districts-0"
         style="stroke:#000000;stroke-width:1;stroke-miterlimit:4;stroke-dasharray:none;stroke-opacity:1" />
    </g>
    <path
       d="M 241.86067,585.71419 0.6505,421.90419 51.93136,324.73059 h 189.92931 z"
       style="display:inline;opacity:1;fill:none;stroke:#000000;stroke-width:1;stroke-miterlimit:4;stroke-dasharray:none;stroke-opacity:1"
       id="path854-9-1" />
    <path
       id="path854-9-6-8"
       style="display:inline;opacity:1;fill:none;stroke:#000000;stroke-width:1;stroke-miterlimit:4;stroke-dasharray:none;stroke-opacity:1"
       d="m 241.86058,585.71359 9e-5,-260.983 144.88009,6e-5 c -0.47569,1.75905 1.33929,3.5786 2.94995,5.00931 3.49447,3.10453 9.34404,5.62813 9.34104,10.68702 -10e-4,2.35645 -0.77016,4.66497 -0.33057,7.01324 0.75082,4.01626 2.22199,6.79233 0.62363,11.10431 -1.0644,2.869 -5.64202,7.5182 -3.17268,10.76008 3.41182,4.48029 11.58178,3.76786 15.67702,6.69005 4.49615,3.20798 4.59814,12.61216 10.08952,14.59106 2.96519,1.06835 4.1222,-4.16528 7.04871,-4.46101 2.78057,-0.28053 4.93691,2.01684 7.61081,1.97014 2.32514,-0.0403 8.40011,-1.96 10.61272,-2.77412 0.0718,0.28287 -0.0238,0.39843 -0.0625,0.69235 -0.76782,3.93502 -4.01845,11.74544 -1.99106,16.231 0.81003,1.79071 5.00608,1.94792 5.7317,3.72637 1.0474,2.56626 -1.68628,8.67772 -1.3176,11.60225 0.41907,3.32252 4.58465,6.0308 4.43343,9.31885 -0.0838,1.81584 -1.96996,2.29917 -3.31687,3.10511 -2.79229,1.67149 -6.89398,4.36107 -9.21444,6.63629 -1.05785,1.40261 -2.05326,3.47073 -0.65385,8.32745 l -2.9395,0.75306 -43.31999,30.94291 -152.67984,109.05722" />
    <path
       id="path854-9-6-4"
       style="display:inline;opacity:1;fill:none;stroke:#000000;stroke-width:1;stroke-miterlimit:4;stroke-dasharray:none;stroke-opacity:1"
       d="m 257.99133,17.134872 208.07244,96.859688 c 1.96815,3.67844 -5.1454,8.63342 -6.16115,11.41418 -1.32171,3.61941 3.01033,8.49829 2.48985,12.22115 -0.4349,3.11096 -4.41819,4.95019 -4.2617,8.1044 0.0867,1.74279 2.34918,2.44587 3.20375,3.71526 1.157,1.71708 0.71683,3.26525 1.72965,5.10623 1.47937,2.68841 4.10249,3.31262 4.59483,6.45222 v 80.067 L 386.63,324.75 51.93136,324.73057 198.4239,46.551692 l 0.59884,-0.05957 c 5.45681,0 16.1682,-1.10518 22.27267,0.41495 1.66986,0.41553 3.01325,0.63411 4.68898,0.94152 2.60531,0.47749 6.88342,3.08175 8.61659,2.43828 1.73317,-0.64346 1.39438,-1.64753 2.69499,-3.11213 1.30061,-1.4646 3.38838,-3.72228 5.78562,-5.56326 2.39724,-1.84098 8.27928,-1.31469 9.79294,-4.07119 1.51366,-2.7565 -3.35967,-6.01952 -3.71095,-6.23136 -0.35129,-0.21184 -1.36155,-0.36931 -2.07877,-0.59662 -0.71722,-0.22731 10.48909,-8.24813 11.01133,-12.92643 z" />
    <path
       id="path854-9-6-3"
       style="display:inline;opacity:1;fill:none;stroke:#000000;stroke-width:1;stroke-miterlimit:4;stroke-dasharray:none;stroke-opacity:1"
       d="m 258.28364,17.270252 c -0.16869,5.20864 -11.91605,13.21475 -11.19883,13.44206 0.71722,0.22731 1.72748,0.38478 2.07877,0.59662 0.35128,0.21184 5.22461,3.47486 3.71095,6.23136 -1.51366,2.7565 -7.3957,2.23021 -9.79294,4.07119 -2.39724,1.84098 -4.48501,4.09866 -5.78562,5.56326 -1.30061,1.4646 -0.96182,2.46867 -2.69499,3.11213 -1.73317,0.64347 -6.01128,-1.96079 -8.61659,-2.43828 -1.67573,-0.30741 -3.01912,-0.52599 -4.68898,-0.94152 -7.55801,-1.4939 -15.283,-0.48949 -22.87151,-0.35538 L 222.59329,0.6566517 Z" />
    <path
       d="m 459.84793,125.51806 c -1.32171,3.61941 3.01033,8.49829 2.48985,12.22115 -0.4349,3.11096 -4.41819,4.95019 -4.2617,8.1044 0.0867,1.74279 2.34918,2.44587 3.20375,3.71526 1.157,1.71708 0.71683,3.26525 1.72965,5.10623 1.47937,2.68841 4.15718,3.2033 4.64952,6.3429 l -10e-6,80.067 L 386.63,324.75 c -0.20014,1.89466 1.69352,3.81367 3.10863,5.07068 3.49447,3.10453 9.34415,5.65938 9.34122,10.71827 -0.001,2.35645 -0.77016,4.66497 -0.33057,7.01324 0.75082,4.01626 2.22199,6.79233 0.62363,11.10431 -1.0644,2.869 -5.64202,7.5182 -3.17268,10.76008 3.41182,4.48029 11.58178,3.76786 15.67702,6.69005 4.49615,3.20798 4.59814,12.61216 10.08952,14.59106 2.96519,1.06835 4.1222,-4.16528 7.04871,-4.46101 2.78057,-0.28053 4.93691,2.01689 7.61081,1.97014 2.32514,-0.0403 8.2713,-2.06101 10.48391,-2.87513 2.11063,-0.77672 3.77938,-2.9108 5.3414,-4.46657 4.53776,-4.52121 9.44771,-9.55789 14.06694,-14.01773 1.24786,-1.20453 2.70203,-3.1209 4.52604,-2.90933 1.60012,0.18585 1.94417,2.88303 3.75764,3.27343 2.17686,0.46872 3.60465,-0.82464 4.82789,-2.18988 2.38962,-2.66737 2.42303,-4.47854 3.23481,-8.69175 0.92666,-4.80934 10.87375,-3.53877 14.58449,-6.73798 2.00982,-1.73286 1.79295,-4.88531 4.2998,-6.12724 2.03795,-1.00932 3.57359,0.95029 4.74056,2.33892 2.75126,3.27927 3.87661,9.02429 8.09084,10.0342 2.36793,0.56632 4.81792,1.69136 6.97486,0.80419 3.72187,-1.53474 5.11685,-7.19326 6.94555,-10.84307 3.44054,-6.85954 6.92797,-13.67466 10.5209,-20.4553 1.53564,-2.89589 2.71375,-6.81922 5.09341,-9.1067 1.89904,-1.82696 4.9879,-2.63523 7.39101,-3.66326 5.69125,-2.43535 13.25809,-7.24527 19.34204,-8.00796 2.92476,-0.36585 4.2787,2.80121 7.03348,2.81465 5.80261,0.0281 10.47401,-4.24126 16.41143,-4.24535 0,-10.86001 1.55323,-30.18092 -0.11136,-42.0789 -0.9378,-6.71284 -7.32653,-2.87894 -10.73777,-6.19737 -1.81698,-1.76734 0.32823,-5.02032 0.37512,-7.2365 0.0703,-3.58728 -4.18492,-5.74911 -6.52355,-6.54921 -0.2984,-0.10213 -0.5878,-0.16133 -0.86843,-0.18791 -1.51636,-0.1436 -2.77697,0.66528 -3.82055,0.8004 -1.68803,0.21857 -2.53691,0.52956 -4.76785,-0.0835 -3.90958,-1.07433 -5.12004,-4.39389 -7.62864,-7.01334 -6.16015,-6.42706 -12.90642,-12.78807 -19.25413,-19.11986 -2.25071,-2.24424 -6.58216,-5.48612 -7.03348,-8.76832 -0.41028,-3.00576 1.82285,-5.53286 2.71961,-8.17978 1.94593,-5.74969 2.75478,-7.77711 9.58897,-8.15699 3.07128,-0.17066 6.92797,0.85737 8.60428,-1.9117 0.84988,-1.40323 3.53432,-6.04541 3.50502,-7.46209 -0.0527,-2.22495 -2.8427,-2.78484 -4.05597,-4.32133 -1.23672,-1.56746 -1.12536,-3.89878 -2.19796,-5.59131 -1.21914,-1.92397 -3.78636,-2.62412 -4.32559,-4.76083 -0.53337,-2.13553 5.14616,-7.66197 6.94556,-8.76247 1.54736,-0.94971 3.88834,-0.15688 5.44742,0.47253 l 0.83394,0.29168 c -31.66682,-14.74127 -63.2651,-29.61736 -94.92416,-44.3236 1.97713,3.71347 -5.20009,8.74274 -6.21584,11.5235 z"
       style="opacity:1;fill:none;stroke:#000000;stroke-width:1;stroke-linecap:butt;stroke-linejoin:miter;stroke-miterlimit:4;stroke-dasharray:none;stroke-opacity:1"
       id="path1185" />
    <path
       d="m 594.29334,303.13494 c 4.2553,3.67027 10.14,6.84142 15.2392,9.93719 2.0163,1.22381 4.1791,3.41486 6.4474,4.03963 2.1393,0.5897 4.3256,-2.30035 6.3242,-1.55402 1.9753,0.73873 2.3094,3.07531 4.2846,4.21438 3.675,2.11391 6.1484,0.40852 9.9055,1.19634 2.362,0.49502 3.9973,2.07475 6.4473,2.12034 1.354,0.0251 2.7607,0.13325 3.9153,-0.43541 1.606,-0.79133 1.3422,-2.66795 1.3598,-4.32308 0.018,-1.70889 -0.3575,-4.06593 1.3598,-4.90752 2.8662,-1.40791 7.8424,-0.85211 10.1106,1.0701 2.3445,1.98417 3.804,7.05425 7.2856,6.17166 1.0206,-0.25873 1.9466,-0.73893 2.7996,-1.37711 l 0.131,0.21174 13.4632,9.98804 0.018,50.79344 -146.7043,38.93439 c -1.174,-0.64988 -1.4655,-1.98797 -2.1005,-3.3673 -1.0022,-1.90994 -2.7665,-3.58494 -2.8778,-5.84145 -0.1172,-2.33015 1.8287,-4.02619 1.1488,-6.29556 -0.6037,-2.02215 -5.1227,-1.81 -5.7968,-4.25879 -1.2953,-4.69888 -0.1875,-10.50117 -0.1875,-15.74533 0,-3.18693 0.4513,-5.61468 -0.3634,-8.76655 -0.6682,-2.58146 -2.6376,-4.31666 -4.14977,-6.42881 -1.88751,-2.68502 -3.60928,-6.63058 -2.52031,-11.10431 0.57422,-0.255 1.14843,-0.51 1.72265,-0.765 3.72183,-1.53474 5.11683,-7.19326 6.94553,-10.84307 3.4406,-6.85954 6.928,-13.67466 10.5209,-20.4553 1.5357,-2.89589 2.7138,-6.81922 5.0934,-9.1067 1.8991,-1.82696 4.9879,-2.63523 7.391,-3.66326 5.6913,-2.43535 13.2581,-7.24527 19.3421,-8.00796 2.9247,-0.36585 4.2787,2.80121 7.0335,2.81465 5.8026,0.0281 10.474,-4.24126 16.4114,-4.24535"
       style="display:inline;opacity:1;fill:none;stroke:#000000;stroke-width:1;stroke-miterlimit:4;stroke-dasharray:none;stroke-opacity:1"
       id="path854-9-6-5-1" />
    <path
       id="path1185-4"
       style="opacity:1;fill:none;stroke:#000000;stroke-width:1;stroke-linecap:butt;stroke-linejoin:miter;stroke-miterlimit:4;stroke-dasharray:none;stroke-opacity:1"
       d="m 677.06024,309.10088 6.9104,-2.79069 9.9619,-0.23001 c 0.215,2.3668 0.5879,4.71734 1.1165,7.03586 0.79,2.91 2.66,5.27 4.07,7.91 1.0648,1.79425 1.9555,3.68619 2.66,5.65 0.34,1.08 0.52,2.15 0.94,3.22 0.4599,1.36628 1.2993,2.57336 2.42,3.48 1.321,0.85423 2.4623,1.95823 3.36,3.25 1.09,1.82 1,4.18 2.11,6 1,1.57 3.36,1.9 5,2.44 2.16,0.71 4.47,1.19 6.42,2.4 1.5709,1.07263 3.2461,1.98392 5,2.72 1.45,0.56 2.24,0.21 3.61,-0.49 1.34,-0.51426 2.3641,-1.62331 2.77,-3 0.105,-0.93601 0.2687,-1.8645 0.49,-2.78 0.89,-2.54 3.66,-3.49 6.21,-3.49 1.4565,-0.003 2.9107,-0.1171 4.35,-0.34 2.0487,-0.17176 4.1065,-0.2085 6.16,-0.11 1.5888,-0.12859 3.1849,0.13228 4.65,0.76 0.8239,0.57903 1.7052,1.07163 2.63,1.47 2.1,0.71 3.92,0.92 5.53,2.61 1.554,1.78827 2.7552,3.85469 3.54,6.09 0.6357,1.57121 1.6697,2.94978 3,4 1,0.89 1.22,1.14 1.22,1.14 l -87.8046,24.23462 -0.018,-50.79344 -13.4632,-9.98804 -0.1972,-0.16226 c 3.41908,-2.88089 5.42061,-6.84192 7.3542,-10.23604 z" />
    <path
       id="path1185-2"
       style="opacity:1;fill:none;stroke:#000000;stroke-width:1;stroke-linecap:butt;stroke-linejoin:miter;stroke-miterlimit:4;stroke-dasharray:none;stroke-opacity:1"
       d="m 677.05967,309.10088 6.9104,-2.79069 9.9629,-0.23019 c -0.1093,-0.66707 -0.2397,-1.3121 -0.2455,-1.99396 0.01,-1.31043 -0.2377,-2.59859 -0.8989,-3.73 -0.72,-1.03 -1.26,-1.05 -1.26,-2.44 -0.05,-1.82 0.59,-3.57 0.54,-5.39 -0.05,-1.82 -1.36,-2.24 -2.9,-2.73 -1.54,-0.49 -3.09,-1.03 -4.65,-1.44 -2.2978,-0.54232 -4.7069,-0.36426 -6.9,0.51 -1.84,0.59 -3.59,1.43 -5.45,2 -0.8172,0.22177 -1.6162,0.50594 -2.39,0.85 -0.8524,0.44125 -1.6531,0.97313 -2.3887,1.58561 3.1415,6.15257 5.93174,10.77262 9.6698,15.79923 z" />
    <path
       id="path1185-49"
       style="opacity:1;fill:none;stroke:#000000;stroke-width:1;stroke-linecap:butt;stroke-linejoin:miter;stroke-miterlimit:4;stroke-dasharray:none;stroke-opacity:1"
       d="m 594.29335,303.13494 c 4.2553,3.67027 10.1399,6.84142 15.2392,9.93719 2.0163,1.22381 4.1791,3.41486 6.4473,4.03963 2.1394,0.5897 4.3256,-2.30035 6.3243,-1.55402 1.9752,0.73873 2.3093,3.07531 4.2846,4.21438 3.675,2.11391 6.1484,0.40852 9.9054,1.19634 2.3621,0.49502 3.9974,2.07475 6.4474,2.12034 1.3539,0.0251 2.7606,0.13325 3.9153,-0.43541 1.606,-0.79133 1.3422,-2.66795 1.3598,-4.32308 0.018,-1.70889 -0.3575,-4.06593 1.3598,-4.90752 2.8661,-1.40791 7.8423,-0.85211 10.1106,1.0701 2.3445,1.98417 3.804,7.05416 7.2855,6.17166 4.5718,-1.15894 7.5492,-7.09729 9.8313,-11.15549 0.1035,-0.15429 0.2696,-0.2617 0.2559,-0.40818 -3.7094,-4.85183 -6.8515,-10.52271 -9.744,-15.72439 -0.3332,0.27872 -0.6021,0.51861 -0.9071,0.82955 -2.12,2.08 -4.31,3.91 -6.59,5.81 -1.15,0.96 -1.74,1.59 -3.31,1.68 -1.9973,0.17677 -4.0073,0.15332 -6,-0.07 -2.21,-0.39 -2.78,-2.11 -3.59,-4 -0.6946,-1.88055 -1.8704,-3.54598 -3.41,-4.83 -1.8,-1.51 -3.73,-2.83 -5.5,-4.38 -1.1239,-1.16297 -2.1854,-2.38469 -3.18,-3.66 -0.6712,-0.62959 -1.3056,-1.29737 -1.9,-2 -1.03,-1.38 0.1,-3.37 0.49,-4.82 0.54,-2.02 1.07,-3.82 0,-5.72 -0.8434,-1.43814 -1.3812,-3.0347 -1.58,-4.69 -0.39,-2.63 -0.39,-4.74 -1.39,-7.29 -1.12,-2.81 -2.53,-5.7 -2.75,-8.81 -0.25,-3.62 0.34,-7.1 -0.92,-10.57 -0.29,-0.79 -0.91,-1.82 -0.58,-2.64 0.24,-0.6 1.58,-1.05 2.11,-1.28 1.94,-0.86 4,-1.46 6,-2.21 4.86,-1.86 10.09,-3.7 14.56,-6.42 0.7156,-0.57196 1.5106,-1.03682 2.36,-1.38 0.88,-0.16 1.32,0.23 2.32,-0.1 2.3039,-0.91225 4.5226,-2.02659 6.63,-3.33 1.8,-0.98 3.61,-1.93333 5.43,-2.86 0.8972,-0.51788 1.8543,-0.92422 2.85,-1.21 0.91,-0.15 0.94,-0.33 1.76,0.29 0.82,0.62 1.17,1.37 2.17,1.85 2.5,1.22 6.38,1.33 7.81,4.06 0.98,1.88 0.59,3.48 2.59,4.66 0.99,0.58 2.12,0.82 3.12,1.37 1.51,0.83 1.97,2 2.66,3.45 1.47,3.09 4.12,4.26 7.37,4.89 0.9303,0.0937 1.8527,0.2541 2.76,0.48 1.05,0.38 1.49,1.38 2.58,1.71 1.4,0.43 3.74,-0.47 5.08,-0.88 3.09,-0.95 5.75,-2.79 8.5,-4.41 1.7839,-1.00122 3.4595,-2.18417 5,-3.53 l 0.82,-0.71 -90.0867,-41.93641 c 0.075,0.1667 0.2766,0.43283 0.4176,0.58295 5.0285,4.2687 -5.5581,7.8883 -8.1663,10.04721 -5.2458,4.33068 -9.4423,9.76432 -15.7549,12.94133 -3.5519,1.78663 -6.3829,-0.59847 -9.2783,-1.15953 -0.1348,3.73047 2.1921,5.93556 -0.6975,9.93544 -3.6398,5.04253 -9.6065,9.31535 -14.5417,12.2276 -2.6434,1.5587 -4.4135,2.02449 -5.8612,4.72109 -0.1605,0.28978 -0.2585,0.57566 -0.2823,0.86935 0.2806,0.0266 0.57,0.0858 0.8684,0.18791 2.3386,0.8001 6.5935,2.96193 6.5235,6.54921 -0.047,2.21618 -2.1921,5.46916 -0.3751,7.2365 3.4113,3.31843 9.8,-0.51547 10.7378,6.19737 1.6646,11.89798 0.1114,31.21889 0.1114,42.0789" />
    <path
       id="path1185-9"
       style="opacity:1;fill:none;stroke:#000000;stroke-width:1;stroke-linecap:butt;stroke-linejoin:miter;stroke-miterlimit:4;stroke-dasharray:none;stroke-opacity:1"
       d="m 560.15403,158.02648 c -1.5591,-0.62941 -3.9001,-1.42224 -5.4475,-0.47253 -1.7994,1.1005 -7.4789,6.62694 -6.9455,8.76247 0.5392,2.13671 3.1064,2.83686 4.3256,4.76083 1.0726,1.69253 0.9612,4.02385 2.1979,5.59131 1.2133,1.53649 4.003,2.09638 4.056,4.32133 0.029,1.41668 -2.6551,6.05886 -3.505,7.46209 -1.6763,2.76907 -5.533,1.74104 -8.6043,1.9117 -6.8342,0.37988 -7.643,2.4073 -9.589,8.15699 -0.8967,2.64692 -3.1299,5.17402 -2.7196,8.17978 0.4513,3.2822 4.7828,6.52408 7.0335,8.76832 6.3477,6.33179 13.094,12.6928 19.2541,19.11986 2.5086,2.61945 3.7191,5.93901 7.6287,7.01334 2.2309,0.61306 3.0798,0.30207 4.7678,0.0835 1.0436,-0.13512 2.3042,-0.944 3.8206,-0.8004 0.1009,-0.56717 0.2823,-0.86935 0.2823,-0.86935 1.4477,-2.6966 3.2178,-3.16239 5.8612,-4.72109 4.9352,-2.91225 10.9019,-7.18507 14.5417,-12.2276 2.8896,-3.99988 0.5627,-6.20497 0.6975,-9.93543 2.8954,0.56106 5.7264,2.94615 9.2783,1.15952 6.3126,-3.177 10.3158,-8.6935 15.5616,-13.02418 2.6082,-2.15891 13.5981,-5.79508 8.5696,-10.06378 -0.1745,-0.13908 -0.3816,-0.35549 -0.6276,-0.48352 -23.2013,-10.80049 -46.4027,-21.60099 -69.604,-32.40148 z" />
  </g>
</svg>
