<?xml version="1.0" encoding="UTF-8" standalone="no"?>
<svg
   xmlns:dc="http://purl.org/dc/elements/1.1/"
   xmlns:cc="http://creativecommons.org/ns#"
   xmlns:rdf="http://www.w3.org/1999/02/22-rdf-syntax-ns#"
   xmlns:svg="http://www.w3.org/2000/svg"
   xmlns="http://www.w3.org/2000/svg"
   height="586.06055"
   width="771.49023"
   id="svg9"
   version="1.1"
   viewBox="0 0 771.49024 586.06052">
  <metadata
     id="metadata13">
    <rdf:RDF>
      <cc:Work
         rdf:about="">
        <dc:format>image/svg+xml</dc:format>
        <dc:type
           rdf:resource="http://purl.org/dc/dcmitype/StillImage" />
        <dc:title></dc:title>
      </cc:Work>
    </rdf:RDF>
  </metadata>
  <defs
     id="defs4">
    <style
       id="style2">.cls-1{fill:none;stroke:#231f20;stroke-miterlimit:10;}</style>
  </defs>
  <path
     d="M 241.71092,585.56053 V 323.85155 L 52.095688,323.77538 0.49998493,421.74999 Z"
     style="fill:none;stroke:#000000;stroke-linecap:round;stroke-linejoin:round;stroke-opacity:1;paint-order:fill markers stroke"
     id="rect908" />
  <path
     d="m 441.00779,444.67186 c -0.29135,-0.60541 -0.71444,-1.4851 -1.07226,-2.42383 -0.35783,-0.93872 -0.65064,-1.93654 -0.68164,-2.78125 -0.0292,-0.78656 0.004,-1.57157 0.19336,-2.30664 0.18933,-0.73506 0.53577,-1.42101 1.13476,-2.00976 1.15675,-1.13748 2.75647,-2.37737 4.41602,-3.54297 1.65954,-1.1656 3.37754,-2.25615 4.76953,-3.0918 0.67143,-0.40291 1.4786,-0.72532 2.12695,-1.17383 0.32418,-0.22425 0.60931,-0.47974 0.81836,-0.79297 0.20905,-0.31322 0.34226,-0.68476 0.36328,-1.13867 0.0377,-0.82191 -0.19367,-1.60689 -0.56836,-2.375 -0.37468,-0.7681 -0.89385,-1.51792 -1.42968,-2.26953 -0.53584,-0.75161 -1.0894,-1.50493 -1.53516,-2.27734 -0.44576,-0.77242 -0.78421,-1.564 -0.88867,-2.39453 -0.0919,-0.73105 0.01,-1.66136 0.19726,-2.68555 0.18751,-1.02419 0.4624,-2.14302 0.71485,-3.25 0.25244,-1.10698 0.48302,-2.20223 0.58593,-3.18164 0.10292,-0.97941 0.0775,-1.84289 -0.18359,-2.48438 -0.18085,-0.44455 -0.57744,-0.7873 -1.08398,-1.08007 -0.50655,-0.29278 -1.12357,-0.5366 -1.74219,-0.7793 -0.61863,-0.2427 -1.23878,-0.48499 -1.75586,-0.7793 -0.51708,-0.29431 -0.9309,-0.64026 -1.13281,-1.08789 -0.50533,-1.12126 -0.68191,-2.50198 -0.65039,-4.00586 0.0315,-1.50387 0.27107,-3.1298 0.59765,-4.73828 0.65317,-3.21695 1.65435,-6.36476 2.03711,-8.33203 -1.103,0.40702 -3.15266,1.12819 -5.21679,1.75391 -2.06414,0.62571 -4.14168,1.15563 -5.30079,1.17578 -0.66647,0.0117 -1.30016,-0.12373 -1.91992,-0.32813 -0.61976,-0.2044 -1.22536,-0.47745 -1.83398,-0.74414 -0.60862,-0.26669 -1.22047,-0.52794 -1.85352,-0.70312 -0.63305,-0.17519 -1.28741,-0.26544 -1.98047,-0.19532 -0.72946,0.0739 -1.3494,0.45717 -1.91406,0.97266 -0.56466,0.51549 -1.07461,1.16369 -1.58594,1.76953 -0.51132,0.60585 -1.02428,1.16868 -1.59375,1.51367 -0.28473,0.1725 -0.58413,0.2906 -0.90429,0.33203 -0.32017,0.0414 -0.65976,0.007 -1.0293,-0.12695 -0.68437,-0.24733 -1.28481,-0.61171 -1.82031,-1.06445 -0.53551,-0.45275 -1.0069,-0.99466 -1.43164,-1.59961 -0.84949,-1.20991 -1.51534,-2.6704 -2.15039,-4.16992 -0.63506,-1.49953 -1.23939,-3.03687 -1.96485,-4.40039 -0.36273,-0.68176 -0.75478,-1.32072 -1.19726,-1.88868 -0.44249,-0.56795 -0.93576,-1.06584 -1.4961,-1.46679 -1.02076,-0.73047 -2.29458,-1.23434 -3.68554,-1.64844 -1.39097,-0.4141 -2.8988,-0.73777 -4.38477,-1.11133 -1.48597,-0.37355 -2.95008,-0.79546 -4.25586,-1.40429 -0.65289,-0.30442 -1.26602,-0.65536 -1.82226,-1.07032 -0.55625,-0.41495 -1.05528,-0.8951 -1.48047,-1.45507 -0.30775,-0.40519 -0.50649,-0.83246 -0.61524,-1.2754 -0.10875,-0.44293 -0.1292,-0.9009 -0.0801,-1.36914 0.0982,-0.93647 0.47214,-1.91203 0.95508,-2.875 0.96589,-1.92593 2.37176,-3.80394 2.90235,-5.23828 0.39839,-1.07786 0.60675,-2.06096 0.68164,-2.99023 0.0749,-0.92928 0.0172,-1.80445 -0.11328,-2.67188 -0.26107,-1.73484 -0.81515,-3.43351 -1.18946,-5.4414 -0.21911,-1.174 -0.13718,-2.33882 0,-3.50391 0.13718,-1.16508 0.33008,-2.32972 0.33008,-3.50781 3.7e-4,-0.63229 -0.0918,-1.22601 -0.25781,-1.78516 -0.16599,-0.55915 -0.40665,-1.08384 -0.70703,-1.58203 -0.60078,-0.99638 -1.4382,-1.88342 -2.38477,-2.70898 -1.89314,-1.65114 -4.22282,-3.05729 -5.96484,-4.60938 -0.66056,-0.58844 -1.43748,-1.28237 -2.05664,-2.04687 -0.61917,-0.76451 -1.08023,-1.59993 -1.10938,-2.47657 l -144.0957,0.10352 v 261.70898 l 196,-140 z"
     style="fill:none;stroke:#000000;stroke-linecap:round;stroke-linejoin:round;stroke-opacity:1;paint-order:fill markers stroke"
     id="path951" />
  <path
     d="m 537.31053,418.7285 c -0.56979,-0.26121 -1.41525,-1.10677 -2.1836,-2.01367 -0.76834,-0.90689 -1.45972,-1.87323 -1.72265,-2.37695 -0.49966,-0.95486 -1.18905,-1.85157 -1.76758,-2.79102 -0.57853,-0.93944 -1.04604,-1.92265 -1.10156,-3.05078 -0.0292,-0.58247 0.0697,-1.12441 0.22461,-1.64648 0.15486,-0.52208 0.36575,-1.02403 0.55859,-1.52344 0.19284,-0.49942 0.36644,-0.99724 0.45117,-1.51172 0.0847,-0.51448 0.0796,-1.046 -0.0898,-1.61328 -0.15046,-0.50548 -0.54498,-0.87113 -1.0625,-1.17383 -0.51753,-0.3027 -1.15798,-0.54204 -1.80078,-0.79492 -0.64281,-0.25289 -1.28816,-0.51897 -1.81446,-0.875 -0.52629,-0.35603 -0.93356,-0.80193 -1.10156,-1.41406 -0.32287,-1.17459 -0.49614,-2.41855 -0.57422,-3.70508 -0.0781,-1.28653 -0.0612,-2.61633 -0.004,-3.96289 0.11467,-2.69314 0.39062,-5.4544 0.39062,-8.07617 0,-1.59329 0.11403,-2.99736 0.125,-4.39649 0.011,-1.39912 -0.0802,-2.79339 -0.48633,-4.36914 -0.33312,-1.29058 -0.99129,-2.36829 -1.7539,-3.38867 -0.76261,-1.02038 -1.63096,-1.98311 -2.38477,-3.03906 -0.72901,-1.02163 -1.31296,-2.02611 -1.76562,-3.01563 -0.45267,-0.98952 -0.77257,-1.96379 -0.97071,-2.92773 -0.19813,-0.96394 -0.2748,-1.91644 -0.24023,-2.86133 0.0346,-0.94489 0.18034,-1.88209 0.42578,-2.81445 -0.842,0.005 -1.71155,-0.17408 -2.58789,-0.40625 -0.87634,-0.23218 -1.75996,-0.51721 -2.63281,-0.72657 -1.05042,-0.25244 -1.90758,-0.80143 -2.64649,-1.5332 -0.73891,-0.73177 -1.3593,-1.64673 -1.93359,-2.63281 -0.5743,-0.98609 -1.10358,-2.04319 -1.66016,-3.0586 -0.55657,-1.0154 -1.14042,-1.98887 -1.82617,-2.80859 -0.5817,-0.69423 -1.25493,-1.5311 -2.03711,-2.06836 -0.39109,-0.26863 -0.81036,-0.46192 -1.25781,-0.52539 -0.44745,-0.0635 -0.92366,0.002 -1.43164,0.25391 -0.62484,0.31044 -1.08085,0.74107 -1.44336,1.23828 -0.36251,0.4972 -0.63231,1.06266 -0.88672,1.64258 -0.25441,0.57991 -0.49241,1.17385 -0.79297,1.73242 -0.30056,0.55856 -0.66312,1.08051 -1.16406,1.51367 -0.46246,0.39985 -1.02139,0.73093 -1.64844,1.01172 -0.62705,0.28079 -1.32246,0.51191 -2.05469,0.71484 -1.46445,0.40587 -3.07878,0.69739 -4.60742,1.03906 -1.52864,0.34168 -2.97041,0.73273 -4.08789,1.33985 -0.55874,0.30356 -1.03748,0.66202 -1.4043,1.09375 -0.36681,0.43172 -0.6228,0.93796 -0.73828,1.53906 -0.40467,2.10636 -0.61417,3.61112 -1.02148,4.92383 -0.20366,0.65635 -0.45778,1.26434 -0.8086,1.875 -0.35081,0.61065 -0.7989,1.22386 -1.39453,1.89062 -0.60981,0.68255 -1.27116,1.34785 -2.05078,1.78321 -0.38981,0.21767 -0.80986,0.37841 -1.26758,0.45507 -0.45771,0.0767 -0.95349,0.0683 -1.49609,-0.0488 -0.452,-0.0976 -0.81171,-0.33781 -1.12305,-0.64844 -0.31134,-0.31063 -0.57448,-0.69133 -0.83007,-1.06445 -0.25559,-0.37312 -0.50431,-0.74033 -0.78907,-1.02539 -0.28475,-0.28507 -0.60507,-0.48675 -1.0039,-0.53321 -0.45463,-0.0529 -0.88579,0.0266 -1.29688,0.19531 -0.41109,0.16871 -0.80118,0.42499 -1.17383,0.72657 -0.74528,0.60314 -1.41896,1.38413 -2.04101,1.98633 -4.60544,4.45932 -9.50116,9.49494 -14.02539,14.01562 -0.77866,0.77779 -1.56671,1.68687 -2.42383,2.49805 -0.85712,0.81117 -1.78379,1.52575 -2.83594,1.91406 -0.38276,1.96727 -1.38394,5.11508 -2.03711,8.33203 -0.32658,1.60848 -0.56614,3.23441 -0.59765,4.73828 -0.0315,1.50388 0.14506,2.8846 0.65039,4.00586 0.20191,0.44763 0.61573,0.79358 1.13281,1.08789 0.51708,0.29431 1.13723,0.5366 1.75586,0.7793 0.61862,0.2427 1.23564,0.48652 1.74219,0.7793 0.50654,0.29277 0.90313,0.63552 1.08398,1.08007 0.26107,0.64149 0.28651,1.50497 0.18359,2.48438 -0.10291,0.97941 -0.33349,2.07466 -0.58593,3.18164 -0.25245,1.10698 -0.52734,2.22581 -0.71485,3.25 -0.18751,1.02419 -0.28914,1.9545 -0.19726,2.68555 0.10446,0.83053 0.44291,1.62211 0.88867,2.39453 0.44576,0.77241 0.99932,1.52573 1.53516,2.27734 0.53583,0.75161 1.055,1.50143 1.42968,2.26953 0.37469,0.76811 0.60605,1.55309 0.56836,2.375 -0.021,0.45391 -0.15423,0.82545 -0.36328,1.13867 -0.20905,0.31323 -0.49418,0.56872 -0.81836,0.79297 -0.64835,0.44851 -1.45552,0.77092 -2.12695,1.17383 -1.39199,0.83565 -3.10999,1.9262 -4.76953,3.0918 -1.65955,1.1656 -3.25927,2.40549 -4.41602,3.54297 -0.59899,0.58875 -0.94543,1.2747 -1.13476,2.00976 -0.18933,0.73507 -0.22257,1.52008 -0.19336,2.30664 0.031,0.84471 0.32381,1.84253 0.68164,2.78125 0.35782,0.93873 0.78091,1.81842 1.07226,2.42383 z"
     style="fill:none;stroke:#000000;stroke-linecap:round;stroke-linejoin:round;stroke-opacity:1;paint-order:fill markers stroke"
     id="path949" />
  <path
     d="m 681.56834,379.86913 c 0.32871,-2.60263 0.50424,-5.61453 0.58203,-8.84375 0.0778,-3.22922 0.0567,-6.67541 -0.004,-10.14649 -0.12128,-6.94215 -0.40626,-13.98476 -0.40626,-19.58593 0,-2.41461 0.42568,-4.67622 0.63672,-6.87696 0.10553,-1.10036 0.15865,-2.18432 0.0762,-3.26562 -0.0825,-1.0813 -0.29949,-2.15897 -0.73047,-3.24414 -0.26005,-0.65216 -0.61023,-1.25724 -1.0293,-1.82227 -0.41907,-0.56503 -0.90674,-1.09041 -1.44727,-1.58203 -1.08104,-0.98324 -2.36766,-1.83359 -3.70898,-2.60547 -2.68265,-1.54376 -5.58616,-2.77424 -7.50586,-4.13086 -0.81708,0.61511 -1.6966,1.07488 -2.6543,1.31836 -0.43388,0.11031 -0.83634,0.12835 -1.21289,0.0703 -0.37655,-0.058 -0.72611,-0.19173 -1.05664,-0.38281 -0.66106,-0.38216 -1.24218,-0.99474 -1.78711,-1.69726 -1.08984,-1.40506 -2.03831,-3.1682 -3.20703,-4.16016 -0.5654,-0.4805 -1.29915,-0.8754 -2.12695,-1.17578 -0.8278,-0.30038 -1.74935,-0.50777 -2.68945,-0.60938 -0.94011,-0.1016 -1.89848,-0.0983 -2.80079,0.0176 -0.9023,0.11583 -1.74848,0.34533 -2.46289,0.69727 -0.42804,0.21037 -0.72567,0.51488 -0.93164,0.88086 -0.20596,0.36597 -0.31952,0.79211 -0.38086,1.24609 -0.12267,0.90796 -0.0341,1.92495 -0.043,2.7793 -0.009,0.82747 0.0526,1.71145 -0.084,2.48632 -0.0683,0.38744 -0.18593,0.74751 -0.38672,1.06055 -0.20079,0.31304 -0.48446,0.57758 -0.88476,0.77539 -0.57557,0.28429 -1.21369,0.40051 -1.87696,0.44141 -0.66326,0.0409 -1.35238,0.007 -2.02734,-0.006 -1.22131,-0.0228 -2.23878,-0.42817 -3.24609,-0.89063 -1.00732,-0.46245 -2.00414,-0.98103 -3.18165,-1.22851 -0.93644,-0.19693 -1.79223,-0.23872 -2.60742,-0.22266 -0.81519,0.0161 -1.58996,0.0893 -2.36132,0.1211 -0.77137,0.0318 -1.54073,0.0227 -2.34571,-0.12696 -0.80497,-0.14968 -1.64454,-0.44033 -2.56055,-0.96875 -0.98464,-0.56947 -1.56113,-1.43708 -2.13671,-2.25586 -0.2878,-0.40938 -0.57514,-0.80774 -0.91407,-1.14843 -0.33892,-0.3407 -0.72838,-0.62394 -1.2207,-0.8086 -0.49818,-0.18656 -1.00944,-0.14699 -1.52734,0.01 -0.51791,0.15675 -1.0439,0.42931 -1.57422,0.70703 -0.53032,0.27772 -1.06417,0.56195 -1.59961,0.73828 -0.53544,0.17633 -1.07222,0.24506 -1.60547,0.0977 -1.13074,-0.31235 -2.23555,-1.01618 -3.30859,-1.79493 -1.07305,-0.77874 -2.11402,-1.6323 -3.11914,-2.24414 -2.54201,-1.5477 -5.27955,-3.1136 -7.91211,-4.75195 -2.63257,-1.63835 -5.15998,-3.34867 -7.28125,-5.18359 -1.47991,0.001 -2.88076,0.26959 -4.24024,0.66992 -1.35948,0.40033 -2.67845,0.93274 -3.99219,1.46484 -1.31373,0.5321 -2.62216,1.06266 -3.96484,1.45899 -1.34268,0.39632 -2.7197,0.65739 -4.16602,0.65039 -0.68664,-0.003 -1.28539,-0.20305 -1.84374,-0.4961 -0.55836,-0.29305 -1.07501,-0.67892 -1.59766,-1.05273 -0.52265,-0.37381 -1.05134,-0.73482 -1.63086,-0.98047 -0.57953,-0.24564 -1.21047,-0.37661 -1.93945,-0.28516 -1.51645,0.19065 -3.12647,0.63431 -4.77539,1.23047 -1.64893,0.59617 -3.33691,1.34546 -5.01368,2.14649 -3.35354,1.60205 -6.659,3.41332 -9.49609,4.63086 -1.19798,0.51395 -2.56698,0.97237 -3.87305,1.53125 -1.30607,0.55887 -2.54747,1.21749 -3.49414,2.13086 -0.59313,0.5718 -1.1124,1.24581 -1.58008,1.98047 -0.46767,0.73465 -0.88459,1.53142 -1.27539,2.3457 -0.78158,1.62856 -1.45713,3.33347 -2.22265,4.78125 -3.58219,6.77984 -7.05998,13.59243 -10.49024,20.45117 -0.91162,1.82469 -1.71445,4.15239 -2.7539,6.21484 -0.51973,1.03123 -1.0986,1.99559 -1.7793,2.79883 -0.6807,0.80325 -1.46488,1.44449 -2.39258,1.82813 -0.56026,0.23109 -1.13909,0.32708 -1.73242,0.33008 -0.24544,0.93236 -0.39122,1.86956 -0.42578,2.81445 -0.0346,0.94489 0.0421,1.89739 0.24023,2.86133 0.19814,0.96394 0.51804,1.93821 0.97071,2.92773 0.45266,0.98952 1.03661,1.994 1.76562,3.01563 0.75381,1.05595 1.62216,2.01868 2.38477,3.03906 0.76261,1.02038 1.42078,2.09809 1.7539,3.38867 0.40614,1.57575 0.4973,2.97002 0.48633,4.36914 -0.011,1.39913 -0.125,2.8032 -0.125,4.39649 0,2.62177 -0.27595,5.38303 -0.39062,8.07617 -0.0573,1.34656 -0.0742,2.67636 0.004,3.96289 0.0781,1.28653 0.25135,2.53049 0.57422,3.70508 0.168,0.61213 0.57527,1.05803 1.10156,1.41406 0.5263,0.35603 1.17165,0.62211 1.81446,0.875 0.6428,0.25288 1.28325,0.49222 1.80078,0.79492 0.51752,0.3027 0.91204,0.66835 1.0625,1.17383 0.16947,0.56728 0.17457,1.0988 0.0898,1.61328 -0.0847,0.51448 -0.25833,1.0123 -0.45117,1.51172 -0.19284,0.49941 -0.40373,1.00136 -0.55859,1.52344 -0.15486,0.52207 -0.25382,1.06401 -0.22461,1.64648 0.0555,1.12813 0.52303,2.11134 1.10156,3.05078 0.57853,0.93945 1.26792,1.83616 1.76758,2.79102 0.26293,0.50372 0.95431,1.47006 1.72265,2.37695 0.76835,0.9069 1.61381,1.75246 2.1836,2.01367 z"
     style="fill:none;stroke:#000000;stroke-linecap:round;stroke-linejoin:round;stroke-opacity:1;paint-order:fill markers stroke"
     id="path947" />
  <path
     d="m 693.62693,304.43553 -11.30273,0.29688 -6.88867,2.78906 c -1.07089,1.71364 -2.15454,3.69756 -3.35352,5.54102 -0.59949,0.92172 -1.22777,1.80839 -1.89844,2.60937 -0.67066,0.80099 -1.38441,1.51564 -2.15234,2.09375 1.9197,1.35662 4.82321,2.5871 7.50586,4.13086 1.34132,0.77188 2.62794,1.62223 3.70898,2.60547 0.54053,0.49162 1.0282,1.017 1.44727,1.58203 0.41907,0.56503 0.76925,1.17011 1.0293,1.82227 0.43098,1.08517 0.64799,2.16284 0.73047,3.24414 0.0825,1.0813 0.0294,2.16526 -0.0762,3.26562 -0.21104,2.20074 -0.63672,4.46235 -0.63672,6.87696 0,5.60117 0.28498,12.64378 0.40626,19.58593 0.0606,3.47108 0.0817,6.91727 0.004,10.14649 -0.0778,3.22922 -0.25332,6.24112 -0.58203,8.84375 l 89.42187,-24.08985 c 0,0 -0.2207,-0.24867 -1.2207,-1.13867 -0.66518,-0.52511 -1.25552,-1.13236 -1.75976,-1.80469 -0.50424,-0.67232 -0.92238,-1.4097 -1.24024,-2.19531 -0.39244,-1.11765 -0.88782,-2.19334 -1.48047,-3.21289 -0.59264,-1.01955 -1.28162,-1.98282 -2.05859,-2.87695 -0.805,-0.845 -1.66328,-1.32133 -2.58203,-1.67383 -0.91875,-0.3525 -1.89727,-0.5825 -2.94727,-0.9375 -0.92483,-0.39837 -1.80701,-0.88972 -2.63086,-1.46875 -0.73256,-0.31386 -1.49853,-0.53645 -2.27929,-0.66406 -0.78077,-0.12761 -1.57673,-0.16195 -2.3711,-0.0977 -2.05352,-0.0985 -4.11145,-0.0604 -6.16015,0.11133 -1.43935,0.2229 -2.89311,0.33684 -4.34961,0.33984 -1.275,0 -2.60407,0.23797 -3.72657,0.79297 -0.56125,0.2775 -1.0714,0.63383 -1.49609,1.08008 -0.42469,0.44625 -0.76383,0.98219 -0.98633,1.61719 -0.22136,0.9155 -0.38524,1.84328 -0.49023,2.77929 -0.20299,0.68835 -0.5609,1.31059 -1.03516,1.82422 -0.47425,0.51363 -1.06633,0.91865 -1.73633,1.17578 -0.685,0.35 -1.22343,0.6118 -1.77343,0.7168 -0.55,0.105 -1.11094,0.0534 -1.83594,-0.22656 -1.75396,-0.73608 -3.42912,-1.64807 -5,-2.7207 -0.975,-0.605 -2.03961,-1.02672 -3.13086,-1.38672 -1.09125,-0.36 -2.20906,-0.65672 -3.28906,-1.01172 -0.82,-0.27 -1.82024,-0.48774 -2.74024,-0.83399 -0.46,-0.17312 -0.89961,-0.37851 -1.28711,-0.63867 -0.3875,-0.26015 -0.72265,-0.57625 -0.97265,-0.96875 -0.555,-0.91 -0.81,-1.955 -1.0625,-3 -0.2525,-1.045 -0.50188,-2.09 -1.04688,-3 -0.89771,-1.29177 -2.0404,-2.39577 -3.36133,-3.25 -0.56039,-0.45332 -1.0496,-0.98052 -1.45703,-1.5664 -0.40742,-0.58589 -0.73298,-1.22897 -0.96289,-1.91211 -0.42,-1.07 -0.59945,-2.14071 -0.93945,-3.22071 -0.70456,-1.96381 -1.59544,-3.85614 -2.66016,-5.65039 -0.705,-1.32 -1.52508,-2.56976 -2.26758,-3.85351 -0.7425,-1.28375 -1.40773,-2.60164 -1.80273,-4.05664 -0.63114,-2.76804 -1.03925,-5.58157 -1.22266,-8.41407 z"
     style="fill:none;stroke:#000000;stroke-linecap:round;stroke-linejoin:round;stroke-opacity:1;paint-order:fill markers stroke"
     id="path945" />
  <path
     d="m 666.74998,293.41991 8.68555,14.10156 6.88867,-2.78906 11.30273,-0.29688 c -0.0133,-0.20517 -0.0262,-0.40988 -0.0371,-0.61523 0.003,-0.65522 -0.0818,-1.30437 -0.25,-1.93164 -0.16816,-0.62727 -0.4194,-1.23312 -0.75,-1.79883 -0.36,-0.515 -0.67539,-0.77648 -0.90039,-1.08398 -0.225,-0.3075 -0.35937,-0.66047 -0.35937,-1.35547 -0.05,-1.82 0.59101,-3.57063 0.54101,-5.39063 -0.0125,-0.455 -0.1039,-0.82203 -0.25781,-1.125 -0.1539,-0.30297 -0.37164,-0.5414 -0.63476,-0.73828 -0.52625,-0.39375 -1.23782,-0.62219 -2.00782,-0.86719 -1.54,-0.49 -3.09039,-1.02945 -4.65039,-1.43945 -1.14891,-0.27116 -2.3266,-0.3614 -3.49023,-0.27539 -1.16363,0.086 -2.3136,0.34803 -3.41016,0.78516 -1.84,0.59 -3.58922,1.43 -5.44922,2 -0.81724,0.22177 -1.61687,0.50555 -2.39062,0.84961 -1.02592,0.53108 -1.97734,1.19452 -2.83008,1.9707 z"
     style="fill:none;stroke:#000000;stroke-linecap:round;stroke-linejoin:round;stroke-opacity:1;paint-order:fill markers stroke"
     id="path943" />
  <path
     d="m 627.92381,189.30467 c 0.4748,0.59212 0.76674,1.16352 0.9082,1.7168 0.14147,0.55329 0.13301,1.08752 0.008,1.60156 -0.12519,0.51404 -0.36621,1.00805 -0.6914,1.48243 -0.32519,0.47437 -0.73486,0.92898 -1.19336,1.36328 -1.83402,1.7372 -4.46737,3.15309 -5.76758,4.23242 -2.61503,2.16509 -4.92109,4.62604 -7.35937,6.94336 -1.21915,1.15865 -2.47157,2.28101 -3.8125,3.3125 -1.34094,1.03148 -2.77036,1.97147 -4.34375,2.76562 -0.88533,0.44661 -1.72549,0.63347 -2.53321,0.65235 -0.80771,0.0189 -1.58332,-0.13005 -2.33789,-0.35157 -1.50914,-0.44302 -2.93554,-1.17848 -4.3789,-1.45898 -0.0672,1.86501 0.47858,3.34785 0.68164,4.86523 0.10152,0.7587 0.11747,1.52612 -0.0723,2.35352 -0.18974,0.8274 -0.58445,1.71499 -1.30469,2.71484 -0.90723,1.26049 -1.96056,2.47386 -3.10547,3.62891 -1.1449,1.15505 -2.38221,2.25205 -3.66015,3.2832 -2.55588,2.06231 -5.27221,3.8585 -7.73242,5.31446 -1.31771,0.77925 -2.46538,1.50487 -3.46289,2.37304 -0.99752,0.86817 -1.8447,1.87843 -2.56641,3.22657 0.2498,0.0302 0.50579,0.0872 0.76953,0.17773 1.16584,0.4 2.80901,1.13977 4.15234,2.22852 0.67167,0.54437 1.26907,1.17693 1.69336,1.89648 0.4243,0.71955 0.67578,1.52712 0.65821,2.42383 -0.0234,1.10797 -0.56873,2.47412 -0.88282,3.78515 -0.15704,0.65552 -0.25663,1.29671 -0.20312,1.88477 0.0535,0.58806 0.26,1.12267 0.71289,1.56445 0.42512,0.41476 0.89501,0.71948 1.39648,0.94532 0.50148,0.22583 1.03312,0.37442 1.57813,0.48046 1.09002,0.21209 2.23553,0.2527 3.30273,0.40039 1.0672,0.1477 2.05612,0.40273 2.83789,1.03907 0.39089,0.31817 0.72971,0.73136 1,1.27539 0.2703,0.54402 0.47297,1.21763 0.58985,2.05664 0.41491,2.97414 0.62859,6.41266 0.7168,10.0664 0.0882,3.65375 0.0508,7.52234 -0.0391,11.35938 -0.17969,7.67408 -0.5664,15.21907 -0.5664,20.64844 2.12127,1.83492 4.64868,3.54524 7.28125,5.18359 2.63256,1.63835 5.3701,3.20425 7.91211,4.75195 1.00512,0.61184 2.04609,1.4654 3.11914,2.24414 1.07304,0.77875 2.17785,1.48258 3.30859,1.79493 0.53325,0.1474 1.07003,0.0787 1.60547,-0.0977 0.53544,-0.17633 1.06929,-0.46056 1.59961,-0.73828 0.53032,-0.27772 1.05631,-0.55028 1.57422,-0.70703 0.5179,-0.15676 1.02916,-0.19633 1.52734,-0.01 0.49232,0.18466 0.88178,0.4679 1.2207,0.8086 0.33893,0.34069 0.62627,0.73905 0.91407,1.14843 0.57558,0.81878 1.15207,1.68639 2.13671,2.25586 0.91601,0.52842 1.75558,0.81907 2.56055,0.96875 0.80498,0.14968 1.57434,0.15877 2.34571,0.12696 0.77136,-0.0318 1.54613,-0.10504 2.36132,-0.1211 0.81519,-0.0161 1.67098,0.0257 2.60742,0.22266 1.17751,0.24748 2.17433,0.76606 3.18165,1.22851 1.00731,0.46246 2.02478,0.86784 3.24609,0.89063 0.67496,0.0126 1.36408,0.0468 2.02734,0.006 0.66327,-0.0409 1.30139,-0.15712 1.87696,-0.44141 0.4003,-0.19781 0.68397,-0.46235 0.88476,-0.77539 0.20079,-0.31304 0.31842,-0.67311 0.38672,-1.06055 0.1366,-0.77487 0.0752,-1.65885 0.084,-2.48632 0.009,-0.85435 -0.0797,-1.87134 0.043,-2.7793 0.0613,-0.45398 0.1749,-0.88012 0.38086,-1.24609 0.20597,-0.36598 0.5036,-0.67049 0.93164,-0.88086 0.71441,-0.35194 1.56059,-0.58144 2.46289,-0.69727 0.90231,-0.11583 1.86068,-0.11918 2.80079,-0.0176 0.9401,0.10161 1.86165,0.309 2.68945,0.60938 0.8278,0.30038 1.56155,0.69528 2.12695,1.17578 1.16872,0.99196 2.11719,2.7551 3.20703,4.16016 0.54493,0.70252 1.12605,1.3151 1.78711,1.69726 0.33053,0.19108 0.68009,0.32478 1.05664,0.38281 0.37655,0.058 0.77901,0.04 1.21289,-0.0703 0.9577,-0.24348 1.83722,-0.70325 2.6543,-1.31836 0.76793,-0.57811 1.48168,-1.29276 2.15234,-2.09375 0.67067,-0.80098 1.29895,-1.68765 1.89844,-2.60937 1.19898,-1.84346 2.28263,-3.82738 3.35352,-5.54102 l -8.68555,-14.10156 c -0.18477,0.16817 -0.36378,0.34085 -0.53906,0.51953 -2.12,2.08 -4.30985,3.91055 -6.58985,5.81055 -0.575,0.48 -1.01054,0.87726 -1.49804,1.16601 -0.4875,0.28875 -1.0275,0.46867 -1.8125,0.51367 -1.99733,0.17677 -4.00734,0.15301 -6,-0.0703 -0.5525,-0.0975 -1.00203,-0.27781 -1.37891,-0.52344 -0.37687,-0.24562 -0.68141,-0.55656 -0.94141,-0.91406 -0.51999,-0.715 -0.86453,-1.6175 -1.26953,-2.5625 -0.34732,-0.94027 -0.81544,-1.82674 -1.38867,-2.63867 -0.57322,-0.81193 -1.2517,-1.5494 -2.02148,-2.19141 -1.8,-1.51 -3.73,-2.8289 -5.5,-4.3789 -1.12391,-1.16297 -2.18508,-2.38485 -3.17969,-3.66016 -0.67125,-0.62959 -1.30603,-1.29737 -1.90039,-2 -0.2575,-0.345 -0.3793,-0.72758 -0.41211,-1.13086 -0.0328,-0.40328 0.0237,-0.82828 0.125,-1.2539 0.2025,-0.85125 0.58234,-1.71055 0.77734,-2.43555 0.27,-1.01 0.53727,-1.9643 0.60352,-2.9043 0.0662,-0.94 -0.0685,-1.8664 -0.60352,-2.8164 -0.42169,-0.71907 -0.76651,-1.47786 -1.03125,-2.26368 -0.26473,-0.78582 -0.44944,-1.59813 -0.54882,-2.42578 -0.195,-1.315 -0.29305,-2.50078 -0.4668,-3.67578 -0.17375,-1.175 -0.42383,-2.33828 -0.92383,-3.61328 -0.56,-1.405 -1.19289,-2.83047 -1.71289,-4.29297 -0.52,-1.4625 -0.92711,-2.96258 -1.03711,-4.51758 -0.125,-1.81 -0.0388,-3.58554 -0.0801,-5.34179 -0.0206,-0.87813 -0.0734,-1.75032 -0.19922,-2.6211 -0.12578,-0.87078 -0.32562,-1.73992 -0.64062,-2.60742 -0.145,-0.395 -0.37149,-0.84984 -0.52149,-1.30859 -0.15,-0.45875 -0.22359,-0.92203 -0.0586,-1.33203 0.12,-0.3 0.51602,-0.5611 0.94727,-0.77735 0.43125,-0.21625 0.89711,-0.38695 1.16211,-0.50195 1.94,-0.86 4,-1.46094 6,-2.21094 2.43,-0.93 4.95398,-1.85422 7.42773,-2.88672 2.47375,-1.0325 4.89781,-2.1732 7.13281,-3.5332 0.71562,-0.57196 1.51193,-1.03573 2.36133,-1.37891 0.88,-0.16 1.31836,0.23039 2.31836,-0.0996 2.30391,-0.91225 4.52342,-2.02666 6.63086,-3.33007 1.8,-0.98 3.60969,-1.93466 5.42969,-2.86133 0.89718,-0.51788 1.85388,-0.92321 2.84961,-1.20899 0.455,-0.075 0.69031,-0.15828 0.91406,-0.14453 0.22375,0.0138 0.4357,0.1236 0.8457,0.4336 0.82,0.62 1.16992,1.37156 2.16992,1.85156 1.25,0.61 2.84539,0.94164 4.30664,1.46289 0.73063,0.26062 1.42735,0.56914 2.03125,0.98242 0.60391,0.41328 1.11516,0.93078 1.47266,1.61328 0.49,0.94 0.63711,1.81125 0.91211,2.59375 0.1375,0.39125 0.30836,0.76016 0.56836,1.10547 0.26,0.34531 0.60937,0.66594 1.10937,0.96094 0.99,0.58 2.1211,0.82109 3.1211,1.37109 0.755,0.415 1.24672,0.91469 1.63672,1.49219 0.39,0.5775 0.67843,1.23203 1.02343,1.95703 0.3675,0.7725 0.80852,1.42445 1.31446,1.97852 0.50594,0.55406 1.07687,1.00992 1.70312,1.38867 1.2525,0.7575 2.72656,1.20844 4.35156,1.52344 0.93032,0.0937 1.85245,0.25261 2.75977,0.47851 1.05,0.38 1.49008,1.38094 2.58008,1.71094 0.7,0.215 1.635,0.0975 2.5625,-0.125 0.9275,-0.2225 1.84758,-0.55086 2.51758,-0.75586 1.545,-0.475 2.98195,-1.17188 4.37695,-1.95313 1.395,-0.78125 2.74805,-1.64507 4.12305,-2.45507 1.78386,-1.00122 3.45944,-2.18542 5,-3.53125 l 0.82031,-0.70899 z"
     style="fill:none;stroke:#000000;stroke-linecap:round;stroke-linejoin:round;stroke-opacity:1;paint-order:fill markers stroke"
     id="path941" />
  <path
     d="m 554.71873,155.22655 c -0.89701,0.55018 -3.07933,2.39743 -4.9707,4.375 -0.94569,0.98878 -1.81854,2.01058 -2.42188,2.91797 -0.60334,0.90738 -0.93569,1.70055 -0.80273,2.23437 0.13438,0.53412 0.39397,0.97887 0.72851,1.375 0.33455,0.39613 0.74237,0.74467 1.17188,1.08594 0.85902,0.68254 1.80434,1.33696 2.41211,2.29883 0.53469,0.84616 0.77316,1.85353 1.0332,2.84375 0.26004,0.99021 0.54166,1.96441 1.1582,2.74805 0.60482,0.76815 1.60189,1.29226 2.45508,1.90234 0.4266,0.30504 0.81645,0.63215 1.10352,1.02148 0.28707,0.38934 0.47125,0.84031 0.48437,1.39649 0.0146,0.70825 -0.64658,2.22347 -1.41797,3.73633 -0.77138,1.51285 -1.65253,3.02307 -2.07617,3.72461 -0.41783,0.69218 -0.97187,1.1477 -1.61523,1.44336 -0.64336,0.29565 -1.37586,0.4311 -2.15235,0.48632 -1.55296,0.11045 -3.27949,-0.10288 -4.81054,-0.0176 -1.70344,0.095 -3.03161,0.29367 -4.09571,0.62696 -1.06409,0.33329 -1.86575,0.80105 -2.51367,1.4375 -0.64791,0.63645 -1.14277,1.44087 -1.59765,2.44531 -0.45489,1.00444 -0.8685,2.20923 -1.35352,3.64649 -0.44706,1.3233 -1.22847,2.61687 -1.8457,3.95507 -0.30862,0.66911 -0.57506,1.34795 -0.74024,2.04883 -0.16517,0.70088 -0.22921,1.42248 -0.12695,2.17383 0.1125,0.82045 0.46751,1.63899 0.9707,2.43945 0.5032,0.80046 1.15511,1.58344 1.86328,2.33399 1.41636,1.5011 3.05768,2.87215 4.17969,3.99414 6.32866,6.33105 13.05357,12.69087 19.19531,19.11719 0.62526,0.65478 1.02112,1.40746 1.32618,2.17187 0.30505,0.76441 0.51937,1.54118 0.78125,2.24805 0.26187,0.70686 0.57264,1.34401 1.06836,1.82617 0.49571,0.48216 1.17701,0.81011 2.18359,0.90039 1.92253,0.17356 5.31703,0.1697 7,-0.0488 0.53118,-0.069 1.12045,-0.3138 1.76953,-0.51758 0.64908,-0.20377 1.35944,-0.36753 2.13672,-0.27343 0.72171,-1.34814 1.56889,-2.3584 2.56641,-3.22657 0.99751,-0.86817 2.14518,-1.59379 3.46289,-2.37304 2.46021,-1.45596 5.17654,-3.25215 7.73242,-5.31446 1.27794,-1.03115 2.51525,-2.12815 3.66015,-3.2832 1.14491,-1.15505 2.19824,-2.36842 3.10547,-3.62891 0.72024,-0.99985 1.11495,-1.88744 1.30469,-2.71484 0.18974,-0.8274 0.17379,-1.59482 0.0723,-2.35352 -0.20306,-1.51738 -0.74884,-3.00022 -0.68164,-4.86523 1.44336,0.2805 2.86976,1.01596 4.3789,1.45898 0.75457,0.22152 1.53018,0.37044 2.33789,0.35157 0.80772,-0.0189 1.64788,-0.20574 2.53321,-0.65235 1.57339,-0.79415 3.00281,-1.73414 4.34375,-2.76562 1.34093,-1.03149 2.59335,-2.15385 3.8125,-3.3125 2.43828,-2.31732 4.74434,-4.77827 7.35937,-6.94336 1.30021,-1.07933 3.93356,-2.49522 5.76758,-4.23242 0.4585,-0.4343 0.86817,-0.88891 1.19336,-1.36328 0.32519,-0.47438 0.56621,-0.96839 0.6914,-1.48243 0.1252,-0.51404 0.13366,-1.04827 -0.008,-1.60156 -0.14146,-0.55328 -0.4334,-1.12468 -0.9082,-1.7168 z"
     style="fill:none;stroke:#000000;stroke-linecap:round;stroke-linejoin:round;stroke-opacity:1;paint-order:fill markers stroke"
     id="path939" />
  <path
     d="m 464.4785,113.21874 c 0.24544,0.45975 0.35661,0.92777 0.36328,1.40234 0.007,0.47457 -0.0924,0.95439 -0.26953,1.43555 -0.35435,0.96231 -1.02115,1.92996 -1.78125,2.86914 -0.7601,0.93918 -1.61347,1.85106 -2.33985,2.70117 -0.72638,0.85011 -1.32493,1.63888 -1.57812,2.33398 -0.32944,0.90475 -0.3072,1.88769 -0.0957,2.91211 0.2115,1.02443 0.61202,2.08958 1.03711,3.15821 0.42509,1.06862 0.87419,2.14038 1.18555,3.17773 0.31136,1.03736 0.48517,2.0401 0.35547,2.9707 -0.10841,0.77765 -0.43828,1.47566 -0.86914,2.13477 -0.43086,0.65911 -0.96278,1.28094 -1.47656,1.90234 -0.51378,0.62141 -1.01003,1.24369 -1.36719,1.90821 -0.35716,0.66452 -0.57612,1.36974 -0.53711,2.1582 0.0215,0.43565 0.17908,0.80593 0.41602,1.13672 0.23693,0.33079 0.55389,0.62232 0.89453,0.89844 0.68126,0.55223 1.45876,1.04507 1.88476,1.67968 0.57677,0.85844 0.7553,1.67611 0.91602,2.50782 0.16071,0.8317 0.30374,1.67728 0.80859,2.59765 0.73747,1.34405 1.75871,2.1722 2.6582,3.05664 0.44975,0.44222 0.86981,0.89944 1.20704,1.44141 0.33723,0.54197 0.59215,1.17027 0.71484,1.95508 0.24165,1.54609 0.36848,3.29746 0.42187,5.1582 0.0534,1.86074 0.034,3.83012 -0.0156,5.81055 -0.0993,3.96085 -0.32031,7.96649 -0.32031,11.23633 v 39.15234 c 0,2.85288 0.25398,6.17655 0.35156,9.46289 0.0488,1.64317 0.0583,3.27728 -0.0215,4.83789 -0.0798,1.56061 -0.25023,3.04767 -0.56055,4.39844 -0.31085,1.3534 -0.94447,2.47868 -1.74024,3.50586 -0.79576,1.02717 -1.75396,1.95591 -2.70703,2.92187 -4.42598,4.48678 -8.97464,8.97858 -13.4375,13.44141 l -44.99609,44.99609 c -2.49058,2.49058 -6.22596,5.52236 -9.66406,8.67969 -1.71906,1.57867 -3.36385,3.18735 -4.74219,4.77734 -1.37834,1.59 -2.49002,3.16045 -3.14258,4.65821 -0.17002,0.39023 -0.23718,0.77639 -0.22461,1.15429 0.0292,0.87664 0.49021,1.71206 1.10938,2.47657 0.61916,0.7645 1.39608,1.45843 2.05664,2.04687 1.74202,1.55209 4.0717,2.95824 5.96484,4.60938 0.94657,0.82556 1.78399,1.7126 2.38477,2.70898 0.30038,0.49819 0.54104,1.02288 0.70703,1.58203 0.16599,0.55915 0.25818,1.15287 0.25781,1.78516 0,1.17809 -0.1929,2.34273 -0.33008,3.50781 -0.13718,1.16509 -0.21911,2.32991 0,3.50391 0.37431,2.00789 0.92839,3.70656 1.18946,5.4414 0.13053,0.86743 0.18817,1.7426 0.11328,2.67188 -0.0749,0.92927 -0.28325,1.91237 -0.68164,2.99023 -0.53059,1.43434 -1.93646,3.31235 -2.90235,5.23828 -0.48294,0.96297 -0.85684,1.93853 -0.95508,2.875 -0.0491,0.46824 -0.0287,0.92621 0.0801,1.36914 0.10875,0.44294 0.30749,0.87021 0.61524,1.2754 0.42519,0.55997 0.92422,1.04012 1.48047,1.45507 0.55624,0.41496 1.16937,0.7659 1.82226,1.07032 1.30578,0.60883 2.76989,1.03074 4.25586,1.40429 1.48597,0.37356 2.9938,0.69723 4.38477,1.11133 1.39096,0.4141 2.66478,0.91797 3.68554,1.64844 0.56034,0.40095 1.05361,0.89884 1.4961,1.46679 0.44248,0.56796 0.83453,1.20692 1.19726,1.88868 0.72546,1.36352 1.32979,2.90086 1.96485,4.40039 0.63505,1.49952 1.3009,2.96001 2.15039,4.16992 0.42474,0.60495 0.89613,1.14686 1.43164,1.59961 0.5355,0.45274 1.13594,0.81712 1.82031,1.06445 0.36954,0.13353 0.70913,0.16839 1.0293,0.12695 0.32016,-0.0414 0.61956,-0.15953 0.90429,-0.33203 0.56947,-0.34499 1.08243,-0.90782 1.59375,-1.51367 0.51133,-0.60584 1.02128,-1.25404 1.58594,-1.76953 0.56466,-0.51549 1.1846,-0.89873 1.91406,-0.97266 0.69306,-0.0701 1.34742,0.0201 1.98047,0.19532 0.63305,0.17518 1.2449,0.43643 1.85352,0.70312 0.60862,0.26669 1.21422,0.53974 1.83398,0.74414 0.61976,0.2044 1.25345,0.33981 1.91992,0.32813 1.15911,-0.0202 3.23665,-0.55007 5.30079,-1.17578 2.06413,-0.62572 4.11379,-1.34689 5.21679,-1.75391 1.05215,-0.38831 1.97882,-1.10289 2.83594,-1.91406 0.85712,-0.81118 1.64517,-1.72026 2.42383,-2.49805 4.52423,-4.52068 9.41995,-9.5563 14.02539,-14.01562 0.62205,-0.6022 1.29573,-1.38319 2.04101,-1.98633 0.37265,-0.30158 0.76274,-0.55786 1.17383,-0.72657 0.41109,-0.1687 0.84225,-0.24819 1.29688,-0.19531 0.39883,0.0465 0.71915,0.24814 1.0039,0.53321 0.28476,0.28506 0.53348,0.65227 0.78907,1.02539 0.25559,0.37312 0.51873,0.75382 0.83007,1.06445 0.31134,0.31063 0.67105,0.55085 1.12305,0.64844 0.5426,0.11716 1.03838,0.12549 1.49609,0.0488 0.45772,-0.0767 0.87777,-0.2374 1.26758,-0.45507 0.77962,-0.43536 1.44097,-1.10066 2.05078,-1.78321 0.59563,-0.66676 1.04372,-1.27997 1.39453,-1.89062 0.35082,-0.61066 0.60494,-1.21865 0.8086,-1.875 0.40731,-1.31271 0.61681,-2.81747 1.02148,-4.92383 0.11548,-0.6011 0.37147,-1.10734 0.73828,-1.53906 0.36682,-0.43173 0.84556,-0.79019 1.4043,-1.09375 1.11748,-0.60712 2.55925,-0.99817 4.08789,-1.33985 1.52864,-0.34167 3.14297,-0.63319 4.60742,-1.03906 0.73223,-0.20293 1.42764,-0.43405 2.05469,-0.71484 0.62705,-0.28079 1.18598,-0.61187 1.64844,-1.01172 0.50094,-0.43316 0.8635,-0.95511 1.16406,-1.51367 0.30056,-0.55857 0.53856,-1.15251 0.79297,-1.73242 0.25441,-0.57992 0.52421,-1.14538 0.88672,-1.64258 0.36251,-0.49721 0.81852,-0.92784 1.44336,-1.23828 0.50798,-0.25231 0.98419,-0.31738 1.43164,-0.25391 0.44745,0.0635 0.86672,0.25676 1.25781,0.52539 0.78218,0.53726 1.45541,1.37413 2.03711,2.06836 0.68575,0.81972 1.2696,1.79319 1.82617,2.80859 0.55658,1.01541 1.08586,2.07251 1.66016,3.0586 0.57429,0.98608 1.19468,1.90104 1.93359,2.63281 0.73891,0.73177 1.59607,1.28076 2.64649,1.5332 0.87285,0.20936 1.75647,0.49439 2.63281,0.72657 0.87634,0.23217 1.74589,0.41112 2.58789,0.40625 0.59333,-0.003 1.17216,-0.099 1.73242,-0.33008 0.9277,-0.38364 1.71188,-1.02488 2.39258,-1.82813 0.6807,-0.80324 1.25957,-1.7676 1.7793,-2.79883 1.03945,-2.06245 1.84228,-4.39015 2.7539,-6.21484 3.43026,-6.85874 6.90805,-13.67133 10.49024,-20.45117 0.76552,-1.44778 1.44107,-3.15269 2.22265,-4.78125 0.3908,-0.81428 0.80772,-1.61105 1.27539,-2.3457 0.46768,-0.73466 0.98695,-1.40867 1.58008,-1.98047 0.94667,-0.91337 2.18807,-1.57199 3.49414,-2.13086 1.30607,-0.55888 2.67507,-1.0173 3.87305,-1.53125 2.83709,-1.21754 6.14255,-3.02881 9.49609,-4.63086 1.67677,-0.80103 3.36475,-1.55032 5.01368,-2.14649 1.64892,-0.59616 3.25894,-1.03982 4.77539,-1.23047 0.72898,-0.0915 1.35992,0.0395 1.93945,0.28516 0.57952,0.24565 1.10821,0.60666 1.63086,0.98047 0.52265,0.37381 1.0393,0.75968 1.59766,1.05273 0.55835,0.29305 1.1571,0.49274 1.84374,0.4961 1.44632,0.007 2.82334,-0.25407 4.16602,-0.65039 1.34268,-0.39633 2.65111,-0.92689 3.96484,-1.45899 1.31374,-0.5321 2.63271,-1.06451 3.99219,-1.46484 1.35948,-0.40033 2.76033,-0.6689 4.24024,-0.66992 0,-5.42937 0.38671,-12.97436 0.5664,-20.64844 0.0899,-3.83704 0.12727,-7.70563 0.0391,-11.35938 -0.0882,-3.65374 -0.30189,-7.09226 -0.7168,-10.0664 -0.11688,-0.83901 -0.31955,-1.51262 -0.58985,-2.05664 -0.27029,-0.54403 -0.60911,-0.95722 -1,-1.27539 -0.78177,-0.63634 -1.77069,-0.89137 -2.83789,-1.03907 -1.0672,-0.14769 -2.21271,-0.1883 -3.30273,-0.40039 -0.54501,-0.10604 -1.07665,-0.25463 -1.57813,-0.48046 -0.50147,-0.22584 -0.97136,-0.53056 -1.39648,-0.94532 -0.45289,-0.44178 -0.65938,-0.97639 -0.71289,-1.56445 -0.0535,-0.58806 0.0461,-1.22925 0.20312,-1.88477 0.31409,-1.31103 0.85944,-2.67718 0.88282,-3.78515 0.0176,-0.89671 -0.23391,-1.70428 -0.65821,-2.42383 -0.42429,-0.71955 -1.02169,-1.35211 -1.69336,-1.89648 -1.34333,-1.08875 -2.9865,-1.82852 -4.15234,-2.22852 -0.26374,-0.0905 -0.51973,-0.14749 -0.76953,-0.17773 -0.77728,-0.0941 -1.48764,0.0697 -2.13672,0.27343 -0.64908,0.20378 -1.23835,0.44861 -1.76953,0.51758 -1.68297,0.21853 -5.07747,0.22239 -7,0.0488 -1.00658,-0.0903 -1.68788,-0.41823 -2.18359,-0.90039 -0.49572,-0.48216 -0.80649,-1.11931 -1.06836,-1.82617 -0.26188,-0.70687 -0.4762,-1.48364 -0.78125,-2.24805 -0.30506,-0.76441 -0.70092,-1.51709 -1.32618,-2.17187 -6.14174,-6.42632 -12.86665,-12.78614 -19.19531,-19.11719 -1.12201,-1.12199 -2.76333,-2.49304 -4.17969,-3.99414 -0.70817,-0.75055 -1.36008,-1.53353 -1.86328,-2.33399 -0.50319,-0.80046 -0.8582,-1.619 -0.9707,-2.43945 -0.10226,-0.75135 -0.0382,-1.47295 0.12695,-2.17383 0.16518,-0.70088 0.43162,-1.37972 0.74024,-2.04883 0.61723,-1.3382 1.39864,-2.63177 1.8457,-3.95507 0.48502,-1.43726 0.89863,-2.64205 1.35352,-3.64649 0.45488,-1.00444 0.94974,-1.80886 1.59765,-2.44531 0.64792,-0.63645 1.44958,-1.10421 2.51367,-1.4375 1.0641,-0.33329 2.39227,-0.53199 4.09571,-0.62696 1.53105,-0.0853 3.25758,0.12803 4.81054,0.0176 0.77649,-0.0552 1.50899,-0.19067 2.15235,-0.48632 0.64336,-0.29566 1.1974,-0.75118 1.61523,-1.44336 0.42364,-0.70154 1.30479,-2.21176 2.07617,-3.72461 0.77139,-1.51286 1.43257,-3.02808 1.41797,-3.73633 -0.0131,-0.55618 -0.1973,-1.00715 -0.48437,-1.39649 -0.28707,-0.38933 -0.67692,-0.71644 -1.10352,-1.02148 -0.85319,-0.61008 -1.85026,-1.13419 -2.45508,-1.90234 -0.61654,-0.78364 -0.89816,-1.75784 -1.1582,-2.74805 -0.26004,-0.99022 -0.49851,-1.99759 -1.0332,-2.84375 -0.60777,-0.96187 -1.55309,-1.61629 -2.41211,-2.29883 -0.42951,-0.34127 -0.83733,-0.68981 -1.17188,-1.08594 -0.33454,-0.39613 -0.59413,-0.84088 -0.72851,-1.375 -0.13296,-0.53382 0.19939,-1.32699 0.80273,-2.23437 0.60334,-0.90739 1.47619,-1.92919 2.42188,-2.91797 1.89137,-1.97757 4.07369,-3.82482 4.9707,-4.375 z"
     style="fill:none;stroke:#000000;stroke-linecap:round;stroke-linejoin:round;stroke-opacity:1;paint-order:fill markers stroke"
     id="path937" />
  <path
     d="m 258.71873,17.433579 c -0.13018,1.169438 -0.57983,2.392516 -1.25,3.601562 -0.67017,1.209046 -1.56116,2.404428 -2.57422,3.523438 -1.01306,1.119009 -2.1478,2.161217 -3.30664,3.060547 -1.15884,0.899329 -2.3417,1.657025 -3.44922,2.207031 0.88998,0.786269 2.70834,1.804303 4.11719,2.970703 0.70443,0.5832 1.30716,1.20348 1.63867,1.849609 0.16576,0.323065 0.26374,0.653498 0.27344,0.988281 0.01,0.334784 -0.0696,0.673751 -0.25781,1.017579 -0.37809,0.690432 -1.00754,1.158442 -1.78125,1.505859 -0.77372,0.347417 -1.69057,0.574 -2.64649,0.779297 -0.95592,0.205296 -1.9503,0.390226 -2.875,0.654297 -0.9247,0.26407 -1.78089,0.60712 -2.46093,1.130859 -2.05996,1.586566 -4.09394,3.672068 -5.76758,5.5625 -0.45988,0.519214 -0.80314,1.174865 -1.19532,1.761719 -0.39218,0.586854 -0.83388,1.106418 -1.49218,1.351562 -0.53485,0.199122 -1.17617,0.175412 -1.87891,0.02148 -0.70274,-0.153928 -1.46634,-0.438982 -2.24414,-0.763672 -1.55559,-0.649381 -3.168,-1.458552 -4.4668,-1.697266 -1.67068,-0.307376 -3.01098,-0.525915 -4.67578,-0.941406 -1.52156,-0.379985 -3.43299,-0.591187 -5.53125,-0.695313 -2.09826,-0.104125 -4.3829,-0.09999 -6.64648,-0.04883 -4.52718,0.102318 -8.9731,0.394532 -11.69336,0.394532 L 52.095688,323.77538 l 189.615232,0.0762 144.0957,-0.10352 c -0.0126,-0.3779 0.0546,-0.76406 0.22461,-1.15429 0.65256,-1.49776 1.76424,-3.06821 3.14258,-4.65821 1.37834,-1.58999 3.02313,-3.19867 4.74219,-4.77734 3.4381,-3.15733 7.17348,-6.18911 9.66406,-8.67969 l 44.99609,-44.99609 c 4.46286,-4.46283 9.01152,-8.95463 13.4375,-13.44141 0.95307,-0.96596 1.91127,-1.8947 2.70703,-2.92187 0.79577,-1.02718 1.42939,-2.15246 1.74024,-3.50586 0.31032,-1.35077 0.48077,-2.83783 0.56055,-4.39844 0.0798,-1.56061 0.0703,-3.19472 0.0215,-4.83789 -0.0976,-3.28634 -0.35156,-6.61001 -0.35156,-9.46289 v -39.15234 c 0,-3.26984 0.22103,-7.27548 0.32031,-11.23633 0.0496,-1.98043 0.069,-3.94981 0.0156,-5.81055 -0.0534,-1.86074 -0.18022,-3.61211 -0.42187,-5.1582 -0.12269,-0.78481 -0.37761,-1.41311 -0.71484,-1.95508 -0.33723,-0.54197 -0.75729,-0.99919 -1.20704,-1.44141 -0.89949,-0.88444 -1.92073,-1.71259 -2.6582,-3.05664 -0.50485,-0.92037 -0.64788,-1.76595 -0.80859,-2.59765 -0.16072,-0.83171 -0.33925,-1.64938 -0.91602,-2.50782 -0.426,-0.63461 -1.2035,-1.12745 -1.88476,-1.67968 -0.34064,-0.27612 -0.6576,-0.56765 -0.89453,-0.89844 -0.23694,-0.33079 -0.39447,-0.70107 -0.41602,-1.13672 -0.039,-0.78846 0.17995,-1.49368 0.53711,-2.1582 0.35716,-0.66452 0.85341,-1.2868 1.36719,-1.90821 0.51378,-0.6214 1.0457,-1.24323 1.47656,-1.90234 0.43086,-0.65911 0.76073,-1.35712 0.86914,-2.13477 0.1297,-0.9306 -0.0441,-1.93334 -0.35547,-2.9707 -0.31136,-1.03735 -0.76046,-2.10911 -1.18555,-3.17773 -0.42509,-1.06863 -0.82561,-2.13378 -1.03711,-3.15821 -0.21149,-1.02442 -0.23373,-2.00736 0.0957,-2.91211 0.25319,-0.6951 0.85174,-1.48387 1.57812,-2.33398 0.72638,-0.85011 1.57975,-1.76199 2.33985,-2.70117 0.7601,-0.93918 1.4269,-1.90683 1.78125,-2.86914 0.17717,-0.48116 0.27619,-0.96098 0.26953,-1.43555 -0.007,-0.47457 -0.11784,-0.94259 -0.36328,-1.40234 z"
     style="fill:none;stroke:#000000;stroke-linecap:round;stroke-linejoin:round;stroke-opacity:1;paint-order:fill markers stroke"
     id="path935" />
  <path
     d="M 222.33982,0.49998458 198.55467,45.667954 c 2.72026,0 7.16618,-0.292214 11.69336,-0.394532 2.26358,-0.05116 4.54822,-0.0553 6.64648,0.04883 2.09826,0.104126 4.00969,0.315328 5.53125,0.695313 1.6648,0.415491 3.0051,0.63403 4.67578,0.941406 1.2988,0.238714 2.91121,1.047885 4.4668,1.697266 0.7778,0.32469 1.5414,0.609744 2.24414,0.763672 0.70274,0.153927 1.34406,0.177637 1.87891,-0.02148 0.6583,-0.245144 1.1,-0.764708 1.49218,-1.351562 0.39218,-0.586854 0.73544,-1.242505 1.19532,-1.761719 1.67364,-1.890432 3.70762,-3.975934 5.76758,-5.5625 0.68004,-0.523739 1.53623,-0.866789 2.46093,-1.130859 0.9247,-0.264071 1.91908,-0.449001 2.875,-0.654297 0.95592,-0.205297 1.87277,-0.43188 2.64649,-0.779297 0.77371,-0.347417 1.40316,-0.815427 1.78125,-1.505859 0.18824,-0.343828 0.26751,-0.682795 0.25781,-1.017579 -0.01,-0.334783 -0.10768,-0.665216 -0.27344,-0.988281 -0.33151,-0.646129 -0.93424,-1.266409 -1.63867,-1.849609 -1.40885,-1.1664 -3.22721,-2.184434 -4.11719,-2.970703 1.10752,-0.550006 2.29038,-1.307702 3.44922,-2.207031 1.15884,-0.89933 2.29358,-1.941538 3.30664,-3.060547 1.01306,-1.11901 1.90405,-2.314392 2.57422,-3.523438 0.67017,-1.209046 1.11982,-2.432124 1.25,-3.601562 z"
     style="fill:none;stroke:#000000;stroke-linecap:round;stroke-linejoin:round;stroke-opacity:1;paint-order:fill markers stroke"
     id="path933" />
  <path
     id="path956"
     d="m 222.33982,0.49998458 36.37891,16.93359442 205.75977,95.785161 90.24023,42.00781 73.20508,34.07812 92.55664,43.08594 -0.82031,0.70899 c -1.54056,1.34583 -3.21614,2.53003 -5,3.53125 -1.375,0.81 -2.72805,1.67382 -4.12305,2.45507 -1.395,0.78125 -2.83195,1.47813 -4.37695,1.95313 -0.67,0.205 -1.59008,0.53336 -2.51758,0.75586 -0.9275,0.2225 -1.8625,0.34 -2.5625,0.125 -1.09,-0.33 -1.53008,-1.33094 -2.58008,-1.71094 -0.90732,-0.2259 -1.82945,-0.38482 -2.75977,-0.47851 -1.625,-0.315 -3.09906,-0.76594 -4.35156,-1.52344 -0.62625,-0.37875 -1.19718,-0.83461 -1.70312,-1.38867 -0.50594,-0.55407 -0.94696,-1.20602 -1.31446,-1.97852 -0.345,-0.725 -0.63343,-1.37953 -1.02343,-1.95703 -0.39,-0.5775 -0.88172,-1.07719 -1.63672,-1.49219 -1,-0.55 -2.1311,-0.79109 -3.1211,-1.37109 -0.5,-0.295 -0.84937,-0.61563 -1.10937,-0.96094 -0.26,-0.34531 -0.43086,-0.71422 -0.56836,-1.10547 -0.275,-0.7825 -0.42211,-1.65375 -0.91211,-2.59375 -0.3575,-0.6825 -0.86875,-1.2 -1.47266,-1.61328 -0.6039,-0.41328 -1.30062,-0.7218 -2.03125,-0.98242 -1.46125,-0.52125 -3.05664,-0.85289 -4.30664,-1.46289 -1,-0.48 -1.34992,-1.23156 -2.16992,-1.85156 -0.41,-0.31 -0.62195,-0.41985 -0.8457,-0.4336 -0.22375,-0.0137 -0.45906,0.0695 -0.91406,0.14453 -0.99573,0.28578 -1.95243,0.69111 -2.84961,1.20899 -1.82,0.92667 -3.62969,1.88133 -5.42969,2.86133 -2.10744,1.30341 -4.32695,2.41782 -6.63086,3.33007 -1,0.33 -1.43836,-0.0604 -2.31836,0.0996 -0.8494,0.34318 -1.64571,0.80695 -2.36133,1.37891 -2.235,1.36 -4.65906,2.5007 -7.13281,3.5332 -2.47375,1.0325 -4.99773,1.95672 -7.42773,2.88672 -2,0.75 -4.06,1.35094 -6,2.21094 -0.265,0.115 -0.73086,0.2857 -1.16211,0.50195 -0.43125,0.21625 -0.82727,0.47735 -0.94727,0.77735 -0.165,0.41 -0.0914,0.87328 0.0586,1.33203 0.15,0.45875 0.37649,0.91359 0.52149,1.30859 0.315,0.8675 0.51484,1.73664 0.64062,2.60742 0.12579,0.87078 0.1786,1.74297 0.19922,2.6211 0.0413,1.75625 -0.0449,3.53179 0.0801,5.34179 0.11,1.555 0.51711,3.05508 1.03711,4.51758 0.52,1.4625 1.15289,2.88797 1.71289,4.29297 0.5,1.275 0.75008,2.43828 0.92383,3.61328 0.17375,1.175 0.2718,2.36078 0.4668,3.67578 0.0994,0.82765 0.28409,1.63996 0.54882,2.42578 0.26474,0.78582 0.60956,1.54461 1.03125,2.26368 0.535,0.95 0.66977,1.8764 0.60352,2.8164 -0.0662,0.94 -0.33352,1.8943 -0.60352,2.9043 -0.195,0.725 -0.57484,1.5843 -0.77734,2.43555 -0.10125,0.42562 -0.15781,0.85062 -0.125,1.2539 0.0328,0.40328 0.15461,0.78586 0.41211,1.13086 0.59436,0.70263 1.22914,1.37041 1.90039,2 0.99461,1.27531 2.05578,2.49719 3.17969,3.66016 1.77,1.55 3.7,2.8689 5.5,4.3789 0.76978,0.64201 1.44826,1.37948 2.02148,2.19141 0.57323,0.81193 1.04135,1.6984 1.38867,2.63867 0.405,0.945 0.74954,1.8475 1.26953,2.5625 0.26,0.3575 0.56454,0.66844 0.94141,0.91406 0.37688,0.24563 0.82641,0.42594 1.37891,0.52344 1.99266,0.22332 4.00267,0.24708 6,0.0703 0.785,-0.045 1.325,-0.22492 1.8125,-0.51367 0.4875,-0.28875 0.92304,-0.68601 1.49804,-1.16601 2.28,-1.9 4.46985,-3.73055 6.58985,-5.81055 0.17528,-0.17868 0.35429,-0.35136 0.53906,-0.51953 0.85274,-0.77618 1.80416,-1.43962 2.83008,-1.9707 0.77375,-0.34406 1.57338,-0.62784 2.39062,-0.84961 1.86,-0.57 3.60922,-1.41 5.44922,-2 1.09656,-0.43713 2.24653,-0.69915 3.41016,-0.78516 1.16363,-0.086 2.34132,0.004 3.49023,0.27539 1.56,0.41 3.11039,0.94945 4.65039,1.43945 0.77,0.245 1.48157,0.47344 2.00782,0.86719 0.26312,0.19688 0.48086,0.43531 0.63476,0.73828 0.15391,0.30297 0.24531,0.67 0.25781,1.125 0.05,1.82 -0.59101,3.57063 -0.54101,5.39063 0,0.695 0.13437,1.04797 0.35937,1.35547 0.225,0.3075 0.54039,0.56898 0.90039,1.08398 0.3306,0.56571 0.58184,1.17156 0.75,1.79883 0.16817,0.62727 0.25328,1.27642 0.25,1.93164 0.0109,0.20535 0.0238,0.41006 0.0371,0.61523 0.18341,2.8325 0.59152,5.64603 1.22266,8.41407 0.395,1.455 1.06023,2.77289 1.80273,4.05664 0.7425,1.28375 1.56258,2.53351 2.26758,3.85351 1.06472,1.79425 1.9556,3.68658 2.66016,5.65039 0.34,1.08 0.51945,2.15071 0.93945,3.22071 0.22991,0.68314 0.55547,1.32622 0.96289,1.91211 0.40743,0.58588 0.89664,1.11308 1.45703,1.5664 1.32093,0.85423 2.46362,1.95823 3.36133,3.25 0.545,0.91 0.79438,1.955 1.04688,3 0.2525,1.045 0.5075,2.09 1.0625,3 0.25,0.3925 0.58515,0.7086 0.97265,0.96875 0.3875,0.26016 0.82711,0.46555 1.28711,0.63867 0.92,0.34625 1.92024,0.56399 2.74024,0.83399 1.08,0.355 2.19781,0.65172 3.28906,1.01172 1.09125,0.36 2.15586,0.78172 3.13086,1.38672 1.57088,1.07263 3.24604,1.98462 5,2.7207 0.725,0.28 1.28594,0.33156 1.83594,0.22656 0.55,-0.105 1.08843,-0.3668 1.77343,-0.7168 0.67,-0.25713 1.26208,-0.66215 1.73633,-1.17578 0.47426,-0.51363 0.83217,-1.13587 1.03516,-1.82422 0.10499,-0.93601 0.26887,-1.86379 0.49023,-2.77929 0.2225,-0.635 0.56164,-1.17094 0.98633,-1.61719 0.42469,-0.44625 0.93484,-0.80258 1.49609,-1.08008 1.1225,-0.555 2.45157,-0.79297 3.72657,-0.79297 1.4565,-0.003 2.91026,-0.11694 4.34961,-0.33984 2.0487,-0.17176 4.10663,-0.20983 6.16015,-0.11133 0.79437,-0.0643 1.59033,-0.0299 2.3711,0.0977 0.78076,0.12761 1.54673,0.3502 2.27929,0.66406 0.82385,0.57903 1.70603,1.07038 2.63086,1.46875 1.05,0.355 2.02852,0.585 2.94727,0.9375 0.91875,0.3525 1.77703,0.82883 2.58203,1.67383 0.77697,0.89413 1.46595,1.8574 2.05859,2.87695 0.59265,1.01955 1.08803,2.09524 1.48047,3.21289 0.31786,0.78561 0.736,1.52299 1.24024,2.19531 0.50424,0.67233 1.09458,1.27958 1.75976,1.80469 1,0.89 1.2207,1.13867 1.2207,1.13867 l -89.42187,24.08985 -144.25781,38.85937 -96.30274,25.94336 -3.29687,0.88867 -196,140 L 0.49998493,421.74999 52.095688,323.77538 198.55467,45.667954 Z"
     style="fill:none;stroke:#000000;stroke-linecap:round;stroke-linejoin:round;stroke-opacity:1;paint-order:fill markers stroke" />
  <g
     transform="translate(-0.14972692,-0.15011001)"
     id="Layer_2"
     data-name="Layer 2">
    <g
       id="Districts" />
  </g>
</svg>
