<?xml version="1.0" encoding="UTF-8" standalone="no"?>
<svg
   xmlns:dc="http://purl.org/dc/elements/1.1/"
   xmlns:cc="http://creativecommons.org/ns#"
   xmlns:rdf="http://www.w3.org/1999/02/22-rdf-syntax-ns#"
   xmlns:svg="http://www.w3.org/2000/svg"
   xmlns="http://www.w3.org/2000/svg"
   height="586.06055"
   width="771.49023"
   id="svg9"
   version="1.1"
   viewBox="0 0 771.49024 586.06052">
  <metadata
     id="metadata13">
    <rdf:RDF>
      <cc:Work
         rdf:about="">
        <dc:format>image/svg+xml</dc:format>
        <dc:type
           rdf:resource="http://purl.org/dc/dcmitype/StillImage" />
        <dc:title></dc:title>
      </cc:Work>
    </rdf:RDF>
  </metadata>
  <defs
     id="defs4">
    <style
       id="style2">.cls-1{fill:none;stroke:#231f20;stroke-miterlimit:10;}</style>
  </defs>
  <g
     transform="translate(-418.71748,516.30208)"
     id="Layer_2"
     data-name="Layer 2">
    <g
       id="Districts" />
  </g>
  <path
     d="m 666.7489,293.41977 c 2.89515,4.7005 5.79036,9.40105 8.68554,14.10156 M 222.33967,0.49998458 l 36.3789,16.93359042 205.7597,95.785165 90.2403,42.00781 73.20497,34.07812 92.5567,43.08594 -0.8203,0.70899 c -1.5406,1.34583 -3.2162,2.53003 -5,3.53125 -1.375,0.81 -2.7281,1.67382 -4.1231,2.45507 -1.395,0.78125 -2.8319,1.47813 -4.3769,1.95313 -0.67,0.205 -1.5901,0.53336 -2.5176,0.75586 -0.9275,0.2225 -1.8625,0.34 -2.5625,0.125 -1.09,-0.33 -1.5301,-1.33094 -2.5801,-1.71094 -0.9073,-0.2259 -1.8294,-0.38482 -2.7598,-0.47851 -1.625,-0.315 -3.099,-0.76594 -4.3515,-1.52344 -0.6263,-0.37875 -1.1972,-0.83461 -1.7031,-1.38867 -0.506,-0.55407 -0.947,-1.20602 -1.3145,-1.97852 -0.345,-0.725 -0.6334,-1.37953 -1.0234,-1.95703 -0.39,-0.5775 -0.8817,-1.07719 -1.6367,-1.49219 -1,-0.55 -2.1311,-0.79109 -3.1211,-1.37109 -0.5,-0.295 -0.8494,-0.61563 -1.1094,-0.96094 -0.26,-0.34531 -0.4309,-0.71422 -0.5684,-1.10547 -0.275,-0.7825 -0.4221,-1.65375 -0.9121,-2.59375 -0.3575,-0.6825 -0.8687,-1.2 -1.4726,-1.61328 -0.6039,-0.41328 -1.3007,-0.7218 -2.0313,-0.98242 -1.4612,-0.52125 -3.0566,-0.85289 -4.3066,-1.46289 -1,-0.48 -1.35,-1.23156 -2.17,-1.85156 -0.41,-0.31 -0.6219,-0.41985 -0.8457,-0.4336 -0.2237,-0.0137 -0.459,0.0695 -0.914,0.14453 -0.9957,0.28578 -1.9524,0.69111 -2.8496,1.20899 -1.82,0.92667 -3.6297,1.88133 -5.4297,2.86133 -2.1075,1.30341 -4.327,2.41782 -6.6309,3.33007 -1,0.33 -1.4383,-0.0604 -2.3183,0.0996 -0.8494,0.34318 -1.6457,0.80695 -2.3614,1.37891 -2.235,1.36 -4.659,2.5007 -7.1328,3.5332 -2.4737,1.0325 -4.9977,1.95672 -7.4277,2.88672 -2,0.75 -4.06,1.35094 -6,2.21094 -0.265,0.115 -0.7309,0.2857 -1.1621,0.50195 -0.4313,0.21625 -0.8273,0.47735 -0.9473,0.77735 -0.165,0.41 -0.091,0.87328 0.059,1.33203 0.15,0.45875 0.3765,0.91359 0.5215,1.30859 0.315,0.8675 0.5148,1.73664 0.6406,2.60742 0.1258,0.87078 0.1786,1.74297 0.1992,2.6211 0.041,1.75625 -0.045,3.53179 0.08,5.34179 0.11,1.555 0.5172,3.05508 1.0372,4.51758 0.52,1.4625 1.1528,2.88797 1.7128,4.29297 0.5,1.275 0.7501,2.43828 0.9239,3.61328 0.1737,1.175 0.2718,2.36078 0.4668,3.67578 0.099,0.82765 0.2841,1.63996 0.5488,2.42578 0.2647,0.78582 0.6096,1.54461 1.0312,2.26368 0.535,0.95 0.6698,1.8764 0.6036,2.8164 -0.066,0.94 -0.3336,1.8943 -0.6036,2.9043 -0.195,0.725 -0.5748,1.5843 -0.7773,2.43555 -0.1012,0.42562 -0.1578,0.85062 -0.125,1.2539 0.033,0.40328 0.1546,0.78586 0.4121,1.13086 0.5944,0.70263 1.2292,1.37041 1.9004,2 0.9946,1.27531 2.0558,2.49719 3.1797,3.66016 1.77,1.55 3.7,2.8689 5.5,4.3789 0.7698,0.64201 1.4483,1.37948 2.0215,2.19141 0.5732,0.81193 1.0413,1.6984 1.3886,2.63867 0.405,0.945 0.7496,1.8475 1.2696,2.5625 0.26,0.3575 0.5645,0.66844 0.9414,0.91406 0.3769,0.24563 0.8264,0.42594 1.3789,0.52344 1.9927,0.22332 4.0027,0.24708 6,0.0703 0.785,-0.045 1.325,-0.22492 1.8125,-0.51367 0.4875,-0.28875 0.923,-0.68601 1.498,-1.16601 2.28,-1.9 4.4699,-3.73055 6.5899,-5.81055 0.1753,-0.17868 0.35316,-0.35148 0.53786,-0.51965 0.8528,-0.77618 1.80534,-1.4395 2.83124,-1.97058 0.7738,-0.34406 1.5734,-0.62784 2.3906,-0.84961 1.86,-0.57 3.6093,-1.41 5.4493,-2 1.0965,-0.43713 2.2465,-0.69915 3.4101,-0.78516 1.1637,-0.086 2.3413,0.004 3.4903,0.27539 1.56,0.41 3.1103,0.94945 4.6503,1.43945 0.77,0.245 1.4816,0.47344 2.0079,0.86719 0.2631,0.19688 0.4808,0.43531 0.6347,0.73828 0.1539,0.30297 0.2453,0.67 0.2578,1.125 0.05,1.82 -0.591,3.57063 -0.541,5.39063 0,0.695 0.1344,1.04797 0.3594,1.35547 0.225,0.3075 0.5404,0.56898 0.9004,1.08398 0.3306,0.56571 0.5818,1.17156 0.75,1.79883 0.1682,0.62727 0.2533,1.27642 0.25,1.93164 0.011,0.20535 0.024,0.41006 0.037,0.61523 0.1834,2.8325 0.5915,5.64603 1.2226,8.41407 0.395,1.455 1.0603,2.77289 1.8028,4.05664 0.7425,1.28375 1.5626,2.53351 2.2676,3.85351 1.0647,1.79425 1.9556,3.68658 2.6601,5.65039 0.34,1.08 0.5195,2.15071 0.9395,3.22071 0.2299,0.68314 0.5554,1.32622 0.9629,1.91211 0.4074,0.58588 0.8966,1.11308 1.457,1.5664 1.3209,0.85423 2.4636,1.95823 3.3613,3.25 0.545,0.91 0.7944,1.955 1.0469,3 0.2525,1.045 0.5075,2.09 1.0625,3 0.25,0.3925 0.5851,0.7086 0.9726,0.96875 0.3875,0.26016 0.8272,0.46555 1.2872,0.63867 0.92,0.34625 1.9202,0.56399 2.7402,0.83399 1.08,0.355 2.1978,0.65172 3.2891,1.01172 1.0912,0.36 2.1558,0.78172 3.1308,1.38672 1.5709,1.07263 3.2461,1.98462 5,2.7207 0.725,0.28 1.286,0.33156 1.836,0.22656 0.55,-0.105 1.0884,-0.3668 1.7734,-0.7168 0.67,-0.25713 1.2621,-0.66215 1.7363,-1.17578 0.4743,-0.51363 0.8322,-1.13587 1.0352,-1.82422 0.105,-0.93601 0.2688,-1.86379 0.4902,-2.77929 0.2225,-0.635 0.5616,-1.17094 0.9863,-1.61719 0.4247,-0.44625 0.9349,-0.80258 1.4961,-1.08008 1.1225,-0.555 2.4516,-0.79297 3.7266,-0.79297 1.4565,-0.003 2.9103,-0.11694 4.3496,-0.33984 2.0487,-0.17176 4.1066,-0.20983 6.1602,-0.11133 0.7943,-0.0643 1.5903,-0.0299 2.3711,0.0977 0.7807,0.12761 1.5467,0.3502 2.2792,0.66406 0.8239,0.57903 1.7061,1.07038 2.6309,1.46875 1.05,0.355 2.0285,0.585 2.9473,0.9375 0.9187,0.3525 1.777,0.82883 2.582,1.67383 0.777,0.89413 1.466,1.8574 2.0586,2.87695 0.5926,1.01955 1.088,2.09524 1.4805,3.21289 0.3178,0.78561 0.736,1.52299 1.2402,2.19531 0.5042,0.67233 1.0946,1.27958 1.7598,1.80469 1,0.89 1.2207,1.13867 1.2207,1.13867 l -89.4219,24.08985 -144.25777,38.85938 -96.3028,25.94336 -3.2968,0.88867 -196,140 L 0.49998493,421.75 52.095685,323.77538 198.55467,45.667955 Z M 258.71878,17.433525 c -0.13018,1.16944 -0.57983,2.39252 -1.25,3.60157 -0.67017,1.20904 -1.56116,2.40442 -2.57422,3.52343 -1.01306,1.11901 -2.1478,2.16122 -3.30664,3.06055 -1.15884,0.89933 -2.3417,1.65703 -3.44922,2.20703 0.88998,0.78627 2.70834,1.80431 4.11719,2.97071 0.70443,0.5832 1.30716,1.20348 1.63867,1.8496 0.16576,0.32307 0.26374,0.6535 0.27344,0.98829 0.01,0.33478 -0.0696,0.67375 -0.25781,1.01757 -0.37809,0.69044 -1.00754,1.15845 -1.78125,1.50586 -0.77372,0.34742 -1.69057,0.574 -2.64649,0.7793 -0.95592,0.2053 -1.9503,0.39023 -2.875,0.6543 -0.9247,0.26407 -1.78089,0.60712 -2.46093,1.13086 -2.05996,1.58656 -4.09394,3.67206 -5.76758,5.5625 -0.45988,0.51921 -0.80314,1.17486 -1.19532,1.76172 -0.39218,0.58685 -0.83388,1.10641 -1.49218,1.35155 -0.53485,0.19913 -1.17617,0.17542 -1.87891,0.0215 -0.70274,-0.15392 -1.46634,-0.43897 -2.24414,-0.76366 -1.55559,-0.64939 -3.168,-1.45856 -4.4668,-1.69727 -1.67068,-0.30738 -3.01098,-0.52592 -4.67578,-0.94141 -1.52156,-0.37998 -3.43299,-0.59118 -5.53125,-0.69531 -2.09826,-0.10412 -4.3829,-0.1 -6.64648,-0.0488 -4.52718,0.10232 -8.9731,0.39453 -11.69336,0.39453 m 265.92382,67.550815 c 0.24544,0.45975 0.35661,0.92777 0.36328,1.40234 0.007,0.47457 -0.0924,0.95439 -0.26953,1.43555 -0.35435,0.96231 -1.02115,1.92996 -1.78125,2.86914 -0.7601,0.93918 -1.61347,1.85106 -2.33985,2.70117 -0.72638,0.85011 -1.32493,1.63888 -1.57812,2.33398 -0.32944,0.90475 -0.3072,1.88769 -0.0957,2.91211 0.2115,1.02443 0.61202,2.08958 1.03711,3.15821 0.42509,1.06862 0.87419,2.14038 1.18555,3.17773 0.31136,1.03736 0.48517,2.0401 0.35547,2.9707 -0.10841,0.77765 -0.43828,1.47566 -0.86914,2.13477 -0.43086,0.65911 -0.96278,1.28094 -1.47656,1.90234 -0.51378,0.62141 -1.01003,1.24369 -1.36719,1.90821 -0.35716,0.66452 -0.57612,1.36974 -0.53711,2.1582 0.0215,0.43565 0.17908,0.80593 0.41602,1.13672 0.23693,0.33079 0.55389,0.62232 0.89453,0.89844 0.68126,0.55223 1.45876,1.04507 1.88476,1.67968 0.57677,0.85844 0.7553,1.67611 0.91602,2.50782 0.16071,0.8317 0.30374,1.67728 0.80859,2.59765 0.73747,1.34405 1.75871,2.1722 2.6582,3.05664 0.44975,0.44222 0.86981,0.89944 1.20704,1.44141 0.33723,0.54197 0.59215,1.17027 0.71484,1.95508 0.24165,1.54609 0.36848,3.29746 0.42187,5.1582 0.0534,1.86074 0.034,3.83012 -0.0156,5.81055 -0.0993,3.96085 -0.32031,7.96649 -0.32031,11.23633 v 39.15234 c 0,2.85288 0.25398,6.17655 0.35156,9.46289 0.0488,1.64317 0.0583,3.27728 -0.0215,4.83789 -0.0798,1.56061 -0.25023,3.04767 -0.56055,4.39844 -0.31085,1.3534 -0.94447,2.47868 -1.74024,3.50586 -0.79576,1.02717 -1.75396,1.95591 -2.70703,2.92187 -4.42598,4.48678 -8.97464,8.97858 -13.4375,13.44141 l -44.99609,44.99609 c -2.49058,2.49058 -6.22596,5.52236 -9.66406,8.67969 -1.71906,1.57867 -3.36385,3.18735 -4.74219,4.77734 -1.37834,1.59 -2.49002,3.16045 -3.14258,4.65821 -0.17002,0.39023 -0.23718,0.77639 -0.22461,1.15429 0.0292,0.87664 0.49021,1.71206 1.10938,2.47657 0.61916,0.7645 1.39608,1.45843 2.05664,2.04687 1.74202,1.55209 4.0717,2.95824 5.96484,4.60938 0.94657,0.82556 1.78399,1.7126 2.38477,2.70898 0.30038,0.49819 0.54104,1.02288 0.70703,1.58203 0.16599,0.55915 0.25818,1.15287 0.25781,1.78516 0,1.17809 -0.1929,2.34273 -0.33008,3.50781 -0.13718,1.16509 -0.21911,2.32991 0,3.50391 0.37431,2.00789 0.92839,3.70656 1.18946,5.4414 0.13053,0.86743 0.18817,1.7426 0.11328,2.67188 -0.0749,0.92927 -0.28325,1.91237 -0.68164,2.99023 -0.53059,1.43434 -1.93646,3.31235 -2.90235,5.23828 -0.48294,0.96297 -0.85684,1.93853 -0.95508,2.875 -0.0491,0.46824 -0.0287,0.92621 0.0801,1.36914 0.10875,0.44294 0.30749,0.87021 0.61524,1.2754 0.42519,0.55997 0.92422,1.04012 1.48047,1.45507 0.55624,0.41496 1.16937,0.7659 1.82226,1.07032 1.30578,0.60883 2.76989,1.03074 4.25586,1.40429 1.48597,0.37356 2.9938,0.69723 4.38477,1.11133 1.39096,0.4141 2.66478,0.91797 3.68554,1.64844 0.56034,0.40095 1.05361,0.89884 1.4961,1.46679 0.44248,0.56796 0.83453,1.20692 1.19726,1.88868 0.72546,1.36352 1.32979,2.90086 1.96485,4.40039 0.63505,1.49952 1.3009,2.96001 2.15039,4.16992 0.42474,0.60495 0.89613,1.14686 1.43164,1.59961 0.5355,0.45274 1.13594,0.81712 1.82031,1.06445 0.36954,0.13353 0.70913,0.16839 1.0293,0.12695 0.32016,-0.0414 0.61956,-0.15953 0.90429,-0.33203 0.56947,-0.34499 1.08243,-0.90782 1.59375,-1.51367 0.51133,-0.60584 1.02128,-1.25404 1.58594,-1.76953 0.56466,-0.51549 1.1846,-0.89873 1.91406,-0.97266 0.69306,-0.0701 1.34742,0.0201 1.98047,0.19532 0.63305,0.17518 1.2449,0.43643 1.85352,0.70312 0.60862,0.26669 1.21422,0.53974 1.83398,0.74414 0.61976,0.2044 1.25345,0.33981 1.91992,0.32813 1.15911,-0.0202 3.23665,-0.55007 5.30079,-1.17578 2.06413,-0.62572 4.11379,-1.34689 5.21679,-1.75391 M 554.71857,155.22655 c -0.89701,0.55018 -3.07871,2.39742 -4.97008,4.37499 -0.94569,0.98878 -1.81854,2.01058 -2.42188,2.91797 -0.60334,0.90738 -0.93569,1.70055 -0.80273,2.23437 0.13438,0.53412 0.39397,0.97887 0.72851,1.375 0.33455,0.39613 0.74237,0.74467 1.17188,1.08594 0.85902,0.68254 1.80434,1.33696 2.41211,2.29883 0.53469,0.84616 0.77316,1.85353 1.0332,2.84375 0.26004,0.99021 0.54166,1.96441 1.1582,2.74805 0.60482,0.76815 1.60189,1.29226 2.45508,1.90234 0.4266,0.30504 0.81645,0.63215 1.10352,1.02148 0.28707,0.38934 0.47125,0.84031 0.48437,1.39649 0.0146,0.70825 -0.64658,2.22347 -1.41797,3.73633 -0.77138,1.51285 -1.65253,3.02307 -2.07617,3.72461 -0.41783,0.69218 -0.97187,1.1477 -1.61523,1.44336 -0.64336,0.29565 -1.37586,0.4311 -2.15235,0.48632 -1.55296,0.11045 -3.27949,-0.10288 -4.81054,-0.0176 -1.70344,0.095 -3.03161,0.29367 -4.09571,0.62696 -1.06409,0.33329 -1.86575,0.80105 -2.51367,1.4375 -0.64791,0.63645 -1.14277,1.44087 -1.59765,2.44531 -0.45489,1.00444 -0.8685,2.20923 -1.35352,3.64649 -0.44706,1.3233 -1.22847,2.61687 -1.8457,3.95507 -0.30862,0.66911 -0.57506,1.34795 -0.74024,2.04883 -0.16517,0.70088 -0.22921,1.42248 -0.12695,2.17383 0.1125,0.82045 0.46751,1.63899 0.9707,2.43945 0.5032,0.80046 1.15511,1.58344 1.86328,2.33399 1.41636,1.5011 3.05768,2.87215 4.17969,3.99414 6.32866,6.33105 13.05357,12.69087 19.19531,19.11719 0.62526,0.65478 1.02112,1.40746 1.32618,2.17187 0.30505,0.76441 0.51937,1.54118 0.78125,2.24805 0.26187,0.70686 0.57264,1.34401 1.06836,1.82617 0.49571,0.48216 1.17701,0.81011 2.18359,0.90039 1.92253,0.17356 5.31703,0.1697 7,-0.0488 0.53118,-0.069 1.12045,-0.3138 1.76953,-0.51758 0.64908,-0.20377 1.35944,-0.36753 2.13672,-0.27343 m 52.72388,-50.01954 c 0.4748,0.59212 0.7673,1.16352 0.9088,1.7168 0.1414,0.55329 0.133,1.08752 0.01,1.60156 -0.1252,0.51404 -0.3662,1.00805 -0.6914,1.48243 -0.3252,0.47437 -0.7349,0.92898 -1.1934,1.36328 -1.834,1.7372 -4.4674,3.15309 -5.7676,4.23242 -2.615,2.16509 -4.9211,4.62604 -7.3593,6.94336 -1.2192,1.15865 -2.4716,2.28101 -3.8125,3.3125 -1.341,1.03148 -2.7704,1.97147 -4.3438,2.76562 -0.8853,0.44661 -1.7255,0.63347 -2.5332,0.65235 -0.8077,0.0189 -1.5833,-0.13005 -2.3379,-0.35157 -1.5091,-0.44302 -2.9355,-1.17848 -4.3789,-1.45898 -0.067,1.86501 0.4786,3.34785 0.6817,4.86523 0.1015,0.7587 0.1174,1.52612 -0.072,2.35352 -0.1898,0.8274 -0.5845,1.71499 -1.3047,2.71484 -0.9073,1.26049 -1.9606,2.47386 -3.1055,3.62891 -1.1449,1.15505 -2.3822,2.25205 -3.6602,3.2832 -2.5558,2.06231 -5.2722,3.8585 -7.73238,5.31446 -1.31771,0.77925 -2.46538,1.50487 -3.46289,2.37304 -0.99752,0.86817 -1.847,1.87843 -2.56871,3.22657 0.2498,0.0302 0.50809,0.0872 0.77183,0.17773 1.16584,0.4 2.80901,1.13977 4.15234,2.22852 0.67167,0.54437 1.26907,1.17693 1.69341,1.89648 0.4243,0.71955 0.6757,1.52712 0.6582,2.42383 -0.023,1.10797 -0.5688,2.47412 -0.8829,3.78515 -0.157,0.65552 -0.25659,1.29671 -0.20308,1.88477 0.0535,0.58806 0.25998,1.12267 0.71288,1.56445 0.4251,0.41476 0.895,0.71948 1.3965,0.94532 0.5015,0.22583 1.0331,0.37442 1.5781,0.48046 1.09,0.21209 2.2356,0.2527 3.3028,0.40039 1.0672,0.1477 2.0561,0.40273 2.8378,1.03907 0.3909,0.31817 0.7298,0.73136 1,1.27539 0.2703,0.54402 0.473,1.21763 0.5899,2.05664 0.4149,2.97414 0.6286,6.41266 0.7168,10.0664 0.088,3.65375 0.051,7.52234 -0.039,11.35938 -0.1797,7.67408 -0.5664,15.21907 -0.5664,20.64844 m 100.7081,2.87888 c -3.71416,0.0741 -7.58999,0.19226 -11.3038,0.29676 l -6.8887,2.78906 c -1.0708,1.71364 -2.1545,3.69756 -3.3535,5.54102 -0.5995,0.92172 -1.2277,1.80839 -1.8984,2.60937 -0.6707,0.80099 -1.3844,1.51564 -2.1524,2.09375 m 13.5382,62.10368 c 0.3287,-2.60263 0.4991,-5.61469 0.5769,-8.84391 0.078,-3.22922 0.057,-6.67541 0,-10.14649 -0.1213,-6.94215 -0.4063,-13.98476 -0.4063,-19.58593 0,-2.41461 0.4257,-4.67622 0.6367,-6.87696 0.1056,-1.10036 0.1587,-2.18432 0.076,-3.26562 -0.082,-1.0813 -0.2994,-2.15897 -0.7304,-3.24414 -0.2601,-0.65216 -0.6103,-1.25724 -1.0293,-1.82227 -0.4191,-0.56503 -0.9068,-1.09041 -1.4473,-1.58203 -1.081,-0.98324 -2.3677,-1.83359 -3.709,-2.60547 -2.6826,-1.54376 -5.5861,-2.77424 -7.5058,-4.13086 -0.8171,0.61511 -1.6966,1.07488 -2.6543,1.31836 -0.4339,0.11031 -0.8364,0.12835 -1.2129,0.0703 -0.3766,-0.058 -0.7261,-0.19173 -1.0567,-0.38281 -0.661,-0.38216 -1.2421,-0.99474 -1.7871,-1.69726 -1.0898,-1.40506 -2.0383,-3.1682 -3.207,-4.16016 -0.5654,-0.4805 -1.2992,-0.8754 -2.127,-1.17578 -0.8278,-0.30038 -1.7493,-0.50777 -2.6894,-0.60938 -0.9401,-0.1016 -1.8985,-0.0983 -2.8008,0.0176 -0.9023,0.11583 -1.7485,0.34533 -2.4629,0.69727 -0.428,0.21037 -0.7257,0.51488 -0.9316,0.88086 -0.206,0.36597 -0.3195,0.79211 -0.3809,1.24609 -0.1227,0.90796 -0.034,1.92495 -0.043,2.7793 -0.01,0.82747 0.053,1.71145 -0.084,2.48632 -0.068,0.38744 -0.1859,0.74751 -0.3867,1.06055 -0.2008,0.31304 -0.4845,0.57758 -0.8848,0.77539 -0.5755,0.28429 -1.2137,0.40051 -1.8769,0.44141 -0.6633,0.0409 -1.3524,0.007 -2.0274,-0.006 -1.2213,-0.0228 -2.2387,-0.42817 -3.2461,-0.89063 -1.0073,-0.46245 -2.0041,-0.98103 -3.1816,-1.22851 -0.9364,-0.19693 -1.7922,-0.23872 -2.6074,-0.22266 -0.8152,0.0161 -1.59,0.0893 -2.3613,0.1211 -0.7715,0.0318 -1.5408,0.0227 -2.3458,-0.12696 -0.805,-0.14968 -1.6445,-0.44033 -2.5606,-0.96875 -0.9846,-0.56947 -1.5611,-1.43708 -2.1367,-2.25586 -0.2878,-0.40938 -0.5751,-0.80774 -0.914,-1.14843 -0.339,-0.3407 -0.7284,-0.62394 -1.2207,-0.8086 -0.4982,-0.18656 -1.0095,-0.14699 -1.5274,0.01 -0.5179,0.15675 -1.0439,0.42931 -1.5742,0.70703 -0.5303,0.27772 -1.0642,0.56195 -1.5996,0.73828 -0.5354,0.17633 -1.0722,0.24506 -1.6055,0.0977 -1.1307,-0.31235 -2.2355,-1.01618 -3.3086,-1.79493 -1.073,-0.77874 -2.114,-1.6323 -3.1191,-2.24414 -2.542,-1.5477 -5.2796,-3.1136 -7.9121,-4.75195 -2.6326,-1.63835 -5.1556,-3.34867 -7.2769,-5.18359 -1.4799,0.001 -2.8851,0.26959 -4.2446,0.66992 -1.3595,0.40033 -2.6785,0.93274 -3.9922,1.46484 -1.3137,0.5321 -2.6222,1.06266 -3.96484,1.45899 -1.34268,0.39632 -2.7197,0.65739 -4.16602,0.65039 -0.68664,-0.003 -1.28539,-0.20305 -1.84374,-0.4961 -0.55836,-0.29305 -1.07501,-0.67892 -1.59766,-1.05273 -0.52265,-0.37381 -1.05134,-0.73482 -1.63086,-0.98047 -0.57953,-0.24564 -1.21047,-0.37661 -1.93945,-0.28516 -1.51645,0.19065 -3.12647,0.63431 -4.77539,1.23047 -1.64893,0.59617 -3.33691,1.34546 -5.01368,2.14649 -3.35354,1.60205 -6.659,3.41332 -9.49609,4.63086 -1.19798,0.51395 -2.56698,0.97237 -3.87305,1.53125 -1.30607,0.55887 -2.54747,1.21749 -3.49414,2.13086 -0.59313,0.5718 -1.1124,1.24581 -1.58008,1.98047 -0.46767,0.73465 -0.88459,1.53142 -1.27539,2.3457 -0.78158,1.62856 -1.45713,3.33347 -2.22265,4.78125 -3.58219,6.77984 -7.05998,13.59243 -10.49024,20.45117 -0.91162,1.82469 -1.71445,4.15239 -2.7539,6.21484 -0.51973,1.03123 -1.0986,1.99559 -1.7793,2.79883 -0.6807,0.80325 -1.46488,1.44449 -2.39258,1.82813 -0.56026,0.23109 -1.13909,0.32708 -1.73242,0.33008 -0.24544,0.93236 -0.39122,1.86956 -0.42578,2.81445 -0.0346,0.94489 0.0421,1.89739 0.24023,2.86133 0.19814,0.96394 0.51804,1.93821 0.97071,2.92773 0.45266,0.98952 1.03661,1.994 1.76562,3.01563 0.75381,1.05595 1.62216,2.01868 2.38477,3.03906 0.76261,1.02038 1.42078,2.09809 1.7539,3.38867 0.40614,1.57575 0.4973,2.97002 0.48633,4.36914 -0.011,1.39913 -0.125,2.8032 -0.125,4.39649 0,2.62177 -0.27595,5.38303 -0.39062,8.07617 -0.0573,1.34656 -0.0742,2.67636 0.004,3.96289 0.0781,1.28653 0.25135,2.53049 0.57422,3.70508 0.168,0.61213 0.57527,1.05803 1.10156,1.41406 0.5263,0.35603 1.17165,0.62211 1.81446,0.875 0.6428,0.25288 1.28325,0.49222 1.80078,0.79492 0.51752,0.3027 0.91204,0.66835 1.0625,1.17383 0.16947,0.56728 0.17457,1.0988 0.0898,1.61328 -0.0847,0.51448 -0.25833,1.0123 -0.45117,1.51172 -0.19284,0.49941 -0.40373,1.00136 -0.55859,1.52344 -0.15486,0.52207 -0.25382,1.06401 -0.22461,1.64648 0.0555,1.12813 0.52303,2.11134 1.10156,3.05078 0.57853,0.93945 1.26792,1.83616 1.76758,2.79102 0.26293,0.50372 0.95431,1.47006 1.72265,2.37696 0.76835,0.9069 1.61381,1.75246 2.1836,2.01367 m -18.6485,-63.3418 c -0.842,0.005 -1.71155,-0.17408 -2.58789,-0.40625 -0.87634,-0.23218 -1.75996,-0.51721 -2.63281,-0.72657 -1.05042,-0.25244 -1.90758,-0.80143 -2.64649,-1.5332 -0.73891,-0.73177 -1.3593,-1.64673 -1.93359,-2.63281 -0.5743,-0.98609 -1.10358,-2.04319 -1.66016,-3.0586 -0.55657,-1.0154 -1.14042,-1.98887 -1.82617,-2.80859 -0.5817,-0.69423 -1.25493,-1.5311 -2.03711,-2.06836 -0.39109,-0.26863 -0.81036,-0.46192 -1.25781,-0.52539 -0.44745,-0.0635 -0.92366,0.002 -1.43164,0.25391 -0.62484,0.31044 -1.08085,0.74107 -1.44336,1.23828 -0.36251,0.4972 -0.63231,1.06266 -0.88672,1.64258 -0.25441,0.57991 -0.49241,1.17385 -0.79297,1.73242 -0.30056,0.55856 -0.66312,1.08051 -1.16406,1.51367 -0.46246,0.39985 -1.02139,0.73093 -1.64844,1.01172 -0.62705,0.28079 -1.32246,0.51191 -2.05469,0.71484 -1.46445,0.40587 -3.07878,0.69739 -4.60742,1.03906 -1.52864,0.34168 -2.97041,0.73273 -4.08789,1.33985 -0.55874,0.30356 -1.03748,0.66202 -1.4043,1.09375 -0.36681,0.43172 -0.6228,0.93796 -0.73828,1.53906 -0.40467,2.10636 -0.61417,3.61112 -1.02148,4.92383 -0.20366,0.65635 -0.45778,1.26434 -0.8086,1.875 -0.35081,0.61065 -0.7989,1.22386 -1.39453,1.89062 -0.60981,0.68255 -1.27116,1.34785 -2.05078,1.78321 -0.38981,0.21767 -0.80986,0.37841 -1.26758,0.45507 -0.45771,0.0767 -0.95349,0.0683 -1.49609,-0.0488 -0.452,-0.0976 -0.81171,-0.33781 -1.12305,-0.64844 -0.31134,-0.31063 -0.57448,-0.69133 -0.83007,-1.06445 -0.25559,-0.37312 -0.50431,-0.74033 -0.78907,-1.02539 -0.28475,-0.28507 -0.60507,-0.48675 -1.0039,-0.53321 -0.45463,-0.0529 -0.88579,0.0266 -1.29688,0.19531 -0.41109,0.16871 -0.80118,0.42499 -1.17383,0.72657 -0.74528,0.60314 -1.41896,1.38413 -2.04101,1.98633 -4.60544,4.45932 -9.50116,9.49494 -14.02539,14.01562 -0.77866,0.77779 -1.56671,1.68687 -2.42383,2.49805 -0.85712,0.81117 -1.78379,1.52575 -2.83594,1.91406 -0.38276,1.96727 -1.38394,5.11508 -2.03711,8.33203 -0.32658,1.60848 -0.56614,3.23441 -0.59765,4.73828 -0.0315,1.50388 0.14506,2.8846 0.65039,4.00586 0.20191,0.44763 0.61573,0.79358 1.13281,1.08789 0.51708,0.29431 1.13723,0.5366 1.75586,0.7793 0.61862,0.2427 1.23564,0.48652 1.74219,0.7793 0.50654,0.29277 0.90313,0.63552 1.08398,1.08007 0.26107,0.64149 0.28651,1.50497 0.18359,2.48438 -0.10291,0.97941 -0.33349,2.07466 -0.58593,3.18164 -0.25245,1.10698 -0.52734,2.22581 -0.71485,3.25 -0.18751,1.02419 -0.28914,1.9545 -0.19726,2.68555 0.10446,0.83054 0.44291,1.62212 0.88867,2.39454 0.44576,0.77241 0.99932,1.52573 1.53516,2.27734 0.53583,0.75161 1.055,1.50143 1.42968,2.26953 0.37469,0.76811 0.60605,1.55309 0.56836,2.375 -0.021,0.45391 -0.15423,0.82545 -0.36328,1.13867 -0.20905,0.31323 -0.49418,0.56872 -0.81836,0.79297 -0.64835,0.44851 -1.45552,0.77092 -2.12695,1.17383 -1.39199,0.83565 -3.10999,1.9262 -4.76953,3.0918 -1.65955,1.1656 -3.25927,2.40549 -4.41602,3.54297 -0.59899,0.58875 -0.94543,1.2747 -1.13476,2.00976 -0.18933,0.73507 -0.22257,1.52008 -0.19336,2.30664 0.031,0.84471 0.32381,1.84253 0.68164,2.78125 0.35782,0.93873 0.78091,1.81842 1.07226,2.42383 m -55.20119,-120.92384 -144.0957,0.10352 v 261.70899 m 0,-261.70899 -189.615225,-0.0762"
     style="fill:none;stroke:#000000;stroke-linecap:round;stroke-linejoin:round;stroke-opacity:1;paint-order:fill markers stroke"
     id="path943" />
</svg>
