<svg xmlns="http://www.w3.org/2000/svg" viewBox="0 0 811.17 1052.27">
  <defs>
    <style>
      .cls-1, .cls-2 {
        fill: none;
        stroke: #231f20;
        stroke-miterlimit: 10;
      }

      .cls-1 {
        stroke-width: 0.75px;
      }
    </style>
  </defs>
  <g id="Layer_2" data-name="Layer 2">
    <g id="Districts">
      <g id="Voopmont">
        <path id="Voopmont_2" data-name="Voopmont 2" class="cls-1" d="M197.4,82.12c.34-.2.7-.35,1-.53a1.85,1.85,0,0,0,.4-.29c.14-.1.31-.18.44-.29s.46-.39.71-.55.29-.2.45-.29a3.37,3.37,0,0,0,.36-.3,2.12,2.12,0,0,1,.84-.37l.39-.08c.12,0,.24,0,.37,0s.38-.11.59-.14.4,0,.59-.1a1.79,1.79,0,0,1,.69,0c.25.06.51.07.75.15s.43.08.64.15.51.1.76.16a6.18,6.18,0,0,1,.72.26c.27.12.5.32.76.45s.45.24.66.36a5.58,5.58,0,0,0,.79.35,4.32,4.32,0,0,1,.68.34,1.6,1.6,0,0,0,.25.18.47.47,0,0,1,.15.06c.12.08.24.19.36.28s.21.22.33.3.28.15.41.22l.27.14a2.72,2.72,0,0,0,.47.19c.3.12.53.34.84.45l-.27.1-.53-.34c5.52,2.18,11.42,4.37,16.47,7.59,4.88,3.1,8.81,7.32,13.24,11s11.13,10,15.55,3.6c3.26-4.76,5.14-10.33,8.19-15.22,1.74-2.78,3.29-6,6.21-7.55,1.44-1.28,2.71-.7,4.72-.1,1.22.36,2.53-.1,3.8-.15,4.2-.21,7.9-.6,11.84,1.27,2.61,1.24,7.25,4.21,6.42,7.45-.3,1.16-1.13,1.8-1.59,2.85-2.92,6.63,13.49,2.71,15.64,2,3.17-1.07,7.55-2.19,10.22-4.34s2.29-6.1,2-9.2a46.38,46.38,0,0,0-7.28-20.62c-2.34-3.69-5.46-6.95-5.68-11.43s2.14-9,5.47-12.15c3-2.86,7.72-7,12.29-6.56,5.13.46,8.1,5.19,11,9,3.24,4.33,7.41,14,14.43,11.16,6.18-2.49,8.53-7.42,11.53-12.87C370,32.84,374,26.82,379.4,23c3.49-2.47,7.7-4.15,12-3.34a19.82,19.82,0,0,1,6,2.59c4.07,2.24,7.19,4.36,6.91,9.43a74.66,74.66,0,0,1-3.07,17.89c-.95,3-1.86,5.86-4.44,7.91a60.55,60.55,0,0,0-6,4.82c-6.55,6.65-5.43,17.28-4.11,25.8.77,4.94,1.85,9.52,4.57,13.79,1.85,2.9,4.17,5.35,6.12,8.17a29.64,29.64,0,0,0,4.79,5.52c1.45,1.27,6.72,3.26,7.93,5.59,1.56,3-3,5.25-4.64,7.05-2.23,2.39-3.88,5.39-5.85,8-1.61,2.15-3.24,4.21-4.74,6.42-3.87,5.71-9.78,12.84-9.24,20,.37,4.9,2.7,9.76,4.12,14.5A31.17,31.17,0,0,1,391,189.06c-.49,6.79,1.62,16.66-5.92,20.38-4.68,2.32-9.9,3.48-14.62,5.76-2.8,1.36-3.5,3.29-4.68,6.07-1.54,3.67-1.81,8.73-4.43,11.9a21.51,21.51,0,0,1-3.53,3.15c-2.5,2-5.28,3.15-2.54,6.1a20,20,0,0,0,11.2,6.06c3.5.55,6.69,1.85,10.26,2,6.59.35,11.91.42,15.85-5.31,2.5-3.65,3.87-7.66,7.37-10.55,3.29-2.7,8.33-6.44,12.83-7.11,2-.3,3.72,1,5.26,2a110.71,110.71,0,0,1,9.7,7.46c4.35,3.59,10.08,7.4,12.45,12.75.71,1.61.57,3.51,1.14,5.16.37,1.06,1,2,1.33,3.08.57,1.94.56,2.94,2.42,4.08a57.07,57.07,0,0,0,9,4.11c4.74,1.78,5.57-.83,7.42-4.44,1.44-2.79,2.5-5.72,3.85-8.57,3-6.25,6.61-13.65,13-16.94,5.36-2.75,9.76-1.54,15.37-.7,3.44.51,9.41,2,12.65.34,3.54-1.81-.7-7.84-2.22-10.13-1.79-2.72-3.6-4.44-4.48-7.68a29.64,29.64,0,0,0-2.32-6.43c-.73-1.38-2-2.75-2.08-4.4-.21-5,6.28-8.44,10.39-9.29,3.28-.67,7.32-1.49,9.42-4.3a12.74,12.74,0,0,0,2-6.21c.55-4.33,1.75-14.61-5.18-14.69-2.18,0-4.59,1.05-6.61,1.82-4.46,1.69-7.48,3.12-12.39,2.22A77,77,0,0,1,470.81,169c-2.37-1.28-5.54-1.79-7.76-3.29-2.54-1.73-1.74-4.78-1-7.12.43-1.45,1.39-4.26,2.67-5.2a12.61,12.61,0,0,1,2-.64,55.77,55.77,0,0,0,9.92-5.12c2.24-1.44,8.14-3.33,8.19-6.4,0-.84-1-2.19-1.29-3-.37-1-.66-2-1-3-1-3.21-2.41-8.09-6.28-8.92-2.07-.44-3.8-.18-5.82-1.06-2.64-1.14-4.9-2.79-7.46-4.06-2-1-4.07-1.31-6-2.52-.94-.6-1.75-1.15-2.75-1.68-2.65-1.41-6.59-2.07-6.36-5.8.21-3.41,2.57-5.26,5.28-6.57,3.59-1.73,7.1-3.73,10.51-5.77a120.57,120.57,0,0,1,20.54-10.29c4.6-1.67,11.35-4.3,16.29-3.56a27.51,27.51,0,0,1,8.5,3.11c2.29,1.17,4.5,3,6.92,3.88,3.19,1.17,8.4,1.16,11.14-1-.54-2.49,0-4.7.27-7.19.52-4.32,2.71-12.11-1.35-15.46-3.12-2.57-7.72-3.55-11.4-4.94a62.64,62.64,0,0,1-10.94-5,64.28,64.28,0,0,1-8-5.69c-3-2.65-4.07-5.41-5.05-9.19-.66-2.53-1.66-5-2.28-7.5-.89-3.59.23-6.57,1.45-9.88,2.23-6,5-11.39,9.82-15.74,3.45-3.11,7.32-4.51,11.61-6.12a19.41,19.41,0,0,1,10.89-1.12c5.07.92,7.18,3.49,9.76,7.77,2.26,3.76,4.87,7.49,6.6,11.52,1.64,3.81,2.67,7.64,5.31,11,3.28,4.12,7,10,12.8,9.94,2.53,0,4.11-1,6.09-2.44,2.3-1.63,5.34-3.37,6.74-6a26,26,0,0,1,11.47-11.59c7.48-4.06,15.62-10.16,24.39-6.75,4.56,1.77,8.6,4.49,12.68,7.13,2,1.26,4.1,2,6.1,3.16,3,1.73,4.59,3.08,8.19,3.81,6.36,1.3,11.61-.6,17.35-3.31,3.66-1.72,7.8-3.4,10.49-6.54a86.68,86.68,0,0,0,6.24-7.43c1.94-2.85,3.18-6,5.35-8.77,2.7-3.44,5.05-4.65,9.42-4.18a92.92,92.92,0,0,1,23.52,6.1c2.73,1.09,7.74,2.41,9,5.31-2.7,1.43-5.84,3.21-8.85,3.61a37.83,37.83,0,0,0-11.54,3,42.66,42.66,0,0,0-11.4,8C678,30,673.7,33,669.53,36.25A51.45,51.45,0,0,0,656.14,52c-3.58,6.59-2,14-2.46,21.12-.19,3.39-.82,6.46-.19,9.8.32,1.72.74,3.42,1.06,5.13.69,3.64,1,7,3.18,10.11a44.88,44.88,0,0,0,5.12,5.65c3,3.12,4.42,6.22,7.15,11,2.55,4.5,2,4.09,3.37,6.29,5.82,9.4,10.31,10,13.13,16.3a39.68,39.68,0,0,1,1.82,6.78c.39,1.55,1.21,3.06,1.55,4.62,1,4.45-1,8.9.77,13.27,1.5,3.83,2.66,6.94,2,11.17a22.88,22.88,0,0,1-4.08,9.95c-2.08,3-3.73,5.86-6.29,8.36A49,49,0,0,0,674,202.21a109.77,109.77,0,0,1-12.27,17.93,21.88,21.88,0,0,1-5.38,4.86c-1.67,1-3.81,1.33-5.55,2.23-5.44,2.85-10.14,8.33-13.09,13.52a13.71,13.71,0,0,0-1.6,11.2c1.24,4.59,3.49,8.86,4.61,13.45,1.63,6.66-1.8,12.77-1.61,19.33.07,2.33.37,4.18,2,5.76,2,1.87,4.05,3.15,5.54,5.45,2.41,3.74,2.92,8.16,4.23,12.35,1,3.11.34,5.1-.79,8.15-.94,2.52-1.23,5.65-2.39,8.05-.93,1.91-3.27,3.55-4.78,5-2.35,2.33-5.22,4-7.55,6.34-3.6,3.55-6.43,6.49-11.69,7.28a140.5,140.5,0,0,1-15.47,1.29c-4.67.19-8.44-.86-12.94-1.87-5.8-1.31-12-2.09-17.84-2.87a28.11,28.11,0,0,0-7.5,0c-5,.73-11.19,2.41-14.91,5.84-2,1.86-1.49,3.75-1.51,6.27a23.37,23.37,0,0,0,1.45,9.45c1.54,3.92,5.25,9.7,2.18,13.52-3.4,4.22-10.47,6.61-15.52,7.77-3.52.8-6.94,1.53-10.44,2.52-2.55.72-4.88,1.51-7.51,1.13-1.84-.26-3.58-1-5.46-.85-2.23.21-4.36,1-6.63.6-3.83-.61-7-3.39-10.19-5.35-3.05-1.86-5.6-4.25-8.93-5.69-4-1.75-8.47-2.46-12.29-4.74-4-2.4-6.12-6.49-11.15-7.11-4.87-.6-12.11,3.33-15.88-.72-1.31-1.4-1.93-3.43-2.93-5-.83-1.34-1.78-2.57-2.58-3.93-1.48-2.51-2.87-5-4.53-7.44-2.07-3-4.71-5.24-7.15-7.91a19.93,19.93,0,0,0-5.15-4.49,20.29,20.29,0,0,0-12.89-2c-2.48.37-4.78,1.34-7.31,1.44-3,.12-6-.51-9-.38a90.14,90.14,0,0,0-10.91.67c-3.84.65-6.66,2.21-10,4-1.24.67-2.62.92-3.79,1.69-2,1.3-2,2.26-2.33,4.32-.44,3.18-1.15,5.84-.19,9a12.65,12.65,0,0,0,2.48,4.42c-.15-.18,4.07,3.53,4.17,4.31.3,2.44-4.37,4-5.94,4.78-3.45,1.8-6.62,4.08-10,5.93-4.62,2.5-8.66.89-13.7.8a82.14,82.14,0,0,1-10-1.18c-2.22-.32-3.85-.64-5.93.31-2.59,1.18-4.9,3.26-7.1,5-3,2.36-6,4.71-9.07,6.93-2.79,2-5.8,3.75-8.66,5.68a96.89,96.89,0,0,1-11.24,7.09,95.69,95.69,0,0,0-8.56,4.64c-1.74,1.08-3.41,1.34-5.27,2-4.28,1.61-8.34,5.85-11.92,8.54-5.2,3.92-11.81,13.69-17.61,10.5-2.25-1.24-2.89-3.24-4.1-5.33-.82-1.44-.94-3.17-1.79-4.59-1.16-1.93-2.56-2.16-4.68-2.28s-3.76.11-5.38-1.52c-1.27-1.29-1.55-3.18-3-4.37-2.57-2.16-6.44-.89-9-3.05-2.35-2-2.26-4.79-5.37-6-2.2-.88-4.19-2.16-6.39-3-3.79-1.47-8.34-.71-12.31-1.62-1.88-.43-3.51-1.17-5.48-.92a20.51,20.51,0,0,0-5.39,1.91c-4,1.75-11.3,7-16,4.79a30.9,30.9,0,0,1-5.09-3.36,18.37,18.37,0,0,1-4.05-4.8,24,24,0,0,0-6.82-7.21c-2.1-1.43-3.7-3.39-5.77-4.85-2.83-2-6.8-2.51-9.27-4.88-2.25-2.15-3.54-5.37-6.46-2.24-5,5.4-7.46,13-13.11,17.85-1-.55-1.33-3.92-1.61-5.05a22.61,22.61,0,0,0-2.4-6.76c-2.63-4.09-7.56-5.12-11.43-7.67-2.37-1.56-5.41-4.65-5.15-7.84.5-6.35,7.25-9.32,11.92-12.07,1.83-1.07,3.49-1.54,4.62-3.4a26.34,26.34,0,0,0,1.54-3.46c1.35-3.44.42-6.33.09-9.82-.24-2.46.89-5.19-.07-7.56-.43-1.08-1.37-1.78-1.78-2.9-.66-1.8-.67-3.86-1.26-5.7a69.62,69.62,0,0,0-2.43-7,33.43,33.43,0,0,0-3.54-6.1c-1.24-1.76-2.33-4.15-4.13-5.4-3.47-2.41-7.14-.25-11,.4a15.45,15.45,0,0,1-5.31.12C90.57,296,86.07,299,82.1,300c-5.58,1.34-10,1-15.57-.21-1.81-.39-3.82-1.08-4.77-2.82-.76-1.38-.31-2.45-.59-3.81-.35-1.74-1.08-4.29-2.31-5.55-1-1.07-2.4-.93-3.51-1.77-.94-.71-1.25-1.91-1.81-2.87-1.51-2.58-5-4.79-6-7.57-.89-2.49,1-5.22,2.31-7.3,1.58-2.43,2.91-4.87,5.24-6.52,2.9-2.06,6.15-3.47,8.92-5.67a6,6,0,0,1,4-1.63c7.26-.54,13.73-4.06,20.76-5.84a16.21,16.21,0,0,0,6.8-3.29,64.42,64.42,0,0,1,5.42-4.31c2.26-1.41,3.32-3.3,5-5.27s3.78-3.25,5.28-5.15c1.23-1.55,2-3.71,3-5.37a21,21,0,0,0,2.46-4.68,7.69,7.69,0,0,0,.46-3.85c-.35-2.05-1.43-3.82-1.47-6a9.9,9.9,0,0,1,2-5.69c2.61-4,7.65-9.77,12.86-6.73a19.22,19.22,0,0,0,4.79,2.47c3.21.93,6.42,1.75,9.6,2.81,3.59,1.19,6.48,2.55,10.3,2.28,2.19-.16,5.05-.85,6.75-2.37a10.62,10.62,0,0,0,3.18-6.46c.09-.91-.12-1.8,0-2.71s.73-1.83.93-2.82a8.14,8.14,0,0,0-.35-5c-.76-1.37-1.54-1.31-2.73-2.13-1.66-1.14-1.55-2.24-2.19-4.12-.77-2.26-1.28-4.7-3.09-6.38-2.62-2.43-5.79-4.35-8.34-6.86s-4.67-5.81-8.09-7.43c-1.84-.88-3.76-1.48-5.59-2.38a21.33,21.33,0,0,0-6.7-1.66c-3.43-.53-5.75-.72-8.64-2.85-1.78-1.31-2.8-1.18-4.93-1.6-.44-.09-2-.46-2.16-1.32s1.14-1.81,1-2.86-.45-.81-.83-1.63c-.86-1.85-1.11-4.09-2.21-5.85-1.44-2.33-3.92-3.3-6-4.77-7.53-5.21-5.66-16.65-3-23.89,1.31-3.61,2.82-7.12,6.15-9.16a21.93,21.93,0,0,1,8.9-3.4c2.33-.23,5.15,1.35,7.41,1.93a33.62,33.62,0,0,1,7.66,3.35,53.75,53.75,0,0,1,9.42,6.23c2,1.68,4,3.34,6.14,4.86,3.7,2.65,8.31,3.42,9.94,8.2.67,2,1,3.92,2.77,5.31,1.53,1.17,3.53,1.31,5.26,2.14,5.1,2.45,7.69,8.54,13.06,10.87,3.33,1.44,8.92.37,12.56.4,4.25,0,13-1.26,13.36-6.61.22-3.76,1-6.94-.08-10.74a43.6,43.6,0,0,0-5.21-11.65,53.65,53.65,0,0,0-3.76-5.44c-1.44-1.73-2.81-2.83-3.05-5.22-.22-2.2.47-4.58.09-6.75-.28-1.6-1.51-3.07-2.29-4.44-.38-.65-1.45-2.16-1.3-2.92.24-1.19,2.13-1.79,3-2.35,2-1.25,5.14-2.39,8.79-5.24"/>
        <path id="Voopmont_1" data-name="Voopmont 1" class="cls-2" d="M38.34,1043.72c-3.89,1.33-7.24.82-10.45.33-11-1.65-11.58-1.47-11.87-2.37-1.1-3.39.08-7.2-.85-10.66a18,18,0,0,0-2.67-5.18,11.57,11.57,0,0,1-2.3-6.15c-.53-5,.52-10.27,1.11-15.26.4-3.39.65-6.23-.89-9.32-.72-1.45-1.86-2.76-2-4.48a29.49,29.49,0,0,1,1.24-8.58c.84-2.86,2.68-5.61,2.9-8.61a24.84,24.84,0,0,0-.11-4.4c-.31-2.67-.5-5.09-.6-7.77a16.24,16.24,0,0,0-1.73-7.1c-2.44-4.17-8.21-7-9.37-11.94-.68-2.9.14-7.62,1.92-9.94,1-1.32,2.44-2.15,3.54-3.38a29.86,29.86,0,0,0,3.48-5.2c1-1.85,2.66-4.26,2.88-6.43.17-1.64-.72-3.1-.79-4.72a9.87,9.87,0,0,0-.48-3.78c-1.29-3.34-.91-7-.89-10.55a14.36,14.36,0,0,0,0-2.28c-.11-.7-.69-1.56-.64-2.23.08-1.11,1.31-2.83,2-3.83,2.88-4.41,6.57-7.47,10.38-11a18.28,18.28,0,0,0,2.55-3.06A26.84,26.84,0,0,0,27.84,870c6-5.59,10.55-10,15.24-14.26a70.54,70.54,0,0,1,9.07-7.5c3.09-2,6.68-3.16,9.65-5.3,4.84-3.5,8.31-9.14,14.38-10.47,5.61-1.24,6.13.84,21.54,1,8.59.11,11.36-1.43,14.64-2.55a10.93,10.93,0,0,0,6.44-8.52c.46-4.7-4.14-8.28-12.37-16.3-3-3-6.06-6-9.81-8C90,794.44,79.23,790,80.18,780.44c.41-4.16,4.21-8.28,6.95-11.19a29.24,29.24,0,0,1,17.27-8.89c5.38-.73,10.08.53,15.31,1.83,4.8,1.2,9.61,2.46,14.34,3.93,6.45,2,12.26,5,18.28,7.92,4.35,2.15,6.49,2.07,11,.13,4.64-2,9.34-3.06,14-4.9a16.62,16.62,0,0,0,5-3.17c2.51-2.17,5.43-4.68,6.95-7.7,4.08-8.09,7.09-17.49,14.23-23.55,5.68-4.82,11.7-6.65,19-6.72a97.15,97.15,0,0,1,21,2.43c5.37,1.15,10.4,4.12,15.73,5.08s10.13-1.36,15.3-2.69c5-1.28,10.28-2.23,15.33-3.11,2.14-.37,4.42-.54,6.56-1,4.95-1.11,9.56-3.59,14-6,7.32-4,11.44-6.18,13.51-7.42a49.84,49.84,0,0,0,8.65-6.13c2.42-2.21,4-3.6,5.25-6,1.54-3,1.83-6.54,2.81-9.68.67-2.17,1.27-4.85,3-6.48,2.31-2.17,5.88-2.32,8.82-2.78a58.39,58.39,0,0,1,13.39-1,83.63,83.63,0,0,0,10.29.52c4.54-.18,8.94-.94,13.49-.52,3.16.29,6.26.88,9.45,1a125.21,125.21,0,0,0,16.62-.7l2.25-.21a161.82,161.82,0,0,0,26.74-4.87,127.53,127.53,0,0,0,13.08-4.45c5.69-2.28,11-5.09,17.25-5.16,4.61,0,8.93,1.86,13.53,1.09a15.54,15.54,0,0,0,4.74-1.63,18.48,18.48,0,0,0,5.33-4.16,81.18,81.18,0,0,0,11.55-17c1.56-2.26,3-5.19,5.28-6.82,1-.69,2.19-1.09,3.22-1.68a23.45,23.45,0,0,0,6.11-4.56c1.24-1.45,1.58-2.83,2.47-4.49,1.64-3.11,5.47-5.78,8.16-7.92a27.73,27.73,0,0,1,12.44-5.91,131.48,131.48,0,0,1,28.36-2.39c4.35,0,9.14.74,13.42-.07a5.21,5.21,0,0,0,3.2-1.53c3.66-3.75,5.83-9,10-12.44s8.31-6.38,12.42-9.59c5.95-4.65,11.33-10.44,18.92-12,3-.59,6-1,8.9-1.69,3.58-.79,8.86-1.84,11.59-4.67,1.11-1.16,1.65-2.73,2.54-4a32.81,32.81,0,0,1,3.68-4c4.16-4.37,8.69-8.39,12.71-12.89,4.57-5.12,11.71-7.32,17.6-10.73,4.31-2.49,8.58-5.18,12.71-8a14.41,14.41,0,0,0,4.71-4.28c1.52-2.26,2.58-5.21,3.87-7.58,1.45-2.66,3.31-5.38,4.39-8.2a53.91,53.91,0,0,0,1.64-6.42,101.52,101.52,0,0,0,2.86-13.34,46.75,46.75,0,0,0,0-7.85c-.2-4.16.54-8.2.47-12.35-.07-4.79-1.69-7.61-4.17-11.5a18.28,18.28,0,0,1-2.89-6.05c-.48-2-.54-4.06-.91-6.06s-1.24-3.95-1.42-6c-.23-2.75.71-5.09,1.38-7.74.63-2.49,1-5.19,1.84-7.61,1.41-4.11,3.76-7,6.25-10.53,3.59-5.1,7.09-10.12,7.88-16.46a34.74,34.74,0,0,0-.34-9.55c-.36-2.33-2.18-5.65-1.82-7.9.27-1.71,1.82-2.36,3-3.36a28.24,28.24,0,0,0,4.47-5.32,36.49,36.49,0,0,0,3.39-4.64,20.1,20.1,0,0,0,1.62-6.77c.6-4.94-1.77-9.3-1.34-14.14.17-1.92.74-3.47.51-5.47-.16-1.35-.61-2.59-.69-3.95a117.65,117.65,0,0,0-1.43-14.39c-.93-5.19,2-9.54,5.5-13.2,2.05-2.14,4.34-4.61,7.22-5.59,2.16-.74,4.6-1,6.77-1.66,3.18-1,6.17-2.46,9.31-3.56,4.17-1.45,8.55-1.9,12.88-2.63,4.63-.78,9.27-1.78,13.92-2.36,3.12-.39,8.74-1.19,12.34-.16q.78,68.43,1.58,136.88,2,173.24,4,346.48l-149,114.44h0l-48.29-6.88a49.33,49.33,0,0,1-14.6,7.3c-9.14,2.75-12.21.63-19.59,3.84-4.44,1.92-3.68,2.84-15,11.52-11,8.46-12.11,7.88-14.59,11.53-5.08,7.46-1.42,11.26-6.54,17.29s-13.61,7.52-16.9,8.06c-4.91.81-6-.12-11.91,0-10.92.23-12.56,3.47-23.43,5-14.5,2-15.58-3.16-23.82.38-7.56,3.25-7.87,8.15-17.29,11.14-5.46,1.74-7.17.67-10.75,3.08-3.87,2.6-3.28,4.8-8.84,12.67-3.57,5.06-5.81,8.24-10,11.14-3.87,2.7-5.12,2.18-8.06,5-3.95,3.77-2.94,5.89-6.54,8.83-2.09,1.72-2.69,1.22-10,4.23a95.27,95.27,0,0,0-9.22,4.22c-7.18,3.85-7,5.38-11.53,6.92-5.54,1.88-6.68-.11-10.37,1.92-3.13,1.72-4.82,4.88-8.07,11.14-4.52,8.72-3.31,9.36-5.76,11.91-5.74,6-15.28,5.48-17.29,5.38-4.94-.25-5-1.63-11.91-2.69-8.62-1.32-9.1.73-15.75-.38-9.86-1.67-10.88-6.54-19.21-6.54-4.29,0-3.75,1.3-11.52,2.69-9.93,1.78-12-.12-19.21,1.54-7.94,1.83-7,4.52-15,6.92-9.27,2.79-17.51,1.25-24.2,0-5.39-1-10.38-2.85-20.36-6.54-13.53-5-13.69-6-19.21-7a52.2,52.2,0,0,0-21.51.85c-8.35,2.16-8.85,4.68-18.83,7.3-4.76,1.24-9.32,2.44-15.34,2.08-5.38-.32-10.13-2.06-19.62-5.54-8.92-3.28-8.81-3.92-12.67-4.61-2.07-.37-4.4-.6-16.91.38-9.6.76-7.71.14-15.75,1.54-1.67.29-10.33,1.8-16.75,4.54C39.35,1043.34,38.94,1043.52,38.34,1043.72Z"/>
        <path class="cls-2" d="M326.63,767.73c-.16-.55-.41-1.42-.66-2.5s-.31-1.53-.59-2.67c-.38-1.58-.51-1.63-.73-2.62a18.25,18.25,0,0,1-.31-3.32c-.08-2-.12-3-.1-4.27.05-4.06-.32-7.54-.59-18.56a27.61,27.61,0,0,1,.13-4.75c.27-2,.7-3,.9-5.65a9.28,9.28,0,0,0-.13-3.14c-.2-.85-.43-1.19-.6-2a7.46,7.46,0,0,1,0-2.83"/>
      </g>
    </g>
    <g id="Voopmont_Counties" data-name="Voopmont Counties">
      <path class="cls-2" d="M809.31,661.24a24.54,24.54,0,0,0-6.81,1.56c-.66.26-1.29.54-6.83,3.75-4.46,2.58-4.76,2.81-5.22,3.25-2.56,2.45-1.91,3.8-4.17,5.34a38.34,38.34,0,0,1-5.78,1.91c-3.76,1.12-4,1.13-4.55,1.53s-.93.79-3.92,4.53a22.53,22.53,0,0,1-2.56,3,14.3,14.3,0,0,1-4.19,2.47c-1.58.61-1.6.28-3.44.89a24.62,24.62,0,0,0-4.73,2.31,33.83,33.83,0,0,0-3.3,2.5c-3.5,2.86-3.64,3.56-5.47,4.33a7,7,0,0,0-2.37,1.08,24.19,24.19,0,0,0-2.13,2.81,5.58,5.58,0,0,1-1.17,1.25,6.79,6.79,0,0,1-1.5.75c-1.46.67-1.46,1.23-2.88,2-1.15.63-1.16.27-2.15.81-1.49.83-1.33,1.57-2.94,2.78-1.29,1-1.62.66-2.56,1.61-.76.77-.65,1.08-1.55,2s-1,.67-2,1.56-.93,1.13-1.64,1.72a9.24,9.24,0,0,1-3,1.42c-3.14,1.22-2.8,1.2-3.53,1.42-1.52.45-1.64.26-3.72.8a12.48,12.48,0,0,0-3.25,1.11c-1.23.72-1.23,1.19-2.59,2.21a18,18,0,0,1-3.35,1.76c-4,1.85-3.61,1.48-4.59,2.09-1.86,1.16-2.09,1.86-4,2.69a17.72,17.72,0,0,0-2,.78c-1.38.8-1.56,1.56-3.16,2.42a9.91,9.91,0,0,0-1.17.61c-.9.59-1,1-1.67,1.55-.91.76-1.15.4-2.72,1.34-1,.56-.94.74-1.81,1.19a13,13,0,0,1-2.08.78,6.79,6.79,0,0,0-3.14,3.22c-1.19,2.11-.75,3.29-2.11,4.33-.56.44-.69.27-1.47.84a8.9,8.9,0,0,0-2.25,2.64,34.82,34.82,0,0,1-2.42,3.39c-1.45,1.7-1.89,1.34-4.13,3.44-1.8,1.67-1.41,1.8-3.39,3.64a23.07,23.07,0,0,0-3.09,2.89,16.64,16.64,0,0,0-1.8,2.91c-.75,1.57-.61,2-1.28,2.88-.46.63-.7.71-2.32,2-.89.72-1.66,1.39-3.19,2.73-2,1.73-2,1.83-2.78,2.38a25.11,25.11,0,0,1-3.13,1.81c-2.33,1.23-2.55,1.28-4.33,2.22s-1.56.91-4.65,2.6A36.1,36.1,0,0,0,634,785c-1.58,1.08-1.55,1.35-2.75,2-1.39.79-1.79.64-3.69,1.5a26.73,26.73,0,0,0-3,1.69,20.25,20.25,0,0,0-4.35,3c-.75.76-.95,1.18-2,2.24a18.85,18.85,0,0,1-1.85,1.59c-1.14.85-1.47.87-2.67,1.68-1.54,1-1.45,1.31-2.56,2a15.2,15.2,0,0,1-3.65,1.42,26.38,26.38,0,0,0-4.79,1.83,42.39,42.39,0,0,0-2.89,3.17,28.39,28.39,0,0,1-2.15,2.37c-1,.95-1.35.95-3.1,2.34-1.48,1.18-1.33,1.23-2.15,1.79-1.2.81-2.67,1.81-4,1.54-.86-.18-1.27-.83-2.93-3.75-3.44-6-3.51-6.46-4.42-7.11a5.92,5.92,0,0,1-2.13-2.17c-.38-.74-.3-1.08-.7-1.72s-1.1-1-2.36-1.75c-2.28-1.26-3.44-1.91-4-2.75s-.36-1-.94-2.53a27.55,27.55,0,0,0-2.11-4.14c-2.75-4.92-3.07-7.27-4.1-7.13a2.33,2.33,0,0,0-1,.55,9.27,9.27,0,0,1-3.84,1.78,18.42,18.42,0,0,1-4.61.36,23.81,23.81,0,0,1-3.39-.09c-2.76-.32-2.92-1.1-5.61-1.58s-2.92.29-5.33-.39c-1.64-.46-2.23-1-3.44-.78a8.59,8.59,0,0,0-2.75,1.5,16,16,0,0,0-2.42,1.75c-1.16,1.24-1.43,2.68-1.86,5.14-.33,1.89-.18,2.23-.47,4.53a42.49,42.49,0,0,1-.87,4.58c-1.59,6.23-4.12,6.84-4.05,10.78a4,4,0,0,1-.5,2.67c-.68.91-1.59.81-3.5,1.58s-3.11,1.26-3.67,2.36c-1,1.92.58,4.65.92,5.25.92,1.63,1.76,1.85,2.19,3.42.21.77.1,1,0,3-.15,4.2.31,4.72-.3,6.2L520,835a8.42,8.42,0,0,1-1.93,2.49,29.23,29.23,0,0,0-3.61,3.83c-1.86,2.65-.3,4-2,7.78a20.58,20.58,0,0,1-3.33,4.77c-2.26,2.75-3.41,3.34-4.28,5.59-.55,1.42-.24,1.59-.94,3.22a24.2,24.2,0,0,1-2.5,4.17h0c-.9,1.3-1.22,1.54-1.52,2.08s-.09.56-.5,1.78a13.09,13.09,0,0,1-.78,1.78c-1.08,2.17-.77,2.47-1.56,3.86a19.11,19.11,0,0,1-2.63,3.14,17.51,17.51,0,0,0-2.2,2.38c-.77,1.26-.69,2.09-1.08,3.87a22.22,22.22,0,0,1-2.06,5.41c-1.45,2.92-2,2.59-3,5.11a24.9,24.9,0,0,1-1.55,3.7,14.19,14.19,0,0,1-1.61,2.36c-1.07,1.23-1.44,1.15-2.06,2-1.1,1.46-.33,2.21-1.19,3.95-.69,1.37-1.27,1.08-3.75,3.66a23.84,23.84,0,0,1-2.39,2.56,7.61,7.61,0,0,1-4,1.8c-1.48.1-1.74-.53-5.72-1.91-2.79-1-3.56-1-4.23-.64a4.24,4.24,0,0,0-1.8,2.47c-.69,1.89.08,2.67-.7,3.81a3.94,3.94,0,0,1-2.88,1.44c-1.21.1-3-.28-3.42-1.36-.29-.68.22-1,0-1.86s-.71-1-2.05-2.2c-1.77-1.58-1.52-1.75-2.23-2.08s-1.06-.16-3.61-.17-3.27-.22-3.66.28.13,1.2-.28,2.89a3.31,3.31,0,0,1-.67,1.53c-.47.53-1,.66-2.36,1-2.7.73-2.49.74-2.69.75-2.46,0-4.25-2.26-4.5-2.59-.73-.92-.44-1.36-1.25-2.39a6.3,6.3,0,0,0-2.23-1.77c-1.33-.61-1.93-.17-4.22-.25-3.38-.13-4.29-1.18-5.67-.37-1,.57-.62,1.13-1.77,2a6.92,6.92,0,0,1-4.45,1.22c-2.16-.07-2.51-1-4-.55-1,.26-1.06.71-2.69,1.44a15.57,15.57,0,0,1-2.34.78c-3.55.86-5.37-.64-6.39.39-.5.51-.14,1-.16,4.08a25.6,25.6,0,0,1-.42,4.92c-.44,2.16-.85,1.93-1.22,3.72-.75,3.54.77,4.68-.36,7.06a6,6,0,0,1-2.59,2.72c-1,.5-1.38.24-3,.78a8.16,8.16,0,0,0-3.25,1.75c-.36.34-2.19,2.09-1.86,3.94s2.26,1.82,2.72,3.95c.26,1.2-.28,1.55.17,2.52s1.26,1,2.47,2.25a4.57,4.57,0,0,1,1.53,2.7c0,.28,0,1.27-2.28,3.53a31.41,31.41,0,0,1-3.78,3.05c-1.29,1-2.69,2-4.19,3.31-2.94,2.48-2.89,2.92-4.5,3.83-.65.37-.67.3-4.42,1.67-2.51.91-3.76,1.37-4.91,1.86a23,23,0,0,0-5.12,2.58c-2.16,1.64-2.06,2.58-4,3.81s-2.48.5-4.55,1.53c-1.21.6-1.93,1.27-5.22,5.05-4,4.62-3.55,4.3-4.28,4.95-3.12,2.76-4.35,2.06-7,4.72-.18.18-.65.76-1.22,1.47-1.24,1.56-1.9,2.59-2.28,3.11a13.4,13.4,0,0,1-5.48,4.08c-2.78,1.26-3.09.34-5.88,1.59-3.09,1.38-3.07,2.66-6,3.61-1.19.38-1,.11-4.47.8-2.74.55-4.13.83-4.95,1.34a9.68,9.68,0,0,0-3.55,4.68,19.31,19.31,0,0,0-.69,2.07,20.42,20.42,0,0,0-.79,3.54c-.44,3,.31,3.45-.21,5.54a18,18,0,0,1-1.7,3.88,20.55,20.55,0,0,0-2.23,6.65"/>
      <path class="cls-2" d="M56.38,1038.68a54.63,54.63,0,0,1,4.93-7.29c1.62-2,2.39-2.67,4.16-5.06,2.52-3.38,2-3.47,3.62-5.33a35.52,35.52,0,0,1,7.16-6c.33-.22,1.42-1.13,3.61-2.94a5.81,5.81,0,0,0,1.73-1.92c.44-.89.26-1.29.77-1.89s.8-.45,2.06-1.14a5.86,5.86,0,0,0,1.83-1.25c.84-1,.22-1.68.92-3.08.5-1,.87-.78,2.33-2.53.28-.33.75-1,1.67-2.27,1.73-2.44,1.68-2.45,1.92-2.62.87-.6,1.47-.34,5.11-.33a30.92,30.92,0,0,0,4-.14,16.53,16.53,0,0,0,3.94-.78c1-.33,1.09-.49,4.5-2.47,2.86-1.65,3.25-1.81,4-2.56a14.79,14.79,0,0,0,2.17-2.58c1.17-1.72,1.09-2.3,2.09-3.19.53-.48.6-.35,2.61-1.42s2.07-1.29,3.47-1.94,1.22-.42,3.08-1.22,2.2-1.13,2.56-.95c1.27.64.2,5.24.08,5.75-.42,1.76-.71,1.78-1,3.22a9.56,9.56,0,0,0,.28,5.42c1.15,2.72,3.26,2.22,4.43,5,.88,2.1.15,3.54,1.23,4.23.84.53,1.75,0,3.62-.42.51-.11.74-.12,6.17,0,5.6.12,6.46.17,7.58.89s1.15,1.33,2.27,1.73c.78.28,1.58.3,5.42-.91,3.14-1,4.72-1.5,5.52-2.27s1.07-1.5,2.13-1.94a3.71,3.71,0,0,1,3.14,0c.44.29.82.26,2.33,2.69h0c.46,1,.32,1.59.8,3a13.93,13.93,0,0,0,1.41,2.87c1.86,3.31,1.38,3.89,2.4,5.29s1.86,1.23,8.12,3.84c3.66,1.52,3.38,1.6,6.42,2.79a47.16,47.16,0,0,1,5.56,2.21c2.41,1.28,2.63,2,5.17,3.66a34.24,34.24,0,0,0,7.5,3.73c4.84,1.8,5.2.79,8.15,2.48,2.16,1.24,2.88,2.31,5.47,3.15.4.13.56.16,3.73.89l4.4,1c3.2.5,5.88-.66,9.37-2.17,4.37-1.89,3.62-2.54,6.53-3.38,3.17-.91,4.45-.23,8.37-1.33,2.54-.71,2.36-1.09,4.6-1.79,1.49-.46,3.33-.84,13-.58,5.19.13,6.29.28,8-.57,1.91-.94,2.29-2,4.42-2.58s3.18.16,5.65-.07a13.23,13.23,0,0,0,5.93-2.47"/>
      <path class="cls-2" d="M405,915.61a7.59,7.59,0,0,0,.44-3.42,8.15,8.15,0,0,0-2.23-4.61c-1.74-1.79-3.08-1.45-4-3.21-.53-1-.17-1.32-.79-2.39a7.19,7.19,0,0,0-2.94-2.52c-1.87-1.1-3-1.22-3.9-2.32a6.33,6.33,0,0,1-.76-1.3,6.55,6.55,0,0,1-.35-1.32c-.19-.79-.55-2.09-1.3-4.38-1.1-3.39-1.86-5.27-1.11-5.92.43-.37.87.07,2.56-.08a30.6,30.6,0,0,0,3.11-.75c2-.38,2.12,0,3.56-.48a4.72,4.72,0,0,0,2.66-1.47c.38-.49.38-.8.84-2.53a28.06,28.06,0,0,1,.88-3,6.29,6.29,0,0,1,2.5-3.39c1.2-.64,1.71-.05,3.34-.58s1.73-1.19,3.36-2.34a16.18,16.18,0,0,1,5.28-2.33,14.54,14.54,0,0,1,5.69-.72c1.55.15,2.68.33,2.68.33,1.94.32,2.44.47,3.18.25a4.2,4.2,0,0,0,1.78-1.19c1.63-1.66,1.32-2.89,2.5-4.73a9.52,9.52,0,0,1,3.89-3.25,13.44,13.44,0,0,1,4.83-1.25c3.25-.36,4.26.34,6.17-.61a6.14,6.14,0,0,0,2.28-1.91c.75-1.08.95-2.21,1-5.34.12-4.88-.37-5.79.48-6.86a6.23,6.23,0,0,1,4.39-2,17,17,0,0,1,7.75.25c2.65.58,2.2.95,5.08,1.56s4,.38,5.58,1.44,1.24,1.76,2.5,2.31c1.43.62,2-.23,5.75-.75,3.09-.44,4,0,5.34-1,.71-.54.92-1,1.83-1.39s1.66-.18,3.11-.11a15.69,15.69,0,0,0,5.05-.59c1.44-.43,1.29-.69,3.2-1.36,2.17-.75,2.49-.47,3.89-1,2.11-.84,2-1.75,4.3-3.12a13.22,13.22,0,0,1,5.14-1.77,12.15,12.15,0,0,1,6.21,1"/>
      <path class="cls-2" d="M332.23,1000a11.68,11.68,0,0,1-1.4-2.88,11.3,11.3,0,0,0-.82-2.62c-.59-1-1.25-1.23-2.14-2-1.37-1.14-1.22-1.8-2.67-3.85a20.24,20.24,0,0,0-4.55-4.79,7.77,7.77,0,0,1-2.83-3.12c-.57-1.27-.37-2-.33-5.5.06-5.18-.35-5.65.25-7.63s1.08-1.93,1.33-3.62c.16-1.06,0-1.51-.5-5.17-.25-1.74-.57-3.47-.76-5.22-.25-2.28-.19-3.26-1-4.33-.47-.63-.88-.82-1.22-1.62a5.71,5.71,0,0,1-.2-3.16,7.61,7.61,0,0,1,.72-3.17c.41-.76.75-1,1.82-2.67a5.94,5.94,0,0,0,.57-1c.37-.92.2-1.26.5-1.86.38-.76.88-.69,1.34-1.31s.4-1.11.22-3.08c-.25-2.61-.38-3.92-.7-4.5-.7-1.27-1.23-1-2.11-2.45-.67-1.14-.52-1.6-1.28-3.36-.65-1.53-.86-1.4-1.38-2.61a8.06,8.06,0,0,1-.7-5.75,6.58,6.58,0,0,1,1.89-2.83,8.42,8.42,0,0,1,4-1.86c1.35-.32,1.53-.11,3.44-.5,1.68-.34,2.52-.51,3-.92,1-.87.61-2,1-5.49a36.59,36.59,0,0,1,.94-5.34,19.35,19.35,0,0,1,1.73-4.7,10,10,0,0,1,2.13-3,26.49,26.49,0,0,1,4.34-2.5c1.59-.83,2.22-1.13,2.53-1.89s0-1.16-.09-2.3a17,17,0,0,1,.22-3.7,25,25,0,0,1,1.7-6.86,9.74,9.74,0,0,1,2.05-3.64c1-1,1.58-.94,2.92-2.22,1-1,.89-1.19,2.06-2.42,1.42-1.49,2.12-2.24,3.22-2.5a5,5,0,0,1,4.33,1.36c1.31,1.27.69,2.17,1.72,3.09.85.75,1.77.59,8.59-.09a38.82,38.82,0,0,1,4.78,0,4.92,4.92,0,0,1,2.94.67c1,.7.76,1.42,1.72,2.38.23.24.75.71,3.42,1.64,3.16,1.11,3.58.84,4.42,1.61A6.28,6.28,0,0,1,385,874a22.77,22.77,0,0,1,.23,3.33,10.93,10.93,0,0,0,1,4.66,7.14,7.14,0,0,0,1.91,2.22"/>
      <path class="cls-2" d="M130.67,977.83l3.57-1.71c2.67-1.28,3.23-1.54,4-2.23a12.54,12.54,0,0,0,2-2.58c.82-1.29.79-1.59,1.56-2.73,1-1.49,1.24-1.26,2-2.46a9.1,9.1,0,0,0,1.56-4.14c.14-1.54-.29-2.29.31-2.92.1-.1.33-.31,1.88-.69,1.07-.26,1.58-.31,2.1-.41,1.95-.41,2.09-1.22,3.79-1.69a11.86,11.86,0,0,1,3.5-.06c2.27.12,3.4.18,4.46.75a5,5,0,0,1,2.42,2.35c.61,1.43-.16,2.17.58,4.15a6.12,6.12,0,0,0,1,1.85c.71.82,1.14.81,2.15,1.65,1.44,1.19,1.11,1.68,2,2.12,1.22.6,2.65.13,3.86-.27s1.43-.78,2.52-1.21c2.53-1,3.14-.53,4.7-1.14,2.62-1,2.15-2.83,5.9-5.61,1.68-1.24,1.82-.92,3-2a12,12,0,0,0,3.56-5c.58-1.66.39-2.53,1.17-3s1.5.31,3.11-.08c.86-.21.81-.47,2-.83a21.83,21.83,0,0,1,2.41-.44,6.46,6.46,0,0,0,2.84-1.67c.5-.48,1.1-1.81,2.29-4.46.8-1.78,1.18-2.71,1-3.95a6.51,6.51,0,0,0-.33-1.3c-.62-2-.07-3,0-7a40,40,0,0,0,0-4.06c-.14-1.39-.09-1.7.29-1.91s.5-.08,1.75.43a9,9,0,0,0,3.39.38c.77,0,.72,0,2.65-.09a13.8,13.8,0,0,1,2.73,0,8.47,8.47,0,0,1,2.65,1.26c1.32.68,2,.42,6.2.36,1.33,0-.15,0,5.52.06,4.45,0,4.79,0,5.61.25,2.53.78,2.37,2,4.71,2.83,2.55.91,3.63-.23,7.37-.1,3.13.11,3.08,1.11,7,1.6a67.57,67.57,0,0,0,10.5.13c4.25-.12,6-.33,8.73.31a17.84,17.84,0,0,0,2.77.59c2.53.24,3.57-.42,5.94,0,1.34.22,1,.43,2.46.71.56.11,2,.34,6.42-.18,2.52-.3,2.71-.45,3.7-.36a12.31,12.31,0,0,1,4.11,1.36c3.19,1.27,4.74-.05,9.87.08a30.54,30.54,0,0,1,6.89,1"/>
      <path class="cls-2" d="M24.69,875.82a21.29,21.29,0,0,0,3.63,1,33.82,33.82,0,0,0,5.56.41c.63,0,1.59,0,3,.07.49,0,1,0,1.71.08,1.85.12,2.18.22,3.65.26,2.47.08,3.73.11,4.89-.4s1-.85,2.73-2.19a12.89,12.89,0,0,1,4.49-2.59,27.12,27.12,0,0,1,5.61-.22,20.6,20.6,0,0,1,4.81.36c1.38.32,1.24.49,3,1,3.33,1,3.84.36,6.45,1.35a10.33,10.33,0,0,0,2.72,1c1.18.16,1.71-.1,3.11.05a11.28,11.28,0,0,1,2.49.58,24.13,24.13,0,0,0,5.8.86,32.23,32.23,0,0,0,5.86-.24,36.74,36.74,0,0,0,4.37-.79,27.86,27.86,0,0,0,5-1.71c2.16-1,3.25-1.5,3.64-2.51.13-.33,0-.24.08-3.47.06-2.44.11-1.8.09-2.31,0-1-.16-1.44.14-1.9a2.11,2.11,0,0,1,1.44-.78,26.92,26.92,0,0,1,5.67-.64,50.47,50.47,0,0,1,6.36.64c4.24.73,6.36,1.08,8.41,2.39a10,10,0,0,1,4.28,4.33c.83,1.91.37,3.07,1.59,4.45a4.73,4.73,0,0,0,3.61,1.61c1.65-.19,1.74-1.59,3.91-2.78,1.62-.88,3.11-1,5.53-1.08,2.23-.11,2.08.21,5.42.3,4.25.13,5.08-.38,6.72.48,1.36.71,1.33,1.34,2.83,1.91s2.42.27,4.14.39a15.75,15.75,0,0,1,5.17,1.45,24.33,24.33,0,0,1,6.92,4.25c2.18,1.93,4.11,3.63,5.08,6.47.87,2.57-.08,3,.94,6.94a27.53,27.53,0,0,0,2.09,5.42c1.44,2.84,2,2.68,2.73,4.71,1.11,2.93.14,3.63,1.29,5.71,1.25,2.24,2.63,1.87,3.42,3.91s-.45,3.3.56,4.78c.64.95,1.85,1.27,4.27,1.92,2.78.74,3.57.45,5.09,1.23a7.91,7.91,0,0,1,2.95,2.67"/>
      <path class="cls-2" d="M179.59,881.39a16.36,16.36,0,0,1,2.76-.59c2.37-.29,3.31.1,4.07-.62s.2-1.18.87-2.79a8.72,8.72,0,0,1,2.18-3c1.09-1,1.41-.9,3.25-2.26,2.29-1.68,1.91-2,3-2.44s2.6-.49,5.29-.37c1.88.1,2,.26,2.78.1s1.45-.54,3.66-2.26c3.21-2.49,3.4-2.78,4.39-3.14s1-.15,3.1-.78c1.48-.43,1.64-.58,2.88-.89a11.48,11.48,0,0,0,2.47-.62,6.12,6.12,0,0,0,2.08-1.79c.55-.78.46-1.08,1-1.73a5.62,5.62,0,0,1,1.61-1.14,15.52,15.52,0,0,0,3.16-2.44c1.16-1.07.71-1,2.59-3.1,1.52-1.69,2.15-2.11,2.71-3.39.47-1.07.2-1.17.63-1.86.76-1.21,1.86-1.26,3.9-2.34s1.68-1.48,3-2c.54-.21,1.26-.4,6-.07a16.16,16.16,0,0,1,4,.5c1.84.83,2.13,2.07,3.63,2.11.59,0,.47-.17,2.67-.71a12.92,12.92,0,0,0,2.23-.55,8.73,8.73,0,0,0,2.25-1.78c1.6-1.51,1.64-1.83,2.38-2.19,1-.48,1.37-.19,2.73-.39s2.66-.95,5.09-2.41a17.09,17.09,0,0,0,3.29-2.27c.91-.89,1.14-1.42,2.07-1.92a6.5,6.5,0,0,1,2.83-.61c1.8-.14,2.6-.07,4.24-.1,2.83-.05,2.83-.3,5-.25,1.58,0,1.39.16,3.71.26a16.08,16.08,0,0,0,4.8-.16c1.55-.4,1.52-.81,3-1.13s2.34,0,4.24.13a38.72,38.72,0,0,0,6-.27c4.14-.34,4.46-.7,5.67-.26a7.33,7.33,0,0,1,3.92,3.63,13,13,0,0,1,.72,3.88c.13,1.69-.05,2.32.48,3,.22.27.47.44,2.62,1.14s2.5.73,3,1.1c1,.68.79,1.2,1.83,2.5,1.79,2.25,3.35,1.89,4.49,4,.5.92.12.85.73,2.41a11.27,11.27,0,0,0,3.07,4.57c1.35,1.14,1.82.8,3.07,2.07s1.22,1.84,2,2.65,1.93,1.76,5.39,1.76"/>
      <path class="cls-2" d="M488.92,842.36a6.59,6.59,0,0,0-.31-4c-.28-.65-.58-.69-.87-1.39a5.19,5.19,0,0,1-.06-3.54,6.63,6.63,0,0,1,1.91-2.65c1.94-2,2.71-1.72,4.1-3.41a6.93,6.93,0,0,0,1.65-3.17,14.76,14.76,0,0,0,0-2.78,11.69,11.69,0,0,0-.44-3.33c-.41-1.13-.7-1-1-2s-.18-1.66-.24-3.5c0-.28-.11-1.24-.3-3.17-.35-3.37-.38-3.57-.47-4.47-.43-4.35-.64-6.53-.31-8.39.37-2.08.77-1.94,1-3.75s-.17-3.45-.92-6.42c-1-3.85-1.46-5.77-2.54-7.08a8.93,8.93,0,0,1-1.88-2.83c-.45-1.2-.17-1.42-.62-2.54-.74-1.86-1.7-1.75-2.13-3.3a9.41,9.41,0,0,1,0-3.2c.05-.46.12-1,.34-2.21.37-2.08.61-2.92.75-3.67.44-2.43-.42-2.53-.5-6.54-.06-2.82.34-3.54-.29-5.17-.55-1.38-1-1.3-1.42-2.58-.71-2.22.52-2.95,0-5.08-.18-.69-.94-1.77-2.46-3.92a7.67,7.67,0,0,1-2.17-5.54c-.31-4.3-.14-4.72-.62-5.17-.92-.86-2,.22-4.17-.71-1.25-.54-1.07-1-2.33-1.62-.95-.47-1.41-.37-5-.54-3.13-.16-3.52-.26-4.54,0s-.92.42-2.55.89a22.63,22.63,0,0,0-3.12.9c-.74.31-.65.37-1.81.93a19.44,19.44,0,0,1-2.65,1.11,14.9,14.9,0,0,1-3.67.42c-3.16.14-3.16-.18-4.18.18-1.18.42-1.65,1-2.79.94a6.19,6.19,0,0,1-1.63-.46,19.49,19.49,0,0,1-2.27-1c-1.68-.82-2.52-1.23-3.13-1.48-2.06-.82-2.27-.41-4.79-1.33a18.35,18.35,0,0,0-2.46-.87,5.41,5.41,0,0,0-3-.23c-.89.29-1.06.86-2.58,2.77a22.27,22.27,0,0,1-3.06,3.37c-2,1.68-2.5,1.16-3.31,2.27s-.5,1.58-.84,6.09a18.43,18.43,0,0,1-.52,4.08,14.8,14.8,0,0,1-2.27,4c-1.17,1.55-1.71,1.73-2,2.81-.21.85,0,1-.14,2.82a10.48,10.48,0,0,1-.44,2.37c-.44,1.27-.81,1.2-1.36,2.48s-.22,1.33-.87,3.38c-.51,1.59-.82,1.95-1.13,2.18-.53.4-.76.2-1.73.71s-1,.88-1.7,1.06-.87,0-1.82-.12a11.23,11.23,0,0,0-2.41.12c-1.79.28-2,1-3.5,1.48-.69.2-2.12.05-5-.27-3.33-.37-3.17-.5-4-.41-1.34.14-2.16.53-3.19.06-.71-.33-.58-.64-1.39-1.15-1.32-.82-2-.19-3.44-.87-.81-.38-.54-.53-2.42-1.9a9.08,9.08,0,0,0-2.12-1.31c-1.39-.5-1.7,0-2.73-.42-.84-.36-1.41-1.2-2.54-2.87a9,9,0,0,1-1.21-2.06c-.57-1.85.43-2.71-.23-3.67s-1.67-.28-2.92-1.4c-.88-.79-.66-1.37-1.71-2.43a6.15,6.15,0,0,0-2-1.34c-1.34-.57-2.65-.36-5.27.06-.29.05-1.48.39-3.85,1.07a3.31,3.31,0,0,0-1.48.79,3.17,3.17,0,0,0-.69,1c-.32.87.07,1.16-.18,2.17-.15.58-.29.48-.61,1.46a11,11,0,0,0-.35,1.37c-.18.88-.14,1.22-.21,1.56-.21,1.08-1.22,1.36-2.83,2.67-1.83,1.48-1.43,1.84-3,2.87a6.77,6.77,0,0,1-3.21,1.28c-1.09.09-1.17-.24-2.17-.17-1.49.1-1.7.86-3.87,1.81-2,.86-2.34.49-3.9,1.42a10.25,10.25,0,0,0-2.17,1.73c-.92,1-.89,1.31-2.1,2.79-1,1.2-1.48,1.8-2.13,2-.95.33-1.36-.12-2.6.27a3.68,3.68,0,0,0-1.71,1c-.63.71-.68,1.62-.75,3.4-.07,2,.24,1.63.25,4.1,0,1,0,1.46.34,1.9.55.64,1.24.22,2,.81s.37,1.63,1.37,3c.77,1.09,1.46,1.05,1.58,1.81s-.33,1.19-1.2,2.32a12.24,12.24,0,0,1-2.9,3c-1.16.79-1.6.72-2.06,1.44s-.22.9-.61,2.29a10.7,10.7,0,0,1-1,2.5,18.66,18.66,0,0,1-1.77,2.25,9.73,9.73,0,0,0-1.73,3.34c-.31,1.24,0,1.56-.43,3.25a17.39,17.39,0,0,1-.65,2c-.25.65-.36,1-.43,1.09a3.87,3.87,0,0,1-1,1c-.57.55-.4.78-1.23,2.4a22.15,22.15,0,0,1-1.16,2c-.58.86-.71.9-1.09,1.54-.51.88-.41,1-.87,2a13.1,13.1,0,0,1-1.73,2.48c-.84,1-1.1,1.14-1.44,1.58-.63.83-1.17,2.27-.63,5"/>
      <path class="cls-2" d="M479.61,732.75a26.65,26.65,0,0,1,3.21,0c2.57.16,2.78.53,4.48.46,2-.09,2.49-.65,3.71-.21,1,.34,1,.87,2.06,1.29a7.68,7.68,0,0,0,3.46.42,12,12,0,0,0,5.87-2,15,15,0,0,0,2.82-2.63c1.67-1.86,1.74-2.57,3.39-4.17a7.1,7.1,0,0,1,3-2,6.57,6.57,0,0,1,3.29,0,8.52,8.52,0,0,1,3.36,1.48c.92.69.74.87,1.75,1.75s2.42,2.11,4.18,2a7.06,7.06,0,0,0,2.48-.79c1.14-.49,1.74-.93,2.46-.71a2,2,0,0,1,1,.75,9.93,9.93,0,0,1,1.65,3.31c.53,1.6.94,1.13,3.14,4.46,1.72,2.6,1.25,2.56,2.63,4.4s2,2.16,2.43,3.56a8.08,8.08,0,0,0,.75,2.42,5.19,5.19,0,0,0,1.53,1.6c1.34,1,2.44,2.6,4.64,5.77,1.75,2.53,1.44,2.6,2.81,4.34s1.77,1.69,3.32,3.56a33.32,33.32,0,0,1,3.64,5.62c1.15,2.1.89,2,2,3.94,1.54,2.81,2.26,3.39,3.67,5.86a38.07,38.07,0,0,1,2.38,5"/>
      <path class="cls-2" d="M107.59,864.47c1-2.16.84-3.54.5-4.41-.19-.5-.39-.69-.75-1.6a8.34,8.34,0,0,1-.71-2.92c0-1.37.93-1.4,1.46-3.13.46-1.47-.06-1.75.27-3.47a16.91,16.91,0,0,1,1.67-3.8c1.49-2.9,1.91-3.24,1.9-4.33a14.78,14.78,0,0,0-.42-2.54,9.2,9.2,0,0,1-.42-2.17,7.64,7.64,0,0,1,.63-2.33,17.5,17.5,0,0,0,.64-2.86"/>
      <path class="cls-2" d="M415.68,683.62c.13,4.38.16,7.66.16,9.88,0,2,0,2.75,0,4.83,0,3.35.13,3.62,0,5-.18,2.46-.53,2.56-.54,4.72a14.61,14.61,0,0,0,.4,3.89c.2.78.34,1,.5,1.78a12.82,12.82,0,0,1,.23,3.25,31.53,31.53,0,0,1-.39,5.22c-.35,1.87-.81,2.95-.2,3.58.41.42.84.19,1.34.7s.34,1.28.66,2.3a4.66,4.66,0,0,0,1.38,2.07"/>
      <path class="cls-2" d="M493.53,668.26a33.89,33.89,0,0,0,3.58,4.49,18.2,18.2,0,0,1,1.84,2,15.93,15.93,0,0,1,2.16,4.56c1.51,4.12,1.23,3.68,1.71,4.79,1,2.36,1.36,2.2,2.83,5.25a35.91,35.91,0,0,0,1.92,4,22.13,22.13,0,0,0,2.67,3.41c1.83,2,2.19,1.67,3,3A15.79,15.79,0,0,0,515,702.5a6.81,6.81,0,0,1,.62.75,6.63,6.63,0,0,1,.82,2.94c.25,1.3.77,1.28,1.79,3.22.84,1.63.72,2.09,1.54,4.32a16,16,0,0,0,2.17,4.62c.73.94,2.39,2.16,5.7,4.61a4.05,4.05,0,0,1,1.79,2.18,3.63,3.63,0,0,1-.33,2.46"/>
      <path class="cls-2" d="M547.83,615.88a28,28,0,0,1,3.51,5c.73,1.37.7,1.6,1.61,3.23,1.51,2.7,1.92,2.62,2.69,4.44a20.21,20.21,0,0,1,1.36,3.78,4.64,4.64,0,0,0,1,2.17c.35.39.43.31.75.66.91,1,.59,1.92,1.24,3a6.48,6.48,0,0,0,1.71,1.46c1.93,1.41,2.22,1.22,3.33,2.12A11.61,11.61,0,0,1,567.7,645c.51.87.64,1.36,1.41,2.53.12.18,0,0,1.2,1.64a5.69,5.69,0,0,0,1.19,1.41,4.75,4.75,0,0,0,1.47.64c1.25.52,1.14,1.59,2.84,4.17,1,1.49,1.38,1.69,1.69,2.75a8.5,8.5,0,0,1,.28,2.22c.07,1.8-.26,2.16.06,3.06.2.55.41.66,1.3,1.75a28.62,28.62,0,0,1,2,2.72,14.29,14.29,0,0,1,1.58,4c.92,3,.48,3.31,1.28,4.42a6.5,6.5,0,0,1,1.42,2.3,5.92,5.92,0,0,0,.36,1.34,9.81,9.81,0,0,0,1.19,1.56,9.84,9.84,0,0,1,.87,1.49A20.08,20.08,0,0,1,590,688.3c.31,1.59,0,1.78.47,2.87s.78,1.12,1.25,2.44c.23.66.22.86.67,2.25.21.68.39,1.18.44,1.3.51,1.43.67,1.55.89,2.23.54,1.64,0,1.86.47,3.14.43,1.06.8.82,1.53,2.19s.53,2,1.28,2.78c.51.54.78.44,1.83,1a13.71,13.71,0,0,1,3.39,2.88c1.19,1.23,1.79,1.86,1.94,2.56s0,1.19.36,1.83.84.6,1.48,1.2c.88.82.58,1.43,1.39,2.75a8.74,8.74,0,0,0,2.11,2.16c1.38,1.17,1.78,1.14,2.64,2a10.36,10.36,0,0,1,1.86,2.84,48.39,48.39,0,0,0,3.75,5.08,42.14,42.14,0,0,0,3.55,4.23,25.37,25.37,0,0,0,3.64,2.94,38.54,38.54,0,0,1,3.39,2.08c1.45,1.18,1.23,1.53,2.81,3,1.35,1.24,1.6,1.06,3.88,2.86a17.9,17.9,0,0,1,2.95,2.64,11.1,11.1,0,0,1,2.08,3.16c.57,1.37.45,2,1.2,2.78.51.55.91.61,2,1.19a20.58,20.58,0,0,1,2.86,2,13.78,13.78,0,0,1,3.36,4.66,24.87,24.87,0,0,1,1.92,4.64,24.19,24.19,0,0,1,1,6.09"/>
      <path class="cls-2" d="M587.13,681.66c2.83-.45,5.25-.87,7.15-1.2,5.14-.91.49-.18,7.44-1.63a17.36,17.36,0,0,0,4.64-1.87,3.61,3.61,0,0,0,1.5-1.4c.42-.76.18-1.13.5-1.77s.75-.93,2.84-1.69,2-.52,3.43-1.08a17.75,17.75,0,0,0,3.61-1.88c.92-.62,1.24-1,1.69-1.29,1.52-1.12,2.78-.81,9.47-.87,2.85,0,4.46-.11,5.84,0,0,0,.91,0,2.08,0a10.36,10.36,0,0,0,1.27-.07,9.87,9.87,0,0,0,2.19-.77,11.11,11.11,0,0,1,2.42-.27,25.82,25.82,0,0,0,3.62-.69,9.77,9.77,0,0,0,2.52-.87c1.18-.66,1.15-1.09,2.09-1.52a4.61,4.61,0,0,1,3.18-.19c.8.27,1.5,1,2.86,2.61.28.32,1.16,1.34,2.27,2.87a14.53,14.53,0,0,1,1.85,2.94c.58,1.46.19,1.7.75,2.94a5.27,5.27,0,0,0,2.5,2.72c1.07.46,1.3,0,3.31.28a11.67,11.67,0,0,1,3.25,1c1.28.6,1.12.8,2.32,1.41,1.48.75,2.07.62,4.29,1.38,1.92.66,1.58.8,2.71,1.1,2.2.59,2.66-.16,6,.11a34.61,34.61,0,0,1,4.06.62c1.63.34,1.57.44,2.37.54a10.82,10.82,0,0,0,4.84-.62,26.33,26.33,0,0,0,3.77-2.06c1.78-1.07,2.67-1.6,3.69-2.34,2.23-1.62,2-1.9,3.52-2.81,2-1.22,2.44-.7,4.33-1.92s2.55-2.37,3.13-2.1.13,1.12.54,2.46,1.13,1.81,2.56,3.37.83,1.22,3.08,3.94c2.7,3.26,3.15,3.29,3.52,4.54.54,1.8-.14,2.57.75,3.79.56.77,1,.64,2.61,2,1.37,1.15,1.18,1.31,2.06,1.92,1.62,1.12,2.39.66,3.73,1.56a6.28,6.28,0,0,1,2.29,3.29c.58,1.73,0,2.49.31,5.55a24.29,24.29,0,0,0,.41,2.78"/>
      <path class="cls-2" d="M691.14,539.83a11.07,11.07,0,0,0,.78,5.7c.69,1.56,1.35,1.89,2.22,4a13.57,13.57,0,0,1,1.08,4.17c.18,2-.31,2.43-.33,4.42,0,2.26.61,2.26,1.25,5.86.68,3.77.09,4.32,1,6.64.43,1.06.64,1.15,1.52,3.15,1.18,2.68.91,2.76,1.52,3.75,1,1.71,2,1.67,4.46,3.92a18.81,18.81,0,0,1,3.12,3.35c.71,1,1.42,3,2.81,6.88.72,2,1.09,3,1.36,4.1a27.84,27.84,0,0,0,.85,3.44,10.63,10.63,0,0,0,1.94,3.41c.92,1.07,1.26,1,2.07,1.89.58.65,1.11,1.49,1.91,4.09.94,3.07,1.41,4.61,1.31,5.82a9.59,9.59,0,0,1-3.08,6.12c-1.43,1.2-2,.74-2.88,1.81-1.16,1.35-1.15,3.19-1.1,6.79,0,2.3.25,4.83.29,5.3a15.84,15.84,0,0,1,.08,4.37,5.37,5.37,0,0,1-1.5,3.48c-.75.64-1.11.35-2.75,1a6.61,6.61,0,0,0-3.46,2.48,4.55,4.55,0,0,0-.43,3.42c.67,2.06,2.72,1.77,3.73,4,.63,1.37-.1,1.66.62,4a8.25,8.25,0,0,0,1.67,3.27c1,1.17,1.56.91,2.83,2a8.37,8.37,0,0,1,2.58,4.23,8.14,8.14,0,0,1-.22,4.48"/>
      <path class="cls-2" d="M705.57,530.68a14.81,14.81,0,0,1,4,4.46,26.27,26.27,0,0,0,1.86,3.44c1.3,1.78,2,1.7,3.18,3.33s.67,1.73,2.07,4.23a19.08,19.08,0,0,0,3.14,4.61,5.62,5.62,0,0,1,2,2.79,8.88,8.88,0,0,1,.11,1.64c0,.93-.23,1.15-.2,1.65,0,.9.69,1.27,1.46,2.24a10.32,10.32,0,0,1,1.89,4.29c.43,1.95-.11,2.26.4,2.89,1,1.21,2.9,0,6.28.91,1.15.33,2.9.83,3.53,2.24.47,1.05-.13,1.62.3,2.9a5.22,5.22,0,0,0,2.75,2.78c2.08.91,3.11-.34,5.79.2,1.4.27,1.18.62,3.94,1.88,2.46,1.14,4.61,2.12,7.31,2.17,2.2,0,2.13-.58,4.13-.39,3.05.29,3.66,1.78,5.5,1.36,1.5-.34,1.45-1.41,3.94-2.91a15,15,0,0,1,3.42-1.48c2.81-.79,5.14-.34,8.42.28a43.9,43.9,0,0,1,6.15,1.68c2.75,1,2.74,1.23,4.32,1.54a10.87,10.87,0,0,0,6.75-.5c1.44-.66,1.43-1.15,2.61-1.75,1.42-.71,3.77-1.18,7.7.28"/>
      <path class="cls-2" d="M716.4,512.83a31.84,31.84,0,0,0,10.21,3.71c4.3.77,7.18,1.28,10.09-.08a19.26,19.26,0,0,1,4.64-2.07c1.84-.45,2.39-.18,3.86-.83a33.23,33.23,0,0,0,3.51-2.49c2.41-1.8,2.56-1.94,3.13-2.11,1.17-.35,2.17-.22,2.5-.9a3.3,3.3,0,0,0,.11-1.33,10.59,10.59,0,0,0-.09-1.19c-.23-1.66-2.21-4.07-2.77-6.58a10.65,10.65,0,0,1,.17-4.13c.16-1.05.19-.63,1.27-4.67.38-1.4.5-1.92,1-2.43s1.25-.69,2.67-1c3-.68,4.55-1,4.89-1,2-.19,2.24.07,3.77-.28a4.94,4.94,0,0,0,2.88-1.27,4.56,4.56,0,0,0,1-3.41,5.28,5.28,0,0,0-1-2.75c-.79-1.07-1.35-.91-1.81-1.79a4.08,4.08,0,0,1,.06-3.23,6.14,6.14,0,0,1,2.33-2.75,6.35,6.35,0,0,1,1.94-1.11,7.52,7.52,0,0,1,2.85-.23c2.56.09,3.84.13,4,.11a10,10,0,0,0,4.19-1.88c1.51-1,2.4-1.55,2.73-2.64a9.21,9.21,0,0,0,0-2.46c0-1,0-.52,0-2.69,0-4.46-.14-4.49.08-5.17.32-1,.79-2.43,2-3a3,3,0,0,0,1.46-1c.29-.43.2-.69.5-1s.92-.43,1.67-.52a9.68,9.68,0,0,0,2.87-.64,4,4,0,0,0,2-1.84,9.74,9.74,0,0,0,.32-1.29,6.42,6.42,0,0,1,1.08-2.33c.69-.87,1-.52,1.73-1.38a6.54,6.54,0,0,0,1.27-2.68c.31-1.1.12-1.11.37-1.63.17-.34.49-.8,2.65-2.06,1.13-.66,1.38-.73,2.32-1.31.78-.48,1.4-.92,1.79-1.21"/>
      <path class="cls-2" d="M531.24,385.07a12.19,12.19,0,0,0,.58-4.36,6.94,6.94,0,0,0-.71-3.21c-.6-1.13-1-1-2-2.27-1.21-1.66-.69-2.2-1.81-3.77s-1.91-1.34-2.6-2.69c-.52-1-.46-2-.34-4,.19-2.83.28-4.24,1-5.46a9,9,0,0,1,4.35-3.35c1.83-.77,2.76-.54,4.1-1.67a9,9,0,0,0,1.76-2.16,18.26,18.26,0,0,0,1.65-3.24,23,23,0,0,1,3.3-5c1.35-1.75,1.2-1.24,4.88-5.31,4.08-4.5,3.17-3.92,4.21-4.8a5.62,5.62,0,0,0,2-2.41c.41-1.12,0-1.55.39-2.79.47-1.5,1.21-1.34,1.85-2.83.49-1.13.45-2.19.39-4.31-.06-1.73-.24-1.62-.22-3,0-1.74.32-2.19.31-3.81a16.74,16.74,0,0,0-.31-2.9c-.4-2.61,0-2.79-.23-7.06-.19-4.05-.56-4.59-.06-6.29s1-1.71,1.65-3.43c.37-1,.62-2,.77-6.36.16-5,.24-7.46-.13-9.58-.27-1.58-.34-3.19-.69-4.75a5.13,5.13,0,0,1-.18-2.5c.19-.75.54-1.09,1.74-2.53,2.16-2.57,2-2.63,2.53-2.93,1.28-.76,1.75-.18,3.66-.89a9.6,9.6,0,0,0,3.28-2.08,14.44,14.44,0,0,0,2.66-3.91c1.13-2.08,1-2.32,2.29-4.88s1.44-2.48,2.55-4.84c1.21-2.55.94-2.49,1.74-3.85.29-.49,1.15-1.7,2.87-4.12a13,13,0,0,0,1.52-2.43,19.92,19.92,0,0,0,.83-2.71,22.11,22.11,0,0,1,1.45-3.6,17.16,17.16,0,0,1,2.19-3.36,14.78,14.78,0,0,0,2.15-2.61,21.34,21.34,0,0,0,.89-2.32,33.15,33.15,0,0,0,1.4-3.22c.38-1.37.16-1.71.64-2.36a3.75,3.75,0,0,1,2-1.21c1.21-.37,1.7-.14,3.44-.25a16.58,16.58,0,0,0,3.41-.56c1.6-.43,1.9-.82,3.52-1.37a25.56,25.56,0,0,1,3.73-.82c3.75-.74,5.63-1.12,6.88-1.9s.94-.93,3.61-2.93a19.88,19.88,0,0,1,2.43-1.67c1.54-.87,1.79-.69,3.23-1.57a7,7,0,0,0,2.56-2.07,5.09,5.09,0,0,1,1-1.37c.66-.57,1-.39,1.67-.95a8.23,8.23,0,0,0,1.25-1.65,10.12,10.12,0,0,0,.92-1.5,7.23,7.23,0,0,0,.32-2.21c0-.58.12-1.65.23-2.4a11.69,11.69,0,0,1,1-3.28c.89-1.85,1.53-1.7,2-3.21.25-.81,0-.79.39-2.8a11.19,11.19,0,0,1,.61-2.6,9.71,9.71,0,0,1,1.76-2.49c.47-.54,1-1.14,2.18-2.34s1.36-1.4,1.61-2c.37-.82.14-1,.45-2.17.36-1.36.8-1.54,1.29-2.87a15.5,15.5,0,0,0,.55-2.91c.46-3.09.26-3.36.71-4.36a15.84,15.84,0,0,1,1.84-2.48c1.53-1.91,1.68-1.85,2.37-2.87a16.85,16.85,0,0,0,1.7-3.31c.23-.58.51-1.51,1.08-3.35.69-2.24,1-3.3,1.12-3.79a20.84,20.84,0,0,0,.84-3.53c.1-1.35-.15-1.4,0-2.78a4.92,4.92,0,0,1,1-3.05c.4-.43.72-.51,1-1.05a3.76,3.76,0,0,0,.27-1.62c.11-1,.64-1.26,1.55-2.57a12.17,12.17,0,0,0,1.77-3.42,12.61,12.61,0,0,0,.4-3.36c.12-2.8-.28-3,.14-3.91.57-1.21,1.82-1.89,3.23-2.66a10.17,10.17,0,0,0,2.35-1.38c.72-.64.69-.9,1.4-1.5a7.81,7.81,0,0,1,2.43-1.27,22.43,22.43,0,0,1,3.1-1"/>
      <path class="cls-2" d="M506.44,235.91a8.72,8.72,0,0,1,3.34,2c.85.82,1.07,1.41,2,1.84s1.23.13,2.27.6a6.55,6.55,0,0,1,1.73,1.21,8,8,0,0,1,1.92,2.12c.55,1,.29,1.11.81,1.92a5.2,5.2,0,0,0,2.15,1.85,10.67,10.67,0,0,0,2.79.55c1.13.14,1.9.24,3,.29a17.6,17.6,0,0,1,2.48.08c1.06.2,1.06.44,2.31.77,1.62.43,1.84.08,3,.5s1,.84,2.27,1.42a10.25,10.25,0,0,0,3.29.71c2,.23,2.1,0,3,.31,1.39.49,1.35,1.16,2.6,1.65,1.09.41,1.62.11,3.88,0a30.77,30.77,0,0,1,4.27.12c2.79.3,2.69.89,5.1,1.15.85.09,2.4,0,5.5-.05,1.87,0,3.19-.12,3.8.71.19.27.19.46.47,1.52s.52,1.78.69,2.27"/>
      <path class="cls-2" d="M365.1,371.72c-.29-.22-5.13-4-7.51-6.19a9.89,9.89,0,0,1-1.59-1.81c-.67-1-.52-1.21-1.28-2.5a6.66,6.66,0,0,0-2.05-2.53,8.05,8.05,0,0,1-1.24-.76,4.16,4.16,0,0,1-1.12-1.79c-.59-1.68-2.5-3.6-4.6-5.71s-4.17-3.58-5.47-5.32a11.87,11.87,0,0,1-1.2-1.75c-.36-.82-.43-1.5-1-1.74-.37-.16-.53.07-.86-.08-.54-.24-.47-1-.86-2.22a6.14,6.14,0,0,0-1.2-2.34,8.69,8.69,0,0,0-1.43-1.08,13.24,13.24,0,0,1-2.15-2.36c-.87-1-1.11-.69-3.61-2.26-3.29-2.07-4.07-3.29-4.35-3.78a15.61,15.61,0,0,1-.72-1.64c-.71-1.72-.83-2.42-1.54-4s-1-1.8-1.12-1.92c-.7-.57-1.32-.48-1.72-1.14s0-1-.36-1.43c-.59-.66-1.87,0-2.35-.62-.27-.38,0-.8-.32-1.17a1.44,1.44,0,0,0-1.08-.31c-2.05-.08-2.65-4.92-5.49-6.19a7.47,7.47,0,0,1-1.91-1.13,11.3,11.3,0,0,1-1-1c-1.56-1.58-2.08-1.31-2.61-2.25s-.18-1.57-.88-2.19c-.47-.43-.71-.2-1.13-.61-.7-.67-.29-1.49-.92-2.48-.31-.47-.57-.53-1.15-1-1.23-1-1-1.49-2.42-3.17A13,13,0,0,0,294,292.5c-.54-.36-.71-.41-1.14-.75a5.21,5.21,0,0,1-1.93-2.57c-.24-.89.07-1.19-.33-1.84s-.65-.47-1-1.06-.12-.83-.49-1.67-.68-.83-.66-1.25.6-.95,1.6-1.63a9.89,9.89,0,0,1,1.62-.93,25.51,25.51,0,0,1,4.66-1.34c2.12-.56,1.76-.62,2.75-.8a24.59,24.59,0,0,1,4.44-.08c2.7,0,3.64,0,4.2-.08,1.14-.09,1.23-.15,2.37-.26,3.11-.31,3.93,0,6.13-.22a20.3,20.3,0,0,0,4.23-.95c3.18-1.08,3.67-2.15,6.68-2.86a19.42,19.42,0,0,1,3.13-.45,35.89,35.89,0,0,1,4.54.06,35.77,35.77,0,0,0,4.72.06c2.19-.38,2.17-1.12,4.46-1.69,1.2-.31,2.76-.27,5.87-.19a42.2,42.2,0,0,0,5.49,0,8.47,8.47,0,0,0,3.42-.73c1.15-.63,1.49-1.34,3-2a9.33,9.33,0,0,1,2-.55,36.47,36.47,0,0,1,5-.53,25.09,25.09,0,0,0,4.38-.68,26.73,26.73,0,0,0,4-1.42,21.1,21.1,0,0,1,3.59-1.48c.67-.16.51-.05,2.8-.43,1.8-.3,2-.37,2.84-.47,1.62-.18,1.83,0,2.78-.16.64-.09,1.29-.27,3.55-1.47,2.81-1.48,4.22-2.22,5.05-3.17a10.8,10.8,0,0,0,1.82-3.13c.71-1.72,1.22-2.93,1.07-4.45a2.53,2.53,0,0,1,.08-1.35c.37-.85,1.19-.94,1.82-1.43,1.2-.93,1.14-2.86,1.06-5.41a12,12,0,0,0-1-5,10.91,10.91,0,0,0-2.56-3.49"/>
      <path class="cls-2" d="M312.81,95.6a7.91,7.91,0,0,0,2.41,3.19,5.16,5.16,0,0,1,1.6,1.44,5.47,5.47,0,0,1,.61,2.33c.33,2.46.5,3.7.5,4,0,1.29-.21,1.19-.32,3.11a13,13,0,0,0,.07,3.16,10.48,10.48,0,0,0,.95,2.94c.69,1.39,1,1.26,1.84,2.79a18.3,18.3,0,0,1,1.32,3.2,18,18,0,0,0,.72,2.28,7.22,7.22,0,0,1,.75,1.83,7.81,7.81,0,0,1,0,1.53c0,1.15.62,1.34,1.52,3.31a10.4,10.4,0,0,1,.94,2.75c.19,1.11,0,1.29.23,2.21a10.38,10.38,0,0,0,1.27,2.6,17.78,17.78,0,0,1,1.58,3.42,9.47,9.47,0,0,1,.42,2.14c0,.94-.12,1.45.25,2s.66.38.91.84c.11.19.26.61-.29,2.31-.39,1.21-.51,1.12-.64,1.73a5.16,5.16,0,0,0,.23,2.79c.36,1.14.66,1,1.43,2.54s.48,1.61,1.48,3.88a7.38,7.38,0,0,1,.56,1.48,11.2,11.2,0,0,1,.21,2.27,11,11,0,0,0,.79,2.68c.84,2.64,0,3.06.78,5.42.13.41,0,0,1.52,3.15s1.25,2.83,1.5,3.23a4.86,4.86,0,0,1,.81,1.81,10.18,10.18,0,0,1,.08,1.31c0,1.26,0,1.38,0,1.83a6.07,6.07,0,0,0,.88,2.07,9.59,9.59,0,0,1,.75,3.14,29.2,29.2,0,0,1,0,4.31c-.06,2.72,0,3.31.33,4.07a4.39,4.39,0,0,0,1.44,1.89c.59.41,1,.4,1.39.9a2.71,2.71,0,0,1,.59,1.67,4,4,0,0,1-1,2.54,6.63,6.63,0,0,1-2.25,1.83c-1.29.66-1.71.38-3,.88a13.46,13.46,0,0,0-3.27,2.27c-2.35,1.88-2.3,2.12-3.5,2.85a13.51,13.51,0,0,1-3.46,1.48c-2,.53-2.22,0-4.29.56a21,21,0,0,0-3.84,1.52c-1.18.56-2.07,1.06-2.41,1.25-1.57.9-1.53,1-2.3,1.42-1.63.8-2.06.25-4.48.92a15.72,15.72,0,0,0-3.52,1.45c-1.43.83-1.4,1.14-2.81,1.84s-1.82.57-2.6,1.25c-1,.82-.72,1.34-1.59,2s-1.26.43-2.83.77a34.62,34.62,0,0,0-3.4,1.08c-1.89.66-2.87,1-4.1,1.56a28.71,28.71,0,0,0-4.65,2.73c-2,1.46-1.87,1.79-4.08,3.44a14.15,14.15,0,0,1-4.31,2.58c-1.79.57-2.09.09-4.63.69a41.31,41.31,0,0,0-3.95,1.36c-4.15,1.52-2.59,1.26-4.4,1.83-.77.24-1.21.34-1.46.77s.08,1.45.83,3.33c1.05,2.61,1.11,2.75,1.25,3a18.7,18.7,0,0,0,1.88,2.86c1.1,1.42,1.28,1.29,1.87,2.23a18,18,0,0,1,1.36,3.29,24.16,24.16,0,0,0,1.54,3.35c.75,1.3.92,1.2,2.1,3,.87,1.3.71,1.25,2.23,3.71.69,1.1,1.16,1.87,1.88,2.92s.94,1.26,1.5,2.14a28.59,28.59,0,0,1,1.58,2.82,15.81,15.81,0,0,0,1.38,2.75c.53.69.68.59,1.85,1.66,1.75,1.59,1.91,2.25,3.29,3.23a9.42,9.42,0,0,0,1.84,1"/>
      <path class="cls-2" d="M115.08,301.25a11.53,11.53,0,0,1,5.14-1.91,13.41,13.41,0,0,0,3-.41,24.61,24.61,0,0,0,2.66-1c2-.82,1.92-.65,3.11-1.17,1.36-.59,2.65-1.29,3.37-1.68a8.6,8.6,0,0,1,2-1c1.08-.29,1.28,0,2.67-.15,1.15-.14,1.09-.36,3-.78,1.33-.3,1.39-.2,2.42-.48s1.31-.52,2.3-.77a21.59,21.59,0,0,1,2.84-.48,23.5,23.5,0,0,0,4.38-1.13,18.6,18.6,0,0,0,4.34-1.87c1.29-.79,1.09-.94,2.13-1.51s1.8-.7,4.78-1.36c2.08-.46,3.12-.69,4.17-1,2-.56,2.06-.76,4.07-1.29s2.39-.45,3.76-.94c1.88-.67,1.9-1.06,3.82-1.73a22.88,22.88,0,0,1,3.38-.84c1.53-.3,1.79-.25,3.71-.56a26.39,26.39,0,0,0,4.51-.93,18.53,18.53,0,0,0,3.88-2c1.7-1.07,1.72-1.34,3.73-2.64a37.83,37.83,0,0,1,3.31-1.93c1.26-.67,2-1,4.29-2,3.45-1.5,5.19-2.26,5.83-2.67,1.49-.93,1.08-1,4.14-3.28,1-.75,2.38-1.79,4.24-3,2.56-1.65,2.63-1.41,4.05-2.48,2.09-1.55,1.91-2.09,4.11-3.75a27.75,27.75,0,0,1,4.32-2.65,15.62,15.62,0,0,1,5.39-1.83c1.12-.13,1.14,0,2.06-.15,2-.4,2.38-1.23,4.18-1.43,1.24-.15,1.27.23,2.28,0,1.23-.32,1.42-.94,2.76-1.43,1.13-.42,1.18,0,2.56-.41s1.72-.93,3.54-1.63c1.34-.53,1.54-.36,2.8-.78a12.84,12.84,0,0,0,4-2.21"/>
      <path class="cls-2" d="M326.63,767.73c-.16-.55-.41-1.42-.66-2.5s-.31-1.53-.59-2.67c-.38-1.58-.51-1.63-.73-2.62a18.25,18.25,0,0,1-.31-3.32c-.08-2-.12-3-.1-4.27.05-4.06-.32-7.54-.59-18.56a27.61,27.61,0,0,1,.13-4.75c.27-2,.7-3,.9-5.65a9.28,9.28,0,0,0-.13-3.14c-.2-.85-.43-1.19-.6-2a7.46,7.46,0,0,1,0-2.83"/>
    </g>
  </g>
</svg>
