<?xml version="1.0" encoding="UTF-8" standalone="no"?>
<svg
   xmlns:dc="http://purl.org/dc/elements/1.1/"
   xmlns:cc="http://creativecommons.org/ns#"
   xmlns:rdf="http://www.w3.org/1999/02/22-rdf-syntax-ns#"
   xmlns:svg="http://www.w3.org/2000/svg"
   xmlns="http://www.w3.org/2000/svg"
   id="svg11"
   version="1.1"
   viewBox="0 0 811.17 1052.27">
  <metadata
     id="metadata15">
    <rdf:RDF>
      <cc:Work
         rdf:about="">
        <dc:format>image/svg+xml</dc:format>
        <dc:type
           rdf:resource="http://purl.org/dc/dcmitype/StillImage" />
        <dc:title></dc:title>
      </cc:Work>
    </rdf:RDF>
  </metadata>
  <defs
     id="defs4">
    <style
       id="style2">.cls-1,.cls-2{fill:none;stroke:#231f20;stroke-miterlimit:10;}.cls-1{stroke-width:0.75px;}</style>
  </defs>
  <g
     data-name="Layer 2"
     id="Layer_2">
    <g
       id="Districts">
      <g
         id="Voopmont" />
    </g>
  </g>
  <g
     style="fill:none;fill-opacity:1;stroke:#000000;stroke-opacity:1"
     transform="translate(-1823.1786,-533.71968)"
     id="Voopmont_Counties"
     data-name="Voopmont Counties">
    <path
       style="fill:none;fill-opacity:1;stroke:#000000;stroke-opacity:1"
       class="cls-3"
       d="m 2632.49,1195.06 a 24.39,24.39 0 0 0 -6.81,1.57 c -0.67,0.26 -1.29,0.54 -6.84,3.75 -4.45,2.58 -4.76,2.81 -5.22,3.25 -2.55,2.44 -1.91,3.79 -4.16,5.33 a 37,37 0 0 1 -5.78,1.92 c -3.76,1.12 -4,1.13 -4.56,1.53 -0.56,0.4 -0.92,0.79 -3.91,4.52 a 21.71,21.71 0 0 1 -2.56,3 14.39,14.39 0 0 1 -4.19,2.48 c -1.59,0.61 -1.61,0.27 -3.45,0.88 a 24.72,24.72 0 0 0 -4.72,2.31 33.87,33.87 0 0 0 -3.31,2.5 c -3.49,2.86 -3.63,3.57 -5.47,4.33 a 7.19,7.19 0 0 0 -2.36,1.09 21.81,21.81 0 0 0 -2.14,2.8 5.37,5.37 0 0 1 -1.17,1.25 6.58,6.58 0 0 1 -1.5,0.75 c -1.45,0.67 -1.46,1.23 -2.88,2 -1.14,0.62 -1.16,0.26 -2.14,0.81 -1.49,0.82 -1.33,1.56 -3,2.78 -1.29,1 -1.61,0.66 -2.55,1.61 -0.76,0.77 -0.66,1.07 -1.56,2 -0.75,0.75 -1,0.67 -1.94,1.55 -0.94,0.88 -0.93,1.13 -1.64,1.73 a 9.63,9.63 0 0 1 -3,1.41 c -3.14,1.23 -2.8,1.2 -3.53,1.42 -1.52,0.45 -1.64,0.27 -3.72,0.81 a 11.65,11.65 0 0 0 -3.25,1.11 c -1.24,0.72 -1.23,1.19 -2.59,2.2 a 18,18 0 0 1 -3.36,1.77 c -4,1.84 -3.61,1.47 -4.58,2.08 -1.86,1.16 -2.1,1.87 -4,2.7 a 15.37,15.37 0 0 0 -2,0.77 c -1.38,0.81 -1.56,1.57 -3.17,2.42 a 11.5,11.5 0 0 0 -1.16,0.61 c -0.9,0.6 -1,1 -1.67,1.56 -0.91,0.75 -1.15,0.4 -2.72,1.33 -1,0.57 -0.94,0.75 -1.82,1.2 a 12.77,12.77 0 0 1 -2.07,0.77 6.75,6.75 0 0 0 -3.14,3.23 c -1.19,2.1 -0.75,3.28 -2.11,4.33 -0.57,0.44 -0.69,0.27 -1.47,0.83 a 8.62,8.62 0 0 0 -2.25,2.64 36.6,36.6 0 0 1 -2.42,3.39 c -1.45,1.71 -1.89,1.35 -4.14,3.44 -1.79,1.68 -1.41,1.81 -3.39,3.64 a 23.56,23.56 0 0 0 -3.08,2.89 16.9,16.9 0 0 0 -1.81,2.92 c -0.74,1.57 -0.6,1.94 -1.27,2.87 -0.46,0.64 -0.71,0.71 -2.32,2 -0.89,0.72 -1.66,1.38 -3.2,2.72 a 34.75,34.75 0 0 1 -2.78,2.39 24.34,24.34 0 0 1 -3.12,1.8 c -2.33,1.24 -2.56,1.29 -4.33,2.23 -1.92,1 -1.57,0.91 -4.65,2.59 a 38.26,38.26 0 0 0 -3.4,1.94 c -1.58,1.09 -1.54,1.36 -2.75,2 -1.38,0.79 -1.79,0.64 -3.68,1.5 a 25.9,25.9 0 0 0 -3,1.69 20.48,20.48 0 0 0 -4.36,3 c -0.74,0.77 -0.94,1.18 -2,2.24 a 19,19 0 0 1 -1.86,1.6 c -1.13,0.85 -1.46,0.87 -2.66,1.67 -1.55,1.05 -1.45,1.32 -2.56,2 a 15.2,15.2 0 0 1 -3.65,1.42 26.86,26.86 0 0 0 -4.79,1.83 c -0.3,0.23 -1.17,1.21 -2.9,3.17 a 28.47,28.47 0 0 1 -2.14,2.38 c -1.05,0.95 -1.36,0.95 -3.1,2.34 -1.49,1.17 -1.33,1.22 -2.15,1.78 -1.2,0.82 -2.67,1.82 -4,1.54 -0.86,-0.18 -1.27,-0.82 -2.93,-3.75 -3.45,-6 -3.51,-6.46 -4.42,-7.11 A 5.78,5.78 0 0 1 2402,1336 c -0.37,-0.73 -0.29,-1.07 -0.69,-1.72 -0.4,-0.65 -1.1,-1 -2.36,-1.75 -2.29,-1.26 -3.44,-1.91 -4,-2.75 -0.56,-0.84 -0.37,-1 -0.95,-2.53 a 25.33,25.33 0 0 0 -2.11,-4.13 c -2.74,-4.92 -3.07,-7.27 -4.09,-7.14 a 2.4,2.4 0 0 0 -1.05,0.55 9,9 0 0 1 -3.83,1.78 18.47,18.47 0 0 1 -4.61,0.36 25.69,25.69 0 0 1 -3.39,-0.08 c -2.76,-0.33 -2.92,-1.1 -5.61,-1.59 -2.69,-0.49 -2.92,0.3 -5.33,-0.38 -1.64,-0.47 -2.23,-1 -3.45,-0.78 a 8.8,8.8 0 0 0 -2.75,1.5 17.28,17.28 0 0 0 -2.42,1.75 c -1.16,1.24 -1.43,2.68 -1.86,5.14 -0.33,1.88 -0.17,2.22 -0.47,4.52 a 41.16,41.16 0 0 1 -0.86,4.59 c -1.6,6.23 -4.12,6.83 -4.06,10.78 a 3.86,3.86 0 0 1 -0.5,2.66 c -0.68,0.91 -1.59,0.81 -3.5,1.59 -1.91,0.78 -3.1,1.26 -3.66,2.36 -1,1.92 0.57,4.65 0.91,5.25 0.93,1.62 1.77,1.84 2.2,3.41 0.21,0.77 0.1,1 0,3 -0.16,4.2 0.31,4.71 -0.31,6.19 -0.05,0.12 -0.11,0.24 -0.12,0.26 a 8.28,8.28 0 0 1 -1.93,2.49 29.86,29.86 0 0 0 -3.62,3.83 c -1.85,2.66 -0.3,4 -2,7.78 a 20.9,20.9 0 0 1 -3.34,4.78 c -2.25,2.74 -3.41,3.33 -4.27,5.58 -0.55,1.43 -0.25,1.59 -0.95,3.22 a 23,23 0 0 1 -2.5,4.17 v 0 c -0.91,1.3 -1.22,1.55 -1.53,2.08 -0.31,0.53 -0.08,0.56 -0.5,1.78 a 12.7,12.7 0 0 1 -0.77,1.78 c -1.09,2.17 -0.78,2.47 -1.56,3.86 a 19.34,19.34 0 0 1 -2.64,3.14 c -1.56,1.68 -1.75,1.66 -2.19,2.39 -0.78,1.26 -0.69,2.08 -1.09,3.86 a 22.34,22.34 0 0 1 -2.05,5.42 c -1.45,2.92 -2,2.59 -3,5.11 a 24.37,24.37 0 0 1 -1.56,3.69 12.7,12.7 0 0 1 -1.61,2.36 c -1.06,1.23 -1.43,1.15 -2.05,2 -1.11,1.45 -0.33,2.21 -1.2,3.94 -0.69,1.38 -1.26,1.09 -3.75,3.67 -1.53,1.59 -1.41,1.8 -2.39,2.55 a 7.5,7.5 0 0 1 -4,1.81 c -1.47,0.1 -1.74,-0.54 -5.72,-1.92 -2.78,-1 -3.55,-1 -4.22,-0.64 a 4.27,4.27 0 0 0 -1.81,2.47 c -0.68,1.9 0.08,2.67 -0.69,3.81 a 3.92,3.92 0 0 1 -2.89,1.44 c -1.21,0.1 -3,-0.27 -3.42,-1.36 -0.28,-0.68 0.22,-1 0,-1.86 -0.22,-0.86 -0.71,-1 -2.06,-2.19 -1.76,-1.59 -1.51,-1.75 -2.22,-2.09 -0.71,-0.34 -1.07,-0.16 -3.61,-0.16 -2.54,0 -3.28,-0.23 -3.67,0.28 -0.39,0.51 0.14,1.2 -0.28,2.88 a 3.2,3.2 0 0 1 -0.66,1.53 c -0.47,0.53 -1,0.67 -2.36,1 -2.7,0.73 -2.5,0.75 -2.7,0.75 -2.45,0 -4.24,-2.25 -4.5,-2.58 -0.72,-0.92 -0.43,-1.36 -1.25,-2.39 a 6.14,6.14 0 0 0 -2.22,-1.78 c -1.34,-0.6 -1.94,-0.16 -4.22,-0.25 -3.39,-0.13 -4.3,-1.17 -5.67,-0.36 -1,0.56 -0.62,1.13 -1.78,2 a 7,7 0 0 1 -4.44,1.22 c -2.17,-0.07 -2.51,-1 -4,-0.56 -1,0.27 -1.06,0.72 -2.7,1.44 a 15.88,15.88 0 0 1 -2.33,0.79 c -3.56,0.86 -5.37,-0.65 -6.39,0.38 -0.5,0.52 -0.14,1 -0.17,4.09 a 24.7,24.7 0 0 1 -0.41,4.91 c -0.45,2.16 -0.85,1.94 -1.23,3.73 -0.74,3.54 0.77,4.68 -0.36,7 a 5.93,5.93 0 0 1 -2.58,2.72 c -1,0.51 -1.38,0.25 -3,0.78 a 8.22,8.22 0 0 0 -3.25,1.75 c -0.36,0.35 -2.19,2.09 -1.86,4 0.33,1.91 2.26,1.81 2.72,3.94 0.26,1.21 -0.29,1.55 0.16,2.53 0.45,0.98 1.27,1 2.48,2.25 a 4.48,4.48 0 0 1 1.52,2.69 c 0,0.29 0,1.27 -2.27,3.53 a 33.23,33.23 0 0 1 -3.78,3.06 c -1.29,1 -2.69,2 -4.2,3.3 -2.94,2.49 -2.89,2.93 -4.5,3.84 a 34.73,34.73 0 0 1 -4.41,1.66 c -2.51,0.92 -3.77,1.38 -4.92,1.86 a 23.3,23.3 0 0 0 -5.11,2.59 c -2.16,1.63 -2.07,2.57 -4,3.8 -1.93,1.23 -2.49,0.51 -4.56,1.53 -1.21,0.6 -1.92,1.27 -5.22,5.06 -4,4.61 -3.54,4.29 -4.28,4.94 -3.11,2.76 -4.34,2.07 -7,4.72 -0.17,0.18 -0.65,0.76 -1.21,1.48 -1.25,1.56 -1.91,2.58 -2.29,3.11 a 13.41,13.41 0 0 1 -5.47,4.08 c -2.78,1.26 -3.09,0.33 -5.89,1.58 -3.08,1.38 -3.07,2.67 -6,3.61 -1.19,0.38 -1,0.12 -4.47,0.81 -2.74,0.55 -4.12,0.83 -4.94,1.33 a 9.63,9.63 0 0 0 -3.56,4.69 21.55,21.55 0 0 0 -0.68,2.06 19.53,19.53 0 0 0 -0.79,3.54 c -0.45,3 0.3,3.45 -0.21,5.55 a 18,18 0 0 1 -1.71,3.87 20.85,20.85 0 0 0 -2.22,6.66"
       id="path92" />
    <path
       style="fill:none;fill-opacity:1;stroke:#000000;stroke-opacity:1"
       class="cls-3"
       d="m 1879.56,1572.51 a 54.32,54.32 0 0 1 4.92,-7.3 c 1.62,-2 2.39,-2.67 4.17,-5 2.51,-3.38 2,-3.48 3.61,-5.34 a 35.53,35.53 0 0 1 7.17,-5.94 c 0.32,-0.23 1.42,-1.13 3.61,-3 a 5.65,5.65 0 0 0 1.72,-1.91 c 0.44,-0.89 0.27,-1.29 0.78,-1.89 0.51,-0.6 0.8,-0.45 2,-1.14 a 5.81,5.81 0 0 0 1.84,-1.25 c 0.83,-1 0.22,-1.68 0.91,-3.08 0.5,-1 0.88,-0.79 2.34,-2.53 0.28,-0.34 0.74,-1 1.66,-2.28 1.74,-2.43 1.68,-2.44 1.92,-2.61 0.87,-0.61 1.48,-0.34 5.11,-0.33 a 34.89,34.89 0 0 0 4,-0.14 17.56,17.56 0 0 0 4,-0.78 c 1,-0.33 1.08,-0.5 4.5,-2.47 2.86,-1.66 3.25,-1.82 4,-2.56 a 15.81,15.81 0 0 0 2.17,-2.58 c 1.17,-1.72 1.08,-2.31 2.08,-3.2 0.54,-0.47 0.6,-0.34 2.61,-1.41 2.01,-1.07 2.07,-1.29 3.48,-2 1.41,-0.71 1.22,-0.41 3.08,-1.22 1.86,-0.81 2.2,-1.12 2.55,-0.94 1.28,0.63 0.21,5.24 0.09,5.75 -0.42,1.76 -0.71,1.77 -1,3.22 a 9.51,9.51 0 0 0 0.27,5.41 c 1.16,2.73 3.27,2.22 4.43,5 0.89,2.1 0.16,3.54 1.23,4.23 0.84,0.53 1.76,0 3.63,-0.42 0.51,-0.1 0.74,-0.12 6.17,0 5.6,0.13 6.46,0.17 7.58,0.9 1.12,0.73 1.15,1.33 2.27,1.73 0.78,0.28 1.58,0.29 5.42,-0.92 3.13,-1 4.72,-1.5 5.52,-2.27 0.8,-0.77 1.07,-1.49 2.12,-1.94 a 3.73,3.73 0 0 1 3.15,0 c 0.44,0.29 0.82,0.27 2.33,2.69 v 0 c 0.46,1 0.31,1.59 0.79,3 a 14.57,14.57 0 0 0 1.42,2.88 c 1.86,3.3 1.38,3.89 2.4,5.29 1.02,1.4 1.85,1.22 8.12,3.83 3.66,1.53 3.38,1.61 6.42,2.79 3.27,1.29 3.82,1.28 5.56,2.21 2.41,1.29 2.62,2 5.17,3.67 a 34.49,34.49 0 0 0 7.5,3.73 c 4.84,1.79 5.2,0.79 8.14,2.48 2.16,1.24 2.89,2.31 5.48,3.14 0.39,0.13 0.55,0.16 3.73,0.9 l 4.4,1 c 3.19,0.5 5.88,-0.66 9.37,-2.17 4.37,-1.88 3.61,-2.54 6.52,-3.37 3.18,-0.91 4.45,-0.23 8.38,-1.33 2.53,-0.72 2.36,-1.1 4.6,-1.8 1.49,-0.46 3.33,-0.84 13,-0.58 5.19,0.14 6.29,0.29 8,-0.56 1.9,-1 2.29,-2 4.42,-2.59 2.13,-0.59 3.18,0.17 5.65,-0.07 a 12.24,12.24 0 0 0 5.87,-2.27"
       id="path94" />
    <path
       style="fill:none;fill-opacity:1;stroke:#000000;stroke-opacity:1"
       class="cls-3"
       d="m 2228.21,1449.43 a 7.45,7.45 0 0 0 0.43,-3.42 8,8 0 0 0 -2.23,-4.6 c -1.73,-1.79 -3.07,-1.46 -4,-3.21 -0.53,-1 -0.17,-1.33 -0.8,-2.4 a 7.25,7.25 0 0 0 -2.93,-2.52 c -1.87,-1.09 -3,-1.21 -3.9,-2.31 a 6.08,6.08 0 0 1 -0.76,-1.3 6.42,6.42 0 0 1 -0.35,-1.33 c -0.2,-0.79 -0.55,-2.08 -1.3,-4.38 -1.11,-3.39 -1.87,-5.27 -1.11,-5.92 0.43,-0.36 0.87,0.07 2.55,-0.08 a 27.7,27.7 0 0 0 3.12,-0.75 c 1.95,-0.38 2.12,0 3.55,-0.47 a 4.8,4.8 0 0 0 2.67,-1.47 c 0.37,-0.49 0.38,-0.8 0.83,-2.53 a 27.74,27.74 0 0 1 0.89,-3.06 6.22,6.22 0 0 1 2.5,-3.39 c 1.2,-0.64 1.7,0 3.33,-0.58 1.48,-0.48 1.74,-1.19 3.36,-2.33 a 16.33,16.33 0 0 1 5.28,-2.34 15,15 0 0 1 5.7,-0.72 c 1.54,0.15 2.67,0.34 2.67,0.34 2,0.31 2.45,0.46 3.19,0.25 a 4.34,4.34 0 0 0 1.78,-1.2 c 1.63,-1.65 1.31,-2.89 2.5,-4.72 a 9.44,9.44 0 0 1 3.88,-3.25 13,13 0 0 1 4.84,-1.25 c 3.25,-0.37 4.26,0.34 6.16,-0.61 a 6,6 0 0 0 2.28,-1.92 c 0.76,-1.07 1,-2.2 1,-5.33 0.11,-4.88 -0.37,-5.8 0.47,-6.86 a 6.28,6.28 0 0 1 4.39,-2 17.14,17.14 0 0 1 7.75,0.25 c 2.66,0.58 2.2,1 5.08,1.56 2.88,0.56 4,0.38 5.59,1.44 1.59,1.06 1.24,1.77 2.5,2.31 1.43,0.62 2,-0.23 5.75,-0.75 3.09,-0.43 4,0 5.33,-1 0.72,-0.54 0.93,-1 1.83,-1.39 0.9,-0.39 1.67,-0.17 3.12,-0.11 a 15.91,15.91 0 0 0 5.05,-0.58 c 1.44,-0.44 1.29,-0.69 3.2,-1.36 2.16,-0.76 2.49,-0.47 3.88,-1 2.11,-0.84 2,-1.74 4.31,-3.11 a 13.31,13.31 0 0 1 5.14,-1.78 12.28,12.28 0 0 1 6.21,1"
       id="path96" />
    <path
       style="fill:none;fill-opacity:1;stroke:#000000;stroke-opacity:1"
       class="cls-3"
       d="m 2155.41,1533.8 a 11.65,11.65 0 0 1 -1.4,-2.88 11.74,11.74 0 0 0 -0.82,-2.63 c -0.59,-1 -1.26,-1.22 -2.14,-2 -1.37,-1.14 -1.22,-1.79 -2.68,-3.84 a 19.76,19.76 0 0 0 -4.54,-4.79 7.67,7.67 0 0 1 -2.83,-3.13 c -0.58,-1.26 -0.38,-2 -0.34,-5.5 0.06,-5.17 -0.34,-5.64 0.25,-7.62 0.59,-1.98 1.08,-1.94 1.34,-3.63 0.16,-1.06 0,-1.51 -0.5,-5.16 -0.26,-1.74 -0.58,-3.48 -0.77,-5.23 -0.24,-2.28 -0.19,-3.25 -1,-4.33 a 7.11,7.11 0 0 1 -1.22,-1.61 5.85,5.85 0 0 1 -0.19,-3.17 7.56,7.56 0 0 1 0.72,-3.16 c 0.41,-0.76 0.75,-1 1.82,-2.67 a 6,6 0 0 0 0.57,-1.06 c 0.37,-0.92 0.19,-1.25 0.5,-1.86 0.31,-0.61 0.87,-0.68 1.33,-1.3 0.46,-0.62 0.41,-1.12 0.22,-3.09 -0.24,-2.6 -0.37,-3.91 -0.69,-4.5 -0.7,-1.27 -1.23,-1 -2.11,-2.44 -0.68,-1.14 -0.52,-1.6 -1.28,-3.36 -0.66,-1.54 -0.87,-1.41 -1.39,-2.61 a 8.07,8.07 0 0 1 -0.69,-5.75 6.47,6.47 0 0 1 1.89,-2.84 8.43,8.43 0 0 1 4,-1.86 c 1.35,-0.32 1.52,-0.11 3.44,-0.5 1.68,-0.34 2.51,-0.51 3,-0.91 1,-0.88 0.62,-2 1,-5.49 a 38.68,38.68 0 0 1 0.95,-5.35 19.59,19.59 0 0 1 1.72,-4.69 9.93,9.93 0 0 1 2.14,-3 25.48,25.48 0 0 1 4.33,-2.5 c 1.59,-0.83 2.23,-1.13 2.53,-1.89 0.3,-0.76 0,-1.16 -0.08,-2.31 a 15.73,15.73 0 0 1 0.22,-3.69 25.32,25.32 0 0 1 1.69,-6.86 9.58,9.58 0 0 1 2.06,-3.64 c 1,-1 1.58,-1 2.92,-2.23 1,-1 0.89,-1.19 2,-2.41 1.42,-1.5 2.13,-2.24 3.22,-2.5 a 4.93,4.93 0 0 1 4.34,1.36 c 1.31,1.27 0.69,2.17 1.72,3.08 0.84,0.75 1.77,0.59 8.58,-0.08 a 39.89,39.89 0 0 1 4.78,-0.06 4.93,4.93 0 0 1 2.95,0.67 c 1,0.7 0.76,1.42 1.72,2.39 0.23,0.23 0.74,0.7 3.41,1.64 3.17,1.11 3.59,0.84 4.42,1.61 a 6.17,6.17 0 0 1 1.61,3.35 20.91,20.91 0 0 1 0.24,3.33 11,11 0 0 0 1,4.65 7,7 0 0 0 1.92,2.22"
       id="path98" />
    <path
       style="fill:none;fill-opacity:1;stroke:#000000;stroke-opacity:1"
       class="cls-3"
       d="m 1953.84,1511.66 3.57,-1.71 c 2.68,-1.28 3.23,-1.54 4,-2.23 a 12.2,12.2 0 0 0 2,-2.58 c 0.82,-1.3 0.8,-1.6 1.56,-2.73 1,-1.49 1.25,-1.27 2,-2.46 a 9.15,9.15 0 0 0 1.56,-4.15 c 0.13,-1.54 -0.29,-2.29 0.31,-2.91 0.1,-0.1 0.33,-0.32 1.88,-0.69 1.06,-0.26 1.58,-0.31 2.1,-0.42 2,-0.4 2.09,-1.21 3.79,-1.69 a 11.86,11.86 0 0 1 3.5,-0.06 c 2.27,0.12 3.4,0.18 4.46,0.75 a 5.06,5.06 0 0 1 2.42,2.36 c 0.61,1.43 -0.16,2.17 0.58,4.14 a 6.4,6.4 0 0 0 1,1.86 c 0.7,0.81 1.14,0.8 2.15,1.64 1.43,1.19 1.11,1.68 2,2.13 1.22,0.59 2.65,0.12 3.85,-0.27 1.2,-0.39 1.44,-0.78 2.52,-1.21 2.53,-1 3.15,-0.53 4.71,-1.15 2.62,-1 2.15,-2.82 5.9,-5.6 1.67,-1.24 1.81,-0.92 3,-2 a 12.12,12.12 0 0 0 3.56,-5 c 0.58,-1.66 0.38,-2.54 1.17,-3 0.79,-0.46 1.5,0.31 3.1,-0.09 0.87,-0.21 0.82,-0.47 2,-0.83 1.18,-0.36 1.54,-0.21 2.42,-0.44 a 6.38,6.38 0 0 0 2.83,-1.66 c 0.5,-0.48 1.11,-1.81 2.29,-4.46 0.8,-1.78 1.19,-2.71 1,-4 a 6.42,6.42 0 0 0 -0.34,-1.29 c -0.62,-2.06 -0.06,-3 0,-7 a 34.61,34.61 0 0 0 0,-4.06 c -0.13,-1.39 -0.08,-1.7 0.3,-1.91 0.38,-0.21 0.5,-0.09 1.75,0.43 a 8.84,8.84 0 0 0 3.39,0.37 c 0.76,0 0.71,0 2.65,-0.08 a 13.8,13.8 0 0 1 2.73,0 8.3,8.3 0 0 1 2.64,1.26 c 1.32,0.67 2.05,0.41 6.21,0.35 1.33,0 -0.15,0 5.52,0.07 4.45,0 4.78,0 5.61,0.25 2.53,0.78 2.37,2 4.7,2.83 2.56,0.91 3.64,-0.24 7.38,-0.1 3.13,0.11 3.08,1.11 7,1.6 a 67.85,67.85 0 0 0 10.5,0.12 c 4.25,-0.12 6,-0.33 8.73,0.32 a 17.6,17.6 0 0 0 2.77,0.58 c 2.53,0.25 3.57,-0.41 5.94,0 1.34,0.22 1,0.43 2.46,0.71 0.56,0.11 2,0.33 6.41,-0.19 2.53,-0.3 2.72,-0.44 3.71,-0.35 a 12.17,12.17 0 0 1 4.1,1.35 c 3.2,1.27 4.75,0 9.88,0.08 a 30.61,30.61 0 0 1 6.89,1"
       id="path100" />
    <path
       style="fill:none;fill-opacity:1;stroke:#000000;stroke-opacity:1"
       class="cls-3"
       d="m 1847.87,1409.64 a 21.5,21.5 0 0 0 3.63,1 33.66,33.66 0 0 0 5.55,0.4 c 0.64,0 1.6,0 3,0.07 l 1.71,0.09 c 1.85,0.12 2.18,0.21 3.66,0.26 2.47,0.08 3.73,0.11 4.88,-0.41 1.15,-0.52 1,-0.84 2.74,-2.19 a 12.78,12.78 0 0 1 4.49,-2.58 27.6,27.6 0 0 1 5.61,-0.23 20.26,20.26 0 0 1 4.8,0.37 c 1.39,0.32 1.24,0.49 3,1 3.32,1 3.84,0.36 6.44,1.35 a 10.76,10.76 0 0 0 2.73,1 c 1.18,0.16 1.7,-0.1 3.11,0 a 12.26,12.26 0 0 1 2.48,0.58 24.79,24.79 0 0 0 5.81,0.87 31.93,31.93 0 0 0 5.85,-0.25 34.81,34.81 0 0 0 4.37,-0.78 28.64,28.64 0 0 0 5.06,-1.71 c 2.16,-1 3.24,-1.5 3.64,-2.51 0.12,-0.34 0,-0.25 0.08,-3.48 0,-2.43 0.1,-1.79 0.08,-2.3 0,-1 -0.15,-1.45 0.14,-1.91 a 2.12,2.12 0 0 1 1.45,-0.77 26.86,26.86 0 0 1 5.66,-0.64 50.28,50.28 0 0 1 6.36,0.64 c 4.24,0.72 6.36,1.08 8.42,2.39 a 9.92,9.92 0 0 1 4.28,4.33 c 0.83,1.9 0.36,3.07 1.58,4.44 a 4.74,4.74 0 0 0 3.61,1.61 c 1.65,-0.18 1.75,-1.58 3.92,-2.77 1.61,-0.89 3.11,-1 5.53,-1.09 2.22,-0.11 2.08,0.21 5.41,0.31 4.26,0.12 5.09,-0.38 6.73,0.47 1.35,0.71 1.33,1.35 2.83,1.92 1.5,0.57 2.41,0.27 4.14,0.39 a 15.61,15.61 0 0 1 5.16,1.44 24,24 0 0 1 6.92,4.25 c 2.19,1.93 4.12,3.64 5.08,6.47 0.88,2.58 -0.07,3 1,7 a 27.69,27.69 0 0 0 2.08,5.41 c 1.44,2.84 2,2.69 2.74,4.71 1.1,2.93 0.13,3.63 1.29,5.71 1.25,2.24 2.63,1.88 3.42,3.92 0.79,2.04 -0.46,3.3 0.55,4.78 0.65,0.94 1.86,1.27 4.27,1.91 2.79,0.75 3.58,0.46 5.1,1.23 a 8,8 0 0 1 3,2.68"
       id="path102" />
    <path
       style="fill:none;fill-opacity:1;stroke:#000000;stroke-opacity:1"
       class="cls-3"
       d="m 2002.76,1415.21 a 16.9,16.9 0 0 1 2.77,-0.58 c 2.36,-0.3 3.31,0.1 4.06,-0.63 0.75,-0.73 0.21,-1.18 0.88,-2.79 a 8.77,8.77 0 0 1 2.18,-3 c 1.08,-1 1.4,-0.91 3.25,-2.26 2.29,-1.68 1.9,-2 3,-2.45 1.27,-0.55 2.61,-0.49 5.3,-0.36 1.88,0.09 2,0.26 2.77,0.1 0.77,-0.16 1.46,-0.55 3.67,-2.27 3.2,-2.48 3.39,-2.77 4.39,-3.14 1,-0.37 1,-0.14 3.1,-0.77 1.48,-0.44 1.64,-0.58 2.87,-0.89 a 11.29,11.29 0 0 0 2.47,-0.63 6,6 0 0 0 2.09,-1.79 c 0.55,-0.77 0.46,-1.08 1,-1.72 a 5.14,5.14 0 0 1 1.61,-1.14 15.54,15.54 0 0 0 3.15,-2.44 c 1.16,-1.08 0.72,-1 2.6,-3.1 1.52,-1.69 2.15,-2.11 2.71,-3.39 0.47,-1.08 0.19,-1.18 0.62,-1.86 0.76,-1.21 1.86,-1.27 3.91,-2.35 2.05,-1.08 1.68,-1.47 3,-2 0.55,-0.2 1.27,-0.39 6,-0.06 a 15.77,15.77 0 0 1 4,0.5 c 1.84,0.83 2.13,2.06 3.62,2.11 0.59,0 0.48,-0.18 2.67,-0.71 a 13,13 0 0 0 2.24,-0.56 8.84,8.84 0 0 0 2.25,-1.78 c 1.6,-1.51 1.63,-1.82 2.37,-2.19 1,-0.48 1.38,-0.19 2.74,-0.39 1.36,-0.2 2.66,-0.94 5.08,-2.4 a 16.73,16.73 0 0 0 3.29,-2.28 c 0.91,-0.89 1.14,-1.42 2.07,-1.92 a 6.83,6.83 0 0 1 2.84,-0.61 c 1.8,-0.14 2.6,-0.07 4.23,-0.09 2.84,-0.05 2.83,-0.3 5,-0.25 1.58,0 1.4,0.16 3.71,0.26 a 16.08,16.08 0 0 0 4.81,-0.17 c 1.55,-0.4 1.51,-0.81 3,-1.12 1.49,-0.31 2.34,0 4.23,0.12 a 38.48,38.48 0 0 0 6,-0.26 c 4.13,-0.34 4.46,-0.7 5.67,-0.26 a 7.29,7.29 0 0 1 3.91,3.62 12.81,12.81 0 0 1 0.72,3.89 c 0.13,1.68 0,2.32 0.49,3 0.22,0.27 0.47,0.43 2.61,1.13 2.14,0.7 2.5,0.73 3,1.1 1,0.69 0.8,1.2 1.84,2.5 1.79,2.25 3.35,1.9 4.48,4 0.5,0.91 0.12,0.84 0.74,2.4 a 11.1,11.1 0 0 0 3.07,4.57 c 1.35,1.15 1.81,0.81 3.07,2.07 1.26,1.26 1.22,1.84 2,2.65 0.78,0.81 1.94,1.76 5.39,1.77"
       id="path104" />
    <path
       style="fill:none;fill-opacity:1;stroke:#000000;stroke-opacity:1"
       class="cls-3"
       d="m 2312.09,1376.18 a 6.55,6.55 0 0 0 -0.3,-3.94 c -0.28,-0.65 -0.58,-0.7 -0.88,-1.4 a 5.23,5.23 0 0 1 -0.06,-3.53 6.63,6.63 0 0 1 1.91,-2.65 c 1.95,-2 2.72,-1.73 4.11,-3.41 a 6.82,6.82 0 0 0 1.64,-3.18 14.42,14.42 0 0 0 0,-2.78 12.13,12.13 0 0 0 -0.44,-3.33 c -0.41,-1.12 -0.7,-1 -1.05,-2 -0.35,-1 -0.17,-1.66 -0.23,-3.5 0,-0.27 -0.11,-1.24 -0.31,-3.16 -0.35,-3.38 -0.37,-3.58 -0.46,-4.48 -0.43,-4.35 -0.65,-6.52 -0.32,-8.38 0.37,-2.08 0.77,-1.94 1,-3.75 0.23,-1.81 -0.17,-3.45 -0.91,-6.42 -1,-3.85 -1.46,-5.78 -2.55,-7.08 a 9.18,9.18 0 0 1 -1.87,-2.84 c -0.46,-1.19 -0.18,-1.41 -0.63,-2.54 -0.74,-1.86 -1.69,-1.75 -2.12,-3.29 a 9.22,9.22 0 0 1 0,-3.21 c 0.05,-0.45 0.12,-1 0.33,-2.21 0.38,-2.08 0.62,-2.91 0.75,-3.66 0.45,-2.43 -0.41,-2.54 -0.5,-6.55 -0.06,-2.81 0.35,-3.53 -0.29,-5.16 -0.54,-1.38 -1,-1.3 -1.41,-2.59 -0.71,-2.21 0.51,-2.94 -0.05,-5.08 -0.18,-0.69 -0.94,-1.76 -2.45,-3.92 a 10.12,10.12 0 0 1 -1.88,-3.25 10.29,10.29 0 0 1 -0.29,-2.29 c -0.32,-4.3 -0.14,-4.71 -0.63,-5.16 -0.92,-0.86 -2,0.22 -4.16,-0.71 -1.26,-0.55 -1.08,-1 -2.34,-1.63 -0.95,-0.46 -1.4,-0.36 -5,-0.54 -3.12,-0.15 -3.52,-0.26 -4.54,0 -1.02,0.26 -0.91,0.43 -2.54,0.9 a 24.24,24.24 0 0 0 -3.12,0.89 c -0.74,0.32 -0.66,0.38 -1.81,0.94 a 18.78,18.78 0 0 1 -2.65,1.1 14.42,14.42 0 0 1 -3.67,0.42 c -3.16,0.15 -3.17,-0.17 -4.19,0.19 -1.17,0.42 -1.65,1 -2.79,0.94 a 6.69,6.69 0 0 1 -1.62,-0.46 19.68,19.68 0 0 1 -2.27,-1 c -1.68,-0.83 -2.52,-1.24 -3.13,-1.48 -2.07,-0.82 -2.28,-0.41 -4.79,-1.33 a 19,19 0 0 0 -2.46,-0.88 5.5,5.5 0 0 0 -3,-0.23 c -0.9,0.29 -1.06,0.86 -2.58,2.77 a 22.36,22.36 0 0 1 -3.07,3.38 c -2,1.68 -2.49,1.15 -3.31,2.27 -0.69,1 -0.49,1.58 -0.83,6.08 a 19.81,19.81 0 0 1 -0.52,4.09 15.35,15.35 0 0 1 -2.27,4 c -1.17,1.54 -1.71,1.72 -2,2.81 -0.21,0.85 0,1 -0.15,2.81 a 9.56,9.56 0 0 1 -0.44,2.38 c -0.43,1.27 -0.81,1.2 -1.35,2.48 -0.54,1.28 -0.23,1.33 -0.87,3.37 -0.51,1.6 -0.82,2 -1.13,2.19 -0.53,0.4 -0.76,0.2 -1.73,0.71 -0.97,0.51 -1,0.88 -1.71,1.06 -0.71,0.18 -0.86,0 -1.81,-0.13 a 11,11 0 0 0 -2.42,0.13 c -1.79,0.28 -2,1 -3.5,1.48 -0.68,0.2 -2.11,0 -4.95,-0.27 -3.33,-0.37 -3.18,-0.51 -4,-0.42 -1.34,0.14 -2.17,0.53 -3.19,0.06 -0.72,-0.32 -0.59,-0.64 -1.4,-1.14 -1.32,-0.83 -2,-0.19 -3.44,-0.88 -0.8,-0.37 -0.53,-0.53 -2.41,-1.89 a 9.21,9.21 0 0 0 -2.13,-1.32 c -1.38,-0.5 -1.69,0 -2.73,-0.41 -0.83,-0.36 -1.4,-1.2 -2.54,-2.88 a 8.76,8.76 0 0 1 -1.21,-2.06 c -0.56,-1.84 0.43,-2.7 -0.23,-3.67 -0.66,-0.97 -1.66,-0.27 -2.91,-1.39 -0.89,-0.79 -0.66,-1.38 -1.71,-2.44 a 6.33,6.33 0 0 0 -2,-1.33 c -1.35,-0.57 -2.65,-0.36 -5.27,0.06 -0.3,0 -1.48,0.39 -3.85,1.06 a 3.31,3.31 0 0 0 -1.48,0.79 2.78,2.78 0 0 0 -0.69,1.05 c -0.33,0.86 0.06,1.16 -0.19,2.16 -0.15,0.59 -0.28,0.49 -0.6,1.46 a 12.08,12.08 0 0 0 -0.36,1.38 c -0.17,0.88 -0.14,1.21 -0.2,1.56 -0.21,1.08 -1.22,1.35 -2.84,2.66 -1.82,1.48 -1.42,1.84 -3,2.88 a 6.73,6.73 0 0 1 -3.21,1.27 c -1.09,0.09 -1.17,-0.23 -2.16,-0.17 -1.5,0.1 -1.7,0.86 -3.88,1.82 -1.95,0.85 -2.33,0.48 -3.89,1.41 a 10.64,10.64 0 0 0 -2.17,1.73 c -0.93,1 -0.9,1.32 -2.1,2.79 -1,1.2 -1.49,1.8 -2.13,2 -0.95,0.33 -1.36,-0.12 -2.6,0.28 a 3.68,3.68 0 0 0 -1.71,1 c -0.64,0.71 -0.68,1.61 -0.75,3.39 -0.08,2 0.24,1.64 0.25,4.11 0,1 0,1.46 0.33,1.89 0.56,0.65 1.25,0.23 2,0.81 0.93,0.7 0.38,1.63 1.38,3.05 0.77,1.08 1.45,1 1.58,1.81 0.1,0.61 -0.33,1.18 -1.21,2.31 a 11.9,11.9 0 0 1 -2.89,3 c -1.16,0.78 -1.6,0.72 -2.07,1.44 -0.47,0.72 -0.21,0.89 -0.6,2.29 a 11.57,11.57 0 0 1 -1,2.5 21.65,21.65 0 0 1 -1.77,2.25 9.6,9.6 0 0 0 -1.73,3.33 c -0.32,1.24 0,1.56 -0.44,3.25 a 16.16,16.16 0 0 1 -0.64,2 c -0.26,0.65 -0.36,1 -0.43,1.1 a 4.39,4.39 0 0 1 -1,1 c -0.58,0.54 -0.4,0.78 -1.23,2.39 a 19.28,19.28 0 0 1 -1.17,2 c -0.57,0.86 -0.7,0.91 -1.08,1.54 -0.52,0.88 -0.41,1 -0.87,2 a 12.79,12.79 0 0 1 -1.73,2.48 c -0.85,1 -1.1,1.15 -1.44,1.59 -0.64,0.82 -1.17,2.27 -0.63,5"
       id="path106" />
    <path
       style="fill:none;fill-opacity:1;stroke:#000000;stroke-opacity:1"
       class="cls-3"
       d="m 2302.79,1266.57 a 28.94,28.94 0 0 1 3.21,0 c 2.56,0.17 2.78,0.54 4.48,0.46 2,-0.09 2.48,-0.64 3.71,-0.21 0.95,0.34 1,0.87 2.06,1.3 a 7.49,7.49 0 0 0 3.46,0.41 11.93,11.93 0 0 0 5.87,-2 14.63,14.63 0 0 0 2.81,-2.62 c 1.68,-1.87 1.75,-2.58 3.4,-4.17 a 7,7 0 0 1 3,-2 6.46,6.46 0 0 1 3.29,0 8.38,8.38 0 0 1 3.35,1.48 c 0.93,0.69 0.74,0.87 1.75,1.75 1.01,0.88 2.43,2.1 4.19,2 a 7.58,7.58 0 0 0 2.48,-0.79 c 1.14,-0.49 1.73,-0.93 2.46,-0.71 a 2,2 0 0 1 1,0.75 9.49,9.49 0 0 1 1.64,3.31 c 0.54,1.6 1,1.12 3.15,4.46 1.71,2.6 1.24,2.55 2.62,4.39 1.38,1.84 2.05,2.16 2.44,3.57 a 8,8 0 0 0 0.75,2.41 5.51,5.51 0 0 0 1.52,1.61 c 1.35,1 2.45,2.59 4.65,5.77 1.75,2.52 1.43,2.59 2.81,4.33 1.38,1.74 1.77,1.69 3.31,3.56 a 33.08,33.08 0 0 1 3.65,5.63 c 1.14,2.09 0.89,2 2,3.94 1.53,2.8 2.25,3.39 3.66,5.85 a 36.63,36.63 0 0 1 2.39,5"
       id="path108" />
    <path
       style="fill:none;fill-opacity:1;stroke:#000000;stroke-opacity:1"
       class="cls-3"
       d="m 1930.76,1398.29 c 1,-2.15 0.84,-3.53 0.51,-4.4 -0.19,-0.5 -0.39,-0.7 -0.75,-1.61 a 8,8 0 0 1 -0.71,-2.92 c 0,-1.37 0.92,-1.4 1.46,-3.12 0.46,-1.48 -0.06,-1.75 0.27,-3.48 a 16.24,16.24 0 0 1 1.67,-3.79 c 1.49,-2.91 1.91,-3.24 1.89,-4.33 a 14,14 0 0 0 -0.41,-2.55 8.2,8.2 0 0 1 -0.42,-2.16 7.93,7.93 0 0 1 0.62,-2.34 17.16,17.16 0 0 0 0.65,-2.85"
       id="path110" />
    <path
       style="fill:none;fill-opacity:1;stroke:#000000;stroke-opacity:1"
       class="cls-3"
       d="m 2238.85,1217.45 c 0.14,4.38 0.16,7.65 0.16,9.87 0,2 0,2.76 0,4.84 0,3.34 0.14,3.61 0,5 -0.19,2.46 -0.53,2.57 -0.54,4.72 a 14.17,14.17 0 0 0 0.4,3.89 c 0.2,0.78 0.33,1 0.5,1.78 a 13.33,13.33 0 0 1 0.22,3.25 30.38,30.38 0 0 1 -0.39,5.22 c -0.35,1.87 -0.8,3 -0.19,3.59 0.4,0.41 0.84,0.18 1.33,0.69 0.49,0.51 0.35,1.28 0.67,2.31 a 4.76,4.76 0 0 0 1.37,2.07"
       id="path112" />
    <path
       style="fill:none;fill-opacity:1;stroke:#000000;stroke-opacity:1"
       class="cls-3"
       d="m 2316.7,1202.08 a 33.15,33.15 0 0 0 3.59,4.49 19.17,19.17 0 0 1 1.84,2 15.93,15.93 0 0 1 2.16,4.56 c 1.5,4.12 1.22,3.68 1.71,4.8 1,2.35 1.36,2.19 2.83,5.25 a 36.78,36.78 0 0 0 1.92,4 22.63,22.63 0 0 0 2.66,3.4 c 1.84,2 2.2,1.67 3,3 a 16.66,16.66 0 0 0 1.77,2.75 8.32,8.32 0 0 1 0.63,0.75 6.6,6.6 0 0 1 0.81,2.94 c 0.26,1.31 0.78,1.28 1.79,3.23 0.85,1.62 0.72,2.09 1.55,4.31 a 16.25,16.25 0 0 0 2.16,4.63 c 0.74,0.94 2.4,2.16 5.71,4.6 a 4,4 0 0 1 1.78,2.18 3.66,3.66 0 0 1 -0.32,2.47"
       id="path114" />
    <path
       style="fill:none;fill-opacity:1;stroke:#000000;stroke-opacity:1"
       class="cls-3"
       d="m 2371,1149.71 a 27.28,27.28 0 0 1 3.5,5 c 0.74,1.37 0.7,1.6 1.61,3.22 1.51,2.7 1.93,2.63 2.7,4.45 a 19.91,19.91 0 0 1 1.36,3.77 4.5,4.5 0 0 0 1,2.17 c 0.35,0.4 0.42,0.31 0.75,0.67 0.9,1 0.59,1.92 1.24,3 a 6.54,6.54 0 0 0 1.7,1.47 c 1.94,1.4 2.23,1.22 3.34,2.11 a 11.86,11.86 0 0 1 2.66,3.19 c 0.51,0.88 0.64,1.36 1.42,2.53 0.12,0.18 0,0 1.19,1.64 a 6,6 0 0 0 1.2,1.42 5,5 0 0 0 1.47,0.64 c 1.25,0.51 1.13,1.58 2.83,4.16 1,1.5 1.39,1.69 1.7,2.75 a 9,9 0 0 1 0.28,2.23 c 0.06,1.79 -0.26,2.16 0.06,3 0.19,0.56 0.4,0.66 1.3,1.75 a 30.5,30.5 0 0 1 2,2.72 15,15 0 0 1 1.58,4 c 0.92,3 0.48,3.31 1.28,4.41 a 6.31,6.31 0 0 1 1.41,2.31 6.43,6.43 0 0 0 0.37,1.33 8.4,8.4 0 0 0 1.19,1.56 9.29,9.29 0 0 1 0.86,1.5 19.31,19.31 0 0 1 2.11,5.36 c 0.31,1.58 0.05,1.77 0.48,2.86 0.43,1.09 0.78,1.13 1.24,2.44 0.24,0.67 0.23,0.87 0.67,2.25 0.22,0.68 0.4,1.18 0.45,1.31 0.51,1.42 0.66,1.54 0.88,2.22 0.54,1.64 0,1.87 0.48,3.14 0.42,1.07 0.79,0.83 1.52,2.19 0.73,1.36 0.53,2 1.28,2.78 0.51,0.54 0.79,0.45 1.84,1 a 14.16,14.16 0 0 1 3.38,2.89 c 1.2,1.22 1.79,1.85 1.95,2.55 0.16,0.7 0,1.19 0.36,1.84 0.36,0.65 0.83,0.6 1.47,1.19 0.89,0.83 0.58,1.44 1.39,2.75 a 8.75,8.75 0 0 0 2.11,2.17 c 1.38,1.16 1.78,1.13 2.65,2 a 10.06,10.06 0 0 1 1.85,2.83 49.7,49.7 0 0 0 3.75,5.09 40.38,40.38 0 0 0 3.56,4.22 23.62,23.62 0 0 0 3.64,2.94 37.45,37.45 0 0 1 3.39,2.09 c 1.45,1.17 1.22,1.52 2.8,3 1.36,1.24 1.6,1.06 3.89,2.86 a 18.24,18.24 0 0 1 2.94,2.64 11.32,11.32 0 0 1 2.09,3.17 c 0.56,1.36 0.45,2 1.19,2.77 a 6.62,6.62 0 0 0 2,1.2 19.71,19.71 0 0 1 2.87,2 14,14 0 0 1 3.36,4.67 24.07,24.07 0 0 1 1.91,4.64 23.74,23.74 0 0 1 1,6.08"
       id="path116" />
    <path
       style="fill:none;fill-opacity:1;stroke:#000000;stroke-opacity:1"
       class="cls-3"
       d="m 2410.3,1215.49 c 2.83,-0.46 5.26,-0.87 7.16,-1.21 5.14,-0.91 0.48,-0.18 7.43,-1.62 a 17.61,17.61 0 0 0 4.65,-1.88 3.71,3.71 0 0 0 1.5,-1.39 c 0.42,-0.77 0.17,-1.13 0.5,-1.78 0.33,-0.65 0.75,-0.92 2.83,-1.68 2.08,-0.76 2,-0.53 3.44,-1.09 a 18.5,18.5 0 0 0 3.6,-1.87 c 0.92,-0.62 1.24,-1 1.69,-1.29 1.53,-1.13 2.78,-0.81 9.48,-0.88 2.84,0 4.46,-0.1 5.83,0 0,0 0.91,0 2.09,0 a 11,11 0 0 0 1.27,-0.06 10.61,10.61 0 0 0 2.19,-0.77 11,11 0 0 1 2.41,-0.27 25.58,25.58 0 0 0 3.63,-0.69 10.12,10.12 0 0 0 2.52,-0.88 c 1.18,-0.66 1.14,-1.09 2.08,-1.52 a 4.75,4.75 0 0 1 3.19,-0.18 c 0.8,0.26 1.49,1 2.85,2.6 a 36.24,36.24 0 0 1 2.27,2.88 14,14 0 0 1 1.86,2.93 c 0.57,1.46 0.19,1.71 0.75,2.94 a 5.24,5.24 0 0 0 2.5,2.73 c 1.07,0.45 1.29,-0.06 3.31,0.27 a 12.55,12.55 0 0 1 3.25,1 c 1.27,0.61 1.11,0.81 2.31,1.42 1.49,0.75 2.07,0.61 4.3,1.37 1.92,0.66 1.58,0.8 2.7,1.1 2.2,0.6 2.66,-0.16 6,0.11 a 32.32,32.32 0 0 1 4.07,0.63 c 1.63,0.34 1.57,0.44 2.37,0.53 a 10.51,10.51 0 0 0 4.83,-0.62 25.71,25.71 0 0 0 3.78,-2.06 c 1.77,-1.06 2.66,-1.59 3.68,-2.33 2.24,-1.62 2,-1.91 3.52,-2.82 2,-1.22 2.44,-0.69 4.34,-1.91 1.9,-1.22 2.55,-2.38 3.12,-2.11 0.57,0.27 0.14,1.12 0.54,2.46 0.4,1.34 1.14,1.81 2.57,3.38 1.43,1.57 0.83,1.21 3.08,3.93 2.69,3.26 3.14,3.29 3.52,4.55 0.54,1.79 -0.14,2.56 0.75,3.79 0.56,0.77 1,0.63 2.6,2 1.38,1.15 1.19,1.31 2.07,1.92 1.62,1.11 2.39,0.65 3.73,1.56 a 6.3,6.3 0 0 1 2.29,3.29 c 0.57,1.73 0.05,2.49 0.31,5.54 a 25.35,25.35 0 0 0 0.4,2.79"
       id="path118" />
    <path
       style="fill:none;fill-opacity:1;stroke:#000000;stroke-opacity:1"
       class="cls-3"
       d="m 2514.32,1073.66 a 11,11 0 0 0 0.77,5.69 c 0.7,1.57 1.35,1.9 2.23,4 a 13.78,13.78 0 0 1 1.08,4.16 c 0.18,2 -0.31,2.44 -0.33,4.42 0,2.26 0.6,2.27 1.25,5.86 0.67,3.78 0.08,4.33 1,6.65 0.43,1.06 0.64,1.15 1.52,3.14 1.18,2.68 0.92,2.77 1.52,3.75 1.05,1.72 2,1.68 4.46,3.92 a 18.23,18.23 0 0 1 3.13,3.36 c 0.71,1 1.42,3 2.81,6.87 a 43,43 0 0 1 1.35,4.1 25.6,25.6 0 0 0 0.86,3.44 10.76,10.76 0 0 0 1.94,3.42 c 0.92,1.07 1.26,1 2.07,1.88 0.58,0.65 1.11,1.49 1.9,4.1 0.94,3.07 1.42,4.6 1.32,5.81 a 9.62,9.62 0 0 1 -3.09,6.13 c -1.43,1.19 -1.95,0.73 -2.87,1.81 -1.16,1.35 -1.16,3.18 -1.11,6.79 0,2.29 0.25,4.82 0.3,5.29 a 15.91,15.91 0 0 1 0.08,4.38 5.39,5.39 0 0 1 -1.5,3.48 c -0.76,0.64 -1.11,0.34 -2.75,1 a 6.46,6.46 0 0 0 -3.46,2.48 4.52,4.52 0 0 0 -0.44,3.41 c 0.68,2.06 2.72,1.78 3.73,4 0.64,1.38 -0.1,1.66 0.63,4 a 8.09,8.09 0 0 0 1.66,3.27 c 1,1.17 1.57,0.92 2.84,2.05 a 8.38,8.38 0 0 1 2.58,4.22 8.12,8.12 0 0 1 -0.23,4.48"
       id="path120" />
    <path
       style="fill:none;fill-opacity:1;stroke:#000000;stroke-opacity:1"
       class="cls-3"
       d="m 2528.74,1064.5 a 15,15 0 0 1 4.05,4.46 26.86,26.86 0 0 0 1.85,3.45 c 1.31,1.78 2,1.7 3.19,3.33 1.19,1.63 0.66,1.72 2.06,4.23 a 18.74,18.74 0 0 0 3.15,4.6 5.6,5.6 0 0 1 2,2.79 8,8 0 0 1 0.11,1.64 c 0,0.93 -0.22,1.15 -0.19,1.66 0.05,0.89 0.69,1.26 1.46,2.23 a 10.46,10.46 0 0 1 1.89,4.29 c 0.43,2 -0.11,2.26 0.4,2.89 1,1.22 2.9,0 6.28,0.92 1.15,0.33 2.9,0.83 3.52,2.24 0.47,1 -0.13,1.62 0.31,2.9 a 5.27,5.27 0 0 0 2.75,2.78 c 2.07,0.9 3.11,-0.34 5.79,0.19 1.4,0.28 1.18,0.63 3.93,1.89 2.47,1.13 4.61,2.11 7.32,2.17 2.2,0 2.13,-0.58 4.13,-0.39 3,0.29 3.66,1.77 5.5,1.36 1.5,-0.34 1.44,-1.41 3.94,-2.92 a 15.41,15.41 0 0 1 3.42,-1.47 c 2.81,-0.79 5.14,-0.35 8.41,0.28 a 43.87,43.87 0 0 1 6.15,1.67 c 2.76,1 2.75,1.24 4.33,1.55 a 10.88,10.88 0 0 0 6.75,-0.5 c 1.43,-0.66 1.43,-1.15 2.61,-1.75 1.42,-0.72 3.76,-1.19 7.7,0.28"
       id="path122" />
    <path
       style="fill:none;fill-opacity:1;stroke:#000000;stroke-opacity:1"
       class="cls-3"
       d="m 2539.57,1046.66 a 32.14,32.14 0 0 0 10.22,3.7 c 4.3,0.77 7.17,1.28 10.08,-0.08 a 19.18,19.18 0 0 1 4.65,-2.06 c 1.84,-0.45 2.39,-0.19 3.85,-0.83 a 36.48,36.48 0 0 0 3.52,-2.49 c 2.41,-1.8 2.56,-2 3.13,-2.12 1.17,-0.35 2.17,-0.22 2.5,-0.89 a 3.43,3.43 0 0 0 0.1,-1.34 c 0,0 0,-0.66 -0.08,-1.19 -0.23,-1.66 -2.22,-4.06 -2.77,-6.58 a 10.41,10.41 0 0 1 0.17,-4.12 47.85,47.85 0 0 1 1.27,-4.67 c 0.37,-1.4 0.49,-1.92 1,-2.44 a 5.32,5.32 0 0 1 2.66,-1 c 3,-0.67 4.56,-1 4.9,-1 a 26.37,26.37 0 0 0 3.77,-0.27 5,5 0 0 0 2.88,-1.27 4.53,4.53 0 0 0 0.95,-3.42 5.34,5.34 0 0 0 -1,-2.75 c -0.78,-1.07 -1.34,-0.9 -1.81,-1.79 a 4.12,4.12 0 0 1 0.06,-3.23 8.4,8.4 0 0 1 4.28,-3.85 7.31,7.31 0 0 1 2.85,-0.23 c 2.56,0.08 3.84,0.12 4,0.1 a 10,10 0 0 0 4.19,-1.87 c 1.51,-1 2.4,-1.55 2.73,-2.65 a 9.75,9.75 0 0 0 0,-2.46 c 0,-1 0,-0.52 0,-2.68 0,-4.46 -0.14,-4.49 0.08,-5.17 0.31,-1 0.78,-2.44 2,-3 a 3,3 0 0 0 1.46,-1 c 0.28,-0.43 0.2,-0.69 0.5,-1 0.3,-0.31 0.91,-0.43 1.66,-0.52 a 10.09,10.09 0 0 0 2.88,-0.65 4,4 0 0 0 2,-1.83 10.7,10.7 0 0 0 0.31,-1.29 6.6,6.6 0 0 1 1.09,-2.34 c 0.68,-0.86 1,-0.52 1.73,-1.37 a 6.65,6.65 0 0 0 1.27,-2.69 c 0.31,-1.1 0.11,-1.11 0.37,-1.62 0.17,-0.34 0.48,-0.81 2.65,-2.07 1.12,-0.65 1.38,-0.73 2.32,-1.3 0.78,-0.49 1.39,-0.92 1.79,-1.22"
       id="path124" />
    <path
       style="fill:none;fill-opacity:1;stroke:#000000;stroke-opacity:1"
       class="cls-3"
       d="m 2354.41,918.89 a 12.22,12.22 0 0 0 0.59,-4.36 7.07,7.07 0 0 0 -0.71,-3.21 c -0.6,-1.12 -1,-1 -2,-2.27 -1.21,-1.66 -0.7,-2.2 -1.81,-3.77 -1.11,-1.57 -1.91,-1.34 -2.61,-2.69 -0.51,-1 -0.46,-2 -0.33,-4 0.18,-2.83 0.28,-4.24 1,-5.46 a 9.06,9.06 0 0 1 4.36,-3.35 c 1.82,-0.76 2.75,-0.54 4.1,-1.67 a 9.29,9.29 0 0 0 1.76,-2.16 18.24,18.24 0 0 0 1.65,-3.23 22.91,22.91 0 0 1 3.29,-5 c 1.35,-1.75 1.21,-1.24 4.89,-5.3 4.08,-4.5 3.17,-3.93 4.21,-4.81 a 5.6,5.6 0 0 0 2,-2.4 c 0.4,-1.12 0,-1.55 0.39,-2.79 0.46,-1.5 1.2,-1.35 1.84,-2.84 0.49,-1.13 0.46,-2.18 0.39,-4.3 -0.05,-1.74 -0.24,-1.62 -0.22,-3 0,-1.74 0.32,-2.19 0.32,-3.8 a 15.89,15.89 0 0 0 -0.32,-2.91 c -0.4,-2.6 0,-2.79 -0.22,-7 -0.19,-4 -0.56,-4.6 -0.06,-6.29 0.5,-1.69 1,-1.72 1.64,-3.44 0.37,-1 0.63,-2 0.77,-6.35 0.17,-5 0.25,-7.47 -0.12,-9.59 -0.28,-1.57 -0.34,-3.19 -0.69,-4.75 a 5,5 0 0 1 -0.18,-2.5 c 0.19,-0.75 0.53,-1.09 1.74,-2.53 2.15,-2.57 2,-2.62 2.52,-2.93 1.28,-0.76 1.76,-0.18 3.67,-0.88 a 9.64,9.64 0 0 0 3.28,-2.09 14.48,14.48 0 0 0 2.66,-3.9 c 1.13,-2.09 1,-2.32 2.29,-4.89 1.29,-2.57 1.43,-2.48 2.55,-4.83 1.21,-2.55 0.94,-2.49 1.73,-3.85 0.29,-0.49 1.16,-1.7 2.88,-4.13 a 12.3,12.3 0 0 0 1.51,-2.43 21.59,21.59 0 0 0 0.84,-2.7 23.12,23.12 0 0 1 1.44,-3.6 18.5,18.5 0 0 1 2.19,-3.37 15.72,15.72 0 0 0 2.16,-2.6 c 0.39,-0.73 0.23,-0.71 0.89,-2.32 0.84,-2.1 1.07,-2 1.4,-3.23 0.38,-1.36 0.15,-1.71 0.64,-2.36 a 3.69,3.69 0 0 1 2,-1.2 c 1.21,-0.38 1.69,-0.15 3.43,-0.25 a 17.35,17.35 0 0 0 3.42,-0.56 c 1.6,-0.44 1.9,-0.82 3.51,-1.38 a 25,25 0 0 1 3.74,-0.81 c 3.75,-0.75 5.63,-1.12 6.87,-1.91 1.24,-0.79 0.94,-0.93 3.61,-2.93 a 21.3,21.3 0 0 1 2.43,-1.66 c 1.54,-0.88 1.8,-0.7 3.24,-1.57 a 7.15,7.15 0 0 0 2.56,-2.07 4.92,4.92 0 0 1 1,-1.38 c 0.65,-0.56 1,-0.38 1.67,-0.94 a 19.15,19.15 0 0 0 2.16,-3.16 6.85,6.85 0 0 0 0.32,-2.2 c 0,-0.59 0.13,-1.65 0.24,-2.41 a 11.7,11.7 0 0 1 1,-3.27 c 0.89,-1.85 1.54,-1.71 2,-3.21 a 27.67,27.67 0 0 0 0.39,-2.81 11.32,11.32 0 0 1 0.61,-2.6 9.69,9.69 0 0 1 1.77,-2.48 c 0.46,-0.55 1,-1.15 2.18,-2.35 1.18,-1.2 1.36,-1.4 1.61,-2 0.37,-0.82 0.14,-1 0.44,-2.16 0.36,-1.36 0.8,-1.55 1.3,-2.88 a 17.44,17.44 0 0 0 0.55,-2.9 c 0.45,-3.1 0.26,-3.37 0.71,-4.36 a 16.11,16.11 0 0 1 1.83,-2.49 c 1.54,-1.9 1.69,-1.84 2.38,-2.86 a 16.78,16.78 0 0 0 1.69,-3.32 c 0.23,-0.57 0.52,-1.5 1.09,-3.35 0.68,-2.24 1,-3.29 1.12,-3.79 a 19.5,19.5 0 0 0 0.83,-3.53 c 0.11,-1.35 -0.14,-1.4 0,-2.77 a 5,5 0 0 1 1,-3.06 c 0.4,-0.42 0.72,-0.5 1,-1 a 4,4 0 0 0 0.26,-1.63 c 0.12,-1 0.64,-1.25 1.56,-2.57 a 12.11,12.11 0 0 0 1.76,-3.41 12.6,12.6 0 0 0 0.41,-3.36 c 0.12,-2.81 -0.29,-3 0.13,-3.91 0.58,-1.21 1.82,-1.9 3.23,-2.67 a 10.22,10.22 0 0 0 2.36,-1.37 c 0.71,-0.65 0.68,-0.91 1.39,-1.5 a 7.88,7.88 0 0 1 2.44,-1.28 23.67,23.67 0 0 1 3.09,-1"
       id="path126" />
    <path
       style="fill:none;fill-opacity:1;stroke:#000000;stroke-opacity:1"
       class="cls-3"
       d="m 2329.62,769.73 a 8.8,8.8 0 0 1 3.34,2 c 0.85,0.82 1.06,1.41 2,1.83 0.94,0.42 1.22,0.13 2.27,0.61 a 6.92,6.92 0 0 1 1.73,1.2 8,8 0 0 1 1.91,2.13 c 0.55,0.95 0.3,1.11 0.82,1.92 a 5.2,5.2 0 0 0 2.14,1.85 11,11 0 0 0 2.79,0.54 28.83,28.83 0 0 0 3,0.29 15.81,15.81 0 0 1 2.48,0.09 c 1.07,0.19 1.06,0.44 2.32,0.77 1.61,0.42 1.84,0.07 3,0.5 1.16,0.43 1,0.84 2.28,1.41 a 9.92,9.92 0 0 0 3.29,0.71 c 2,0.24 2.09,0 3,0.31 1.39,0.5 1.34,1.17 2.6,1.65 1.09,0.42 1.62,0.11 3.88,0 a 31.7,31.7 0 0 1 4.27,0.13 c 2.78,0.3 2.68,0.88 5.1,1.14 0.84,0.09 2.39,0.05 5.5,0 1.86,0 3.18,-0.12 3.79,0.71 0.2,0.26 0.2,0.46 0.48,1.52 0.28,1.06 0.52,1.78 0.69,2.27"
       id="path128" />
    <path
       style="fill:none;fill-opacity:1;stroke:#000000;stroke-opacity:1"
       class="cls-3"
       d="m 2188.27,905.54 c -0.28,-0.21 -5.12,-4 -7.51,-6.19 a 9.9,9.9 0 0 1 -1.58,-1.81 c -0.67,-1 -0.52,-1.21 -1.28,-2.5 a 6.64,6.64 0 0 0 -2.06,-2.52 7.29,7.29 0 0 1 -1.23,-0.77 4.21,4.21 0 0 1 -1.13,-1.79 c -0.59,-1.67 -2.49,-3.59 -4.59,-5.71 -2.1,-2.12 -4.18,-3.58 -5.48,-5.32 a 11.3,11.3 0 0 1 -1.19,-1.75 c -0.37,-0.82 -0.43,-1.5 -1,-1.73 -0.37,-0.16 -0.52,0.07 -0.86,-0.09 -0.53,-0.24 -0.46,-1 -0.86,-2.22 a 5.93,5.93 0 0 0 -1.19,-2.33 8.05,8.05 0 0 0 -1.43,-1.08 13,13 0 0 1 -2.16,-2.37 c -0.87,-1 -1.11,-0.68 -3.61,-2.26 -3.29,-2.07 -4.06,-3.28 -4.34,-3.78 a 14.1,14.1 0 0 1 -0.73,-1.64 c -0.7,-1.72 -0.82,-2.42 -1.54,-4 -0.72,-1.58 -1,-1.8 -1.11,-1.91 -0.7,-0.58 -1.33,-0.49 -1.72,-1.14 -0.39,-0.65 0,-1 -0.36,-1.43 -0.59,-0.67 -1.87,0 -2.35,-0.63 -0.28,-0.38 0,-0.79 -0.32,-1.17 a 1.44,1.44 0 0 0 -1.08,-0.3 c -2.06,-0.09 -2.65,-4.93 -5.49,-6.2 a 7.19,7.19 0 0 1 -1.92,-1.12 11.3,11.3 0 0 1 -1,-1 c -1.57,-1.59 -2.09,-1.31 -2.61,-2.25 -0.52,-0.94 -0.18,-1.57 -0.88,-2.2 -0.48,-0.42 -0.71,-0.2 -1.14,-0.61 -0.7,-0.67 -0.28,-1.49 -0.92,-2.47 -0.3,-0.48 -0.56,-0.54 -1.15,-1 -1.22,-1 -1,-1.49 -2.41,-3.17 a 13,13 0 0 0 -2.85,-2.67 12.57,12.57 0 0 1 -1.14,-0.75 5.11,5.11 0 0 1 -1.93,-2.57 c -0.24,-0.89 0.07,-1.18 -0.33,-1.83 -0.4,-0.65 -0.65,-0.47 -1,-1.07 -0.35,-0.6 -0.13,-0.83 -0.49,-1.67 -0.36,-0.84 -0.68,-0.83 -0.67,-1.24 0.01,-0.41 0.6,-1 1.61,-1.63 a 9.43,9.43 0 0 1 1.61,-0.94 26.73,26.73 0 0 1 4.67,-1.34 c 2.11,-0.55 1.76,-0.62 2.75,-0.79 a 23.6,23.6 0 0 1 4.44,-0.08 c 2.7,0 3.64,0 4.19,-0.09 1.14,-0.08 1.23,-0.15 2.38,-0.26 3.1,-0.3 3.92,0 6.12,-0.22 a 19.74,19.74 0 0 0 4.23,-0.94 c 3.18,-1.08 3.68,-2.16 6.69,-2.87 a 19.42,19.42 0 0 1 3.13,-0.45 38.61,38.61 0 0 1 4.54,0.07 40.19,40.19 0 0 0 4.72,0.06 c 2.19,-0.38 2.16,-1.12 4.45,-1.7 1.2,-0.3 2.76,-0.26 5.88,-0.19 a 38.91,38.91 0 0 0 5.49,0 8.18,8.18 0 0 0 3.42,-0.73 c 1.15,-0.62 1.49,-1.33 3,-2 a 10,10 0 0 1 2,-0.56 40.31,40.31 0 0 1 5,-0.53 25.18,25.18 0 0 0 4.39,-0.67 29.74,29.74 0 0 0 4,-1.42 20.46,20.46 0 0 1 3.59,-1.48 c 0.67,-0.16 0.51,-0.06 2.79,-0.44 1.8,-0.3 2,-0.37 2.85,-0.47 1.61,-0.18 1.83,0 2.78,-0.15 a 11.12,11.12 0 0 0 3.55,-1.47 c 2.81,-1.48 4.21,-2.22 5.05,-3.18 a 10.48,10.48 0 0 0 1.81,-3.12 9,9 0 0 0 1.08,-4.45 2.38,2.38 0 0 1 0.08,-1.36 c 0.36,-0.84 1.18,-0.94 1.81,-1.42 1.21,-0.94 1.15,-2.87 1.06,-5.42 a 11.92,11.92 0 0 0 -1,-5 11,11 0 0 0 -2.56,-3.49"
       id="path130" />
    <path
       style="fill:none;fill-opacity:1;stroke:#000000;stroke-opacity:1"
       class="cls-3"
       d="m 2136,629.43 a 7.87,7.87 0 0 0 2.41,3.18 5.45,5.45 0 0 1 1.61,1.44 5.65,5.65 0 0 1 0.6,2.34 c 0.34,2.46 0.51,3.69 0.5,4 0,1.29 -0.21,1.18 -0.31,3.1 a 13.67,13.67 0 0 0 0.06,3.17 10.72,10.72 0 0 0 1,2.94 c 0.69,1.38 1,1.25 1.83,2.79 a 18.17,18.17 0 0 1 1.33,3.19 16.7,16.7 0 0 0 0.72,2.29 7.44,7.44 0 0 1 0.75,1.83 8.56,8.56 0 0 1 0,1.52 c 0,1.15 0.61,1.34 1.52,3.31 a 10.78,10.78 0 0 1 0.93,2.75 c 0.2,1.11 0,1.29 0.23,2.21 a 11.4,11.4 0 0 0 1.27,2.61 17.61,17.61 0 0 1 1.59,3.41 9,9 0 0 1 0.41,2.15 c 0.05,0.93 -0.11,1.44 0.25,2 0.36,0.56 0.67,0.37 0.92,0.83 0.11,0.2 0.26,0.62 -0.29,2.31 -0.4,1.22 -0.51,1.13 -0.65,1.73 a 5.34,5.34 0 0 0 0.23,2.79 c 0.37,1.15 0.66,1 1.44,2.55 0.78,1.55 0.47,1.6 1.48,3.87 a 7.86,7.86 0 0 1 0.56,1.48 12,12 0 0 1 0.21,2.27 10.56,10.56 0 0 0 0.79,2.69 c 0.83,2.63 0,3 0.77,5.42 0.14,0.4 0,0 1.52,3.14 1.52,3.14 1.25,2.84 1.5,3.23 a 4.93,4.93 0 0 1 0.82,1.81 10.23,10.23 0 0 1 0.08,1.32 c 0,1.25 0,1.38 0,1.83 a 6.19,6.19 0 0 0 0.87,2.06 9.41,9.41 0 0 1 0.75,3.15 27.67,27.67 0 0 1 0,4.31 c -0.06,2.71 0,3.3 0.34,4.06 a 4.33,4.33 0 0 0 1.43,1.9 c 0.59,0.4 1,0.39 1.4,0.89 a 2.78,2.78 0 0 1 0.58,1.67 3.89,3.89 0 0 1 -1,2.54 6.38,6.38 0 0 1 -2.25,1.84 c -1.29,0.65 -1.7,0.37 -3,0.87 a 14.08,14.08 0 0 0 -3.27,2.27 c -2.34,1.88 -2.29,2.12 -3.5,2.86 a 13.08,13.08 0 0 1 -3.46,1.47 c -2,0.54 -2.21,0 -4.29,0.57 a 20.46,20.46 0 0 0 -3.83,1.52 c -1.18,0.55 -2.08,1 -2.42,1.25 -1.57,0.89 -1.53,1 -2.29,1.41 -1.63,0.81 -2.07,0.26 -4.48,0.92 a 15.56,15.56 0 0 0 -3.52,1.46 c -1.43,0.82 -1.4,1.14 -2.81,1.83 -1.41,0.69 -1.83,0.57 -2.61,1.25 -0.94,0.83 -0.71,1.34 -1.58,2 -0.87,0.66 -1.27,0.44 -2.83,0.77 a 32.86,32.86 0 0 0 -3.4,1.09 39.65,39.65 0 0 0 -4.1,1.56 26.91,26.91 0 0 0 -4.65,2.73 c -2,1.45 -1.87,1.78 -4.09,3.43 a 14.07,14.07 0 0 1 -4.3,2.59 c -1.79,0.57 -2.09,0.09 -4.63,0.69 -0.76,0.18 -1.83,0.57 -4,1.35 -4.15,1.52 -2.58,1.26 -4.39,1.83 -0.77,0.25 -1.22,0.35 -1.46,0.77 -0.24,0.42 0.08,1.46 0.83,3.34 1,2.61 1.11,2.74 1.25,3 a 18.49,18.49 0 0 0 1.88,2.85 c 1.1,1.43 1.27,1.29 1.87,2.23 a 19.6,19.6 0 0 1 1.36,3.29 23.68,23.68 0 0 0 1.52,3.45 c 0.74,1.3 0.91,1.2 2.1,3 0.87,1.3 0.71,1.25 2.23,3.71 0.68,1.1 1.16,1.87 1.88,2.91 0.82,1.2 0.93,1.27 1.5,2.15 a 31.77,31.77 0 0 1 1.58,2.81 16,16 0 0 0 1.37,2.75 c 0.53,0.69 0.69,0.6 1.86,1.67 1.74,1.59 1.91,2.24 3.29,3.23 a 11,11 0 0 0 1.83,1"
       id="path132" />
    <path
       style="fill:none;fill-opacity:1;stroke:#000000;stroke-opacity:1"
       class="cls-3"
       d="m 1938.26,835.07 a 11.57,11.57 0 0 1 5.14,-1.9 13.61,13.61 0 0 0 3,-0.42 26.27,26.27 0 0 0 2.65,-1 c 2.06,-0.82 1.92,-0.65 3.11,-1.17 1.36,-0.59 2.65,-1.29 3.38,-1.68 a 8.77,8.77 0 0 1 2,-1 c 1.08,-0.28 1.27,0 2.67,-0.15 1.15,-0.14 1.09,-0.36 3,-0.78 1.32,-0.29 1.38,-0.19 2.41,-0.47 1.03,-0.28 1.32,-0.53 2.31,-0.78 a 23.37,23.37 0 0 1 2.83,-0.47 23.59,23.59 0 0 0 4.39,-1.14 18.74,18.74 0 0 0 4.33,-1.86 c 1.3,-0.8 1.1,-1 2.13,-1.52 1.03,-0.52 1.81,-0.7 4.79,-1.36 2.08,-0.46 3.12,-0.69 4.17,-1 2,-0.56 2.06,-0.77 4.07,-1.29 2.01,-0.52 2.39,-0.46 3.76,-1 1.87,-0.67 1.89,-1.06 3.82,-1.73 a 22.75,22.75 0 0 1 3.37,-0.84 c 1.53,-0.3 1.79,-0.25 3.71,-0.55 a 26.33,26.33 0 0 0 4.52,-0.93 18,18 0 0 0 3.87,-2 c 1.71,-1.06 1.73,-1.33 3.74,-2.64 0.37,-0.24 1.63,-1.05 3.3,-1.93 1.27,-0.66 2,-1 4.3,-2 3.45,-1.5 5.18,-2.26 5.83,-2.66 1.48,-0.94 1.08,-1 4.14,-3.28 1,-0.76 2.38,-1.79 4.23,-3 2.56,-1.65 2.63,-1.41 4.06,-2.47 2.09,-1.56 1.91,-2.1 4.11,-3.75 a 27,27 0 0 1 4.32,-2.65 15.55,15.55 0 0 1 5.39,-1.84 19,19 0 0 0 2,-0.15 c 2,-0.39 2.39,-1.22 4.18,-1.43 1.25,-0.14 1.28,0.23 2.28,0 1.24,-0.31 1.42,-0.93 2.77,-1.43 1.13,-0.41 1.17,0 2.55,-0.4 1.54,-0.4 1.72,-0.93 3.54,-1.64 1.35,-0.52 1.55,-0.35 2.81,-0.78 a 13,13 0 0 0 4,-2.21"
       id="path134" />
    <path
       style="fill:none;fill-opacity:1;stroke:#000000;stroke-opacity:1"
       id="Voopmont_2-2"
       data-name="Voopmont 2"
       class="cls-2"
       d="m 2020.58,615.94 c 0.33,-0.2 0.7,-0.35 1.05,-0.52 a 3.69,3.69 0 0 0 0.4,-0.29 c 0.14,-0.11 0.3,-0.18 0.44,-0.29 a 7.48,7.48 0 0 1 0.71,-0.55 4.17,4.17 0 0 1 0.44,-0.29 2.17,2.17 0 0 0 0.37,-0.31 2.12,2.12 0 0 1 0.83,-0.36 l 0.39,-0.08 h 0.37 c 0.2,0 0.39,-0.11 0.59,-0.15 l 0.6,-0.09 a 1.47,1.47 0 0 1 0.69,-0.05 c 0.24,0.05 0.51,0.07 0.75,0.14 0.24,0.07 0.43,0.09 0.64,0.15 0.21,0.06 0.5,0.1 0.75,0.17 a 4.52,4.52 0 0 1 0.73,0.26 c 0.27,0.12 0.5,0.31 0.76,0.44 0.26,0.13 0.45,0.24 0.66,0.37 a 6.86,6.86 0 0 0 0.78,0.35 3.32,3.32 0 0 1 0.68,0.34 2.33,2.33 0 0 0 0.26,0.17 c 0,0 0.09,0 0.14,0.06 0.05,0.06 0.25,0.2 0.37,0.29 0.12,0.09 0.2,0.21 0.32,0.29 a 3.42,3.42 0 0 0 0.42,0.23 l 0.27,0.14 a 2.62,2.62 0 0 0 0.46,0.19 c 0.3,0.12 0.54,0.34 0.84,0.44 l -0.26,0.11 -0.53,-0.34 c 5.52,2.17 11.42,4.37 16.46,7.58 4.88,3.1 8.82,7.33 13.25,11 4.43,3.67 11.13,10.05 15.55,3.61 3.26,-4.76 5.13,-10.33 8.19,-15.23 1.73,-2.77 3.29,-6 6.21,-7.54 1.44,-1.29 2.71,-0.71 4.72,-0.11 1.21,0.37 2.53,-0.1 3.79,-0.15 4.2,-0.21 7.9,-0.59 11.85,1.28 2.6,1.23 7.25,4.2 6.41,7.44 -0.3,1.17 -1.13,1.8 -1.59,2.86 -2.91,6.63 13.5,2.7 15.64,2 3.18,-1.08 7.56,-2.2 10.22,-4.34 2.82,-2.26 2.3,-6.11 2,-9.21 a 46.46,46.46 0 0 0 -7.28,-20.61 c -2.34,-3.7 -5.47,-7 -5.68,-11.44 -0.21,-4.44 2.14,-9 5.46,-12.15 3,-2.86 7.73,-7 12.29,-6.56 5.14,0.47 8.11,5.19 11,9 3.23,4.33 7.4,14 14.43,11.16 6.18,-2.49 8.53,-7.41 11.53,-12.86 3.17,-5.77 7.18,-11.8 12.62,-15.65 3.48,-2.47 7.7,-4.16 12,-3.35 a 20.07,20.07 0 0 1 6,2.59 c 4.06,2.25 7.18,4.37 6.91,9.44 a 74.35,74.35 0 0 1 -3.08,17.89 c -0.95,3 -1.86,5.86 -4.43,7.9 a 62,62 0 0 0 -6,4.82 c -6.55,6.65 -5.44,17.29 -4.11,25.81 0.77,4.94 1.84,9.52 4.57,13.78 1.85,2.9 4.16,5.36 6.11,8.18 a 30.34,30.34 0 0 0 4.79,5.52 c 1.46,1.27 6.73,3.25 7.93,5.59 1.57,3 -3,5.25 -4.63,7 -2.23,2.39 -3.89,5.39 -5.86,8 -1.61,2.14 -3.24,4.2 -4.74,6.42 -3.86,5.7 -9.78,12.84 -9.23,20 0.37,4.9 2.7,9.76 4.12,14.49 a 31.17,31.17 0 0 1 1.23,11.92 c -0.49,6.79 1.63,16.67 -5.91,20.39 -4.69,2.31 -9.9,3.47 -14.62,5.76 -2.8,1.35 -3.51,3.29 -4.68,6.07 -1.55,3.66 -1.82,8.73 -4.43,11.9 a 21.06,21.06 0 0 1 -3.54,3.14 c -2.5,2 -5.28,3.15 -2.53,6.11 a 20,20 0 0 0 11.19,6.06 c 3.5,0.55 6.7,1.85 10.27,2 6.59,0.35 11.91,0.42 15.84,-5.31 2.51,-3.66 3.88,-7.67 7.38,-10.55 3.29,-2.71 8.33,-6.45 12.83,-7.12 2,-0.29 3.71,1 5.26,2 a 114.26,114.26 0 0 1 9.7,7.46 c 4.35,3.6 10.07,7.4 12.44,12.76 0.72,1.61 0.57,3.5 1.15,5.15 0.36,1.07 1,2 1.32,3.08 0.58,1.95 0.56,2.94 2.43,4.09 a 57.15,57.15 0 0 0 9,4.11 c 4.74,1.77 5.56,-0.83 7.42,-4.44 1.44,-2.8 2.5,-5.73 3.85,-8.57 3,-6.26 6.6,-13.65 13,-16.95 5.35,-2.75 9.75,-1.53 15.36,-0.7 3.45,0.51 9.42,2 12.66,0.34 3.54,-1.81 -0.7,-7.84 -2.22,-10.13 -1.8,-2.71 -3.6,-4.43 -4.49,-7.68 a 29.8,29.8 0 0 0 -2.31,-6.43 c -0.73,-1.38 -2,-2.74 -2.08,-4.4 -0.21,-5 6.28,-8.44 10.39,-9.28 3.28,-0.68 7.32,-1.5 9.41,-4.31 a 12.58,12.58 0 0 0 2,-6.21 c 0.55,-4.33 1.75,-14.61 -5.18,-14.69 -2.19,0 -4.6,1.06 -6.62,1.82 -4.46,1.69 -7.48,3.12 -12.39,2.22 a 76.77,76.77 0 0 1 -22.14,-7.86 c -2.38,-1.29 -5.55,-1.79 -7.76,-3.3 -2.55,-1.72 -1.74,-4.78 -1,-7.11 0.44,-1.46 1.4,-4.26 2.68,-5.2 a 10.66,10.66 0 0 1 2,-0.64 55.82,55.82 0 0 0 9.92,-5.13 c 2.24,-1.44 8.14,-3.32 8.18,-6.4 0,-0.84 -1,-2.19 -1.28,-3 -0.37,-1 -0.66,-2 -1,-3 -1,-3.22 -2.41,-8.09 -6.29,-8.92 -2.06,-0.44 -3.79,-0.18 -5.81,-1.06 -2.65,-1.15 -4.91,-2.8 -7.47,-4.06 -2,-1 -4.06,-1.32 -5.95,-2.52 -0.94,-0.6 -1.76,-1.16 -2.75,-1.68 -2.65,-1.41 -6.59,-2.08 -6.36,-5.8 0.2,-3.42 2.57,-5.26 5.28,-6.57 3.58,-1.73 7.1,-3.73 10.51,-5.77 a 119.75,119.75 0 0 1 20.53,-10.29 c 4.6,-1.68 11.35,-4.31 16.3,-3.57 a 27.47,27.47 0 0 1 8.49,3.12 c 2.3,1.17 4.5,3 6.93,3.87 3.18,1.17 8.39,1.17 11.13,-0.94 -0.53,-2.49 0,-4.71 0.28,-7.2 0.51,-4.31 2.71,-12.1 -1.35,-15.45 -3.13,-2.58 -7.73,-3.55 -11.4,-5 a 62,62 0 0 1 -11,-5 63.37,63.37 0 0 1 -8,-5.68 c -3,-2.65 -4.07,-5.42 -5.06,-9.2 -0.65,-2.52 -1.65,-5 -2.28,-7.49 -0.88,-3.59 0.23,-6.57 1.46,-9.89 2.23,-6 5,-11.39 9.81,-15.74 3.46,-3.1 7.33,-4.5 11.61,-6.12 a 19.35,19.35 0 0 1 10.9,-1.11 c 5.07,0.91 7.18,3.48 9.76,7.77 2.26,3.76 4.86,7.48 6.6,11.52 1.63,3.81 2.67,7.64 5.31,11 3.27,4.13 7,10 12.8,9.94 2.52,0 4.11,-1 6.08,-2.43 2.31,-1.63 5.34,-3.37 6.75,-6 a 26.13,26.13 0 0 1 11.46,-11.6 c 7.49,-4 15.62,-10.15 24.4,-6.74 4.55,1.77 8.6,4.49 12.68,7.12 2,1.27 4.09,2 6.1,3.17 3,1.73 4.59,3.07 8.18,3.8 6.37,1.3 11.61,-0.59 17.36,-3.3 3.65,-1.72 7.8,-3.41 10.49,-6.54 a 90.18,90.18 0 0 0 6.24,-7.43 c 1.94,-2.86 3.17,-6 5.35,-8.78 2.69,-3.44 5,-4.64 9.42,-4.17 a 93.32,93.32 0 0 1 23.52,6.09 c 2.73,1.09 7.73,2.41 9,5.31 -2.69,1.44 -5.84,3.22 -8.85,3.61 a 38.06,38.06 0 0 0 -11.53,3 42.38,42.38 0 0 0 -11.4,8 c -3.9,3.56 -8.16,6.55 -12.32,9.78 a 51.33,51.33 0 0 0 -13.39,15.74 c -3.58,6.59 -2,14 -2.46,21.11 -0.2,3.39 -0.82,6.47 -0.19,9.81 0.32,1.71 0.73,3.41 1.06,5.12 0.69,3.64 1,7 3.18,10.12 a 44,44 0 0 0 5.11,5.64 c 3,3.12 4.43,6.22 7.15,11 2.56,4.51 2,4.1 3.37,6.29 5.83,9.4 10.32,10 13.14,16.31 a 39.4,39.4 0 0 1 1.81,6.78 c 0.39,1.55 1.22,3.05 1.56,4.61 1,4.46 -1,8.91 0.76,13.27 1.51,3.83 2.66,6.94 2.05,11.17 a 22.94,22.94 0 0 1 -4.09,10 c -2.07,3 -3.73,5.85 -6.28,8.35 a 49.6,49.6 0 0 0 -8.3,10.66 110.58,110.58 0 0 1 -12.11,18.08 21.82,21.82 0 0 1 -5.38,4.85 c -1.67,1 -3.82,1.33 -5.56,2.24 -5.44,2.84 -10.13,8.32 -13.09,13.51 a 13.73,13.73 0 0 0 -1.59,11.21 c 1.23,4.59 3.48,8.86 4.61,13.45 1.63,6.66 -1.81,12.76 -1.61,19.32 0.07,2.33 0.37,4.18 2,5.77 2,1.86 4.06,3.15 5.54,5.45 2.42,3.74 2.93,8.15 4.24,12.34 1,3.11 0.34,5.11 -0.8,8.16 -0.93,2.51 -1.23,5.64 -2.39,8 -0.92,1.91 -3.27,3.56 -4.77,5 -2.36,2.33 -5.22,4 -7.56,6.34 -3.6,3.55 -6.43,6.48 -11.69,7.27 a 140.33,140.33 0 0 1 -15.46,1.3 c -4.68,0.18 -8.45,-0.86 -12.94,-1.88 -5.81,-1.31 -12,-2.09 -17.84,-2.87 a 27.77,27.77 0 0 0 -7.51,0 c -4.94,0.73 -11.18,2.41 -14.9,5.84 -2,1.85 -1.5,3.75 -1.51,6.26 a 23.38,23.38 0 0 0 1.44,9.46 c 1.55,3.91 5.25,9.7 2.18,13.51 -3.4,4.22 -10.47,6.61 -15.52,7.77 -3.51,0.81 -6.94,1.53 -10.44,2.52 -2.55,0.73 -4.87,1.52 -7.51,1.14 -1.83,-0.26 -3.58,-1 -5.45,-0.86 -2.23,0.21 -4.36,1 -6.63,0.6 -3.84,-0.61 -7,-3.38 -10.19,-5.34 -3.06,-1.87 -5.6,-4.26 -8.93,-5.69 -4,-1.75 -8.48,-2.46 -12.29,-4.75 -4,-2.39 -6.13,-6.49 -11.15,-7.1 -5.02,-0.61 -12.12,3.32 -15.89,-0.73 -1.3,-1.4 -1.93,-3.42 -2.93,-5 -0.82,-1.34 -1.77,-2.58 -2.58,-3.94 -1.48,-2.51 -2.87,-5 -4.52,-7.43 -2.08,-3 -4.72,-5.25 -7.16,-7.92 a 20,20 0 0 0 -5.14,-4.48 20.31,20.31 0 0 0 -12.89,-2.06 c -2.49,0.37 -4.78,1.35 -7.32,1.45 -3,0.12 -6,-0.51 -9,-0.39 a 88.16,88.16 0 0 0 -10.91,0.68 c -3.83,0.64 -6.65,2.2 -10,4 -1.23,0.68 -2.61,0.92 -3.79,1.7 -2,1.29 -2,2.25 -2.32,4.31 -0.44,3.18 -1.15,5.85 -0.19,9 a 12.63,12.63 0 0 0 2.47,4.42 c -0.15,-0.19 4.08,3.52 4.17,4.3 0.31,2.44 -4.36,4 -5.94,4.78 -3.45,1.8 -6.61,4.08 -10,5.93 -4.62,2.51 -8.65,0.9 -13.69,0.8 a 80,80 0 0 1 -10,-1.17 c -2.22,-0.32 -3.86,-0.64 -5.94,0.3 -2.58,1.18 -4.89,3.27 -7.09,5 -3,2.37 -6,4.71 -9.08,6.93 -2.79,2 -5.8,3.76 -8.65,5.68 a 97.09,97.09 0 0 1 -11.25,7.1 93,93 0 0 0 -8.55,4.64 c -1.74,1.07 -3.41,1.33 -5.27,2 -4.28,1.6 -8.35,5.84 -11.92,8.54 -5.2,3.92 -11.82,13.68 -17.61,10.49 -2.25,-1.24 -2.9,-3.23 -4.1,-5.33 -0.83,-1.44 -0.95,-3.17 -1.8,-4.59 -1.15,-1.93 -2.56,-2.15 -4.67,-2.28 -2.11,-0.13 -3.76,0.12 -5.38,-1.52 -1.27,-1.29 -1.56,-3.18 -3,-4.37 -2.57,-2.16 -6.44,-0.88 -9,-3 -2.35,-2 -2.27,-4.79 -5.37,-6 -2.2,-0.87 -4.19,-2.15 -6.4,-3 -3.78,-1.48 -8.34,-0.72 -12.3,-1.63 -1.88,-0.43 -3.51,-1.16 -5.48,-0.91 a 20,20 0 0 0 -5.39,1.91 c -4,1.74 -11.3,7 -16,4.79 a 30.9,30.9 0 0 1 -5.09,-3.36 18.54,18.54 0 0 1 -4,-4.81 24,24 0 0 0 -6.83,-7.2 c -2.1,-1.44 -3.69,-3.39 -5.77,-4.86 -2.83,-2 -6.8,-2.5 -9.27,-4.87 -2.24,-2.16 -3.53,-5.38 -6.45,-2.24 -5,5.39 -7.46,13 -13.11,17.85 -1,-0.56 -1.33,-3.92 -1.62,-5.06 a 22,22 0 0 0 -2.4,-6.75 c -2.62,-4.1 -7.55,-5.13 -11.42,-7.67 -2.38,-1.57 -5.41,-4.65 -5.16,-7.84 0.5,-6.35 7.25,-9.32 11.93,-12.07 1.83,-1.08 3.49,-1.54 4.62,-3.41 a 25.15,25.15 0 0 0 1.53,-3.46 c 1.36,-3.44 0.42,-6.33 0.09,-9.82 -0.23,-2.46 0.89,-5.19 -0.06,-7.55 -0.44,-1.08 -1.37,-1.79 -1.78,-2.9 -0.66,-1.8 -0.68,-3.86 -1.26,-5.7 -0.74,-2.32 -1.46,-4.76 -2.43,-7 a 34.45,34.45 0 0 0 -3.54,-6.11 c -1.24,-1.75 -2.33,-4.14 -4.13,-5.39 -3.48,-2.41 -7.15,-0.25 -11,0.4 a 15.44,15.44 0 0 1 -5.31,0.12 c -4.06,-0.41 -8.55,2.65 -12.52,3.6 -5.59,1.35 -10,1 -15.58,-0.2 -1.81,-0.4 -3.81,-1.08 -4.77,-2.82 -0.76,-1.38 -0.31,-2.45 -0.58,-3.82 -0.35,-1.74 -1.09,-4.29 -2.32,-5.55 -1,-1.06 -2.39,-0.92 -3.51,-1.77 -0.93,-0.71 -1.24,-1.9 -1.8,-2.86 -1.51,-2.58 -5,-4.79 -6,-7.58 -0.89,-2.49 1,-5.21 2.32,-7.29 1.57,-2.43 2.91,-4.87 5.24,-6.53 2.89,-2.06 6.15,-3.46 8.91,-5.67 a 6.1,6.1 0 0 1 4,-1.63 c 7.26,-0.53 13.72,-4.06 20.76,-5.84 a 16.05,16.05 0 0 0 6.79,-3.29 62.49,62.49 0 0 1 5.43,-4.3 c 2.25,-1.42 3.31,-3.3 5,-5.28 1.69,-1.98 3.77,-3.25 5.28,-5.14 1.22,-1.55 2,-3.71 3,-5.38 a 20.75,20.75 0 0 0 2.46,-4.68 7.68,7.68 0 0 0 0.46,-3.85 c -0.35,-2 -1.43,-3.81 -1.47,-6 a 9.86,9.86 0 0 1 2,-5.7 c 2.6,-4 7.65,-9.77 12.85,-6.72 a 19.39,19.39 0 0 0 4.79,2.47 c 3.22,0.93 6.42,1.74 9.61,2.8 3.58,1.2 6.48,2.55 10.29,2.28 2.2,-0.15 5.06,-0.85 6.75,-2.37 a 10.61,10.61 0 0 0 3.19,-6.45 c 0.09,-0.91 -0.12,-1.8 0,-2.71 0.12,-0.91 0.74,-1.83 0.94,-2.83 a 8.11,8.11 0 0 0 -0.36,-5 c -0.76,-1.37 -1.54,-1.32 -2.73,-2.14 -1.66,-1.14 -1.54,-2.24 -2.18,-4.12 -0.77,-2.25 -1.29,-4.7 -3.09,-6.38 -2.62,-2.43 -5.79,-4.34 -8.34,-6.85 -2.55,-2.51 -4.68,-5.82 -8.09,-7.44 -1.85,-0.88 -3.76,-1.48 -5.59,-2.37 a 21.35,21.35 0 0 0 -6.7,-1.67 c -3.44,-0.52 -5.75,-0.72 -8.65,-2.85 -1.78,-1.31 -2.79,-1.18 -4.92,-1.6 -0.44,-0.08 -2,-0.46 -2.16,-1.32 -0.16,-0.86 1.13,-1.81 1,-2.86 -0.13,-1.05 -0.45,-0.8 -0.83,-1.62 -0.87,-1.86 -1.12,-4.09 -2.21,-5.86 -1.44,-2.32 -3.92,-3.29 -6.06,-4.77 -7.52,-5.2 -5.65,-16.64 -3,-23.89 1.32,-3.6 2.83,-7.12 6.16,-9.16 a 21.91,21.91 0 0 1 8.9,-3.39 c 2.32,-0.24 5.15,1.34 7.41,1.93 a 34,34 0 0 1 7.65,3.34 55,55 0 0 1 9.43,6.23 c 2,1.68 4,3.35 6.14,4.86 3.7,2.66 8.3,3.42 9.93,8.2 0.68,2 1,3.92 2.78,5.31 1.53,1.18 3.53,1.32 5.25,2.14 5.11,2.45 7.69,8.55 13.07,10.87 3.32,1.44 8.92,0.38 12.56,0.41 4.25,0 13,-1.26 13.35,-6.61 0.22,-3.77 1,-7 -0.07,-10.75 a 43.89,43.89 0 0 0 -5.22,-11.64 51,51 0 0 0 -3.76,-5.44 c -1.43,-1.74 -2.8,-2.84 -3,-5.23 -0.23,-2.19 0.47,-4.57 0.09,-6.74 -0.29,-1.6 -1.51,-3.07 -2.29,-4.44 -0.38,-0.66 -1.45,-2.17 -1.3,-2.92 0.24,-1.2 2.12,-1.8 3,-2.36 2,-1.25 5.13,-2.39 8.78,-5.24" />
    <path
       style="fill:none;fill-opacity:1;stroke:#000000;stroke-opacity:1"
       id="Voopmont_1-2"
       data-name="Voopmont 1"
       class="cls-3"
       d="m 1861.52,1577.55 c -3.89,1.32 -7.24,0.81 -10.45,0.33 -11,-1.66 -11.58,-1.48 -11.88,-2.37 -1.1,-3.4 0.09,-7.2 -0.84,-10.67 a 18.14,18.14 0 0 0 -2.67,-5.17 11.53,11.53 0 0 1 -2.3,-6.16 c -0.53,-5 0.51,-10.27 1.1,-15.26 0.4,-3.39 0.66,-6.23 -0.88,-9.32 -0.72,-1.44 -1.87,-2.76 -2,-4.48 a 29.25,29.25 0 0 1 1.24,-8.58 c 0.84,-2.85 2.67,-5.61 2.89,-8.6 a 24,24 0 0 0 -0.1,-4.41 c -0.32,-2.66 -0.5,-5.09 -0.61,-7.76 a 16.38,16.38 0 0 0 -1.72,-7.11 c -2.44,-4.17 -8.21,-7 -9.38,-11.94 -0.67,-2.89 0.14,-7.61 1.93,-9.93 1,-1.32 2.44,-2.15 3.53,-3.39 a 28.78,28.78 0 0 0 3.48,-5.2 c 1,-1.84 2.67,-4.25 2.89,-6.42 0.17,-1.65 -0.72,-3.1 -0.79,-4.72 a 10.32,10.32 0 0 0 -0.48,-3.79 c -1.29,-3.33 -0.92,-7 -0.89,-10.54 a 17.23,17.23 0 0 0 0,-2.28 c -0.11,-0.71 -0.69,-1.57 -0.64,-2.24 0.08,-1.1 1.31,-2.82 2,-3.82 2.88,-4.41 6.57,-7.47 10.37,-11 a 17.16,17.16 0 0 0 2.56,-3.06 27,27 0 0 0 3.15,-5.85 c 6,-5.59 10.55,-10 15.24,-14.26 a 70.77,70.77 0 0 1 9.07,-7.51 c 3.09,-2 6.68,-3.15 9.64,-5.3 4.85,-3.49 8.32,-9.13 14.38,-10.47 5.62,-1.24 6.14,0.84 21.55,1 8.58,0.11 11.35,-1.43 14.64,-2.54 a 11,11 0 0 0 6.44,-8.52 c 0.45,-4.71 -4.15,-8.29 -12.38,-16.3 -3,-3 -6,-6 -9.81,-8.05 -6.62,-3.61 -17.39,-8.06 -16.44,-17.6 0.41,-4.17 4.21,-8.28 7,-11.2 a 29.24,29.24 0 0 1 17.26,-8.89 c 5.38,-0.72 10.08,0.53 15.32,1.84 4.79,1.19 9.61,2.45 14.33,3.92 6.45,2 12.26,5 18.29,7.93 4.35,2.14 6.48,2.06 11,0.13 4.65,-2 9.35,-3.06 14,-4.91 a 16.65,16.65 0 0 0 5,-3.16 c 2.5,-2.18 5.43,-4.68 7,-7.7 4.08,-8.1 7.08,-17.5 14.23,-23.56 5.68,-4.81 11.69,-6.64 19,-6.71 a 96.6,96.6 0 0 1 21,2.43 c 5.37,1.15 10.39,4.11 15.73,5.07 5.34,0.96 10.13,-1.35 15.3,-2.69 4.95,-1.27 10.28,-2.23 15.32,-3.1 2.15,-0.38 4.42,-0.55 6.56,-1 5,-1.12 9.57,-3.59 14,-6 7.33,-4 11.45,-6.17 13.52,-7.42 a 49.69,49.69 0 0 0 8.65,-6.13 c 2.42,-2.2 4,-3.6 5.24,-6 1.55,-3 1.84,-6.54 2.81,-9.67 0.67,-2.17 1.28,-4.86 3,-6.48 2.3,-2.18 5.87,-2.33 8.82,-2.79 a 57.83,57.83 0 0 1 13.39,-1 87.65,87.65 0 0 0 10.29,0.52 c 4.54,-0.19 8.93,-0.94 13.48,-0.53 3.17,0.29 6.26,0.88 9.45,1 a 126.85,126.85 0 0 0 16.62,-0.7 l 2.25,-0.22 a 161.59,161.59 0 0 0 26.74,-4.87 122.87,122.87 0 0 0 13.08,-4.45 c 5.7,-2.27 11,-5.08 17.25,-5.15 4.62,0 8.94,1.85 13.54,1.09 a 16,16 0 0 0 4.73,-1.63 18.51,18.51 0 0 0 5.33,-4.16 81,81 0 0 0 11.55,-17 c 1.57,-2.27 3,-5.19 5.29,-6.82 1,-0.69 2.18,-1.1 3.22,-1.69 a 23,23 0 0 0 6.11,-4.56 c 1.23,-1.45 1.58,-2.83 2.46,-4.49 1.65,-3.1 5.48,-5.77 8.16,-7.91 a 27.71,27.71 0 0 1 12.45,-5.91 130.23,130.23 0 0 1 28.36,-2.39 c 4.34,0 9.14,0.74 13.42,-0.08 a 5.2,5.2 0 0 0 3.2,-1.52 c 3.65,-3.76 5.82,-9 10,-12.45 4.18,-3.45 8.31,-6.38 12.42,-9.59 5.95,-4.64 11.33,-10.44 18.91,-12 3,-0.59 5.95,-1 8.9,-1.69 3.59,-0.79 8.87,-1.84 11.6,-4.68 1.1,-1.15 1.65,-2.72 2.53,-4 a 32.1,32.1 0 0 1 3.69,-4 c 4.15,-4.38 8.69,-8.4 12.71,-12.9 4.56,-5.12 11.71,-7.32 17.6,-10.72 4.31,-2.49 8.57,-5.18 12.7,-8 a 14.55,14.55 0 0 0 4.72,-4.28 c 1.52,-2.27 2.58,-5.21 3.87,-7.59 1.44,-2.65 3.31,-5.37 4.39,-8.19 a 56.44,56.44 0 0 0 1.64,-6.42 102,102 0 0 0 2.86,-13.35 46.63,46.63 0 0 0 0,-7.84 c -0.2,-4.16 0.55,-8.21 0.48,-12.36 -0.08,-4.79 -1.7,-7.6 -4.18,-11.5 a 18.43,18.43 0 0 1 -2.89,-6 c -0.47,-2 -0.54,-4.06 -0.91,-6.07 -0.37,-2.01 -1.24,-3.94 -1.41,-6 -0.24,-2.74 0.71,-5.08 1.38,-7.74 0.62,-2.49 1,-5.19 1.83,-7.61 1.42,-4.11 3.77,-7 6.25,-10.53 3.6,-5.1 7.1,-10.11 7.88,-16.46 a 34.73,34.73 0 0 0 -0.33,-9.55 c -0.36,-2.32 -2.19,-5.64 -1.83,-7.89 0.28,-1.72 1.83,-2.36 3,-3.36 a 28.62,28.62 0 0 0 4.47,-5.32 40.19,40.19 0 0 0 3.39,-4.64 20.58,20.58 0 0 0 1.62,-6.78 c 0.6,-4.94 -1.77,-9.3 -1.34,-14.14 0.17,-1.92 0.74,-3.46 0.5,-5.47 -0.16,-1.34 -0.6,-2.59 -0.68,-4 a 117.68,117.68 0 0 0 -1.43,-14.38 c -0.93,-5.2 2,-9.55 5.5,-13.21 2,-2.14 4.34,-4.6 7.21,-5.59 2.17,-0.74 4.61,-1 6.78,-1.66 3.18,-1 6.17,-2.46 9.3,-3.55 4.17,-1.45 8.56,-1.9 12.88,-2.63 4.63,-0.79 9.28,-1.79 13.93,-2.37 3.12,-0.39 8.74,-1.18 12.33,-0.16 l 1.46,136.97 q 2,173.24 4,346.48 l -149,114.43 v 0 l -48.29,-6.88 a 48.6,48.6 0 0 1 -14.6,7.3 c -9.14,2.76 -12.21,0.64 -19.59,3.84 -4.43,1.93 -3.67,2.85 -15,11.53 -11,8.46 -12.12,7.88 -14.6,11.52 -5.07,7.46 -1.41,11.27 -6.53,17.29 -5.12,6.02 -13.61,7.53 -16.9,8.07 -4.91,0.8 -6,-0.13 -11.91,0 -10.92,0.23 -12.56,3.46 -23.44,5 -14.5,2 -15.57,-3.16 -23.81,0.39 -7.57,3.25 -7.88,8.15 -17.29,11.14 -5.46,1.73 -7.18,0.66 -10.76,3.07 -3.87,2.6 -3.28,4.81 -8.83,12.68 -3.57,5 -5.81,8.23 -10,11.14 -3.87,2.69 -5.12,2.17 -8.07,5 -3.94,3.78 -2.94,5.89 -6.53,8.84 -2.09,1.72 -2.7,1.21 -10,4.22 a 96.65,96.65 0 0 0 -9.22,4.23 c -7.17,3.84 -7,5.37 -11.52,6.91 -5.54,1.88 -6.68,-0.1 -10.37,1.93 -3.14,1.71 -4.82,4.88 -8.07,11.14 -4.53,8.72 -3.31,9.36 -5.76,11.91 -5.74,6 -15.29,5.47 -17.29,5.37 -4.95,-0.25 -5,-1.63 -11.91,-2.69 -8.62,-1.32 -9.1,0.74 -15.75,-0.38 -9.86,-1.66 -10.88,-6.53 -19.21,-6.53 -4.3,0 -3.76,1.3 -11.52,2.69 -9.93,1.78 -12,-0.12 -19.21,1.54 -8,1.83 -7,4.51 -15,6.91 -9.27,2.79 -17.52,1.25 -24.21,0 -5.38,-1 -10.37,-2.85 -20.36,-6.53 -13.52,-5 -13.68,-6 -19.2,-7 a 52.14,52.14 0 0 0 -21.52,0.84 c -8.34,2.17 -8.85,4.69 -18.82,7.3 -4.76,1.25 -9.33,2.45 -15.34,2.09 -5.39,-0.32 -10.13,-2.06 -19.62,-5.55 -8.93,-3.27 -8.81,-3.91 -12.68,-4.61 -2.07,-0.37 -4.4,-0.6 -16.9,0.39 -9.61,0.76 -7.72,0.13 -15.75,1.54 -1.68,0.29 -10.33,1.8 -16.76,4.54 -0.17,0.06 -0.59,0.24 -1.18,0.45 z" />
    <path
       style="fill:none;fill-opacity:1;stroke:#000000;stroke-opacity:1"
       class="cls-3"
       d="m 2149.81,1301.55 c -0.16,-0.54 -0.41,-1.41 -0.67,-2.5 -0.26,-1.09 -0.3,-1.53 -0.58,-2.66 -0.39,-1.58 -0.52,-1.64 -0.73,-2.63 a 18,18 0 0 1 -0.31,-3.31 c -0.08,-2 -0.12,-3.06 -0.11,-4.27 0.05,-4.07 -0.32,-7.55 -0.58,-18.57 a 25.69,25.69 0 0 1 0.13,-4.75 c 0.27,-2 0.7,-3 0.9,-5.65 a 9.56,9.56 0 0 0 -0.13,-3.14 c -0.2,-0.84 -0.43,-1.19 -0.61,-2 a 7.64,7.64 0 0 1 0,-2.83"
       id="path138" />
  </g>
</svg>
