<svg xmlns="http://www.w3.org/2000/svg" viewBox="0 0 811.17 1052.27"><defs><style>.cls-1,.cls-2{fill:none;stroke:#231f20;stroke-miterlimit:10;}.cls-1{stroke-width:0.75px;}</style></defs><g id="Layer_2" data-name="Layer 2"><g id="Districts"><g id="Voopmont"><path id="Voopmont_2" data-name="Voopmont 2" class="cls-1" d="M197.4,82.12c.34-.2.7-.35,1-.53a1.85,1.85,0,0,0,.4-.29c.14-.1.31-.18.44-.29s.46-.39.71-.55.29-.2.45-.29a3.37,3.37,0,0,0,.36-.3,2.12,2.12,0,0,1,.84-.37l.39-.08c.12,0,.24,0,.37,0s.38-.11.59-.14.4,0,.59-.1a1.79,1.79,0,0,1,.69,0c.25.06.51.07.75.15s.43.08.64.15.51.1.76.16a6.18,6.18,0,0,1,.72.26c.27.12.5.32.76.45s.45.24.66.36a5.58,5.58,0,0,0,.79.35,4.32,4.32,0,0,1,.68.34,1.6,1.6,0,0,0,.25.18.47.47,0,0,1,.15.06c.12.08.24.19.36.28s.21.22.33.3.28.15.41.22l.27.14a2.72,2.72,0,0,0,.47.19c.3.12.53.34.84.45l-.27.1-.53-.34c5.52,2.18,11.42,4.37,16.47,7.59,4.88,3.1,8.81,7.32,13.24,11s11.13,10,15.55,3.6c3.26-4.76,5.14-10.33,8.19-15.22,1.74-2.78,3.29-6,6.21-7.55,1.44-1.28,2.71-.7,4.72-.1,1.22.36,2.53-.1,3.8-.15,4.2-.21,7.9-.6,11.84,1.27,2.61,1.24,7.25,4.21,6.42,7.45-.3,1.16-1.13,1.8-1.59,2.85-2.92,6.63,13.49,2.71,15.64,2,3.17-1.07,7.55-2.19,10.22-4.34s2.29-6.1,2-9.2a46.38,46.38,0,0,0-7.28-20.62c-2.34-3.69-5.46-6.95-5.68-11.43s2.14-9,5.47-12.15c3-2.86,7.72-7,12.29-6.56,5.13.46,8.1,5.19,11,9,3.24,4.33,7.41,14,14.43,11.16,6.18-2.49,8.53-7.42,11.53-12.87C370,32.84,374,26.82,379.4,23c3.49-2.47,7.7-4.15,12-3.34a19.82,19.82,0,0,1,6,2.59c4.07,2.24,7.19,4.36,6.91,9.43a74.66,74.66,0,0,1-3.07,17.89c-.95,3-1.86,5.86-4.44,7.91a60.55,60.55,0,0,0-6,4.82c-6.55,6.65-5.43,17.28-4.11,25.8.77,4.94,1.85,9.52,4.57,13.79,1.85,2.9,4.17,5.35,6.12,8.17a29.64,29.64,0,0,0,4.79,5.52c1.45,1.27,6.72,3.26,7.93,5.59,1.56,3-3,5.25-4.64,7.05-2.23,2.39-3.88,5.39-5.85,8-1.61,2.15-3.24,4.21-4.74,6.42-3.87,5.71-9.78,12.84-9.24,20,.37,4.9,2.7,9.76,4.12,14.5A31.17,31.17,0,0,1,391,189.06c-.49,6.79,1.62,16.66-5.92,20.38-4.68,2.32-9.9,3.48-14.62,5.76-2.8,1.36-3.5,3.29-4.68,6.07-1.54,3.67-1.81,8.73-4.43,11.9a21.51,21.51,0,0,1-3.53,3.15c-2.5,2-5.28,3.15-2.54,6.1a20,20,0,0,0,11.2,6.06c3.5.55,6.69,1.85,10.26,2,6.59.35,11.91.42,15.85-5.31,2.5-3.65,3.87-7.66,7.37-10.55,3.29-2.7,8.33-6.44,12.83-7.11,2-.3,3.72,1,5.26,2a110.71,110.71,0,0,1,9.7,7.46c4.35,3.59,10.08,7.4,12.45,12.75.71,1.61.57,3.51,1.14,5.16.37,1.06,1,2,1.33,3.08.57,1.94.56,2.94,2.42,4.08a57.07,57.07,0,0,0,9,4.11c4.74,1.78,5.57-.83,7.42-4.44,1.44-2.79,2.5-5.72,3.85-8.57,3-6.25,6.61-13.65,13-16.94,5.36-2.75,9.76-1.54,15.37-.7,3.44.51,9.41,2,12.65.34,3.54-1.81-.7-7.84-2.22-10.13-1.79-2.72-3.6-4.44-4.48-7.68a29.64,29.64,0,0,0-2.32-6.43c-.73-1.38-2-2.75-2.08-4.4-.21-5,6.28-8.44,10.39-9.29,3.28-.67,7.32-1.49,9.42-4.3a12.74,12.74,0,0,0,2-6.21c.55-4.33,1.75-14.61-5.18-14.69-2.18,0-4.59,1.05-6.61,1.82-4.46,1.69-7.48,3.12-12.39,2.22A77,77,0,0,1,470.81,169c-2.37-1.28-5.54-1.79-7.76-3.29-2.54-1.73-1.74-4.78-1-7.12.43-1.45,1.39-4.26,2.67-5.2a12.61,12.61,0,0,1,2-.64,55.77,55.77,0,0,0,9.92-5.12c2.24-1.44,8.14-3.33,8.19-6.4,0-.84-1-2.19-1.29-3-.37-1-.66-2-1-3-1-3.21-2.41-8.09-6.28-8.92-2.07-.44-3.8-.18-5.82-1.06-2.64-1.14-4.9-2.79-7.46-4.06-2-1-4.07-1.31-6-2.52-.94-.6-1.75-1.15-2.75-1.68-2.65-1.41-6.59-2.07-6.36-5.8.21-3.41,2.57-5.26,5.28-6.57,3.59-1.73,7.1-3.73,10.51-5.77a120.57,120.57,0,0,1,20.54-10.29c4.6-1.67,11.35-4.3,16.29-3.56a27.51,27.51,0,0,1,8.5,3.11c2.29,1.17,4.5,3,6.92,3.88,3.19,1.17,8.4,1.16,11.14-1-.54-2.49,0-4.7.27-7.19.52-4.32,2.71-12.11-1.35-15.46-3.12-2.57-7.72-3.55-11.4-4.94a62.64,62.64,0,0,1-10.94-5,64.28,64.28,0,0,1-8-5.69c-3-2.65-4.07-5.41-5.05-9.19-.66-2.53-1.66-5-2.28-7.5-.89-3.59.23-6.57,1.45-9.88,2.23-6,5-11.39,9.82-15.74,3.45-3.11,7.32-4.51,11.61-6.12a19.41,19.41,0,0,1,10.89-1.12c5.07.92,7.18,3.49,9.76,7.77,2.26,3.76,4.87,7.49,6.6,11.52,1.64,3.81,2.67,7.64,5.31,11,3.28,4.12,7,10,12.8,9.94,2.53,0,4.11-1,6.09-2.44,2.3-1.63,5.34-3.37,6.74-6a26,26,0,0,1,11.47-11.59c7.48-4.06,15.62-10.16,24.39-6.75,4.56,1.77,8.6,4.49,12.68,7.13,2,1.26,4.1,2,6.1,3.16,3,1.73,4.59,3.08,8.19,3.81,6.36,1.3,11.61-.6,17.35-3.31,3.66-1.72,7.8-3.4,10.49-6.54a86.68,86.68,0,0,0,6.24-7.43c1.94-2.85,3.18-6,5.35-8.77,2.7-3.44,5.05-4.65,9.42-4.18a92.92,92.92,0,0,1,23.52,6.1c2.73,1.09,7.74,2.41,9,5.31-2.7,1.43-5.84,3.21-8.85,3.61a37.83,37.83,0,0,0-11.54,3,42.66,42.66,0,0,0-11.4,8C678,30,673.7,33,669.53,36.25A51.45,51.45,0,0,0,656.14,52c-3.58,6.59-2,14-2.46,21.12-.19,3.39-.82,6.46-.19,9.8.32,1.72.74,3.42,1.06,5.13.69,3.64,1,7,3.18,10.11a44.88,44.88,0,0,0,5.12,5.65c4.95,5.16,6.93,11.34,10.52,17.31s10.26,9.9,13.13,16.3a39.68,39.68,0,0,1,1.82,6.78c.39,1.55,1.21,3.06,1.55,4.62,1,4.45-1,8.9.77,13.27,1.5,3.83,2.66,6.94,2,11.17a22.88,22.88,0,0,1-4.08,9.95c-2.08,3-3.73,5.86-6.29,8.36A49,49,0,0,0,674,202.21a109.77,109.77,0,0,1-12.27,17.93,21.88,21.88,0,0,1-5.38,4.86c-1.67,1-3.81,1.33-5.55,2.23-5.44,2.85-10.14,8.33-13.09,13.52a13.71,13.71,0,0,0-1.6,11.2c1.24,4.59,3.49,8.86,4.61,13.45,1.63,6.66-1.8,12.77-1.61,19.33.07,2.33.37,4.18,2,5.76,2,1.87,4.05,3.15,5.54,5.45,2.41,3.74,2.92,8.16,4.23,12.35,1,3.11.34,5.1-.79,8.15-.94,2.52-1.23,5.65-2.39,8.05-.93,1.91-3.27,3.55-4.78,5-2.35,2.33-5.22,4-7.55,6.34-3.6,3.55-6.43,6.49-11.69,7.28a140.5,140.5,0,0,1-15.47,1.29c-4.67.19-8.44-.86-12.94-1.87-5.8-1.31-12-2.09-17.84-2.87a28.11,28.11,0,0,0-7.5,0c-5,.73-11.19,2.41-14.91,5.84-2,1.86-1.49,3.75-1.51,6.27a23.37,23.37,0,0,0,1.45,9.45c1.54,3.92,5.25,9.7,2.18,13.52-3.4,4.22-10.47,6.61-15.52,7.77-3.52.8-6.94,1.53-10.44,2.52-2.55.72-4.88,1.51-7.51,1.13-1.84-.26-3.58-1-5.46-.85-2.23.21-4.36,1-6.63.6-3.83-.61-7-3.39-10.19-5.35-3.05-1.86-5.6-4.25-8.93-5.69-4-1.75-8.47-2.46-12.29-4.74-4-2.4-6.12-6.49-11.15-7.11-4.87-.6-12.11,3.33-15.88-.72-1.31-1.4-1.93-3.43-2.93-5-.83-1.34-1.78-2.57-2.58-3.93-1.48-2.51-2.87-5-4.53-7.44-2.07-3-4.71-5.24-7.15-7.91a19.93,19.93,0,0,0-5.15-4.49,20.29,20.29,0,0,0-12.89-2c-2.48.37-4.78,1.34-7.31,1.44-3,.12-6-.51-9-.38a90,90,0,0,0-10.91.67c-3.84.65-6.66,2.21-10,4-1.24.67-2.62.92-3.79,1.69-2,1.3-2,2.26-2.33,4.32-.44,3.18-1.15,5.84-.19,9a12.65,12.65,0,0,0,2.48,4.42c-.15-.18,4.07,3.53,4.17,4.31.3,2.44-4.37,4-5.94,4.78-3.45,1.8-6.62,4.08-10,5.93-4.62,2.5-8.66.89-13.7.8a82.14,82.14,0,0,1-10-1.18c-2.22-.32-3.85-.64-5.93.31-2.59,1.18-4.9,3.26-7.1,5-3,2.36-6,4.71-9.07,6.93-2.79,2-5.8,3.75-8.66,5.68a96.89,96.89,0,0,1-11.24,7.09,95.69,95.69,0,0,0-8.56,4.64c-1.74,1.08-3.41,1.34-5.27,2-4.28,1.61-8.34,5.85-11.92,8.54-5.2,3.92-11.81,13.69-17.61,10.5-2.25-1.24-2.89-3.24-4.1-5.33-.82-1.44-.94-3.17-1.79-4.59-1.16-1.93-2.56-2.16-4.68-2.28s-3.76.11-5.38-1.52c-1.27-1.29-1.55-3.18-3-4.37-2.57-2.16-6.44-.89-9-3.05-2.35-2-2.26-4.79-5.37-6-2.2-.88-4.19-2.16-6.39-3-3.79-1.47-8.34-.71-12.31-1.62-1.88-.43-3.51-1.17-5.48-.92a20.51,20.51,0,0,0-5.39,1.91c-4,1.75-11.3,7-16,4.79a30.9,30.9,0,0,1-5.09-3.36,18.37,18.37,0,0,1-4.05-4.8,24,24,0,0,0-6.82-7.21c-2.1-1.43-3.7-3.39-5.77-4.85-2.83-2-6.8-2.51-9.27-4.88-2.25-2.15-3.54-5.37-6.46-2.24-5,5.4-7.46,13-13.11,17.85-1-.55-1.33-3.92-1.61-5.05a22.61,22.61,0,0,0-2.4-6.76c-2.63-4.09-7.56-5.12-11.43-7.67-2.37-1.56-5.41-4.65-5.15-7.84.5-6.35,7.25-9.32,11.92-12.07,1.83-1.07,3.49-1.54,4.62-3.4a26.34,26.34,0,0,0,1.54-3.46c1.35-3.44.42-6.33.09-9.82-.24-2.46.89-5.19-.07-7.56-.43-1.08-1.37-1.78-1.78-2.9-.66-1.8-.67-3.86-1.26-5.7a69.62,69.62,0,0,0-2.43-7,33.43,33.43,0,0,0-3.54-6.1c-1.24-1.76-2.33-4.15-4.13-5.4-3.47-2.41-7.14-.25-11,.4a15.45,15.45,0,0,1-5.31.12C90.57,296,86.07,299,82.1,300c-5.58,1.34-10,1-15.57-.21-1.81-.39-3.82-1.08-4.77-2.82-.76-1.38-.31-2.45-.59-3.81-.35-1.74-1.08-4.29-2.31-5.55-1-1.07-2.4-.93-3.51-1.77-.94-.71-1.25-1.91-1.81-2.87-1.51-2.58-5-4.79-6-7.57-.89-2.49,1-5.22,2.31-7.3,1.58-2.43,2.91-4.87,5.24-6.52,2.9-2.06,6.15-3.47,8.92-5.67a6,6,0,0,1,4-1.63c7.26-.54,13.73-4.06,20.76-5.84a16.21,16.21,0,0,0,6.8-3.29,64.42,64.42,0,0,1,5.42-4.31c2.26-1.41,3.32-3.3,5-5.27s3.78-3.25,5.28-5.15c1.23-1.55,2-3.71,3-5.37a21,21,0,0,0,2.46-4.68,7.69,7.69,0,0,0,.46-3.85c-.35-2.05-1.43-3.82-1.47-6a9.9,9.9,0,0,1,2-5.69c2.61-4,7.65-9.77,12.86-6.73a19.22,19.22,0,0,0,4.79,2.47c3.21.93,6.42,1.75,9.6,2.81,3.59,1.19,6.48,2.55,10.3,2.28,2.19-.16,5.05-.85,6.75-2.37a10.62,10.62,0,0,0,3.18-6.46c.09-.91-.12-1.8,0-2.71s.73-1.83.93-2.82a8.14,8.14,0,0,0-.35-5c-.76-1.37-1.54-1.31-2.73-2.13-1.66-1.14-1.55-2.24-2.19-4.12-.77-2.26-1.28-4.7-3.09-6.38-2.62-2.43-5.79-4.35-8.34-6.86s-4.67-5.81-8.09-7.43c-1.84-.88-3.76-1.48-5.59-2.38a21.33,21.33,0,0,0-6.7-1.66c-3.43-.53-5.75-.72-8.64-2.85-1.78-1.31-2.8-1.18-4.93-1.6-.44-.09-2-.46-2.16-1.32s1.14-1.81,1-2.86-.45-.81-.83-1.63c-.86-1.85-1.11-4.09-2.21-5.85-1.44-2.33-3.92-3.3-6-4.77-7.53-5.21-5.66-16.65-3-23.89,1.31-3.61,2.82-7.12,6.15-9.16a21.93,21.93,0,0,1,8.9-3.4c2.33-.23,5.15,1.35,7.41,1.93a33.62,33.62,0,0,1,7.66,3.35,53.75,53.75,0,0,1,9.42,6.23c2,1.68,4,3.34,6.14,4.86,3.7,2.65,8.31,3.42,9.94,8.2.67,2,1,3.92,2.77,5.31,1.53,1.17,3.53,1.31,5.26,2.14,5.1,2.45,7.69,8.54,13.06,10.87,3.33,1.44,8.92.37,12.56.4,4.25,0,13-1.26,13.36-6.61.22-3.76,1-6.94-.08-10.74a43.6,43.6,0,0,0-5.21-11.65,53.65,53.65,0,0,0-3.76-5.44c-1.44-1.73-2.81-2.83-3.05-5.22-.22-2.2.47-4.58.09-6.75-.28-1.6-1.51-3.07-2.29-4.44-.38-.65-1.45-2.16-1.3-2.92.24-1.19,2.13-1.79,3-2.35,2.9-1.86,5.74-3.63,8.79-5.24"/><path id="Voopmont_1" data-name="Voopmont 1" class="cls-2" d="M38.34,1043.72c-2.67-1.62-7.57.1-10.45.33-3.24.27-10.54,1.73-11.87-2.37-1.1-3.39.08-7.2-.85-10.66a18,18,0,0,0-2.67-5.18,11.57,11.57,0,0,1-2.3-6.15c-.53-5,.52-10.27,1.11-15.26.4-3.39.65-6.23-.89-9.32-.72-1.45-1.86-2.76-2-4.48a29.49,29.49,0,0,1,1.24-8.58c.84-2.86,2.68-5.61,2.9-8.61a24.84,24.84,0,0,0-.11-4.4c-.31-2.67-.5-5.09-.6-7.77a16.24,16.24,0,0,0-1.73-7.1c-2.44-4.17-8.21-7-9.37-11.94-.68-2.9.14-7.62,1.92-9.94,1-1.32,2.44-2.15,3.54-3.38a29.86,29.86,0,0,0,3.48-5.2c1-1.85,2.66-4.26,2.88-6.43.17-1.64-.72-3.1-.79-4.72a9.87,9.87,0,0,0-.48-3.78c-1.29-3.34-.91-7-.89-10.55a14.36,14.36,0,0,0,0-2.28c-.11-.7-.69-1.56-.64-2.23.08-1.11,1.31-2.83,2-3.83,2.88-4.41,6.57-7.47,10.38-11,3.37-3.14,5.7-8.92,5.7-8.92,4.92-5,10.05-9.59,15.24-14.26a70.54,70.54,0,0,1,9.07-7.5c3.09-2,6.68-3.16,9.65-5.3,4.84-3.5,8.31-9.14,14.38-10.47,7.38-1.63,14.24.55,21.54,1,6.78.45,20.86-2.08,21.08-11.07.17-6.71-8.29-12.32-12.37-16.3-3-3-6.06-6-9.81-8C90,794.44,79.23,790,80.18,780.44c.41-4.16,4.21-8.28,6.95-11.19a29.24,29.24,0,0,1,17.27-8.89c5.38-.73,10.08.53,15.31,1.83,4.8,1.2,9.61,2.46,14.34,3.93,6.45,2,12.26,5,18.28,7.92,4.35,2.15,6.49,2.07,11,.13,4.64-2,9.34-3.06,14-4.9a16.62,16.62,0,0,0,5-3.17c2.51-2.17,5.43-4.68,6.95-7.7,4.08-8.09,7.09-17.49,14.23-23.55,5.68-4.82,11.7-6.65,19-6.72a97.15,97.15,0,0,1,21,2.43c5.37,1.15,10.4,4.12,15.73,5.08s10.13-1.36,15.3-2.69c5-1.28,10.28-2.23,15.33-3.11,2.14-.37,4.42-.54,6.56-1,4.95-1.11,9.56-3.59,14-6,7.55-4.16,15.58-7.89,22.16-13.55a20,20,0,0,0,5.25-6c1.54-3,1.83-6.54,2.81-9.68.67-2.17,1.27-4.85,3-6.48,2.31-2.17,5.88-2.32,8.82-2.78a58.39,58.39,0,0,1,13.39-1,83.63,83.63,0,0,0,10.29.52c4.54-.18,8.94-.94,13.49-.52,3.16.29,6.26.88,9.45,1a135.37,135.37,0,0,0,18.87-.91,155.06,155.06,0,0,0,26.74-4.87,127.53,127.53,0,0,0,13.08-4.45c5.69-2.28,11-5.09,17.25-5.16,4.61,0,8.93,1.86,13.53,1.09,4-.67,7.24-2.86,10.07-5.79,4.68-4.84,7.75-11.48,11.55-17,1.56-2.26,3-5.19,5.28-6.82,1-.69,2.19-1.09,3.22-1.68a23.45,23.45,0,0,0,6.11-4.56c1.24-1.45,1.58-2.83,2.47-4.49,1.64-3.11,5.47-5.78,8.16-7.92a27.73,27.73,0,0,1,12.44-5.91,131.48,131.48,0,0,1,28.36-2.39c4.35,0,9.14.74,13.42-.07a5.21,5.21,0,0,0,3.2-1.53c3.66-3.75,5.83-9,10-12.44s8.31-6.38,12.42-9.59c5.95-4.65,11.33-10.44,18.92-12,3-.6,6-1,8.9-1.7,3.58-.79,8.86-1.84,11.59-4.67,1.11-1.16,1.65-2.73,2.54-4a32.81,32.81,0,0,1,3.68-4c4.16-4.37,8.69-8.39,12.71-12.89,4.57-5.12,11.71-7.32,17.6-10.73,4.31-2.49,8.58-5.18,12.71-8a14.41,14.41,0,0,0,4.71-4.28c1.52-2.26,2.58-5.21,3.87-7.58,1.45-2.66,3.31-5.38,4.39-8.2a53.91,53.91,0,0,0,1.64-6.42,101.52,101.52,0,0,0,2.86-13.34,46.75,46.75,0,0,0,0-7.85c-.2-4.16.54-8.2.47-12.35-.07-4.79-1.69-7.61-4.17-11.5a18.28,18.28,0,0,1-2.89-6.05c-.48-2-.54-4.06-.91-6.06s-1.24-3.95-1.42-6c-.23-2.75.71-5.09,1.38-7.74.63-2.49,1-5.19,1.84-7.61,1.41-4.11,3.76-7,6.25-10.53,3.59-5.1,7.09-10.12,7.88-16.46a34.74,34.74,0,0,0-.34-9.55c-.36-2.33-2.18-5.65-1.82-7.9.27-1.71,1.82-2.36,3-3.36a28.24,28.24,0,0,0,4.47-5.32,36.49,36.49,0,0,0,3.39-4.64,20.1,20.1,0,0,0,1.62-6.77c.6-4.94-1.77-9.3-1.34-14.14.17-1.92.74-3.47.51-5.47-.16-1.35-.61-2.59-.69-3.95a117.65,117.65,0,0,0-1.43-14.39c-.93-5.19,2-9.54,5.5-13.2,2.05-2.14,4.34-4.61,7.22-5.59,2.16-.74,4.6-1,6.77-1.66,3.18-1,6.17-2.46,9.31-3.56,4.17-1.45,8.55-1.9,12.88-2.63,4.63-.78,9.27-1.78,13.92-2.36,3.12-.39,8.74-1.19,12.34-.16,0,0,3.32,287.29,5.59,483.36l-149,114.44h0l-48.29-6.88a49.33,49.33,0,0,1-14.6,7.3c-9.14,2.75-12.21.63-19.59,3.84-4.44,1.92-3.68,2.84-15,11.52-11,8.46-12.11,7.88-14.59,11.53-5.08,7.46-1.42,11.26-6.54,17.29s-13.61,7.52-16.9,8.06c-4.91.81-6-.12-11.91,0-10.92.23-12.56,3.47-23.43,5-14.5,2-15.58-3.16-23.82.38-7.56,3.25-7.87,8.15-17.29,11.14-5.46,1.74-7.17.67-10.75,3.08-3.87,2.6-3.28,4.8-8.84,12.67-3.57,5.06-5.81,8.24-10,11.14-3.87,2.7-5.12,2.18-8.06,5-3.95,3.77-2.94,5.89-6.54,8.83-2.09,1.72-2.69,1.22-10,4.23a95.27,95.27,0,0,0-9.22,4.22c-7.18,3.85-7,5.38-11.53,6.92-5.54,1.88-6.68-.11-10.37,1.92-3.13,1.72-4.82,4.88-8.07,11.14-4.52,8.72-3.31,9.36-5.76,11.91-5.74,6-15.28,5.48-17.29,5.38-4.94-.25-5-1.63-11.91-2.69-8.62-1.32-9.1.73-15.75-.38-9.86-1.67-10.88-6.54-19.21-6.54-4.29,0-3.75,1.3-11.52,2.69-9.93,1.78-12-.12-19.21,1.54-7.94,1.83-7,4.52-15,6.92-9.27,2.79-17.51,1.25-24.2,0-5.39-1-10.38-2.85-20.36-6.54-13.53-5-13.69-6-19.21-7a52.2,52.2,0,0,0-21.51.85c-8.35,2.16-8.85,4.68-18.83,7.3-4.76,1.24-9.32,2.44-15.34,2.08-5.38-.32-10.13-2.06-19.62-5.54-8.92-3.28-8.81-3.92-12.67-4.61-2.07-.37-4.4-.6-16.91.38-8.35.66-12.53,1-15.75,1.54a89,89,0,0,0-18,5"/></g></g></g></svg>