<?xml version="1.0" encoding="UTF-8" standalone="no"?>
<svg
   xmlns:dc="http://purl.org/dc/elements/1.1/"
   xmlns:cc="http://creativecommons.org/ns#"
   xmlns:rdf="http://www.w3.org/1999/02/22-rdf-syntax-ns#"
   xmlns:svg="http://www.w3.org/2000/svg"
   xmlns="http://www.w3.org/2000/svg"
   id="svg48"
   version="1.1"
   viewBox="0 0 169.04902 101.42969">
  <metadata
     id="metadata52">
    <rdf:RDF>
      <cc:Work
         rdf:about="">
        <dc:format>image/svg+xml</dc:format>
        <dc:type
           rdf:resource="http://purl.org/dc/dcmitype/StillImage" />
        <dc:title></dc:title>
      </cc:Work>
    </rdf:RDF>
  </metadata>
  <defs
     id="defs4">
    <style
       id="style2">
      .cls-1 {
        fill: #ffcb21;
      }

      .cls-2 {
        fill: #fff;
      }

      .cls-3 {
        fill: #c11616;
      }
    </style>
  </defs>
  <g
     data-name="Layer 2"
     id="Layer_2">
    <g
       data-name="Layer 1"
       id="Layer_1-2">
      <g
         id="g44">
        <polygon
           id="polygon6"
           points="84.525 50.715 0 101.43 0 0 84.525 50.715"
           class="cls-1" />
        <polygon
           id="polygon8"
           points="84.525 50.715 169.049 101.43 169.049 0 84.525 50.715"
           class="cls-1" />
        <path
           id="path10"
           d="M0,101.42955,29.75263,83.578,54.77188,68.56642,75.734,55.98917l8.79055-5.27433,8.79055,5.27433,20.96208,12.57725L139.29639,83.578,169.049,101.42955Z" />
        <path
           id="path12"
           d="M0,.00014,29.75263,17.85172,54.77188,32.86327,75.734,45.44052l8.79055,5.27432,8.79055-5.27433,20.96208-12.57724,25.01925-15.01156L169.049.00014Z" />
        <polyline
           id="polyline14"
           points="91.949 0 91.949 101.43 77.1 101.43 77.1 0" />
        <g
           id="g20">
          <line
             id="line16"
             y2="0.00014"
             x2="77.1004"
             y1="101.42955"
             x1="77.1004"
             class="cls-2" />
          <rect
             id="rect18"
             height="101.42969"
             width="3"
             x="75.60048"
             class="cls-1" />
        </g>
        <g
           id="g26">
          <line
             id="line22"
             y2="101.42955"
             x2="91.94861"
             y1="0.00014"
             x1="91.94861"
             class="cls-2" />
          <rect
             id="rect24"
             height="101.42969"
             width="3"
             x="90.44862"
             class="cls-1" />
        </g>
        <circle
           id="circle28"
           r="21.73187"
           cy="50.71484"
           cx="84.52451"
           class="cls-3" />
        <path
           id="path30"
           d="M64.601,62.6709a23.25875,23.25875,0,0,1,0-23.91162l2.57129,1.5459a20.25543,20.25543,0,0,0,0,20.81884Z" />
        <path
           id="path32"
           d="M84.52431,73.94629A23.37314,23.37314,0,0,1,64.601,62.6709L67.17226,61.124a20.23823,20.23823,0,0,0,34.7041,0l2.57129,1.54688A23.37192,23.37192,0,0,1,84.52431,73.94629Z"
           class="cls-1" />
        <path
           id="path34"
           d="M104.44716,62.6709,101.87685,61.124a20.254,20.254,0,0,0-.00049-20.81884l2.57129-1.5459a23.25438,23.25438,0,0,1-.00049,23.91162Z" />
        <path
           id="path36"
           d="M67.17226,40.30518,64.601,38.75928a23.23868,23.23868,0,0,1,39.84668,0l-2.57129,1.5459a20.23823,20.23823,0,0,0-34.7041,0Z"
           class="cls-1" />
        <g
           id="g42">
          <path
             id="path38"
             d="M82.00331,36.60889q.16407-.06153.332-.1084V34.37842h1.00635v1.96387a4.52615,4.52615,0,0,1,.7627.03222,6.01989,6.01989,0,0,1,1.106.25733V34.37842h1.00635v2.64306c.62793.272,1.24609.57081,1.895.78858a5.27793,5.27793,0,0,0,3.144.15869,4.0918,4.0918,0,0,0,2.42578-1.95508A4.01386,4.01386,0,0,0,94.13661,34.54h.00147v-.00147l.50928.00147h.02832v.00049l.46875.001-.00147.50342a8.50694,8.50694,0,0,1-.11865,1.50684,12.4339,12.4339,0,0,1-2.52783,5.3706,25.91469,25.91469,0,0,1-3.35889,3.34912,16.65865,16.65865,0,0,1,5.33447,2.96V57.251L86.21669,62.4541v2.85059H85.21034V63.08887l-.59033.37207a9.91,9.91,0,0,0-1.27832-1.17871v3.02246H82.33534v-3.7002a8.83625,8.83625,0,0,0-1.83593-.81347,7.74807,7.74807,0,0,0-2.51026-.34278,10.777,10.777,0,0,0-3.02344.44238,2.423,2.423,0,0,0-.71972.35352,1.49036,1.49036,0,0,0-.39844.44336,6.31724,6.31724,0,0,0,.04346,2.1748l-1.1499.53907a8.08829,8.08829,0,0,1,.478-4.30371,12.178,12.178,0,0,1,1.92676-3.14551,34.24826,34.24826,0,0,1,2.50928-2.7207c.5166-.51172,1.05078-1.00489,1.59277-1.48829l.3291-.29394-5.0249-3.28369V41.94287l5.62744-4.24023A7.36786,7.36786,0,0,1,82.00331,36.60889Zm.332,14.72656-2.417,2.15771c-.53027.47364-1.05127.95606-1.55713,1.45508-.83349.82129-1.6582,1.6543-2.40967,2.55176-.05664.06738-.11279.13477-.168.2041a8.07978,8.07978,0,0,1,3.20068-1.38769,9.75118,9.75118,0,0,1,3.35107-.043Zm-2.39306-11.477-.68262.32373v6.32422l3.07568,2.12109V41.21436A15.70139,15.70139,0,0,1,79.94228,39.8584Zm3.39941,9.23047,1.86865-1.668v-5.25a12.76459,12.76459,0,0,1-1.26709-.33594q-.30321-.09667-.60156-.207Zm1.39209,7.80273q.23951.08643.47656.18164V48.76953l-1.86865,1.668v6.03418A12.9774,12.9774,0,0,1,84.73378,56.8916Zm4.959-14.769a9.08747,9.08747,0,0,1-3.47608.21533v4.18457L87.621,45.269a32.10106,32.10106,0,0,0,4.09228-3.98633c.02881-.0371.05762-.07373.08594-.11083A7.352,7.352,0,0,1,89.69277,42.12256ZM89.08193,59.335l.68261-.32422V50.74658L86.21669,49.0127v8.50878A15.79852,15.79852,0,0,1,89.08193,59.335Z" />
          <path
             id="path40"
             d="M86.59169,65.67969H84.83534V63.76855l-.28125.17676-.21142-.23242c-.19873-.21777-.40821-.42773-.626-.627v2.59375H81.96034V61.82227a8.39827,8.39827,0,0,0-1.57226-.67286,7.232,7.232,0,0,0-2.38867-.32617,10.17178,10.17178,0,0,0-2.918.42383,2.0547,2.0547,0,0,0-.61035.29688,1.15589,1.15589,0,0,0-.26368.27441,5.906,5.906,0,0,0,.05127,1.9707l.05713.28809-1.8623.873-.082-.48633a8.41987,8.41987,0,0,1,.499-4.50489,12.49462,12.49462,0,0,1,1.98437-3.24316,33.981,33.981,0,0,1,2.53663-2.751c.50976-.50488,1.03613-.99218,1.5708-1.46972l-4.78516-3.12647V41.75586L79.954,37.40332a7.667,7.667,0,0,1,1.91845-1.146c.0293-.01074.0586-.02148.08789-.03173V34.00342h1.75635V35.9668c.14551.00537.291.01758.43506.03564a5.80189,5.80189,0,0,1,.68359.13037V34.00342h1.75635v2.77344l.24317.10742c.45459.20263.9248.41211,1.396.57031a4.966,4.966,0,0,0,2.91895.1543,3.63077,3.63077,0,0,0,2.61377-3.1084l.01416-.13184.2041-.2041.15722-.001,1.38135.00391-.00244.87842a8.78975,8.78975,0,0,1-.125,1.57324,12.81964,12.81964,0,0,1-2.60156,5.53467,23.406,23.406,0,0,1-2.92822,2.97754,17.01984,17.01984,0,0,1,4.84765,2.811l.13623.11231V57.458l-8.25537,5.20312Zm-1.00635-.75h.25635V62.24707L94.09706,57.044V48.40918A16.30279,16.30279,0,0,0,89.01894,45.627l-.61866-.20654.48975-.43066a25.779,25.779,0,0,0,3.31152-3.29932,12.07633,12.07633,0,0,0,2.45411-5.206A8.09786,8.09786,0,0,0,94.768,35.044l.00049-.12842-.30811-.001a4.38089,4.38089,0,0,1-3.09863,3.41406,5.62474,5.62474,0,0,1-3.36963-.16308c-.50488-.16944-.9917-.38623-1.4624-.59619l-.688-.30176V34.75342h-.25635v2.395l-.49121-.16016a5.64528,5.64528,0,0,0-1.03711-.2417,4.045,4.045,0,0,0-.6997-.02978l-.39063.0166v-1.98h-.25635v2.03174l-.27392.07666q-.15234.04248-.30127.09814l-.001.00049a7.05639,7.05639,0,0,0-1.729,1.0415l-5.478,4.12793V48.9624l5.26465,3.44092-.69385.61914c-.5376.47949-1.06689.96875-1.5791,1.47559a33.21161,33.21161,0,0,0-2.48193,2.69043,13.17156,13.17156,0,0,0-1.49268,2.22461l1.72022-2.1543c.79345-.94824,1.67236-1.82715,2.43359-2.57813.51025-.50293,1.03564-.98925,1.57031-1.46679l3.042-2.71582V56.71l-.43164-.06543a9.35631,9.35631,0,0,0-3.22217.04,7.7243,7.7243,0,0,0-3.05175,1.32227l-2.13965,1.5625c-.11084.22363-.21.44531-.29736.667a7.72559,7.72559,0,0,0-.52295,3.6084l.42724-.2002a6.70939,6.70939,0,0,1,.00489-2.01367l.04541-.12988a1.87357,1.87357,0,0,1,.498-.55664,2.7759,2.7759,0,0,1,.83106-.41114,10.90839,10.90839,0,0,1,3.12744-.46,8.177,8.177,0,0,1,2.63183.35938,9.18751,9.18751,0,0,1,1.91407.84863l.18554.1084v3.54h.25635V61.51953l.604.46582a10.26842,10.26842,0,0,1,1.11083.99317l.90381-.56934Zm-3.625-12.75684-1.79248,1.59961c-.52539.46973-1.042.94824-1.54345,1.44238-.35889.3545-.74463.73731-1.13428,1.14258a8.58252,8.58252,0,0,1,1.42187-.40918,9.97719,9.97719,0,0,1,3.04834-.10351Zm7.07129,7.60059-.18261-.14453a15.38378,15.38378,0,0,0-2.79737-1.77051l-.21-.10352V48.41211l4.29785,2.10059v8.73535ZM86.59169,57.29a16.16213,16.16213,0,0,1,2.53858,1.60644l.25927-.123v-7.793l-2.79785-1.36719Zm-1.00635.33789-.51513-.207q-.23-.09228-.46387-.17676h-.00049a12.74582,12.74582,0,0,0-1.35156-.4082l-.2876-.06836v-6.498l2.61865-2.3374Zm-1.86865-1.44824c.37158.09863.74658.21582,1.11865.34961V49.60693l-1.11865.99854Zm-.75-6.25342V41.08984l.50488.186c.19336.07129.38868.13916.58545.20166a12.3635,12.3635,0,0,0,1.23047.32617l.29785.0625v5.72266Zm.75-7.77051v6.0957l1.11865-.99853V42.47168c-.33447-.07861-.67187-.17236-1.00634-.27979C83.7914,42.18018,83.75429,42.168,83.71669,42.15576Zm-1.00635,7.186-3.82568-2.63868v-6.7583l1.09229-.51757.17773.12207a15.39469,15.39469,0,0,0,2.33594,1.32373l.21972.10009Zm-3.07568-3.03223,2.32568,1.60352V41.45361a16.19174,16.19174,0,0,1-2.05127-1.16455l-.27441.13037Zm6.207,1.05029V41.915l.41992.05078a8.74108,8.74108,0,0,0,3.33252-.20508,6.93951,6.93951,0,0,0,1.99854-.90185l1.84472-1.21534-1.40185,1.83594a25.71914,25.71914,0,0,1-3.41895,3.41065Zm.75-4.60693v2.93213l1.53027-1.3584c.72852-.64014,1.47315-1.29395,2.16163-1.99414q-.24317.08422-.49219.15186h0A9.27055,9.27055,0,0,1,86.59169,42.75293Z"
             class="cls-1" />
        </g>
      </g>
    </g>
  </g>
</svg>
