<?xml version="1.0" encoding="UTF-8" standalone="no"?>
<svg
   xmlns:dc="http://purl.org/dc/elements/1.1/"
   xmlns:cc="http://creativecommons.org/ns#"
   xmlns:rdf="http://www.w3.org/1999/02/22-rdf-syntax-ns#"
   xmlns:svg="http://www.w3.org/2000/svg"
   xmlns="http://www.w3.org/2000/svg"
   viewBox="0 0 524.98919 645.77914"
   version="1.1"
   id="svg28"
   width="524.9892"
   height="645.77911">
  <metadata
     id="metadata32">
    <rdf:RDF>
      <cc:Work
         rdf:about="">
        <dc:format>image/svg+xml</dc:format>
        <dc:type
           rdf:resource="http://purl.org/dc/dcmitype/StillImage" />
        <dc:title></dc:title>
      </cc:Work>
    </rdf:RDF>
  </metadata>
  <defs
     id="defs4">
    <style
       id="style2">
      .cls-1 {
        fill: none;
        stroke: #231f20;
        stroke-miterlimit: 10;
      }
    </style>
  </defs>
  <path
     id="path922-3"
     d="m 310.70503,0.53569731 c 1.4075,0.076 2.81531,0.2626 3.94531,0.3926 2.65,0.30999999 5.29,0.62099999 8,0.71099999 1,0.03 2.2157,-0.061 3.4082,-0.014 0.59625,0.024 1.18688,0.082 1.74219,0.207 0.55531,0.1247 1.0743,0.3155 1.5293,0.6055 0.5775,0.3662 0.94318,0.7857 1.14062,1.2422 0.19744,0.4564 0.22735,0.9506 0.13086,1.4707 -0.19297,1.0401 -0.88836,2.1808 -1.74023,3.3164 -0.85188,1.1356 -1.85992,2.2661997 -2.68164,3.2850997 -0.82172,1.0189 -1.4561,1.9272 -1.5586,2.6172 -0.0254,0.6513 0.0658,1.2946 0.26563,1.9043 0.19984,0.6097 0.50808,1.1854 0.91406,1.6953 1.16618,1.7433 2.43914,3.4131 3.81055,5 0.895,1.04 1.87633,1.9268 2.91601,2.7188 1.03969,0.792 2.13602,1.4898 3.25977,2.1504 2.2475,1.3212 4.60422,2.4952 6.82422,3.9902 0.035,0.27 -0.15274,0.5502 -0.4668,0.8281 -0.31406,0.278 -0.75477,0.554 -1.22852,0.8184 -0.94749,0.5287 -2.02656,1.0085 -2.47656,1.3535 -0.74,0.555 -1.58156,1.1622 -2.35156,1.8359 -0.77,0.6738 -1.46797,1.4144 -1.91797,2.2344 -0.3372,0.62 -0.54379,1.2793 -0.62695,1.9434 -0.0832,0.664 -0.0416,1.3328 0.11328,1.9746 0.15485,0.6418 0.42394,1.2555 0.80078,1.8086 0.37684,0.5531 0.86055,1.0454 1.44336,1.4433 1.33187,0.9082 2.75271,1.6796 4.24023,2.3008 2,1.0667 4,2.15 6,3.25 2.37,1.2 4.79899,2.2882 7.20899,3.4082 2.40947,1.197 4.90123,2.2141 7.45312,3.043 2.5519,0.8289 5.16543,1.4706 7.81836,1.918 2.45507,0.364 4.8854,0.8742 7.2793,1.5293 0.84,0.22 1.55766,0.3859 2.22266,0.6484 0.665,0.2625 1.2782,0.6224 1.9082,1.2324 0.67154,0.7684 1.4468,1.4298 2.30078,1.9688 0.85398,0.539 1.78504,0.9548 2.76758,1.2304 1.54956,0.2831 3.04308,0.7902 4.43359,1.5 1.17031,0.5975 2.26853,1.3395 3.26758,2.211 1.32092,1.1735 2.83203,2.0875 4.45508,2.7109 1.62305,0.6235 3.35811,0.9562 5.125,0.9688 1.06,0 2.30875,0.094 3.53125,0.033 0.61125,-0.031 1.2168,-0.1001 1.78711,-0.2403 0.57031,-0.1401 1.10703,-0.3496 1.58203,-0.6621 0.66271,-0.5782 1.25031,-1.2319 1.75391,-1.9453 0.50359,-0.7134 0.92318,-1.4866 1.24609,-2.3047 0.25,-0.63 0.28289,-1.0523 0.17773,-1.3554 -0.10515,-0.3032 -0.34921,-0.4871 -0.65234,-0.6446 -0.30313,-0.1575 -0.66586,-0.2893 -1.00977,-0.4824 -0.3439,-0.1931 -0.66898,-0.4494 -0.89648,-0.8594 -0.31,-0.55 -0.35172,-1.2492 -0.26172,-1.9492 0.09,-0.7 0.31125,-1.3992 0.53125,-1.9492 0.57469,-1.441 1.2922,-2.8223 2.14063,-4.1211 0.345,-0.5 0.84523,-1.1027 1.24023,-1.7539 0.395,-0.6513 0.68438,-1.3499 0.60938,-2.0449 -0.14,-1.71 -0.92,-3.2308 -1,-5.0508 0,-1 -0.23821,-1.9749 -0.34571,-2.9336 -0.0537,-0.4794 -0.0748,-0.9554 -0.0176,-1.4277 0.0572,-0.4724 0.19313,-0.9407 0.45313,-1.4082 0.5043,-0.7642 1.14822,-1.4163 1.88867,-1.9258 0.74045,-0.5095 1.57877,-0.8763 2.47266,-1.0742 0.84103,-0.2386 1.70485,-0.3794 2.57812,-0.42 0.54,0.08 0.94344,0.3803 1.30469,0.7403 0.36125,0.36 0.68164,0.7796 1.05664,1.0996 1.34,1.1525 2.79711,2.1351 4.32617,3.0156 1.52907,0.8805 3.13016,1.6591 4.75391,2.3984 3.2475,1.4788 6.59039,2.8059 9.65039,4.5059 1.38,0.765 2.6132,1.298 3.87695,1.498 0.63188,0.1 1.27149,0.1159 1.93946,0.037 0.66796,-0.079 1.36578,-0.2527 2.11328,-0.5352 1.035,-0.395 2.62195,-0.9335 3.8457,-1.7285 0.61187,-0.3975 1.13375,-0.8578 1.44922,-1.3985 0.31547,-0.5406 0.42484,-1.1605 0.21484,-1.873 -0.27,-0.92 -0.40812,-1.9548 -0.67187,-2.916 -0.13188,-0.4806 -0.29414,-0.9431 -0.52149,-1.3633 -0.22734,-0.4202 -0.51875,-0.7988 -0.90625,-1.1113 -0.61,-0.5 -1.5439,-1.0144 -2.34765,-1.6094 -0.40188,-0.2975 -0.77164,-0.6153 -1.05274,-0.9609 -0.28109,-0.3457 -0.47203,-0.7189 -0.51953,-1.1289 -0.0213,-0.6221 0.19257,-1.2304 0.59961,-1.7012 0.84,-1.25 1.79031,-2.3602 2.57031,-3.6602 0.41,-0.71 0.99868,-1.5 1.38868,-2.25 0.25715,-0.6644 0.39911,-1.3659 0.41992,-2.0781 0.35457,-1.0458 0.85651,-2.0371 1.49023,-2.9414 0.44,-0.795 1.04297,-1.4616 1.69922,-2.0879 0.65625,-0.6262 1.36648,-1.2118 2.02148,-1.8418 0.86,-0.835 1.89188,-1.7766 3.01563,-2.5391 0.56187,-0.3812 1.1468,-0.7173 1.74414,-0.9726 0.59734,-0.2553 1.20781,-0.4308 1.82031,-0.4883 1.52975,-0.068 3.06194,-0.051 4.58984,0.051 1.89,0 3.7141,-0.1009 5.5391,-0.1172 1.825,-0.016 3.651,0.052 5.541,0.3867 1,0.175 2.0379,0.3715 3.0117,0.709 0.9737,0.3375 1.8839,0.8158 2.6289,1.5508 0.9605,1.1414 1.7629,2.4056 2.3887,3.7598 0.655,1.14 1.3095,2.1245 2.1133,2.957 0.8037,0.8325 1.7578,1.513 3.0078,2.043 1.64,0.68 3.3447,1.1036 5.0722,1.4199 1.7275,0.3162 3.4771,0.5262 5.2071,0.7812 1.12,0.165 2.1823,0.4889 3.2461,0.6914 1.0637,0.2025 2.1289,0.2821 3.2539,-0.043 2.6972,-0.9212 5.3183,-2.0502 7.8398,-3.3789 0.65,-0.315 1.5702,-0.9122 2.5039,-1.2422 0.4669,-0.165 0.9372,-0.2641 1.3789,-0.2266 0.4417,0.038 0.8546,0.2104 1.2071,0.5879 0.2546,0.3804 0.4119,0.8098 0.4668,1.2519 0.055,0.4422 0.01,0.8971 -0.1465,1.3282 -0.1955,0.9362 -0.483,1.8512 -0.8594,2.7304 -0.6492,1.485 -1.1546,3.0281 -1.5098,4.6094 -0.1531,0.3472 -0.3347,0.6816 -0.541,1 -0.329,0.4113 -0.6836,0.802 -1.0605,1.1699 -0.5297,0.4358 -1.1316,0.7744 -1.7793,1 -0.2441,0.095 -0.453,0.2633 -0.5996,0.4805 -0.1646,0.2876 -0.2616,0.6087 -0.2813,0.9395 -0.09,0.4589 -0.09,0.9316 0,1.3906 0.1069,3.8747 0.4283,7.7406 0.9609,11.5801 0.25,1.375 0.3757,2.5492 0.2207,3.6679 -0.077,0.5594 -0.226,1.1051 -0.4628,1.6543 -0.2369,0.5492 -0.5631,1.1028 -0.9981,1.6778 -0.87,1.12 -1.8192,2.1903 -2.6992,3.3203 -0.815,1.06 -1.7533,2.1028 -2.6133,3.1953 -0.86,1.0925 -1.6415,2.2341 -2.1465,3.4941 -0.435,1.085 -0.6704,2.0846 -0.5117,2.9571 0.079,0.4362 0.2562,0.8418 0.5566,1.2089 0.3005,0.3672 0.725,0.6969 1.295,0.9844 1.13,0.58 2.3199,1.1195 3.4199,1.7696 1.0762,0.662 2.0681,1.4439 2.959,2.3281 0.8909,0.8842 1.6794,1.8702 2.3496,2.9414 0.445,0.635 0.8059,1.0689 1.0234,1.5351 0.2175,0.4663 0.293,0.9664 0.168,1.7364 -0.24,1.445 -0.6227,2.8643 -0.8789,4.2968 -0.2563,1.4325 -0.3861,2.8781 -0.1211,4.3731 0.2182,0.7841 0.3143,1.5922 0.2891,2.3965 -0.025,0.8042 -0.1724,1.604203 -0.4395,2.373003 -0.67,1.82 -1.8908,3.3399 -2.5508,5.1699 -0.76,2.12 -1.9991,4.0795 -2.8691,6.1895 -0.9525,2.38 -1.5132,4.9014 -1.9238,7.4727 -0.4107,2.5712 -0.671,5.1923 -1.0235,7.7773 -0.3525,2.585 -0.798,5.1334 -1.5762,7.5547 -0.389,1.2106 -0.8611,2.389 -1.4472,3.5254 -0.5862,1.1364 -1.2852,2.2295 -2.1289,3.2695 -0.5,0.645 -1.2503,1.6457 -2.1153,2.3457 -0.4325,0.35 -0.894,0.626 -1.3672,0.7441 -0.4731,0.1182 -0.9575,0.078 -1.4375,-0.1992 -0.625,-0.345 -0.9877,-1.0022 -1.2402,-1.7285 -0.2525,-0.7262 -0.3951,-1.5206 -0.5801,-2.1406 -0.4949,-1.7063 -1.0785,-3.3854 -1.7461,-5.0293 -0.6675,-1.6439 -1.419,-3.254 -2.2539,-4.8223 -0.595,-1.065 -1.4384,-2.3598 -2.4609,-3.4336 -0.5113,-0.5368 -1.0673,-1.0168 -1.6602,-1.3867 -0.5928,-0.3698 -1.2214,-0.6287 -1.8789,-0.7187 -0.41,-0.058 -0.7655,0.001 -1.0839,0.1406 -0.3185,0.1394 -0.6001,0.3586 -0.8614,0.6211 -0.5225,0.525 -0.9648,1.2238 -1.4648,1.7988 -1.733,2.1274 -3.2015,4.4573 -4.3711,6.9395 -0.875,1.73 -1.6792,3.4543 -2.2754,5.2343 -0.5963,1.78 -0.9834,3.6164 -1.0234,5.5664 0.02,0.8 -0.065,1.5957 -0.25,2.3672 -0.185,0.7716 -0.469,1.5189 -0.8497,2.2227 -0.56,1 -1.4652,2.2311 -2.0839,3.5273 -0.3094,0.6482 -0.5475,1.3138 -0.6348,1.9727 -0.087,0.6589 -0.025,1.3119 0.2676,1.9394 0.5,1.045 1.4129,1.9058 2.3691,2.7383 0.9563,0.8325 1.9559,1.6373 2.6309,2.5723 0.7758,1.0294 1.3357,2.1891 1.6601,3.4121 0.3245,1.223 0.4136,2.5085 0.25,3.7871 -0.07,0.61 -0.1646,1.4522 -0.3808,2.2422 -0.2163,0.79 -0.5544,1.5277 -1.1094,1.9277 -0.555,0.4 -1.3796,0.5133 -2.2246,0.5196 -0.845,0.01 -1.7107,-0.094 -2.3457,-0.1192 -1.4414,-0.1876 -2.8244,-0.6813 -4.0586,-1.4492 -1.1925,-0.58 -2.4134,-0.9506 -3.6543,-1.1758 -1.24094,-0.2251 -2.50219,-0.3065 -3.77344,-0.3047 -2.5425,0 -5.12859,0.3355 -7.68359,0.4805 -1.04733,-0.047 -2.0954,0.044 -3.11914,0.2695 -0.95296,0.3766 -1.85147,0.8681 -2.67774,1.461 -0.82626,0.5928 -1.58022,1.2862 -2.24218,2.0683 -1.1425,1.1875 -2.19891,2.4019 -3.1211,3.6602 -0.92219,1.2583 -1.70961,2.5601 -2.31836,3.9258 -0.60875,1.3656 -1.03804,2.7951 -1.24023,4.3047 -0.20219,1.5095 -0.17836,3.099 0.11914,4.789 0.27,1.535 0.42227,2.9176 0.32227,4.2676 -0.10001,1.35 -0.45141,2.6673 -1.19141,4.0723 -0.905,1.72 -2.22977,3.395 -3.66602,4.9863 -1.43625,1.5912 -2.98398,3.0994 -4.33398,4.4844 -1.88,1.95 -3.69094,4.22 -5.71094,6 -1.24,1.11 -2.93,2.1191 -4.25,3.1191 -1.90441,1.4975 -3.91,2.8567 -6.00195,4.0664 -2.09195,1.2097 -4.26978,2.2702 -6.51758,3.1738 -1.155,0.415 -2.18508,0.778 -3.20508,0.8868 -0.51,0.054 -1.01773,0.045 -1.53711,-0.053 -0.51937,-0.098 -1.04992,-0.284 -1.60742,-0.584 -1.98693,-1.1164 -4.05574,-2.0781 -6.18945,-2.8789 -1.5,-0.535 -3.0018,-0.9952 -4.4668,-1.5352 -1.465,-0.54 -2.89391,-1.1606 -4.25391,-2.0156 -0.68,-0.4275 -1.25578,-0.9058 -1.76171,-1.4258 -0.50594,-0.52 -0.94196,-1.0808 -1.34571,-1.6758 -0.8075,-1.19 -1.4825,-2.5134 -2.3125,-3.8984 -0.73348,-1.0796 -1.63307,-2.0245 -2.6582,-2.8047 -1.02513,-0.7803 -2.17612,-1.3951 -3.41211,-1.8145 -1.865,-0.76 -3.83086,-1.0662 -5.78711,-1.375 -1.95625,-0.3087 -3.90242,-0.6214 -5.73242,-1.3964 -1.21043,-0.5123 -2.53773,-0.7179 -3.9043,-0.7325 -1.36656,-0.014 -2.77339,0.1635 -4.14062,0.4161 -1.16248,0.2147 -2.29649,0.4847 -3.35547,0.7382 -0.9,0.21 -1.90102,0.5121 -2.91602,0.7246 -1.015,0.2125 -2.0439,0.3336 -3.0039,0.1836 -0.75,-0.11 -1.47094,-0.4491 -2.21094,-0.6191 -1.78188,-0.3203 -3.59918,-0.3806 -5.39844,-0.1797 -0.72,0.045 -1.54172,0.18 -2.35547,0.2188 -0.81375,0.039 -1.61945,-0.019 -2.31445,-0.3594 -0.695,-0.34 -1.15844,-1.019 -1.61719,-1.7403 -0.45875,-0.7212 -0.91375,-1.4852 -1.59375,-1.9902 -0.68,-0.505 -1.46687,-0.7551 -2.29687,-0.9101 -0.83,-0.155 -1.70274,-0.2149 -2.55274,-0.3399 -2.37888,-0.2993 -4.72317,-0.8286 -7,-1.5801 -0.71,-0.235 -1.45992,-0.4495 -2.20117,-0.4882 -0.74125,-0.039 -1.47344,0.098 -2.14844,0.5683 -1.105,0.78 -2.04797,1.7408 -2.94922,2.7383 -0.90125,0.9975 -1.76117,2.0329 -2.70117,2.9629 -1.28777,1.4924 -2.74043,2.8343 -4.33008,4 -1.07,0.66 -2.24031,1.139 -3.32031,1.789 -1.185,0.715 -2.48492,1.9936 -3.88867,3.0098 -0.70187,0.5081 -1.4293,0.9501 -2.18164,1.2246 -0.75234,0.2746 -1.53008,0.3818 -2.33008,0.2168 -1.2,-0.25 -2.35539,-0.8729 -3.46289,-1.5879 -1.1075,-0.715 -2.16578,-1.5225 -3.17578,-2.1425 -1.3,-0.795 -2.78828,-1.595 -4.33203,-2.0938 -0.77188,-0.2494 -1.5582,-0.4239 -2.3418,-0.4844 -0.78359,-0.06 -1.56367,-0.01 -2.32617,0.1973 -1,0.27 -1.98508,0.6559 -2.94336,1.1269 -0.95828,0.4711 -1.89094,1.0282 -2.78906,1.6426 -1.79625,1.2288 -3.45344,2.6856 -4.89844,4.1406 -0.74,0.74 -1.32336,1.3731 -1.75586,2.0606 -0.4325,0.6875 -0.71351,1.4306 -0.85352,2.3906 -0.2035,0.969 -0.49899,1.9166 -0.88085,2.8301 -0.625,1.845 -1.48196,3.5943 -2.40821,5.3105 -0.92625,1.7163 -1.92226,3.3994 -2.82226,5.1094 -0.455,0.87 -0.87883,1.8526 -1.36133,2.7988 -0.4825,0.9463 -1.02203,1.8551 -1.70703,2.5801 -1.64,1.76 -3.81063,3.0897 -5.64063,4.6797 -2.25732,1.8851 -4.41458,3.8878 -6.46093,6 -0.2875,0.3075 -0.78266,0.5677 -1.39454,0.7793 -0.61187,0.2116 -1.33984,0.3759 -2.08984,0.4922 -1.5,0.2325 -3.09039,0.2739 -4.02539,0.1289 -1.165,-0.185 -2.2968,-0.075 -3.4043,0.1836 -1.1075,0.2587 -2.19086,0.6662 -3.25586,1.0762 -1.74,0.67 -3.49953,1.5198 -5.26953,2.0898 -0.74,0.24 -1.52023,0.2202 -2.24023,0.4102 -0.75361,0.284 -1.46081,0.6698 -2.10352,1.1425 -0.6427,0.4728 -1.22123,1.0332 -1.71679,1.668 -1.92593,2.0934 -4.00129,4.2736 -5.67188,6.668 -0.72349,1.0369 -1.37261,2.115 -1.89844,3.2422 -0.93169,2.0181 -1.75668,4.0824 -2.47265,6.1836 -0.71597,2.1011 -1.32199,4.2391 -1.81641,6.4062 -0.15,0.64 -0.4643,1.1043 -0.8418,1.5293 -0.3775,0.425 -0.81875,0.811 -1.21875,1.291 -1.32272,1.6827 -2.86289,3.1814 -4.58007,4.459 -0.60854,0.5251 -1.31026,0.9164 -2.06055,1.1562 -0.7503,0.2399 -1.54932,0.3286 -2.34961,0.254 -1.09,-0.21 -1.91859,-0.9095 -3.0586,-0.9395 -0.7704,0.049 -1.52934,0.1921 -2.25976,0.4238 -0.73042,0.2317 -1.43389,0.5532 -2.0918,0.9571 -1.28044,0.6114 -2.48258,1.3627 -3.58789,2.2382 -1.1053,0.8756 -2.11362,1.874 -3.00195,2.9805 -0.815,1.115 -1.42633,2.2596 -1.88477,3.4316 -0.45843,1.1721 -0.76304,2.3721 -0.96679,3.5977 -0.4075,2.4513 -0.40821,5.0054 -0.40821,7.6504 0,0 -1.54601,1.9451 -3.00976,4.3789 -0.73188,1.2169 -1.4436,2.5567 -1.92969,3.8359 -0.48609,1.27926 -0.74758,2.4991 -0.58008,3.4766 0.125,0.71001 0.30008,1.27165 0.39258,1.8379 0.0925,0.56625 0.10344,1.13632 -0.10156,1.86132 -0.27,1 -0.61141,1.94039 -0.94141,2.90039 -0.335,0.97 -0.71406,1.90688 -1.00781,2.85938 -0.29375,0.9525 -0.50219,1.92117 -0.49219,2.95117 -0.0852,0.87126 -0.0437,1.74962 0.12109,2.60938 0.32919,0.84442 0.79739,1.62038 1.38086,2.29687 0.58348,0.67649 1.28144,1.2535 2.06836,1.70313 2.06382,1.17855 4.28167,2.06263 6.58985,2.6289 1.1281,0.32333 2.28163,0.53849 3.44531,0.64063 1.16368,0.10213 2.33868,0.0926 3.50586,-0.0293 1.53916,-0.18211 2.99424,-0.63697 4.45898,-1.06836 1.02858,-0.30294 2.0624,-0.59409 3.13086,-0.77148 0.815,-0.135 1.65344,-0.26078 2.42969,-0.17578 0.38813,0.0425 0.76031,0.13804 1.10547,0.31054 0.34516,0.1725 0.66336,0.42289 0.94336,0.77539 0.56,0.705 0.93805,1.48422 1.37305,2.23047 0.435,0.74625 0.92679,1.4593 1.71679,2.0293 1.23188,0.74749 2.55367,1.33847 3.93164,1.75976 3,1.13 6.2993,1.69946 9.2793,2.93946 0.58409,0.31885 1.18574,0.6053 1.80078,0.85937 0.73,0.205 1.5575,0.09 2.375,-0.125 0.8175,-0.215 1.62445,-0.52961 2.31445,-0.72461 0.69,-0.195 1.43899,-0.45648 2.20899,-0.64648 0.77,-0.19 1.56008,-0.30789 2.33008,-0.21289 1.15,0.15 2.23086,0.67914 3.38086,0.86914 0.84331,0.11144 1.69376,0.12163 2.5332,0.0293 0.83944,-0.0923 1.66787,-0.28603 2.4668,-0.57813 1.105,-0.3625 2.11992,-0.8382 3.07617,-1.39258 0.95625,-0.55437 1.85461,-1.18828 2.72461,-1.86328 1.74,-1.35 3.36867,-2.87039 5.13867,-4.27539 2.55023,-1.96068 5.22226,-3.75653 8,-5.37891 0.84208,-0.58845 1.7335,-1.10124 2.66211,-1.53125 0.92861,-0.43 1.8952,-0.77753 2.88867,-1.03906 1.15319,-0.0979 2.31407,-0.0103 3.43945,0.25977 l 4.39063,0.53125 c 3.14651,0.22039 6.27703,0.61713 9.37891,1.18945 0.96787,0.30931 1.98932,0.41541 3,0.31055 1.24963,-0.4323 2.383,-1.14938 3.31054,-2.0918 0.76,-0.61 1.61664,-1.24367 2.33789,-1.98242 0.72125,-0.73875 1.30649,-1.58242 1.52149,-2.60742 0.175,-0.8275 0.0879,-1.56961 -0.15039,-2.26758 -0.23829,-0.69797 -0.62711,-1.35172 -1.05274,-1.9961 -0.42562,-0.64437 -0.88836,-1.28054 -1.27539,-1.94726 -0.38703,-0.66672 -0.69781,-1.36391 -0.82031,-2.12891 -0.12381,-0.41037 -0.15569,-0.8372 -0.0977,-1.25195 0.058,-0.41475 0.20582,-0.8171 0.4375,-1.17773 0.85389,-0.68393 1.81715,-1.21825 2.84961,-1.58005 3.41,-1.65 6.86016,-3.3988 10.41016,-4.7188 1.76932,-0.5936 3.59019,-1.0203 5.43945,-1.2715 2.095,-0.345 4.15992,-0.7511 6.23242,-0.9824 1.03625,-0.1156 2.07446,-0.1879 3.11914,-0.1855 1.04469,0 2.09571,0.078 3.15821,0.2578 1.3761,0.1522 2.7149,0.5051 3.97656,1.039 1.26166,0.534 2.44643,1.249 3.51367,2.1309 1.21353,1.1421 2.35561,2.3583 3.41992,3.6406 1.415,1.63002 2.45266,3.49307 3.50391,5.34182 1.05125,1.84875 2.11594,3.68281 3.58594,5.25781 0.735,0.7875 1.57273,1.45828 2.47851,2.03907 0.90578,0.58078 1.87946,1.07132 2.89258,1.50195 2.02625,0.86125 4.2043,1.48008 6.2793,2.08008 1.99462,0.43488 3.93704,1.08482 5.79101,1.93945 0.66,0.37 0.61977,0.41 0.75977,1 0.14,0.595 0.2239,1.03031 0.44141,1.32031 0.2175,0.29 0.56828,0.43422 1.23828,0.44922 0.89801,0.0133 1.79552,-0.0228 2.68945,-0.10937 2.53661,-0.14332 5.08171,-0.0959 7.61133,0.14062 1.76252,0.0323 3.51969,0.15914 5.26562,0.38281 1.74594,0.22367 3.47962,0.54396 5.19336,0.95703 1.09586,0.36663 2.16169,0.81259 3.18946,1.33399 1.02776,0.5214 2.01785,1.1174 2.96093,1.78516 1.00753,0.54826 1.95755,1.18913 2.83985,1.91406 0.88229,0.72492 1.6964,1.53397 2.42968,2.41601 0.94494,1.46001 1.8064,2.97174 2.58008,4.5293 0.43,0.745 1.15328,1.6468 1.76953,2.5918 0.30813,0.4725 0.58977,0.95625 0.79493,1.4375 0.20515,0.48125 0.33343,0.95937 0.33593,1.42187 -0.12378,0.99321 -0.40069,1.96045 -0.82031,2.86914 -0.42366,1.18774 -0.71455,2.41839 -0.86914,3.66993 -0.14,1.335 -0.036,2.6864 0.11523,4.03515 0.15125,1.34875 0.34954,2.69539 0.39453,4.02539 0.085,2.305 -0.13296,4.80547 -0.0742,7.26172 0.0294,1.22813 0.12734,2.44469 0.36718,3.62109 0.23985,1.17641 0.6218,2.31196 1.2168,3.37696 0.59,1.055 1.3575,1.96328 2.09375,2.89453 0.73625,0.93125 1.44125,1.88516 1.90625,3.03516 0.465,1.14999 0.60469,2.42328 0.77344,3.70703 0.16875,1.28375 0.36531,2.57843 0.94531,3.77343 0.435,0.895 1.18539,1.73461 1.86914,2.59961 0.68375,0.865 1.30266,1.755 1.47266,2.75 0.02,0.53601 -0.0491,1.06734 -0.20117,1.57422 -0.15206,0.50688 -0.38746,0.98931 -0.69922,1.42578 -0.2953,0.76571 -0.81898,1.42291 -1.5,1.88086 -1.37,0.72 -3.13008,0.87946 -4.58008,1.43946 -2.44,0.94 -4.84125,2.00109 -7.28125,2.87109 -1.19144,0.37681 -2.44329,0.52244 -3.68945,0.42969 -1.1396,0.0624 -2.27514,0.18813 -3.40039,0.3789 -0.97,0.0925 -2.03047,0.20219 -3.11329,0.25 -1.08281,0.0478 -2.18789,0.0341 -3.24414,-0.11718 -1.05625,-0.15125 -2.06476,-0.44063 -2.95507,-0.94532 -0.89032,-0.50468 -1.6611,-1.22383 -2.2461,-2.23633 -1.1936,-2.40091 -2.19669,-4.89309 -3,-7.45117 -0.34,-0.89 -0.79742,-1.76937 -1.16992,-2.67187 -0.3725,-0.9025 -0.66016,-1.82664 -0.66016,-2.80664 0,-0.815 0.20586,-1.6911 0.31836,-2.5586 0.1125,-0.8675 0.13,-1.72672 -0.25,-2.51172 -0.315,-0.65499 -0.79429,-1.12242 -1.34179,-1.51367 -0.5475,-0.39125 -1.16305,-0.70664 -1.74805,-1.05664 -1.045,-0.63 -1.95375,-1.40562 -2.84375,-2.20312 -0.89,-0.7975 -1.75961,-1.61789 -2.72461,-2.33789 -0.75664,-0.49576 -1.44635,-1.08233 -2.05274,-1.74414 -0.60638,-0.66181 -1.13074,-1.39832 -1.55859,-2.19532 -0.345,-0.72 -0.535,-1.52164 -0.8125,-2.27539 -0.2775,-0.75375 -0.64289,-1.45937 -1.33789,-1.98437 -0.5,-0.3825 -1.09328,-0.58156 -1.73437,-0.65235 -0.6411,-0.0708 -1.32875,-0.0136 -2.01563,0.11329 -1.37375,0.25375 -2.74351,0.78843 -3.72852,1.14843 -2.95013,1.08946 -5.95405,2.0279 -9,2.81055 -1.83238,0.54471 -3.72954,0.8446 -5.64062,0.89062 -1.73043,-0.14103 -3.42273,-0.58495 -5,-1.31054 -1.38486,-0.54143 -2.65205,-1.34543 -3.73047,-2.36914 -0.645,-0.635 -1.16008,-1.33883 -1.70508,-2.01758 -0.545,-0.67875 -1.11976,-1.33305 -1.88476,-1.87305 -0.62,-0.44 -1.2418,-0.76703 -1.86914,-0.99219 -0.62735,-0.22515 -1.25907,-0.34828 -1.89844,-0.3789 -1.27875,-0.0613 -2.58641,0.24484 -3.94141,0.83984 -1.07,0.5 -2.19406,1.05828 -3.35156,1.42578 -0.57875,0.18375 -1.1657,0.3211 -1.75976,0.37891 -0.59407,0.0578 -1.19383,0.0362 -1.79883,-0.0937 -0.35586,-0.1587 -0.74313,-0.206 -1.11328,-0.15039 -0.37016,0.0556 -0.72407,0.21444 -1.01758,0.4707 -1.35446,1.05435 -2.53008,2.32068 -3.48047,3.75 -0.84918,1.01993 -1.4842,2.19864 -1.86914,3.46875 -0.195,0.75 -0.28836,1.48766 -0.29492,2.21094 -0.007,0.72328 0.0734,1.43273 0.22461,2.13086 0.3025,1.39625 0.89062,2.74383 1.64062,4.04883 0.7133,1.1334 1.50768,2.21343 2.37891,3.23047 0.34619,0.36607 0.62702,0.78888 0.83008,1.25 0.12153,0.57325 0.13166,1.15955 0.0332,1.72656 -0.0985,0.56701 -0.30558,1.11457 -0.61328,1.61328 -0.6553,0.96285 -1.40808,1.85092 -2.2461,2.65039 -0.83802,0.79947 -1.76129,1.50988 -2.7539,2.11914 -1.51162,1.08142 -3.15757,1.96031 -4.89844,2.61133 -1.38495,0.45578 -2.73227,1.015 -4.0293,1.67187 -1.29702,0.65688 -2.54547,1.41108 -3.73242,2.25782 -1.365,0.955 -2.75406,2.01984 -4.00781,3.21484 -1.25375,1.195 -2.37141,2.51914 -3.19141,3.99414 -0.58858,0.91385 -0.99519,1.93233 -1.19922,3 -0.05,0.51 0.09,1.00102 0,1.54102 -0.055,0.47 -0.15781,0.83031 -0.19531,1.19531 -0.0375,0.365 -0.01,0.73461 0.19531,1.22461 0.42964,0.82273 0.91005,1.61654 1.43946,2.37891 0.25,0.39999 0.40773,0.83718 0.49023,1.29296 0.0825,0.45579 0.0902,0.93118 0.0352,1.4043 -0.11,0.94625 -0.46532,1.88883 -0.94532,2.67383 -0.91,1.465 -2.06281,2.73906 -3.25781,3.97656 -1.195,1.2375 -2.43172,2.43891 -3.51172,3.75391 l -2.46093,2.25976 c -1.045,1.205 -2.1075,2.40453 -3.0625,3.67578 -0.955,1.27125 -1.80297,2.61352 -2.41797,4.10352 -0.345,0.83 -0.50164,1.66766 -0.61914,2.50391 -0.1175,0.83625 -0.19586,1.67109 -0.38086,2.49609 -0.1475,0.6975 -0.38328,1.32297 -0.6875,1.89453 -0.30422,0.57156 -0.67578,1.08852 -1.09766,1.57227 -0.84375,0.9675 -1.88484,1.79758 -2.96484,2.64258 -1.79946,1.44655 -3.71458,2.7421 -5.72852,3.87109 -0.97886,0.37732 -1.91034,0.8696 -2.77148,1.46875 -1.02227,0.89898 -1.98616,1.86171 -2.88868,2.88086 -1.45995,1.48877 -2.70925,3.17119 -3.71093,5 -0.75,1.47 -1.34,2.99906 -2,4.53906 -1.27969,3.15245 -2.72831,6.23406 -4.33985,9.23047 -0.53,1 -1.23523,1.86039 -1.99023,2.68164 -0.755,0.82125 -1.55906,1.60422 -2.28906,2.44922 -0.645,0.745 -1.56321,1.72891 -2.37696,2.78515 -0.81375,1.05625 -1.5239,2.18485 -1.7539,3.21485 -0.095,0.91421 -0.095,1.83579 0,2.75 0,1.93 -0.28055,3.83976 -0.31055,5.75976 -0.0891,0.587 -0.0774,1.17963 0.0273,1.75586 0.10478,0.57624 0.30375,1.13624 0.59375,1.6543 0.31,0.4325 0.68914,0.73578 1.11133,0.96094 0.42219,0.22515 0.88789,0.37156 1.36914,0.49219 0.9625,0.24125 1.98914,0.3764 2.86914,0.8164 0.88,0.44 1.52422,1.07578 2.07422,1.80078 0.55,0.725 1.00586,1.53985 1.50586,2.33985 1.39739,2.18646 2.68688,4.43863 3.86328,6.74804 1.1764,2.30942 2.24049,4.67592 3.1875,7.0918 1.33472,3.54663 2.39445,7.19112 3.16992,10.90039 0.82144,3.14969 1.33623,6.37042 1.53907,9.61914 0.162,0.63236 0.14737,1.28423 -0.0254,1.89063 -0.17277,0.6064 -0.50366,1.1671 -0.97461,1.61914 -1.09921,0.90826 -2.3472,1.61842 -3.68946,2.09961 -1.82292,0.82404 -3.74665,1.40612 -5.7207,1.73047 -1,0.15 -1.85297,0.20968 -2.66797,0.36718 -0.815,0.1575 -1.5914,0.41313 -2.4414,0.95313 -1.55722,1.04448 -3.02687,2.21033 -4.39454,3.48437 -1.36766,1.27404 -2.63304,2.65541 -3.78515,4.13477 -0.81424,0.99732 -1.51829,2.07707 -2.10156,3.2168 -0.58328,1.13972 -1.04624,2.34021 -1.37891,3.58398 -0.57,2 -1.19953,3.90914 -1.76953,5.86914 -0.31296,0.79563 -0.54654,1.61964 -0.69727,2.45703 -0.15073,0.83739 -0.219,1.68815 -0.20312,2.54297 0.05,0.48 0.22094,0.88344 0.45703,1.24609 0.23609,0.36266 0.53773,0.68524 0.84961,1.00586 0.62375,0.64125 1.28773,1.27422 1.55273,2.19922 0.22,0.7725 0.28805,1.57391 0.25196,2.38672 -0.0361,0.81281 -0.17672,1.63633 -0.3711,2.45508 -0.38875,1.6375 -0.99468,3.25203 -1.42969,4.70703 -0.63226,2.29569 -1.39757,4.55217 -2.28906,6.75586 -0.89149,2.20369 -1.90901,4.35575 -3.05078,6.44531 -0.86618,1.55527 -1.80964,3.06527 -2.82422,4.52539 -1.01458,1.46013 -2.10036,2.87038 -3.25586,4.22461 -2.14,2.46 -4.45976,4.74 -6.75976,7 -1.19335,1.4227 -2.60573,2.64673 -4.18164,3.62891 -0.46021,0.20777 -0.95459,0.32809 -1.45899,0.35156 -0.84841,0.25804 -1.66127,0.62092 -2.41992,1.08008 -2.16,1.07 -4.33953,2.10891 -6.51953,3.12891 -1.935,0.895 -3.93648,1.87273 -5.99024,2.70898 -2.05375,0.83625 -4.16054,1.53133 -6.31054,1.86133 -0.82,0.13 -2.0382,0.39742 -3.2207,0.45117 -0.59126,0.0269 -1.17368,8.6e-4 -1.69336,-0.12305 -0.51969,-0.1239 -0.97641,-0.34648 -1.31641,-0.70898 -1.15,-1.21 -1.68977,-2.99828 -2.75977,-4.23828 -0.87278,-1.09973 -1.95295,-2.0183 -3.17968,-2.70117 -0.95,-0.52 -1.99969,-0.83961 -2.92969,-1.34961 -0.36923,-0.13894 -0.67349,-0.38885 -0.87891,-0.70313 -0.20542,-0.31428 -0.31193,-0.69394 -0.29101,-1.08789 -0.055,-0.57 0.11117,-1.14 0.35742,-1.6875 0.24625,-0.5475 0.57203,-1.07078 0.83203,-1.55078 1.27,-2.32 2.83906,-4.44063 4.28906,-6.64063 0.9358,-1.34863 1.68343,-2.82001 2.22071,-4.37109 0.61855,-1.54712 1.38647,-3.0304 2.29101,-4.42969 0.88,-1.61 1.36922,-3.4 2.19922,-5 1.055,-2.06 1.95008,-4.18226 2.79883,-6.32226 0.84875,-2.14 1.65148,-4.29774 2.52148,-6.42774 0.5,-1.225 1.18656,-2.51289 1.72657,-3.83789 0.27,-0.6625 0.50382,-1.33359 0.6582,-2.01172 0.15437,-0.67812 0.23054,-1.36328 0.18554,-2.05078 -0.06,-0.86 -0.48906,-1.69851 -1.03906,-2.47851 -0.55,-0.78 -1.22148,-1.5011 -1.77148,-2.1211 -0.80555,-0.85437 -1.40702,-1.87999 -1.75977,-3 -0.15178,-0.68363 -0.36343,-1.3528 -0.63086,-2 -0.39446,-0.68563 -0.91404,-1.28087 -1.52539,-1.75976 -0.61135,-0.47889 -1.31408,-0.84174 -2.07422,-1.06055 -0.605,-0.21 -1.3557,-0.33641 -1.9707,-0.59766 -0.3075,-0.13062 -0.58016,-0.295 -0.78516,-0.51953 -0.205,-0.22453 -0.34054,-0.51031 -0.37304,-0.88281 -0.05,-0.67 0.0909,-1.31641 0.21094,-1.97266 0.12,-0.65625 0.21812,-1.32234 0.0781,-2.02734 -0.125,-0.64625 -0.33129,-1.14988 -0.60156,-1.54102 -0.27028,-0.39113 -0.60469,-0.66984 -0.98828,-0.85937 -0.76719,-0.37906 -1.72907,-0.40703 -2.75782,-0.30078 -1.02875,0.10625 -2.12351,0.34828 -3.1582,0.51172 -1.03469,0.16343 -2.00992,0.24851 -2.79492,0.041 -0.16,-0.42 0.17062,-0.95031 -0.10938,-1.32031 -0.25,-0.325 -0.8475,-0.34133 -1.4375,-0.26758 -0.59,0.0738 -1.17257,0.23758 -1.39257,0.26758 -2.47375,0.51065 -4.97723,0.83927 -7.49219,0.98633 -2.51497,0.14705 -5.04024,0.11144 -7.55664,-0.10742 -1.32,-0.155 -2.69602,-0.5036 -3.94727,-1.08985 -0.62562,-0.29312 -1.22031,-0.64609 -1.76172,-1.0625 -0.5414,-0.4164 -1.0289,-0.89726 -1.4414,-1.44726 -0.5446,-0.7525 -1.01677,-1.55167 -1.41016,-2.38867 -0.39339,-0.83701 -0.70761,-1.71184 -0.93945,-2.61133 -0.07,-0.25 -0.0702,-1.37813 0.0723,-2.48438 0.0713,-0.55312 0.17657,-1.09914 0.32813,-1.52929 0.15156,-0.43016 0.34961,-0.74368 0.59961,-0.82618 0.5,-0.165 0.99984,-0.66414 1.30859,-1.21289 0.30875,-0.54875 0.42516,-1.14781 0.16016,-1.50781 -0.37511,-0.492 -0.70955,-1.01232 -1,-1.55859 -0.52086,-1.09374 -1.29945,-2.04588 -2.26953,-2.77149 -0.7,-0.445 -1.6211,-0.61109 -2.5586,-0.68359 -0.9375,-0.0725 -1.89211,-0.0502 -2.66211,-0.11524 -1.035,-0.08 -2.15695,-0.1296 -3.25195,-0.28711 -1.095,-0.1575 -2.16289,-0.42359 -3.08789,-0.93359 -1.04905,-0.62589 -1.98496,-1.42304 -2.76953,-2.35937 -0.53959,-0.6284 -1.15241,-1.18458 -1.82422,-1.65821 -0.67181,-0.47362 -1.40262,-0.86502 -2.17578,-1.16211 -0.965,-0.33 -2.00914,-0.40437 -3.05664,-0.35937 -1.0475,0.045 -2.09922,0.20937 -3.074221,0.35937 -2.16,0.3 -4.34929,0.87 -6.52929,1 -0.67254,-0.0118 -1.34234,-0.0893 -2,-0.23046 -0.335,-0.0225 -0.64805,0.13078 -0.93555,0.38671 -0.2875,0.25594 -0.5493,0.61461 -0.7793,1.00586 -0.46,0.7825 -0.79484,1.69321 -0.96484,2.15821 -0.79629,2.55309 -1.35525,5.17426 -1.66992,7.83007 -0.75,4.5 -0.99946,9.08883 -1.93946,13.54883 -0.14913,0.95696 -0.41892,1.88792 -0.79687,2.77149 -0.37795,0.88356 -0.86407,1.72145 -1.45312,2.49023 -2.73869,3.27026 -5.72043,6.3274 -8.91992,9.14844 -3.09759,3.02322 -6.4029,5.82731 -9.89063,8.39062 -1.92338,1.4658 -3.97226,2.76183 -6.12109,3.8711 -0.335,0.16 -0.98883,0.50203 -1.67383,0.73828 -0.685,0.23625 -1.40047,0.36656 -1.85547,0.10156 -0.295,-0.175 -0.42461,-0.32883 -0.50586,-0.51758 -0.0813,-0.18875 -0.11484,-0.41242 -0.21484,-0.73242 -0.19,-0.61 -0.38953,-1.29242 -0.67578,-1.91992 -0.28626,-0.6275 -0.65836,-1.2018 -1.19336,-1.5918 -0.93,-0.675 -1.92946,-1.11851 -2.90821,-1.60351 -0.97875,-0.485 -1.93625,-1.01071 -2.78125,-1.84571 -0.845,-0.835 -1.55851,-1.83406 -2.29101,-2.82031 -0.7325,-0.98625 -1.48516,-1.96023 -2.41016,-2.74023 -1.04132,-0.86103 -2.21957,-1.5175 -3.47656,-1.95118 -1.25699,-0.43367 -2.59264,-0.64316 -3.94336,-0.60742 -0.825,0 -1.66492,0.0813 -2.48242,0.0488 -0.8175,-0.0325 -1.61266,-0.17867 -2.34766,-0.63867 -0.535,-0.34 -0.90133,-0.72797 -1.29883,-1.07422 -0.3975,-0.34625 -0.82547,-0.65117 -1.48047,-0.82617 -0.855,-0.225 -1.68507,-0.25359 -2.51757,-0.24609 -0.8325,0.007 -1.66821,0.0498 -2.53321,-0.0352 -0.72448,-0.0321 -1.44005,-0.16201 -2.1289,-0.38867 -0.6184,-0.35211 -1.18367,-0.79054 -1.67969,-1.30078 -0.7377,-0.62228 -1.57156,-1.1091 -2.46094,-1.44727 -0.88938,-0.33817 -1.836,-0.52768 -2.80078,-0.55273 -2.5626198,0.1374 -5.0958998,0.6052 -7.5390598,1.39062 -0.47,0.125 -0.82516,0.125 -1.03516,-0.0312 -0.21,-0.15625 -0.27406,-0.46875 -0.16406,-0.96875 0.24162,-0.70493 0.19748,-1.47672 -0.1211,-2.15039 -0.4394,-0.60814 -0.77713,-1.2836 -1,-2 -0.06,-0.74212 -0.06,-1.48835 0,-2.23047 0,-0.715 0.10602,-1.64656 0.0723,-2.53906 -0.0169,-0.44625 -0.0688,-0.88328 -0.18555,-1.27735 -0.11672,-0.39406 -0.29867,-0.74593 -0.57617002,-1.02343 l -0.39058,-0.32035 25.58398982,-59.35938 36.63671,-85 L 54.156239,324.2028 43.791009,212.8181 184.22068,55.448897 c 2.06332,0.4495 4.15096,0.7686 6.25,0.959 2.09904,0.1904 4.2098,0.2506 6.32031,0.1797 1.315,0 3.12446,-0.2154 4.90821,-0.2129 0.89187,0 1.77625,0.059 2.58984,0.2226 0.8136,0.1641 1.55711,0.4361 2.16211,0.8711 0.645,0.47 1.10242,1.1066 1.54492,1.7578 0.4425,0.6513 0.87008,1.3168 1.45508,1.8418 0.9,0.795 1.95078,1.2599 3.05078,1.6211 1.1,0.3613 2.24789,0.6181 3.33789,0.9981 1.52142,0.4886 2.95638,1.1932 4.26172,2.0859 1.30535,0.8927 2.48108,1.9743 3.48828,3.2149 0.43328,0.6551 0.98975,1.2105 1.62891,1.6406 0.63916,0.4301 1.36078,0.7341 2.13086,0.8887 0.7225,0.115 1.46633,0.1113 2.20898,0.014 0.74266,-0.098 1.48586,-0.2893 2.20899,-0.5449 1.44625,-0.5112 2.81336,-1.2826 3.94336,-2.0976 0.535,-0.385 1.37,-0.9577 2.09375,-1.629 0.36187,-0.3356 0.69633,-0.6964 0.95117,-1.0703 0.25484,-0.3739 0.42961,-0.7604 0.47461,-1.1504 0.13,-1.135 0.36164,-2.82 0.30664,-4.4238 -0.0275,-0.8019 -0.1257,-1.5833 -0.3457,-2.2656 -0.22,-0.6824 -0.56032,-1.2669 -1.07032,-1.6719 -0.775,-0.615 -1.57007,-0.9245 -2.33008,-1.3008 -0.76,-0.3762 -1.48609,-0.8192 -2.12109,-1.6992 -0.3625,-0.5175 -0.6114,-1.0158 -0.76562,-1.5058 -0.15422,-0.49 -0.21344,-0.9721 -0.19532,-1.4571 0.0362,-0.97 0.38063,-1.9521 0.89063,-3.0371 0.405,-0.8475 0.80695,-1.5477 1.23633,-2.1308 0.42937,-0.5832 0.88625,-1.0483 1.40625,-1.4258 0.52,-0.3775 1.10242,-0.6678 1.77929,-0.8985 0.67688,-0.2306 1.44961,-0.4024 2.34961,-0.5449 2.39,-0.37 4.78844,-0.8491 7.14844,-1.3691 0.65,-0.145 1.40078,-0.2744 2.11328,-0.4844 0.7125,-0.21 1.38672,-0.5018 1.88672,-0.9668 0.64,-0.565 1.19688,-1.3039 1.67188,-2.1445 0.475,-0.8407 0.86859,-1.782 1.18359,-2.752 0.63,-1.94 0.94484,-3.9922 0.96484,-5.5722 0,-1.465 -0.1914,-2.7626 -0.72265,-3.8614 -0.26563,-0.5493 -0.61703,-1.05 -1.07032,-1.4961 -0.45328,-0.4461 -1.00804,-0.8388 -1.68554,-1.1738 -0.57,-0.285 -1.47157,-0.4411 -2.32032,-0.6836 -0.42437,-0.1212 -0.83445,-0.2648 -1.18554,-0.4551 -0.3511,-0.1903 -0.64172,-0.4277 -0.82422,-0.7402 0.265,-0.575 0.5775,-1.3248 0.96875,-2.0098 0.39125,-0.685 0.85945,-1.3061 1.43945,-1.6211 0.76017,-0.2837 1.57015,-0.4117 2.38086,-0.3789 2.625,-0.295 5.62586,-0.9247 8.53711,-1.041 1.45563,-0.058 2.88891,0.012 4.24219,0.3164 1.35328,0.3049 2.62672,0.8446 3.76172,1.7246 1.22,1 1.64937,2.4995 2.85937,3.4395 0.79,0.62 1.74977,0.8693 2.50977,1.5293 0.4875,0.425 0.76328,0.8464 0.91015,1.2695 0.14688,0.4231 0.16563,0.8496 0.14063,1.2871 -0.05,0.875 -0.275,1.7942 0,2.8242 0.25,0.93 0.87469,1.876 1.72656,2.75 0.85188,0.8741 1.93039,1.6772 3.08789,2.3184 1.1575,0.6413 2.39367,1.12 3.56055,1.3516 1.16687,0.2315 2.26453,0.2143 3.14453,-0.1407 0.97,-0.3975 1.89125,-0.9712 2.76953,-1.6562 0.87828,-0.685 1.71274,-1.4798 2.50586,-2.3223 1.58625,-1.685 3.00992,-3.5568 4.29492,-5.0918 2.35248,-2.6779 4.53868,-5.4959 6.54883,-8.4394 0.69436,-1.0075 1.28783,-2.0765 1.77344,-3.1934 0.4856,-1.1169 0.86373,-2.2816 1.12695,-3.4765 0.11002,-1.5947997 0.11002,-3.1942997 0,-4.7890997 0,-0.835 -0.28289,-1.8966 -0.30664,-2.8203 -0.0119,-0.4619 0.0414,-0.8897 0.22656,-1.2383 0.18516,-0.3486 0.50204,-0.61669999 1.01954,-0.76169999 1.12999,-0.315 2.53781,-0.3497 3.94531,-0.2735 z"
     style="fill:none;stroke:#231f20;stroke-linecap:round;stroke-linejoin:round;stroke-opacity:1;paint-order:fill markers stroke" />
  <path
     d="m 99.189529,327.70881 c 0,-0.87 -0.10993,-2.12992 -0.16993,-3.66992 -0.11,-2.97 -0.13921,-4.68989 -0.10546,-5.79489 0.0337,-1.105 0.13039,-1.5955 0.27539,-2.1055 0.28044,-0.9009 0.65386,-1.7685 1.111321,-2.5879 0.45746,-0.8194 0.99945,-1.5912 1.61914,-2.3027 0.74904,-0.9704 1.57366,-1.8769 2.46485,-2.7129 0.89118,-0.836 1.84901,-1.6015 2.86523,-2.2871 1,-0.65 1.65289,-0.9556 2.15039,-1.2344 0.4975,-0.2787 0.8407,-0.5312 1.2207,-1.0762 0.25,-0.36 0.40492,-0.6843 0.54492,-1.3906 0.14001,-0.7062 0.26508,-1.7927 0.45508,-3.6777 0.23,-2.325 0.3318,-3.5957 0.3418,-4.3594 0.01,-0.7638 -0.0729,-1.0223 -0.21289,-1.3223 -0.33,-0.69 -0.69383,-1.0014 -1.20508,-1.4101 -0.51125,-0.4088 -1.16898,-0.9133 -2.08398,-1.9883 -0.86657,-1.0036 -1.60956,-2.1093 -2.21094,-3.291 -0.155,-0.32 -0.48633,-1.0695 -0.67383,-2.4395 -0.0937,-0.685 -0.15187,-1.5261 -0.13281,-2.5449 0.0191,-1.0187 0.11367,-2.2152 0.32617,-3.6152 0.35,-2.335 0.75086,-3.4326 1.13086,-4.4551 0.38,-1.0225 0.73977,-1.9709 1.00977,-4.0059 0.32256,-2.8219 0.37318,-5.6684 0.15039,-8.5 -0.115,-2.125 -0.30008,-3.4917 -0.33008,-4.5117 -0.03,-1.02 0.0946,-1.6927 0.59961,-2.4277 0.54691,-0.7161 1.17852,-1.3581 1.8789,-1.9141 0.70039,-0.5559 1.46946,-1.0263 2.29102,-1.3965 0.47,-0.215 1.02883,-0.4218 1.48633,-0.6855 0.4575,-0.2638 0.81476,-0.5834 0.88476,-1.0234 0.06,-0.36 -0.13054,-2.191 -0.0605,-2.711 0.0576,-0.6683 0.23985,-1.3196 0.53906,-1.9199 0.25,-0.5 0.5332,-0.8488 0.93945,-1.2363 0.40625,-0.3875 0.93664,-0.8129 1.68164,-1.4629 0.9902,-0.7433 1.87851,-1.6141 2.64063,-2.5899 0.36,-0.645 0.44367,-1.1456 0.48242,-1.7031 0.0388,-0.5575 0.032,-1.1719 0.20703,-2.0469 0.15,-0.715 0.3993,-1.3381 0.7793,-2.0468 0.38,-0.7088 0.89054,-1.5025 1.56054,-2.5625 0.945,-1.475 1.6568,-2.5869 2.37305,-3.4844 0.71625,-0.8975 1.43649,-1.582 2.39649,-2.207 1.44295,-0.8917 3.0364,-1.5149 4.70117,-1.8399 1.43,-0.345 2.28062,-0.3687 3.04687,-0.4062 0.76625,-0.038 1.44625,-0.089 2.53125,-0.4844 1.60642,-0.6209 3.08582,-1.5323 4.36133,-2.6895 1.21234,-1.0237 2.33569,-2.147 3.35938,-3.3593 0.53,-0.6 1.12109,-1.3301 1.12109,-1.3301 v -20.1992 c 0.60544,-1.1064 1.06504,-2.2878 1.36914,-3.5118 0.16,-0.74 0.21039,-1.324 0.30664,-1.8828 0.0963,-0.5587 0.23899,-1.0915 0.58398,-1.7265 0.55001,-1 0.8593,-0.8595 1.2793,-1.6895 0.365,-0.72 0.41164,-1.3576 0.36914,-2.0488 -0.0425,-0.6913 -0.17492,-1.4361 -0.16992,-2.3711 0.10334,-1.6361 0.48637,-3.2426 1.13086,-4.75 0.56,-1.625 1.00461,-2.4056 1.41211,-3.0918 0.4075,-0.6863 0.7775,-1.2793 1.1875,-2.5293 0.33062,-1.1361 0.56967,-2.2945 0.7168,-3.4648 0.14712,-1.1704 0.20319,-2.3526 0.16406,-3.5352 0.04,-1.73 -0.0533,-2.7788 -0.082,-3.6426 -0.0288,-0.8637 0.006,-1.5423 0.30078,-2.5273 0.3,-1 0.70062,-1.7687 2.39062,-4.1387 1.625,-2.29 2.84461,-4.0087 3.84961,-5.2637 1.005,-1.255 1.79555,-2.0463 2.56055,-2.4863 0.46647,-0.2386 0.94341,-0.4529 1.42969,-0.6406 0.92483,-0.357 1.8827,-0.6213 2.85742,-0.7891 0.97472,-0.1678 1.96677,-0.2387 2.96289,-0.2109 1.72,-0.04 2.78164,0.178 3.71289,0.3105 0.93125,0.1325 1.73274,0.1789 2.92773,-0.2011 0.91812,-0.3523 1.79059,-0.8019 2.60547,-1.3418 0.81489,-0.5399 1.57157,-1.1689 2.25391,-1.877 0.83,-0.73 1.45336,-1.2774 1.94336,-1.7949 0.49,-0.5175 0.84648,-1.0052 1.14648,-1.6153 0.425,-0.8799 0.63735,-1.7771 0.71485,-2.6289 0.0775,-0.8517 0.0213,-1.6589 -0.0937,-2.3632 -0.23,-1.4088 -0.69172,-2.4028 -0.76172,-2.5079 -0.435,-0.905 -0.83969,-1.3278 -1.24219,-1.7578 -0.4025,-0.43 -0.80156,-0.8677 -1.22656,-1.8027 -0.37501,-0.8843 -0.62524,-1.8121 -0.74805,-2.7559 -0.1228,-0.9437 -0.11865,-1.9027 0.0176,-2.8535 0.1025,-1.03 0.31992,-1.9834 0.61523,-2.8672 0.29532,-0.8837 0.66774,-1.6981 1.08399,-2.4531 0.8325,-1.51 1.8357,-2.7808 2.7207,-3.8808 0.72852,-0.9695 1.53337,-1.8768 2.40625,-2.7129 0.87289,-0.8361 1.81451,-1.601 2.81445,-2.2871 1.43001,-0.96 2.53126,-1.4293 3.4375,-1.8868 0.90625,-0.4575 1.61672,-0.9025 2.26172,-1.8125 0.645,-0.91 0.9393,-1.9106 1.06055,-2.9218 0.12125,-1.011303 0.0695,-2.033303 0.0195,-2.988303 -0.2,-3.72 -0.38047,-8.371 -0.48047,-14.791"
     style="fill:none;stroke:#231f20;stroke-linecap:round;stroke-linejoin:round;stroke-opacity:1;paint-order:fill markers stroke"
     id="rect872-0" />
  <path
     d="m 112.29108,473.57803 c -0.71999,0.12 -1.83046,0.31985 -3.23046,0.58985 -2.17,0.41 -3.38,0.69008 -4,0.83008 -1.125,0.2275 -2.00953,0.30679 -2.78516,0.30664 -0.77563,-1.6e-4 -1.44281,-0.0804 -2.13281,-0.16602 -0.690001,-0.0856 -1.403361,-0.17812 -2.271481,-0.20703 -0.86813,-0.0289 -1.89118,0.006 -3.20118,0.17578 -0.97056,0.20884 -1.95809,0.31445 -2.94531,0.31445 -0.98722,0 -1.9728,-0.10561 -2.94336,-0.31445 -0.89671,-0.16087 -1.71219,-0.62161 -2.31054,-1.30859 -0.31,-0.4 -0.47024,-0.82219 -0.55274,-1.33594 -0.0825,-0.51375 -0.0879,-1.11977 -0.0879,-1.88477 0,-3.89 0,-5.85 0.25,-6.5 0.46,-1.26 0.72055,-1.05062 2.56055,-4.14062 0.74995,-1.19339 1.41815,-2.43498 2,-3.71875 0.41,-0.9775 0.60758,-1.79117 0.69336,-2.50977 0.0858,-0.71859 0.0598,-1.34203 0.0254,-1.9414 -0.0344,-0.59938 -0.0788,-1.17508 -0.0293,-1.79492 0.0495,-0.61985 0.19375,-1.28446 0.53125,-2.06446 0.375,-0.865 0.67687,-1.14703 1.35937,-1.76953 0.6825,-0.6225 1.74563,-1.58555 3.64063,-3.81055 1,-1.21 1.76953,-2.12398 2.36328,-2.92773 0.59375,-0.80375 1.011641,-1.49672 1.306641,-2.26172 0.26,-0.69 0.50008,-1.52109 0.83008,-6.37109 0.38,-5.5 0.11937,-5.14 0.35937,-6 0.17,-0.585 0.3861,-1.06368 0.70703,-1.5293 0.32094,-0.46562 0.74719,-0.91781 1.33594,-1.44531 1.1775,-1.055 3.00703,-2.41469 5.95703,-4.80469 3.155,-2.555 4.90383,-4.12516 5.92383,-5.22266 1.02,-1.0975 1.30992,-1.72172 1.54492,-2.38672 0.25,-0.75 0.35125,-2.82999 0.53125,-7 0.25,-5.56 0.0806,-5.59062 0.39063,-6.39062 0.285,-0.75 0.6489,-1.30664 1.11718,-1.7793 0.46829,-0.47265 1.04071,-0.86172 1.73633,-1.27734 1.39125,-0.83125 3.28071,-1.76836 5.84571,-3.69336 1.545,-1.16 3.00797,-2.25953 4.29296,-3.51953 0.64251,-0.63 1.23938,-1.29961 1.78126,-2.03711 0.54187,-0.7375 1.02781,-1.54336 1.44531,-2.44336 0.295,-0.645 0.91625,-1.99711 1.25,-3.69336 0.16687,-0.84812 0.26164,-1.78328 0.20898,-2.75781 -0.0526,-0.97453 -0.25273,-1.98805 -0.67773,-2.99805 -0.2825,-0.675 -0.63344,-1.26734 -1.03906,-1.80078 -0.40563,-0.53344 -0.86751,-1.00797 -1.375,-1.44922 -1.015,-0.8825 -2.21282,-1.6314 -3.50782,-2.4414 -1.20398,-0.79363 -2.48831,-1.44606 -3.83008,-1.94922 -1.34176,-0.50317 -2.74097,-0.85707 -4.16992,-1.05078 -1.75,-0.22001 -2.7664,-0.0669 -3.7539,0.0469 -0.9875,0.11375 -1.94422,0.18945 -3.57422,-0.18555 -0.795,-0.18 -1.90844,-0.43148 -2.99219,-0.92773 -0.54188,-0.24813 -1.07633,-0.55789 -1.56055,-0.95117 -0.48422,-0.39328 -0.91781,-0.86868 -1.25781,-1.45118 -0.31,-0.5 -0.4725,-1.09507 -0.5625,-1.89257 -0.09,-0.7975 -0.10695,-1.79743 -0.12695,-3.10743 0,-3.31999 -0.0819,-5.00125 0.32812,-6.53124 0.27318,-1.02332 0.64891,-1.89663 1.06055,-2.66211 0.41164,-0.76549 0.86023,-1.4217 1.2793,-2.00782 0.41906,-0.58612 0.80808,-1.10266 1.10351,-1.58789 0.29543,-0.48522 0.49636,-0.93954 0.53711,-1.40234 0.025,-0.28345 -0.009,-0.57037 -0.11914,-0.86914 -0.17,-0.46 -0.39461,-0.61781 -0.72461,-0.85156 -0.33,-0.23375 -0.76547,-0.5436 -1.35547,-1.3086 -0.785,-1.025 -1.02031,-1.77406 -1.22656,-2.53906 -0.20625,-0.765 -0.38469,-1.54586 -1.05469,-2.63086 -0.51437,-0.84925 -1.15792,-1.60411 -1.90234,-2.24219 -0.74443,-0.63808 -1.58793,-1.15867 -2.50586,-1.53711 -1.09,-0.4 -1.2318,-0.15 -3.591801,-0.75 -1.32,-0.33 -2.08867,-0.62062 -3.63867,-1.14062 0,0 -1.75078,-0.58945 -5.30078,-1.68946 -1.345,-0.41999 -2.56969,-0.63898 -4.67969,-0.74023 -2.11,-0.10125 -5.10523,-0.086 -9.99023,-0.041 l -8.35938,0.0801 c -5.59,0.06 -10.16445,0.0754 -13.06445,0.0254"
     style="fill:none;stroke:#231f20;stroke-linecap:round;stroke-linejoin:round;stroke-opacity:1;paint-order:fill markers stroke"
     id="path917-6" />
  <path
     d="m 118.67976,511.85733 c -0.006,-0.018 -0.005,-0.0309 -0.0117,-0.0488 -2.24989,0.06 -5.36892,0.18052 -9.07813,0.0605 -3.895,-0.125 -6.38609,-0.39758 -8.74609,-0.61133 -2.360001,-0.21375 -4.588121,-0.36976 -7.953121,-0.25976 -3.07555,0.0821 -6.13933,0.41659 -9.16016,1 -3.79,0.78 -4.24914,1.33 -7.36914,2 -2.235,0.48 -3.42093,0.50289 -5.05468,0.46289 -1.63375,-0.04 -3.7161,-0.14211 -7.7461,0.0879 -3.615,0.215 -5.74234,0.52164 -7.40234,0.65039 -0.83,0.0644 -1.54383,0.0843 -2.26758,0.0254 -0.72375,-0.0589 -1.45758,-0.19727 -2.33008,-0.44727 -1.085,-0.31 -1.77945,-0.61812 -2.50195,-0.89062 -0.7225,-0.2725 -1.47297,-0.50797 -2.66797,-0.66797 -1.955,-0.26 -3.14305,-0.0589 -4.2168,0.12109 -0.53687,0.09 -1.0457,0.17524 -1.60742,0.19336 -0.56172,0.0181 -1.17578,-0.0301 -1.92578,-0.20508 -1.28663,-0.31396 -2.49356,-0.85869 -3.56641,-1.59765 -1.07284,-0.73896 -2.01169,-1.67152 -2.76367,-2.76172 -0.585,-0.955 -0.77047,-1.71344 -0.98047,-2.46094 -0.21,-0.7475 -0.4439,-1.48539 -1.1289,-2.40039 -0.52872,-0.6748 -1.15328,-1.25037 -1.84766,-1.72852 -0.69438,-0.47814 -1.45985,-0.85896 -2.26953,-1.14062"
     style="fill:none;stroke:#231f20;stroke-linecap:round;stroke-linejoin:round;stroke-opacity:1;paint-order:fill markers stroke"
     id="path915-7" />
  <path
     d="m 271.87132,427.71856 c -1.73092,0.14146 -3.5321,0.22009 -5.11148,0.30866 -2.095,0.105 -3.37399,0.13078 -4.24024,0.0508 -0.86625,-0.08 -1.31977,-0.26507 -1.75976,-0.58007 -0.38,-0.27 -0.19875,-0.2493 -2.21876,-2.7793 -1.69999,-2.13 -2.00078,-2.35125 -2.30078,-2.53125 -0.15,-0.09 -0.41476,-0.21906 -1.00976,-0.32031 -0.595,-0.10125 -1.52024,-0.17344 -2.99024,-0.14844 -1.6,0.03 -2.48257,0.14273 -3.08007,0.20898 -0.5975,0.0662 -0.90914,0.0847 -1.36915,-0.0703 -0.5,-0.1675 -0.92429,-0.45867 -1.2871,-0.83008 -0.36282,-0.3714 -0.66422,-0.82156 -0.91797,-1.30468 -0.5075,-0.96625 -0.82641,-2.06383 -1.06641,-2.92383 -0.405,-1.42 -0.62984,-2.83399 -0.68359,-5.17774 -0.0538,-2.34375 0.0637,-5.61867 0.34375,-10.76367 0.055,-1.025 0.11156,-1.97726 0.008,-2.82226 -0.10375,-0.84501 -0.36727,-1.58274 -0.94727,-2.17774 -0.47,-0.47 -1.06398,-0.73883 -1.89648,-0.92383 -0.8325,-0.185 -1.90422,-0.28601 -3.32422,-0.41601 -2,-0.175 -3.21219,-0.11969 -4.02344,-0.11719 -0.81125,0.002 -1.22023,-0.0466 -1.61523,-0.43164 -0.33,-0.3175 -0.46805,-0.68344 -0.49805,-1.12109 -0.03,-0.43766 0.0479,-0.94657 0.15039,-1.55469 0.1025,-0.60813 0.22938,-1.31563 0.29688,-2.14453 0.0675,-0.82891 0.0745,-1.78086 -0.0606,-2.88086 -0.085,-0.67 -0.23898,-1.91946 -0.70898,-3.25196 -0.235,-0.66625 -0.54954,-1.35273 -0.97266,-1.99804 -0.42312,-0.64532 -0.95445,-1.25 -1.62695,-1.75 -1.15965,-0.72728 -2.46926,-1.1821 -3.83008,-1.33008 -1.2975,-0.235 -2.39125,-0.31524 -3.35156,-0.31445 -0.96032,7.8e-4 -1.78844,0.0832 -2.55469,0.17382 -0.76625,0.0906 -1.47024,0.19008 -2.18555,0.22461 -0.71531,0.0345 -1.44054,0.003 -2.24805,-0.16406 -0.75,-0.1575 -1.36656,-0.39023 -1.92187,-0.69726 -0.55531,-0.30704 -1.05094,-0.68665 -1.55469,-1.13477 -1.0075,-0.89625 -2.05484,-2.06656 -3.71484,-3.47656 -1.97849,-1.64462 -4.12294,-3.06077 -6.39258,-4.24219 -2.26964,-1.18142 -4.66376,-2.1282 -7.13672,-2.83789 0.80242,1.71957 1.30952,3.56122 1.5,5.44922 0.07,0.855 0.12227,1.50828 0.10352,2.05078 -0.0187,0.5425 -0.10922,0.97367 -0.32422,1.38867 -0.19,0.36375 -0.43918,0.64584 -0.73828,0.86328 -0.2991,0.21744 -0.64672,0.37078 -1.03125,0.48242 -0.76906,0.22329 -1.68555,0.27524 -2.6543,0.31836 -0.96875,0.0431 -1.98969,0.0786 -2.96875,0.26563 -0.97906,0.18703 -1.9168,0.52664 -2.7168,1.18164 -0.5925,0.4875 -1.02203,1.14375 -1.32812,2 -0.3061,0.85625 -0.48766,1.91172 -0.58203,3.19922 -0.18875,2.575 -0.0303,6.075 0.17969,10.75 0.15499,3.4 0.41507,5.72726 0.48632,7.79101 0.0356,1.03188 0.0252,1.99891 -0.0703,3 -0.0955,1.0011 -0.27617,2.03649 -0.57617,3.20899 -0.61776,2.30073 -1.5058,4.51907 -2.64844,6.60937 -0.95,1.745 -1.8057,3.32047 -2.7832,4.63672 -0.48875,0.65813 -1.00875,1.25188 -1.58594,1.76953 -0.57719,0.51766 -1.21164,0.95946 -1.93164,1.31446 -0.545,0.2625 -1.0075,0.41328 -1.51562,0.48828 -0.50813,0.075 -1.06157,0.0738 -1.78907,0.0312 -1.455,-0.085 -3.60461,-0.33375 -7.47461,-0.46875 -2.62,-0.085 -4.60047,-0.14782 -6.26172,-0.10157 -1.66125,0.0462 -3.00461,0.20079 -4.3496,0.55079 -1,0.255 -2.12766,0.62984 -3.56641,1.37109 -1.43875,0.74125 -3.18859,1.84836 -5.43359,3.56836 -2.135,1.64 -3.93993,3.25258 -5.85743,5.20508 -1.9175,1.9525 -3.94625,4.24609 -6.53125,7.24609 -2.88,3.3625 -4.71359,5.59906 -5.97656,7.22266 -1.26297,1.62359 -1.95586,2.63359 -2.55273,3.54297 -1.19375,1.81875 -2.00719,3.23375 -6.24219,8.34375 -0.905,1.09 -2.14899,2.57117 -3.17774,4.41992 -0.51437,0.92437 -0.97578,1.94078 -1.3125,3.04687 -0.33671,1.1061 -0.54836,2.30149 -0.56836,3.58399 0.0164,1.27535 0.1843,2.54353 0.5,3.77929 0.83501,4.31 1.05407,6.60032 1.28907,9.07032 0.235,2.47 0.48586,5.12039 1.38086,10.15039 1.04,5.85 1.22867,5.21859 1.88867,9.55859 0.33,2.17 0.50648,3.74523 0.74023,5.17774 0.23112,1.41636 0.52554,2.6983 1.07813,4.27343 v 0 c 0.006,0.0179 0.005,0.0308 0.0117,0.0488 0.605,1.7 1.07992,3.04008 1.63867,4.11133 0.55875,1.07125 1.20258,1.875 2.14258,2.5 0.605,0.405 1.16648,0.62758 1.77929,0.73633 0.61282,0.10875 1.27579,0.10273 2.08204,0.0527 1.61249,-0.1 3.79882,-0.37906 7.29882,-0.28906 2.515,0.065 4.40219,0.11445 5.89844,0.3457 0.74813,0.11563 1.39844,0.27703 1.98047,0.50781 0.58203,0.23079 1.09531,0.53079 1.57031,0.92579 0.6225,0.5175 1.1218,1.11742 1.5293,1.79101 0.4075,0.6736 0.72297,1.42109 0.98047,2.23047 0.515,1.61875 0.79461,3.4893 1.09961,5.5293 0.29,2.50891 0.38437,5.03514 0.28125,7.55859 -0.05,7.67 -0.45985,8.13063 -0.33985,12.89063 0.10888,3.55424 0.44288,7.09738 1,10.60937 0.43,2.76 0.85907,5.01125 1.28907,6.78125"
     style="fill:none;stroke:#231f20;stroke-linecap:round;stroke-linejoin:round;stroke-opacity:1;paint-order:fill markers stroke"
     id="path913-4" />
  <path
     d="m 111.66999,340.43738 c 1.14416,0.88778 2.39495,1.60034 3.75,2.11133 1.225,0.46 2.03961,0.56745 2.88086,0.65625 0.84125,0.0888 1.70906,0.15797 3.03906,0.54297 2.05788,0.70947 4.02616,1.65944 5.86133,2.83007 3.61,2 3.2793,2.31055 4.7793,2.81055 1.2754,0.37422 2.59171,0.55231 3.90625,0.53711 1.31454,-0.0152 2.6281,-0.22341 3.89453,-0.62695 1.86901,-0.51571 3.64848,-1.31272 5.2793,-2.36133 1.84,-1.07 2.79476,-1.8993 3.66601,-2.62305 0.87125,-0.72375 1.65906,-1.34133 3.16406,-1.98633 1.61186,-0.62837 3.28896,-1.07455 5,-1.33007 1.845,-0.365 2.89,-0.43511 3.78125,-0.50391 0.89125,-0.0688 1.62938,-0.13609 2.85938,-0.49609 1.82711,-0.59125 3.56179,-1.43257 5.1582,-2.5 1.35575,-0.85602 2.55146,-1.87236 3.73047,-2.95899 l -6e-5,2e-5 c -0.0852,0.87126 -0.0437,1.74962 0.12109,2.60938 0.32919,0.84442 0.79739,1.62038 1.38086,2.29687 0.58348,0.67649 1.28144,1.2535 2.06836,1.70313 2.06382,1.17855 4.28167,2.06263 6.58985,2.6289 1.1281,0.32333 2.28163,0.53849 3.44531,0.64063 1.16368,0.10213 2.33868,0.0926 3.50586,-0.0293 1.53916,-0.18211 2.99424,-0.63697 4.45898,-1.06841 -0.18577,4.35724 -0.33087,8.64346 -0.41986,12.25784 -0.095,3.73 -0.11,5.85446 -0.0312,7.22071 0.0788,1.36625 0.25125,1.97492 0.53125,2.66992"
     style="fill:none;stroke:#231f20;stroke-linecap:round;stroke-linejoin:round;stroke-opacity:1;paint-order:fill markers stroke"
     id="path909-8" />
  <path
     d="m 214.58782,265.5758 1.4e-4,3e-4 c -0.94261,-1.3503 -1.64562,-2.8129 -2.2168,-4.3575 -0.49954,-1.4261 -0.8643,-2.8964 -1.08984,-4.3906 -0.445,-2.425 -0.78125,-4.2452 -0.90625,-5.6465 -0.125,-1.4012 -0.0395,-2.3828 0.35547,-3.1328 0.455,-0.87 0.95555,-1.2163 1.4668,-1.6113 0.51124,-0.395 1.0332,-0.8402 1.5332,-1.9102 0.335,-0.74 0.60812,-1.6742 0.67187,-2.5429 0.0319,-0.4344 0.0107,-0.8521 -0.0801,-1.2207 -0.0908,-0.3686 -0.25196,-0.6883 -0.50196,-0.9258 -0.59,-0.56 -1.15031,-0.1904 -2.07031,-0.9004 -0.37294,-0.2778 -0.67681,-0.6282 -0.89844,-1.0254 -0.22163,-0.3972 -0.35983,-0.8414 -0.40039,-1.3047 0,-0.62 0.26664,-1.0607 0.65039,-1.5019 0.38375,-0.4413 0.88461,-0.8831 1.34961,-1.4981 0.54,-0.7275 0.89188,-1.5448 1.10156,-2.3984 0.20969,-0.8536 0.27594,-1.7434 0.24219,-2.6153 -0.0675,-1.7437 -0.53469,-3.4159 -1.05469,-4.5859 -0.2176,-0.6162 -0.53295,-1.1865 -0.93164,-1.6934 -0.39869,-0.5068 -0.88009,-0.95 -1.42773,-1.3066 -0.63,-0.36 -1.11352,-0.4196 -1.54102,-0.4746 -0.4275,-0.055 -0.79898,-0.1053 -1.20898,-0.4453 -0.41,-0.34 -0.61235,-0.7201 -0.71485,-1.5176 -0.10249,-0.7975 -0.10523,-2.0115 -0.11523,-4.0215 0,-4.53 0.0795,-4.891 0.26953,-5.291 0.2675,-0.575 0.58102,-0.9698 0.92383,-1.2715 0.34281,-0.3017 0.71531,-0.509 1.10156,-0.7109 0.38625,-0.2019 0.78578,-0.3984 1.1836,-0.6738 0.39781,-0.2755 0.79437,-0.6299 1.17187,-1.1524 0.43,-0.6 0.7157,-1.2508 0.88867,-1.9746 0.17297,-0.7237 0.23266,-1.5216 0.20703,-2.4141 -0.0513,-1.785 -0.44054,-3.9516 -0.93554,-6.6816 -0.31089,-1.8387 -0.79759,-3.6441 -1.45117,-5.3906 -0.32618,-1.0587 -0.76779,-2.0754 -1.31446,-3.0313 -0.54666,-0.9558 -1.19816,-1.85 -1.94531,-2.6679 -0.73387,-0.9411 -1.70845,-1.6682 -2.82031,-2.1016 -0.6975,-0.21 -1.32485,-0.1891 -1.96875,-0.01 -0.64391,0.1794 -1.30328,0.5178 -2.06641,0.9453 -0.76312,0.4275 -1.63039,0.9442 -2.68555,1.4785 -1.05515,0.5344 -2.29835,1.086 -3.81836,1.586 -1.78,0.59 -3.03039,0.8152 -3.93164,0.8652 -0.90125,0.05 -1.45484,-0.074 -1.83984,-0.1836 -0.8946,-0.2675 -1.71687,-0.7093 -2.42578,-1.2891 -0.70891,-0.5797 -1.3044,-1.2974 -1.74414,-2.1211 -0.105,-0.23 -0.22094,-0.5307 -0.27344,-1.3945 -0.0525,-0.8637 -0.0417,-2.2904 0.11328,-4.7754 0.115,-1.85 0.22836,-2.9986 0.22461,-3.8261 -0.004,-0.8275 -0.12461,-1.3343 -0.47461,-1.9043 -0.7073,-0.9906 -1.67119,-1.7686 -2.78906,-2.25 -0.785,-0.36 -1.33977,-0.4436 -1.85352,-0.5411 -0.51375,-0.098 -0.98742,-0.2089 -1.60742,-0.6289 -0.8618,-0.6009 -1.53161,-1.4378 -1.92968,-2.4101 -0.205,-0.5 -0.27625,-0.9221 -0.28126,-1.5371 -0.005,-0.615 0.0561,-1.4234 0.1211,-2.6934 0.1488,-1.4116 0.17874,-2.8333 0.0898,-4.25 -0.24,-1 -0.73961,-1.6816 -1.41211,-2.3379 -0.6725,-0.6562 -1.51726,-1.2866 -2.44726,-2.1816 -0.95998,-0.9202 -1.8435,-1.9119 -2.63867,-2.9688 -0.79518,-1.0569 -1.50216,-2.1793 -2.11133,-3.3613"
     style="fill:none;stroke:#231f20;stroke-linecap:round;stroke-linejoin:round;stroke-opacity:1;paint-order:fill markers stroke"
     id="path907-6" />
  <path
     d="m 389.53327,68.097497 c 0.22315,1.7186 0.33492,3.4536 0.33008,5.1875 -0.005,1.734 -0.12666,3.4682 -0.37305,5.1836 -0.40939,2.8054 -1.10006,5.5631 -2.06054,8.2305 -1.06,2.88 -1.46891,2.9791 -2.12891,5.3691 -0.60434,2.3633 -0.99277,4.7755 -1.16016,7.209 -0.085,1.450003 -0.0827,2.516403 -0.16015,3.298903 -0.0775,0.7825 -0.23563,1.2815 -0.64063,1.6015 0.59927,0.6755 1.0494,1.4861 1.27149,2.3614 0.35,1.43 -0.17133,1.9185 0.13867,3.4785 0.23922,1.1104 0.75519,2.1423 1.5,3 0.86,0.98 1.37078,0.9403 2.05078,1.5703 0.5,0.4625 0.83672,1.0445 1.05469,1.6953 0.21797,0.6508 0.31742,1.3698 0.3418,2.1055 0.0487,1.4712 -0.20149,3.0092 -0.39649,4.1992 -0.195,1.19 -0.34773,2.1187 -0.58398,2.9199 -0.23625,0.8013 -0.55594,1.4752 -1.08594,2.1602 -0.63,0.82 -1.06133,1.0093 -5.86133,4.3593 -1.79,1.23 -2.19,1.5505 -2.5,2.2305 -0.35,0.76 -0.28641,1.3552 -0.19141,2.0664 0.095,0.7113 0.22196,1.5387 0.002,2.7637 -0.26394,1.2317 -0.72245,2.4132 -1.35938,3.5 -0.54688,1.0415 -1.20155,2.0231 -1.95117,2.9297 v 22.1308 c 0.62953,0.8359 1.19591,1.719 1.69141,2.6407 0.38,0.75 0.57898,1.1295 0.45898,1.5195 -0.115,0.375 -0.4514,0.5831 -0.97265,0.7656 -0.52126,0.1825 -1.22618,0.3383 -2.07618,0.6133 -1.56166,0.5 -3.04156,1.228 -4.39062,2.1602 -1.14914,0.7586 -2.11577,1.7641 -2.83008,2.9414 -0.28,0.5075 -0.43922,0.9586 -0.52344,1.4082 -0.0842,0.4495 -0.0943,0.8964 -0.0762,1.3945 0.0362,0.9962 0.18531,2.1973 0.0703,4.0273 -0.057,1.3876 -0.25672,2.7613 -0.59179,4.1016 -0.33508,1.3403 -0.80552,2.6473 -1.40821,3.8984 -0.22,0.45 -0.0207,-4e-4 -3.2207,4.7696 -0.65689,0.8471 -1.23197,1.7502 -1.7207,2.6992 -0.48874,0.949 -0.89106,1.9439 -1.19922,2.9707 -0.22166,0.8603 -0.36363,1.7645 -0.39453,2.6523"
     style="fill:none;stroke:#231f20;stroke-linecap:round;stroke-linejoin:round;stroke-opacity:1;paint-order:fill markers stroke"
     id="path903-0" />
  <path
     d="m 184.22077,55.448697 c -0.48034,1.5069 -0.64113,3.0975 -0.4707,4.6699 0.13,1.18 0.42101,1.9807 0.97851,3.0957 0.55751,1.115 1.38204,2.5427 2.58204,4.9727 1.91,3.85 1.66039,3.94 2.90039,6 0.57034,1.02 1.22414,1.9899 1.95507,2.8965 0.73094,0.9065 1.53816,1.7497 2.41407,2.5234 1.46872,1.1759 3.06526,2.1823 4.75976,3 1.57,0.86 2.22078,1.1116 5.55078,2.6816 5.25,2.46 4.74891,2.3602 5.62891,2.6602 1.255,0.435 2.39055,0.6663 3.7168,0.7988 1.32625,0.1325 2.84328,0.1662 4.86328,0.2012 2.93592,0.092 5.87558,-0.042 8.79101,-0.4004 2.93278,-0.3956 5.83109,-1.0137 8.66993,-1.8496 2.305,-0.645 3.51265,-1.1013 4.5039,-1.4551 0.99125,-0.3537 1.76508,-0.6057 3.20508,-0.8457 2.32,-0.38 2.61094,-0.1092 7.71094,-0.1992 2.2,0 6.49086,-0.1819 11.13086,-0.6719 4.64,-0.49 4.39875,-0.7799 8.21875,-1.1699 2.31,-0.23 3.82984,-0.2685 12.33984,-0.2285 10.73,0.06 11.24008,0.1399 13.58008,-0.08 2.61,-0.24 3.71976,-0.4905 4.91601,-0.7617 1.19626,-0.2713 2.4786,-0.5637 5.4336,-0.8887 2.47292,-0.2993 4.96186,-0.4346 7.44726,-0.4062 2.48541,0.028 4.96816,0.2204 7.4336,0.5761 1.98242,0.2953 3.9339,0.7706 5.83008,1.42 2.05546,0.6572 4.01565,1.5818 5.83007,2.75 1.31,0.85 1.22,1.0009 5,4.2109 2.07,1.75 3.11008,2.6286 4.08008,3.3086 1.83499,1.3895 3.85434,2.5165 6,3.3496 1.565,0.565 2.4268,0.6358 3.2168,0.6758 0.79,0.04 1.5082,0.049 2.7832,0.4941 1.075,0.37 1.8586,0.8057 2.49219,1.2754 0.63359,0.4697 1.11687,0.9737 1.59375,1.4824 0.47688,0.508803 0.94594,1.022603 1.55078,1.509803 0.60484,0.4872 1.34578,0.9485 2.36328,1.3535 1.21,0.5 1.70907,0.449 2.72657,0.3965 1.01749,-0.053 2.55398,-0.1072 5.83398,0.3828 2.62,0.38 5.27891,0.51 7.87891,1 0.88,0.17 1.59851,0.3297 2.19726,0.3672 0.59875,0.038 1.07742,-0.047 1.48242,-0.3672"
     style="fill:none;stroke:#231f20;stroke-linecap:round;stroke-linejoin:round;stroke-opacity:1;paint-order:fill markers stroke"
     id="path901-8" />
</svg>
