<svg xmlns="http://www.w3.org/2000/svg" viewBox="0 0 525.14 645.91">
  <defs>
    <style>
      .cls-1 {
        fill: none;
        stroke: #231f20;
        stroke-miterlimit: 10;
      }
    </style>
  </defs>
  <g id="Layer_2" data-name="Layer 2">
    <g id="Districts">
      <path id="New_Vooperis" data-name="New Vooperis" class="cls-1" d="M184.32,55.46a51,51,0,0,0,12.57,1.14c2.63,0,7.24-.86,9.66.88,1.29.94,1.83,2.55,3,3.6,1.8,1.59,4.21,1.86,6.39,2.62A16.47,16.47,0,0,1,223.69,69a5.9,5.9,0,0,0,3.76,2.53c2.89.46,6.1-1,8.36-2.63,1.07-.77,3.34-2.29,3.52-3.85.26-2.27.93-6.74-1.11-8.36-1.55-1.23-3.18-1.24-4.45-3-1.45-2.07-1.09-3.83-.07-6,1.62-3.39,3.17-4.43,6.77-5,2.39-.37,4.79-.85,7.15-1.37,1.3-.29,3-.52,4-1.45,2.56-2.26,3.78-7.31,3.82-10.47,0-2.93-.77-5.19-3.48-6.53-1.14-.57-3.6-.63-4.33-1.88.53-1.15,1.25-3,2.41-3.63a6.1,6.1,0,0,1,2.38-.38c5.25-.59,12-2.52,16.54,1,1.22,1,1.65,2.5,2.86,3.44.79.62,1.75.87,2.51,1.53,1.95,1.7.5,3.32,1.05,5.38,1,3.72,8,7.7,11.52,6.28,3.88-1.59,7-6,9.57-9.07a87.88,87.88,0,0,0,6.55-8.44,18.93,18.93,0,0,0,2.9-6.67,34.8,34.8,0,0,0,0-4.79c0-1.67-1.13-4.24.94-4.82,2.26-.63,5.63-.14,7.89.12,2.65.31,5.29.62,8,.71,2,.06,4.86-.36,6.68.8,4.62,2.93-4.3,9.17-4.71,11.93a5.44,5.44,0,0,0,1.18,3.6,51.1,51.1,0,0,0,3.81,5c3.58,4.16,8.56,5.87,13,8.86.14,1.08-3.27,2.31-4.17,3-1.48,1.11-3.37,2.43-4.27,4.07A5.5,5.5,0,0,0,336,46.08a23.82,23.82,0,0,0,4.24,2.3q3,1.6,6,3.25c2.37,1.2,4.8,2.29,7.21,3.41A54.81,54.81,0,0,0,368.72,60,62.08,62.08,0,0,1,376,61.53c1.68.44,2.87.66,4.13,1.88a10.5,10.5,0,0,0,5.07,3.2,16.12,16.12,0,0,1,7.7,3.71A14.58,14.58,0,0,0,402.48,74c2.12,0,5,.38,6.9-.87a11,11,0,0,0,3-4.25c1-2.52-1.47-1.7-2.38-3.34-.62-1.1-.17-2.8.27-3.9a23.35,23.35,0,0,1,2.14-4.12c.69-1,2-2.41,1.85-3.8-.14-1.71-.92-3.23-1-5.05,0-2-.95-3.9.09-5.77a7.05,7.05,0,0,1,4.36-3,11.39,11.39,0,0,1,2.58-.42c1.08.16,1.61,1.2,2.36,1.84,5.36,4.61,12.61,6.52,18.73,9.92,2.76,1.53,4.94,2.13,7.93,1,2.07-.79,6.35-2.15,5.51-5-.54-1.84-.55-4.14-2.1-5.39-1.22-1-3.73-2.06-3.92-3.7a2.47,2.47,0,0,1,.6-1.7c.84-1.25,1.79-2.36,2.57-3.66.41-.71,1-1.5,1.39-2.25a6.27,6.27,0,0,0,.42-2.08,11.63,11.63,0,0,1,1.49-2.94c.88-1.59,2.41-2.67,3.72-3.93,1.72-1.67,4.13-3.77,6.58-4a41.4,41.4,0,0,1,4.59.05c3.78,0,7.3-.4,11.08.27,2,.35,4.15.79,5.64,2.26a16.76,16.76,0,0,1,2.39,3.76c1.31,2.28,2.62,3.94,5.12,5,3.28,1.36,6.82,1.69,10.28,2.2,2.24.33,4.25,1.3,6.5.65a54.83,54.83,0,0,0,7.84-3.38c1.3-.63,3.68-2.39,5.09-.88a2.89,2.89,0,0,1,.32,2.58,14.43,14.43,0,0,1-.86,2.73,25.41,25.41,0,0,0-1.51,4.61,7.13,7.13,0,0,1-.54,1,12.87,12.87,0,0,1-1.06,1.17,5.81,5.81,0,0,1-1.78,1,1.29,1.29,0,0,0-.6.48,2.15,2.15,0,0,0-.28.94,3.62,3.62,0,0,0,0,1.39A105.43,105.43,0,0,0,518.75,55c.5,2.75.5,4.7-1.24,7-.87,1.12-1.82,2.19-2.7,3.32-1.63,2.12-3.75,4.17-4.76,6.69-.87,2.17-.94,4,1.34,5.15,1.13.58,2.32,1.12,3.42,1.77a16.4,16.4,0,0,1,5.31,5.27c.89,1.27,1.44,1.73,1.19,3.27-.48,2.89-1.53,5.68-1,8.67a8,8,0,0,1-.15,4.77c-.67,1.82-1.89,3.34-2.55,5.17-.76,2.12-2,4.08-2.87,6.19-3.81,9.52-1.35,21.28-8.1,29.6-1,1.29-3,4-4.92,2.89-1.25-.69-1.45-2.63-1.82-3.87a51.49,51.49,0,0,0-4-9.85c-1.19-2.13-3.37-5.18-6-5.54-1.64-.23-2.41,1.41-3.41,2.56a33.8,33.8,0,0,0-4.37,6.94c-1.75,3.46-3.22,6.9-3.3,10.8a9.16,9.16,0,0,1-1.1,4.59c-1.12,2-3.62,4.93-2.45,7.44,1,2.09,3.65,3.44,5,5.31a9.88,9.88,0,0,1,1.91,7.2c-.14,1.22-.38,3.37-1.49,4.17s-3.3.45-4.57.4a10.17,10.17,0,0,1-4.06-1.45c-4.77-2.32-10-1.29-15.11-1a12,12,0,0,0-3.12.27,12.43,12.43,0,0,0-4.92,3.53c-4.57,4.75-7.75,9.92-6.56,16.68.54,3.07.61,5.53-.87,8.34-1.81,3.44-5.3,6.7-8,9.47-1.88,1.95-3.69,4.22-5.71,6-1.24,1.11-2.93,2.12-4.25,3.12A51.08,51.08,0,0,1,411,227.11c-2.31.83-4.12,1.45-6.35.25a44.72,44.72,0,0,0-6.19-2.88c-3-1.07-6-1.84-8.72-3.55s-3.76-4.23-5.42-7a12,12,0,0,0-6.07-4.62c-3.73-1.52-7.86-1.22-11.52-2.77-3.45-1.46-7.85-.43-11.4.42-1.8.42-4,1.21-5.92.91-.75-.11-1.47-.45-2.21-.62a18.76,18.76,0,0,0-5.4-.18c-1.44.09-3.28.54-4.67-.14s-1.85-2.72-3.21-3.73-3.15-1-4.85-1.25a37.12,37.12,0,0,1-7-1.58c-1.42-.47-3-.86-4.35.08-2.21,1.56-3.77,3.84-5.65,5.7a26.12,26.12,0,0,1-4.33,4c-1.07.66-2.24,1.14-3.32,1.79-2.37,1.43-5.2,5.11-8.4,4.45-2.4-.5-4.62-2.49-6.64-3.73-2.6-1.59-5.95-3.2-9-2.38-4,1.08-7.74,4-10.63,6.91-1.48,1.48-2.33,2.53-2.61,4.45a15.71,15.71,0,0,1-.88,2.83c-1.25,3.69-3.43,7-5.23,10.42-.91,1.74-1.7,3.93-3.07,5.38-1.64,1.76-3.81,3.09-5.64,4.68a83.64,83.64,0,0,0-6.46,6c-1.15,1.23-5.64,1.69-7.51,1.4-2.33-.37-4.53.44-6.66,1.26-1.74.67-3.5,1.52-5.27,2.09-.74.24-1.52.22-2.24.41a8.77,8.77,0,0,0-3.82,2.81c-2.76,3-5.83,6.18-7.57,9.91a64,64,0,0,0-4.29,12.59c-.3,1.28-1.26,1.86-2.06,2.82a24.2,24.2,0,0,1-4.58,4.46,5.91,5.91,0,0,1-4.41,1.41c-1.09-.21-1.92-.91-3.06-.94a9.47,9.47,0,0,0-4.35,1.38,18.89,18.89,0,0,0-6.59,5.22c-3.26,4.46-3.26,9.39-3.26,14.68,0,0-6.19,7.78-5.52,11.69.25,1.42.7,2.25.29,3.7-.27,1-.61,1.94-.94,2.9-.67,1.94-1.52,3.75-1.5,5.81a9.14,9.14,0,0,0,.12,2.61,7.92,7.92,0,0,0,3.45,4,25.58,25.58,0,0,0,6.59,2.63,18.32,18.32,0,0,0,6.95.61c2.62-.31,5-1.41,7.59-1.84,1.63-.27,3.36-.5,4.48.91s1.51,3.12,3.09,4.26a17.36,17.36,0,0,0,3.93,1.76c3,1.13,6.3,1.7,9.28,2.94a18.49,18.49,0,0,0,1.8.86c1.46.41,3.31-.46,4.69-.85s3-1.05,4.54-.86c1.15.15,2.23.68,3.38.87a10.54,10.54,0,0,0,5-.55c4.42-1.45,7.4-4.72,10.94-7.53a76.07,76.07,0,0,1,8-5.38,17.44,17.44,0,0,1,5.55-2.57,10.82,10.82,0,0,1,3.44.26l4.39.53a84.07,84.07,0,0,1,9.38,1.19,7.36,7.36,0,0,0,3,.31,8.58,8.58,0,0,0,3.31-2.09c1.52-1.22,3.43-2.54,3.86-4.59.7-3.31-2.81-5.28-3.3-8.34a2.93,2.93,0,0,1,.34-2.43,9.68,9.68,0,0,1,2.85-1.58c3.41-1.65,6.86-3.4,10.41-4.72a29.65,29.65,0,0,1,5.44-1.27c4.19-.69,8.26-1.63,12.51-.91a14.21,14.21,0,0,1,7.49,3.17,40.65,40.65,0,0,1,3.42,3.64c2.83,3.26,4.15,7.45,7.09,10.6s7.5,4.42,11.65,5.62a28.16,28.16,0,0,1,5.79,1.94c.66.37.62.41.76,1,.28,1.19.34,1.74,1.68,1.77a24.2,24.2,0,0,0,2.69-.11,50.9,50.9,0,0,1,7.61.14,48.42,48.42,0,0,1,10.46,1.34,23.6,23.6,0,0,1,6.15,3.12,18.11,18.11,0,0,1,5.27,4.33,46,46,0,0,1,2.58,4.53c.86,1.49,2.89,3.6,2.9,5.45a9.71,9.71,0,0,1-.82,2.87,17.2,17.2,0,0,0-.87,3.67c-.28,2.67.42,5.4.51,8.06.17,4.61-.87,10,1.51,14.26,1.18,2.11,3.07,3.63,4,5.93s.56,5.09,1.72,7.48c.87,1.79,3,3.36,3.34,5.35a4.85,4.85,0,0,1-.9,3,4,4,0,0,1-1.5,1.88c-1.37.72-3.13.88-4.58,1.44-2.44.94-4.84,2-7.28,2.87a9.82,9.82,0,0,1-3.69.43,30.22,30.22,0,0,0-3.4.38c-3.88.37-9.22,1-11.56-3.05a51.18,51.18,0,0,1-3-7.45c-.68-1.78-1.83-3.52-1.83-5.48,0-1.63.83-3.5.07-5.07-.63-1.31-1.92-1.87-3.09-2.57-2.09-1.26-3.64-3.1-5.57-4.54a10.84,10.84,0,0,1-3.61-3.94c-.69-1.44-.76-3.21-2.15-4.26-2-1.53-5.51-.11-7.48.61a92.25,92.25,0,0,1-9,2.81,21.62,21.62,0,0,1-5.64.89,14.85,14.85,0,0,1-5-1.31,11.5,11.5,0,0,1-3.73-2.37c-1.29-1.27-2.06-2.81-3.59-3.89-2.48-1.76-5-1.72-7.71-.53-2.14,1-4.49,2.23-6.91,1.71a2,2,0,0,0-2.13.32,15.93,15.93,0,0,0-3.48,3.75,9.92,9.92,0,0,0-1.87,3.47c-.78,3,.07,5.78,1.57,8.39a27.39,27.39,0,0,0,2.38,3.23,4.4,4.4,0,0,1,.83,1.25,4.56,4.56,0,0,1-.58,3.34,16.47,16.47,0,0,1-5,4.77,21.16,21.16,0,0,1-4.9,2.61,28.94,28.94,0,0,0-7.76,3.93c-2.73,1.91-5.56,4.26-7.2,7.21a8.48,8.48,0,0,0-1.2,3c-.05.51.09,1,0,1.54-.11.94-.41,1.44,0,2.42a22.14,22.14,0,0,0,1.44,2.38c1,1.6.54,3.8-.42,5.37-1.82,2.93-4.61,5.1-6.77,7.73l-2.46,2.26c-2.09,2.41-4.25,4.8-5.48,7.78-.69,1.66-.63,3.35-1,5-.59,2.79-2.59,4.42-4.75,6.11a41.66,41.66,0,0,1-5.73,3.87,13.1,13.1,0,0,0-2.77,1.47,32.74,32.74,0,0,0-2.89,2.88,22.75,22.75,0,0,0-3.71,5c-.75,1.47-1.34,3-2,4.54a94.63,94.63,0,0,1-4.34,9.23c-1.06,2-2.82,3.44-4.28,5.13-1.29,1.49-3.67,3.94-4.13,6a13.31,13.31,0,0,0,0,2.75c0,1.93-.28,3.84-.31,5.76a5.34,5.34,0,0,0,.62,3.41c1.24,1.73,3.59,1.39,5.35,2.27s2.58,2.54,3.58,4.14a79.74,79.74,0,0,1,7.05,13.84,73.86,73.86,0,0,1,3.17,10.9,50.62,50.62,0,0,1,1.54,9.62,3.62,3.62,0,0,1-1,3.51,12.32,12.32,0,0,1-3.69,2.1,22.9,22.9,0,0,1-5.72,1.73c-2,.3-3.41.24-5.11,1.32a35.27,35.27,0,0,0-8.18,7.62,18.18,18.18,0,0,0-3.48,6.8c-.57,2-1.2,3.91-1.77,5.87a13,13,0,0,0-.9,5c.2,1.92,2.33,2.6,2.86,4.45.88,3.09-.68,6.64-1.55,9.55a61.69,61.69,0,0,1-5.34,13.2,53.84,53.84,0,0,1-6.08,8.75c-2.14,2.46-4.46,4.74-6.76,7a17.62,17.62,0,0,1-4.18,3.63,4,4,0,0,1-1.46.35,10.67,10.67,0,0,0-2.42,1.08c-2.16,1.07-4.34,2.11-6.52,3.13-3.87,1.79-8,3.91-12.3,4.57-1.64.26-4.87,1.07-6.23-.38-1.15-1.21-1.69-3-2.76-4.24a10.71,10.71,0,0,0-3.18-2.7c-.95-.52-2-.84-2.93-1.35a1.81,1.81,0,0,1-1.17-1.79c-.11-1.14.67-2.28,1.19-3.24,1.27-2.32,2.84-4.44,4.29-6.64a18,18,0,0,0,2.22-4.37,25.81,25.81,0,0,1,2.29-4.43c.88-1.61,1.37-3.4,2.2-5,2.11-4.12,3.58-8.49,5.32-12.75,1-2.45,2.75-5.15,2.57-7.9-.12-1.72-1.71-3.36-2.81-4.6a7.78,7.78,0,0,1-1.76-3,12.11,12.11,0,0,0-.63-2,6.1,6.1,0,0,0-3.6-2.82c-1.21-.42-3-.51-3.13-2-.1-1.34.57-2.59.29-4-1-5.17-7.16-1.32-10.3-2.15-.16-.42.17-.95-.11-1.32-.5-.65-2.39-.06-2.83,0a52.11,52.11,0,0,1-15.05.88c-2.64-.31-5.5-1.4-7.15-3.6a14.85,14.85,0,0,1-2.35-5c-.14-.5,0-4.51,1-4.84s2-2,1.47-2.72a11.4,11.4,0,0,1-1-1.56,7.47,7.47,0,0,0-2.27-2.77c-1.4-.89-3.68-.67-5.22-.8-2.07-.16-4.49-.2-6.34-1.22a10.9,10.9,0,0,1-2.77-2.36,10,10,0,0,0-4-2.82c-1.93-.66-4.18-.3-6.13,0-2.16.3-4.35.87-6.53,1a10.4,10.4,0,0,1-2-.23c-1.34-.09-2.34,2.62-2.68,3.55a43.48,43.48,0,0,0-1.67,7.83c-.75,4.5-1,9.09-1.94,13.55a11.58,11.58,0,0,1-2.25,5.26,84.7,84.7,0,0,1-8.92,9.15,93.08,93.08,0,0,1-9.89,8.39,41.51,41.51,0,0,1-6.12,3.87c-.67.32-2.62,1.37-3.53.84-.59-.35-.52-.61-.72-1.25-.38-1.22-.8-2.73-1.87-3.51-1.86-1.35-4-1.78-5.69-3.45s-2.85-4-4.7-5.56a11.18,11.18,0,0,0-7.42-2.56c-1.65,0-3.36.33-4.83-.59-1.07-.68-1.47-1.55-2.78-1.9-1.71-.45-3.32-.11-5.05-.28a7.94,7.94,0,0,1-2.13-.39,7.56,7.56,0,0,1-1.68-1.3,8.5,8.5,0,0,0-5.26-2A29.86,29.86,0,0,0,4,573.15c-.94.25-1.42,0-1.2-1A2.86,2.86,0,0,0,2.68,570a6.93,6.93,0,0,1-1-2,13.84,13.84,0,0,1,0-2.23c0-1.43.42-3.73-.69-4.84l-.39-.32L62.82,416.25,43.89,212.83,184.32,55.46"/>
    </g>
    <g id="New_Vooperis_Counties" data-name="New Vooperis Counties">
      <path class="cls-1" d="M149.08,568.23c-.43-1.77-.93-4.1-1.36-6.86a84.17,84.17,0,0,1-1-10.61c-.12-4.76.29-5.22.34-12.89a48.63,48.63,0,0,0-.28-7.56c-.61-4.08-1.12-7.48-3.61-9.55-1.9-1.58-4.42-1.65-9.45-1.78-7-.18-8.74,1.12-11.16-.5-1.88-1.25-2.57-3.21-3.78-6.61-1.13-3.2-1.17-5.16-1.83-9.5s-.85-3.71-1.89-9.56c-1.79-10.06-1-10.6-2.67-19.22a16.11,16.11,0,0,1-.5-3.78c.08-5.13,3.25-8.87,5.06-11.05,8.47-10.22,3.25-5.66,14.77-19.11,5.17-6,8.12-9.17,12.39-12.45,4.49-3.44,7-4.43,9-4.94,2.69-.7,5.37-.62,10.61-.45,7.74.27,8.6,1,10.78-.05,2.88-1.42,4.4-4.23,6.3-7.72a30,30,0,0,0,2.65-6.61c1.2-4.69.47-7.2.16-14-.42-9.35-.64-14,1.73-15.95,3.2-2.62,8.59-.2,10.11-3.11.43-.83.36-1.73.22-3.44a16.9,16.9,0,0,0-1.5-5.45c-.56-1.39-.69-2.43-.5-9.89.11-4.53.27-8.64.44-12.25"/>
      <path class="cls-1" d="M272,427.7c-2,.16-3.73.26-5.14.34-4.19.21-5.12.1-6-.53-.38-.27-.2-.25-2.22-2.78-1.7-2.13-2-2.35-2.3-2.53s-1.06-.52-4-.47c-3.2.06-3.53.45-4.45.14-2-.67-2.79-3.34-3.27-5.06-.81-2.84-.9-5.65-.34-15.94.11-2.05.22-3.81-.94-5-.94-.94-2.38-1.08-5.22-1.34-4-.35-4.85.22-5.64-.55-1.32-1.27.43-3.3-.11-7.7-.17-1.34-.62-5-3.31-7a9.05,9.05,0,0,0-3.83-1.33c-5.19-.94-7.11.59-10.34-.08-3-.63-3.87-2.49-7.19-5.31a37.15,37.15,0,0,0-13.5-7.14"/>
      <path class="cls-1" d="M26.2,501.19a8.94,8.94,0,0,1,4.1,2.93c1.37,1.83.94,2.95,2.11,4.86a10.8,10.8,0,0,0,6.33,4.36c3,.7,3.84-.63,7.75-.11,2.39.32,3,.94,5.17,1.56,3.49,1,4.77.2,12-.23,8.06-.46,8.33.41,12.8-.55,3.12-.67,3.58-1.22,7.37-2a56.22,56.22,0,0,1,9.16-1c6.73-.22,8.91.62,16.7.87,3.71.12,6.83,0,9.08-.06"/>
      <path class="cls-1" d="M112.41,473.59c-.72.12-1.85.32-3.25.59-2.17.41-3.38.69-4,.83-4.5.91-5.15-.57-10.39.11a14,14,0,0,1-5.89,0,4,4,0,0,1-2.31-1.31c-.62-.8-.64-1.69-.64-3.22,0-3.89,0-5.85.25-6.5.46-1.26.72-1.05,2.56-4.14a31.19,31.19,0,0,0,2-3.72c1.64-3.91-.13-5.19,1.22-8.31.75-1.73,1.21-1.13,5-5.58,2-2.42,3.08-3.66,3.67-5.19.26-.69.5-1.52.83-6.37.38-5.5.12-5.14.36-6,.68-2.34,2.1-3,8-7.78,6.31-5.11,7-6.28,7.47-7.61.25-.75.35-2.83.53-7,.25-5.56.08-5.59.39-6.39,1.14-3,3.57-2.9,8.7-6.75,3.09-2.32,5.85-4.4,7.52-8,.59-1.29,2.48-5.41.78-9.45-1.13-2.7-3.33-4.07-5.92-5.69a19.23,19.23,0,0,0-8-3c-3.5-.44-4.07.61-7.33-.14-1.59-.36-4.45-1-5.81-3.33-.62-1-.65-2.38-.69-5,0-3.32-.08-5,.33-6.53,1.26-4.72,4.69-6.28,3.86-8.53-.34-.92-.9-.63-2.08-2.16-1.57-2.05-.94-3-2.28-5.17a9.3,9.3,0,0,0-4.41-3.78c-1.09-.4-1.23-.15-3.59-.75-1.32-.33-2.09-.62-3.64-1.14,0,0-1.75-.59-5.3-1.69-2.69-.84-4.9-.87-14.67-.78l-8.36.08c-5.59.06-10.1.05-13,0"/>
      <path class="cls-1" d="M111.75,340.45a14.49,14.49,0,0,0,3.77,2.11c2.45.92,3.26.43,5.92,1.2a27.66,27.66,0,0,1,5.86,2.83c3.61,2,3.28,2.31,4.78,2.81a13.33,13.33,0,0,0,7.8-.09,19.21,19.21,0,0,0,5.28-2.36c3.68-2.14,3.82-3.32,6.83-4.61a23.2,23.2,0,0,1,5-1.33c3.69-.73,4.18-.28,6.64-1a20.81,20.81,0,0,0,5.16-2.5,26.49,26.49,0,0,0,3.81-2.92"/>
      <path class="cls-1" d="M99.27,327.73c0-.87-.09-2.14-.15-3.68-.22-5.94-.12-6.88.17-7.9a13.6,13.6,0,0,1,2.73-4.89,22.94,22.94,0,0,1,5.33-5c2-1.3,2.61-1.22,3.37-2.31.5-.72.62-1.3,1-5.07.46-4.65.41-5.08.13-5.68-.66-1.38-1.46-1.25-3.29-3.4a16.45,16.45,0,0,1-2.21-3.29c-.31-.64-1.33-3-.48-8.6.7-4.67,1.6-4.39,2.14-8.46a44.27,44.27,0,0,0,.15-8.5c-.23-4.25-.74-5.47.27-6.94a10.86,10.86,0,0,1,4.17-3.31c.94-.43,2.23-.83,2.37-1.71.06-.36-.13-2.19-.06-2.71a5.33,5.33,0,0,1,.54-1.92c.5-1,1.13-1.4,2.62-2.7a14.06,14.06,0,0,0,2.64-2.59c.72-1.29.34-2,.69-3.75.3-1.43,1-2.49,2.34-4.61,1.89-2.95,2.85-4.44,4.77-5.69a14.07,14.07,0,0,1,4.7-1.84c2.86-.69,3.41-.1,5.58-.89a14,14,0,0,0,4.36-2.69,28.26,28.26,0,0,0,3.36-3.36c.53-.6,1.12-1.33,1.12-1.33v-20.2A14.69,14.69,0,0,0,149,191.2c.32-1.48.2-2.34.89-3.61.55-1,.86-.86,1.28-1.69.73-1.44.19-2.55.2-4.42a14.39,14.39,0,0,1,1.13-4.75c1.12-3.25,1.78-3.12,2.6-5.62a22.4,22.4,0,0,0,.88-7c.08-3.46-.37-4.2.22-6.17.3-1,.7-1.77,2.39-4.14,3.25-4.58,4.88-6.87,6.41-7.75a15,15,0,0,1,7.25-1.64c3.44-.08,4.25.87,6.64.11a13.43,13.43,0,0,0,4.86-3.22c1.66-1.46,2.49-2.19,3.09-3.41,1.7-3.52,0-7.29-.14-7.5-.87-1.81-1.62-1.69-2.47-3.56a10.54,10.54,0,0,1-.73-5.61c.41-4.12,2.65-7,4.42-9.2a22.34,22.34,0,0,1,5.22-5c2.86-1.92,4.41-1.88,5.7-3.7s1.18-4,1.08-5.91c-.2-3.72-.37-8.42-.47-14.84"/>
      <path class="cls-1" d="M214.75,265.59a19.33,19.33,0,0,1-2.28-4.36,24.21,24.21,0,0,1-1.09-4.39c-.89-4.85-1.34-7.28-.55-8.78.91-1.74,2-1.38,3-3.52.67-1.48,1.09-3.74.09-4.69-.59-.56-1.15-.19-2.07-.9a3.26,3.26,0,0,1-1.3-2.33c0-1.24,1.07-1.77,2-3,2.16-2.91,1.33-7.26.29-9.6a5.94,5.94,0,0,0-2.36-3c-1.26-.72-1.93-.24-2.75-.92s-.81-1.52-.83-5.54c0-4.53.08-4.89.27-5.29,1.07-2.3,2.87-1.72,4.38-3.81,1.72-2.4,1.15-5.61.16-11.07a29.33,29.33,0,0,0-1.45-5.39A15,15,0,0,0,207,183.3a6.63,6.63,0,0,0-2.82-2.1c-2.79-.84-4.46,2-10.54,4-3.56,1.18-5,.9-5.77.68a7,7,0,0,1-4.17-3.41c-.21-.46-.47-1.2-.16-6.17.23-3.7.45-4.59-.25-5.73a6.67,6.67,0,0,0-2.79-2.25c-1.57-.72-2.22-.33-3.46-1.17a5.46,5.46,0,0,1-1.93-2.41c-.41-1-.29-1.69-.16-4.23a25.38,25.38,0,0,0,.09-4.25c-.48-2-2-2.73-3.86-4.52a24.07,24.07,0,0,1-4.74-6.35"/>
      <path class="cls-1" d="M184.32,55.46a11.35,11.35,0,0,0-.47,4.67c.26,2.36,1.16,3.21,3.56,8.07,1.91,3.85,1.66,3.94,2.9,6a20.73,20.73,0,0,0,4.37,5.42,25,25,0,0,0,4.76,3c1.57.86,2.22,1.11,5.55,2.68,5.25,2.46,4.75,2.36,5.63,2.66,2.51.87,4.54.93,8.58,1a57.34,57.34,0,0,0,8.79-.4,58.28,58.28,0,0,0,8.67-1.85c4.61-1.29,4.83-1.82,7.71-2.3,2.32-.38,2.61-.11,7.71-.2,2.2,0,6.49-.18,11.13-.67s4.4-.78,8.22-1.17c2.31-.23,3.83-.27,12.34-.23,10.73.06,11.24.14,13.58-.08,5.22-.48,4.44-1,10.35-1.65a56.58,56.58,0,0,1,14.88.17A33,33,0,0,1,328.41,82a24.62,24.62,0,0,1,5.83,2.75c1.31.85,1.22,1,5,4.21,2.07,1.75,3.11,2.63,4.08,3.31a24.82,24.82,0,0,0,6,3.35c3.13,1.13,3.45.28,6,1.17,4.3,1.48,3.93,4,8,5.62,2.42,1,2-.2,8.56.78,2.62.38,5.28.51,7.88,1,1.76.34,2.87.64,3.68,0s.63-2,.8-4.9a40.25,40.25,0,0,1,1.16-7.21c.66-2.39,1.07-2.49,2.13-5.37a42.34,42.34,0,0,0,2.06-8.23,38.2,38.2,0,0,0,.07-10.35"/>
      <path class="cls-1" d="M358.7,206.2a12.25,12.25,0,0,1,.38-2.63A17.43,17.43,0,0,1,362,197.9c3.2-4.77,3-4.32,3.22-4.77a20.36,20.36,0,0,0,2-8c.23-3.66-.59-4.8.53-6.83a9.31,9.31,0,0,1,2.83-2.94,16.66,16.66,0,0,1,4.39-2.16c1.7-.55,2.82-.63,3.05-1.38.12-.39-.08-.77-.46-1.52a20.61,20.61,0,0,0-1.69-2.64l0-22.13a17,17,0,0,0,1.95-2.93,11.82,11.82,0,0,0,1.36-3.5c.44-2.45-.51-3.31.19-4.83.31-.68.71-1,2.5-2.23,4.8-3.35,5.23-3.54,5.86-4.36,1.06-1.37,1.28-2.7,1.67-5.08s1-6.15-1-8c-.68-.63-1.19-.59-2.05-1.57a6.74,6.74,0,0,1-1.5-3c-.31-1.56.21-2.05-.14-3.48a5.65,5.65,0,0,0-1.25-2.36"/>
    </g>
  </g>
</svg>
