<?xml version="1.0" encoding="UTF-8" standalone="no"?>
<!-- Created with Inkscape (http://www.inkscape.org/) -->

<svg
   id="svg5"
   version="1.1"
   viewBox="0 0 499.99998 500.00001"
   height="1889.7638"
   width="1889.7638"
   xmlns="http://www.w3.org/2000/svg"
   xmlns:svg="http://www.w3.org/2000/svg">
  <defs
     id="defs2" />
  <g
     id="layer4"
     style="display:inline;opacity:1"
     transform="translate(-8.1395453,-62.268348)">
    <path
       id="path2812-7-8"
       style="opacity:1;fill:#d40000;fill-opacity:1;stroke:none;stroke-width:58.9306;stroke-linecap:butt;stroke-linejoin:miter;stroke-miterlimit:4;stroke-dasharray:none;stroke-opacity:1;paint-order:stroke markers fill"
       d="m 258.32738,62.268348 c -1.90831,0.563095 -12.82684,17.278319 -27.38246,29.439705 -27.96818,23.367657 -19.80456,42.598167 -10.19581,56.096787 2.08202,2.92612 4.09303,5.88541 6.0243,8.87988 0,0 21.20231,-5.62663 32.06029,-5.68666 10.85809,-0.0633 31.87045,5.41475 31.87045,5.41475 2.09706,-3.12456 4.29292,-6.23227 6.59387,-9.31374 10.81616,-14.47932 19.92569,-34.77092 -10.7021,-57.219064 C 271.05553,78.489927 260.23479,62.677289 258.32738,62.268348 Z M 133.53265,98.233495 c -1.25298,1.297636 -1.54385,20.255415 -7.65257,37.307235 -11.90127,33.22115 2.16903,45.4143 18.88981,53.6902 3.22601,1.59755 6.40714,3.25599 9.54558,4.96933 0,0 15.63711,-15.13683 24.73568,-20.5424 9.0986,-5.40561 28.8382,-11.44846 28.8382,-11.44846 0.0275,-3.56799 0.13373,-7.14666 0.32251,-10.73688 0.97656,-18.60661 -2.73671,-36.78021 -38.00421,-42.11454 C 152.1055,106.62 135.27888,97.764986 133.53275,98.233495 Z m 250.87827,0.960329 c -1.74195,-0.480671 -18.63138,8.255126 -36.74393,10.864156 -35.28776,5.08305 -39.14352,23.21774 -38.31471,41.83109 0.15907,3.59146 0.23511,7.17434 0.23599,10.74267 0,0 20.67823,6.70973 29.70121,12.24101 9.27124,5.68328 23.63677,20.14321 23.63677,20.14321 3.15014,-1.69088 6.34893,-3.3252 9.58582,-4.89985 16.77736,-8.1568 30.92387,-20.25425 19.26958,-53.56296 -5.98185,-17.09678 -6.1284,-36.05274 -7.37073,-37.359326 z M 258.13748,166.73912 A 146.12911,145.52962 0 0 0 112.01334,312.26564 146.12911,145.52962 0 0 0 258.13748,457.79786 146.12911,145.52962 0 0 0 404.26734,312.26564 146.12911,145.52962 0 0 0 258.13748,166.73912 Z m -154.46143,7.70565 c -5.900986,0.0144 -12.858609,1.28951 -21.139551,4.18254 -17.001799,5.93944 -35.80789,6.02853 -37.112169,7.27743 -0.488528,1.75533 8.060045,18.80732 10.535244,37.07005 4.82234,35.58045 22.83184,39.44629 41.289454,38.63779 3.561462,-0.15383 7.107532,-0.22856 10.644582,-0.22419 0,0 6.74988,-20.73132 12.29593,-29.75789 5.69729,-9.27008 20.16715,-23.60001 20.16715,-23.60001 -1.65516,-3.17858 -3.25342,-6.40278 -4.79293,-9.67084 -5.98163,-12.70376 -14.1847,-23.9627 -31.88771,-23.91508 z m 310.02759,1.17997 c -17.70006,-0.18188 -25.98436,11.0229 -32.05455,23.68357 -1.5622,3.25679 -3.18459,6.46962 -4.86191,9.63778 0,0 15.14982,15.59826 20.56988,24.70176 5.42001,9.10357 11.4961,28.89594 11.4961,28.89594 3.53697,0.0218 7.08419,0.12761 10.64452,0.31203 18.45186,0.96045 36.49827,-2.75795 41.57142,-38.31969 2.60412,-18.25288 11.2706,-35.2466 10.79422,-37.00636 -1.29573,-1.25985 -20.09693,-1.4979 -37.05463,-7.56677 -8.25945,-2.95586 -15.20495,-4.27911 -21.10505,-4.33869 z M 257.43557,196.0516 A 117.39507,117.97902 0 0 1 374.83084,314.03013 117.39507,117.97902 0 0 1 257.43557,432.0144 117.39507,117.97902 0 0 1 140.046,314.03013 117.39507,117.97902 0 0 1 257.43557,196.0516 Z M 69.429281,264.94461 c -9.348425,0.18879 -19.978521,5.09942 -31.726587,19.15405 -12.239303,14.64235 -28.9811853,25.65607 -29.5631487,27.58851 0.029105,0.14946 0.1467028,0.34699 0.3452344,0.6015 2.7144193,3.06987 17.8006363,13.57335 29.0568173,27.17205 23.38334,28.24935 42.437078,19.88401 55.748793,10.20456 2.890832,-2.10191 5.818346,-4.127 8.78033,-6.07412 0,0 -5.460258,-20.07551 -5.702027,-31.30249 8.35e-4,-0.31639 1.57e-4,-0.63838 0.0057,-0.94332 0.200586,-10.92291 5.857427,-31.05375 5.857427,-31.05367 -2.952493,-1.96084 -5.87062,-3.99982 -8.751597,-6.11436 -6.63406,-4.87187 -14.702543,-9.41756 -24.050989,-9.23301 z m 377.870949,1.47499 c -9.35043,-0.26352 -17.45404,4.21968 -24.12572,9.03605 -2.89779,2.09142 -5.83455,4.10243 -8.80348,6.03946 0,0 5.27365,19.06092 5.58126,30.7933 10e-4,0.51584 -0.001,1.01319 -0.0131,1.48682 -0.24035,10.91644 -5.96102,31.02491 -5.96102,31.02491 2.94542,1.97146 5.85479,4.01892 8.72862,6.1436 13.23629,9.78945 32.21719,18.29414 55.79478,-9.71293 12.28056,-14.58778 29.05065,-25.52712 29.63799,-27.45558 -0.0568,-0.28974 -0.46498,-0.78954 -1.14496,-1.48682 -3.76437,-3.50527 -18.32736,-14.52743 -28.10147,-26.41979 -11.65057,-14.1759 -22.24381,-19.18477 -31.59424,-19.44924 z M 93.549321,362.14332 c -17.204676,-0.19753 -33.341038,5.2105 -37.998259,38.55674 -2.549841,18.25722 -11.166416,35.2834 -10.684858,37.04121 1.299305,1.25573 20.107092,1.4249 37.083401,7.43941 33.074125,11.7176 45.058085,-2.60193 53.102065,-19.50684 1.55268,-3.26146 3.16523,-6.47612 4.83323,-9.6493 0,0 -15.19664,-15.5574 -20.64474,-24.64402 -5.4481,-9.08622 -11.58823,-28.85487 -11.58823,-28.85487 -3.5369,-0.009 -7.08945,-0.10094 -10.650309,-0.27662 -1.153476,-0.0573 -2.305292,-0.0966 -3.452296,-0.10969 z m 328.802309,1.27243 c -1.14714,0.003 -2.29865,0.0262 -3.45235,0.0747 -3.56159,0.14072 -7.11331,0.20627 -10.65035,0.18879 0,0 -6.80842,20.70231 -12.38222,29.71149 -5.72577,9.2549 -20.24193,23.54486 -20.24193,23.54486 1.64597,3.18542 3.23414,6.41721 4.7641,9.68977 7.9256,16.96206 19.81052,31.36004 52.9697,19.89446 17.0201,-5.88516 35.82729,-5.91168 37.13525,-7.15601 0.49338,-1.75353 -8.00498,-18.83237 -10.42604,-37.09898 -4.42193,-33.36228 -20.51234,-38.89674 -37.71638,-38.84473 z M 153.78612,429.9145 c -3.14539,1.70039 -6.33622,3.33833 -9.56861,4.92295 -16.75357,8.20701 -30.8667,20.34882 -19.10846,53.6209 6.03527,17.07796 6.23908,36.03334 7.48574,37.3361 1.74365,0.4745 18.60689,-8.31089 36.71514,-10.97404 35.2794,-5.1887 39.07926,-23.3361 38.18816,-41.94677 -0.1713,-3.59101 -0.26351,-7.17454 -0.27618,-10.74269 0,0 -20.69582,-6.64481 -29.73574,-12.14841 -9.28871,-5.65533 -23.70009,-20.06852 -23.70008,-20.06852 z m 207.83963,0.81021 c 0,0 -15.68379,15.08954 -24.79901,20.46711 -9.11511,5.37775 -28.87266,11.35585 -28.87266,11.35585 -0.0393,3.56724 -0.16125,7.14727 -0.36271,10.73693 -1.03911,18.60341 2.61338,36.79036 37.87161,42.23025 18.09743,2.79221 34.90389,11.69768 36.65186,11.2345 1.25739,-1.29441 1.60546,-20.25171 7.76753,-37.28431 12.00515,-33.18376 -2.02631,-45.41647 -18.72296,-53.7423 -3.22156,-1.60722 -6.40066,-3.27553 -9.53406,-4.99825 z m -135.54858,37.01721 c -1.94512,2.98549 -3.96928,5.93454 -6.06453,8.85103 -9.67158,13.45614 -17.91938,32.64943 9.91384,56.13145 14.4835,12.21937 25.30689,28.97347 27.20984,29.54394 0.21982,-0.0393 0.56422,-0.29892 1.02417,-0.73465 3.51644,-3.58349 13.5672,-17.83202 26.48484,-28.54875 28.06622,-23.28445 19.96008,-42.54433 10.39717,-56.07368 -2.07232,-2.93322 -4.07438,-5.89616 -5.9955,-8.89726 0,0 -19.30287,5.30451 -30.88655,5.55919 -0.41341,8.4e-4 -0.8165,-0.004 -1.20251,-0.0131 -10.83873,-0.19752 -30.88081,-5.81938 -30.88077,-5.81938 z" />
  </g>
</svg>
