<svg xmlns="http://www.w3.org/2000/svg" viewBox="0 0 576.88 623.51">
  <defs>
    <style>
      .cls-1 {
        fill: none;
        stroke: #231f20;
        stroke-miterlimit: 10;
      }
    </style>
  </defs>
  <g id="Layer_2" data-name="Layer 2">
    <g id="Districts">
      <polygon id="Novastella" class="cls-1" points="0.67 382.59 354.37 622.79 576.22 201.54 225.96 0.68 0.67 382.59"/>
    </g>
    <g id="Novastella_Counties" data-name="Novastella Counties">
      <path class="cls-1" d="M157.9,489.36c.5-.07,1.3-.19,2.29-.3a37,37,0,0,1,3.76-.33c1.45,0,2.06.13,2.82-.34a2.3,2.3,0,0,0,1-1.05,2.34,2.34,0,0,0-.22-2.24c-.42-.58-.82-.41-1.32-1.08a3,3,0,0,1-.54-1.45,4.08,4.08,0,0,1,.37-2.11,12.28,12.28,0,0,1,2.81-4.57,7.49,7.49,0,0,1,2.4-1.8,7.71,7.71,0,0,1,4.25-.45c2.6.33,3.22,1.37,5.29,1.07a3.28,3.28,0,0,0,2-.9,2.49,2.49,0,0,0,.53-2.82c-.27-.37-.5-.21-1.47-.78a3.13,3.13,0,0,1-1.47-1.32,2.79,2.79,0,0,1-.12-1.44c0-.85,0-1.71,0-2.56l.06-3.12a4.5,4.5,0,0,1,.15-1.52,3.74,3.74,0,0,1,1.22-1.69c.76-.59,1.09-.36,1.63-.92a3.29,3.29,0,0,0,.73-1.62,9.13,9.13,0,0,0,.32-2.24c0-3.38,0-5.08.14-6.3.28-2.63,1-4.27.19-5.38a2.43,2.43,0,0,1-.54-1c-.1-.48,0-.77.31-1.9.42-1.59.39-1.8.29-2-.27-.53-.81-.35-1.27-.89s-.39-1.73-.21-2.73a6.49,6.49,0,0,1,1.07-2.65,7,7,0,0,1,2.68-2.21,10,10,0,0,1,3.25-.95,24,24,0,0,1,3.92-.23,14.19,14.19,0,0,0,6.33-2.15,22.56,22.56,0,0,0,5.48-4.56,7.86,7.86,0,0,0,1.77-2.29,6.14,6.14,0,0,0,.42-4.5c-.25-.69-.43-.62-.71-1.44a4.62,4.62,0,0,1-.12-3,4.1,4.1,0,0,1,1.14-1.5,10.13,10.13,0,0,0,2.15-4.44,15.58,15.58,0,0,0,.52-5.52c-.17-3.37-.17-5.9-.17-5.9s1-.28,2.52-.6a23,23,0,0,0,5.09-1.94c2.05-1.05,1.76-1.58,5.2-4.42a63.7,63.7,0,0,1,5.59-4c1.82-1.19,3.46-2.16,4.81-2.91"/>
      <path class="cls-1" d="M.67,382.52a9.28,9.28,0,0,1,3.27-1.61c1.29-.34,2.11-.23,3.11-1a3.79,3.79,0,0,0,1.34-1.6c.51-1.23-.12-1.87.33-3a3.86,3.86,0,0,1,1.78-1.77c.72-.46,1.61-.8,4-1.09,1.55-.18,2.21-.16,3.54-.25,2.67-.17,2.71-.44,6.36-.86,1.77-.2,3.76-.36,5.05-.47a23.32,23.32,0,0,0,4.3-.58A8.77,8.77,0,0,0,37,369a5.65,5.65,0,0,0,1.85-2.09c.76-1.6,0-2.43.78-4a4.82,4.82,0,0,1,1.58-1.79c1.23-.83,1.93-.4,4.56-1a20.85,20.85,0,0,0,3-1A13.6,13.6,0,0,0,52,357.43a15.8,15.8,0,0,0,2.37-2.26c1.41-1.49,1.85-2.05,2.61-2.88a62.65,62.65,0,0,1,4.91-4.4c2.07-1.76,3.11-2.64,3.76-3.08a18.6,18.6,0,0,1,10.7-3.56c2.36-.08,4.63.14,10.38,1.48,6.78,1.57,7.12,2.07,10.74,2.47a27.46,27.46,0,0,0,7.47-.09,23.41,23.41,0,0,0,4.59-1.16h0c2-1.13,3.25-1.19,3.82-1.84s.38-1.27.43-2.86a25.59,25.59,0,0,1,1-5.9,50.21,50.21,0,0,1,3.21-5.58,32.83,32.83,0,0,1,3-4.42,11.19,11.19,0,0,1,2.94-2.85c2.07-1.22,4.25-1,6.23-.75a16.71,16.71,0,0,1,9.27,3.58c3.49,3,3,5.62,6.83,7.56a9.22,9.22,0,0,0,3.92,1.11c2.94.12,5.2-1.35,7.2-2.65.53-.34,1.75-1.38,4.17-3.46,3.22-2.76,3.76-3.36,4.17-4.34a10.59,10.59,0,0,0,.48-4.47c-.05-3.14-.74-4.05,0-5.25.53-.87,1.23-.93,3.06-1.88a17.35,17.35,0,0,0,4.62-3.06,8,8,0,0,0,2.34-3.29,13.67,13.67,0,0,0,.41-3.54c.14-2.49-.06-2.8.28-3.67a4.66,4.66,0,0,1,2.34-2.61c1.85-.74,4.12.39,7.05,1.86a9.13,9.13,0,0,0,2.83,1.09,6.64,6.64,0,0,0,3.13-.15,5,5,0,0,0,2.83-1.88c.73-1.09.26-1.64.9-2.95.25-.53.51-.81,2.62-2.61,2.6-2.2,3.06-2.51,3.73-3.37.83-1.08,1.28-1.18,1.52-1.88"/>
      <path class="cls-1" d="M211.05,392.16l-80.91.08-29.57,0,.12,12.9H88.62v37.16"/>
      <line class="cls-1" x1="113.39" y1="342.11" x2="130.12" y2="392.16"/>
      <polyline class="cls-1" points="184.41 453.79 205.84 453.81 205.84 486.39 340.07 487.05"/>
      <polyline class="cls-1" points="395.14 545.38 343.01 545.48 340.07 487.05 337.35 439.03"/>
      <path class="cls-1" d="M337.35,439c0-.65-.09-1.59-.1-2.72a24,24,0,0,1,.05-2.58c.33-2.62,3.06-4.45,4.89-5.67,2.84-1.9,3.25-1.18,5-2.71a12.06,12.06,0,0,0,3.67-6.08,10.47,10.47,0,0,0,.16-6c-.64-2.12-1.88-3.36-3.49-5a13.67,13.67,0,0,0-5.67-3.84,7.32,7.32,0,0,0-4.7-.41,34.66,34.66,0,0,0-3.66,1.72c-.9.46-1.26.68-1.81.61-1.11-.14-1.81-1.31-2.3-2.14a6.37,6.37,0,0,1-1-3.08c-.05-1.36.41-1.89.81-3.53a21.43,21.43,0,0,0,.39-4.25c.33-6.18.3-6.25.42-6.94.23-1.38,2.3-5.84,3.5-8.09"/>
      <line class="cls-1" x1="234.26" y1="378.27" x2="333.57" y2="378.32"/>
      <line class="cls-1" x1="203.84" y1="283.89" x2="234.26" y2="378.27"/>
      <line class="cls-1" x1="333.57" y1="378.32" x2="364.18" y2="284.17"/>
      <polyline class="cls-1" points="351.06 413.24 367.51 413.07 367.51 422.54 459.95 422.54"/>
      <line class="cls-1" x1="203.84" y1="283.89" x2="112.35" y2="193.28"/>
      <line class="cls-1" x1="283.76" y1="225.77" x2="203.84" y2="283.89"/>
      <path class="cls-1" d="M283.76,225.77l38.4,27.89,42,30.51"/>
      <path class="cls-1" d="M364.18,284.17H393V298l27.16-.07,105.4-.24"/>
      <line class="cls-1" x1="322.16" y1="253.66" x2="414.02" y2="108.53"/>
      <polyline class="cls-1" points="420.17 297.95 420.18 253.66 484.35 148.86"/>
      <path class="cls-1" d="M283.76,225.77c-.16-.33-.41-.83-.74-1.43-.72-1.35-.84-1.43-1-1.86-.39-.93-.21-1.48-.16-3.37a13.31,13.31,0,0,0-.08-3.27c-.48-1.47-1.8-1.71-5.78-3.91-3.81-2.1-4.63-3-5-4.11a4.61,4.61,0,0,1-.21-1.55,2.17,2.17,0,0,1,.43-1.13c.46-.56,1.21-.5,1.81-.66a11.84,11.84,0,0,0,4.27-2.36c1.09-.89,1.28-1.37,2.19-1.62a4.05,4.05,0,0,1,2,0c1.8.35,2.15,1,3.69,1.48a7.38,7.38,0,0,0,3.35.16,7.66,7.66,0,0,0,3.88-2.12,7.94,7.94,0,0,0,2.1-3,7.57,7.57,0,0,0,.29-4.63,9.22,9.22,0,0,0-3.66-4.89,16.44,16.44,0,0,1-3.13-2.4,3.86,3.86,0,0,1-1.08-1.56c-.33-1.08.18-1.8.52-3.21a17.43,17.43,0,0,0,.14-4.37c-.08-2.84-.41-3.14-.08-4.36a8.83,8.83,0,0,1,1.86-3.12,35.81,35.81,0,0,1,3.77-4.09c1.37-1.31,1.77-1.55,2.06-2.33a5.28,5.28,0,0,0-.21-3.48,27.31,27.31,0,0,0-2.6-5.77c-2.2-3.92-3.3-5.88-3.44-6.1a6.54,6.54,0,0,1-1.4-3.23,7.12,7.12,0,0,1,1-3.54c.82-1.64,1.37-1.51,1.81-2.73.16-.43.25-.89.13-3.73-.11-2.43-.19-2.47-.21-3.79a13,13,0,0,1,.36-4.28,9.52,9.52,0,0,1,1.85-3.39,5.51,5.51,0,0,1,1.81-1.63,5.11,5.11,0,0,1,5.13.55c1.11.86.91,1.64,2.14,2.31a4.07,4.07,0,0,0,2.61.41c1.22-.24,1.92-1.07,3-2.31s1.6-1.89,1.68-2.83c.14-1.57-1-2.8-1.87-3.69a6.46,6.46,0,0,0-3.31-2.06c-1.41-.31-1.67.25-2.79-.13-1.29-.43-2-1.55-2.9-2.91a18,18,0,0,1-1.35-2.63c-.28-.6-.26-.61-1-2.37a17.82,17.82,0,0,1-.9-2.25,6.14,6.14,0,0,1,.33-3.34c.49-1.4,1.19-2.15,2.64-3.83,3.5-4,2.82-3.6,4.26-5a22.49,22.49,0,0,1,4.62-4c2.47-1.47,3.94-1.47,4.8-3.1a4.39,4.39,0,0,0,.39-3,6.57,6.57,0,0,0-1.87-2.94c-.4-.35-.73-.56-.75-.94,0-.16,0-.65,1.27-1.42a8.6,8.6,0,0,1,3.21-1.18,27.93,27.93,0,0,1,6.62-.09,44,44,0,0,1,6,1.32,46.25,46.25,0,0,1,6.23,1.83,16.14,16.14,0,0,0,5.08,1.62,2.46,2.46,0,0,0,2.09-.41c.33-.37.29-.81.35-1.77a13.72,13.72,0,0,1,.43-3,9.85,9.85,0,0,1,1.8-3c.66-.88,1.25-1.56,1.67-2"/>
      <polyline class="cls-1" points="270.79 206.27 270.68 162.85 130.45 162.59"/>
    </g>
  </g>
</svg>
