<?xml version="1.0" encoding="UTF-8" standalone="no"?>
<svg
   xmlns:dc="http://purl.org/dc/elements/1.1/"
   xmlns:cc="http://creativecommons.org/ns#"
   xmlns:rdf="http://www.w3.org/1999/02/22-rdf-syntax-ns#"
   xmlns:svg="http://www.w3.org/2000/svg"
   xmlns="http://www.w3.org/2000/svg"
   id="svg48"
   version="1.1"
   viewBox="0 0 576.88 623.51">
  <metadata
     id="metadata52">
    <rdf:RDF>
      <cc:Work
         rdf:about="">
        <dc:format>image/svg+xml</dc:format>
        <dc:type
           rdf:resource="http://purl.org/dc/dcmitype/StillImage" />
        <dc:title></dc:title>
      </cc:Work>
    </rdf:RDF>
  </metadata>
  <defs
     id="defs4">
    <style
       id="style2">
      .cls-1 {
        fill: none;
        stroke: #231f20;
        stroke-miterlimit: 10;
      }
    </style>
  </defs>
  <g
     data-name="Layer 2"
     id="Layer_2">
    <path
       d="m 270.79,206.27 -0.11,-43.42 -140.26684,-0.26968 M 283.76,225.77 c -0.16,-0.33 -0.41,-0.83 -0.74,-1.43 -0.72,-1.35 -0.84,-1.43 -1,-1.86 -0.39,-0.93 -0.21,-1.48 -0.16,-3.37 0.10788,-1.08914 0.081,-2.18743 -0.08,-3.27 -0.48,-1.47 -1.8,-1.71 -5.78,-3.91 -3.81,-2.1 -4.63,-3 -5,-4.11 -0.15778,-0.50093 -0.2288,-1.02514 -0.21,-1.55 0.0334,-0.4098 0.18251,-0.80168 0.43,-1.13 0.46,-0.56 1.21,-0.5 1.81,-0.66 1.57173,-0.48171 3.02593,-1.28543 4.27,-2.36 1.09,-0.89 1.28,-1.37 2.19,-1.62 0.65618,-0.1672 1.34382,-0.1672 2,0 1.8,0.35 2.15,1 3.69,1.48 1.08959,0.30972 2.23585,0.36447 3.35,0.16 1.4736,-0.30993 2.82316,-1.04732 3.88,-2.12 0.92419,-0.82271 1.64331,-1.85003 2.1,-3 0.57883,-1.47495 0.68026,-3.09435 0.29,-4.63 -0.62897,-1.9985 -1.91984,-3.72319 -3.66,-4.89 -1.13587,-0.67149 -2.18676,-1.47729 -3.13,-2.4 -0.48419,-0.42204 -0.8554,-0.95824 -1.08,-1.56 -0.33,-1.08 0.18,-1.8 0.52,-3.21 0.22991,-1.44502 0.27694,-2.91323 0.14,-4.37 -0.08,-2.84 -0.41,-3.14 -0.08,-4.36 0.39708,-1.15766 1.03048,-2.22014 1.86,-3.12 1.14872,-1.45902 2.40919,-2.82648 3.77,-4.09 1.37,-1.31 1.77,-1.55 2.06,-2.33 0.32603,-1.15032 0.252,-2.37724 -0.21,-3.48 -0.64013,-2.01759 -1.51266,-3.95392 -2.6,-5.77 -2.2,-3.92 -3.3,-5.88 -3.44,-6.1 -0.75312,-0.92847 -1.23733,-2.04561 -1.4,-3.23 0.0175,-1.24722 0.36234,-2.46797 1,-3.54 0.82,-1.64 1.37,-1.51 1.81,-2.73 0.16,-0.43 0.25,-0.89 0.13,-3.73 -0.11,-2.43 -0.19,-2.47 -0.21,-3.79 -0.11814,-1.43676 0.004,-2.88316 0.36,-4.28 0.37858,-1.24453 1.0082,-2.39826 1.85,-3.39 0.47418,-0.67156 1.09262,-1.2285 1.81,-1.63 1.68381,-0.75677 3.64488,-0.54651 5.13,0.55 1.11,0.86 0.91,1.64 2.14,2.31 0.8002,0.4231 1.71861,0.56737 2.61,0.41 1.22,-0.24 1.92,-1.07 3,-2.31 1.08,-1.24 1.6,-1.89 1.68,-2.83 0.14,-1.57 -1,-2.8 -1.87,-3.69 -0.86485,-1.01116 -2.02085,-1.7306 -3.31,-2.06 -1.41,-0.31 -1.67,0.25 -2.79,-0.13 -1.29,-0.43 -2,-1.55 -2.9,-2.91 -0.52135,-0.83817 -0.97287,-1.7178 -1.35,-2.63 -0.28,-0.6 -0.26,-0.61 -1,-2.37 -0.35071,-0.72871 -0.6514,-1.48045 -0.9,-2.25 -0.20233,-1.12237 -0.0881,-2.27892 0.33,-3.34 0.49,-1.4 1.19,-2.15 2.64,-3.83 3.5,-4 2.82,-3.6 4.26,-5 1.35084,-1.537323 2.90518,-2.883077 4.62,-4 2.47,-1.47 3.94,-1.47 4.8,-3.1 0.48134,-0.922207 0.61955,-1.985377 0.39,-3 -0.34737,-1.13044 -0.99343,-2.146162 -1.87,-2.94 -0.4,-0.35 -0.73,-0.56 -0.75,-0.94 0,-0.16 0,-0.65 1.27,-1.42 0.98021,-0.604269 2.07179,-1.005536 3.21,-1.18 2.19529,-0.292356 4.41757,-0.322569 6.62,-0.09 2.02831,0.299667 4.0332,0.740742 6,1.32 2.11698,0.463291 4.19877,1.074798 6.23,1.83 1.59181,0.817907 3.30856,1.365376 5.08,1.62 0.72279,0.187631 1.49167,0.0368 2.09,-0.41 0.33,-0.37 0.29,-0.81 0.35,-1.77 0.0321,-1.012811 0.17632,-2.018948 0.43,-3 0.41618,-1.099398 1.02579,-2.115421 1.8,-3 0.66,-0.88 1.21555,-1.560181 1.63555,-2.000181 M 420.17,297.95 420.18,253.66 484.38321,148.8053 M 322.16,253.66001 414.03543,108.46368 M 364.18,284.17 H 393 V 298 l 27.17,-0.05 105.37381,-0.25578 M 283.76,225.77 l 38.4,27.89 42.02,30.51 M 283.76001,225.77001 203.84,283.89002 m 0,0 -91.52031,-90.63777 M 351.02,413.24 l 16.49,-0.17 v 9.47 l 92.28426,-1.6e-4 M 333.57001,378.32001 364.17999,284.17002 M 203.84,283.89002 234.25999,378.27 m 0,0 99.31002,0.05 m 3.77999,60.71 c 0,-0.65 -0.09,-1.62 -0.1,-2.75 -0.0296,-0.86027 -0.0129,-1.72152 0.05,-2.58 0.33,-2.62 3.06,-4.45 4.89,-5.67 2.84,-1.9 3.25,-1.18 5,-2.71 1.80585,-1.61237 3.08464,-3.73091 3.67,-6.08 0.63775,-1.94153 0.69336,-4.02724 0.16,-6 -0.64,-2.12 -1.88,-3.36 -3.49,-5 -1.53359,-1.74033 -3.48481,-3.06179 -5.67,-3.84 -1.47848,-0.65163 -3.13102,-0.79578 -4.7,-0.41 -1.25244,0.50161 -2.47452,1.07592 -3.66,1.72 -0.9,0.46 -1.26,0.68 -1.81,0.61 -1.11,-0.14 -1.81,-1.31 -2.3,-2.14 -0.59308,-0.92338 -0.93755,-1.98433 -1,-3.08 -0.05,-1.36 0.41,-1.89 0.81,-3.53 0.27109,-1.40016 0.40174,-2.82389 0.39,-4.25 0.33,-6.18 0.3,-6.25 0.42,-6.94 0.23,-1.38 2.36001,-5.80999 3.56001,-8.05999 M 395.10134,545.3791 343.01,545.48 l -2.94,-58.43 -2.72,-48.02 m -152.96,14.75 21.45,0.03 v 32.58 l 134.23,0.66 m -226.72,-144.94 16.79,50.13 m 80.89,0 h -80.89 -29.57 l 0.12,12.9 H 88.62 l -0.0087,37.10152 M 0.67,382.52 c 0.9728549,-0.74755 2.0842888,-1.29477 3.27,-1.61 1.29,-0.34 2.11,-0.23 3.11,-1 0.5876014,-0.39742 1.0518722,-0.95177 1.34,-1.6 0.51,-1.23 -0.12,-1.87 0.33,-3 0.3795591,-0.77184 1.0060353,-1.3948 1.78,-1.77 0.72,-0.46 1.61,-0.8 4,-1.09 1.55,-0.18 2.21,-0.16 3.54,-0.25 2.67,-0.17 2.71,-0.44 6.36,-0.86 1.77,-0.2 3.76,-0.36 5.05,-0.47 1.448244,-0.0593 2.887806,-0.25345 4.3,-0.58 1.158942,-0.20749 2.26424,-0.6462 3.25,-1.29 0.781751,-0.53099 1.417826,-1.24958 1.85,-2.09 0.76,-1.6 0,-2.43 0.78,-4 0.368215,-0.71973 0.911551,-1.33528 1.58,-1.79 1.23,-0.83 1.93,-0.4 4.56,-1 1.023873,-0.25691 2.026756,-0.5912 3,-1 1.147629,-0.41583 2.234053,-0.98427 3.23,-1.69 0.866149,-0.66921 1.660414,-1.42661 2.37,-2.26 1.41,-1.49 1.85,-2.05 2.61,-2.88 1.558306,-1.55183 3.197241,-3.02053 4.91,-4.4 2.07,-1.76 3.11,-2.64 3.76,-3.08 3.112345,-2.26531 6.850877,-3.50916 10.7,-3.56 2.36,-0.08 4.63,0.14 10.38,1.48 6.78,1.57 7.12,2.07 10.74,2.47 2.482474,0.31043 4.99573,0.28015 7.47,-0.09 1.56527,-0.23057 3.10313,-0.61922 4.59,-1.16 v 0 c 2,-1.13 3.25,-1.19 3.82,-1.84 0.57,-0.65 0.38,-1.27 0.43,-2.86 0.10145,-1.99901 0.43707,-3.97921 1,-5.9 0.94954,-1.92675 2.02174,-3.79058 3.21,-5.58 0.87827,-1.55238 1.88159,-3.03061 3,-4.42 0.79637,-1.12274 1.79305,-2.08891 2.94,-2.85 2.07,-1.22 4.25,-1 6.23,-0.75 3.38154,0.22567 6.61454,1.47422 9.27,3.58 3.49,3 3,5.62 6.83,7.56 1.20755,0.65768 2.54691,1.03694 3.92,1.11 2.94,0.12 5.2,-1.35 7.2,-2.65 0.53,-0.34 1.75,-1.38 4.17,-3.46 3.22,-2.76 3.76,-3.36 4.17,-4.34 0.47807,-1.43847 0.64176,-2.96282 0.48,-4.47 -0.05,-3.14 -0.74,-4.05 0,-5.25 0.53,-0.87 1.23,-0.93 3.06,-1.88 1.694,-0.76589 3.25389,-1.79907 4.62,-3.06 1.04845,-0.87858 1.8541,-2.01131 2.34,-3.29 0.29055,-1.15705 0.42839,-2.34716 0.41,-3.54 0.14,-2.49 -0.06,-2.8 0.28,-3.67 0.41058,-1.14139 1.25004,-2.07771 2.34,-2.61 1.85,-0.74 4.12,0.39 7.05,1.86 0.87597,0.51856 1.8325,0.88697 2.83,1.09 1.04036,0.20043 2.11358,0.149 3.13,-0.15 1.13386,-0.27713 2.13502,-0.94222 2.83,-1.88 0.73,-1.09 0.26,-1.64 0.9,-2.95 0.25,-0.53 0.51,-0.81 2.62,-2.61 2.6,-2.2 3.06,-2.51 3.73,-3.37 0.83,-1.08 1.26,-1.17998 1.5,-1.87998 m -45.90104,205.43237 c 0.5,-0.07 1.26104,-0.15239 2.25104,-0.26239 1.2469,-0.1739 2.50187,-0.28404 3.76,-0.33 1.45,0 2.06,0.13 2.82,-0.34 0.43783,-0.23302 0.7886,-0.60133 1,-1.05 0.31416,-0.73522 0.2312,-1.57995 -0.22,-2.24 -0.42,-0.58 -0.82,-0.41 -1.32,-1.08 -0.30369,-0.4278 -0.48988,-0.92776 -0.54,-1.45 -0.0668,-0.72373 0.0609,-1.45218 0.37,-2.11 0.5884,-1.71182 1.54796,-3.27239 2.81,-4.57 0.67042,-0.75571 1.4868,-1.36799 2.4,-1.8 1.34596,-0.54749 2.81923,-0.70348 4.25,-0.45 2.6,0.33 3.22,1.37 5.29,1.07 0.75019,-0.0616 1.45635,-0.3794 2,-0.9 0.75496,-0.73349 0.96714,-1.86246 0.53,-2.82 -0.27,-0.37 -0.5,-0.21 -1.47,-0.78 -0.61966,-0.26976 -1.13536,-0.73284 -1.47,-1.32 -0.16576,-0.46113 -0.20715,-0.95779 -0.12,-1.44 v -2.56 l 0.06,-3.12 c -0.037,-0.51151 0.0137,-1.02558 0.15,-1.52 0.2383,-0.66756 0.6614,-1.25366 1.22,-1.69 0.76,-0.59 1.09,-0.36 1.63,-0.92 0.38731,-0.46283 0.63986,-1.02327 0.73,-1.62 0.19914,-0.73051 0.30663,-1.48295 0.32,-2.24 0,-3.38 0,-5.08 0.14,-6.3 0.28,-2.63 1,-4.27 0.19,-5.38 -0.25651,-0.28596 -0.44157,-0.62867 -0.54,-1 -0.1,-0.48 0,-0.77 0.31,-1.9 0.42,-1.59 0.39,-1.8 0.29,-2 -0.27,-0.53 -0.81,-0.35 -1.27,-0.89 -0.46,-0.54 -0.39,-1.73 -0.21,-2.73 0.15533,-0.95186 0.52086,-1.85714 1.07,-2.65 0.69346,-0.95014 1.61517,-1.71021 2.68,-2.21 1.02146,-0.49911 2.12054,-0.82038 3.25,-0.95 1.29819,-0.18361 2.60924,-0.26054 3.92,-0.23 2.25112,-0.20232 4.42134,-0.93944 6.33,-2.15 2.0568,-1.21995 3.90656,-2.75916 5.48,-4.56 0.72667,-0.64719 1.32684,-1.42368 1.77,-2.29 0.70705,-1.39204 0.85723,-3.00116 0.42,-4.5 -0.25,-0.69 -0.43,-0.62 -0.71,-1.44 -0.37288,-0.95875 -0.41511,-2.01453 -0.12,-3 0.25841,-0.58171 0.64871,-1.09527 1.14,-1.5 1.07159,-1.28022 1.81016,-2.80544 2.15,-4.44 0.50197,-1.79411 0.67809,-3.66371 0.52,-5.52 -0.17,-3.37 -0.17,-5.9 -0.17,-5.9 0,0 1,-0.28 2.52,-0.6 1.76752,-0.44276 3.47617,-1.09399 5.09,-1.94 2.05,-1.05 1.76,-1.58 5.2,-4.42 1.78998,-1.43297 3.65603,-2.76825 5.59,-4 1.82,-1.19 3.47999,-2.26 4.82999,-3.01 M 576.22,201.47 484.38321,148.8053 414.03543,108.46368 343.87555,68.229819 225.96,0.61 130.41316,162.58032 112.31969,193.25225 0.67,382.52 88.611297,442.24152 157.93896,489.32239 354.37,622.72 395.10134,545.3791 459.79426,422.53984 525.54381,297.69422 Z"
       transform="translate(0,0.07)"
       style="fill:none;stroke:#231f20;stroke-miterlimit:10"
       id="polyline44" />
  </g>
</svg>
