<?xml version="1.0" encoding="UTF-8" standalone="no"?>
<svg
   xmlns:dc="http://purl.org/dc/elements/1.1/"
   xmlns:cc="http://creativecommons.org/ns#"
   xmlns:rdf="http://www.w3.org/1999/02/22-rdf-syntax-ns#"
   xmlns:svg="http://www.w3.org/2000/svg"
   xmlns="http://www.w3.org/2000/svg"
   id="svg28"
   version="1.1"
   viewBox="0 0 540.3574 350.78201">
  <metadata
     id="metadata32">
    <rdf:RDF>
      <cc:Work
         rdf:about="">
        <dc:format>image/svg+xml</dc:format>
        <dc:type
           rdf:resource="http://purl.org/dc/dcmitype/StillImage" />
        <dc:title></dc:title>
      </cc:Work>
    </rdf:RDF>
  </metadata>
  <defs
     id="defs4">
    <style
       id="style2">
      .cls-1 {
        fill: #007bce;
      }

      .cls-2, .cls-4, .cls-5 {
        fill: none;
        stroke-miterlimit: 10;
      }

      .cls-2 {
        stroke: #005dab;
        stroke-width: 151.9559px;
      }

      .cls-3 {
        fill: #005dab;
      }

      .cls-4 {
        stroke: #fff;
        stroke-width: 109.84764px;
      }

      .cls-5 {
        stroke: #ff7f00;
        stroke-width: 69.57017px;
      }

      .cls-6 {
        fill: #15296d;
      }

      .cls-7 {
        fill: #fff;
      }
    </style>
  </defs>
  <g
     data-name="Layer 2"
     id="Layer_2">
    <g
       data-name="Layer 3"
       id="Layer_3">
      <g
         id="g24">
        <rect
           id="rect6"
           height="350.78201"
           width="540.3574"
           class="cls-1" />
        <line
           id="line8"
           y2="175.39104"
           x2="540.3574"
           y1="175.39104"
           class="cls-2" />
        <polygon
           id="polygon10"
           points="98.527 350.782 217.755 0 21.669 0 21.669 350.782 98.527 350.782"
           class="cls-3" />
        <polygon
           id="polygon12"
           points="98.527 0 217.755 350.782 21.669 350.782 21.669 0 98.527 0"
           class="cls-3" />
        <line
           id="line14"
           y2="175.39104"
           x2="540.3574"
           y1="175.39104"
           class="cls-4" />
        <line
           id="line16"
           y2="175.39104"
           x2="540.3574"
           y1="175.39104"
           class="cls-5" />
        <polygon
           id="polygon18"
           points="76.859 350.782 196.087 0 0 0 0 350.782 76.859 350.782"
           class="cls-6" />
        <polygon
           id="polygon20"
           points="76.859 0 196.087 350.782 0 350.782 0 0 76.859 0"
           class="cls-6" />
        <polygon
           id="polygon22"
           points="31.139 175.391 63.493 164.879 63.493 130.86 83.489 158.382 115.842 147.869 95.847 175.391 115.842 202.913 83.489 192.4 63.493 219.922 63.493 185.903 31.139 175.391"
           class="cls-7" />
      </g>
    </g>
  </g>
</svg>
