<?xml version="1.0" encoding="UTF-8" standalone="no"?>
<!-- Created with Inkscape (http://www.inkscape.org/) -->

<svg
   width="1500mm"
   height="1000mm"
   viewBox="0 0 1500 1000"
   version="1.1"
   id="svg5"
   xmlns="http://www.w3.org/2000/svg"
   xmlns:svg="http://www.w3.org/2000/svg">
  <defs
     id="defs2" />
  <g
     id="layer4">
    <rect
       style="fill:#ffffff;fill-opacity:1;stroke-width:1.143"
       id="rect3253"
       width="1500"
       height="1000"
       x="0"
       y="0" />
  </g>
  <g
     id="layer1">
    <g
       id="g1748"
       transform="matrix(1.4908269,0,0,1.4981799,6.7528035,2.4208286)"
       style="display:inline">
      <path
         id="path20915"
         style="fill:#ffb900;fill-opacity:1;stroke-width:0;stroke-miterlimit:4;stroke-dasharray:none"
         d="m 499.17885,297.67215 a 33.344715,33.344715 0 0 0 -33.34006,33.34472 33.344715,33.344715 0 0 0 33.34006,33.34475 z" />
      <path
         id="path21470"
         style="fill:#00247d;fill-opacity:1;stroke-width:0;stroke-miterlimit:4;stroke-dasharray:none"
         d="m 499.17885,297.67215 v 66.68947 a 33.344715,33.344715 0 0 0 0.005,0 33.344715,33.344715 0 0 0 33.34472,-33.34475 33.344715,33.344715 0 0 0 -33.34472,-33.34472 33.344715,33.344715 0 0 0 -0.005,0 z" />
      <path
         style="display:inline;fill:#00237b;stroke-width:1.20458"
         d="m 498.84712,388.17668 8.62247,-1.47801 c 18.59629,-3.18764 33.20247,-14.15533 41.67657,-31.29466 4.46779,-9.03637 4.52024,-9.31082 4.52024,-23.65697 0,-14.27747 -0.0735,-14.66841 -4.49976,-23.93462 -8.06154,-16.87656 -23.50148,-28.44163 -41.82039,-31.325 l -8.49913,-1.33776 v -18.11833 c 9.10265,4.98128 17.68115,8.90594 27.08128,9.26744 l 10.69075,0.35145 4.95338,8.43038 c 4.31705,7.3474 6.06979,9.0999 13.6441,13.64215 l 8.69072,5.21178 v 9.64007 c 0,9.0359 0.31653,10.22389 5.05054,18.95573 l 5.05053,9.31567 -5.05053,8.75655 c -4.82739,8.36967 -5.05053,9.20053 -5.05053,18.80549 v 10.04894 l -8.73495,4.99877 c -7.92147,4.53327 -9.21327,5.8307 -13.87136,13.93207 l -5.13644,8.93329 h -10.55934 c -10.77554,-1.19598 -19.13955,5.31609 -26.75515,9.89245 z"
         id="path27812" />
      <path
         style="display:inline;fill:#fdb700;stroke-width:1.20458"
         d="m 490.02345,402.11716 c -7.84644,-4.57739 -8.69787,-4.79781 -18.6747,-4.83471 l -10.45344,-0.0387 -5.09791,-8.92758 c -4.56683,-7.99754 -5.97887,-9.44189 -13.55422,-13.86437 l -8.4563,-4.9368 -0.005,-9.88268 c -0.004,-7.34651 -0.55849,-10.80988 -2.16325,-13.4957 -1.18732,-1.98716 -3.593,-6.09364 -5.34596,-9.12551 l -3.1872,-5.51248 5.04925,-8.33743 c 4.70061,-7.76173 5.09085,-9.08244 5.65167,-19.12717 l 0.60241,-10.78976 8.18343,-4.6932 c 7.30996,-4.19229 8.72454,-5.64233 13.25301,-13.58534 l 5.06958,-8.89214 10.09264,-0.0128 c 13.37287,-0.48617 16.34942,-3.69794 27.85966,-9.02946 v 18.11833 l -8.49913,1.33776 c -37.35433,5.87951 -57.87894,45.05274 -41.61283,79.42213 7.74832,16.37179 22.87702,27.59871 41.48949,30.78912 l 8.62247,1.47801 c 0,4.40966 0.003,13.22068 0.003,19.03688 -0.16567,-0.012 -4.30516,-2.45857 -8.82685,-5.0964 z"
         id="path28158" />
    </g>
  </g>
  <g
     id="layer3">
    <path
       style="fill:#ffb900;fill-opacity:1;stroke-width:4.32"
       id="path1995"
       d="m -135.82531,1522.0826 -1e-5,-2536.9092 2197.02782,1268.45457 z"
       transform="matrix(0.25736864,0,0,0.29957714,34.957178,424.01886)" />
    <path
       style="fill:#ffb900;fill-opacity:1;stroke-width:4.32"
       id="path1995-2"
       transform="matrix(-0.25736864,0,0,-0.29957714,1465.0428,575.98114)"
       d="m -135.82531,1522.0826 -1e-5,-2536.9092 2197.02782,1268.45457 z" />
    <path
       id="rect2675"
       style="fill:#00247d;stroke-width:1.14454"
       d="M 900.00001,580.00004 1500,1000 H 900.00001 Z" />
    <path
       id="rect2675-1"
       style="fill:#00247d;stroke-width:1.14454"
       d="M 600,420 0,0 h 600 z" />
    <path
       id="rect2675-1-8"
       style="fill:#00247d;stroke-width:1.14454"
       d="M 600,580.00004 0,1000 h 600 z" />
    <path
       id="rect2675-1-8-5"
       style="fill:#00247d;stroke-width:1.14454"
       d="M 900.00005,420 1500,0 H 900.00005 Z" />
  </g>
</svg>
