<svg xmlns="http://www.w3.org/2000/svg" viewBox="0 0 640.65 554.82"><defs><style>.cls-1{fill:none;stroke:#231f20;stroke-miterlimit:10;}</style></defs><g id="Layer_2" data-name="Layer 2"><g id="Districts"><path id="San_Vooperisco" data-name="San Vooperisco" class="cls-1" d="M107.42,119.71.69,322.39,498.75,554.24a71.23,71.23,0,0,0,8.46-7.52,82.76,82.76,0,0,1,6.09-5.9c1.8-1.71,3.54-3.5,5.37-5.17,1.23-1.11,2.58-2.73,4.25-3.13a21.07,21.07,0,0,1,4.21,0,141.07,141.07,0,0,0,17.68-.73,82.75,82.75,0,0,0,9.93-1.44c2.33-.56,4.53-1.06,6.2-2.89a22.76,22.76,0,0,0,3.79-6.94,44.36,44.36,0,0,0,2.56-7.37c.5-2.37.08-4.2-.3-6.56a61.26,61.26,0,0,1-.33-12.41s2.8-9.22,1.67-13.17c-1.44-5-4.89-8.58-7.39-13-1.34-2.35-1.71-5-2.53-7.54-1-3.13.41-6.5,1.56-9.46,2-5.23,6.18-8.16,10.57-11.45a73,73,0,0,0,6.76-5.27,47.42,47.42,0,0,1,4.64-3.71,15.37,15.37,0,0,1,2.31-1.64c2.7-1.32,5.7-2.23,8.46-3.47a10.49,10.49,0,0,0,5.06-4.41c1.63-2.42,3.85-6.09,1.66-8.78-1.44-1.77-4.8-2.82-5.36-5.29-.49-2.18.3-4.56-.13-6.76-.36-1.78-1.46-3.56-1.53-5.37-.19-4.45,3.63-7.3,6.69-10,1-.91,2.65-2.52,4.13-2.62a3.64,3.64,0,0,1,1.41.33c1.6.52,3.09,1.37,4.69,1.9,6.45,2.14,14.11.92,20.26-1.73a20.17,20.17,0,0,0,4.68-2.69A3.4,3.4,0,0,0,635.5,378a13.66,13.66,0,0,0,.18-7.34c-.79-3-3.16-5.77-4.83-8.41a10.86,10.86,0,0,1-2.09-6.44c.08-3.2,1.89-5.79,3.15-8.64.59-1.35,0-2.35.29-3.74.57-2.44,2.83-4.35,3.62-6.71a43.29,43.29,0,0,1,2.62-6.31,15,15,0,0,0,1.68-4.71c.27-2.42-1.21-3.32-3.35-4.1-1.45-.53-3-.8-4.42-1.46-2.24-1.06-2.05-2.59-1.49-4.77.89-3.45,1.41-6.62-.41-9.88-1-1.69-2.23-3.11-2.23-5.17,0-3.09,2.42-6.36,4-8.87a23.56,23.56,0,0,0,2.23-4c.36-1,.1-2,.26-3,.53-3.53,3.64-8.06,1.25-11.42-.89-1.25-2.22-2.29-2.9-3.67-.57-1.17-.76-1.94-2-2.72a55.39,55.39,0,0,0-6.07-3,22.84,22.84,0,0,1-2.27-1.13c-1.16-.72-2.07-1.75-3.24-2.46-4.39-2.63-9.48-3.4-13.76-6.24-2-1.34-3.75-2.9-6-3.8a77.25,77.25,0,0,0-11.49-3.27c-3.37-.73-6.74-1.6-10.12-2.22-4.52-.82-9.29-.33-13.84-.07a66.54,66.54,0,0,0-11.86,1.38c-5,1.22-9.91,4.64-13.52,8.21-2.26,2.24-4.68,4.31-6.88,6.61a16.23,16.23,0,0,0-2.5,3.66,47.54,47.54,0,0,1-6.21,8.32c-.72.81-1.43,1.67-2.21,2.42s-2.89.85-2.82,2c.49,8.85,19.79,13.4,29.86,19.16a45.09,45.09,0,0,0,9.89,4.52,10.36,10.36,0,0,0,3,.41c.82,0-3.77,4.63-6.52,7.69-1.34,1.48-2.15,3.18-3.72,4.48-2,1.62-4.49,3.89-7,4.49a19,19,0,0,1-7.66-.11c-4.23-.7-7.92-3-12.15-3.65-3.91-.6-8-.8-11.91-1.19-4.77-.47-8.9,3.77-12,6.89-2.64,2.66-4.68,6-7.43,8.52-1.52,1.4-4.45,3.28-6.61,3a33.25,33.25,0,0,0-4.72-.83c-2.28-.05-4.57,0-6.84.09s-4.38.48-6.49-.06c-1.82-.46-3.44-2.26-5-3.2-4.55-2.83-10.34-4.16-14.39-7.73-2.48-2.18-4.06-6.49-5.29-9.41-1.1-2.61-2.11-5.27-3.17-7.9-1.28-3.18-3.69-6.31-4-9.84a39.7,39.7,0,0,1,.55-7.13,47.86,47.86,0,0,0,.18-8c-.28-4.16-1.1-8-.51-12.25,1.07-7.49,4.33-14.34,7.28-21.23l2.22.4c1.93-1.89,3.84-4,4.34-6.76.68-3.76-3-5.79-5.7-7.34-3.93-2.22-3.53-6.6-2.38-10.36a22.19,22.19,0,0,1,5.22-9.38,47.51,47.51,0,0,1,13.17-9c1-.49,2-.85,3.07-1.27a24.67,24.67,0,0,0,3.24-1.09,15,15,0,0,0,6.32-6.58c1.32-2.84.33-5.79-.16-8.75a18.16,18.16,0,0,0-5.07-10.06c-.77-.8-1.64-1.53-2.39-2.36a17.22,17.22,0,0,1-1.5-2.65,16,16,0,0,0-3.5-3.66c-.43-.32-1-.35-1.42-.65s-1-.89-1.45-1.26c-.91-.72-1.85-1.43-2.83-2.06-2.78-1.78-2.52-4.33-1-7.12a25.33,25.33,0,0,1,4.45-6.42,29,29,0,0,1,4.13-2.86,24.59,24.59,0,0,1,2.73-1.84c1.46-.77,3-1.25,4.45-2.08a5.63,5.63,0,0,0,2.76-3.3c1.45-3.23,3.41-6.37,1.52-9.81a25.7,25.7,0,0,1-2.27-4.35c-.85-2.61.14-5.7.1-8.39-.05-2.84-1.15-3.92-3-5.94-1.53-1.68-3.27-3.71-3.57-6-.39-3.07.09-6.23.3-9.3.1-1.41.19-2.84.15-4.26a20,20,0,0,0-1.26-5.78c-1.83-5.83-2.05-12-4-17.81A32.84,32.84,0,0,0,455.85,57,19.78,19.78,0,0,1,454,53.59a23.57,23.57,0,0,1-2-4.19c-1.42-6-9-1.64-12.67-.23-1.8.7-3.44,1.68-5.26,2.29-1.2.41-2.37.21-3.58.73a14.62,14.62,0,0,0-6.2,5.27c-1.26,1.87-1.25,3.78-1.22,6a31.74,31.74,0,0,1-.33,7.61c-.76,3.29-4.07,6.85-6.53,9-1.91,1.65-4,3-6.09,4.46a6.3,6.3,0,0,1-2.8,1.38,55.48,55.48,0,0,0-7.06,1.62c-1.58.45-3.16,1-4.74,1.4a10.89,10.89,0,0,1-6.63-.21c-7.92-2.32-14.33-9.12-18.36-16.12-1.94-3.37-2.7-7.1-3.84-10.76a7.8,7.8,0,0,0-1.18-2.47c-.67-.82-1.56-.74-2.29-1.32s-.44-1.64-.34-2.47a52.15,52.15,0,0,1,1.25-5.15,11.48,11.48,0,0,0-.57-7.25,20.51,20.51,0,0,1-2-6.63,17.67,17.67,0,0,0-1-5c-.8-2-2.23-3-3.85-4.29A13.94,13.94,0,0,1,353.6,24c-1.13-1.65-1.27-3.71-1.75-5.58-.39-1.54-.69-3.39-2.26-4.28L346,13.28a43.47,43.47,0,0,0-9.05.44,98.87,98.87,0,0,0-11.69,2.15c-1.35.32-2.85.47-4.15.91-2.94,1-5,4.1-7.3,6.12-1.52,1.34-3.37,2.25-4.85,3.61-1.09,1-1.47,1.67-2.88.76-2.32-1.49-4-4.29-5.52-6.5a28.63,28.63,0,0,0-2.69-3.51c-1-1.06-2.22-1.75-3.3-2.7-1.54-1.33-1.7-2.88-2.47-4.67-1.09-2.53-4.45-3.7-6.57-5.24-1.8-1.31-3.22-3.58-5.46-4s-4.91.43-7.14,1.21a50.61,50.61,0,0,0-7.82,3.39c-4.4,2.44-9.91,6.29-9.88,12,0,1.91.35,5.06,1.84,6.51a3.88,3.88,0,0,0,2.51.76c.85,0,2.07-.64,2.76.05-.16,3.41-5.56,4.57-4.26,8.5.66,2,2.54,3.42,3.7,5.12,2.14,3.13,2.55,7.73,5.3,10.4,1.71,1.66,3.8,2,4,4.74.19,2.94-1.93,5.3-2.56,8-.49,2.13-2,3.55-3.1,5.47a43.59,43.59,0,0,0-2.55,5.12c-.57,1.46-1.63,3.8-.11,5.09,2.48,2.12,6.87-.6,8.74,2.66,1,1.76.57,3.93,3.32,3.07a25.3,25.3,0,0,0,7.22-3.5c2.85-2,5.82-4,9.28-4.78,2.67-.6,5.64-.79,8.14.53,1.59.84,2.71,2.35,4.4,3,1,.37,2.09.57,3.1,1,2.8,1.08,4.39,3.38,5.47,6.08.82,2.06,1.25,4.21,2.42,6.14a7.82,7.82,0,0,0,2.35,2.75,6.22,6.22,0,0,0,2.33,1.46c2,1.51.68,3.76,0,5.64-1.29,3.47-3.56,6.66-4.62,10.19-.43,1.42-1.05,3.28-.52,4.75s1.78,2,2.77,3c2.17,2.15,1.93,5.5,3.49,8,.69,1.1,1.75,1.8,2.46,2.85a5.09,5.09,0,0,1,.64,4.35c-.39,2-1.47,3.6-.7,5.58,1,2.67,1.27,5.45,3.1,7.78,2.23,2.81,5.42,5.06,7,8.31,1.77,3.59.32,8.44-1.62,11.73-2.36,4-6.2,6.78-8.83,10.55-1.07,1.53.37,2.89.82,4.51.55,2,.18,4.54,1.83,6.11a14.16,14.16,0,0,0,3.47,2.1c1.31.65,2.63,1.43,4,2,3.15,1.36,7,1.16,10.35.82,1.39-.14,3.44-.78,4.74-.07.5.27.88.88,1.36,1.17.89.56,2,.45,2.86,1.08,1.5,1.12,1.38,2.88,1.07,4.68a23.81,23.81,0,0,1-5,11.05c-2.61,3.08-5,2.89-8.84,2.51-4.23-.41-8.51.27-12.74-.18-1.52-.16-2.91-.86-4.45-.88a15.25,15.25,0,0,0-6.54,1.61,32.11,32.11,0,0,0-2.89,1.41,14.35,14.35,0,0,0-4.18,4.11c-2.42,3.11-4.68,6.45-6.87,9.74-1,1.48-2.88,3.33-3.05,5.11-.06.58.48-.25.21,1.07s-2.59,3.2-3.87,3.29c-2.17.15-4.45-2-6.1-3.1a104.78,104.78,0,0,0-9.15-5.9c-3.12-1.72-5.69-4-8.6-5.94-3.55-2.4-1.72-7.25-1.16-10.63a2.92,2.92,0,0,0-1.29,1.31c-1.14,1.49-2.35,2.93-3.63,4.3a11.67,11.67,0,0,1-5.88,3.65q-5.81.81-11.58,1.91-5.26,1.25-10.58,2.3c-5.19,1.06-10.68,2.09-15.83.24-2.76-1-5.28-2.34-8.18-3s-6.17-.08-9-1c-2-.67-3.53-2.58-5.11-3.85s-4.56-2.22-4.07-4.68a14.8,14.8,0,0,1,3.24-6.23c.85-1,1.82-1.18,3.11-1.84,2.38-1.22,6.3-3.16,7.28-5.94.64-1.81.1-4.91-.57-6.52-1.87-4.47-7.52-5.54-11.58-7.11a55.35,55.35,0,0,1-9.71-4.37c-2.23-1.44-4.45-2.9-6.66-4.36-3.62-2.23-7.71-4-10.76-7a14.77,14.77,0,0,1-3.43-4.86,6.31,6.31,0,0,0-.92-2.35c-.94,1.1-1.39,1.6-2.94,1.58-2.19,0-4.46-1-6.54-1.57-2.39-.71-4.89-1.17-7.24-2a12.43,12.43,0,0,1-6.27-5.26c-.93-1.43-1.78-2.93-2.84-4.27a6.21,6.21,0,0,1-1.3-2.11,23.69,23.69,0,0,1-.52-5.46q-.21-3.64-.54-7.3c-.33-3.51-.76-7-1.32-10.52a5.11,5.11,0,0,0-1.34-3.31c-2.74-2.62-7.73-1.59-11.12-1-2.65.43-5.27,1.3-8,1.33-2.31,0-3.35-.82-4.71-2.6-.73-1-1.44-2.16-2.79-2.08"/></g></g></svg>