<?xml version="1.0" encoding="UTF-8" standalone="no"?>
<svg
   xmlns:dc="http://purl.org/dc/elements/1.1/"
   xmlns:cc="http://creativecommons.org/ns#"
   xmlns:rdf="http://www.w3.org/1999/02/22-rdf-syntax-ns#"
   xmlns:svg="http://www.w3.org/2000/svg"
   xmlns="http://www.w3.org/2000/svg"
   id="svg9"
   version="1.1"
   viewBox="0 0 905.96 497.86">
  <metadata
     id="metadata13">
    <rdf:RDF>
      <cc:Work
         rdf:about="">
        <dc:format>image/svg+xml</dc:format>
        <dc:type
           rdf:resource="http://purl.org/dc/dcmitype/StillImage" />
        <dc:title></dc:title>
      </cc:Work>
    </rdf:RDF>
  </metadata>
  <defs
     id="defs4">
    <style
       id="style2">.cls-1{fill:none;stroke:#231f20;stroke-miterlimit:10;}</style>
  </defs>
  <path
     style="fill:none;stroke:#000000;stroke-miterlimit:10;stroke-opacity:1"
     id="Ardenti_Terra"
     data-name="Ardenti Terra"
     class="cls-3"
     d="M 905.70229,250.19457 538.15229,0.594565 0.582289,273.75457 l 71.250002,223.59 367.069999,-0.34 v 0 a 15.55,15.55 0 0 1 -2.4,-4.49 c -0.43,-1.39 -1,-2.8 -0.47,-4.23 0.88,-2.19 3.54,-3.6 5.45,-4.78 3.27,-2 6.95,-2.86 10.39,-4.44 a 19.43,19.43 0 0 0 6.53,-5.52 c 0.81,-1 2.77,-2.81 2.26,-4.25 -0.4,-1.1 -1.67,-1.59 -2.07,-2.73 a 9.14,9.14 0 0 1 -0.07,-3.46 48.24,48.24 0 0 1 0.77,-4.79 25.3,25.3 0 0 1 1.31,-5 16.91,16.91 0 0 1 2.79,-4.07 51.76,51.76 0 0 1 4.7,-5.12 92.67,92.67 0 0 1 17.78,-13 12.48,12.48 0 0 1 9.19,-1.34 c 5.79,1.18 11.67,-1.54 16.81,-3.94 6.32,-3 12.54,-6.12 18.82,-9.16 1.16,-0.56 2.3,-1.1 3.42,-1.72 a 30,30 0 0 0 6.15,-4.84 28.88,28.88 0 0 0 6.53,-9 18.46,18.46 0 0 0 1,-4.09 c 0.57,-3.16 3.29,-9.93 3.29,-9.93 0.5,-2.54 1.11,-5.06 1.68,-7.59 0.47,-2.08 1.19,-4.12 1.58,-6.22 a 10,10 0 0 0 -0.05,-1.34 12.1,12.1 0 0 1 0.49,-1.76 c 0.11,-0.48 0.27,-1 0.37,-1.43 a 5.24,5.24 0 0 0 -0.16,-1.67 29.49,29.49 0 0 0 -0.89,-5.93 5.53,5.53 0 0 0 -1.27,-2.2 4.48,4.48 0 0 1 -1.26,-1.58 5.76,5.76 0 0 1 0.3,-3.43 c 0.37,-1.14 0.86,-2.24 1.17,-3.4 0.23,-0.83 0.39,-1.68 0.62,-2.51 0.37,-1.29 0.76,-2.63 1.2,-3.89 a 5.41,5.41 0 0 1 0.82,-1.14 c 0.32,-0.43 0.57,-0.93 0.89,-1.35 0.32,-0.42 0.86,-1.1 1.31,-1.6 a 8.36,8.36 0 0 1 1.41,-1.12 c 1.63,-1.16 3.34,-2.23 5,-3.36 a 21.64,21.64 0 0 0 4.49,-3.82 7.38,7.38 0 0 1 1.21,-1.43 c 0.45,-0.3 1,-0.14 1.53,-0.16 1.55,0 3,-1 4.64,-0.81 a 4.11,4.11 0 0 1 1.54,0.61 5.87,5.87 0 0 0 3.75,0.23 c 1.72,-0.33 3.34,-1 5,-1.43 a 8.72,8.72 0 0 1 1.52,-0.31 c 0.22,0 0.3,0.06 0.53,0 a 5.93,5.93 0 0 0 1.3,-0.67 23,23 0 0 0 3.24,-2.43 c 1.88,-1.55 3.67,-3.24 5.4,-5 a 34.28,34.28 0 0 0 4.14,-4.61 4,4 0 0 0 0.84,-2 3.3,3.3 0 0 0 -0.07,-0.56 3.16,3.16 0 0 1 0,-1.27 28.75,28.75 0 0 1 2.25,-6.56 30.21,30.21 0 0 1 1.91,-3.71 2.28,2.28 0 0 1 1.58,-1.06 42,42 0 0 1 4.85,-1 c 1.73,-0.29 4,-0.69 5.69,0.17 1.23,0.64 1.6,2.39 2.53,3.32 a 3.33,3.33 0 0 0 2.42,0.76 18.57,18.57 0 0 0 4.4,-0.44 c 2.11,-0.42 4.36,-1.15 6.54,-1 1.29,0.08 2.09,0.76 3.25,1.19 a 6.06,6.06 0 0 0 3,0 38.82,38.82 0 0 0 5.21,-1.17 c 2.8,-0.82 5.54,-1.82 8.32,-2.72 1.22,-0.39 2.48,-0.6 3.68,-1 a 26.41,26.41 0 0 0 6.16,-3.17 c 0.57,-0.38 1.52,-0.92 1.48,-1.73 a 2.21,2.21 0 0 0 -0.15,-0.48 2.08,2.08 0 0 1 0.29,-1.55 c 1.7,-3.75 5.08,-6.26 8,-9 1.18,-1.1 2.36,-2.7 0.77,-4 a 3.93,3.93 0 0 0 -1,-0.62 5.19,5.19 0 0 1 -1.07,-0.37 c -0.87,-0.63 0.52,-1.5 1.07,-1.77 a 10.51,10.51 0 0 1 3.57,-1.14 29.23,29.23 0 0 1 4.83,0.59 c 1.46,0.15 3.32,-0.09 4.68,0.58 1.21,0.59 1.21,2 1.53,3.11 a 4.53,4.53 0 0 0 1.81,2.41 8.88,8.88 0 0 1 2.19,2.72 6.57,6.57 0 0 0 2,2.67 c 1.21,0.79 2.79,0.58 4.08,1.16 1.13,0.5 1.83,1.48 3.17,1.47 a 17.41,17.41 0 0 0 2.51,-0.33 c 0.66,-0.12 2,-0.65 2.62,-0.28 l 0.29,0.1 a 1.62,1.62 0 0 1 0.06,1.36 c -0.25,1.29 -0.68,2.52 -0.85,3.83 a 5.68,5.68 0 0 0 0.08,2.17 c 0.28,1 1.33,1.61 2.12,2.15 a 7.42,7.42 0 0 1 1.52,1.21 20.78,20.78 0 0 1 1.72,3.1 4.48,4.48 0 0 0 1.18,1.51 8.29,8.29 0 0 0 2.31,0.88 27.47,27.47 0 0 1 3.87,1.85 c 2.18,1 4.87,-0.05 7,-0.79 0.8,-0.29 1.58,-0.64 2.37,-0.95 a 4.94,4.94 0 0 0 1.28,-0.58 11.53,11.53 0 0 0 1.18,-1.24 44.46,44.46 0 0 0 3.4,-4 c 0.37,-0.5 1.13,-1.34 1.16,-2 a 2.86,2.86 0 0 0 -0.85,-1.93 c -1.45,-1.93 -0.11,-4.68 0.55,-6.66 0.56,-1.72 1.11,-3.49 1.84,-5.16 1,-2.28 3,-4.06 4.6,-5.94 a 17,17 0 0 1 4.29,-3.63 c 2.18,-1.37 6.46,-2.18 6.46,-2.18 5.72,-2.9 11.73,-5.09 17.38,-8.15 3.3,-1.8 6.77,-3.19 10,-5 2.9,-1.57 4.94,-4.15 7.3,-6.39 a 27.39,27.39 0 0 1 4.12,-3 5.4,5.4 0 0 1 1.61,-0.76 9.15,9.15 0 0 1 3.21,-0.46 c 0.75,0.15 1.19,0.8 1.75,1.23 0.56,0.43 1.34,0.8 1.94,1.27 0.83,0.65 1.47,1.48 2.3,2.13 1.61,1.25 2.44,0.75 4.21,0 2.25,-1 4.76,-1 7.12,-1.68 a 29.5,29.5 0 0 0 7.24,-3.33 22.18,22.18 0 0 1 5.08,-2.23 8.65,8.65 0 0 0 2.93,-1.9 c 1.86,-1.53 3.65,-3.16 5.45,-4.74 1.8,-1.58 3.3,-3.62 5.16,-5.11 0.9,-0.71 1.27,-1.41 2.12,-2.16 1.28,-1.13 3.3,-2.93 5.09,-3.16 1,-0.12 1.09,0.19 2,0.49 a 23.82,23.82 0 0 0 5.1,0.64 c 5,0.44 12,-0.65 15.8,3.42 2.07,2.23 3.14,5.38 3.87,8.23 0.39,1.53 1.41,3.1 1.42,4.71 0,2 -0.92,3.89 -0.74,5.91 0.29,3.31 4.63,2.1 6.79,1.85 a 8.7,8.7 0 0 1 5.54,0.91 c 2.17,1.1 4.36,0.77 6.65,0.16 a 76.31,76.31 0 0 0 12.15,-4.88" />
  <g
     style="fill:none;stroke:#000000;stroke-opacity:1"
     transform="translate(-2626.4177,-1672.2454)"
     id="Ardenti_Terra_Counties"
     data-name="Ardenti Terra Counties">
    <path
       style="fill:none;stroke:#000000;stroke-opacity:1"
       class="cls-3"
       d="m 2865.94,1824.61 c 0,2 -0.05,4.54 0,7.59 0.05,2.68 0.13,5.93 0.49,10.08 0.15,1.72 0.15,1.34 1,8.54 0.85,7.2 0.88,7.86 1.29,9.54 0.62,2.6 0.94,2.78 2.53,7.68 1.22,3.8 1.39,4.8 2.44,8.31 2,6.6 2.6,7.13 4.43,12.94 1.92,6.08 2.88,9.11 3.39,13.37 a 67.07,67.07 0 0 1 -0.06,14.55 c -0.32,3.63 -0.52,3.34 -1,8.2 -0.18,2 -0.23,2.91 -0.75,11.69 -0.36,6.19 -0.38,6.44 -0.39,7.33 0,5.6 0.61,6.44 0.45,10 -0.06,1.21 -0.17,2 -2.31,10.28 -1.92,7.49 -2.39,9.08 -3.17,12.69 -1.35,6.34 -1.42,8.51 -1.41,9.86 a 24.38,24.38 0 0 0 1.28,8.39 c 0.82,2.38 1.94,4.06 4.16,7.42 3.59,5.42 3.88,4.5 5.53,7.67 2,3.79 2.09,6.1 4.39,7.11 1.09,0.47 2.09,0.41 3.28,1.44 1.19,1.03 1,1.7 1.86,2.86 1.24,1.75 2.37,1.47 5.73,3.52 1.94,1.17 1.48,1.21 4.66,3.4 2.88,2 3.06,1.81 4.92,3.16 1.63,1.18 2.29,1.9 5.83,5.28 3.25,3.12 4.88,4.68 5.22,5 4.48,3.52 6.06,2.67 9.83,6 2.11,1.9 1.84,2.37 4.45,4.59 a 18.19,18.19 0 0 0 6.09,3.9 c 2.28,0.79 2.6,0.21 5.83,1.11 a 28,28 0 0 1 5.1,2 36.32,36.32 0 0 1 6,4.13 c 1.78,1.35 4.22,2.84 9.11,5.84 1.75,1.07 3.88,2.31 8.14,4.8 8,4.71 8.87,5.11 9.69,5.48 2.6,1.17 2.16,0.71 9.56,3.44 3.23,1.19 4,1.55 8.75,3.28 a 59.7,59.7 0 0 0 8.27,2.64 c 2.06,0.45 2.14,0.32 4.37,0.83 a 76.74,76.74 0 0 1 7.38,2.22 c 7.37,2.42 6.75,2.18 7.31,2.39 5.07,1.88 5.93,2.72 9.14,3.25 2.27,0.38 2,0 4.94,0.33 3.5,0.42 4.91,1.09 10.11,2.45 5.2,1.36 4.34,0.84 7.17,1.69 a 63.59,63.59 0 0 1 10.2,4.23 c 1.53,0.75 4.17,2.05 7.38,4 a 80.18,80.18 0 0 1 12.21,9.21"
       id="path164" />
    <path
       style="fill:none;stroke:#000000;stroke-opacity:1"
       class="cls-3"
       d="m 2808,2169.28 a 38.17,38.17 0 0 0 -2.32,-6.39 c -0.91,-2 -2,-3.84 -2.81,-5.28 -1.81,-3.16 -2.15,-3.37 -2.64,-4.77 a 22.55,22.55 0 0 1 -0.84,-5.43 c -0.34,-3.78 -0.18,-4.44 -0.5,-7.61 -0.32,-3.17 -0.5,-2.66 -0.75,-5.44 -0.32,-3.65 0,-5 -0.77,-8 a 7.83,7.83 0 0 0 -1.75,-3.69 c -0.8,-0.89 -1.17,-0.79 -2.1,-1.65 -1.61,-1.48 -1.15,-2.35 -2.73,-4.58 a 18.07,18.07 0 0 0 -3.58,-3.63 c -1.38,-1.06 -1.86,-1.11 -2.44,-2 -0.85,-1.25 -0.42,-2 -0.9,-3.93 -0.48,-1.93 -1.27,-3 -2.71,-5 -1.53,-2.19 -1.79,-1.87 -2.91,-3.61 -1.61,-2.48 -1,-3.05 -2.48,-5.37 -1.57,-2.51 -2.42,-2.12 -4,-4.69 a 21.12,21.12 0 0 1 -2.09,-5.1 24.42,24.42 0 0 1 -1.35,-5.65 c -0.19,-2.06 0.07,-2.83 -0.48,-4.6 a 16,16 0 0 0 -1.29,-2.86 c -1.09,-2.07 -1.49,-2.25 -2.21,-3.75 a 23.49,23.49 0 0 1 -1.23,-3.71 44.83,44.83 0 0 1 -1.16,-4.89 c -0.27,-1.5 -0.4,-2.94 -0.67,-5.82 a 22.28,22.28 0 0 0 -0.52,-4.2 37.22,37.22 0 0 0 -1.59,-3.84 29.83,29.83 0 0 1 -1.5,-4.16 26.87,26.87 0 0 1 -0.52,-4.42 c -0.27,-3.8 -0.09,-3.73 -0.29,-6.54 -0.27,-3.83 -0.66,-4.68 0.06,-5.86 0.45,-0.72 1.13,-1.26 3.11,-2.08 a 29.63,29.63 0 0 1 7.56,-2 c 0,0 3.09,-0.35 10.63,-1.81 4.88,-1 4.57,-1.37 13.7,-3.73 5.14,-1.33 5.14,-1.18 10.05,-2.48 3,-0.79 5.63,-1.58 10.85,-3.12 9.85,-2.92 10.72,-3.31 14.33,-4.13 1.69,-0.38 1.06,-0.2 8.9,-1.73 6.3,-1.23 9.45,-1.85 10.79,-2.17 a 68.1,68.1 0 0 0 14.65,-4.87 55,55 0 0 0 11.45,-7.43"
       id="path166" />
    <path
       style="fill:none;stroke:#000000;stroke-opacity:1"
       class="cls-3"
       d="m 2872.93,1987.29 c 6.7,0.61 12.38,1.09 16.75,1.45 18,1.48 15.3,1 16.36,1.19 a 26.19,26.19 0 0 0 9.25,0.42 c 2.49,-0.39 3,-0.91 6.72,-1.94 2.12,-0.59 2.5,-0.57 10.25,-2 8.35,-1.51 9.68,-1.85 11.25,-2.36 3.35,-1.08 3.27,-1.44 6.2,-2.25 3.59,-1 4.46,-0.63 9.47,-1.47 a 85.73,85.73 0 0 0 9.58,-2.19 c 3.51,-1 3.4,-1.21 8.33,-2.81 5.89,-1.9 8.83,-2.85 11.89,-3.22 3.06,-0.37 4.3,-0.11 8.34,-0.81 2.73,-0.47 2.79,-0.7 5.3,-1 a 31.19,31.19 0 0 1 8,-0.53 c 2.1,0.2 3.2,0.61 4.61,-0.08 1,-0.5 1.08,-1 2.45,-2 a 12.7,12.7 0 0 1 3.8,-1.81 19.43,19.43 0 0 1 5.73,-0.83 c 6.91,-0.29 10.37,-0.43 13.61,0 a 35,35 0 0 0 4.55,0.64 21.11,21.11 0 0 0 7,-0.72 c 3.53,-1 3.85,-2.27 7,-2.64 a 29.86,29.86 0 0 1 4,0.11 c 1.56,0 4.23,0.07 7.31,-0.14 a 56.19,56.19 0 0 0 7.88,-1 c 3.23,-0.66 2.95,-0.93 5.23,-1.29 3.51,-0.54 4.64,0 8.53,-0.19 a 41,41 0 0 0 6.64,-1 84.51,84.51 0 0 0 10.72,-3.17 c 3.83,-1.29 7.69,-2.51 11.5,-3.86 5,-1.76 8.14,-3 12.79,-3.71 a 24.12,24.12 0 0 1 5.1,-0.37 c 1.89,0.08 3.05,0.36 7.25,1.33 4.2,0.97 6.43,1.48 7,1.53 a 26.25,26.25 0 0 0 8.31,-0.75 c 3.39,-0.76 4.18,-1.48 6.83,-2.25 a 27.19,27.19 0 0 1 11,-0.76"
       id="path168" />
    <path
       style="fill:none;stroke:#000000;stroke-opacity:1"
       class="cls-3"
       d="m 3197,2002.51 c 0.67,-4.24 -0.1,-7.11 -1.3,-9.1 -0.64,-1.08 -0.87,-1 -1.91,-2.59 -1.75,-2.63 -1.91,-4 -3.54,-7.91 -1.63,-3.91 -1.79,-3.18 -2.84,-6 -0.92,-2.5 -0.81,-3 -2,-7 -0.85,-2.73 -0.9,-2.47 -2,-5.71 a 77,77 0 0 1 -2.41,-8.5 c -0.28,-1.31 -0.55,-2.88 -1.09,-6 -0.36,-2.1 -0.42,-2.57 -0.46,-2.86 a 40.48,40.48 0 0 1 -0.18,-6.1 c 0.06,-5.65 -1.12,-5.57 -0.77,-10.13 0.22,-2.93 0.33,-4.39 0.91,-5.75 a 6.3,6.3 0 0 0 0.79,-2.87 c 0,-1 -0.33,-1.3 -0.7,-2.79 a 13,13 0 0 1 -0.42,-3.88 11.32,11.32 0 0 1 1.08,-3.79 c 1.23,-3.06 1.77,-3.08 2.46,-5.08 0.57,-1.66 0.27,-1.86 0.83,-5.42 0.33,-2.06 0.67,-3.5 1.21,-5.79 0.71,-3 1.07,-4 2,-7.42 0.58,-2.13 1.36,-5 1.88,-7.46 a 59.37,59.37 0 0 0 1.25,-11.79"
       id="path170" />
    <path
       style="fill:none;stroke:#000000;stroke-opacity:1"
       class="cls-3"
       d="m 3001.41,1755.77 c 1.14,2.36 2,4.33 2.46,5.66 0.81,2.07 1,2.84 2.31,6.45 a 41.72,41.72 0 0 0 2.11,5.36 c 1.76,2.59 3.28,2.31 6.42,5.19 a 24.77,24.77 0 0 1 4.55,5.78 c 1.36,2.27 1.19,2.73 3.61,8.2 a 45.2,45.2 0 0 0 2.92,6 c 1.23,1.8 1.86,2 6.8,6.5 3.38,3 2.44,2.34 6.06,5.61 3.62,3.27 4.08,3.54 4.86,4.73 1.66,2.53 1.43,3.94 3.22,5.11 1.31,0.85 2,0.45 4.06,1.47 a 14.57,14.57 0 0 1 3.44,2.47 c 2.22,2 4.52,3.83 6.73,5.81 3.74,3.36 5.61,5 6.63,5.72 2.56,1.69 2.94,1.35 7.89,3.83 2.47,1.24 4.57,2.47 8.75,4.92 4.63,2.71 6.94,4.07 8.36,5.08 4.12,3 4.71,4.17 7.45,5 0.73,0.21 1.28,0.3 6.67,0.38 4.1,0.07 7.33,0.08 8.61,0.09 5.6,0 8.4,0 10.19,0.22 3.55,0.35 5.69,1.1 12.17,3.36 19.77,6.89 20.84,7.2 23.22,7.28 a 104.7,104.7 0 0 1 10.89,0.69 57.43,57.43 0 0 1 5.72,0.89 c 3.5,0.77 4.13,1.34 6.53,1.5 a 22.73,22.73 0 0 0 5.71,-0.5 36.34,36.34 0 0 0 6.37,-1.5 c 3.64,-1.23 3.77,-2 9.17,-4.33 a 27,27 0 0 1 5.44,-1.89 c 2.61,-0.51 3.41,-0.12 6,-0.39 2.59,-0.27 4.3,-0.9 7.89,-2.19 3.89,-1.41 4.85,-2.17 8.44,-3.14 a 19.26,19.26 0 0 1 4.45,-0.72 24.63,24.63 0 0 1 3.86,0.25 45.28,45.28 0 0 0 7.81,-0.12 30.93,30.93 0 0 0 6.44,-0.8 18.48,18.48 0 0 0 4.83,-2 17.85,17.85 0 0 0 5.27,-4.82 5.35,5.35 0 0 1 0.37,-2 6.48,6.48 0 0 1 2,-2.5 48.29,48.29 0 0 0 3.72,-3.8 19.25,19.25 0 0 0 3,-4.23 c 0.87,-1.69 0.57,-1.87 1.42,-3.39 a 13.7,13.7 0 0 1 3.08,-3.75 39.16,39.16 0 0 1 3.72,-2.38 11,11 0 0 0 0.92,-0.64 10.61,10.61 0 0 0 2.14,-2.34 32.83,32.83 0 0 1 3.31,-3.27 c 1.4,-1.31 2.53,-2.26 3.36,-3 3,-2.47 3.26,-2.43 4.14,-3.53 0.88,-1.1 0.75,-1.37 2.19,-3.75 1,-1.68 1.9,-2.85 2.64,-3.86 a 72.72,72.72 0 0 1 5,-5.8 c 0.26,-0.29 2.47,-2.94 6.89,-8.23 2.78,-3.32 3.37,-4 4.5,-5.22 a 66.57,66.57 0 0 1 5,-4.76"
       id="path172" />
  </g>
</svg>
