<?xml version="1.0" encoding="UTF-8" standalone="no"?>
<svg
   xmlns:dc="http://purl.org/dc/elements/1.1/"
   xmlns:cc="http://creativecommons.org/ns#"
   xmlns:rdf="http://www.w3.org/1999/02/22-rdf-syntax-ns#"
   xmlns:svg="http://www.w3.org/2000/svg"
   xmlns="http://www.w3.org/2000/svg"
   id="svg9"
   version="1.1"
   viewBox="0 0 906.00633 497.82985"
   width="906.00635"
   height="497.82983">
  <metadata
     id="metadata13">
    <rdf:RDF>
      <cc:Work
         rdf:about="">
        <dc:format>image/svg+xml</dc:format>
        <dc:type
           rdf:resource="http://purl.org/dc/dcmitype/StillImage" />
        <dc:title></dc:title>
      </cc:Work>
    </rdf:RDF>
  </metadata>
  <defs
     id="defs4">
    <style
       id="style2">.cls-1{fill:none;stroke:#231f20;stroke-miterlimit:10;}</style>
  </defs>
  <path
     id="path172"
     style="fill:none;stroke:#000000;stroke-opacity:1"
     d="m 375.00084,83.494788 c 1.14,2.36 2.01463,4.344733 2.47463,5.674733 0.81,2.07 1,2.84 2.31,6.45 0.579,1.833146 1.28402,3.62408 2.11,5.359999 1.76,2.59 3.28,2.31 6.42,5.19 1.79589,1.68947 3.32946,3.63761 4.55,5.78 1.36,2.27 1.19,2.73 3.61,8.2 0.82417,2.06921 1.80017,4.07468 2.92,6 1.23,1.8 1.86,2 6.8,6.5 3.38,3 2.44,2.34 6.06,5.61 3.62,3.27 4.08,3.54 4.86,4.73 1.66,2.53 1.43,3.94 3.22,5.11 1.31,0.85 2,0.45 4.06,1.47 1.26084,0.65141 2.41975,1.48353 3.44,2.47 2.22,2 4.52,3.83 6.73,5.81 3.74,3.36 5.61,5 6.63,5.72 2.56,1.69 2.94,1.35 7.89,3.83 2.47,1.24 4.57,2.47 8.75,4.92 4.63,2.71 6.94,4.07 8.36,5.08 4.12,3 4.71,4.17 7.45,5 0.73,0.21 1.28,0.3 6.67,0.38 4.1,0.07 7.33,0.08 8.61,0.09 5.6,0 8.4,0 10.19,0.22 3.55,0.35 5.69,1.1 12.17,3.36 19.77,6.89 20.84,7.2 23.22,7.28 3.63953,0.0406 7.27446,0.27087 10.89,0.69 1.92042,0.20032 3.82951,0.49737 5.72,0.89 3.5,0.77 4.13,1.34 6.53,1.5 1.91681,0.075 3.83539,-0.0931 5.71,-0.5 2.16412,-0.3074 4.2961,-0.80944 6.37,-1.5 3.64,-1.23 3.77,-2 9.17,-4.33 1.74077,-0.82214 3.56447,-1.45574 5.44,-1.89 2.61,-0.51 3.41,-0.12 6,-0.39 2.59,-0.27 4.3,-0.9 7.89,-2.19 3.89,-1.41 4.85,-2.17 8.44,-3.14 1.45004,-0.41336 2.9436,-0.65502 4.45,-0.72 1.29123,-0.018 2.58188,0.0656 3.86,0.25 2.60193,0.18503 5.21498,0.14489 7.81,-0.12 2.16878,-0.0401 4.32732,-0.30825 6.44,-0.8 1.69664,-0.43443 3.32291,-1.10783 4.83,-2 2.06343,-1.23525 3.85597,-2.87473 5.27,-4.82 -0.006,-0.68419 0.11991,-1.36313 0.37,-2 0.44707,-0.9875 1.13472,-1.84707 2,-2.5 1.30886,-1.19738 2.55074,-2.46597 3.72,-3.8 1.18621,-1.26823 2.19537,-2.69114 3,-4.23 0.87,-1.69 0.57,-1.87 1.42,-3.39 0.79534,-1.42332 1.83837,-2.69324 3.08,-3.75 1.19424,-0.86268 2.43622,-1.65727 3.72,-2.38 0.31734,-0.19756 0.62441,-0.41117 0.92,-0.64 0.82652,-0.6684 1.54791,-1.45721 2.14,-2.34 1.02461,-1.16691 2.13072,-2.25966 3.31,-3.27 1.4,-1.31 2.53,-2.26 3.36,-3 3,-2.47 3.26,-2.43 4.14,-3.53 0.88,-1.1 0.75,-1.37 2.19,-3.75 1,-1.68 1.9,-2.85 2.64,-3.86 1.56365,-2.01981 3.23263,-3.95582 5,-5.8 0.26,-0.29 2.47,-2.94 6.89,-8.23 2.78,-3.32 3.37,-4 4.5,-5.22 1.58322,-1.67208 3.21433,-3.24665 4.9622,-4.74577 M 570.54488,330.14347 c 0.67,-4.24 -0.0394,-7.00395 -1.23941,-8.99395 -0.64,-1.08 -0.87,-1 -1.91,-2.59 -1.75,-2.63 -1.91,-4 -3.54,-7.91 -1.63,-3.91 -1.79,-3.18 -2.84,-6 -0.92,-2.5 -0.81,-3 -2,-7 -0.85,-2.73 -0.9,-2.47 -2,-5.71 -0.96535,-2.78487 -1.77001,-5.62288 -2.41,-8.5 -0.28,-1.31 -0.55,-2.88 -1.09,-6 -0.36,-2.1 -0.41,-2.6 -0.45,-2.89 -0.2134,-2.02591 -0.28357,-4.03503 -0.19,-6.07 0.06,-5.65 -1.12,-5.57 -0.77,-10.13 0.22,-2.93 0.33,-4.39 0.91,-5.75 0.48881,-0.87983 0.7597,-1.86396 0.79,-2.87 0,-1 -0.33,-1.3 -0.7,-2.79 -0.33444,-1.26483 -0.47604,-2.5729 -0.42,-3.88 0.13563,-1.31676 0.50117,-2.59953 1.08,-3.79 1.23,-3.06 1.77,-3.08 2.46,-5.08 0.57,-1.66 0.27,-1.86 0.83,-5.42 0.33,-2.06 0.67,-3.5 1.21,-5.79 0.71,-3 1.07,-4 2,-7.42 0.58,-2.13 1.36,-5 1.88,-7.46 0.80901,-3.87845 1.18777,-7.82814 1.21,-11.79 m -316.82,118.72 c 6.7,0.61 12.38,1.09 16.75,1.45 18,1.48 15.3,1 16.36,1.19 3.03392,0.68827 6.16619,0.8305 9.25,0.42 2.49,-0.39 3,-0.91 6.72,-1.94 2.12,-0.59 2.5,-0.57 10.25,-2 8.35,-1.51 9.68,-1.85 11.25,-2.36 3.35,-1.08 3.27,-1.44 6.2,-2.25 3.59,-1 4.46,-0.63 9.47,-1.47 3.23258,-0.54622 6.43117,-1.27743 9.58,-2.19 3.51,-1 3.4,-1.21 8.33,-2.81 5.89,-1.9 8.83,-2.85 11.89,-3.22 3.06,-0.37 4.3,-0.11 8.34,-0.81 2.73,-0.47 2.79,-0.7 5.3,-1 2.63276,-0.5201 5.32164,-0.69824 8,-0.53 2.1,0.2 3.2,0.61 4.61,-0.08 1,-0.5 1.08,-1 2.45,-2 1.15717,-0.81049 2.44148,-1.42223 3.8,-1.81 1.85783,-0.56128 3.78927,-0.84106 5.73,-0.83 6.91,-0.29 10.37,-0.43 13.61,0 1.50101,0.31276 3.02095,0.52656 4.55,0.64 2.35718,0.15333 4.72338,-0.09 7,-0.72 3.53,-1 3.85,-2.27 7,-2.64 1.33429,-0.0528 2.67063,-0.0161 4,0.11 1.56,0 4.23,0.07 7.31,-0.14 2.64697,-0.14703 5.28021,-0.48119 7.88,-1 3.23,-0.66 2.95,-0.93 5.23,-1.29 3.51,-0.54 4.64,0 8.53,-0.19 2.23695,-0.15122 4.45773,-0.48568 6.64,-1 3.63938,-0.81891 7.22055,-1.87789 10.72,-3.17 3.83,-1.29 7.69,-2.51 11.5,-3.86 5,-1.76 8.14,-3 12.79,-3.71 1.68209,-0.30369 3.39169,-0.42772 5.1,-0.37 1.89,0.08 3.05,0.36 7.25,1.33 4.2,0.97 6.43,1.48 7,1.53 2.79227,0.19465 5.5977,-0.0585 8.31,-0.75 3.39,-0.76 4.18,-1.48 6.83,-2.25 3.57628,-1.00194 7.31991,-1.26059 11,-0.76 M 181.66116,497.22778 c -0.58174,-2.19476 -1.41384,-4.5415 -2.37569,-6.59826 -0.91,-2 -2,-3.84 -2.81,-5.28 -1.81,-3.16 -2.15,-3.37 -2.64,-4.77 -0.50029,-1.76899 -0.78239,-3.59253 -0.84,-5.43 -0.34,-3.78 -0.18,-4.44 -0.5,-7.61 -0.32,-3.17 -0.5,-2.66 -0.75,-5.44 -0.32,-3.65 0,-5 -0.77,-8 -0.24665,-1.36315 -0.85052,-2.63646 -1.75,-3.69 -0.8,-0.89 -1.17,-0.79 -2.1,-1.65 -1.61,-1.48 -1.15,-2.35 -2.73,-4.58 -1.01578,-1.37311 -2.22111,-2.59527 -3.58,-3.63 -1.38,-1.06 -1.86,-1.11 -2.44,-2 -0.85,-1.25 -0.42,-2 -0.9,-3.93 -0.48,-1.93 -1.27,-3 -2.71,-5 -1.53,-2.19 -1.79,-1.87 -2.91,-3.61 -1.61,-2.48 -1,-3.05 -2.48,-5.37 -1.57,-2.51 -2.42,-2.12 -4,-4.69 -0.91645,-1.60141 -1.6191,-3.316 -2.09,-5.1 -0.6732,-1.82291 -1.12641,-3.71966 -1.35,-5.65 -0.19,-2.06 0.07,-2.83 -0.48,-4.6 -0.33527,-0.99329 -0.76734,-1.95123 -1.29,-2.86 -1.09,-2.07 -1.49,-2.25 -2.21,-3.75 -0.51235,-1.20035 -0.92378,-2.44131 -1.23,-3.71 -0.4778,-1.60703 -0.86508,-3.23959 -1.16,-4.89 -0.27,-1.5 -0.4,-2.94 -0.67,-5.82 -0.0397,-1.41333 -0.21379,-2.81967 -0.52,-4.2 -0.45807,-1.30862 -0.98889,-2.59061 -1.59,-3.84 -0.60224,-1.34764 -1.10361,-2.73813 -1.5,-4.16 -0.29526,-1.45642 -0.46919,-2.93482 -0.52,-4.42 -0.27,-3.8 -0.09,-3.73 -0.29,-6.54 -0.27,-3.83 -0.66,-4.68 0.06,-5.86 0.45,-0.72 1.13,-1.26 3.11,-2.08 2.42057,-0.99774 4.96271,-1.67027 7.56,-2 0,0 3.09,-0.35 10.63,-1.81 4.88,-1 4.57,-1.37 13.7,-3.73 5.14,-1.33 5.14,-1.18 10.05,-2.48 3,-0.79 5.63,-1.58 10.85,-3.12 9.85,-2.92 10.72,-3.31 14.33,-4.13 1.69,-0.38 1.06,-0.2 8.9,-1.73 6.3,-1.23 9.45,-1.85 10.79,-2.17 5.05215,-1.06277 9.96705,-2.6966 14.65,-4.87 4.11037,-1.99163 7.93665,-4.45751 11.43,-7.4 M 239.5635,152.31571 c 0,2 -0.068,4.57381 -0.018,7.62381 0.05,2.68 0.13,5.93 0.49,10.08 0.15,1.72 0.15,1.34 1,8.54 0.85,7.2 0.88,7.86 1.29,9.54 0.62,2.6 0.94,2.78 2.53,7.68 1.22,3.8 1.39,4.8 2.44,8.31 2,6.6 2.6,7.13 4.43,12.94 1.92,6.08 2.88,9.11 3.39,13.37 0.50769,4.83783 0.48758,9.71653 -0.06,14.55 -0.32,3.63 -0.52,3.34 -1,8.2 -0.18,2 -0.23,2.91 -0.75,11.69 -0.36,6.19 -0.38,6.44 -0.39,7.33 0,5.6 0.61,6.44 0.45,10 -0.06,1.21 -0.17,2 -2.31,10.28 -1.92,7.49 -2.39,9.08 -3.17,12.69 -1.35,6.34 -1.36,8.54 -1.35,9.89 -0.0671,2.84999 0.30609,5.65968 1.22,8.36 0.82,2.38 1.94,4.06 4.16,7.42 3.59,5.42 3.88,4.5 5.53,7.67 2,3.79 2.09,6.1 4.39,7.11 1.09,0.47 2.09,0.41 3.28,1.44 1.19,1.03 1,1.7 1.86,2.86 1.24,1.75 2.37,1.47 5.73,3.52 1.94,1.17 1.48,1.21 4.66,3.4 2.88,2 3.06,1.81 4.92,3.16 1.63,1.18 2.29,1.9 5.83,5.28 3.25,3.12 4.88,4.68 5.22,5 4.48,3.52 6.06,2.67 9.83,6 2.11,1.9 1.84,2.37 4.45,4.59 1.74852,1.6945 3.81944,3.0207 6.09,3.9 2.28,0.79 2.6,0.21 5.83,1.11 1.76129,0.49836 3.46946,1.16824 5.1,2 2.13334,1.17213 4.14345,2.55575 6,4.13 1.78,1.35 4.22,2.84 9.11,5.84 1.75,1.07 3.88,2.31 8.14,4.8 8,4.71 8.87,5.11 9.69,5.48 2.6,1.17 2.16,0.71 9.56,3.44 3.23,1.19 4,1.55 8.75,3.28 2.68895,1.07953 5.45292,1.96186 8.27,2.64 2.06,0.45 2.14,0.32 4.37,0.83 2.49563,0.61593 4.95873,1.35687 7.38,2.22 7.37,2.42 6.75,2.18 7.31,2.39 5.07,1.88 5.93,2.72 9.14,3.25 2.27,0.38 2,0 4.94,0.33 3.5,0.42 4.91,1.09 10.11,2.45 5.2,1.36 4.34,0.84 7.17,1.69 3.51622,1.11157 6.92909,2.52691 10.2,4.23 1.53,0.75 4.17,2.05 7.38,4 4.35417,2.67393 8.45292,5.76462 12.22016,9.21666 M 905.72546,250.17949 696.68767,108.22375 538.17546,0.57948589 375.00084,83.494788 239.5635,152.31571 0.60545632,273.73949 l 71.25000168,223.59 109.805702,-0.10171 257.2643,-0.23829 v 0 c -1.04124,-1.35465 -1.85211,-2.87165 -2.4,-4.49 -0.43,-1.39 -1,-2.8 -0.47,-4.23 0.88,-2.19 3.54,-3.6 5.45,-4.78 3.27,-2 6.95,-2.86 10.39,-4.44 2.55955,-1.33229 4.79022,-3.21794 6.53,-5.52 0.81,-1 2.77,-2.81 2.26,-4.25 -0.4,-1.1 -1.67,-1.59 -2.07,-2.73 -0.24346,-1.13835 -0.26722,-2.31273 -0.07,-3.46 0.17617,-1.60857 0.43316,-3.20726 0.77,-4.79 0.26483,-1.70702 0.70378,-3.38243 1.31,-5 0.72599,-1.48579 1.666,-2.85705 2.79,-4.07 0.31446,-0.39249 0.63456,-0.7803 0.9602,-1.16331 1.1761,-1.38333 2.4244,-2.70407 3.7398,-3.95669 5.38879,-5.02475 11.35761,-9.3889 17.78,-13 2.77688,-1.61229 6.06835,-2.09222 9.19,-1.34 5.79,1.18 11.67,-1.54 16.81,-3.94 6.32,-3 12.54,-6.12 18.82,-9.16 1.16,-0.56 2.3,-1.1 3.42,-1.72 2.25254,-1.33787 4.32013,-2.96505 6.15,-4.84 2.7391,-2.54869 4.95687,-5.60534 6.53,-9 0.48823,-1.32073 0.82375,-2.69299 1,-4.09 0.57,-3.16 3.29,-9.93 3.29,-9.93 0.5,-2.54 1.11,-5.06 1.68,-7.59 0.47,-2.08 1.19,-4.12 1.58,-6.22 0.0133,-0.44728 -0.003,-0.89496 -0.05,-1.34 0.11875,-0.59818 0.28255,-1.18652 0.49,-1.76 0.11,-0.48 0.27,-1 0.37,-1.43 0.0367,-0.56165 -0.0173,-1.12554 -0.16,-1.67 -0.0944,-2.00177 -0.39262,-3.98871 -0.89,-5.93 -0.24688,-0.82195 -0.68169,-1.57515 -1.27,-2.2 -0.53486,-0.42383 -0.96582,-0.96424 -1.26,-1.58 -0.25205,-1.14718 -0.14737,-2.344 0.3,-3.43 0.37,-1.14 0.86,-2.24 1.17,-3.4 0.23,-0.83 0.39,-1.68 0.62,-2.51 0.37,-1.29 0.76,-2.63 1.2,-3.89 0.22264,-0.41401 0.4983,-0.79724 0.82,-1.14 0.32,-0.43 0.57,-0.93 0.89,-1.35 0.32,-0.42 0.86,-1.1 1.31,-1.6 0.42831,-0.42301 0.90105,-0.79852 1.41,-1.12 1.63,-1.16 3.34,-2.23 5,-3.36 1.66391,-1.06256 3.17459,-2.34781 4.49,-3.82 0.34096,-0.52613 0.74756,-1.00666 1.21,-1.43 0.165,-0.11 0.34345,-0.15816 0.52942,-0.17602 0.32123,-0.0308 0.66491,0.0287 1.00058,0.016 1.55,0 3,-1 4.64,-0.81 0.54941,0.0967 1.07338,0.30426 1.54,0.61 1.19105,0.48543 2.50856,0.56623 3.75,0.23 1.72,-0.33 3.34,-1 5,-1.43 0.49645,-0.14829 1.00513,-0.25203 1.52,-0.31 0.22,0 0.3,0.06 0.53,0 0.45932,-0.16884 0.89597,-0.39388 1.3,-0.67 1.14935,-0.71315 2.23356,-1.5263 3.24,-2.43 1.88,-1.55 3.67,-3.24 5.4,-5 1.51633,-1.40854 2.90199,-2.95151 4.14,-4.61 0.45888,-0.57657 0.74957,-1.26869 0.84,-2 -0.007,-0.18832 -0.0307,-0.37567 -0.07,-0.56 -0.086,-0.41897 -0.086,-0.85103 0,-1.27 0.48255,-2.26945 1.23805,-4.47213 2.25,-6.56 0.5504,-1.27921 1.18858,-2.51883 1.91,-3.71 0.34703,-0.5667 0.92403,-0.9538 1.58,-1.06 1.59559,-0.42843 3.21507,-0.76235 4.85,-1 1.73,-0.29 4,-0.69 5.69,0.17 1.23,0.64 1.6,2.39 2.53,3.32 0.67481,0.56267 1.54466,0.83585 2.42,0.76 1.47896,0.0291 2.95609,-0.11861 4.4,-0.44 2.11,-0.42 4.36,-1.15 6.54,-1 1.29,0.08 2.09,0.76 3.25,1.19 0.98419,0.25144 2.01581,0.25144 3,0 1.76146,-0.26996 3.50225,-0.66088 5.21,-1.17 2.8,-0.82 5.54,-1.82 8.32,-2.72 1.22,-0.39 2.48,-0.6 3.68,-1 2.18362,-0.7816 4.25477,-1.84744 6.16,-3.17 0.57,-0.38 1.52,-0.92 1.48,-1.73 -0.0316,-0.16519 -0.0819,-0.32623 -0.15,-0.48 -0.11052,-0.5347 -0.006,-1.09142 0.29,-1.55 1.7,-3.75 5.08,-6.26 8,-9 1.18,-1.1 2.36,-2.7 0.77,-4 -0.30033,-0.25568 -0.63744,-0.46469 -1,-0.62 -0.36909,-0.0839 -0.72789,-0.20802 -1.07,-0.37 -0.87,-0.63 0.52,-1.5 1.07,-1.77 1.11209,-0.59081 2.32131,-0.97694 3.57,-1.14 1.6236,0.0621 3.2392,0.25943 4.83,0.59 1.46,0.15 3.32,-0.09 4.68,0.58 1.21,0.59 1.21,2 1.53,3.11 0.31057,0.98638 0.94927,1.83681 1.81,2.41 0.90284,0.75278 1.64723,1.67732 2.19,2.72 0.42585,1.04725 1.11472,1.9669 2,2.67 1.21,0.79 2.79,0.58 4.08,1.16 1.13,0.5 1.83,1.48 3.17,1.47 0.84357,-0.0489 1.68245,-0.15924 2.51,-0.33 0.66,-0.12 2,-0.65 2.62,-0.28 l 0.29,0.1 c 0.21874,0.42253 0.24069,0.91985 0.06,1.36 -0.25,1.29 -0.68,2.52 -0.85,3.83 -0.11313,0.72175 -0.086,1.45854 0.08,2.17 0.28,1 1.33,1.61 2.12,2.15 0.55751,0.33497 1.06855,0.74179 1.52,1.21 0.66059,0.98245 1.23602,2.01956 1.72,3.1 0.27982,0.58255 0.68236,1.09767 1.18,1.51 0.72169,0.40713 1.50035,0.70376 2.31,0.88 1.33625,0.51485 2.63019,1.1334 3.87,1.85 2.18,1 4.87,-0.05 7,-0.79 0.8,-0.29 1.58,-0.64 2.37,-0.95 0.45213,-0.13135 0.88315,-0.32666 1.28,-0.58 0.42351,-0.38353 0.81793,-0.798 1.18,-1.24 1.21113,-1.2652 2.34644,-2.60086 3.4,-4 0.37,-0.5 1.13,-1.34 1.16,-2 -0.0271,-0.72812 -0.33116,-1.41843 -0.85,-1.93 -1.45,-1.93 -0.11,-4.68 0.55,-6.66 0.56,-1.72 1.11,-3.49 1.84,-5.16 1,-2.28 3,-4.06 4.6,-5.94 1.21872,-1.43962 2.66852,-2.66637 4.29,-3.63 2.18,-1.37 6.46,-2.18 6.46,-2.18 5.72,-2.9 11.73,-5.09 17.38,-8.15 3.3,-1.8 6.77,-3.19 10,-5 2.9,-1.57 4.94,-4.15 7.3,-6.39 1.27711,-1.12587 2.65641,-2.13022 4.12,-3 0.49092,-0.34067 1.03498,-0.59749 1.61,-0.76 1.03408,-0.34323 2.12115,-0.49901 3.21,-0.46 0.75,0.15 1.19,0.8 1.75,1.23 0.56,0.43 1.34,0.8 1.94,1.27 0.83,0.65 1.47,1.48 2.3,2.13 1.61,1.25 2.44,0.75 4.21,0 2.25,-1 4.76,-1 7.12,-1.68 2.55284,-0.77742 4.98839,-1.89764 7.24,-3.33 1.59333,-0.95302 3.30001,-1.70221 5.08,-2.23 1.09568,-0.42755 2.09266,-1.07406 2.93,-1.9 1.86,-1.53 3.65,-3.16 5.45,-4.74 1.8,-1.58 3.3,-3.62 5.16,-5.11 0.9,-0.71 1.27,-1.41 2.12,-2.16 1.28,-1.13 3.3,-2.93 5.09,-3.16 1,-0.12 1.09,0.19 2,0.49 1.67194,0.39666 3.38189,0.61125 5.1,0.64 5,0.44 12,-0.65 15.8,3.42 2.07,2.23 3.14,5.38 3.87,8.23 0.39,1.53 1.41,3.1 1.42,4.71 0,2 -0.92,3.89 -0.74,5.91 0.29,3.31 4.63,2.1 6.79,1.85 1.89649,-0.31721 3.84464,0.003 5.54,0.91 2.17,1.1 4.36,0.77 6.65,0.16 4.18233,-1.27557 8.24729,-2.90824 12.15,-4.88" />
</svg>
