<?xml version="1.0" encoding="UTF-8" standalone="no"?>
<svg
   xmlns:dc="http://purl.org/dc/elements/1.1/"
   xmlns:cc="http://creativecommons.org/ns#"
   xmlns:rdf="http://www.w3.org/1999/02/22-rdf-syntax-ns#"
   xmlns:svg="http://www.w3.org/2000/svg"
   xmlns="http://www.w3.org/2000/svg"
   id="svg9"
   version="1.1"
   viewBox="0 0 681.23 634.92">
  <metadata
     id="metadata13">
    <rdf:RDF>
      <cc:Work
         rdf:about="">
        <dc:format>image/svg+xml</dc:format>
        <dc:type
           rdf:resource="http://purl.org/dc/dcmitype/StillImage" />
        <dc:title></dc:title>
      </cc:Work>
    </rdf:RDF>
  </metadata>
  <defs
     id="defs4">
    <style
       id="style2">.cls-1{fill:none;stroke:#231f20;stroke-miterlimit:10;}</style>
  </defs>
  <g
     data-name="Layer 2"
     id="Layer_2">
    <g
       id="Districts">
      <polygon
         points="142.72 634.21 80.25 438.18 0.56 115.05 149.52 0.62 680.25 361.02 142.72 634.21"
         class="cls-1"
         data-name="New Spudland"
         id="New_Spudland" />
    </g>
  </g>
  <g
     style="fill:none;stroke:#000000;stroke-opacity:1"
     transform="translate(-2484.32,-1311.82)"
     id="New_Spudland_Counties"
     data-name="New Spudland Counties">
    <polyline
       style="fill:none;stroke:#000000;stroke-opacity:1"
       class="cls-3"
       points="2745.65 1768.27 2632.35 1831.7 2648.46 1882.24 2612.63 1900.82"
       id="polyline141" />
    <polyline
       style="fill:none;stroke:#000000;stroke-opacity:1"
       class="cls-3"
       points="2562.21 1739.99 2785.62 1583.33 2667.62 1496.82"
       id="polyline143" />
    <line
       style="fill:none;stroke:#000000;stroke-opacity:1"
       class="cls-3"
       x1="2661.74"
       y1="1670.2"
       x2="2725.25"
       y2="1738.66"
       id="line145" />
    <polyline
       style="fill:none;stroke:#000000;stroke-opacity:1"
       class="cls-3"
       points="2878.36 1818.3 2878.15 1691.93 2912.48 1691.93 2912.48 1677.2 3003.37 1677.2 3044.14 1734.05"
       id="polyline147" />
    <polyline
       style="fill:none;stroke:#000000;stroke-opacity:1"
       class="cls-3"
       points="2943.5 1677.2 2943.5 1564.55 2843.04 1564.55"
       id="polyline149" />
    <polyline
       style="fill:none;stroke:#000000;stroke-opacity:1"
       class="cls-3"
       points="2633.84 1312.44 2633.84 1475.88 2617.54 1506.78"
       id="polyline151" />
    <line
       style="fill:none;stroke:#000000;stroke-opacity:1"
       class="cls-3"
       x1="2781.3701"
       y1="1586.3101"
       x2="2798.5701"
       y2="1598.52"
       id="line153" />
    <line
       style="fill:none;stroke:#000000;stroke-opacity:1"
       class="cls-3"
       x1="2878.1499"
       y1="1691.9301"
       x2="2803.4299"
       y2="1691.9301"
       id="line155" />
    <path
       style="fill:none;stroke:#000000;stroke-opacity:1"
       class="cls-3"
       d="m 2810.76,1432.58 c -4.29,1.66 -11,2.46 -13.17,3.28 -3.5,1.35 -7.83,0.57 -11.36,1.86 a 25.93,25.93 0 0 0 -8.11,4.37 c -1.19,1 -2.33,2.17 -2.27,3.59 a 3.86,3.86 0 0 0 1.36,2.43 c 0,0 0.81,0.86 5.16,6.32 a 23,23 0 0 1 4.19,6.89 23.56,23.56 0 0 1 1.1,4.46 c 0.44,3 -0.09,3.39 0.38,5 0.87,3 3.62,4.74 4.5,5.29 2.21,1.38 2.85,0.75 6.77,2.23 a 27.68,27.68 0 0 1 6.31,3.23 30.31,30.31 0 0 1 5.94,5.69 c 2.71,3.21 3,4.5 5.17,5.6 a 7.87,7.87 0 0 0 4.62,0.88 c 1.32,-0.19 2.45,-0.88 4.65,-2.25 3.1,-1.94 2.76,-2.17 4.06,-2.73 1.88,-0.8 3.6,-0.68 7,-0.44 a 20.6,20.6 0 0 1 6.19,1 17.07,17.07 0 0 1 5.48,3.27 12.37,12.37 0 0 1 3.67,4.9 12,12 0 0 1 0.68,4.75 19.6,19.6 0 0 1 -1.25,6.17 25.17,25.17 0 0 1 -2.46,5.83 31.32,31.32 0 0 1 -3.93,5.08 c -1.8,2 -2.53,2.52 -3.5,4.21 a 7.31,7.31 0 0 0 -1.32,4 11.12,11.12 0 0 0 1,3.4 18.77,18.77 0 0 0 1.38,3.11 32.45,32.45 0 0 0 2.5,3.44 25.69,25.69 0 0 1 2.06,2.85 c 1,1.61 1,2.14 1,2.36 a 3.88,3.88 0 0 1 -1.92,2.72 c -0.93,0.63 -1.82,0.8 -4,1 -4.17,0.36 -4.79,0.05 -6.87,0.55 -1.65,0.38 -2.94,0.71 -3.9,1.89 a 5.32,5.32 0 0 0 -1.06,3.56 5.5,5.5 0 0 0 1.46,3.71 6.24,6.24 0 0 0 2.52,1.4 c 1.88,0.7 2.34,0.33 3.94,0.94 a 6.67,6.67 0 0 1 3.12,2.12 6,6 0 0 1 1.21,4 c -0.06,0.72 -0.29,1.59 -2,4 a 43.37,43.37 0 0 1 -3.52,4.34 c -2.26,2.37 -3.15,2.75 -5.31,5.25 -1.73,2 -2.05,2.76 -2.17,3.52 a 6.3,6.3 0 0 0 1.08,4.31 c 0.53,0.74 0.71,0.61 1.77,1.81 1.06,1.2 1.72,2 1.88,2.81 0.29,1.6 -0.86,3 -1.54,3.86 a 7.81,7.81 0 0 1 -3.84,2.54 9,9 0 0 1 -4,0.06 22.63,22.63 0 0 1 -7.19,-2 c -2.55,-1.21 -6.29,-3 -8.5,-6.39 a 4.07,4.07 0 0 0 -2.35,-2.08 3.8,3.8 0 0 0 -2.81,0.77 7.06,7.06 0 0 0 -2.25,3 c -0.86,1.69 -0.72,2 -1.61,4.16 a 18.29,18.29 0 0 1 -2.07,4 19.35,19.35 0 0 1 -3.22,3.14 28.92,28.92 0 0 0 -5.23,5.6 16.36,16.36 0 0 0 -2.41,5.38 43.11,43.11 0 0 0 -0.53,5.1 c -0.3,3.55 -0.32,3.9 -0.46,5 a 20.57,20.57 0 0 1 -1,4.91 c -0.68,1.73 -1.07,1.66 -2,3.83 a 13.07,13.07 0 0 0 -1.34,4.29 10.8,10.8 0 0 0 0.94,5.38 c 0.48,1.09 0.82,1.39 3.23,4.35 3.87,4.76 3.9,5.07 5,5.83 1.68,1.12 2,0.68 5,2.34 2.28,1.25 3.41,1.88 4,2.79 1.23,1.9 0,3.14 0.54,7.75 a 28.3,28.3 0 0 0 1.19,5.48 c 0.83,2.63 1.26,2.7 1.94,5.21 a 22.89,22.89 0 0 1 0.85,5.33 c 0,0.91 0,1 0,3.44 0,2.71 0.08,2.61 0,3.33 -0.13,1.63 -0.3,3.73 -1.65,4.94 -1.35,1.21 -3,1 -4.85,0.87 -2.35,-0.19 -4,-0.85 -7.67,-2.48 -5.23,-2.31 -5.88,-2.72 -8.25,-3.58 -5.26,-1.91 -6.8,-1.59 -7.43,-1.42 -0.21,0 -3.63,1 -4.84,4.06 a 8,8 0 0 0 -0.39,3.67 7.45,7.45 0 0 0 0.91,3.81 c 1,1.55 1.94,1.19 3.65,3.17 0.8,0.93 1.57,1.81 1.54,3 0,1 -0.57,1.27 -1.16,2.79 a 16.72,16.72 0 0 0 -0.69,3.17 c -0.65,2.51 -2.83,4 -4.13,4.94 -0.57,0.4 -2.27,1.52 -6.62,2.41 -1.65,0.34 -2.69,0.45 -10,0.93 a 51.18,51.18 0 0 0 -8.35,1 13.48,13.48 0 0 0 -4.88,2 5.81,5.81 0 0 0 -2.64,3 c -0.05,0.19 -0.08,0.89 -0.15,2.29 a 11.55,11.55 0 0 1 -0.3,3.23 5.57,5.57 0 0 1 -1.34,2 c -1,1.08 -1.84,1.47 -5.23,3.28 a 17.63,17.63 0 0 0 -3.34,2 4.79,4.79 0 0 0 -2,2.46 c -0.25,1 0.16,1.7 0.64,3.2 0,0.1 0.32,1.56 0.9,4.46 0.84,4.24 0.78,7.11 1.89,13.77 0.49,2.94 0.84,4.38 2.07,5.61 0.38,0.38 1.37,1.26 4.32,2 4.43,1.06 5.78,-0.09 10.58,0.6 a 25.73,25.73 0 0 1 6.19,1.69 c 2.84,1.17 5.15,2.12 6.62,4.56 a 8.61,8.61 0 0 1 1.11,5.77 c -0.27,1.36 -0.71,1.42 -3,5.17 -1.86,3 -1.5,2.83 -3.31,5.7 -1.36,2.16 -1.74,2.53 -2.16,3.75 a 14.72,14.72 0 0 0 -0.67,4.58 c -0.15,2.92 0.2,3.31 -0.14,5.39 a 6.83,6.83 0 0 1 -1.39,3.75 c -0.27,0.31 -0.7,0.71 -3,1.75 -3.43,1.53 -3.89,1.28 -4.86,2.16 a 7.13,7.13 0 0 0 -2,4 11.38,11.38 0 0 0 0.32,5.13 24.57,24.57 0 0 0 2.12,5.84 23.38,23.38 0 0 0 4.13,6 24.21,24.21 0 0 0 6.7,4.61 c 7.32,3.92 11,5.88 11.92,6.47 a 58.63,58.63 0 0 1 11.55,10 88.35,88.35 0 0 1 6.39,7.75 c 1.06,1.44 1.91,2.68 2.54,3.62"
       id="path157" />
    <path
       style="fill:none;stroke:#000000;stroke-opacity:1"
       class="cls-3"
       d="m 2943.5,1564.54 a 11.34,11.34 0 0 0 1.21,-3.52 c 0.24,-1.49 0,-2.07 0.47,-3.36 a 4.54,4.54 0 0 1 1.72,-2.53 4.21,4.21 0 0 1 2.89,-0.53 6.69,6.69 0 0 1 3,1.33 c 1.11,0.78 1.31,1.3 2.06,1.34 a 1.78,1.78 0 0 0 1.69,-1 2,2 0 0 0 -0.36,-1.8 c -0.61,-0.89 -1.29,-0.66 -2.42,-1.64 a 3.81,3.81 0 0 1 -1.27,-1.78 3.59,3.59 0 0 1 0.3,-2.58 3.92,3.92 0 0 1 2.11,-2 c 0.47,-0.16 0.71,-0.11 2.42,0 3.05,0.26 3.5,0.21 4,0.09 a 5.86,5.86 0 0 0 2.28,-1.23 8,8 0 0 0 1.72,-2.55 13.47,13.47 0 0 1 2.83,-3.46"
       id="path159" />
    <path
       style="fill:none;stroke:#000000;stroke-opacity:1"
       class="cls-3"
       d="m 2526.17,1594.3 c 2.6,1.54 4.66,2.79 5.95,3.58 4.89,3 6,3.84 8.5,4.61 a 24,24 0 0 0 5.42,1 16.93,16.93 0 0 0 6.25,-0.42 16.43,16.43 0 0 0 6.17,-3.52 18.6,18.6 0 0 0 4.49,-5 14.38,14.38 0 0 0 2.37,-7.38 10.28,10.28 0 0 0 -0.86,-4.86 c -0.9,-1.89 -1.75,-1.87 -3.09,-4.16 a 15.4,15.4 0 0 1 -1.75,-4.64 14.9,14.9 0 0 1 -0.22,-5.64 c 0.21,-1.24 0.63,-2.69 2.58,-6 a 70.61,70.61 0 0 1 5,-7.25 c 4.07,-5.36 4.14,-5.17 6.25,-8.09 a 86.93,86.93 0 0 0 5.31,-8.19 c 2.38,-4.18 2.89,-5.94 3.11,-6.81 a 24.25,24.25 0 0 0 0.69,-6.25 52.34,52.34 0 0 0 -0.58,-6.22 c -0.23,-1.91 -0.49,-4 -1,-6.75 -0.53,-3.06 -0.68,-3.14 -0.92,-5 -0.17,-1.4 -0.11,-1.44 -0.36,-5.59 -0.25,-4.15 -0.34,-4.46 -0.17,-5.61 a 11,11 0 0 1 1.48,-4.39 12.36,12.36 0 0 1 4.16,-3.83 27.22,27.22 0 0 1 5,-2.5 c 1.43,-0.61 2.54,-1 4.77,-1.78 3.38,-1.18 3.13,-1 5.59,-1.86 a 22.42,22.42 0 0 1 3.69,-1.22 7,7 0 0 1 4.06,-0.06 c 0.49,0.19 1.66,0.75 2.91,3.06 1.07,2 1.36,3.65 1.92,9.36 0.18,1.81 0.39,4.1 0.92,7.14 a 9.74,9.74 0 0 0 2,5.14 c 0.14,0.17 0.67,0.66 1.72,1.65 1.61,1.52 2.42,2.28 2.83,2.6 a 14.23,14.23 0 0 0 4.2,2.11 22.54,22.54 0 0 0 5.27,1.11 40.48,40.48 0 0 0 5.09,0.25 35.54,35.54 0 0 0 10.25,-1.19 50.42,50.42 0 0 0 5.53,-1.62 38.14,38.14 0 0 0 6.33,-2.83 24.61,24.61 0 0 0 4.42,-3 40.6,40.6 0 0 0 3.27,-3.47 c 2.17,-2.44 2.59,-3.16 2.89,-4 a 14.6,14.6 0 0 0 0.59,-3 c 0,-0.21 0.53,-3.14 1.13,-5.5 a 39.27,39.27 0 0 1 1.87,-5.41 64.52,64.52 0 0 1 3.11,-5.89 c 1,-1.77 1.65,-2.94 2.64,-4.53 a 39,39 0 0 1 3.28,-4.82 34,34 0 0 1 3.69,-3.71 52.63,52.63 0 0 1 4.19,-3.44 c 0.88,-0.66 3,-2.2 5.86,-4 2,-1.19 3.51,-2 4.89,-2.69 3.74,-1.93 4.14,-1.85 7.28,-3.5 1.14,-0.6 3.36,-1.8 6,-3.53 a 52,52 0 0 0 4.61,-3.25 39.62,39.62 0 0 0 4.94,-4.58 28.64,28.64 0 0 0 3.61,-4.73 33.94,33.94 0 0 0 3.42,-8.66 c 0.3,-1 0.68,-2.56 1.45,-5.67 1.17,-4.76 1.76,-7.14 2.11,-9 0.74,-3.89 0.53,-4.13 1.25,-7.56 0.19,-0.9 0.79,-3.68 1.89,-7.14 a 75,75 0 0 1 4.79,-11.59"
       id="path161" />
  </g>
</svg>
