<?xml version="1.0" encoding="UTF-8" standalone="no"?>
<svg
   xmlns:dc="http://purl.org/dc/elements/1.1/"
   xmlns:cc="http://creativecommons.org/ns#"
   xmlns:rdf="http://www.w3.org/1999/02/22-rdf-syntax-ns#"
   xmlns:svg="http://www.w3.org/2000/svg"
   xmlns="http://www.w3.org/2000/svg"
   height="634.5918"
   width="680.68939"
   viewBox="0 0 680.68941 634.59181"
   version="1.1"
   id="svg9">
  <metadata
     id="metadata13">
    <rdf:RDF>
      <cc:Work
         rdf:about="">
        <dc:format>image/svg+xml</dc:format>
        <dc:type
           rdf:resource="http://purl.org/dc/dcmitype/StillImage" />
        <dc:title></dc:title>
      </cc:Work>
    </rdf:RDF>
  </metadata>
  <defs
     id="defs4">
    <style
       id="style2">.cls-1{fill:none;stroke:#231f20;stroke-miterlimit:10;}</style>
  </defs>
  <path
     d="m 314.25,286.56054 c -0.9476,1.1683 -2.02901,2.22272 -3.22071,3.14062 -0.992,0.8132 -1.92718,1.6896 -2.80078,2.625 -0.8736,0.9354 -1.68608,1.92941 -2.42968,2.97461 -0.56125,0.8163 -1.0459,1.67972 -1.44922,2.58008 -0.40333,0.90036 -0.72549,1.83853 -0.96094,2.80078 -0.2777,1.688 -0.454,3.39061 -0.5293,5.09961 -0.3,3.55 -0.31898,3.9 -0.45898,5 -0.132,1.6713 -0.4678,3.32036 -1,4.91016 -0.68,1.73 -1.07,1.66007 -2,3.83007 -0.691,1.34191 -1.1462,2.79247 -1.3418,4.28907 -0.0764,0.9221 -0.033,1.84592 0.125,2.75 0.15796,0.90407 0.43186,1.78926 0.81641,2.63086 0.48,1.09 0.81851,1.38961 3.22851,4.34961 1.935,2.38 2.91032,3.64656 3.53906,4.41406 0.62875,0.7675 0.91094,1.03601 1.46094,1.41601 1.68,1.12 2,0.67985 5,2.33985 1.14,0.625 1.99352,1.09398 2.63477,1.52148 0.64125,0.4275 1.07023,0.81258 1.36523,1.26758 0.3075,0.475 0.46125,0.90977 0.52735,1.36524 0.0661,0.45546 0.0451,0.93226 0.002,1.49414 -0.0863,1.12375 -0.25828,2.58562 0.0117,4.89062 0.2143,1.8616 0.61235,3.69767 1.18945,5.48047 0.83,2.63 1.26141,2.70094 1.94141,5.21094 0.4925,1.7369 0.77751,3.52608 0.84961,5.33007 v 3.43946 c 0,2.71 0.08,2.61008 0,3.33008 -0.065,0.815 -0.13969,1.74695 -0.36719,2.62695 -0.2275,0.88 -0.6082,1.7075 -1.2832,2.3125 l 74.66992,0.01 h 34.33008 V 365.26194 H 459.1387 L 459.1192,252.61155 H 358.66015 c -0.03,0.36 -0.0973,0.75508 -0.37109,1.36133 -0.27375,0.60625 -0.75438,1.4239 -1.60938,2.6289 -1.0788,1.5208 -2.25413,2.97035 -3.51953,4.33985 -2.26,2.37 -3.15054,2.75 -5.31054,5.25 -0.865,1 -1.37821,1.68961 -1.68946,2.22461 -0.31125,0.535 -0.42047,0.91492 -0.48047,1.29492 -0.0877,0.7601 -0.0365,1.52365 0.14649,2.2539 0.18299,0.73025 0.49784,1.42775 0.93359,2.05664 0.53,0.74001 0.70953,0.6086 1.76953,1.8086 1.06,1.2 1.72086,2.00055 1.88086,2.81055 0.145,0.8 -0.07,1.54953 -0.40625,2.20703 -0.33625,0.6575 -0.79476,1.22234 -1.13476,1.65234 -0.49785,0.60665 -1.08124,1.13241 -1.72852,1.56055 -0.64727,0.42813 -1.35828,0.75967 -2.11133,0.98047 -1.3119,0.3198 -2.679,0.34084 -4,0.0605 -1.2454,-0.1321 -2.47527,-0.36865 -3.67773,-0.70312 -1.20246,-0.33448 -2.37697,-0.76688 -3.51172,-1.29688 -1.275,-0.605 -2.84695,-1.3564 -4.37695,-2.3789 -0.765,-0.51125 -1.51946,-1.09047 -2.22071,-1.75391 -0.70125,-0.66344 -1.34984,-1.41031 -1.90234,-2.25781 -0.2369,-0.4898 -0.56726,-0.92176 -0.9668,-1.27539 -0.39953,-0.35364 -0.86786,-0.62904 -1.38281,-0.80469 -0.5009,-0.0634 -1.0048,-0.0254 -1.48242,0.10547 -0.47763,0.13089 -0.92953,0.35416 -1.32813,0.66406 -0.50335,0.38945 -0.9497,0.84308 -1.32812,1.34766 -0.37843,0.50457 -0.68893,1.06009 -0.92188,1.65234 -0.86,1.69 -0.71937,2.00016 -1.60937,4.16016 -0.5226,1.4135 -1.21811,2.757 -2.07031,4 z"
     style="fill:none;stroke:#231f20;stroke-linecap:round;stroke-linejoin:round;paint-order:fill markers stroke"
     id="rect856" />
  <path
     d="m 177.39453,358.25194 63.54492,68.32813 c 0.18405,-0.51165 0.45285,-0.98445 0.79102,-1.40039 0.33816,-0.41594 0.74568,-0.774 1.20898,-1.0586 1.0361,-0.7879 2.15604,-1.4587 3.33984,-2 1.695,-0.905 2.75297,-1.45531 3.51172,-1.91406 0.75875,-0.45875 1.21875,-0.82523 1.71875,-1.36523 0.5871,-0.561 1.04435,-1.2436 1.33985,-2 0.251,-1.0572 0.35278,-2.14507 0.30078,-3.23047 0.07,-1.4 0.0984,-2.10102 0.14844,-2.29102 0.2488,-0.64035 0.60776,-1.22651 1.05468,-1.73437 0.44693,-0.50786 0.98244,-0.93743 1.58594,-1.26563 0.73955,-0.49075 1.5245,-0.90527 2.3418,-1.24023 0.8173,-0.33496 1.66781,-0.59037 2.53906,-0.75977 2.7512,-0.5618 5.54351,-0.8963 8.34961,-1 7.31,-0.48 8.35,-0.58968 10,-0.92968 2.175,-0.445 3.68656,-0.94743 4.72656,-1.38868 1.04,-0.44125 1.60758,-0.82148 1.89258,-1.02148 0.65,-0.47 1.51984,-1.07711 2.30859,-1.88086 0.39438,-0.40188 0.76985,-0.85203 1.08594,-1.35937 0.31609,-0.50735 0.57383,-1.07172 0.73633,-1.69922 0.1267,-1.0765 0.35725,-2.13813 0.68945,-3.16993 0.295,-0.76 0.58453,-1.20734 0.80078,-1.58984 0.21625,-0.3825 0.35938,-0.70117 0.35938,-1.20117 0.015,-0.595 -0.17024,-1.11266 -0.45899,-1.59766 -0.28875,-0.485 -0.68203,-0.93734 -1.08203,-1.40234 -0.855,-0.99 -1.51609,-1.39485 -2.08984,-1.7461 -0.57375,-0.35124 -1.0586,-0.64882 -1.5586,-1.42382 -0.31889,-0.58305 -0.55791,-1.20307 -0.71093,-1.84375 -0.15303,-0.64069 -0.22022,-1.30065 -0.19922,-1.96485 -0.1578,-1.237 -0.0256,-2.49372 0.38867,-3.66992 0.3025,-0.765 0.74422,-1.40172 1.23828,-1.92578 0.49406,-0.52406 1.04039,-0.9357 1.55664,-1.25195 1.0325,-0.6325 1.94188,-0.88282 2.04688,-0.88282 0.315,-0.085 0.85726,-0.20781 1.97851,-0.0703 1.12125,0.1375 2.82118,0.53524 5.45117,1.49024 2.37001,0.86 3.02,1.27007 8.25,3.58007 1.83501,0.815 3.16508,1.3868 4.33008,1.7793 1.165,0.3925 2.16485,0.60617 3.33985,0.70117 0.925,0.065 1.79883,0.14891 2.61133,0.0664 0.8125,-0.0825 1.56328,-0.3325 2.23828,-0.9375 0.675,-0.605 1.0557,-1.4325 1.2832,-2.3125 0.2275,-0.88 0.30219,-1.81195 0.36719,-2.62695 0.08,-0.72 0,-0.62008 0,-3.33008 v -3.43946 c -0.0721,-1.80399 -0.35711,-3.59317 -0.84961,-5.33007 -0.68,-2.51 -1.11141,-2.58094 -1.94141,-5.21094 -0.5771,-1.7828 -0.97515,-3.61887 -1.18945,-5.48047 -0.27,-2.305 -0.098,-3.76687 -0.0117,-4.89062 0.0431,-0.56188 0.0641,-1.03868 -0.002,-1.49414 -0.0661,-0.45547 -0.21985,-0.89024 -0.52735,-1.36524 -0.295,-0.455 -0.72398,-0.84008 -1.36523,-1.26758 -0.64125,-0.4275 -1.49477,-0.89648 -2.63477,-1.52148 -3,-1.66 -3.32,-1.21985 -5,-2.33985 -0.55,-0.38 -0.83219,-0.64851 -1.46094,-1.41601 -0.62874,-0.7675 -1.60406,-2.03406 -3.53906,-4.41406 -2.41,-2.96 -2.74851,-3.25961 -3.22851,-4.34961 -0.38455,-0.8416 -0.65845,-1.72679 -0.81641,-2.63086 -0.15796,-0.90408 -0.2014,-1.8279 -0.125,-2.75 0.1956,-1.4966 0.6508,-2.94716 1.3418,-4.28907 0.93,-2.17 1.32,-2.10007 2,-3.83007 0.5322,-1.5898 0.868,-3.23886 1,-4.91016 0.14,-1.1 0.15898,-1.45 0.45898,-5 0.0753,-1.709 0.2516,-3.41161 0.5293,-5.09961 0.23545,-0.96225 0.55761,-1.90042 0.96094,-2.80078 0.40332,-0.90036 0.88797,-1.76378 1.44922,-2.58008 0.7436,-1.0452 1.55608,-2.03921 2.42968,-2.97461 0.8736,-0.9354 1.80878,-1.8118 2.80078,-2.625 1.1917,-0.9179 2.27311,-1.97232 3.22071,-3.14062 l -17.34372,-12.13086 z"
     style="fill:none;stroke:#231f20;stroke-linecap:round;stroke-linejoin:round;paint-order:fill markers stroke"
     id="path882" />
  <path
     d="m 128.2539,588.88671 35.82422,-18.58594 -16.10937,-50.53906 113.37109,-63.54102 c -2.4,-0.345 -3.93844,-0.2289 -5.42969,-0.16015 -0.74562,0.0344 -1.4782,0.0559 -2.30273,0.004 -0.82453,-0.052 -1.74016,-0.17836 -2.84766,-0.44336 -1.475,-0.37 -2.46125,-0.77476 -3.125,-1.13476 -0.66375,-0.36 -1.00531,-0.67524 -1.19531,-0.86524 -0.615,-0.615 -1.01,-1.28281 -1.3125,-2.16406 -0.3025,-0.88125 -0.51281,-1.97531 -0.75781,-3.44531 -1.11,-6.66 -1.05063,-9.53148 -1.89063,-13.77148 -0.58,-2.90001 -0.89844,-4.35899 -0.89844,-4.45899 -0.23999,-0.75 -0.4625,-1.29961 -0.59374,-1.78711 -0.13125,-0.4875 -0.17188,-0.91406 -0.0469,-1.41406 l -63.5449,-68.32823 -99.650395,69.89258 2.445312,9.91602 z"
     style="fill:none;stroke:#231f20;stroke-linecap:round;stroke-linejoin:round;paint-order:fill markers stroke"
     id="path880" />
  <path
     d="m 300.39648,553.92382 c -0.63,-0.94 -1.47711,-2.19281 -2.53711,-3.63281 -1.9813,-2.7024 -4.11542,-5.2899 -6.39062,-7.75 -1.6987,-1.9114 -3.51816,-3.70867 -5.44727,-5.37891 -1.92911,-1.67024 -3.96671,-3.21344 -6.10156,-4.62109 -0.92,-0.59 -4.59992,-2.55071 -11.91992,-6.47071 -1.23865,-0.57395 -2.42426,-1.25041 -3.54493,-2.02148 -1.12066,-0.77108 -2.17754,-1.63614 -3.15624,-2.58789 -0.84085,-0.886 -1.6084,-1.83483 -2.29883,-2.83789 -0.69044,-1.00307 -1.30268,-2.06036 -1.83008,-3.16211 -0.9509,-1.8491 -1.66439,-3.81135 -2.12109,-5.83985 -0.24825,-0.8316 -0.39944,-1.68627 -0.45313,-2.54687 -0.0537,-0.8606 -0.0102,-1.72799 0.13281,-2.58398 0.1102,-0.75665 0.34204,-1.48486 0.67969,-2.16016 0.33765,-0.6753 0.78111,-1.2977 1.32031,-1.83984 0.485,-0.44 0.84282,-0.59719 1.50782,-0.83594 0.66499,-0.23875 1.63851,-0.55922 3.35351,-1.32422 2.3,-1.04 2.73,-1.44 3,-1.75 0.41355,-0.54165 0.74037,-1.13753 0.97461,-1.76953 0.23424,-0.632 0.37456,-1.30012 0.41406,-1.98047 0.34,-2.08 -0.009,-2.46867 0.14063,-5.38867 -0.0196,-1.5524 0.20642,-3.09828 0.66992,-4.58008 0.42,-1.22 0.80016,-1.59 2.16016,-3.75 1.81,-2.87 1.45054,-2.70117 3.31054,-5.70117 1.145,-1.875 1.82781,-2.82672 2.25781,-3.48047 0.43001,-0.65375 0.60719,-1.00945 0.74219,-1.68945 0.159,-0.99701 0.13904,-2.00589 -0.0488,-2.98243 -0.18786,-0.97653 -0.54299,-1.92026 -1.06054,-2.78711 -0.3675,-0.61 -0.78821,-1.12765 -1.25586,-1.57812 -0.46766,-0.45047 -0.98289,-0.83336 -1.54102,-1.17774 -1.11625,-0.68875 -2.40422,-1.21968 -3.82422,-1.80468 -1.9847,-0.8194 -4.06365,-1.38666 -6.18945,-1.68946 l -113.37109,63.54102 16.10937,50.53906 -35.82422,18.58594 14.40625,45.20508 z"
     style="fill:none;stroke:#231f20;stroke-linecap:round;stroke-linejoin:round;paint-order:fill markers stroke"
     id="path878" />
  <path
     d="m 393.9414,506.38085 -0.17187,-126.39062 -74.66992,-0.01 c -0.675,0.605 -1.42578,0.855 -2.23828,0.9375 -0.8125,0.0825 -1.68633,-0.001 -2.61133,-0.0664 -1.175,-0.095 -2.17485,-0.30867 -3.33985,-0.70117 -1.165,-0.3925 -2.49507,-0.9643 -4.33008,-1.7793 -5.23,-2.31 -5.87999,-2.72007 -8.25,-3.58007 -2.62999,-0.955 -4.32992,-1.35274 -5.45117,-1.49024 -1.12125,-0.1375 -1.66351,-0.0147 -1.97851,0.0703 -0.105,0 -1.01438,0.25032 -2.04688,0.88282 -0.51625,0.31625 -1.06258,0.72789 -1.55664,1.25195 -0.49406,0.52406 -0.93578,1.16078 -1.23828,1.92578 -0.4143,1.1762 -0.54647,2.43292 -0.38867,3.66992 -0.021,0.6642 0.0462,1.32416 0.19922,1.96485 0.15302,0.64068 0.39204,1.2607 0.71093,1.84375 0.5,0.775 0.98485,1.07258 1.5586,1.42382 0.57375,0.35125 1.23484,0.7561 2.08984,1.7461 0.4,0.465 0.79328,0.91734 1.08203,1.40234 0.28875,0.485 0.47399,1.00266 0.45899,1.59766 0,0.5 -0.14313,0.81867 -0.35938,1.20117 -0.21625,0.3825 -0.50578,0.82984 -0.80078,1.58984 -0.3322,1.0318 -0.56275,2.09343 -0.68945,3.16993 -0.1625,0.6275 -0.42024,1.19187 -0.73633,1.69922 -0.31609,0.50734 -0.69156,0.95749 -1.08594,1.35937 -0.78875,0.80375 -1.65859,1.41086 -2.30859,1.88086 -0.285,0.2 -0.85258,0.58023 -1.89258,1.02148 -1.04,0.44125 -2.55156,0.94368 -4.72656,1.38868 -1.65,0.34 -2.69,0.44968 -10,0.92968 -2.8061,0.1037 -5.59841,0.4382 -8.34961,1 -0.87125,0.1694 -1.72176,0.42481 -2.53906,0.75977 -0.8173,0.33496 -1.60225,0.74948 -2.3418,1.24023 -0.6035,0.3282 -1.13901,0.75777 -1.58594,1.26563 -0.44692,0.50786 -0.80588,1.09402 -1.05468,1.73437 -0.05,0.19 -0.0784,0.89102 -0.14844,2.29102 0.052,1.0854 -0.0498,2.17327 -0.30078,3.23047 -0.2955,0.7564 -0.75275,1.439 -1.33985,2 -0.5,0.54 -0.96,0.90648 -1.71875,1.36523 -0.75875,0.45875 -1.81672,1.00906 -3.51172,1.91406 -1.1838,0.5413 -2.30374,1.2121 -3.33984,2 -0.4633,0.2846 -0.87082,0.64266 -1.20898,1.0586 -0.33817,0.41594 -0.60697,0.88874 -0.79102,1.40039 -0.125,0.5 -0.0844,0.92656 0.0469,1.41406 0.13124,0.4875 0.35375,1.03711 0.59374,1.78711 0,0.1 0.31844,1.55898 0.89844,4.45899 0.84,4.24 0.78063,7.11148 1.89063,13.77148 0.245,1.47 0.45531,2.56406 0.75781,3.44531 0.3025,0.88125 0.6975,1.54906 1.3125,2.16406 0.19,0.19 0.53156,0.50524 1.19531,0.86524 0.66375,0.36 1.65,0.76476 3.125,1.13476 1.1075,0.265 2.02313,0.39133 2.84766,0.44336 0.82453,0.052 1.55711,0.0305 2.30273,-0.004 1.49125,-0.0687 3.02969,-0.18485 5.42969,0.16015 2.1258,0.3028 4.20475,0.87006 6.18945,1.68946 1.42,0.585 2.70797,1.11593 3.82422,1.80468 0.55813,0.34438 1.07336,0.72727 1.54102,1.17774 0.46765,0.45047 0.88836,0.96812 1.25586,1.57812 0.51755,0.86685 0.87268,1.81058 1.06054,2.78711 0.18787,0.97654 0.20783,1.98542 0.0488,2.98243 -0.135,0.68 -0.31218,1.0357 -0.74219,1.68945 -0.43,0.65375 -1.11281,1.60547 -2.25781,3.48047 -1.86,3 -1.50054,2.83117 -3.31054,5.70117 -1.36,2.16 -1.74016,2.53 -2.16016,3.75 -0.4635,1.4818 -0.68952,3.02768 -0.66992,4.58008 -0.15,2.92 0.19937,3.30867 -0.14063,5.38867 -0.0395,0.68035 -0.17982,1.34847 -0.41406,1.98047 -0.23424,0.632 -0.56106,1.22788 -0.97461,1.76953 -0.27,0.31 -0.7,0.71 -3,1.75 -1.715,0.765 -2.68852,1.08547 -3.35351,1.32422 -0.665,0.23875 -1.02282,0.39594 -1.50782,0.83594 -0.5392,0.54214 -0.98266,1.16454 -1.32031,1.83984 -0.33765,0.6753 -0.56949,1.40351 -0.67969,2.16016 -0.143,0.85599 -0.1865,1.72338 -0.13281,2.58398 0.0537,0.8606 0.20488,1.71527 0.45313,2.54687 0.4567,2.0285 1.17019,3.99075 2.12109,5.83985 0.5274,1.10175 1.13964,2.15904 1.83008,3.16211 0.69043,1.00306 1.45798,1.95189 2.29883,2.83789 0.9787,0.95175 2.03558,1.81681 3.15624,2.58789 1.12067,0.77107 2.30628,1.44753 3.54493,2.02148 7.32,3.92 10.99992,5.88071 11.91992,6.47071 2.13485,1.40765 4.17245,2.95085 6.10156,4.62109 1.92911,1.67024 3.74857,3.46751 5.44727,5.37891 2.2752,2.4601 4.40932,5.0476 6.39062,7.75 1.06,1.44 1.90711,2.69281 2.53711,3.63281 z"
     style="fill:none;stroke:#231f20;stroke-linecap:round;stroke-linejoin:round;paint-order:fill markers stroke"
     id="path876" />
  <path
     d="m 559.70898,422.1328 -40.7207,-56.87109 h -59.84961 -31.03906 v 14.72852 h -34.33008 l 0.17187,126.39062 z"
     style="fill:none;stroke:#231f20;stroke-linecap:round;stroke-linejoin:round;paint-order:fill markers stroke"
     id="path874" />
  <path
     d="m 483.66211,227.4453 c -1.1295,0.9877 -1.97856,2.09359 -2.72266,3.39649 -0.403,0.9533 -0.9878,1.81813 -1.7207,2.54883 -0.6587,0.575 -1.4371,0.99566 -2.2793,1.23046 -0.5,0.12 -0.95,0.17016 -4,-0.0898 -1.71,-0.11 -1.94992,-0.16 -2.41992,0 -0.46685,0.1858 -0.88989,0.45739 -1.24805,0.79688 -0.35816,0.33948 -0.65083,0.74687 -0.86133,1.20312 -0.4185,0.7924 -0.52628,1.71278 -0.30078,2.58008 0.2403,0.7047 0.68133,1.3228 1.26953,1.7793 0.565,0.49 1.01875,0.67726 1.40625,0.85351 0.3875,0.17625 0.70867,0.34211 1.01368,0.78711 0.404,0.5062 0.54002,1.17593 0.36132,1.79883 -0.15595,0.321 -0.40091,0.58161 -0.69531,0.75586 -0.2944,0.17425 -0.63964,0.26214 -0.99609,0.24414 -0.375,-0.02 -0.61203,-0.16008 -0.89453,-0.39258 -0.2825,-0.2325 -0.60907,-0.55727 -1.16407,-0.94726 -0.8741,-0.68551 -1.9051,-1.14268 -3,-1.33008 -0.49785,-0.0881 -1.00465,-0.0839 -1.49414,0.006 -0.48948,0.0898 -0.96228,0.26639 -1.39648,0.52539 -0.4244,0.30945 -0.7891,0.68721 -1.08008,1.11523 -0.29098,0.42803 -0.50892,0.90561 -0.64062,1.41406 -0.47,1.29 -0.22875,1.86938 -0.46876,3.35938 -0.2067,1.232 -0.61643,2.43255 -1.21093,3.53125 l 0.0195,112.65039 h 59.84961 l 40.7207,56.87109 120.4805,-61.2326 z"
     style="fill:none;stroke:#231f20;stroke-linecap:round;stroke-linejoin:round;paint-order:fill markers stroke"
     id="path872" />
  <path
     d="m 326.37695,120.63866 c -2.145,0.83 -4.89466,1.44656 -7.37891,1.95703 -2.48425,0.51048 -4.70406,0.91422 -5.78906,1.32422 -0.875,0.3375 -1.80062,0.54281 -2.75391,0.67969 -0.95328,0.13688 -1.93343,0.20594 -2.91406,0.27344 -0.98062,0.0675 -1.96289,0.13429 -2.91992,0.26367 -0.95703,0.12937 -1.88898,0.32203 -2.77148,0.64453 -1.47125,0.48045 -2.89292,1.09102 -4.25,1.82227 -1.35709,0.73125 -2.64898,1.58232 -3.85938,2.54687 -0.595,0.5 -1.17922,1.04367 -1.60547,1.63867 -0.42625,0.595 -0.69601,1.24117 -0.66601,1.95118 0.0676,0.4755 0.22251,0.92974 0.45312,1.34179 0.23061,0.41205 0.53826,0.78159 0.9082,1.08789 0,0 0.81016,0.86032 5.16016,6.32032 0.89575,1.016 1.69738,2.10695 2.39844,3.25976 0.70106,1.15281 1.30101,2.36811 1.79101,3.63086 0.5111,1.4473 0.87911,2.94204 1.09961,4.46094 0.22,1.5 0.19844,2.34578 0.17969,3.01953 -0.0187,0.67375 -0.0338,1.17547 0.20117,1.98047 0.2175,0.75 0.55141,1.42008 0.94532,2.01367 0.3939,0.59359 0.84765,1.10945 1.30078,1.54883 0.90625,0.87875 1.8139,1.45156 2.2539,1.72656 1.105,0.69 1.81594,0.87813 2.74219,1.07812 0.92625,0.2 2.06734,0.41235 4.02734,1.15235 2.2331,0.8018 4.35435,1.88777 6.31055,3.23047 1.1147,0.80895 2.17176,1.69009 3.16406,2.64062 0.9923,0.95054 1.91929,1.96993 2.77539,3.04883 1.355,1.605 2.10461,2.73055 2.78711,3.5918 0.6825,0.86125 1.29782,1.45781 2.38282,2.00781 0.70715,0.3787 1.46318,0.64459 2.24218,0.79297 0.779,0.14837 1.58011,0.18009 2.37696,0.0879 0.66,-0.095 1.27359,-0.31609 1.99609,-0.68359 0.7225,-0.3675 1.5543,-0.88141 2.6543,-1.56641 3.1,-1.94 2.76054,-2.17047 4.06054,-2.73047 0.94,-0.4 1.83969,-0.57133 2.92969,-0.61133 1.09,-0.04 2.37031,0.0519 4.07031,0.17188 2.1023,0.015 4.18926,0.3528 6.18946,1 1.008,0.3679 1.97714,0.82757 2.89453,1.375 0.91739,0.54742 1.78349,1.18213 2.58594,1.89453 0.8073,0.65 1.52609,1.39562 2.14257,2.21875 0.61649,0.82312 1.1306,1.72414 1.52735,2.68164 0.5441,1.5214 0.77509,3.137 0.67969,4.75 -0.0405,1.0553 -0.16593,2.10308 -0.375,3.13476 -0.20908,1.03169 -0.5018,2.04721 -0.875,3.03516 -0.5715,2.0391 -1.39699,3.99798 -2.45899,5.83008 -1.1325,1.8235 -2.45104,3.52588 -3.93164,5.08008 -0.9,1 -1.5318,1.62945 -2.06055,2.2207 -0.52875,0.59125 -0.95445,1.14328 -1.43945,1.98828 -0.41145,0.58745 -0.73074,1.22846 -0.95312,1.90235 -0.22239,0.67388 -0.34624,1.38065 -0.36524,2.09765 0.1494,1.1795 0.487,2.32779 1,3.40039 0.3649,1.0763 0.82571,2.11658 1.37891,3.10938 0.7572,1.2001 1.5923,2.34865 2.5,3.43945 0.751,0.9018 1.43974,1.85566 2.06054,2.85156 1,1.61 1,2.13938 1,2.35938 -0.0994,0.57455 -0.32615,1.11132 -0.65429,1.57617 -0.32814,0.46485 -0.75753,0.85848 -1.26563,1.14453 -0.465,0.315 -0.92,0.51391 -1.53125,0.66016 -0.61125,0.14625 -1.37875,0.23984 -2.46875,0.33984 -4.17,0.36 -4.79109,0.0488 -6.87109,0.54883 -0.825,0.19 -1.55828,0.36703 -2.20703,0.64453 -0.64875,0.2775 -1.21141,0.65609 -1.69141,1.24609 -0.3848,0.5104 -0.67202,1.08064 -0.85156,1.6836 -0.17954,0.60296 -0.25194,1.2392 -0.20899,1.87695 0.005,0.68785 0.13575,1.36101 0.38282,1.99024 0.24706,0.62922 0.60942,1.2135 1.07617,1.71875 0.7192,0.657 1.58368,1.13679 2.52148,1.40039 1.88,0.7 2.33946,0.32945 3.93946,0.93945 0.61115,0.19585 1.18747,0.47891 1.71289,0.83594 0.52541,0.35702 0.99905,0.7891 1.40625,1.28515 0.4348,0.57265 0.75515,1.21656 0.95508,1.89649 0.19992,0.67992 0.28082,1.39563 0.23632,2.11328 h 100.45899 c 0.5945,-1.0987 1.00423,-2.29925 1.21093,-3.53125 0.24001,-1.49 -10e-4,-2.06938 0.46876,-3.35938 0.1317,-0.50845 0.34964,-0.98603 0.64062,-1.41406 0.29098,-0.42802 0.65568,-0.80578 1.08008,-1.11523 0.4342,-0.259 0.907,-0.43563 1.39648,-0.52539 0.48949,-0.0898 0.99629,-0.0939 1.49414,-0.006 1.0949,0.1874 2.1259,0.64457 3,1.33008 0.555,0.38999 0.88157,0.71476 1.16407,0.94726 0.2825,0.2325 0.51953,0.37258 0.89453,0.39258 0.35645,0.018 0.70169,-0.0699 0.99609,-0.24414 0.2944,-0.17425 0.53936,-0.43486 0.69531,-0.75586 0.1787,-0.6229 0.0427,-1.29263 -0.36132,-1.79883 -0.30501,-0.445 -0.62618,-0.61086 -1.01368,-0.78711 -0.3875,-0.17625 -0.84125,-0.36351 -1.40625,-0.85351 -0.5882,-0.4565 -1.02923,-1.0746 -1.26953,-1.7793 -0.2255,-0.8673 -0.11772,-1.78768 0.30078,-2.58008 0.2105,-0.45625 0.50317,-0.86364 0.86133,-1.20312 0.35816,-0.33949 0.7812,-0.61108 1.24805,-0.79688 0.47,-0.16 0.70992,-0.11 2.41992,0 3.05,0.26 3.5,0.20984 4,0.0898 0.8422,-0.2348 1.6206,-0.65546 2.2793,-1.23046 0.7329,-0.7307 1.3177,-1.59553 1.7207,-2.54883 0.7441,-1.3029 1.59316,-2.40879 2.72266,-3.39649 z"
     style="fill:none;stroke:#231f20;stroke-linecap:round;stroke-linejoin:round;paint-order:fill markers stroke"
     id="path870" />
  <path
     d="m 183.22851,184.84179 118.00977,86.54883 -4.33203,3.03906 17.34375,12.13086 c 0.8522,-1.243 1.54771,-2.5865 2.07031,-4 0.89,-2.16 0.74937,-2.47016 1.60937,-4.16016 0.23295,-0.59225 0.54345,-1.14777 0.92188,-1.65234 0.37842,-0.50458 0.82477,-0.95821 1.32812,-1.34766 0.3986,-0.3099 0.8505,-0.53317 1.32813,-0.66406 0.47762,-0.13089 0.98152,-0.16892 1.48242,-0.10547 0.51495,0.17565 0.98328,0.45105 1.38281,0.80469 0.39954,0.35363 0.7299,0.78559 0.9668,1.27539 0.5525,0.8475 1.20109,1.59437 1.90234,2.25781 0.70125,0.66344 1.45571,1.24266 2.22071,1.75391 1.53,1.0225 3.10195,1.7739 4.37695,2.3789 1.13475,0.53 2.30926,0.9624 3.51172,1.29688 1.20246,0.33447 2.43233,0.57102 3.67773,0.70312 1.321,0.2803 2.6881,0.25926 4,-0.0605 0.75305,-0.2208 1.46406,-0.55234 2.11133,-0.98047 0.64728,-0.42814 1.23067,-0.9539 1.72852,-1.56055 0.34,-0.43 0.79851,-0.99484 1.13476,-1.65234 0.33625,-0.6575 0.55125,-1.40703 0.40625,-2.20703 -0.16,-0.81 -0.82086,-1.61055 -1.88086,-2.81055 -1.06,-1.2 -1.23953,-1.06859 -1.76953,-1.8086 -0.43575,-0.62889 -0.7506,-1.32639 -0.93359,-2.05664 -0.18299,-0.73025 -0.23419,-1.4938 -0.14649,-2.2539 0.06,-0.38 0.16922,-0.75992 0.48047,-1.29492 0.31125,-0.535 0.82446,-1.22461 1.68946,-2.22461 2.16,-2.5 3.05054,-2.88 5.31054,-5.25 1.2654,-1.3695 2.44073,-2.81905 3.51953,-4.33985 0.855,-1.205 1.33563,-2.02265 1.60938,-2.6289 0.27375,-0.60625 0.34109,-1.00133 0.37109,-1.36133 v 0 c 0.0445,-0.71765 -0.0364,-1.43336 -0.23632,-2.11328 -0.19993,-0.67993 -0.52028,-1.32384 -0.95508,-1.89649 -0.4072,-0.49605 -0.88084,-0.92813 -1.40625,-1.28515 -0.52542,-0.35703 -1.10174,-0.64009 -1.71289,-0.83594 -1.6,-0.61 -2.05946,-0.23945 -3.93946,-0.93945 -0.9378,-0.2636 -1.80228,-0.74339 -2.52148,-1.40039 -0.46675,-0.50525 -0.82911,-1.08953 -1.07617,-1.71875 -0.24707,-0.62923 -0.37782,-1.30239 -0.38282,-1.99024 -0.043,-0.63775 0.0294,-1.27399 0.20899,-1.87695 0.17954,-0.60296 0.46676,-1.1732 0.85156,-1.6836 0.48,-0.59 1.04266,-0.96859 1.69141,-1.24609 0.64875,-0.2775 1.38203,-0.45453 2.20703,-0.64453 2.08,-0.5 2.70109,-0.18883 6.87109,-0.54883 1.09,-0.1 1.8575,-0.19359 2.46875,-0.33984 0.61125,-0.14625 1.06625,-0.34516 1.53125,-0.66016 0.5081,-0.28605 0.93749,-0.67968 1.26563,-1.14453 0.32814,-0.46485 0.55494,-1.00162 0.65429,-1.57617 0,-0.22 0,-0.74938 -1,-2.35938 -0.6208,-0.9959 -1.30954,-1.94976 -2.06054,-2.85156 -0.9077,-1.0908 -1.7428,-2.23935 -2.5,-3.43945 -0.5532,-0.9928 -1.01401,-2.03308 -1.37891,-3.10938 -0.513,-1.0726 -0.8506,-2.22089 -1,-3.40039 0.019,-0.717 0.14285,-1.42377 0.36524,-2.09765 0.22238,-0.67389 0.54167,-1.3149 0.95312,-1.90235 0.485,-0.845 0.9107,-1.39703 1.43945,-1.98828 0.52875,-0.59125 1.16055,-1.2207 2.06055,-2.2207 1.4806,-1.5542 2.79914,-3.25658 3.93164,-5.08008 1.062,-1.8321 1.88749,-3.79098 2.45899,-5.83008 0.3732,-0.98795 0.66592,-2.00347 0.875,-3.03516 0.20907,-1.03168 0.3345,-2.07946 0.375,-3.13476 0.0954,-1.613 -0.13559,-3.2286 -0.67969,-4.75 -0.39675,-0.9575 -0.91086,-1.85852 -1.52735,-2.68164 -0.61648,-0.82313 -1.33527,-1.56875 -2.14257,-2.21875 -0.80245,-0.7124 -1.66855,-1.34711 -2.58594,-1.89453 -0.91739,-0.54743 -1.88653,-1.0071 -2.89453,-1.375 -2.0002,-0.6472 -4.08716,-0.985 -6.18946,-1 -1.7,-0.12 -2.98031,-0.21188 -4.07031,-0.17188 -1.09,0.04 -1.98969,0.21133 -2.92969,0.61133 -1.3,0.56 -0.96054,0.79047 -4.06054,2.73047 -1.1,0.685 -1.9318,1.19891 -2.6543,1.56641 -0.7225,0.3675 -1.33609,0.58859 -1.99609,0.68359 -0.79685,0.0922 -1.59796,0.0605 -2.37696,-0.0879 -0.779,-0.14838 -1.53503,-0.41427 -2.24218,-0.79297 -1.085,-0.55 -1.70032,-1.14656 -2.38282,-2.00781 -0.6825,-0.86125 -1.43211,-1.9868 -2.78711,-3.5918 -0.8561,-1.0789 -1.78309,-2.09829 -2.77539,-3.04883 -0.9923,-0.95053 -2.04936,-1.83167 -3.16406,-2.64062 -1.9562,-1.3427 -4.07745,-2.42867 -6.31055,-3.23047 -1.96,-0.74 -3.10109,-0.95235 -4.02734,-1.15235 -0.92625,-0.19999 -1.63719,-0.38812 -2.74219,-1.07812 -0.44,-0.275 -1.34765,-0.84781 -2.2539,-1.72656 -0.45313,-0.43938 -0.90688,-0.95524 -1.30078,-1.54883 -0.39391,-0.59359 -0.72782,-1.26367 -0.94532,-2.01367 -0.235,-0.805 -0.21992,-1.30672 -0.20117,-1.98047 0.0188,-0.67375 0.0403,-1.51953 -0.17969,-3.01953 -0.2205,-1.5189 -0.58851,-3.01364 -1.09961,-4.46094 -0.49,-1.26275 -1.08995,-2.47805 -1.79101,-3.63086 -0.70106,-1.15281 -1.50269,-2.24376 -2.39844,-3.25976 -4.35,-5.46 -5.16016,-6.32032 -5.16016,-6.32032 -0.36994,-0.3063 -0.67759,-0.67584 -0.9082,-1.08789 -0.23061,-0.41205 -0.38552,-0.86629 -0.45312,-1.34179 -0.03,-0.71001 0.23976,-1.35618 0.66601,-1.95118 0.42625,-0.595 1.01047,-1.13867 1.60547,-1.63867 1.2104,-0.96455 2.50229,-1.81562 3.85938,-2.54687 1.35708,-0.73125 2.77875,-1.34182 4.25,-1.82227 0.8825,-0.3225 1.81445,-0.51516 2.77148,-0.64453 0.95703,-0.12938 1.9393,-0.19617 2.91992,-0.26367 0.98063,-0.0675 1.96078,-0.13656 2.91406,-0.27344 0.95329,-0.13688 1.87891,-0.34219 2.75391,-0.67969 1.085,-0.41 3.30481,-0.81374 5.78906,-1.32422 2.48425,-0.51047 5.23391,-1.12703 7.37891,-1.95703 L 255.72851,72.664051 c -0.9587,1.8614 -1.81428,3.756006 -2.58789,5.683594 -0.77361,1.927587 -1.46641,3.887662 -2.10156,5.882812 -1.1,3.46 -1.69867,6.240625 -1.88867,7.140625 -0.72,3.43 -0.51,3.670547 -1.25,7.560547 -0.35,1.860001 -0.94133,4.240001 -2.11133,9.000001 -0.77,3.11 -1.14922,4.66992 -1.44922,5.66992 -0.3684,1.51505 -0.84076,3.00051 -1.41211,4.44727 -0.57135,1.44676 -1.24161,2.85499 -2.00781,4.21289 -1.0358,1.6977 -2.24703,3.28151 -3.61133,4.72852 -1.5137,1.6641 -3.16575,3.19637 -4.93945,4.58007 -1.4767,1.1659 -3.01508,2.2509 -4.60938,3.25 -2.64,1.73 -4.86,2.93125 -6,3.53125 -3.14,1.65 -3.54125,1.57 -7.28125,3.5 -1.38,0.69 -2.88867,1.49946 -4.88867,2.68946 -2.86,1.8 -4.98133,3.34 -5.86133,4 -1.4548,1.0739 -2.85285,2.22155 -4.18945,3.43945 -1.3235,1.14 -2.55655,2.38134 -3.68945,3.71094 -1.2121,1.5226 -2.3078,3.13401 -3.2793,4.82031 -0.99,1.59 -1.64063,2.7593 -2.64063,4.5293 -1.1374,1.9085 -2.17477,3.87502 -3.10937,5.89062 -0.7541,1.7554 -1.38019,3.56376 -1.87109,5.41016 -0.6,2.36 -1.12891,5.29 -1.12891,5.5 -0.0911,1.0179 -0.2907,2.0234 -0.5918,3 z"
     style="fill:none;stroke:#231f20;stroke-linecap:round;stroke-linejoin:round;paint-order:fill markers stroke"
     id="path868" />
  <path
     d="m 133.15039,194.88085 c -1.05,-0.99 -1.58071,-1.48039 -1.72071,-1.65039 -0.574,-0.74245 -1.03428,-1.56017 -1.37109,-2.42578 -0.33681,-0.86561 -0.55016,-1.77779 -0.62891,-2.71289 -0.53,-3.04 -0.73992,-5.33063 -0.91992,-7.14063 -0.28,-2.855 -0.49328,-4.69601 -0.76953,-6.07226 -0.27625,-1.37625 -0.61539,-2.28711 -1.15039,-3.28711 -0.625,-1.155 -1.23023,-1.87367 -1.74023,-2.32617 -0.51,-0.4525 -0.92493,-0.63938 -1.16993,-0.73438 -0.66475,-0.1908 -1.35105,-0.2816 -2.03515,-0.27148 -0.6841,0.0101 -1.36654,0.12168 -2.02539,0.33203 -1.263,0.2991 -2.49706,0.70605 -3.68946,1.21875 -2.46,0.86 -2.20984,0.67937 -5.58984,1.85937 -2.23,0.78 -3.33953,1.17125 -4.76953,1.78125 -1.748,0.6595 -3.4235,1.4973 -5,2.5 -0.832004,0.46905 -1.604751,1.03122 -2.302738,1.67383 -0.697987,0.64261 -1.321372,1.36575 -1.857422,2.15625 -0.7994,1.3417 -1.304369,2.83687 -1.480469,4.38867 -0.17,1.15 -0.08008,1.46133 0.169922,5.61133 0.25,4.15 0.189375,4.18984 0.359375,5.58984 0.24,1.86 0.389922,1.94 0.919922,5 0.51,2.75 0.77,4.84 1,6.75 0.317,2.0599 0.511078,4.13771 0.580078,6.22071 0.0422,2.1044 -0.189153,4.2054 -0.689453,6.25 -0.11,0.435 -0.29164,1.09086 -0.74414,2.16211 -0.452501,1.07125 -1.175235,2.55648 -2.365235,4.64648 -1.6152,2.8273 -3.388547,5.56301 -5.310547,8.19141 -2.11,2.92 -2.18,2.72984 -6.25,8.08984 -1.8159,2.3103 -3.4858,4.7316 -5,7.25 -0.975,1.655 -1.568359,2.84414 -1.943359,3.77539 -0.375,0.93125 -0.531719,1.60461 -0.636719,2.22461 -0.14335,0.9384 -0.196994,1.88578 -0.160156,2.83008 0.03684,0.9443 0.164859,1.88419 0.380859,2.80859 0.3288,1.631 0.9198,3.19863 1.75,4.64063 0.67,1.145 1.216485,1.71297 1.708985,2.23047 0.4925,0.5175 0.930859,0.98468 1.380859,1.92968 0.33855,0.76305 0.580222,1.56095 0.724609,2.37696 0.144388,0.81601 0.190866,1.64952 0.134766,2.48242 -0.0498,1.3153 -0.279009,2.61193 -0.677734,3.85351 -0.398725,1.24159 -0.966107,2.429 -1.691407,3.52735 -0.59035,0.96275 -1.26614,1.86634 -2.017578,2.70312 -0.751437,0.83679 -1.578756,1.60678 -2.472656,2.29688 -0.8877,0.8046 -1.858091,1.50748 -2.892578,2.09765 -1.034488,0.59018 -2.132994,1.06718 -3.277344,1.42188 -1.01955,0.2638 -2.059269,0.43165 -3.105469,0.50195 -1.0462,0.0703 -2.098881,0.043 -3.144531,-0.082 -1.8391,-0.1241 -3.657622,-0.4596 -5.419922,-1 -1.25,-0.385 -2.154218,-0.7875 -3.355469,-1.46875 -1.20125,-0.68125 -2.699531,-1.64062 -5.144531,-3.14062 -1.29,-0.79 -3.312109,-1.88774 -5.912109,-3.42774 l 35.916016,145.63086 99.650395,-69.89258 119.51172,-83.82226 4.33203,-3.03906 -118.00977,-86.54883 c -0.3,0.84 -0.71867,1.56 -2.88867,4 -1.0211,1.2197 -2.11253,2.37715 -3.26953,3.46875 -1.3601,1.1574 -2.84212,2.1633 -4.41992,3 -2.0197,1.1336 -4.13858,2.08088 -6.33008,2.83008 -1.8109,0.645 -3.65855,1.18699 -5.53125,1.62109 -1.6703,0.4466 -3.36916,0.76989 -5.08203,0.96875 -1.71288,0.19886 -3.43977,0.27275 -5.16797,0.2207 -1.7002,0.0237 -3.40014,-0.0598 -5.08984,-0.25 -1.7947,-0.1581 -3.56354,-0.53007 -5.26954,-1.10937 -1.5073,-0.4657 -2.92777,-1.18003 -4.20117,-2.11133 -0.41,-0.32 -1.21812,-1.07961 -2.82812,-2.59961 z"
     style="fill:none;stroke:#231f20;stroke-linecap:round;stroke-linejoin:round;paint-order:fill markers stroke"
     id="path866" />
  <path
     d="M 149.45898,0.49998834 0.49999363,114.93163 41.828119,282.51366 c 2.6,1.54 4.622109,2.63774 5.912109,3.42774 2.445,1.5 3.943281,2.45937 5.144531,3.14062 1.201251,0.68125 2.105469,1.08375 3.355469,1.46875 1.7623,0.5404 3.580822,0.8759 5.419922,1 1.04565,0.125 2.098331,0.15233 3.144531,0.082 1.0462,-0.0703 2.085919,-0.23815 3.105469,-0.50195 1.14435,-0.3547 2.242856,-0.8317 3.277344,-1.42188 1.034487,-0.59017 2.004878,-1.29305 2.892578,-2.09765 0.8939,-0.6901 1.721219,-1.46009 2.472656,-2.29688 0.751438,-0.83678 1.427228,-1.74037 2.017578,-2.70312 0.7253,-1.09835 1.292682,-2.28576 1.691407,-3.52735 0.398725,-1.24158 0.627934,-2.53821 0.677734,-3.85351 0.0561,-0.8329 0.0096,-1.66641 -0.134766,-2.48242 -0.144387,-0.81601 -0.386059,-1.61391 -0.724609,-2.37696 -0.45,-0.945 -0.888359,-1.41218 -1.380859,-1.92968 -0.4925,-0.5175 -1.038985,-1.08547 -1.708985,-2.23047 -0.8302,-1.442 -1.4212,-3.00963 -1.75,-4.64063 -0.216,-0.9244 -0.344022,-1.86429 -0.380859,-2.80859 -0.03684,-0.9443 0.01681,-1.89168 0.160156,-2.83008 0.105,-0.62 0.261719,-1.29336 0.636719,-2.22461 0.375,-0.93125 0.968359,-2.12039 1.943359,-3.77539 1.5142,-2.5184 3.1841,-4.9397 5,-7.25 4.07,-5.36 4.14,-5.16984 6.25,-8.08984 1.922,-2.6284 3.695347,-5.36411 5.310547,-8.19141 1.19,-2.09 1.912734,-3.57523 2.365235,-4.64648 0.4525,-1.07125 0.63414,-1.72711 0.74414,-2.16211 0.5003,-2.0446 0.731653,-4.1456 0.689453,-6.25 -0.069,-2.083 -0.263078,-4.16081 -0.580078,-6.22071 -0.23,-1.91 -0.49,-4 -1,-6.75 -0.53,-3.06 -0.679922,-3.14 -0.919922,-5 -0.17,-1.4 -0.109375,-1.43984 -0.359375,-5.58984 -0.25,-4.15 -0.339922,-4.46133 -0.169922,-5.61133 0.1761,-1.5518 0.681069,-3.04697 1.480469,-4.38867 0.53605,-0.7905 1.159435,-1.51364 1.857422,-2.15625 0.697987,-0.64261 1.470734,-1.20478 2.302738,-1.67383 1.5765,-1.0027 3.252,-1.8405 5,-2.5 1.43,-0.61 2.53953,-1.00125 4.76953,-1.78125 3.38,-1.18 3.12984,-0.99937 5.58984,-1.85937 1.1924,-0.5127 2.42646,-0.91965 3.68946,-1.21875 0.65885,-0.21035 1.34129,-0.32192 2.02539,-0.33203 0.6841,-0.0101 1.3704,0.0807 2.03515,0.27148 0.245,0.095 0.65993,0.28188 1.16993,0.73438 0.51,0.4525 1.11523,1.17117 1.74023,2.32617 0.535,1 0.87414,1.91086 1.15039,3.28711 0.27625,1.37625 0.48953,3.21726 0.76953,6.07226 0.18,1.81 0.38992,4.10063 0.91992,7.14063 0.0788,0.9351 0.2921,1.84728 0.62891,2.71289 0.33681,0.86561 0.79709,1.68333 1.37109,2.42578 0.14,0.17 0.67071,0.66039 1.72071,1.65039 l 16.30859,-30.93945 z"
     style="fill:none;stroke:#231f20;stroke-linecap:round;stroke-linejoin:round;paint-order:fill markers stroke"
     id="path864" />
  <path
     d="M 149.45898,0.49998834 V 163.9414 l -16.30859,30.93945 c 1.61,1.52 2.41812,2.27961 2.82812,2.59961 1.2734,0.9313 2.69387,1.64563 4.20117,2.11133 1.706,0.5793 3.47484,0.95127 5.26954,1.10937 1.6897,0.1902 3.38964,0.2737 5.08984,0.25 1.7282,0.052 3.45509,-0.0218 5.16797,-0.2207 1.71287,-0.19886 3.41173,-0.52215 5.08203,-0.96875 1.8727,-0.4341 3.72035,-0.97609 5.53125,-1.62109 2.1915,-0.7492 4.31038,-1.69648 6.33008,-2.83008 1.5778,-0.8367 3.05982,-1.8426 4.41992,-3 1.157,-1.0916 2.24843,-2.24905 3.26953,-3.46875 2.17,-2.44 2.58867,-3.16 2.88867,-4 0.3011,-0.9766 0.5007,-1.9821 0.5918,-3 0,-0.21 0.52891,-3.14 1.12891,-5.5 0.4909,-1.8464 1.11699,-3.65476 1.87109,-5.41016 0.9346,-2.0156 1.97197,-3.98212 3.10937,-5.89062 1,-1.77 1.65063,-2.9393 2.64063,-4.5293 0.9715,-1.6863 2.0672,-3.29771 3.2793,-4.82031 1.1329,-1.3296 2.36595,-2.57094 3.68945,-3.71094 1.3366,-1.2179 2.73465,-2.36555 4.18945,-3.43945 0.88,-0.66 3.00133,-2.2 5.86133,-4 2,-1.19 3.50867,-1.99946 4.88867,-2.68946 3.74,-1.93 4.14125,-1.85 7.28125,-3.5 1.14,-0.6 3.36,-1.80125 6,-3.53125 1.5943,-0.9991 3.13268,-2.0841 4.60938,-3.25 1.7737,-1.3837 3.42575,-2.91597 4.93945,-4.58007 1.3643,-1.44701 2.57553,-3.03082 3.61133,-4.72852 0.7662,-1.3579 1.43646,-2.76613 2.00781,-4.21289 0.57135,-1.44676 1.04371,-2.93222 1.41211,-4.44727 0.3,-1 0.67922,-2.55992 1.44922,-5.66992 1.17,-4.76 1.76133,-7.14 2.11133,-9.000001 0.74,-3.89 0.53,-4.130547 1.25,-7.560547 0.19,-0.9 0.78867,-3.680625 1.88867,-7.140625 0.63515,-1.99515 1.32795,-3.955225 2.10156,-5.882812 0.77361,-1.927588 1.62919,-3.822194 2.58789,-5.683594 z"
     style="fill:none;stroke:#231f20;stroke-linecap:round;stroke-linejoin:round;paint-order:fill markers stroke"
     id="path862" />
  <path
     id="path887"
     d="M 149.45898,0.49998834 255.72851,72.664051 326.37695,120.63866 483.66211,227.4453 680.18945,360.90038 559.70898,422.1328 393.9414,506.38085 300.39648,553.92382 142.66015,634.09179 128.2539,588.88671 80.189447,438.06054 77.744135,428.14452 41.828119,282.51366 0.49999363,114.93163 Z"
     style="fill:none;stroke:#231f20;stroke-linecap:round;stroke-linejoin:round;paint-order:fill markers stroke" />
  <g
     transform="translate(-0.06055325,-0.11915228)"
     id="Layer_2"
     data-name="Layer 2">
    <g
       id="Districts" />
  </g>
</svg>
