<?xml version="1.0" encoding="UTF-8" standalone="no"?>
<svg
   xmlns:dc="http://purl.org/dc/elements/1.1/"
   xmlns:cc="http://creativecommons.org/ns#"
   xmlns:rdf="http://www.w3.org/1999/02/22-rdf-syntax-ns#"
   xmlns:svg="http://www.w3.org/2000/svg"
   xmlns="http://www.w3.org/2000/svg"
   id="svg9"
   version="1.1"
   viewBox="0 0 680.68947 634.59187"
   width="680.68945"
   height="634.59186">
  <metadata
     id="metadata13">
    <rdf:RDF>
      <cc:Work
         rdf:about="">
        <dc:format>image/svg+xml</dc:format>
        <dc:type
           rdf:resource="http://purl.org/dc/dcmitype/StillImage" />
        <dc:title></dc:title>
      </cc:Work>
    </rdf:RDF>
  </metadata>
  <defs
     id="defs4">
    <style
       id="style2">.cls-1{fill:none;stroke:#231f20;stroke-miterlimit:10;}</style>
  </defs>
  <g
     data-name="Layer 2"
     id="Layer_2"
     transform="translate(-16.60337,1414.2925)">
    <g
       id="Districts" />
  </g>
  <path
     d="m 41.828129,282.5137 c 2.6,1.54 4.622109,2.6378 5.912109,3.4278 2.445,1.5 3.943281,2.4593 5.144531,3.1406 1.201251,0.6812 2.105469,1.0837 3.355469,1.4687 1.7623,0.5404 3.580822,0.8759 5.419922,1 1.04565,0.125 2.098331,0.1524 3.144531,0.082 1.0462,-0.07 2.085919,-0.2381 3.105469,-0.5019 1.14435,-0.3547 2.242856,-0.8317 3.277344,-1.4219 1.034487,-0.5902 2.004878,-1.2931 2.892578,-2.0977 0.8939,-0.6901 1.721219,-1.46 2.472656,-2.2968 0.751438,-0.8368 1.427228,-1.7404 2.017578,-2.7032 0.7253,-1.0983 1.292682,-2.2857 1.691407,-3.5273 0.398725,-1.2416 0.627934,-2.5382 0.677734,-3.8535 0.0561,-0.8329 0.0096,-1.6664 -0.134766,-2.4824 -0.144387,-0.816 -0.386059,-1.6139 -0.724609,-2.377 -0.45,-0.945 -0.888359,-1.4122 -1.380859,-1.9297 -0.4925,-0.5175 -1.038985,-1.0854 -1.708985,-2.2304 -0.8302,-1.442 -1.4212,-3.0097 -1.75,-4.6407 -0.216,-0.9244 -0.344022,-1.8643 -0.380859,-2.8086 -0.03684,-0.9443 0.01681,-1.8916 0.160156,-2.83 0.105,-0.62 0.261719,-1.2934 0.636719,-2.2247 0.375,-0.9312 0.968359,-2.1203 1.943359,-3.7753 1.5142,-2.5184 3.1841,-4.9397 5,-7.25 4.070001,-5.36 4.140001,-5.1699 6.250001,-8.0899 1.922,-2.6284 3.69535,-5.3641 5.31055,-8.1914 1.19,-2.09 1.91273,-3.5752 2.36523,-4.6465 0.4525,-1.0712 0.63414,-1.7271 0.74414,-2.1621 0.5003,-2.0446 0.73165,-4.1456 0.68945,-6.25 -0.069,-2.083 -0.26307,-4.1608 -0.58007,-6.2207 -0.23,-1.91 -0.49,-4 -1,-6.75 -0.53,-3.06 -0.67993,-3.14 -0.91993,-5 -0.17,-1.4 -0.10937,-1.4398 -0.35937,-5.5898 -0.25,-4.15 -0.33992,-4.4614 -0.16992,-5.6114 0.1761,-1.5518 0.68107,-3.0469 1.48047,-4.3886 0.53605,-0.7905 1.15943,-1.5137 1.85742,-2.1563 0.69799,-0.6426 1.47073,-1.2048 2.302736,-1.6738 1.5765,-1.0027 3.252,-1.8405 5,-2.5 1.43,-0.61 2.53953,-1.0013 4.76953,-1.7813 3.38,-1.18 3.12984,-0.9993 5.58984,-1.8593 1.1924,-0.5127 2.42646,-0.9197 3.68946,-1.2188 0.65885,-0.2103 1.34129,-0.3219 2.02539,-0.332 0.6841,-0.01 1.3704,0.081 2.03515,0.2715 0.245,0.095 0.65993,0.2818 1.16993,0.7343 0.51,0.4525 1.11523,1.1712 1.74023,2.3262 0.535,1 0.87414,1.9109 1.15039,3.2871 0.27625,1.3763 0.48953,3.2173 0.76953,6.0723 0.18,1.81 0.38992,4.1006 0.91992,7.1406 0.0788,0.9351 0.2921,1.8473 0.62891,2.7129 0.33681,0.8656 0.79709,1.6833 1.37109,2.4258 0.14,0.17 0.67071,0.6604 1.72071,1.6504 1.61,1.52 2.41812,2.2796 2.82812,2.5996 1.2734,0.9313 2.69387,1.6456 4.20117,2.1113 1.706,0.5793 3.47484,0.9513 5.26954,1.1094 1.6897,0.1902 3.38964,0.2737 5.08984,0.25 1.7282,0.052 3.45509,-0.022 5.16797,-0.2207 1.71287,-0.1988 3.41173,-0.5221 5.08203,-0.9687 1.8727,-0.4341 3.72035,-0.9761 5.53125,-1.6211 2.1915,-0.7492 4.31038,-1.6965 6.33008,-2.8301 1.5778,-0.8367 3.05982,-1.8426 4.41992,-3 1.157,-1.0916 2.24843,-2.2491 3.26953,-3.4688 2.17,-2.44 2.58867,-3.16 2.88867,-4 0.3011,-0.9766 0.5007,-1.9821 0.5918,-3 0,-0.21 0.52891,-3.14 1.12891,-5.5 0.4909,-1.8464 1.11699,-3.6547 1.87109,-5.4101 0.9346,-2.0156 1.97197,-3.9821 3.10937,-5.8906 1,-1.77 1.65063,-2.9393 2.64063,-4.5293 0.9715,-1.6863 2.0672,-3.2977 3.2793,-4.8203 1.1329,-1.3296 2.36595,-2.571 3.68945,-3.711 1.3366,-1.2179 2.73465,-2.3655 4.18945,-3.4394 0.88,-0.66 3.00133,-2.2 5.86133,-4 2,-1.19 3.50867,-1.9995 4.88867,-2.6895 3.74,-1.93 4.14125,-1.85 7.28125,-3.5 1.14,-0.6 3.36,-1.8012 6,-3.5312 1.5943,-0.9991 3.13268,-2.0841 4.60938,-3.25 1.7737,-1.3837 3.42575,-2.916 4.93945,-4.5801 1.3643,-1.447 2.57553,-3.0308 3.61133,-4.7285 0.7662,-1.3579 1.43646,-2.7662 2.00781,-4.2129 0.57135,-1.4468 1.04371,-2.9322 1.41211,-4.4473 0.3,-1 0.67922,-2.5599 1.44922,-5.6699 1.17,-4.76 1.76133,-7.14 2.11133,-9 0.74,-3.89 0.53,-4.1306 1.25,-7.5606 0.19,-0.9 0.78867,-3.6806 1.88867,-7.1406 0.63515,-1.9951 1.32795,-3.9552 2.10156,-5.8828 0.77361,-1.9276 1.62919,-3.8222 2.58789,-5.6836 M 149.45899,0.5 l 106.2696,72.1641 70.6484,47.9746 157.2852,106.8067 196.5273,133.455 -120.4805,61.23248 -165.7675,84.24805 -93.545,47.54297 -157.7363,80.16797 -14.4062,-45.20508 -48.064496,-150.82617 -2.4453,-9.91602 -35.916,-145.6309 -41.32820037,-167.582 z m 0,0 v 163.4415 l -16.30859,30.9394 m 44.24414,163.3711 119.51172,-83.8222 m -113.67774,-89.588 118.00977,86.5489 -4.33203,3.039 17.34375,12.1309 m 12.12695,-165.9219 c -2.145,0.83 -4.89466,1.4466 -7.37891,1.957 -2.48425,0.5105 -4.70406,0.9143 -5.78906,1.3243 -0.875,0.3375 -1.80062,0.5428 -2.75391,0.6797 -0.95328,0.1368 -1.93343,0.2059 -2.91406,0.2734 -0.98062,0.068 -1.96289,0.1343 -2.91992,0.2637 -0.95703,0.1293 -1.88898,0.322 -2.77148,0.6445 -1.47125,0.4804 -2.89292,1.091 -4.25,1.8223 -1.35709,0.7312 -2.64898,1.5823 -3.85938,2.5468 -0.595,0.5 -1.17922,1.0437 -1.60547,1.6387 -0.42625,0.595 -0.69601,1.2412 -0.66601,1.9512 0.0676,0.4755 0.22251,0.9297 0.45312,1.3418 0.23061,0.412 0.53826,0.7816 0.9082,1.0879 0,0 0.81016,0.8603 5.16016,6.3203 0.89575,1.016 1.69738,2.1069 2.39844,3.2597 0.70106,1.1529 1.30101,2.3682 1.79101,3.6309 0.5111,1.4473 0.87911,2.942 1.09961,4.4609 0.22,1.5 0.19844,2.3458 0.17969,3.0196 -0.0187,0.6737 -0.0338,1.1754 0.20117,1.9804 0.2175,0.75 0.55141,1.4201 0.94532,2.0137 0.3939,0.5936 0.84765,1.1095 1.30078,1.5488 0.90625,0.8788 1.8139,1.4516 2.2539,1.7266 1.105,0.69 1.81594,0.8781 2.74219,1.0781 0.92625,0.2 2.06734,0.4124 4.02734,1.1524 2.2331,0.8018 4.35435,1.8877 6.31055,3.2304 1.1147,0.809 2.17176,1.6901 3.16406,2.6407 0.9923,0.9505 1.91929,1.9699 2.77539,3.0488 1.355,1.605 2.10461,2.7305 2.78711,3.5918 0.6825,0.8612 1.29782,1.4578 2.38282,2.0078 0.70715,0.3787 1.46318,0.6446 2.24218,0.793 0.779,0.1483 1.58011,0.1801 2.37696,0.088 0.66,-0.095 1.27359,-0.3161 1.99609,-0.6836 0.7225,-0.3675 1.5543,-0.8814 2.6543,-1.5664 3.1,-1.94 2.76054,-2.1705 4.06054,-2.7305 0.94,-0.4 1.83969,-0.5713 2.92969,-0.6113 1.09,-0.04 2.37031,0.052 4.07031,0.1719 2.1023,0.015 4.18926,0.3528 6.18946,1 1.008,0.3679 1.97714,0.8275 2.89453,1.375 0.91739,0.5474 1.78349,1.1821 2.58594,1.8945 0.8073,0.65 1.52609,1.3956 2.14257,2.2187 0.61649,0.8232 1.1306,1.7242 1.52735,2.6817 0.5441,1.5214 0.77509,3.137 0.67969,4.75 -0.0405,1.0553 -0.16593,2.1031 -0.375,3.1347 -0.20908,1.0317 -0.5018,2.0472 -0.875,3.0352 -0.5715,2.0391 -1.39699,3.998 -2.45899,5.8301 -1.1325,1.8235 -2.45104,3.5259 -3.93164,5.0801 -0.9,1 -1.5318,1.6294 -2.06055,2.2207 -0.52875,0.5912 -0.95445,1.1432 -1.43945,1.9882 -0.41145,0.5875 -0.73074,1.2285 -0.95312,1.9024 -0.22239,0.6739 -0.34624,1.3806 -0.36524,2.0976 0.1494,1.1795 0.487,2.3278 1,3.4004 0.3649,1.0763 0.82571,2.1166 1.37891,3.1094 0.7572,1.2001 1.5923,2.3487 2.5,3.4395 0.751,0.9018 1.43974,1.8556 2.06054,2.8515 1,1.61 1,2.1394 1,2.3594 -0.0994,0.5745 -0.32615,1.1113 -0.65429,1.5762 -0.32814,0.4648 -0.75753,0.8584 -1.26563,1.1445 -0.465,0.315 -0.92,0.5139 -1.53125,0.6602 -0.61125,0.1462 -1.37875,0.2398 -2.46875,0.3398 -4.17,0.36 -4.79109,0.049 -6.87109,0.5488 -0.825,0.19 -1.55828,0.3671 -2.20703,0.6446 -0.64875,0.2775 -1.21141,0.656 -1.69141,1.246 -0.3848,0.5104 -0.67202,1.0807 -0.85156,1.6836 -0.17954,0.603 -0.25194,1.2392 -0.20899,1.877 0.005,0.6878 0.13575,1.361 0.38282,1.9902 0.24706,0.6293 0.60942,1.2135 1.07617,1.7188 0.7192,0.657 1.58368,1.1368 2.52148,1.4004 1.88,0.7 2.33946,0.3294 3.93946,0.9394 0.61115,0.1959 1.18747,0.4789 1.71289,0.836 0.52541,0.357 0.99905,0.7891 1.40625,1.2851 0.4348,0.5727 0.75515,1.2166 0.95508,1.8965 0.19992,0.6799 0.28082,1.3956 0.23632,2.1133 h 100.45899 m 24.54297,-25.1661 c -1.1295,0.9877 -1.97856,2.0935 -2.72266,3.3964 -0.403,0.9533 -0.9878,1.8182 -1.7207,2.5489 -0.6587,0.575 -1.4371,0.9956 -2.2793,1.2304 -0.5,0.12 -0.95,0.1702 -4,-0.09 -1.71,-0.11 -1.94992,-0.16 -2.41992,0 -0.46685,0.1858 -0.88989,0.4574 -1.24805,0.7969 -0.35816,0.3395 -0.65083,0.7469 -0.86133,1.2031 -0.4185,0.7924 -0.52628,1.7128 -0.30078,2.5801 0.2403,0.7047 0.68133,1.3228 1.26953,1.7793 0.565,0.49 1.01875,0.6773 1.40625,0.8535 0.3875,0.1763 0.70867,0.3421 1.01368,0.7871 0.404,0.5062 0.54002,1.176 0.36132,1.7989 -0.15595,0.321 -0.40091,0.5816 -0.69531,0.7558 -0.2944,0.1743 -0.63964,0.2622 -0.99609,0.2442 -0.375,-0.02 -0.61203,-0.1601 -0.89453,-0.3926 -0.2825,-0.2325 -0.60907,-0.5573 -1.16407,-0.9473 -0.8741,-0.6855 -1.9051,-1.1427 -3,-1.3301 -0.49785,-0.088 -1.00465,-0.084 -1.49414,0.01 -0.48948,0.09 -0.96228,0.2664 -1.39648,0.5254 -0.4244,0.3095 -0.7891,0.6872 -1.08008,1.1153 -0.29098,0.428 -0.50892,0.9056 -0.64062,1.414 -0.47,1.29 -0.22875,1.8694 -0.46876,3.3594 -0.2067,1.232 -0.61643,2.4326 -1.21093,3.5313 l 0.0195,112.6503 h 59.84961 l 40.7207,56.87113 M 459.13868,365.2618 h -31.03906 v 14.7285 h -34.33008 l 0.17187,126.3906 m -0.17187,-126.3906 -74.66992,-0.01 c -0.675,0.605 -1.42578,0.855 -2.23828,0.9375 -0.8125,0.082 -1.68633,-10e-4 -2.61133,-0.066 -1.175,-0.095 -2.17485,-0.3087 -3.33985,-0.7012 -1.165,-0.3925 -2.49507,-0.9643 -4.33008,-1.7793 -5.23,-2.31 -5.87999,-2.7201 -8.25,-3.5801 -2.62999,-0.955 -4.32992,-1.3527 -5.45117,-1.4902 -1.12125,-0.1375 -1.66351,-0.015 -1.97851,0.07 -0.105,0 -1.01438,0.2503 -2.04688,0.8828 -0.51625,0.3163 -1.06258,0.7279 -1.55664,1.252 -0.49406,0.524 -0.93578,1.1608 -1.23828,1.9258 -0.4143,1.1762 -0.54647,2.4329 -0.38867,3.6699 -0.021,0.6642 0.0462,1.3241 0.19922,1.9648 0.15302,0.6407 0.39204,1.2607 0.71093,1.8438 0.5,0.775 0.98485,1.0726 1.5586,1.4238 0.57375,0.3512 1.23484,0.7561 2.08984,1.7461 0.4,0.465 0.79328,0.9173 1.08203,1.4023 0.28875,0.485 0.47399,1.0027 0.45899,1.5977 0,0.5 -0.14313,0.8187 -0.35938,1.2012 -0.21625,0.3825 -0.50578,0.8298 -0.80078,1.5898 -0.3322,1.0318 -0.56275,2.0934 -0.68945,3.1699 -0.1625,0.6275 -0.42024,1.1919 -0.73633,1.6993 -0.31609,0.5073 -0.69156,0.9574 -1.08594,1.3593 -0.78875,0.8038 -1.65859,1.4109 -2.30859,1.8809 -0.285,0.2 -0.85258,0.5802 -1.89258,1.0215 -1.04,0.4412 -2.55156,0.9436 -4.72656,1.3886 -1.65,0.34 -2.69,0.4497 -10,0.9297 -2.8061,0.1037 -5.59841,0.4382 -8.34961,1 -0.87125,0.1694 -1.72176,0.4248 -2.53906,0.7598 -0.8173,0.335 -1.60225,0.7495 -2.3418,1.2402 -0.6035,0.3282 -1.13901,0.7578 -1.58594,1.2657 -0.44692,0.5078 -0.80588,1.094 -1.05468,1.7343 -0.05,0.19 -0.0784,0.891 -0.14844,2.291 0.052,1.08544 -0.0498,2.17331 -0.30078,3.23051 -0.2955,0.7564 -0.75275,1.439 -1.33985,2 -0.5,0.54 -0.96,0.90648 -1.71875,1.36523 -0.75875,0.45875 -1.81672,1.00906 -3.51172,1.91406 -1.1838,0.5413 -2.30374,1.2121 -3.33984,2 -0.4633,0.2846 -0.87082,0.64266 -1.20898,1.0586 -0.33817,0.41594 -0.60697,0.88874 -0.79102,1.40039 -0.125,0.5 -0.0844,0.92656 0.0469,1.41406 0.13124,0.4875 0.35375,1.03711 0.59374,1.78711 0,0.1 0.31844,1.55898 0.89844,4.45899 0.84,4.24 0.78063,7.11148 1.89063,13.77148 0.245,1.47 0.45531,2.56406 0.75781,3.44531 0.3025,0.88125 0.6975,1.54906 1.3125,2.16406 0.19,0.19 0.53156,0.50524 1.19531,0.86524 0.66375,0.36 1.65,0.76476 3.125,1.13476 1.1075,0.265 2.02313,0.39133 2.84766,0.44336 0.82453,0.052 1.55711,0.0305 2.30273,-0.004 1.49125,-0.0687 3.02969,-0.18485 5.42969,0.16015 2.1258,0.3028 4.20475,0.87006 6.18945,1.68946 1.42,0.585 2.70797,1.11593 3.82422,1.80468 0.55813,0.34438 1.07336,0.72727 1.54102,1.17774 0.46765,0.45047 0.88836,0.96812 1.25586,1.57812 0.51755,0.86685 0.87268,1.81058 1.06054,2.78711 0.18787,0.97654 0.20783,1.98542 0.0488,2.98243 -0.135,0.68 -0.31218,1.0357 -0.74219,1.68945 -0.43,0.65375 -1.11281,1.60547 -2.25781,3.48047 -1.86,3 -1.50054,2.83117 -3.31054,5.70117 -1.36,2.16 -1.74016,2.53 -2.16016,3.75 -0.4635,1.4818 -0.68952,3.02768 -0.66992,4.58008 -0.15,2.92 0.19937,3.30867 -0.14063,5.38867 -0.0395,0.68035 -0.17982,1.34847 -0.41406,1.98047 -0.23424,0.632 -0.56106,1.22788 -0.97461,1.76953 -0.27,0.31 -0.7,0.71 -3,1.75 -1.715,0.765 -2.68852,1.08547 -3.35351,1.32422 -0.665,0.23875 -1.02282,0.39594 -1.50782,0.83594 -0.5392,0.54214 -0.98266,1.16454 -1.32031,1.83984 -0.33765,0.6753 -0.56949,1.40351 -0.67969,2.16016 -0.143,0.85599 -0.1865,1.72338 -0.13281,2.58398 0.0537,0.8606 0.20488,1.71527 0.45313,2.54687 0.4567,2.0285 1.17019,3.99075 2.12109,5.83985 0.5274,1.10175 1.13964,2.15904 1.83008,3.16211 0.69043,1.00306 1.45798,1.95189 2.29883,2.83789 0.9787,0.95175 2.03558,1.81681 3.15624,2.58789 1.12067,0.77107 2.30628,1.44753 3.54493,2.02148 7.32,3.92 10.99992,5.88071 11.91992,6.47071 2.13485,1.40765 4.17245,2.95085 6.10156,4.62109 1.92911,1.67024 3.74857,3.46751 5.44727,5.37891 2.2752,2.4601 4.40932,5.0476 6.39062,7.75 1.06,1.44 1.90711,2.69281 2.53711,3.63281 m -39.0566,-97.7029 -113.37109,63.54102 16.10937,50.53906 -35.82422,18.58594 M 240.93944,426.58022 177.39454,358.252 77.744145,428.14457 M 314.25001,286.5606 c -0.9476,1.1683 -2.02901,2.2227 -3.22071,3.1406 -0.992,0.8132 -1.92718,1.6896 -2.80078,2.625 -0.8736,0.9354 -1.68608,1.9294 -2.42968,2.9746 -0.56125,0.8163 -1.0459,1.6797 -1.44922,2.5801 -0.40333,0.9004 -0.72549,1.8385 -0.96094,2.8008 -0.2777,1.688 -0.454,3.3906 -0.5293,5.0996 -0.3,3.55 -0.31898,3.9 -0.45898,5 -0.132,1.6713 -0.4678,3.3204 -1,4.9102 -0.68,1.73 -1.07,1.66 -2,3.83 -0.691,1.3419 -1.1462,2.7925 -1.3418,4.2891 -0.0764,0.9221 -0.033,1.8459 0.125,2.75 0.15796,0.9041 0.43186,1.7893 0.81641,2.6309 0.48,1.09 0.81851,1.3896 3.22851,4.3496 1.935,2.38 2.91032,3.6465 3.53906,4.414 0.62875,0.7675 0.91094,1.036 1.46094,1.416 1.68,1.12 2,0.6799 5,2.3399 1.14,0.625 1.99352,1.094 2.63477,1.5215 0.64125,0.4275 1.07023,0.8125 1.36523,1.2675 0.3075,0.475 0.46125,0.9098 0.52735,1.3653 0.0661,0.4554 0.0451,0.9322 0.002,1.4941 -0.0863,1.1238 -0.25828,2.5856 0.0117,4.8906 0.2143,1.8616 0.61235,3.6977 1.18945,5.4805 0.83,2.63 1.26141,2.701 1.94141,5.211 0.4925,1.7369 0.77751,3.526 0.84961,5.33 v 3.4395 c 0,2.71 0.08,2.6101 0,3.3301 -0.065,0.815 -0.13969,1.7469 -0.36719,2.6269 -0.2275,0.88 -0.6082,1.7075 -1.2832,2.3125 l 74.66992,0.01 h 34.33008 V 365.262 h 31.03906 l -0.0195,-112.6504 H 358.66016 c -0.03,0.36 -0.0973,0.7551 -0.37109,1.3613 -0.27375,0.6063 -0.75438,1.4239 -1.60938,2.6289 -1.0788,1.5208 -2.25413,2.9704 -3.51953,4.3399 -2.26,2.37 -3.15054,2.75 -5.31054,5.25 -0.865,1 -1.37821,1.6896 -1.68946,2.2246 -0.31125,0.535 -0.42047,0.9149 -0.48047,1.2949 -0.0877,0.7601 -0.0365,1.5237 0.14649,2.2539 0.18299,0.7303 0.49784,1.4278 0.93359,2.0567 0.53,0.74 0.70953,0.6086 1.76953,1.8086 1.06,1.2 1.72086,2.0005 1.88086,2.8105 0.145,0.8 -0.07,1.5495 -0.40625,2.207 -0.33625,0.6575 -0.79476,1.2224 -1.13476,1.6524 -0.49785,0.6066 -1.08124,1.1324 -1.72852,1.5605 -0.64727,0.4282 -1.35828,0.7597 -2.11133,0.9805 -1.3119,0.3198 -2.679,0.3408 -4,0.061 -1.2454,-0.1321 -2.47527,-0.3687 -3.67773,-0.7031 -1.20246,-0.3345 -2.37697,-0.7669 -3.51172,-1.2969 -1.275,-0.605 -2.84695,-1.3564 -4.37695,-2.3789 -0.765,-0.5113 -1.51946,-1.0905 -2.22071,-1.7539 -0.70125,-0.6635 -1.34984,-1.4103 -1.90234,-2.2578 -0.2369,-0.4898 -0.56726,-0.9218 -0.9668,-1.2754 -0.39953,-0.3537 -0.86786,-0.6291 -1.38281,-0.8047 -0.5009,-0.063 -1.0048,-0.025 -1.48242,0.1055 -0.47763,0.1309 -0.92953,0.3541 -1.32813,0.664 -0.50335,0.3895 -0.9497,0.8431 -1.32812,1.3477 -0.37843,0.5046 -0.68893,1.0601 -0.92188,1.6523 -0.86,1.69 -0.71937,2.0002 -1.60937,4.1602 -0.5226,1.4135 -1.21811,2.757 -2.07031,4 z"
     style="fill:none;stroke:#231f20;stroke-linecap:round;stroke-linejoin:round;paint-order:fill markers stroke"
     id="path862-9" />
</svg>
