<?xml version="1.0" encoding="UTF-8" standalone="no"?>
<svg
   xmlns:dc="http://purl.org/dc/elements/1.1/"
   xmlns:cc="http://creativecommons.org/ns#"
   xmlns:rdf="http://www.w3.org/1999/02/22-rdf-syntax-ns#"
   xmlns:svg="http://www.w3.org/2000/svg"
   xmlns="http://www.w3.org/2000/svg"
   viewBox="0 0 540.35698 350.78202"
   version="1.1"
   id="svg56"
   width="540.35699"
   height="350.78201">
  <metadata
     id="metadata60">
    <rdf:RDF>
      <cc:Work
         rdf:about="">
        <dc:format>image/svg+xml</dc:format>
        <dc:type
           rdf:resource="http://purl.org/dc/dcmitype/StillImage" />
        <dc:title></dc:title>
      </cc:Work>
    </rdf:RDF>
  </metadata>
  <defs
     id="defs4">
    <style
       id="style2">
      .cls-1 {
        fill: none;
      }

      .cls-3 {
        fill: #fff;
      }

      .cls-4 {
        fill: #f1b310;
      }

      .cls-5 {
        fill: #b9e2f8;
      }

      .cls-6 {
        fill: #056839;
      }

      .cls-7 {
        fill: #005dab;
      }
    </style>
  </defs>
  <g
     id="Layer_2"
     data-name="Layer 2"
     transform="translate(-229.8213)">
    <g
       id="Layer_1-2"
       data-name="Layer 1">
      <rect
         y="0"
         id="rect6"
         height="350.78201"
         width="540.35742"
         x="229.8213"
         class="cls-3" />
      <rect
         id="rect8"
         height="62.74403"
         width="540.35742"
         y="157.769"
         x="229.8213"
         class="cls-4"
         style="stroke-width:1.33427" />
      <rect
         id="rect10"
         height="157.769"
         width="540.35742"
         y="193.01302"
         x="229.8213"
         class="cls-3" />
      <rect
         y="0"
         id="rect12"
         height="157.769"
         width="540.35742"
         x="229.8213"
         class="cls-5" />
      <polygon
         id="polygon14"
         points="1000,350.782 0,350.782 319.3,177.766 680.7,177.766 "
         class="cls-6" />
      <polygon
         id="polygon16"
         points="911.212,350.782 88.788,350.782 354.193,177.766 645.807,177.766 "
         class="cls-4" />
      <polygon
         id="polygon18"
         points="887.2,350.782 112.8,350.782 360.066,177.766 639.934,177.766 "
         class="cls-6" />
      <polygon
         id="polygon20"
         points="796.634,350.782 203.365,350.782 394.82,177.766 605.18,177.766 "
         class="cls-4" />
      <polygon
         id="polygon22"
         points="777.468,350.782 222.532,350.782 399.723,177.766 600.277,177.766 "
         class="cls-6" />
      <polygon
         id="polygon24"
         points="689.581,350.782 310.419,350.782 432.779,177.766 567.221,177.766 "
         class="cls-4" />
      <polygon
         id="polygon26"
         points="674.218,350.782 325.782,350.782 438.226,177.766 561.774,177.766 "
         class="cls-6" />
      <polygon
         id="polygon28"
         points="591.678,350.782 408.322,350.782 467.493,177.766 532.507,177.766 "
         class="cls-4" />
      <polygon
         id="polygon30"
         points="575.68,350.782 424.32,350.782 473.166,177.766 526.834,177.766 "
         class="cls-7" />
      <polyline
         id="polyline32"
         points="436.42 177.766 372.84 171.105 436.73 168.896 374.696 153.451 438.271 160.155 378.99 136.228 441.014 151.714 385.64 119.769 444.905 143.737 394.516 104.396 449.868 136.378 405.444 90.408 455.807 129.783 418.213 78.077 462.606 124.077 432.575 67.643 470.133 119.374 448.248 59.309 478.241 115.764 464.929 53.238 486.773 113.318 482.292 49.547 495.562 112.082 500 48.309 504.438 112.082 517.708 49.547 513.227 113.318 535.071 53.238 521.759 115.764 551.752 59.309 529.867 119.374 567.425 67.643 537.394 124.077 581.787 78.077 544.193 129.783 594.556 90.408 550.132 136.378 605.484 104.396 555.095 143.737 614.36 119.769 558.986 151.714 621.01 136.228 561.729 160.155 625.304 153.451 563.27 168.896 627.16 171.105 563.58 177.766"
         class="cls-4" />
      <rect
         style="fill:#f1b310;fill-opacity:1;stroke:none;stroke-width:4.40004;stroke-miterlimit:4.24"
         id="rect977"
         width="213.00102"
         height="4.5248346"
         x="432.77866"
         y="175.24898" />
      <g
         id="g42">
        <circle
           id="circle34"
           r="64.064178"
           cy="177.76624"
           cx="500"
           class="cls-3" />
        <circle
           id="circle36"
           r="58.776482"
           cy="177.76624"
           cx="500"
           class="cls-4" />
        <circle
           id="circle38"
           r="53.891171"
           cy="177.76624"
           cx="500"
           class="cls-3" />
        <circle
           id="circle40"
           r="51.98394"
           cy="177.76624"
           cx="500"
           class="cls-7" />
      </g>
      <polygon
         id="polygon44"
         points="334.333,177.766 229.821,177.766 229.821,229.75 "
         class="cls-6"
         transform="translate(0.03826335,0.03826335)" />
      <polygon
         id="polygon46"
         points="770.179,229.75 665.667,177.766 770.179,177.766 "
         class="cls-6" />
      <path
         id="path48"
         d="m 256.5,178.11504 q 18.37654,-8.60675 36.75315,-17.21348 l 9.73922,1.58546 12.68359,-7.4743 h 10.64515 l 17.21348,-9.51272 8.60676,6.11534 c 0,0 19.9314,0 21.06385,0.22651 1.13245,0.22651 19.02539,11.55113 19.9314,12.23058 17.01351,12.75907 39.41163,14.03685 39.40984,14.04261 z"
         class="cls-6" />
      <path
         id="path50"
         d="m 528.77592,211.19931 c -0.0174,-0.0513 -0.0337,-0.0995 -0.0464,-0.14243 a 12.833,12.833 0 0 0 -12.4336,-9.23131 13.64436,13.64436 0 0 0 -5.942,1.37321 q -0.27083,-0.26532 -0.55452,-0.519 a 16.00976,16.00976 0 0 0 -9.3155,-3.97286 l 0.17208,-5.12077 a 11.82419,11.82419 0 0 1 4.11873,-0.68193 c 3.27965,-0.19548 7.36131,-0.43914 10.94728,-4.2189 4.61261,-4.86275 5.85349,-13.65429 4.9479,-15.88021 a 1.21566,1.21566 0 0 0 -1.13947,-0.88265 1.331,1.331 0 0 0 -0.82567,0.31032 c -0.92144,0.71987 -2.53125,0.8065 -4.3953,0.907 -3.26887,0.17575 -7.3371,0.39482 -10.80051,4.04526 a 16.06439,16.06439 0 0 0 -2.41477,3.36907 l 0.399,-11.87327 a 18.08287,18.08287 0 0 1 3.55248,-2.46383 c 3.301,-1.952 7.40942,-4.38167 9.10331,-10.07589 1.97123,-6.62966 -0.70563,-15.13012 -2.69359,-17.82787 a 2.19228,2.19228 0 0 0 -1.64205,-1.11945 1.29559,1.29559 0 0 0 -1.18477,0.8296 c -0.59195,1.25988 -2.24372,2.22391 -4.15627,3.34049 -3.30012,1.92645 -7.40747,4.32387 -9.04257,9.82137 -2.0608,6.92851 0.8062,15.02689 2.72348,17.629 0.0503,0.0684 0.10027,0.13244 0.14986,0.19473 l -0.21588,6.424 a 11.49357,11.49357 0 0 0 -3.9,-6.43731 c -3.55026,-2.98474 -9.02877,-4.04389 -12.6415,-4.04389 -3.50114,0 -3.94115,0.91735 -4.08559,1.21868 a 1.16709,1.16709 0 0 0 0.21509,1.31455 c 0.74,0.85582 0.8623,2.45547 1.00377,4.30778 0.248,3.248 0.55678,7.29013 4.28208,10.42241 3.48225,2.9283 8.65859,3.97148 12.34148,3.97148 a 12.61341,12.61341 0 0 0 2.43016,-0.19784 l -0.42874,12.75829 a 17.17655,17.17655 0 0 0 -9.18847,3.93292 q -0.30134,0.253 -0.5894,0.519 a 13.05706,13.05706 0 0 0 -5.84967,-1.37322 13.70091,13.70091 0 0 0 -7.749,2.40816 14.04727,14.04727 0 0 0 -5.05065,6.17106 2.45,2.45 0 0 0 -0.008,2.328 2.18026,2.18026 0 0 0 1.96948,0.85519 h 56.32159 a 1.7923,1.7923 0 0 0 1.54417,-0.63325 1.87446,1.87446 0 0 0 0.0723,-1.75569 z m -34.299,-30.29571 c -0.041,-0.0417 -0.0834,-0.0825 -0.1236,-0.12558 l -0.0611,-0.0644 -0.0153,-0.0162 -0.004,-0.004 c -0.004,-0.005 0.0245,0.0318 0.0105,0.0146 l -0.007,-0.007 -0.0298,-0.0267 q -0.11793,-0.10655 -0.2389,-0.21583 c -0.1699,-0.13731 -0.33555,-0.28211 -0.51876,-0.41679 a 18.58965,18.58965 0 0 0 -2.48694,-1.53375 c -0.91072,-0.49069 -1.87795,-0.97527 -2.77,-1.54248 a 11.54063,11.54063 0 0 1 -1.25633,-0.91161 6.55771,6.55771 0 0 1 -0.99889,-1.03944 4.4745,4.4745 0 0 1 -0.61453,-1.07326 2.1478,2.1478 0 0 1 -0.0894,-0.25115 c -0.0263,-0.0818 -0.0491,-0.16065 -0.0702,-0.236 -0.0321,-0.156 -0.061,-0.29584 -0.0786,-0.42454 -0.0125,-0.13294 -0.0211,-0.24865 -0.0254,-0.34777 a 2.47053,2.47053 0 0 1 0.008,-0.24778 l 0.0157,-0.20708 0.10929,0.17251 c 0.036,0.0552 0.0742,0.12919 0.12777,0.206 q 0.0789,0.10991 0.1804,0.25177 0.10864,0.13257 0.2397,0.29247 c 0.10126,0.0957 0.18584,0.20884 0.30493,0.30882 a 5.28915,5.28915 0 0 0 0.799,0.617 9.10666,9.10666 0 0 0 1.04866,0.57957 c 0.38849,0.18874 0.81555,0.37 1.26674,0.561 0.90181,0.38072 1.90881,0.79253 2.90594,1.32341 a 12.79974,12.79974 0 0 1 1.45713,0.90163 8.973,8.973 0 0 1 1.28991,1.12331 7.31168,7.31168 0 0 1 0.53579,0.63437 q 0.11739,0.1674 0.23228,0.331 l 0.0285,0.0407 0.007,0.01 c -0.0116,-0.0145 0.0199,0.0256 0.0174,0.0232 l 0.003,0.005 0.0112,0.0191 0.0457,0.0764 c 0.0309,0.0504 0.059,0.10273 0.0881,0.15341 0.23326,0.40606 0.44558,0.79652 0.63489,1.16189 0.0923,0.18436 0.18392,0.35887 0.26545,0.52914 0.0799,0.17164 0.15537,0.33566 0.22187,0.49257 0.1348,0.31244 0.247,0.58856 0.33358,0.81973 0.17562,0.461 0.25413,0.73973 0.25413,0.73973 0,0 -0.23758,-0.15878 -0.61518,-0.46361 -0.38293,-0.3017 -0.88764,-0.75782 -1.49463,-1.3123 -0.2995,-0.27951 -0.61706,-0.58775 -0.94427,-0.92091 z m 5.75438,-14.39615 c 0.0993,-0.26912 0.22674,-0.59193 0.37858,-0.95767 0.15493,-0.36449 0.33015,-0.7758 0.521,-1.22442 0.196,-0.44638 0.41582,-0.92547 0.65735,-1.42677 l 0.0911,-0.18911 0.0474,-0.0949 0.0118,-0.0237 0.003,-0.006 c 0.004,-0.006 -0.021,0.035 -0.01,0.0147 l 0.004,-0.0111 0.0185,-0.0447 q 0.074,-0.17789 0.14991,-0.36013 c 0.0891,-0.24865 0.1866,-0.49706 0.26631,-0.75932 a 21.3741,21.3741 0 0 0 0.72832,-3.42337 c 0.17979,-1.21594 0.324,-2.48355 0.57863,-3.70161 a 14.77255,14.77255 0 0 1 0.47434,-1.76418 8.318,8.318 0 0 1 0.703,-1.54448 5.69039,5.69039 0 0 1 0.88413,-1.1549 2.63147,2.63147 0 0 1 0.22826,-0.21408 c 0.0754,-0.0664 0.14912,-0.12844 0.21987,-0.18711 0.1512,-0.10885 0.28668,-0.20647 0.41447,-0.28735 q 0.20162,-0.11572 0.355,-0.19536 c 0.10139,-0.0531 0.19226,-0.0825 0.26432,-0.11334 0.14607,-0.0563 0.22421,-0.0861 0.22421,-0.0861 l -0.15015,0.18886 c -0.0476,0.0617 -0.11483,0.13357 -0.18013,0.22332 -0.0624,0.0877 -0.13379,0.18861 -0.21386,0.30158 -0.0718,0.11621 -0.15091,0.24516 -0.23751,0.38534 -0.0697,0.15054 -0.16524,0.29247 -0.23348,0.4661 q -0.0551,0.12471 -0.1139,0.258 c -0.0329,0.0906 -0.0671,0.18387 -0.10189,0.27961 -0.0367,0.093 -0.0629,0.196 -0.0953,0.296 a 3.12917,3.12917 0 0 0 -0.0867,0.3127 10.661,10.661 0 0 0 -0.25706,1.40892 c -0.0642,0.50991 -0.105,1.058 -0.14432,1.6351 -0.0773,1.15365 -0.14093,2.42926 -0.32921,3.74168 a 16.26555,16.26555 0 0 1 -0.40453,1.97152 11.44318,11.44318 0 0 1 -0.69546,1.88863 9.45469,9.45469 0 0 1 -0.46334,0.86118 q -0.13092,0.202 -0.25946,0.39944 l -0.032,0.0491 -0.008,0.0122 -0.0161,0.0261 -0.004,0.005 -0.0159,0.0215 -0.0639,0.085 q -0.0648,0.0841 -0.1287,0.16727 c -0.341,0.44263 -0.67238,0.85606 -0.985,1.23378 -0.15871,0.18737 -0.30773,0.36874 -0.45522,0.53788 -0.14945,0.16815 -0.29347,0.32717 -0.43209,0.47385 -0.276,0.29459 -0.52182,0.54736 -0.72981,0.75233 -0.41376,0.411 -0.6717,0.63162 -0.6717,0.63162 0,0 0.0938,-0.32156 0.29441,-0.85894 z m 3.592,22.12892 0.008,-0.007 0.0308,-0.0275 q 0.12312,-0.10917 0.24921,-0.22094 c 0.16123,-0.15828 0.32916,-0.31182 0.48947,-0.48358 a 20.43481,20.43481 0 0 0 1.88372,-2.35373 c 0.6192,-0.86742 1.24043,-1.79151 1.93284,-2.63459 a 12.7973,12.7973 0 0 1 1.08753,-1.17862 7.25492,7.25492 0 0 1 1.17784,-0.91285 4.8383,4.8383 0 0 1 1.156,-0.52814 2.25164,2.25164 0 0 1 0.263,-0.0697 c 0.0849,-0.0198 0.16687,-0.0365 0.2449,-0.0517 0.16007,-0.02 0.30322,-0.0378 0.43392,-0.0454 0.134,-0.002 0.25021,-0.002 0.34959,10e-4 0.0983,0.003 0.17834,0.0198 0.24524,0.0273 0.133,0.0207 0.20378,0.0316 0.20378,0.0316 l -0.18732,0.0954 c -0.06,0.0315 -0.1392,0.0635 -0.2233,0.11085 l -0.27637,0.1599 -0.32544,0.21583 c -0.1096,0.0931 -0.2346,0.16864 -0.3513,0.27961 a 5.82786,5.82786 0 0 0 -0.72873,0.74646 9.99048,9.99048 0 0 0 -0.72707,0.99787 c -0.24342,0.3716 -0.48552,0.782 -0.74026,1.21569 -0.50822,0.86717 -1.06294,1.83632 -1.73436,2.7865 a 14.08968,14.08968 0 0 1 -1.1065,1.37909 9.90734,9.90734 0 0 1 -1.30317,1.19546 7.98518,7.98518 0 0 1 -0.7083,0.48371 q -0.18342,0.10392 -0.36278,0.20546 l -0.0445,0.0251 -0.0111,0.006 c 0.0161,-0.0104 -0.0283,0.0176 -0.0255,0.0157 l -0.005,0.002 -0.0207,0.01 -0.0827,0.0396 c -0.0546,0.0268 -0.11055,0.0507 -0.16519,0.0758 -0.43752,0.20059 -0.85653,0.38147 -1.24726,0.54187 -0.19683,0.0775 -0.38369,0.15528 -0.56472,0.22319 -0.18236,0.0663 -0.35646,0.12857 -0.52192,0.1825 -0.33036,0.10984 -0.62112,0.20009 -0.86371,0.2685 -0.484,0.13906 -0.77252,0.19573 -0.77252,0.19573 0,0 0.192,-0.22382 0.54961,-0.5757 0.35554,-0.35738 0.88176,-0.824 1.5206,-1.38446 0.32135,-0.27624 0.67382,-0.56821 1.05213,-0.86792 0.0472,-0.0376 0.094,-0.0766 0.14286,-0.11322 l 0.0727,-0.0559 0.0185,-0.0141 0.004,-0.003 c 0.006,-0.004 -0.0354,0.0221 -0.0163,0.01 z"
         class="cls-3" />
    </g>
  </g>
</svg>
