<?xml version="1.0" encoding="UTF-8" standalone="no"?>
<svg
   xmlns:dc="http://purl.org/dc/elements/1.1/"
   xmlns:cc="http://creativecommons.org/ns#"
   xmlns:rdf="http://www.w3.org/1999/02/22-rdf-syntax-ns#"
   xmlns:svg="http://www.w3.org/2000/svg"
   xmlns="http://www.w3.org/2000/svg"
   viewBox="0 0 505.50274 658.50247"
   version="1.1"
   id="svg26"
   width="505.50275"
   height="658.5025">
  <metadata
     id="metadata30">
    <rdf:RDF>
      <cc:Work
         rdf:about="">
        <dc:format>image/svg+xml</dc:format>
        <dc:type
           rdf:resource="http://purl.org/dc/dcmitype/StillImage" />
        <dc:title></dc:title>
      </cc:Work>
    </rdf:RDF>
  </metadata>
  <defs
     id="defs4">
    <style
       id="style2">
      .cls-1 {
        fill: none;
        stroke: #231f20;
        stroke-miterlimit: 10;
      }
    </style>
  </defs>
  <path
     d="m 437.06921,0.50443694 c 0.68906,0.022 1.3782,0.1517 2.06445,0.3379 1.3725,0.37249996 2.73336,0.97089996 4.06836,1.38089996 1.89,0.57 3.82609,1.1213 5.68359,1.83 1.8575,0.7088 3.6368,1.5746 5.2168,2.7696 1.58,1.195 2.88469,2.6952 4.11719,4.2715001 1.2325,1.5762 2.39359,3.2285 3.68359,4.7285 1.25686,1.209 2.27462,2.6445 3,4.2304 0.2975,0.7775 0.4593,1.5607 0.53711,2.3477 0.0778,0.787 0.0706,1.578 0.0293,2.3711 -0.0825,1.5862 -0.30086,3.1795 -0.25586,4.7695 0.015,0.67 0.14672,1.3266 0.23047,1.9766 0.0838,0.65 0.11945,1.2953 -0.0606,1.9453 -0.2625,0.9575 -0.88219,2.1637 -1.57031,3.4746 -0.68813,1.3109 -1.44578,2.7253 -1.98828,4.1016 -0.27125,0.6881 -0.4875,1.3671 -0.61524,2.0176 -0.12773,0.6504 -0.16726,1.2728 -0.0801,1.8496 0.0872,0.5767 0.30032,1.1072 0.67383,1.5742 0.37352,0.467 0.90742,0.8701 1.63867,1.1914 1.09182,0.33 2.11022,0.8664 3,1.5801 1.04,1.06 2.04,2.1669 3,3.3203 0.97895,0.9304 2.03745,1.7705 3.16016,2.5117 1.12271,0.7412 2.31057,1.3833 3.55078,1.918 1.88984,0.8289 3.69815,1.8333 5.40039,3 1.34159,1.0145 2.56368,2.1688 3.64844,3.4414 1.08475,1.2725 2.03092,2.6631 2.82031,4.1484 0.25,0.5438 0.39465,1.0262 0.44922,1.457 0.0546,0.4309 0.0189,0.8114 -0.0859,1.1524 -0.20969,0.682 -0.70078,1.2073 -1.33203,1.668 -1.2625,0.9212 -3.08078,1.5826 -4.30078,2.7226 -0.7075,0.6625 -1.32789,1.5034 -1.81836,2.4395 -0.49047,0.9361 -0.85023,1.9673 -1.03711,3.0117 -0.18687,1.0444 -0.20133,2.1025 0.002,3.0898 0.20329,0.9874 0.62274,1.905 1.30274,2.67 1.35,1.15 2.68,2.3182 4,3.4882 0.45731,0.3178 0.86197,0.7017 1.19922,1.1368 0.33724,0.435 0.60708,0.9212 0.80078,1.4433 -0.005,0.375 -0.19133,0.7415 -0.48242,1.0879 -0.2911,0.3464 -0.68555,0.6745 -1.10742,0.9727 -0.84376,0.5962 -1.79352,1.0743 -2.22852,1.3593 -1.285,0.6728 -2.47379,1.519 -3.53125,2.5118 -0.455,0.55 -0.58672,1.0861 -0.60547,1.6523 -0.0188,0.566203 0.0762,1.161203 0.0762,1.826203 -0.0625,3.143 -0.39709,6.276 -1,9.3613 -0.11,1.0064 -0.33629,1.9934 -0.67187,2.9414 -0.33559,0.948 -0.78047,1.8555 -1.32813,2.707 -0.775,1.27 -1.50187,2.7134 -2.09375,4.2442 -0.59187,1.5308 -1.04906,3.1503 -1.28906,4.7734 -0.24,1.6231 -0.26109,3.2499 0.0195,4.7969 0.14031,0.7735 0.3561,1.5271 0.6582,2.25 0.30211,0.7229 0.68883,1.4151 1.17383,2.0664 0.73,0.98 1.58188,1.7695 2.50391,2.4492 0.92203,0.6797 1.91461,1.2498 2.92773,1.791 1.01313,0.5413 2.0475,1.0545 3.05078,1.6192 1.00329,0.5647 1.97665,1.1816 2.86914,1.9316 0.75001,0.61 1.33,1.32 2,2 1.1275,1.1425 2.35915,2.166 3.66993,3.084 1.31078,0.918 2.7,1.7304 4.14062,2.4473 1.44063,0.7168 2.93219,1.3377 4.44922,1.8769 1.51701,0.5392 3.05959,0.9959 4.59959,1.3809 l -75.18164,84.2187 -65.26758,73.1114 14.05274,151.38666 4.82617,51.98242 -26.20313,60.76953 -36.01562,83.53125 c -0.79454,-0.40195 -1.64014,-0.69867 -2.51172,-0.88086 -1.20376,-0.43893 -2.27616,-1.17374 -3.11914,-2.13867 -0.495,-0.495 -0.98922,-1.24524 -1.54297,-1.92774 -0.55375,-0.6825 -1.16648,-1.29843 -1.89649,-1.52343 -0.655,-0.195 -1.41804,-0.19524 -2.18554,-0.14649 -0.7675,0.0488 -1.53985,0.14649 -2.21485,0.14649 -0.49001,0.0415 -0.97577,-0.0282 -1.42382,-0.19922 -0.44806,-0.17102 -0.8595,-0.44336 -1.19727,-0.80078 -0.33445,-0.68697 -0.54057,-1.42851 -0.60937,-2.18946 -0.48,-2.06 -0.50438,-4.56968 -0.92188,-6.89843 -0.20875,-1.16438 -0.51641,-2.28446 -1.02734,-3.2793 -0.51094,-0.99484 -1.225,-1.86375 -2.25,-2.53125 -0.72897,-0.32871 -1.44083,-0.69745 -2.13086,-1.10156 -0.5409,-0.44269 -1.14723,-0.7959 -1.79883,-1.04883 -0.96786,-0.28007 -1.9209,-0.61393 -2.85156,-1 -1.47649,-0.73835 -2.88423,-1.60487 -4.20899,-2.58985 l -3.24023,-0.75 c -1.76172,-1.19362 -3.59437,-2.277 -5.48633,-3.24218 -1.89196,-0.96519 -3.8433,-1.81342 -5.84375,-2.53906 -1.09,-0.415 -2.31742,-0.85141 -3.48242,-1.37891 -1.165,-0.5275 -2.26742,-1.14492 -3.10742,-1.91992 -0.42,-0.3875 -0.67196,-0.80664 -0.81055,-1.24805 -0.13859,-0.44141 -0.16344,-0.90523 -0.13281,-1.38086 0.0613,-0.95125 0.34906,-1.95187 0.41406,-2.92187 0.08,-1.235 -0.0457,-2.07313 -0.3457,-2.82813 -0.3,-0.755 -0.77453,-1.42703 -1.39454,-2.33203 -0.99,-1.44 -1.54789,-3.08273 -2.08789,-4.74023 -0.54,-1.65751 -1.06242,-3.33008 -1.98242,-4.83008 -0.59,-0.9725 -1.25617,-1.7668 -1.98633,-2.43555 -0.73015,-0.66875 -1.52492,-1.21164 -2.37304,-1.68164 -1.69625,-0.94 -3.60563,-1.58633 -5.64063,-2.36133 -2.5,-0.955 -4.80781,-2.14492 -7.10156,-3.35742 -2.29375,-1.2125 -4.57453,-2.44914 -7.01953,-3.49414 -2.44598,-1.01574 -4.99658,-1.72485 -7.5957,-2.1211 -2.59913,-0.39624 -5.24528,-0.47901 -7.88282,-0.23828 -2.255,0.13 -5.05,0.63453 -7.78125,0.76954 -1.36562,0.0675 -2.71632,0.0426 -3.97461,-0.16797 -1.25828,-0.21063 -2.42578,-0.60625 -3.42578,-1.28125 -0.87,-0.59 -1.5089,-1.29086 -2.09765,-2.03711 -0.58875,-0.74625 -1.12602,-1.5375 -1.79102,-2.3125 -0.5214,-0.62115 -1.11385,-1.17595 -1.76172,-1.6543 -0.64787,-0.47835 -1.3525,-0.87987 -2.09961,-1.19531 -0.885,-0.385 -1.77242,-0.60907 -2.63867,-0.88282 -0.86625,-0.27374 -1.70976,-0.5975 -2.50977,-1.1875 -1.52972,-1.21069 -2.94865,-2.55171 -4.24023,-4.0039 -1.29158,-1.45219 -2.45652,-3.01525 -3.48047,-4.67578 -0.5575,-0.875 -1.10101,-1.85477 -1.58008,-2.89649 -0.47906,-1.04172 -0.89265,-2.14656 -1.1914,-3.27343 -0.29875,-1.12688 -0.48344,-2.27579 -0.5,-3.40625 -0.0166,-1.13047 0.13445,-2.24243 0.50195,-3.29493 0.28,-0.8025 0.76836,-1.4439 1.38867,-1.96484 0.62031,-0.52094 1.37149,-0.92148 2.17774,-1.24023 1.6125,-0.6375 3.44304,-0.94891 4.87304,-1.25391 1.5525,-0.3275 3.1111,-0.39875 4.66407,-0.28906 1.55296,0.10968 3.10039,0.39867 4.63476,0.79492 3.06875,0.7925 6.08094,2.00797 8.96094,3.04297 2.17,0.78 4.43305,1.87984 6.74805,2.77734 1.1575,0.44875 2.32711,0.84672 3.50586,1.12891 1.17875,0.28218 2.36664,0.44859 3.55664,0.43359 l 6.83984,-0.91992 c 2.60325,-0.61663 5.17706,-1.34724 7.71289,-2.19141 2.53583,-0.84416 5.03291,-1.80243 7.48633,-2.86914 0.98,-0.505 2.00617,-0.94726 2.82617,-1.57226 0.41,-0.3125 0.76867,-0.66914 1.04492,-1.10352 0.27625,-0.43437 0.46883,-0.945 0.54883,-1.5625 0.125,-0.98 -0.0376,-1.9907 -0.33008,-2.9707 -0.2925,-0.98 -0.71437,-1.93102 -1.10937,-2.79102 -0.53,-1.16 -1.16063,-1.99437 -1.92188,-2.70312 -0.76125,-0.70875 -1.65203,-1.29032 -2.70703,-1.94532 -0.75,-0.46499 -1.38367,-1.02234 -1.93164,-1.64453 -0.54797,-0.62218 -1.01195,-1.3089 -1.42383,-2.03515 -0.82375,-1.4525 -1.44023,-3.06133 -2.11523,-4.61133 -0.46276,-1.39567 -1.20055,-2.68346 -2.16992,-3.78906 l -2.83008,-1 c -0.6475,-0.355 -1.16117,-0.73461 -1.57617,-1.14649 -0.415,-0.41187 -0.73188,-0.85625 -0.98438,-1.34375 -0.505,-0.975 -0.7543,-2.11976 -1.0293,-3.50976 -0.3,-1.5725 -0.44375,-3.16219 -0.49218,-4.76172 -0.0484,-1.59953 -0.001,-3.20969 0.0801,-4.82031 0.1625,-3.22125 0.46211,-6.44915 0.41211,-9.61914 -0.015,-1.26 -0.0452,-3.01391 -0.39648,-4.66016 -0.17562,-0.82313 -0.43211,-1.61922 -0.80664,-2.3125 -0.37453,-0.69328 -0.86758,-1.28477 -1.51758,-1.69727 -0.65,-0.4125 -1.34055,-0.44945 -2.04101,-0.25195 -0.70047,0.1975 -1.41024,0.6307 -2.09961,1.1582 -1.37875,1.055 -2.67368,2.4886 -3.63868,3.1836 -4.86,3.47 -9.58015,7.06008 -14.41015,10.58008 l -6.15039,4.37109 c -0.73667,0.96 -1.52214,1.61174 -2.35547,1.95508 -0.83334,0.34333 -1.71453,0.37685 -2.64453,0.10351 0.0996,-2.03564 0.0304,-4.07564 -0.20899,-6.09961 -0.13,-1.73 -0.44601,-3.42937 -0.72851,-5.14062 -0.2825,-1.71125 -0.53125,-3.43399 -0.53125,-5.20899 -0.01,-2.65552 0.21809,-5.30041 0.68164,-7.90429 0.46354,-2.60389 1.16213,-5.16731 2.08789,-7.65625 0.3525,-0.96847 0.38195,-1.57452 0.16601,-1.98633 -0.21593,-0.41181 -0.67766,-0.62805 -1.30468,-0.81836 -0.43577,-0.13227 -0.95157,-0.25159 -1.52149,-0.41406 -2.92039,-0.88402 -5.87232,-1.66101 -8.84765,-2.32813 -2.97534,-0.66711 -5.97393,-1.22435 -8.99219,-1.67187 l -6.46094,-0.83985 c -2.54765,-0.20989 -5.06516,-0.69406 -7.50976,-1.4414 -0.495,-0.3 -1.03493,-0.6236 -1.48243,-1.02735 -0.4475,-0.40375 -0.80273,-0.88695 -0.92773,-1.50195 -0.095,-0.4775 -0.0598,-0.94914 0.0586,-1.41211 0.11844,-0.46297 0.32125,-0.9175 0.5625,-1.35937 0.4825,-0.88375 1.11883,-1.71852 1.54883,-2.47852 0.72,-1.24 1.49563,-2.39508 2.20313,-3.58008 0.7075,-1.185 1.34687,-2.39976 1.79687,-3.75976 0.63,-1.91 0.96141,-3.76961 1.44141,-5.84961 0.24,-1.04 0.54945,-2.10594 0.7832,-3.17969 0.23375,-1.07375 0.39117,-2.15547 0.32617,-3.23042 -0.0475,-0.6225 -0.1864,-1.1625 -0.40234,-1.6387 -0.21594,-0.4763 -0.50953,-0.8898 -0.86328,-1.2598 -0.7075,-0.74 -1.65938,-1.3063 -2.73438,-1.8613 -1.2925,-0.67 -2.64898,-1.1592 -4.04101,-1.5488 -1.39203,-0.3897 -2.82078,-0.6814 -4.25391,-0.9551 -1.43312,-0.2738 -2.87133,-0.5294 -4.28711,-0.8516 -1.41578,-0.3222 -2.80844,-0.7111 -4.14844,-1.2461 -1.74104,-0.8704 -3.41263,-1.8734 -5,-3 -1.07576,-0.6569 -2.23828,-1.1415 -3.44726,-1.4433 -1.20898,-0.3019 -2.46435,-0.42 -3.72266,-0.3457 -2.795,0 -5.9575,0.5972 -9.03125,0.8047 -1.53687,0.1037 -3.05086,0.1111 -4.48633,-0.1036 -1.43546,-0.2147 -2.79172,-0.6516 -4.01172,-1.4316 -0.97,-0.62 -1.82609,-1.3238 -2.71484,-1.9863 -0.88875,-0.6625 -1.81101,-1.2825 -2.91601,-1.7325 -1.1,-0.44 -2.23594,-0.7719 -3.39454,-1.0253 -1.15859,-0.2535 -2.34046,-0.4293 -3.52734,-0.5606 -2.37375,-0.2625 -4.773117,-0.3439 -7.078117,-0.5039 -2.2,-0.11 -4.39985,-0.2905 -6.58985,-0.5605 -1.25641,-0.028 -2.50317,-0.1826 -3.72265,-0.459 -1.21949,-0.2764 -2.411,-0.6749 -3.55664,-1.1914 -1.36692,-1.1448 -2.6057,-2.4354 -3.69141,-3.8496 -0.5825,-0.635 -1.24824,-1.0553 -1.96684,-1.3301 -0.7185,-0.2749 -1.4893,-0.4046 -2.2812,-0.459 -1.5838,-0.1087 -3.252,0.085 -4.752,0.019 -0.1975,-0.29 -0.2574,-0.7108 -0.2363,-1.1992 0.021,-0.4885 0.1231,-1.0456 0.25,-1.6094 0.2538,-1.1275 0.6074,-2.2826 0.6074,-2.9726 0.017,-0.795 -0.1248,-1.5629 -0.3671,-2.3125 -0.2424,-0.7497 -0.5844,-1.4805 -0.9688,-2.1993 -0.7687,-1.4375 -1.704,-2.8285 -2.334,-4.2285 -1.085,-2.44 -1.9346,-5.0437 -2.9433,-7.5625 -0.5044,-1.2594 -1.0487,-2.4987 -1.6817,-3.6836 -0.633,-1.1848 -1.3548,-2.3158 -2.2148,-3.3633 -0.1806,-0.4875 -0.4948,-0.9008 -0.8926,-1.2031 -0.3978,-0.3023 -0.8803,-0.4938 -1.3984,-0.5371 -0.3092,-0.2791 -0.7055,-0.3898 -1.084,-0.3457 -0.3785,0.044 -0.7379,0.2433 -0.9746,0.5859 -0.865,0.35 -1.4737,1.0175 -1.9512,1.795 -0.4775,0.7775 -0.8249,1.665 -1.1699,2.455 -1.07,2.415 -1.9989,4.8325 -3.0039,7.2188 -1.0051,2.3863 -2.0852,4.7413 -3.4552,7.0313 -2.0447,3.3004 -4.1906,6.5369 -6.4316,9.7051 -2.241,3.1681 -4.5786,6.2678 -7.0098,9.2949 -0.5829,0.7491 -1.2381,1.436 -1.955,2.0507 -0.717,0.6148 -1.495,1.1574 -2.3243,1.6192 -0.665,0.42 -1.9046,1.3828 -3.1796,2.039 -0.6375,0.3282 -1.2836,0.5796 -1.8711,0.6485 -0.5875,0.069 -1.1171,-0.045 -1.5196,-0.4473 -0.505,-0.505 -0.6974,-1.2719 -0.8886,-2.0644 -0.1913,-0.7925 -0.3809,-1.6099 -0.8809,-2.2149 -0.73,-0.925 -1.4956,-1.7876 -2.2031,-2.6914 -0.7075,-0.9037 -1.3574,-1.8494 -1.8574,-2.9394 -0.485,-1.04 -0.8522,-2.1156 -1.1368,-3.2129 -0.2845,-1.0974 -0.4855,-2.2163 -0.6386,-3.3457 -0.3063,-2.2588 -0.4203,-4.556 -0.6153,-6.791 -0.17,-1.95 -0.2734,-3.9329 -0.7109,-5.7754 -0.2188,-0.9213 -0.5204,-1.8071 -0.9551,-2.6367 -0.4347,-0.8297 -1.0039,-1.6039 -1.7539,-2.2989 -0.79,-0.74 -1.6890999,-1.451 -2.2753999,-2.291 -0.2931,-0.42 -0.5085,-0.8719 -0.5918,-1.375 -0.083,-0.5031 -0.035,-1.0586 0.1973,-1.6836 0.7616,-1.5482 1.6514999,-3.0298 2.6600999,-4.4297 1.49,-2.42 2.94,-4.9399 4.42,-7.4199 0.935,-1.565 2.6365,-3.8112 4.039,-6.2012 0.7013,-1.195 1.3264,-2.4243 1.7461,-3.625 0.4197,-1.2006 0.6334,-2.3708 0.5059,-3.4433 -0.2925,-1.9598 -0.4391,-3.9385 -0.4395,-5.9199 0.075,-1.1885 0.016,-2.3708 -0.1679,-3.5254 -0.1837,-1.1546 -0.4929,-2.282 -0.92,-3.3633 -0.427,-1.0813 -0.9721,-2.1155 -1.6269,-3.084 -0.6548,-0.9685 -1.4182,-1.8712 -2.2852,-2.6875 -0.5916,-0.5733 -1.2056,-1.1224 -1.8301,-1.6562 -1.387,-1.186 -2.8341,-2.2998 -4.25,-3.4493 -1.4157999,-1.1494 -2.7993999,-2.3355 -4.0604999,-3.666 -0.8143,-0.881 -1.5523,-1.8213 -2.207,-2.8125 -0.6548,-0.9912 -1.2274,-2.0332 -1.7129,-3.1133 -0.4856,-1.08 -0.8827,-2.1981 -1.1895,-3.3457 -0.3068,-1.1476 -0.5221,-2.3237 -0.6406,-3.5175 -0.165,-1.555 -0.057,-2.7783 0.3613,-3.9082 0.4188,-1.13 1.1485,-2.1666 2.2285,-3.3516 1.31,-1.415 2.7232,-2.8754 4.252,-4.1817 1.5287,-1.3062 3.1722999,-2.4578 4.9472999,-3.2578 0.855,-0.375 1.5948,-0.4932 2.3398,-0.5332 0.745,-0.04 1.4961,0 2.3711,-0.068 0.61,-0.042 1.1786,-0.1766 1.7148,-0.3808 0.5363,-0.2042 1.0396,-0.4775 1.5196,-0.7969 0.96,-0.6388 1.826,-1.4613 2.666,-2.2813 1.2275,-1.1783 2.3681,-2.4406 3.4141,-3.7773 1.0459,-1.3367 1.9971,-2.7478 2.8457,-4.2227 0.7904,-1.5472 1.4337,-3.1616 1.9257,-4.8203 0.4921,-1.6587 0.8325,-3.3618 1.0137,-5.0898 0.24,-1.64 0.5974,-3.6169 0.7012,-5.5781 0.052,-0.9807 0.041,-1.9585 -0.08,-2.8868 -0.1214,-0.9282 -0.3528,-1.8082 -0.7403,-2.5957 -0.325,-0.6475 -0.7339,-1.1768 -1.2011,-1.625 -0.4672,-0.4481 -0.994,-0.8147 -1.5528,-1.1347 -1.1175,-0.64 -2.3668,-1.0954 -3.5468,-1.6504 -0.59,-0.2775 -1.0221,-0.554 -1.3321,-0.8496 -0.31,-0.2956 -0.4976,-0.6099 -0.5976,-0.9649 -0.2,-0.71 -0.05,-1.5804 0.1699,-2.7754 0.265,-1.435 0.2973,-2.9692 0.4023,-4.4804 0.105,-1.5113 0.2829,-2.9999 0.8379,-4.3399 0.855,-2.07 1.619,-4.2986 2.459,-6.4961 0.84,-2.1975 1.7552,-4.3627 2.9102,-6.3027 1.035,-1.73 2.476,-3.3213 4.0097,-4.8301 1.5338,-1.5087 3.1604,-2.9348 4.5704,-4.3398 1.54,-1.5325 3.1424,-3.0752 4.8105,-4.5703 1.6681,-1.4952 3.4026,-2.9435 5.2051,-4.2891 1.8025,-1.3456 3.674,-2.588 5.6172,-3.6719 1.9431,-1.0839 3.9568,-2.0087 6.0468,-2.7187 0.73,-0.245 1.8458,-0.6528 2.9883,-0.8653 0.5713,-0.1062 1.1492,-0.1648 1.6895,-0.1289 0.5403,0.036 1.0429,0.1662 1.4629,0.4337 0.5181,0.44 0.9492,0.9645 1.2793,1.5469 0.3301,0.5823 0.5584,1.222 0.6699,1.8925 0.73,3.01 1,6.0899 2,9.0899 0.3875,1.1712 0.8727,2.2403 1.4394,3.2226 0.5668,0.9823 1.2161,1.8785 1.9317,2.7051 1.4312,1.6533 3.1296,3.0291 4.97458,4.2598 3.69,2.4612 7.96547,4.3429 11.85547,6.7129 2.46114,1.4369 4.77569,3.1116 6.91016,5 1.325,1.225 2.297727,2.517 3.115227,3.8945 0.8175,1.3775 1.4786,2.8412 2.1836,4.4062 0.77999,1.82 1.78124,3.3504 2.78124,5.0704 -0.99999,1.71 -2.19281,3.2326 -3.28906,4.8164 -0.54812,0.7918 -1.0732,1.5975 -1.53711,2.4511 -0.4639,0.8536 -0.86632,1.755 -1.17383,2.7325 -0.474987,1.53 -0.596477,2.9134 -0.615227,4.3046 -0.0188,1.3913 0.0641,2.7888 -0.006,4.3438 -0.15609,2.4349 -0.45849,4.8576 -0.90429,7.2519 -0.44581,2.3944 -1.03494,4.7601 -1.76563,7.0879 -0.82,2.81 -1.60945,5.6418 -2.18945,8.5118 -0.095,0.475 -0.24266,1.125 -0.31641,1.7812 -0.0738,0.6563 -0.073,1.3184 0.12695,1.8184 0.175,0.435 0.46422,0.7852 0.82422,1.0761 0.36,0.291 0.79055,0.522 1.24805,0.7207 0.915,0.3975 1.9368,0.662 2.7168,1.002 2.489997,1.08 4.850067,2.4212 7.330067,3.5312 1.48363,0.6422 3.03086,1.1074 4.61133,1.3926 1.58047,0.2852 3.1941,0.3897 4.8086,0.3067 2.26896,0.034 4.53757,-0.066 6.79296,-0.2989 1.07248,-0.1105 2.14154,-0.2494 3.20704,-0.4199 4.59,-0.85 9.19929,-1.7912 13.77929,-2.7012 3.215,-0.635 6.41032,-1.7241 9.63282,-2.5566 1.61125,-0.4162 3.23039,-0.7684 4.86132,-0.9668 1.63094,-0.1984 3.275,-0.2444 4.9375,-0.047 1.0675,0.1275 2.02907,0.5429 2.89844,1.1465 0.86938,0.6036 1.6468,1.396 2.3418,2.2754 1.39,1.7587 2.45406,3.8693 3.28906,5.5293 1.39,2.84 2.77062,5.6801 4.39062,8.4101 0.63001,1.055 1.34422,2.3599 2.13672,3.5899 0.7925,1.23 1.66352,2.3837 2.60352,3.1387 0.8,0.63 1.48898,1.1125 2.20898,1.3125 0.36,0.1 0.7286,0.1303 1.1211,0.072 0.3925,-0.058 0.80953,-0.2032 1.26953,-0.4532 0.825,-0.46 1.25906,-0.9282 1.60156,-1.457 0.3425,-0.5287 0.59383,-1.1192 1.04883,-1.8242 0.54,-0.84 1.25578,-1.5617 2.01953,-2.2617 0.76375,-0.7 1.57383,-1.3789 2.29883,-2.1289 1.45,-1.5 2.79117,-3.1082 4.20117,-4.6582 1.16542,-1.0353 2.20542,-2.2037 3.09961,-3.4805 0.54,-1.02 0.78023,-2.3497 1.24023,-3.4297 1.40303,-3.2595 3.10364,-6.3828 5.08008,-9.3301 1.51,-2.31 3.05992,-4.5998 4.66992,-6.8398 -0.445,0.62 0.25563,-0.4312 1.17188,-1.6387 0.91625,-1.2075 2.04875,-2.572 2.46875,-2.582 0.42,-0.01 0.9525,0.38 1.46875,0.8125 0.51625,0.4325 1.01609,0.9083 1.37109,1.0683 2.55701,1.1361 5.1967,2.0711 7.89844,2.7989 1.925,0.53 3.86016,0.9411 5.78516,1.3886 1.925,0.4475 3.84156,0.9314 5.72656,1.6114 1.37,0.495 2.75586,1.1079 4.16211,1.6504 1.40625,0.5425 2.83234,1.0154 4.27734,1.2304 1.34,0.2 3.06289,-0.039 4.74414,-0.4512 1.68125,-0.4125 3.3211,-1 4.4961,-1.5 2.16,-0.93 4.16015,-2.1888 6.16015,-3.2988 1.05,-0.57 1.84961,-1.2914 2.84961,-1.9414 1.75335,-1.0426 3.5697,-1.9734 5.43946,-2.789 1.18,-0.6 2.55734,-1.0898 3.74609,-1.7598 0.59437,-0.335 1.14203,-0.7145 1.59375,-1.1758 0.45172,-0.4612 0.80703,-1.0041 1.01953,-1.6641 0.2125,-0.66 0.29766,-1.2903 0.29297,-1.9062 -0.005,-0.6159 -0.0979,-1.2171 -0.24414,-1.8184 -0.2925,-1.2025 -0.79227,-2.4065 -1.19727,-3.7265 -0.94,-3.04 -1.64008,-6.1891 -2.33008,-9.2891 -0.275,-1.26 -0.43039,-2.6732 -0.65039,-4.0644 -0.22,-1.3913 -0.50601,-2.7606 -1.04101,-3.9356 -0.3175,-0.6925 -0.75539,-1.1995 -1.27149,-1.5859 -0.51609,-0.3864 -1.1089,-0.6521 -1.73828,-0.8653 -1.25875,-0.4262 -2.65937,-0.6399 -3.85937,-1.1699 -0.44,-0.195 -1.35992,0.074 -2.29492,0.4317 -0.935,0.3575 -1.88477,0.8037 -2.38477,0.9687 -2.16149,0.9373 -4.41392,1.6519 -6.7207,2.1309 -1.43,0.2 -2.83953,-0.041 -4.26953,0.1992 -1.145,0.195 -2.6068,0.5804 -4.06055,0.8066 -0.72688,0.1131 -1.45305,0.1856 -2.13477,0.1758 -0.68171,-0.01 -1.32,-0.1023 -1.875,-0.3223 -0.985,-0.405 -1.90171,-1.0592 -2.79296,-1.7617 -0.89126,-0.7025 -1.75672,-1.4538 -2.63672,-2.0488 -1.4,-0.94 -2.46352,-1.7411 -3.35352,-2.6836 -0.89,-0.9425 -1.60641,-2.0254 -2.31641,-3.5254 -1.05,-2.18 -1.36101,-4.5608 -2.29101,-6.8008 -0.655,-1.575 -1.18899,-3.0215 -1.36524,-4.4765 -0.0881,-0.7275 -0.0859,-1.457 0.0352,-2.2051 0.12109,-0.7481 0.36,-1.5159 0.75,-2.3184 0.34,-0.6875 0.79492,-1.3906 1.33398,-2.0586 0.53907,-0.6679 1.16391,-1.3007 1.84766,-1.8476 0.68375,-0.5469 1.42516,-1.0078 2.19922,-1.3321 0.77406,-0.3242 1.58062,-0.5117 2.39062,-0.5117 0.72092,0.06 1.41831,0.2519 2.06055,0.5586 0.64225,0.3067 1.22841,0.7292 1.72852,1.252 1.075,0.9 2.07836,1.3651 3.16211,1.5976 1.08375,0.2325 2.24843,0.2332 3.64843,0.2032 1.6225,-0.03 3.24133,-0.2004 4.85743,-0.4532 1.61609,-0.2528 3.22851,-0.5893 4.83789,-0.9531 3.21875,-0.7275 6.42523,-1.5644 9.61523,-2.0644 1.33,-0.205 3.20828,-0.6577 5.05078,-0.8477 0.92125,-0.095 1.835,-0.1234 2.66406,-0.023 0.82907,0.1 1.57407,0.3275 2.16407,0.75 0.36932,0.3722 0.70403,0.7781 1,1.2109 0.51857,0.6466 1.12518,1.2115 1.79883,1.6797 0.67365,0.4682 1.41434,0.839 2.20117,1.0996 1.3,0.3825 2.65383,0.6935 4.0332,0.916 1.37938,0.2225 2.78445,0.3582 4.18945,0.3907 1.405,0.033 2.80868,-0.039 4.18555,-0.2266 1.37688,-0.1875 2.72648,-0.4922 4.02149,-0.9297 0.895,-0.3 1.76585,-0.7105 2.56835,-1.2168 0.8025,-0.5062 1.53766,-1.1079 2.16016,-1.7929 0.6225,-0.685 1.13328,-1.4529 1.48828,-2.2891 0.355,-0.8363 0.55469,-1.7412 0.55469,-2.7012 0,-1.0325 -0.13273,-1.9793 -0.38867,-2.8496 -0.25594,-0.8703 -0.63516,-1.663 -1.12891,-2.3867 -0.49375,-0.7238 -1.10297,-1.3798 -1.8164,-1.9727 -0.71344,-0.5928 -1.53227,-1.124 -2.44727,-1.6015 -1.6975,-0.8825 -3.84008,-1.8391 -6.01367,-2.9375 -2.1736,-1.0985 -4.37844,-2.3384 -6.19532,-3.7871 -0.90843,-0.7244 -1.7197,-1.5008 -2.38281,-2.3379 -0.6631,-0.8372 -1.17656,-1.7345 -1.49023,-2.7012 -0.31367,-0.9667 -0.42697,-2.0021 -0.28711,-3.1152 0.13986,-1.1131 0.53297,-2.3039 1.23047,-3.5801 0.7125,-1.31 1.59258,-2.2966 2.59179,-3.0664 0.99922,-0.7699 2.11641,-1.3238 3.30079,-1.7656 2.36875,-0.8838 5.00586,-1.323 7.50586,-2.168 2.05,-0.65 4.05078,-1.23 6.05078,-2 1.05297,-0.533 2.14212,-0.992 3.25976,-1.3711 0.4525,-0.105 0.83391,-0.1109 1.17578,-0.049 0.34188,0.062 0.645,0.1932 0.9375,0.3613 0.585,0.3363 1.13172,0.8238 1.88672,1.2188 1.59062,0.907 3.27628,1.621 5.02149,2.1328 1.7452,0.5118 3.55033,0.8203 5.3789,0.916 2.94585,-0.109 5.86921,-0.5438 8.71875,-1.2988 0.98974,-0.2087 1.95171,-0.5256 2.86719,-0.9414 0.91548,-0.4158 1.78539,-0.9311 2.59375,-1.5391 0.58884,-0.4967 1.11153,-1.0621 1.55664,-1.6836 0.44511,-0.6215 0.81305,-1.2982 1.09375,-2.0156 0.56597,-1.4724 0.99935,-2.9887 1.29883,-4.5313 0.29948,-1.5426 0.46413,-3.1122 0.49023,-4.6894 0,-0.8056 -0.0695,-1.5474 -0.22461,-2.2324 -0.18234,-0.8055 -0.48227,-1.5312 -0.92773,-2.1875 -0.44547,-0.6564 -1.03562,-1.2434 -1.79688,-1.7696 -1.29,-0.88 -2.79,-1.17 -4,-2 -0.505,-0.325 -0.92289,-0.8254 -1.30664,-1.3691 -0.38375,-0.5438 -0.73351,-1.1309 -1.10351,-1.6309 -0.99014,-1.6196 -2.14222,-3.1336 -3.43946,-4.5195 -1.12,-1.035 -2.36023,-1.9607 -3.45898,-3.002 -0.54937,-0.5206 -1.06367,-1.0707 -1.50976,-1.6777 -0.4461,-0.607 -0.82407,-1.2715 -1.10157,-2.0215 -0.2625,-0.7125 -0.40539,-1.4101 -0.44726,-2.0937 -0.0419,-0.6836 0.0177,-1.3535 0.16015,-2.0078 0.285,-1.3088 0.90203,-2.5581 1.70703,-3.7481 1.46923,-2.1326 3.0794,-4.1612 4.81836,-6.0722 1.73897,-1.9111 3.60689,-3.7039 5.5918,-5.3672 1.625,-1.35 3.4375,-2.4917 5.3125,-3.5254 1.53318,-0.8453 3.10197,-1.5995 4.65039,-2.3594 0.27828,-0.1639 0.53863,-0.3615 0.83789,-0.4805 0.55057,-0.2188 1.13271,-0.3596 1.72852,-0.416 0.44821,0 0.88332,0.1561 1.2207,0.4512 0.19245,0.214 0.42273,0.3899 0.67969,0.5195 0.6463,0.093 1.29878,-0.1179 1.76953,-0.5703 0.4116,-0.3932 0.77994,-0.8298 1.09961,-1.3008 0.21,-0.27 0.36086,-0.4586 0.63086,-0.8086 0.27,-0.35 0.57008,-0.66 0.83008,-1 0.6575,-0.8775 1.17007,-1.3827 1.63476,-1.6894 0.46469,-0.3067 0.88141,-0.4162 1.34766,-0.4981 0.46625,-0.082 0.98234,-0.1368 1.64453,-0.3398 0.66219,-0.203 1.47094,-0.5527 2.52344,-1.2227 1.735,-1.105 3.59742,-2.4348 5.57617,-3.3711 0.98937,-0.4681 2.00664,-0.8393 3.05273,-1.0332 1.0461,-0.1939 2.12071,-0.2115 3.22071,0.023 2.02301,0.5656 4.0041,1.272 5.92968,2.1114 1.56191,0.6388 3.1875,1.1066 4.84961,1.3984 0.96133,0.04 1.91309,0.2086 2.83008,0.5 1.77,0.63 3.46969,1.7515 5.17969,2.5215 1.13913,0.4404 2.24584,0.9603 3.31055,1.5586 0.86,0.41 1.72054,0.9201 2.56054,1.4101 0.62,0.1475 1.17547,0.046 1.67578,-0.2148 0.50032,-0.2608 0.94555,-0.6799 1.3418,-1.168 0.7925,-0.9762 1.39133,-2.2273 1.86133,-3.0273 1.395,-2.375 2.92578,-5.2095 4.08203,-8.1582 0.57813,-1.4744 1.06297,-2.9769 1.39063,-4.4649 0.32765,-1.4879 0.49726,-2.9619 0.44726,-4.3769 -0.045,-1.24 -0.3368,-2.3124 -0.7793,-3.3399 -0.4425,-1.0275 -1.03468,-2.0103 -1.67968,-3.0703 -1.29,-2.12 -2.48032,-4.2893 -3.57032,-6.529303 -0.45371,-0.8104 -0.8025,-1.6703 -1.04101,-2.5605 -0.23851,-0.8902 -0.36666,-1.8116 -0.37891,-2.7403 0.1175,-0.38 0.31203,-0.6339 0.5586,-0.8046 0.24656,-0.1708 0.54539,-0.2582 0.86914,-0.2989 0.6475,-0.081 1.39797,0.019 2.04296,-0.016 1.95501,-0.095 4.28133,-0.3053 6.54883,-0.1953 1.13375,0.055 2.25305,0.1896 3.30274,0.459 1.04969,0.2694 2.03117,0.6731 2.88867,1.2656 1.34,0.92 2.45852,2.2207 3.72852,3.2207 1.49407,1.1174 3.08354,2.1006 4.75,2.939503 0.76212,0.6022 1.64559,1.0319 2.58984,1.2598 0.3875,-0.05 0.87445,-0.4515 1.39258,-1.0352 0.51812,-0.583803 1.06758,-1.349503 1.58008,-2.127003 1.02499,-1.555 1.90289,-3.1572 2.08789,-3.4472 1,-1.56 1.97757,-3.0933 2.83007,-4.6758 0.8525,-1.5825 1.58008,-3.2146 2.08008,-4.9746 0.64,-2.2901 1.86922,-4.3601 2.69922,-6.5801 0.38,-1.005 0.6468,-2.0379 0.81836,-3.0879 0.17156,-1.05 0.24875,-2.117 0.25,-3.1895 0.002,-2.145 -0.29805,-4.3121 -0.74805,-6.4121 -0.14226,-0.9786 -0.42989,-1.9254 -0.84961,-2.8086 -0.41971,-0.8833 -0.97175,-1.7033 -1.64062,-2.4317 -0.94,-0.95 -2.25914,-1.5255 -3.52539,-2.1543 -0.63313,-0.3143 -1.25266,-0.6422 -1.80469,-1.0371 -0.55203,-0.3948 -1.03594,-0.855 -1.39844,-1.4375 -0.4575,-0.7325 -0.65765,-1.5281 -0.67968,-2.3476 -0.022,-0.8196 0.13289,-1.663 0.38476,-2.4961 0.50375,-1.6663 1.39344,-3.2864 2.02344,-4.5664 0.535,-1.12 1.17875,-2.2177 1.75,-3.3477 0.57125,-1.13 1.07031,-2.293 1.32031,-3.543 0.58614,-2.674 1.00056,-5.3823 1.24024,-8.1093 0.075,-0.95 -0.0402,-1.5217 -0.22266,-2.0567 -0.1825,-0.535 -0.43195,-1.0337 -0.62695,-1.8437 -0.36,-1.48 -0.33243,-3.0419 -0.29493,-4.6094 0.0375,-1.5675 0.0856,-3.1406 -0.23437,-4.6406 -0.15364,-0.9307 -0.43967,-1.8301 -0.84375,-2.6719 -0.40409,-0.8418 -0.92662,-1.6261 -1.55664,-2.3281 -0.32,-0.365 -0.90766,-0.7795 -1.37891,-1.252 -0.23562,-0.2362 -0.44273,-0.4879 -0.57226,-0.7539 -0.12953,-0.2659 -0.18188,-0.5462 -0.10938,-0.8437 0.165,-0.695 1.06461,-1.5586001 2.03711,-2.3399001 0.9725,-0.7812 2.01766,-1.4815 2.47266,-1.8515 1.285,-1.025 2.64617,-2.1726 4.07617,-3.2051 1.43,-1.0325 2.92914,-1.9487 4.49414,-2.51369996 0.6875,-0.245 1.37734,-0.3308 2.06641,-0.3086 z M 331.71781,180.94114 l 98.10352,56.2812 m -158.69926,55.0907 c 1.12324,-0.2414 2.2578,-0.407 3.39648,-0.4805 1.13869,-0.073 2.28183,-0.055 3.42383,0.07 1.6,0.17 2.45899,0.4605 3.30274,0.7305 0.84375,0.27 1.67375,0.5194 3.21875,0.6094 2.06,0.14 3.05859,-0.16 7.05859,0 0.815,0.03 1.63289,0.069 2.30664,0.2265 0.67375,0.1575 1.20336,0.4336 1.44336,0.9336 0.18,0.355 0.13547,0.7154 0.10547,1.0567 -0.03,0.3412 -0.0447,0.6633 0.19531,0.9433 0.13,0.145 0.30711,0.2556 0.66211,0.3106 0.355,0.055 0.88852,0.053 1.72852,-0.021 1.39433,-0.041 2.77375,-0.2974 4.08984,-0.7598 1.89,-0.73 1.64867,-1.2206 3.38867,-1.8906 1.32,-0.51 1.34071,-0.2093 4.22071,-0.7793 1.44,-0.285 2.23937,-0.5277 2.79687,-0.6602 0.5575,-0.1325 0.87375,-0.155 1.34375,0 0.705,0.23 1.00172,0.6124 1.32422,1.0274 0.3225,0.415 0.66961,0.8626 1.47461,1.2226 0.705,0.31 1.16547,0.2954 1.69922,0.2754 0.53375,-0.02 1.14062,-0.046 2.14062,0.2442 1.05213,0.2763 2.0227,0.8022 2.83008,1.5312 0.7,0.665 0.93609,1.2351 1.12109,1.7363 0.18501,0.5013 0.32032,0.9343 0.82032,1.3243 0.34,0.2525 0.67187,0.3598 1.02734,0.3867 0.35547,0.027 0.73414,-0.028 1.16602,-0.098 0.86375,-0.14 1.94156,-0.3446 3.47656,-0.1 0.57,0.09 1.33391,0.2115 2.09766,0.4902 0.76375,0.2788 1.52679,0.7147 2.09179,1.4297 0.3275,0.4125 0.50594,0.8145 0.60938,1.2031 0.10343,0.3886 0.1325,0.7643 0.15625,1.1211 0.0238,0.3569 0.0424,0.6944 0.13086,1.0117 0.0884,0.3174 0.24547,0.6129 0.54297,0.8829 0.365,0.32 0.96296,0.4584 1.88671,0.4921 0.92375,0.034 2.17375,-0.036 3.84375,-0.1308 1.285,-0.075 2.12672,-0.1625 2.76172,-0.1563 0.635,0.01 1.06258,0.1063 1.51758,0.4063 0.53,0.355 0.72469,0.7325 0.92969,1.125 0.205,0.3925 0.42023,0.7998 0.99023,1.2148 0.59941,0.4036 1.27337,0.6614 1.97071,0.7657 0.69733,0.1042 1.41813,0.054 2.10937,-0.1563 0.52,-0.17 0.91266,-0.4164 1.23438,-0.6953 0.32172,-0.2789 0.57312,-0.5891 0.8125,-0.8848 0.23937,-0.2956 0.46726,-0.5767 0.74023,-0.7968 0.27297,-0.2202 0.59117,-0.3811 1.01367,-0.4336 0.495,-0.06 0.86469,0.059 1.33594,0.3105 0.47125,0.2513 1.04336,0.6363 1.94336,1.1113 1.57036,0.8167 3.23311,1.4435 4.95117,1.8692 m -50.74996,-17.7289 c -0.47,-0.155 -0.78625,-0.1325 -1.34375,0 -0.5575,0.1325 -1.35687,0.3751 -2.79687,0.6601 -2.88,0.57 -2.90071,0.2693 -4.22071,0.7793 -1.74,0.67 -1.49867,1.1606 -3.38867,1.8906 -1.31609,0.4624 -2.69551,0.7185 -4.08984,0.7598 -0.84,0.075 -1.37352,0.076 -1.72852,0.021 -0.355,-0.055 -0.53211,-0.1656 -0.66211,-0.3106 0.105,1.265 0.2893,2.0929 0.5293,2.6329 0.24,0.54 0.53633,0.7912 0.86133,0.9062 0.325,0.115 0.68172,0.068 1.04297,0.057 0.36125,-0.011 0.7264,0.013 1.0664,0.2734 0.2723,0.2374 0.46785,0.5513 0.56055,0.9004 0.35504,1.5602 0.38867,3.1763 0.0996,4.75 -0.19,1.7366 -0.23743,3.4863 -0.14063,5.2305 0.025,1.65 0.1243,2.642 0.24805,3.2695 0.12375,0.6275 0.27258,0.8901 0.39258,1.0801 0.67498,0.7559 1.29585,1.5582 1.85937,2.4004 0.215,0.385 0.42774,0.8051 0.55274,1.2051 0.125,0.4 0.16234,0.779 0.0273,1.084 -0.27,0.61 -0.83953,0.4796 -1.26953,1.0996 -0.26,0.4 -0.26031,0.8027 -0.19531,1.2715 0.065,0.4687 0.19531,1.0049 0.19531,1.6699 0.0169,0.6393 -0.0917,1.2697 -0.3125,1.8574 -0.2208,0.5877 -0.55455,1.1316 -0.98828,1.6016 -0.4225,0.35 -0.88914,0.4779 -1.38086,0.4922 -0.49172,0.014 -1.00797,-0.085 -1.52734,-0.1856 -0.51938,-0.1006 -1.04141,-0.2027 -1.54688,-0.1973 -0.50547,0.01 -0.99531,0.1187 -1.44531,0.4512 -0.26,0.185 -0.46922,0.5933 -0.69922,1.2695 -0.23,0.6763 -0.48031,1.6209 -0.82031,2.8809 -0.32,1.18 -0.47485,2.0101 -0.4961,2.6426 -0.0213,0.6325 0.0916,1.067 0.30664,1.457 0.29,0.48 0.48907,0.43 0.78907,1 0.23394,0.534 0.36767,1.101 0.39648,1.6738 0.0288,0.5728 -0.0474,1.1523 -0.22656,1.7071 -0.17957,0.7593 -0.45559,1.4875 -0.82031,2.1699 -0.36473,0.6824 -0.81808,1.3175 -1.34961,1.8887 -1.22,1.33 -1.63961,1.0413 -4.09961,3.1113 -1.025,0.85 -1.6168,1.456 -1.9668,1.8848 -0.35,0.4287 -0.45867,0.6794 -0.51367,0.8144 -0.46,1.2 -0.0295,1.6809 -0.51953,3.3809 -0.39236,1.0265 -0.8459,2.0283 -1.35938,3 -1.06,2.33 -1.06054,2.73 -1.06054,3 0.02,0.405 0.12359,0.8009 0.40234,1.2734 0.27875,0.4725 0.73203,1.0216 1.45703,1.7266 1.67386,1.5199 3.51973,2.8385 5.5,3.9297 1.7282,0.916 3.31306,2.0809 4.70117,3.4589 0.76092,0.7065 1.31112,1.6112 1.58985,2.6114 0.12831,0.6506 0.12834,1.3131 0.008,1.9531 -0.12053,0.64 -0.36257,1.257 -0.71875,1.8164 -0.29,0.44 -0.54344,0.6679 -0.92969,0.9316 -0.38625,0.2638 -0.90375,0.5635 -1.71875,1.1485 -1.47,1.065 -2.10555,1.7716 -2.62305,2.3379 -0.5175,0.5662 -0.91796,0.9922 -1.91796,1.4922 -0.91,0.465 -1.62774,0.6418 -2.17774,0.8281 -0.55,0.1862 -0.93187,0.3808 -1.17187,0.8808 -0.20559,2.0081 0.25089,3.9045 0.83006,5.8106 0.2114,0.9247 0.54783,1.8166 1,2.6504 0.78,1.23 1.3204,1.2305 1.90039,2.2305 0.25651,0.4969 0.42982,1.027 0.51758,1.5722 0.0878,0.5452 0.0895,1.104 0.002,1.6563 -0.115,0.965 -0.46321,1.7701 -0.93946,2.5039 -0.47625,0.7337 -1.08093,1.3961 -1.71093,2.0761 -1.54,1.68 -1.87954,1.351 -2.76954,2.461 -0.4225,0.53 -0.67375,1.0182 -0.83203,1.5019 -0.15828,0.4838 -0.22336,0.9621 -0.27148,1.4746 -0.0962,1.025 -0.12703,2.1835 -0.70703,3.7735 -0.335,0.92 -0.80625,1.7479 -1.5,2.7129 -0.69375,0.965 -1.61008,2.0671 -2.83008,3.5371 -1.125,1.355 -1.89641,2.1319 -2.44141,2.7832 -0.545,0.6512 -0.86312,1.1754 -1.07812,2.0254 -0.245,0.94 -0.18258,1.5532 -0.14258,2.1894 0.04,0.6363 0.0577,1.2971 -0.27734,2.3321 -0.52411,1.4022 -1.30123,2.6972 -2.29102,3.8203 -1.69,2.16 -2.07828,1.93 -2.73828,3 -0.395,0.635 -0.58055,1.2378 -0.64258,1.8828 -0.062,0.645 -0.002,1.3308 0.0977,2.1308 0.0994,0.8 0.23695,1.7145 0.32617,2.81449 0.0892,1.1 0.12961,2.38664 0.0371,3.93164 -0.115,1.95001 -0.36867,3.08618 -0.63867,3.76368 -0.27,0.6775 -0.55547,0.89586 -0.73047,1.00586 -0.3425,0.215 -0.68289,0.28718 -1.04102,0.28515 -0.35812,-0.002 -0.73453,-0.0776 -1.14453,-0.1582 -0.41,-0.0806 -0.85539,-0.16672 -1.35351,-0.1875 -0.49813,-0.0208 -1.04938,0.0237 -1.67188,0.20117 -0.7662,0.21518 -1.47236,0.57785 -2.08594,1.06055 -0.61357,0.4827 -1.13393,1.08529 -1.52343,1.77929 -0.4,0.88501 -0.30016,1.53227 -0.19141,2.19727 0.10875,0.665 0.22633,1.34773 -0.13867,2.30273 -0.155,0.405 -0.47977,0.82196 -1.04102,1.37696 -0.56125,0.555 -1.35898,1.24812 -2.45898,2.20312 -1.1,0.955 -1.79149,1.5018 -2.27149,1.93555 -0.48,0.43375 -0.74804,0.75391 -0.99804,1.25391 -0.26168,0.57786 -0.41933,1.18164 -0.47852,1.79687 -0.0592,0.61524 -0.021,1.24208 0.10742,1.86328 m 128.56426,-6.35411 c -1.64131,0.51258 -3.07152,1.24287 -4.52344,2.16406 -0.92,0.585 -1.82172,1.1582 -2.63672,1.8457 -0.815,0.6875 -1.54328,1.48844 -2.11328,2.52344 -0.71,1.26 -0.83571,2.23219 -0.9707,3.05469 -0.0675,0.41125 -0.13633,0.78523 -0.28321,1.13867 -0.14687,0.35344 -0.37109,0.68758 -0.74609,1.01758 -0.605,0.565 -1.34485,0.84703 -2.08985,0.98828 -0.745,0.14125 -1.49609,0.14062 -2.12109,0.14062 -0.915,0.01 -1.54883,-0.10164 -2.20508,-0.27539 -0.65625,-0.17375 -1.33398,-0.40953 -2.33398,-0.64453 -1.08,-0.25 -2.81461,-0.65758 -4.53711,-0.73633 -0.86125,-0.0394 -1.72063,0.004 -2.49219,0.18946 -0.77156,0.18578 -1.4557,0.51437 -1.9707,1.04687 -0.475,0.495 -0.57016,0.92344 -0.69141,1.39844 -0.12125,0.475 -0.26961,0.99664 -0.84961,1.68164 -0.622,0.66413 -1.35484,1.20185 -2.16015,1.5918 -0.80532,0.38994 -1.68311,0.63289 -2.58985,0.70898 -0.965,0.08 -1.61945,-0.0641 -2.62695,-0.46289 -1.0075,-0.39875 -2.36719,-1.05305 -4.74219,-1.99805 -2.555,-1.02 -4.07984,-1.49718 -5.05859,-1.67968 -0.97875,-0.1825 -1.41125,-0.0702 -1.78125,0.0898 -0.59,0.285 -1.04211,0.71562 -1.50586,1.35938 -0.46375,0.64379 -0.93922,1.50066 -1.57422,2.64066 -0.785,1.42 -1.08555,2.33344 -1.3418,2.99219 -0.25625,0.65875 -0.46812,1.06375 -1.07812,1.46875 -0.61,0.405 -1.11727,0.41726 -1.88477,0.32226 -0.7675,-0.095 -1.79531,-0.29726 -3.44531,-0.32226 -1.335,-0.02 -2.67305,-0.0419 -3.8418,0.14062 -0.58437,0.0913 -1.12687,0.23336 -1.60547,0.45117 -0.47859,0.21782 -0.89265,0.51321 -1.22265,0.90821 -0.49,0.585 -0.53953,1.10062 -0.61328,1.73437 -0.0737,0.63375 -0.17086,1.38555 -0.75586,2.43555 -0.15,0.265 -0.56547,0.95344 -1.13672,1.58594 -0.28563,0.31625 -0.61078,0.61851 -0.96094,0.8457 -0.35015,0.22719 -0.72578,0.38094 -1.11328,0.39844 -0.3875,0.0175 -0.69641,-0.0893 -0.97266,-0.2793 -0.27625,-0.19 -0.51929,-0.46375 -0.77929,-0.78125 -0.52,-0.635 -1.10391,-1.44633 -2.12891,-2.11133 -0.5125,-0.3325 -0.97969,-0.5289 -1.51562,-0.63672 -0.53594,-0.10781 -1.14008,-0.12586 -1.92383,-0.0996 -1.5675,0.0525 -3.85477,0.28313 -7.75977,0.32813 -4.1,0.04 -4.21992,-0.18087 -5.91992,0.11913 -1.26575,0.25718 -2.5104,0.5994 -3.72656,1.02539 -1.21617,0.42599 -2.40316,0.93654 -3.55274,1.52539 -2.1,0.98 -3.8,1.92891 -5,2.62891 m 83.50586,80.28906 -9.78711,-3.22852 c -2.74,-0.89 -4.80484,-1.55687 -6.40234,-1.98437 -1.5975,-0.4275 -2.72766,-0.61492 -3.59766,-0.54492 -0.87,0.07 -1.64179,0.21453 -2.31054,0.23828 -0.66875,0.0238 -1.23446,-0.0733 -1.68946,-0.48828 -0.29,-0.27 -0.46015,-0.6025 -0.53515,-1.40625 -0.075,-0.80375 -0.0548,-2.07938 0.0352,-4.23438 0.07,-1.845 0.13805,-2.94453 0.12305,-3.70703 -0.015,-0.7625 -0.11305,-1.18859 -0.37305,-1.68359 -0.26,-0.495 -0.62734,-0.89438 -1.15234,-1.29688 -0.525,-0.4025 -1.20766,-0.8075 -2.09766,-1.3125 -2,-1.14 -3.47375,-1.58875 -4.5625,-1.96875 -0.54437,-0.19 -0.99273,-0.36133 -1.36133,-0.5957 -0.36859,-0.23438 -0.65726,-0.5318 -0.88476,-0.9668 -0.22,-0.43 -0.20992,-1.62 -0.16992,-4 0.03,-1.855 0.1139,-2.8932 0.1289,-3.56445 0.015,-0.67125 -0.0391,-0.97547 -0.28906,-1.35547 -0.2225,-0.335 -0.46992,-0.53437 -0.75195,-0.67187 -0.28203,-0.1375 -0.60031,-0.21243 -0.96094,-0.29493 -0.72125,-0.165 -1.61758,-0.36211 -2.76758,-1.16211 -0.91,-0.64 -1.29695,-1.18461 -1.68945,-1.69335 -0.3925,-0.50875 -0.7907,-0.98157 -1.7207,-1.47657 -1.08941,-0.56063 -2.27885,-0.90047 -3.5,-1 -1.26159,-0.0729 -2.52655,-0.0254 -3.7793,0.14063 -1.55,0.07 -2.71539,0.12211 -3.61914,0.0684 -0.90375,-0.0538 -1.54578,-0.21336 -2.05078,-0.56836 -0.725,-0.5 -0.94367,-1.08922 -1.16992,-1.66797 -0.22625,-0.57875 -0.46071,-1.14828 -1.22071,-1.61328 -0.365,-0.23 -0.83992,-0.34555 -1.51367,-0.4043 -0.67375,-0.0588 -1.54703,-0.0594 -2.70703,-0.0644 -1.43258,0.12706 -2.87548,0.0313 -4.2793,-0.28125 -0.55608,-0.10142 -1.08514,-0.32017 -1.55078,-0.64063 -0.2675,-0.2325 -0.45242,-0.50812 -0.57617,-0.85156 -0.12375,-0.34344 -0.18649,-0.75461 -0.20898,-1.25586 -0.045,-1.0025 0.0708,-2.36625 0.17578,-4.28125 0.125,-2.32 0.14078,-3.63289 0.082,-4.43164 -0.0587,-0.79875 -0.19133,-1.08461 -0.36133,-1.34961 -0.5,-0.75 -1.20109,-1.2368 -1.99609,-1.5918 -0.795,-0.355 -1.68446,-0.57687 -2.56446,-0.79687 -1.295,-0.32 -2.08742,-0.31969 -2.91992,-0.30469 -0.8325,0.015 -1.70516,0.0452 -3.16016,-0.21484 -1.14,-0.215 -2.19234,-0.41414 -3.08984,-0.74414 -0.8975,-0.33 -1.64016,-0.79211 -2.16016,-1.53711 -0.165,-0.24 -0.34562,-0.56024 -0.42187,-1.42774 -0.0762,-0.8675 -0.0488,-2.28289 0.20117,-4.71289 0.32,-3.21 0.82141,-6.09859 0.94141,-6.80859 0.27,-1.55 0.48945,-2.63563 0.62695,-3.60938 0.1375,-0.97375 0.19281,-1.8364 0.13281,-2.9414 -0.05,-0.91 -0.0936,-1.62055 -0.21484,-2.2168 -0.12125,-0.59625 -0.32055,-1.0782 -0.68555,-1.5332 -0.325,-0.4075 -0.68398,-0.67649 -1.05273,-0.87696 -0.36875,-0.20046 -0.74828,-0.33156 -1.11328,-0.46093 -0.365,-0.12938 -0.71555,-0.25696 -1.0293,-0.45118 -0.31375,-0.19421 -0.58969,-0.45656 -0.80469,-0.85156 -0.31,-0.55 -0.12,-0.66922 -0.25,-3.44922 0.0251,-1.2912 -0.12746,-2.57985 -0.45117,-3.83007 -0.24383,-0.64269 -0.57984,-1.24172 -0.99609,-1.7793 -0.41625,-0.53759 -0.91149,-1.01318 -1.47266,-1.41016 -0.5575,-0.3875 -1.0625,-0.60117 -1.53125,-0.72461 -0.46875,-0.12343 -0.90086,-0.15679 -1.31836,-0.18554 -0.4175,-0.0288 -0.8189,-0.0528 -1.22266,-0.15625 -0.40375,-0.10344 -0.81078,-0.28727 -1.23828,-0.63477 -0.3825,-0.3125 -0.61742,-0.62172 -0.7832,-0.94141 -0.16578,-0.31968 -0.26156,-0.64929 -0.36719,-0.99804 -0.21125,-0.6975 -0.45914,-1.47492 -1.36914,-2.41992 -0.54939,-0.52034 -1.15335,-0.97501 -1.80078,-1.35743 -0.64743,-0.38242 -1.3377,-0.69188 -2.05859,-0.92187 -1.25896,-0.48099 -2.57978,-0.78734 -3.92188,-0.91016 -1.38,-0.135 -2.16914,-0.0209 -2.77539,0.0566 -0.60625,0.0775 -1.02883,0.11899 -1.67383,-0.16601 -0.835,-0.375 -1.15921,-0.90422 -1.51172,-1.48047 -0.3525,-0.57625 -0.73273,-1.19953 -1.67773,-1.76953 -0.555,-0.34 -1.0925,-0.53125 -1.75,-0.65625 -0.6575,-0.125 -1.4357,-0.18563 -2.4707,-0.26563 -1.565,-0.12 -2.44641,-0.009 -3.16016,0.0586 -0.71375,0.0675 -1.26039,0.0927 -2.15039,-0.19727 -0.8,-0.26 -1.16656,-0.54258 -1.57031,-0.83008 -0.40375,-0.2875 -0.84406,-0.57937 -1.78906,-0.85937 -0.60754,-0.21942 -1.2407,-0.34994 -1.87891,-0.38867 -0.63821,-0.0387 -1.28055,0.0138 -1.91016,0.1582 -0.9568,0.30695 -1.84935,0.78832 -2.63086,1.41992 -0.89,0.625 -1.3575,1.09008 -1.71875,1.42383 -0.36125,0.33375 -0.61703,0.53672 -1.08203,0.63672 -0.465,0.1 -0.81172,-0.0155 -1.26172,-0.23047 -0.45,-0.215 -1.00195,-0.53008 -1.87695,-0.83008 -0.875,-0.3 -1.33101,-0.31805 -2.07227,-0.31055 -0.74125,0.007 -1.76906,0.0399 -3.78906,-0.16015 -1.195,-0.12 -2.01117,-0.24758 -2.60742,-0.26758 -0.59625,-0.02 -0.97125,0.067 -1.28125,0.37695 -0.31,0.31 -0.36445,0.63328 -0.43945,0.98828 -0.075,0.355 -0.17055,0.7436 -0.56055,1.1836 -0.63111,0.60004 -1.42466,1.00135 -2.28125,1.1582 -1.55,0.48 -1.85992,0.15063 -2.66992,0.64063 -0.61,0.37 -0.66867,0.7 -1.63867,2 -0.62383,0.84113 -1.29141,1.64883 -2,2.41992 -0.93825,0.97945 -2.06541,1.83117 -3.21875,2.54492 M 122.81346,323.03214 c -0.95,0.08 -2.32961,0.1203 -4.09961,0.3203 -3.44,0.38 -3.09086,0.481 -4.38086,0.541 -1.805,0.095 -3.25805,-0.055 -4.3418,-0.09 -0.54187,-0.018 -0.99023,-0.01 -1.3457,0.078 -0.35547,0.085 -0.61821,0.244 -0.7832,0.5215 -0.19001,0.24 -0.0295,0.2701 -0.18946,0.6601 -0.1625,0.3825 -0.39383,0.6484 -0.6582,0.8496 -0.26438,0.2013 -0.56102,0.3365 -0.85352,0.459 -0.585,0.245 -1.1532,0.4355 -1.4082,0.9805 -0.1275,0.2725 -0.12211,0.6049 -0.0176,0.9668 0.10453,0.3618 0.3086,0.7534 0.57422,1.1484 0.53125,0.79 1.3125,1.5908 2.0625,2.1758 1.225,0.975 2.35,1.3712 3.21875,1.7012 0.43438,0.165 0.80508,0.3147 1.0918,0.5097 0.28672,0.195 0.48984,0.4366 0.58984,0.7891 0.095,0.345 0.0499,0.7276 -0.11133,1.2363 -0.16125,0.5088 -0.43859,1.1422 -0.80859,1.9922 -0.57,1.28 -0.89,1.5016 -1,2.3516 -0.0849,0.4711 -0.0725,0.9486 0.0312,1.4062 0.10377,0.4576 0.30021,0.8948 0.58008,1.2832 0.46,0.515 1.01734,0.6495 1.52734,0.752 0.51,0.1025 0.97219,0.1736 1.24219,0.5586 0.27,0.385 0.3243,0.8322 0.24805,1.3847 -0.0763,0.5525 -0.28407,1.2087 -0.53907,2.0137 -0.51,1.61 -0.80898,1.47 -1.20898,2.75 -0.35,1.125 -0.32281,1.883 -0.32031,2.5742 0.002,0.6913 -0.0207,1.3158 -0.47071,2.1758 -0.5,0.95 -0.73906,0.7305 -1.28906,1.7305 -0.33,0.605 -0.43242,1.0509 -0.51367,1.6484 -0.0812,0.5975 -0.14172,1.3475 -0.38672,2.5625 -0.18,0.9 -0.31828,1.5803 -0.48828,2.1328 -0.17,0.5525 -0.37164,0.9772 -0.68164,1.3672 -0.42,0.52 -0.77516,0.7224 -1.09766,0.9199 -0.3225,0.1975 -0.61234,0.3887 -0.90234,0.8887 -0.29994,0.5656 -0.45944,1.1853 -0.47656,1.8086 -0.0171,0.6233 0.10852,1.2508 0.37695,1.832 0.5153,0.9517 1.31532,1.7172 2.28906,2.1895 3.13,1.93 5.13086,2.4199 8.13086,4.4199 0.595,0.395 1.06148,0.7413 1.39649,1.0938 0.335,0.3525 0.53851,0.7117 0.60351,1.1367 0,0.46 -0.12,0.7411 -1,2.8711 -0.39837,0.8196 -0.7327,1.6678 -1,2.539 -0.2039,1.0239 -0.24548,2.0729 -0.12109,3.1094 0.085,1.22 0.23265,2.0256 0.28515,2.6231 0.0525,0.5975 0.01,0.9869 -0.28515,1.3769 -0.45,0.63 -0.85961,0.4 -1.34961,1 -0.44387,0.6908 -0.62077,1.4891 -0.54297,2.2617 0.0778,0.7727 0.40975,1.5209 0.98242,2.1094 0.265,0.26 0.47852,0.3474 0.91602,0.4512 0.4375,0.1037 1.10062,0.2238 2.26562,0.5488 1.8,0.5 2.73883,0.8195 3.04883,1.2695 0.31,0.45 0.19,0.75 0,3.75 -0.12,1.75 -0.1193,2.34 0.2207,3 0.34925,0.5778 0.8373,1.0594 1.41992,1.4004 2.43,1.76 3.63969,2.6395 4.17969,3.4395 0.465,0.685 0.51235,1.2022 0.52735,1.8222 0.015,0.62 -0.003,1.3425 0.33203,2.4375 0.335,1.095 0.76523,1.8238 1.30273,2.5625 0.5375,0.7388 1.18227,1.4889 1.94727,2.6289 0.66547,0.9988 1.26893,2.0385 1.79687,3.1153 0.52795,1.0768 0.981,2.19 1.34375,3.334 m -29.91972,-99.1502 c -1.57736,-0.5178 -3.07339,-1.123 -4.4707,-2.0195 -1.506457,-0.903 -2.890197,-1.9952 -4.119147,-3.25 -0.11948,-0.1316 -0.25409,-0.2487 -0.40039,-0.3496 -0.53,-0.345 -1.1957,-0.3339 -1.75195,-0.2227 -0.55625,0.1113 -1.00266,0.3231 -1.09766,0.3731 -0.825,0.41 -1.15265,0.9251 -1.4414,1.4551 -0.28875,0.53 -0.53899,1.0749 -1.20899,1.5449 -0.435,0.305 -1.18547,0.4213 -2.35547,0.4238 -1.17,0 -2.76,-0.1106 -4.875,-0.2656 -0.98,-0.07 -1.75515,-0.1361 -2.41015,-0.09 -0.655,0.046 -1.18945,0.2048 -1.68946,0.5898 -0.79,0.62 -0.6204,1.1406 -1.4004,1.8106 -0.39,0.335 -0.7652,0.5045 -1.3965,0.6445 -0.6312,0.14 -1.5186,0.2518 -2.9336,0.4668 -2.09,0.31 -3.1384,0.48 -3.3984,0.75 -0.31,0.32 -0.4175,0.6763 -0.4063,1.5176 0.011,0.8412 0.1397,2.1668 0.3047,4.4218 0.095,1.33 0.1458,2.1699 0.1133,2.7774 -0.033,0.6075 -0.1478,0.9828 -0.3828,1.3828 -0.2994,0.4847 -0.683,0.9051 -1.1289,1.2441 -0.4459,0.3391 -0.953,0.5969 -1.5,0.7559 -0.73,0.18 -1.3211,0.1285 -1.8086,0.1035 -0.4875,-0.025 -0.8714,-0.024 -1.1914,0.2559 -0.32,0.28 -0.3591,0.5848 -0.4004,0.9336 -0.041,0.3487 -0.085,0.7422 -0.4199,1.1972 -0.44,0.6 -0.8011,0.4786 -2.8711,1.4786 -1.63,0.77 -1.7599,1 -2.3399,1 -0.505,0.01 -0.9202,-0.1525 -1.3339,-0.42 -0.4138,-0.2675 -0.8262,-0.6388 -1.3262,-1.0488 -1.52,-1.295 -2.732,-2.3298 -3.7832,-3.0098 -0.5256,-0.34 -1.0113,-0.5915 -1.4746,-0.7422 -0.4633,-0.1506 -0.9043,-0.2011 -1.3418,-0.1386 -0.505,0.075 -0.7932,0.2676 -1.127,0.4551 -0.3337,0.1875 -0.7123,0.3707 -1.4023,0.4257 -0.9243,0.06 -1.8477,-0.1243 -2.6797,-0.5312 -0.74,-0.355 -1.0785,-0.7338 -1.416,-1.1738 -0.3375,-0.44 -0.6741,-0.9402 -1.4141,-1.5352 -0.6295,-0.5547 -1.3535,-0.9798 -2.1289,-1.2598 -0.7754,-0.2799 -1.6027,-0.4151 -2.4414,-0.3906 -0.5707,-10e-4 -1.1294,0.1188 -1.6406,0.3438 -0.5112,0.2249 -0.9747,0.555 -1.3594,0.9765 -0.43,0.58 -0.4637,1.1428 -0.5137,1.709 -0.05,0.5663 -0.1172,1.1355 -0.6172,1.7305 -0.5128,0.5786 -1.2293,0.9369 -2,1 -0.8485,-0.041 -1.6512,-0.3973 -2.25,-1 -1.26,-0.99 -0.9789,-1.5092 -1.8789,-2.1992 -0.775,-0.56 -1.7674,-0.7966 -2.7636,-0.7891 -0.9963,0.01 -1.9971,0.258 -2.7871,0.668 -0.58,0.3 -0.5492,0.4211 -1.1192,0.7011 -0.6715,0.2971 -1.4054,0.4496 -2.1465,0.4746 -0.741,0.025 -1.4907,-0.078 -2.1933,-0.291 M 122.8057,317.63364 c -0.1496,0.96 0.008,5.3984 0.008,5.3984 0.93498,0.2362 1.85612,0.5246 2.75976,0.8613 1.64616,0.6331 3.34658,1.1145 5.08008,1.4395 3.15,0.79 3.87055,1.2191 4.31055,1.5391 0.77558,0.5217 1.4302,1.2037 1.91992,2 0.105,0.17 0.25406,0.4357 0.41406,1.207 0.16,0.7712 0.32961,2.0491 0.47461,4.2441 0.198,1.3032 0.1582,2.6314 -0.11914,3.9199 -0.33,1.19 -0.59992,1.0295 -0.91992,2.1895 -0.25006,0.7666 -0.34244,1.5668 -0.28125,2.3555 0.0612,0.7886 0.27531,1.5663 0.64062,2.2851 0.15,0.22 0.0996,0.1 1.09961,1.1699 0.76358,0.7364 1.45977,1.54 2.08008,2.4004 0.285,0.58 0.345,1.1896 0.25,1.9746 -0.095,0.785 -0.34469,1.7454 -0.67969,3.0254 -0.54,2.08 -0.8789,2.0301 -0.8789,3.0801 -0.005,0.155 -0.0283,0.9069 0.16797,1.7969 0.0981,0.445 0.25125,0.9246 0.48828,1.3809 0.23703,0.4562 0.55718,0.8896 0.99219,1.2421 0.51499,0.415 0.90828,0.4867 1.39453,0.5879 0.48625,0.1013 1.06703,0.2317 1.95703,0.7617 0.47351,0.2071 0.90215,0.4956 1.26953,0.8477 0.36738,0.3522 0.67343,0.7681 0.90039,1.2324 0.24,0.68 -0.0204,0.8803 -0.15039,3.0703 -0.12,1.99 0.0604,2.4192 0.15039,2.6192 0.26,0.56 0.67914,0.9494 1.86914,1.6894 2.05,1.27 2.62047,1.2206 3.48047,1.8106 0.43,0.295 0.8389,0.7695 1.34765,1.5195 0.50876,0.75 1.11641,1.7749 1.94141,3.1699 1.65,2.79 1.57992,3.0301 2.16992,3.3301 0.4275,0.2225 0.84399,0.2967 1.26367,0.2969 0.41969,1e-4 0.84282,-0.073 1.28907,-0.1445 0.44625,-0.072 0.91469,-0.1432 1.42187,-0.1368 0.50719,0.01 1.05375,0.089 1.65625,0.3243 0.73949,0.3226 1.41647,0.7729 2,1.33 0.7475,0.5575 1.67188,0.9243 2.69922,1.127 1.02735,0.2026 2.15703,0.2419 3.31641,0.1426 1.15937,-0.099 2.34859,-0.337 3.49218,-0.6856 1.1436,-0.3486 2.24266,-0.8085 3.22266,-1.3535 1.2025,-0.6675 2.15492,-1.42 2.95508,-2.168 0.80016,-0.7479 1.44648,-1.4918 2.03711,-2.1386 0.59062,-0.6469 1.12531,-1.1964 1.69922,-1.5606 0.5739,-0.3642 1.1875,-0.5433 1.9375,-0.4433 1.35671,0.3224 2.61939,0.9573 3.68945,1.8515 0.85,0.685 1.32336,1.3067 1.75586,1.793 0.4325,0.4862 0.82563,0.8365 1.51562,0.9765 0.54792,0.062 1.09692,0.027 1.625,-0.1 0.52809,-0.1269 1.03442,-0.3458 1.49415,-0.6503 1.14,-0.64 1.24984,-1.2005 2.08984,-1.7305 0.65,-0.41 1.32766,-0.5231 2.06641,-0.5156 0.73875,0.01 1.53859,0.135 2.43359,0.205 1.79,0.14 0.80055,-0.1685 9.06055,-0.7285 1.50732,-0.056 3.01617,-0.023 4.51953,0.1 0.92585,-0.012 1.84112,0.1966 2.66992,0.6094 1.07,0.56 0.92055,1.1305 1.81055,1.5605 0.16,0.08 0.43968,0.1923 1.05468,0.1973 0.615,0 1.56446,-0.097 3.06446,-0.4473 1.31,-0.3 1.96086,-0.5404 2.63086,-0.7304 0.46,-0.13 0.92679,-0.233 2.18554,-0.2305 1.25875,0 3.3086,0.1104 6.9336,0.4004 0.99,0.07 1.7182,0.1195 2.2832,0.252 0.565,0.1325 0.96664,0.348 1.30664,0.748 0.34,0.4 0.39766,0.7447 0.44141,1.1484 0.0437,0.4038 0.0744,0.867 0.35937,1.502 0.445,0.99 1.19969,1.7124 2.02344,2.2637 0.82375,0.5512 1.7175,0.9313 2.4375,1.2363 0.82706,0.3514 1.68669,0.6153 2.56836,0.7891 0.75,0.155 1.4632,0.2502 2.5332,0.2714 1.07,0.021 2.49774,-0.03 4.67774,-0.1699 3.93,-0.29 3.98007,-0.381 5.33007,-0.291 1.79,0.11 1.84907,0.35 4.78907,0.75 1.93162,0.3564 3.90023,0.4817 5.86132,0.3711 1.51497,-0.041 3.00562,-0.3804 4.38868,-1 1.03,-0.49 1.5875,-0.9888 2.09375,-1.4375 0.50625,-0.4488 0.96211,-0.8476 1.78711,-1.1426 0.78175,-0.2452 1.59556,-0.3364 2.40039,-0.2832 0.80482,0.053 1.60067,0.2498 2.34961,0.582"
     style="fill:none;stroke:#231f20;stroke-linecap:round;stroke-linejoin:round;stroke-opacity:1;paint-order:fill markers stroke"
     id="path898" />
</svg>
