<?xml version="1.0" encoding="UTF-8" standalone="no"?>
<svg
   xmlns:dc="http://purl.org/dc/elements/1.1/"
   xmlns:cc="http://creativecommons.org/ns#"
   xmlns:rdf="http://www.w3.org/1999/02/22-rdf-syntax-ns#"
   xmlns:svg="http://www.w3.org/2000/svg"
   xmlns="http://www.w3.org/2000/svg"
   height="658.5014"
   width="505.50284"
   id="svg26"
   version="1.1"
   viewBox="0 0 505.50283 658.50137">
  <metadata
     id="metadata30">
    <rdf:RDF>
      <cc:Work
         rdf:about="">
        <dc:format>image/svg+xml</dc:format>
        <dc:type
           rdf:resource="http://purl.org/dc/dcmitype/StillImage" />
        <dc:title></dc:title>
      </cc:Work>
    </rdf:RDF>
  </metadata>
  <defs
     id="defs4">
    <style
       id="style2">
      .cls-1 {
        fill: none;
        stroke: #231f20;
        stroke-miterlimit: 10;
      }
    </style>
  </defs>
  <path
     d="m 334.86617,135.58732 c -0.23368,0.13767 -0.48772,0.2363 -0.70312,0.40429 l 1.74023,-0.92968 c -0.34182,0.16863 -0.69189,0.35596 -1.03711,0.52539 z"
     style="fill:none;stroke:#231f20;stroke-linecap:round;stroke-linejoin:round;stroke-opacity:1;paint-order:fill markers stroke"
     id="rect871" />
  <path
     d="m 122.80562,317.63224 c -0.1496,0.96 0.008,5.39844 0.008,5.39844 0.93498,0.23616 1.85612,0.52458 2.75976,0.86132 1.64616,0.63307 3.34658,1.1145 5.08008,1.43946 3.15,0.79 3.87055,1.21906 4.31055,1.53906 0.77558,0.52179 1.4302,1.20378 1.91992,2 0.105,0.17 0.25406,0.43578 0.41406,1.20703 0.16,0.77125 0.32961,2.04914 0.47461,4.24414 0.198,1.30313 0.1582,2.63134 -0.11914,3.91992 -0.33,1.19 -0.59992,1.02946 -0.91992,2.18946 -0.25006,0.7666 -0.34244,1.56683 -0.28125,2.35547 0.0612,0.78863 0.27531,1.5663 0.64062,2.28515 0.15,0.22 0.0996,0.0999 1.09961,1.16992 0.76358,0.73631 1.45977,1.53992 2.08008,2.40039 0.285,0.58001 0.345,1.18961 0.25,1.97461 -0.095,0.785 -0.34469,1.7454 -0.67969,3.02539 -0.54,2.08 -0.8789,2.03008 -0.8789,3.08008 -0.005,0.155 -0.0283,0.90688 0.16797,1.79688 0.0981,0.445 0.25125,0.92461 0.48828,1.38086 0.23703,0.45625 0.55718,0.88968 0.99219,1.24218 0.51499,0.41501 0.90828,0.48665 1.39453,0.5879 0.48625,0.10125 1.06703,0.23171 1.95703,0.76171 0.47351,0.2071 0.90215,0.49551 1.26953,0.84766 0.36738,0.35215 0.67343,0.7681 0.90039,1.23242 0.24,0.68 -0.0204,0.88032 -0.15039,3.07031 -0.12,1.99001 0.0604,2.41915 0.15039,2.61915 0.26,0.56 0.67914,0.94945 1.86914,1.68945 2.05,1.27 2.62047,1.22055 3.48047,1.81055 0.43,0.295 0.8389,0.76953 1.34765,1.51953 0.50876,0.75 1.11641,1.77492 1.94141,3.16992 1.65,2.79 1.57992,3.03008 2.16992,3.33008 0.4275,0.2225 0.84399,0.29672 1.26367,0.29687 0.41969,1.6e-4 0.84282,-0.0727 1.28907,-0.14453 0.44625,-0.0719 0.91469,-0.14312 1.42187,-0.13672 0.50719,0.006 1.05375,0.0892 1.65625,0.32422 0.73949,0.32263 1.41647,0.77291 2,1.33008 0.7475,0.5575 1.67188,0.9243 2.69922,1.12695 1.02735,0.20266 2.15703,0.24196 3.31641,0.14258 1.15937,-0.0994 2.34859,-0.33695 3.49218,-0.68555 1.1436,-0.34859 2.24266,-0.80851 3.22266,-1.35351 1.2025,-0.6675 2.15492,-1.42 2.95508,-2.16797 0.80016,-0.74797 1.44648,-1.4918 2.03711,-2.13867 0.59062,-0.64688 1.12531,-1.19633 1.69922,-1.56055 0.5739,-0.36422 1.1875,-0.54336 1.9375,-0.44336 1.35671,0.32246 2.61939,0.95735 3.68945,1.85156 0.85,0.685 1.32336,1.30672 1.75586,1.79297 0.4325,0.48625 0.82563,0.83656 1.51562,0.97656 0.54792,0.0623 1.09692,0.0273 1.625,-0.0996 0.52809,-0.12694 1.03442,-0.34585 1.49415,-0.65039 1.14,-0.64 1.24984,-1.20046 2.08984,-1.73046 0.65,-0.41 1.32766,-0.52313 2.06641,-0.51563 0.73875,0.007 1.53859,0.13508 2.43359,0.20508 1.79,0.14 0.80055,-0.16852 9.06055,-0.72852 1.50732,-0.0562 3.01617,-0.0232 4.51953,0.0996 0.92585,-0.012 1.84112,0.19655 2.66992,0.60938 1.07,0.56 0.92055,1.13054 1.81055,1.56054 0.16,0.08 0.43968,0.19227 1.05468,0.19727 0.615,0.005 1.56446,-0.0973 3.06446,-0.44727 1.31,-0.3 1.96086,-0.54046 2.63086,-0.73046 0.46,-0.13 0.92679,-0.23297 2.18554,-0.23047 1.25875,0.002 3.3086,0.11039 6.9336,0.40039 0.99,0.07 1.7182,0.11945 2.2832,0.25195 0.565,0.1325 0.96664,0.34805 1.30664,0.74805 0.34,0.4 0.39766,0.74468 0.44141,1.14843 0.0437,0.40376 0.0744,0.86696 0.35937,1.50196 0.445,0.99 1.19969,1.71242 2.02344,2.26367 0.82375,0.55125 1.7175,0.93133 2.4375,1.23633 0.82706,0.35145 1.68669,0.61526 2.56836,0.78906 0.75,0.155 1.4632,0.25023 2.5332,0.27148 1.07,0.0213 2.49774,-0.0299 4.67774,-0.16992 3.93,-0.29 3.98007,-0.38101 5.33007,-0.29101 1.79,0.11 1.84907,0.35 4.78907,0.75 1.93162,0.3564 3.90023,0.48167 5.86132,0.37109 1.51497,-0.0406 3.00562,-0.38041 4.38868,-1 1.03,-0.49 1.5875,-0.98875 2.09375,-1.4375 0.50625,-0.44875 0.96211,-0.84758 1.78711,-1.14258 0.78175,-0.2452 1.59556,-0.33645 2.40039,-0.2832 0.80482,0.0532 1.60067,0.24983 2.34961,0.58203 0.24,-0.5 0.62187,-0.69461 1.17187,-0.88086 0.55,-0.18625 1.26774,-0.36312 2.17774,-0.82812 1,-0.5 1.40046,-0.92594 1.91796,-1.49219 0.5175,-0.56625 1.15305,-1.27289 2.62305,-2.33789 0.815,-0.585 1.3325,-0.88469 1.71875,-1.14844 0.38625,-0.26375 0.63969,-0.49164 0.92969,-0.93164 0.35618,-0.55936 0.59822,-1.1764 0.71875,-1.81641 0.12053,-0.64 0.1205,-1.30252 -0.008,-1.95312 -0.27873,-1.00017 -0.82893,-1.90491 -1.58985,-2.61133 -1.38811,-1.37805 -2.97297,-2.5429 -4.70117,-3.45898 -1.98027,-1.09112 -3.82614,-2.40977 -5.5,-3.92969 -0.725,-0.705 -1.17828,-1.25406 -1.45703,-1.72656 -0.27875,-0.4725 -0.38234,-0.86844 -0.40234,-1.27344 0,-0.27 5.4e-4,-0.67 1.06054,-3 0.51348,-0.97163 0.96702,-1.97346 1.35938,-3 0.49,-1.7 0.0595,-2.18086 0.51953,-3.38086 0.055,-0.135 0.16367,-0.3857 0.51367,-0.81445 0.35,-0.42875 0.9418,-1.03477 1.9668,-1.88477 2.46,-2.07 2.87961,-1.78133 4.09961,-3.11133 0.53153,-0.57116 0.98488,-1.20628 1.34961,-1.88867 0.36472,-0.68239 0.64074,-1.41064 0.82031,-2.16992 0.17917,-0.55479 0.25537,-1.13423 0.22656,-1.70703 -0.0288,-0.5728 -0.16254,-1.13982 -0.39648,-1.67383 -0.3,-0.57 -0.49907,-0.52 -0.78907,-1 -0.215,-0.39 -0.32789,-0.82453 -0.30664,-1.45703 0.0213,-0.6325 0.1761,-1.46258 0.4961,-2.64258 0.34,-1.26 0.59031,-2.20461 0.82031,-2.88086 0.23,-0.67625 0.43922,-1.08453 0.69922,-1.26953 0.45,-0.3325 0.93984,-0.4457 1.44531,-0.45117 0.50547,-0.005 1.0275,0.0966 1.54688,0.19726 0.51937,0.10063 1.03562,0.19977 1.52734,0.18555 0.49172,-0.0142 0.95836,-0.14219 1.38086,-0.49219 0.43373,-0.46999 0.76748,-1.01389 0.98828,-1.60156 0.2208,-0.58767 0.32944,-1.2181 0.3125,-1.85742 0,-0.665 -0.13031,-1.20117 -0.19531,-1.66992 -0.065,-0.46875 -0.0647,-0.87149 0.19531,-1.27149 0.43,-0.62 0.99953,-0.48961 1.26953,-1.09961 0.135,-0.305 0.0977,-0.68398 -0.0273,-1.08398 -0.125,-0.4 -0.33774,-0.82008 -0.55274,-1.20508 -0.56352,-0.84222 -1.18439,-1.64455 -1.85937,-2.40039 -0.12,-0.19 -0.26883,-0.45258 -0.39258,-1.08008 -0.12375,-0.6275 -0.22305,-1.61953 -0.24805,-3.26953 -0.0968,-1.74422 -0.0494,-3.49392 0.14063,-5.23047 0.28906,-1.57374 0.25543,-3.18982 -0.0996,-4.75 -0.0927,-0.34916 -0.28825,-0.663 -0.56055,-0.90039 -0.34,-0.26 -0.70515,-0.28469 -1.0664,-0.27344 -0.36125,0.0113 -0.71797,0.0584 -1.04297,-0.0566 -0.325,-0.115 -0.62133,-0.36625 -0.86133,-0.90625 -0.24,-0.54 -0.4243,-1.36781 -0.5293,-2.63281 -0.24,-0.28 -0.22531,-0.60211 -0.19531,-0.94336 0.03,-0.34125 0.0745,-0.70164 -0.10547,-1.05664 -0.24,-0.5 -0.76961,-0.77609 -1.44336,-0.93359 -0.67375,-0.1575 -1.49164,-0.19657 -2.30664,-0.22657 -4,-0.16 -4.99859,0.14 -7.05859,0 -1.545,-0.09 -2.375,-0.33937 -3.21875,-0.60937 -0.84375,-0.27 -1.70274,-0.56047 -3.30274,-0.73047 -1.142,-0.12548 -2.28514,-0.14383 -3.42383,-0.0703 -1.13868,0.0735 -2.27324,0.23907 -3.39648,0.48047 -0.2125,0.66 -0.56781,1.20281 -1.01953,1.66406 -0.45172,0.46125 -0.99938,0.84078 -1.59375,1.17578 -1.18875,0.67 -2.56609,1.15977 -3.74609,1.75977 -1.86976,0.8156 -3.68611,1.74648 -5.43946,2.78906 -1,0.65 -1.79961,1.3714 -2.84961,1.9414 -2,1.11001 -4.00015,2.36883 -6.16015,3.29883 -1.175,0.5 -2.81485,1.0875 -4.4961,1.5 -1.68125,0.4125 -3.40414,0.65117 -4.74414,0.45117 -1.445,-0.215 -2.87109,-0.68796 -4.27734,-1.23046 -1.40625,-0.5425 -2.79211,-1.15539 -4.16211,-1.65039 -1.885,-0.68 -3.80156,-1.16383 -5.72656,-1.61133 -1.925,-0.4475 -3.86016,-0.85867 -5.78516,-1.38867 -2.70174,-0.72775 -5.34143,-1.66272 -7.89844,-2.79883 -0.355,-0.16 -0.85484,-0.63586 -1.37109,-1.06836 -0.51625,-0.4325 -1.04875,-0.8225 -1.46875,-0.8125 -0.42,0.01 -1.5525,1.37453 -2.46875,2.58203 -0.91625,1.2075 -1.61688,2.25867 -1.17188,1.63867 -1.61,2.24 -3.15992,4.52984 -4.66992,6.83984 -1.97644,2.9473 -3.67705,6.07058 -5.08008,9.33008 -0.46,1.08 -0.70023,2.40969 -1.24023,3.42969 -0.89419,1.27684 -1.93419,2.44524 -3.09961,3.48047 -1.41,1.55 -2.75117,3.1582 -4.20117,4.6582 -0.725,0.75 -1.53508,1.42891 -2.29883,2.12891 -0.76375,0.7 -1.47953,1.42172 -2.01953,2.26172 -0.455,0.705 -0.70633,1.29547 -1.04883,1.82422 -0.3425,0.52875 -0.77656,0.99703 -1.60156,1.45703 -0.46,0.25 -0.87703,0.395 -1.26953,0.45312 -0.3925,0.0581 -0.7611,0.0277 -1.1211,-0.0723 -0.72,-0.2 -1.40898,-0.6825 -2.20898,-1.3125 -0.94,-0.755 -1.81102,-1.90867 -2.60352,-3.13868 -0.7925,-1.23 -1.50671,-2.53484 -2.13672,-3.58984 -1.62,-2.73 -3.00062,-5.57016 -4.39062,-8.41016 -0.835,-1.65999 -1.89906,-3.77054 -3.28906,-5.52929 -0.695,-0.87938 -1.47242,-1.6718 -2.3418,-2.27539 -0.86937,-0.6036 -1.83094,-1.01899 -2.89844,-1.14649 -1.6625,-0.1975 -3.30656,-0.15156 -4.9375,0.0469 -1.63093,0.19844 -3.25007,0.55055 -4.86132,0.96679 -3.2225,0.8325 -6.41782,1.92165 -9.63282,2.55665 -4.58,0.91 -9.18929,1.85117 -13.77929,2.70117 -1.0655,0.17053 -2.13456,0.30936 -3.20704,0.41992 z"
     style="fill:none;stroke:#231f20;stroke-linecap:round;stroke-linejoin:round;stroke-opacity:1;paint-order:fill markers stroke"
     id="path893" />
  <path
     d="m 14.633747,340.23576 c 0.702651,0.21321 1.452321,0.3161 2.19336,0.29101 0.741038,-0.0251 1.474978,-0.17753 2.146484,-0.47461 0.57,-0.28 0.539141,-0.40117 1.119141,-0.70117 0.79,-0.41 1.790859,-0.66047 2.787109,-0.66797 0.99625,-0.007 1.988672,0.22906 2.763672,0.78906 0.9,0.69 0.618906,1.20922 1.878906,2.19922 0.598724,0.60273 1.401404,0.95948 2.25,1 0.770624,-0.0631 1.487111,-0.42139 2,-1 0.5,-0.595 0.567188,-1.16422 0.617188,-1.73047 0.05,-0.56625 0.08367,-1.12898 0.513672,-1.70898 0.384667,-0.42153 0.848207,-0.75165 1.359375,-0.97656 0.511167,-0.22492 1.069964,-0.34494 1.640625,-0.34375 0.838701,-0.0246 1.665974,0.11065 2.441406,0.39062 0.775432,0.27997 1.499336,0.70509 2.128906,1.25977 0.74,0.595 1.076563,1.09515 1.414063,1.53515 0.3375,0.44 0.676015,0.81883 1.416015,1.17383 0.83197,0.40694 1.75545,0.59088 2.679688,0.53125 0.69,-0.055 1.068594,-0.23828 1.402343,-0.42578 0.33375,-0.1875 0.621954,-0.38008 1.126954,-0.45508 0.4375,-0.0625 0.878515,-0.012 1.341796,0.13867 0.463282,0.15063 0.948985,0.40219 1.47461,0.74219 1.05125,0.68 2.263203,1.71477 3.783203,3.00977 0.5,0.41 0.912422,0.78132 1.326172,1.04883 0.41375,0.2675 0.828984,0.42992 1.333984,0.41992 0.58,0 0.709844,-0.23 2.339844,-1 2.07,-1 2.431094,-0.87852 2.871094,-1.47852 0.335,-0.455 0.378672,-0.84851 0.419922,-1.19726 0.04125,-0.34875 0.08039,-0.6536 0.40039,-0.9336 0.32,-0.28 0.703907,-0.28086 1.191407,-0.25586 0.487499,0.025 1.078593,0.0765 1.808593,-0.10351 0.547051,-0.15898 1.054104,-0.41678 1.5,-0.75586 0.445897,-0.33909 0.829544,-0.75946 1.128907,-1.24414 0.234999,-0.4 0.350312,-0.77532 0.382812,-1.38282 0.0325,-0.6075 -0.01828,-1.44734 -0.113281,-2.77734 -0.165,-2.255 -0.293438,-3.58062 -0.304688,-4.42187 -0.01125,-0.84125 0.09625,-1.19758 0.40625,-1.51758 0.26,-0.27 1.308438,-0.44 3.398438,-0.75 1.415,-0.215 2.302343,-0.3268 2.933593,-0.4668 0.631251,-0.14 1.006485,-0.30953 1.396485,-0.64453 0.78,-0.67 0.61039,-1.19055 1.400391,-1.81055 0.5,-0.385 1.034453,-0.54359 1.689453,-0.58984 0.655,-0.0463 1.430156,0.0198 2.410156,0.0898 2.115,0.155 3.705,0.26813 4.875,0.26563 1.17,-0.002 1.920469,-0.11883 2.355469,-0.42383 0.67,-0.47 0.920234,-1.01492 1.208984,-1.54492 0.28875,-0.53 0.616406,-1.04508 1.441406,-1.45508 0.095,-0.05 0.541407,-0.2618 1.097656,-0.37305 0.55625,-0.11125 1.221954,-0.12234 1.751954,0.22266 0.146301,0.10096 0.280905,0.218 0.40039,0.34961 1.228951,1.25478 2.61269,2.347 4.119146,3.25 1.39731,0.89649 2.89334,1.50173 4.4707,2.01953 0.255,-0.545 0.8232,-0.73547 1.4082,-0.98047 0.2925,-0.1225 0.58914,-0.25773 0.85352,-0.45898 0.26437,-0.20125 0.4957,-0.46711 0.6582,-0.84961 0.16,-0.39 -5.5e-4,-0.42016 0.18946,-0.66016 0.16499,-0.2775 0.42773,-0.43648 0.7832,-0.52148 0.35547,-0.085 0.80383,-0.0956 1.3457,-0.0781 1.08375,0.035 2.5368,0.18485 4.3418,0.0898 1.29,-0.06 0.94086,-0.16101 4.38086,-0.54101 1.77,-0.2 3.14961,-0.24031 4.09961,-0.32031 0,0 -0.15742,-4.43844 -0.008,-5.39844 -2.25539,0.23252 -4.524,0.33275 -6.79296,0.29883 -1.6145,0.083 -3.22813,-0.0214 -4.8086,-0.30664 -1.58047,-0.28523 -3.1277,-0.75044 -4.61133,-1.39258 -2.48,-1.11 -4.84007,-2.45125 -7.330076,-3.53125 -0.78,-0.34 -1.801797,-0.60445 -2.716797,-1.00195 -0.4575,-0.19875 -0.888047,-0.42977 -1.248047,-0.72071 -0.36,-0.29093 -0.649219,-0.64117 -0.824219,-1.07617 -0.2,-0.5 -0.200703,-1.16211 -0.126953,-1.81836 0.07375,-0.65625 0.221406,-1.30625 0.316406,-1.78125 0.58,-2.87 1.369453,-5.70172 2.189453,-8.51172 0.730694,-2.32787 1.319822,-4.69357 1.765625,-7.08789 0.445804,-2.39431 0.748206,-4.81709 0.904297,-7.25195 0.07,-1.555 -0.01289,-2.9525 0.0059,-4.34375 0.01875,-1.39125 0.140234,-2.77469 0.615231,-4.30469 0.30751,-0.9775 0.70993,-1.87883 1.17383,-2.73242 0.46391,-0.85359 0.98899,-1.6593 1.53711,-2.45117 1.09625,-1.58375 2.28907,-3.10641 3.28906,-4.81641 -1,-1.72 -2.00125,-3.25031 -2.78124,-5.07031 -0.705,-1.565 -1.3661,-3.02875 -2.1836,-4.40625 -0.8175,-1.3775 -1.790235,-2.66953 -3.115235,-3.89453 -2.134465,-1.8884 -4.449016,-3.56307 -6.910156,-5 -3.89,-2.37 -8.165469,-4.25164 -11.855469,-6.71289 -1.845,-1.23063 -3.54336,-2.60649 -4.97461,-4.25977 -0.715625,-0.82664 -1.364921,-1.72279 -1.93164,-2.70508 -0.566719,-0.98228 -1.051953,-2.0514 -1.439453,-3.22265 -1,-3 -1.27,-6.07985 -2,-9.08985 -0.111442,-0.67057 -0.339812,-1.31023 -0.669922,-1.89257 -0.32997,-0.5823 -0.761038,-1.10679 -1.279157,-1.54683 -0.42,-0.2675 -0.922578,-0.39766 -1.462891,-0.43359 -0.540312,-0.0359 -1.118203,0.0226 -1.689453,0.1289 -1.1425,0.2125 -2.258281,0.62024 -2.988281,0.86524 -2.09,0.71 -4.10375,1.63484 -6.046875,2.71875 -1.943125,1.0839 -3.814688,2.32625 -5.617188,3.67187 -1.802499,1.34563 -3.536953,2.79391 -5.205078,4.28906 -1.668125,1.49516 -3.270547,3.03782 -4.810546,4.57032 -1.41,1.405 -3.036563,2.83109 -4.570313,4.33984 -1.53375,1.50875 -2.974766,3.10008 -4.009766,4.83008 -1.155,1.94 -2.070156,4.10523 -2.910156,6.30273 -0.84,2.1975 -1.603984,4.4261 -2.458984,6.4961 -0.555,1.34 -0.732891,2.82859 -0.837891,4.33984 -0.105,1.51125 -0.137344,3.04547 -0.402344,4.48047 -0.22,1.195 -0.369921,2.06539 -0.169922,2.77539 0.100001,0.355 0.287657,0.66922 0.597657,0.96484 0.31,0.29563 0.742031,0.57211 1.332031,0.84961 1.18,0.555 2.429375,1.01039 3.546875,1.65039 0.55875,0.32 1.085547,0.68664 1.552734,1.13477 0.467188,0.44812 0.876172,0.9775 1.201172,1.625 0.3875,0.7875 0.618828,1.66742 0.740235,2.5957 0.121406,0.92828 0.131953,1.9061 0.08008,2.88672 -0.10375,1.96125 -0.461172,3.93813 -0.701172,5.57813 -0.181191,1.72799 -0.521588,3.43115 -1.013672,5.08984 -0.492084,1.65869 -1.135307,3.27307 -1.925781,4.82031 -0.848581,1.47488 -1.799736,2.88596 -2.845703,4.22266 -1.045968,1.3367 -2.186513,2.59901 -3.414063,3.77734 -0.84,0.82 -1.706016,1.6425 -2.666015,2.28125 -0.480001,0.31938 -0.983282,0.59266 -1.519532,0.79688 -0.53625,0.20422 -1.104844,0.33836 -1.714844,0.38086 -0.875,0.065 -1.626093,0.0284 -2.371093,0.0684 -0.745,0.04 -1.484844,0.1582 -2.339844,0.5332 -1.775,0.8 -3.4185153,1.95156 -4.9472653,3.25781 -1.52875,1.30625 -2.9419531,2.76664 -4.2519532,4.18164 -1.08,1.185 -1.8097656,2.22157 -2.22851557,3.35157 -0.41874999,1.12999 -0.52632812,2.3532 -0.36132812,3.9082 0.11845273,1.19386 0.33383618,2.36998 0.64062499,3.51758 0.3067888,1.14759 0.7039032,2.26567 1.1894531,3.3457 0.48555,1.08003 1.0581545,2.12211 1.7128906,3.11328 0.6547362,0.99117 1.3926839,1.93149 2.2070313,2.8125 1.2611255,1.33051 2.6446729,2.51657 4.0605462,3.66602 1.415874,1.14944 2.862932,2.26328 4.25,3.44922 z"
     style="fill:none;stroke:#231f20;stroke-linecap:round;stroke-linejoin:round;stroke-opacity:1;paint-order:fill markers stroke"
     id="path891" />
  <path
     d="m 134.67281,426.50138 c -0.36275,-1.14398 -0.8158,-2.25716 -1.34375,-3.33398 -0.52794,-1.07683 -1.1314,-2.11653 -1.79687,-3.11524 -0.765,-1.14 -1.40977,-1.89016 -1.94727,-2.6289 -0.5375,-0.73875 -0.96773,-1.46751 -1.30273,-2.5625 -0.335,-1.09501 -0.31703,-1.8175 -0.33203,-2.4375 -0.015,-0.62001 -0.0624,-1.13727 -0.52735,-1.82227 -0.54,-0.8 -1.74969,-1.67945 -4.17969,-3.43945 -0.58262,-0.34102 -1.07067,-0.82267 -1.41992,-1.40039 -0.34,-0.66 -0.3407,-1.25 -0.2207,-3 0.19,-3 0.31,-3.3 0,-3.75 -0.31,-0.45 -1.24883,-0.76954 -3.04883,-1.26954 -1.165,-0.325 -1.82812,-0.44507 -2.26562,-0.54882 -0.4375,-0.10375 -0.65102,-0.19118 -0.91602,-0.45118 -0.57267,-0.58848 -0.90462,-1.3367 -0.98242,-2.10937 -0.0778,-0.77267 0.0991,-1.57088 0.54297,-2.26172 0.49,-0.6 0.89961,-0.37 1.34961,-1 0.295,-0.39 0.33765,-0.77945 0.28515,-1.37695 -0.0525,-0.5975 -0.20015,-1.40305 -0.28515,-2.62305 -0.12439,-1.0365 -0.0828,-2.08553 0.12109,-3.10937 0.2673,-0.8712 0.60163,-1.71947 1,-2.53907 0.88,-2.13 1,-2.41109 1,-2.87109 -0.065,-0.425 -0.26851,-0.78422 -0.60351,-1.13672 -0.33501,-0.3525 -0.80149,-0.69875 -1.39649,-1.09375 -3,-2 -5.00086,-2.48992 -8.13086,-4.41992 -0.97374,-0.47232 -1.77376,-1.23776 -2.28906,-2.18945 -0.26843,-0.5812 -0.39408,-1.20873 -0.37695,-1.83204 0.0171,-0.6233 0.17662,-1.24301 0.47656,-1.80859 0.29,-0.5 0.57984,-0.69117 0.90234,-0.88867 0.3225,-0.1975 0.67766,-0.39992 1.09766,-0.91992 0.31,-0.39 0.51164,-0.81469 0.68164,-1.36719 0.17,-0.5525 0.30828,-1.23281 0.48828,-2.13281 0.245,-1.215 0.30547,-1.965 0.38672,-2.5625 0.0812,-0.5975 0.18367,-1.04344 0.51367,-1.64844 0.55,-1 0.78906,-0.78047 1.28906,-1.73047 0.45,-0.86 0.47321,-1.48453 0.47071,-2.17578 -0.002,-0.69125 -0.0297,-1.44922 0.32031,-2.57422 0.4,-1.28 0.69898,-1.14 1.20898,-2.75 0.255,-0.805 0.46282,-1.46117 0.53907,-2.01367 0.0763,-0.5525 0.022,-0.99977 -0.24805,-1.38477 -0.27,-0.385 -0.73219,-0.45609 -1.24219,-0.55859 -0.51,-0.1025 -1.06734,-0.23695 -1.52734,-0.75195 -0.27987,-0.38842 -0.47631,-0.8256 -0.58008,-1.28321 -0.10377,-0.45761 -0.1162,-0.9351 -0.0312,-1.40625 0.11,-0.85 0.43,-1.07156 1,-2.35156 0.37,-0.85 0.64734,-1.48344 0.80859,-1.99219 0.16125,-0.50875 0.20633,-0.89133 0.11133,-1.23633 -0.1,-0.3525 -0.30312,-0.59406 -0.58984,-0.78906 -0.28672,-0.195 -0.65742,-0.34476 -1.0918,-0.50976 -0.86875,-0.33 -1.99375,-0.72618 -3.21875,-1.70118 -0.75,-0.585 -1.53125,-1.38578 -2.0625,-2.17578 -0.26562,-0.395 -0.46969,-0.78656 -0.57422,-1.14843 -0.10453,-0.36188 -0.10992,-0.6943 0.0176,-0.9668 -1.57736,-0.5178 -3.07339,-1.12304 -4.4707,-2.01953 -1.506456,-0.903 -2.890195,-1.99522 -4.119146,-3.25 -0.119485,-0.13161 -0.254089,-0.24865 -0.40039,-0.34961 -0.53,-0.345 -1.195704,-0.33391 -1.751954,-0.22266 -0.556249,0.11125 -1.002656,0.32305 -1.097656,0.37305 -0.825,0.41 -1.152656,0.92508 -1.441406,1.45508 -0.28875,0.53 -0.538984,1.07492 -1.208984,1.54492 -0.435,0.305 -1.185469,0.42133 -2.355469,0.42383 -1.17,0.002 -2.76,-0.11063 -4.875,-0.26563 -0.98,-0.07 -1.755156,-0.13609 -2.410156,-0.0898 -0.655,0.0462 -1.189453,0.20484 -1.689453,0.58984 -0.790001,0.62 -0.620391,1.14055 -1.400391,1.81055 -0.39,0.335 -0.765234,0.50453 -1.396485,0.64453 -0.63125,0.14 -1.518593,0.2518 -2.933593,0.4668 -2.09,0.31 -3.138438,0.48 -3.398438,0.75 -0.31,0.32 -0.4175,0.67633 -0.40625,1.51758 0.01125,0.84125 0.139688,2.16687 0.304688,4.42187 0.095,1.33 0.145781,2.16984 0.113281,2.77734 -0.0325,0.6075 -0.147813,0.98282 -0.382812,1.38282 -0.299363,0.48468 -0.68301,0.90505 -1.128907,1.24414 -0.445896,0.33908 -0.952949,0.59688 -1.5,0.75586 -0.73,0.18 -1.321094,0.12851 -1.808593,0.10351 -0.4875,-0.025 -0.871407,-0.0241 -1.191407,0.25586 -0.32,0.28 -0.35914,0.58485 -0.40039,0.9336 -0.04125,0.34875 -0.08492,0.74226 -0.419922,1.19726 -0.44,0.6 -0.801094,0.47852 -2.871094,1.47852 -1.63,0.77 -1.759844,1 -2.339844,1 -0.505,0.01 -0.920234,-0.15242 -1.333984,-0.41992 -0.41375,-0.26751 -0.826172,-0.63883 -1.326172,-1.04883 -1.52,-1.295 -2.731953,-2.32977 -3.783203,-3.00977 -0.525625,-0.34 -1.011328,-0.59156 -1.47461,-0.74219 -0.463281,-0.15062 -0.904296,-0.20117 -1.341796,-0.13867 -0.505,0.075 -0.793204,0.26758 -1.126954,0.45508 -0.333749,0.1875 -0.712343,0.37078 -1.402343,0.42578 -0.924238,0.0596 -1.847718,-0.12431 -2.679688,-0.53125 -0.74,-0.355 -1.078515,-0.73383 -1.416015,-1.17383 -0.3375,-0.44 -0.674063,-0.94015 -1.414063,-1.53515 -0.62957,-0.55468 -1.353474,-0.9798 -2.128906,-1.25977 -0.775432,-0.27997 -1.602705,-0.41517 -2.441406,-0.39062 -0.570661,-0.001 -1.129458,0.11883 -1.640625,0.34375 -0.511168,0.22491 -0.974708,0.55503 -1.359375,0.97656 -0.43,0.58 -0.463672,1.14273 -0.513672,1.70898 -0.05,0.56625 -0.117188,1.13547 -0.617188,1.73047 -0.512889,0.57861 -1.229376,0.9369 -2,1 -0.848596,-0.0405 -1.651276,-0.39727 -2.25,-1 -1.26,-0.99 -0.978906,-1.50922 -1.878906,-2.19922 -0.775,-0.56 -1.767422,-0.79656 -2.763672,-0.78906 -0.99625,0.007 -1.997109,0.25797 -2.787109,0.66797 -0.58,0.3 -0.549141,0.42117 -1.119141,0.70117 -0.671506,0.29708 -1.405446,0.44952 -2.146484,0.47461 -0.741039,0.0251 -1.490709,-0.0778 -2.19336,-0.29101 0.624447,0.53388 1.238443,1.08299 1.830079,1.65624 0.867024,0.81634 1.630327,1.71897 2.285156,2.6875 0.654828,0.96854 1.1999,2.00269 1.626953,3.08399 0.427053,1.0813 0.736224,2.20867 0.919922,3.36328 0.183698,1.15461 0.243206,2.33692 0.167969,3.52539 4.19e-4,1.98149 0.146941,3.96014 0.439453,5.91992 0.1275,1.0725 -0.08617,2.24274 -0.50586,3.44336 -0.419687,1.20063 -1.044843,2.43 -1.746093,3.625 -1.4025,2.39 -3.104063,4.63617 -4.039063,6.20117 -1.48,2.48 -2.929922,4.99993 -4.419922,7.41993 -1.008639,1.39991 -1.8985641,2.88143 -2.6601558,4.42968 -0.2325,0.625 -0.2805469,1.18047 -0.1972657,1.6836 0.083281,0.50312 0.2986719,0.955 0.5917969,1.375 0.58625,0.84 1.4853906,1.55101 2.2753906,2.29101 0.75,0.695 1.319219,1.46914 1.753906,2.29883 0.434687,0.82969 0.736328,1.71547 0.955078,2.63672 0.4375,1.8425 0.540938,3.82539 0.710938,5.77539 0.195,2.235 0.308984,4.53227 0.615234,6.79102 0.153125,1.12937 0.354141,2.24836 0.638672,3.3457 0.284531,1.09734 0.651719,2.17289 1.136719,3.21289 0.5,1.09 1.149921,2.0357 1.857422,2.93945 0.7075,0.90375 1.473124,1.76641 2.203124,2.69141 0.5,0.605 0.68961,1.42234 0.88086,2.21484 0.19125,0.7925 0.383672,1.55946 0.888672,2.06446 0.4025,0.4025 0.932031,0.51617 1.519531,0.44726 0.5875,-0.0689 1.233594,-0.32031 1.871094,-0.64844 1.275,-0.65625 2.514687,-1.61906 3.179687,-2.03906 0.829282,-0.46181 1.607269,-1.00437 2.324219,-1.61914 0.71695,-0.61477 1.372158,-1.30166 1.955078,-2.05078 2.431123,-3.02705 4.768723,-6.12678 7.009766,-9.29492 2.241042,-3.16814 4.386932,-6.40469 6.43164,-9.70508 1.37,-2.29 2.450078,-4.645 3.455079,-7.03125 1.005,-2.38625 1.933906,-4.80375 3.003906,-7.21875 0.345,-0.79 0.692422,-1.67758 1.169922,-2.45508 0.4775,-0.7775 1.086172,-1.44492 1.951172,-1.79492 0.236749,-0.34267 0.596092,-0.54184 0.974609,-0.58594 0.378516,-0.0441 0.7748,0.0666 1.083984,0.34571 0.51813,0.0433 1.00061,0.23483 1.398438,0.53711 0.397827,0.30227 0.712018,0.71554 0.892578,1.20312 0.86,1.0475 1.581875,2.17844 2.214844,3.36328 0.632968,1.18484 1.177265,2.42422 1.68164,3.6836 1.00875,2.51875 1.85836,5.1225 2.94336,7.5625 0.63,1.39999 1.565234,2.79101 2.333984,4.22851 0.384375,0.71875 0.726406,1.44953 0.96875,2.19922 0.242344,0.74969 0.384687,1.5175 0.367187,2.3125 0,0.69 -0.353671,1.84516 -0.607421,2.97266 -0.126875,0.56375 -0.228907,1.12093 -0.25,1.60937 -0.02109,0.48844 0.03883,0.90922 0.236328,1.19922 1.5,0.065 3.168203,-0.12828 4.751953,-0.0195 0.791875,0.0544 1.562656,0.18414 2.28125,0.45898 0.718594,0.27485 1.384297,0.69508 1.966797,1.33008 1.085705,1.41424 2.324493,2.70489 3.691406,3.84961 1.145646,0.51657 2.337155,0.91501 3.556641,1.19141 1.219485,0.27639 2.466242,0.43113 3.722656,0.45898 2.19,0.27 4.389844,0.45055 6.589844,0.56055 2.305,0.16 4.704376,0.2414 7.078126,0.5039 1.18688,0.13125 2.36875,0.30711 3.52734,0.56055 1.1586,0.25344 2.29454,0.58539 3.39454,1.02539 1.105,0.45 2.02726,1.06992 2.91601,1.73242 0.88875,0.6625 1.74484,1.36633 2.71484,1.98633 1.22,0.78 2.57626,1.21695 4.01172,1.43164 1.43547,0.21469 2.94946,0.20727 4.48633,0.10352 3.07375,-0.2075 6.23625,-0.80469 9.03125,-0.80469 z"
     style="fill:none;stroke:#231f20;stroke-linecap:round;stroke-linejoin:round;stroke-opacity:1;paint-order:fill markers stroke"
     id="path889" />
  <path
     d="m 194.59469,474.72599 c 1.15334,-0.71375 2.2805,-1.56547 3.21875,-2.54492 0.70859,-0.77109 1.37617,-1.57879 2,-2.41992 0.97,-1.3 1.02867,-1.63 1.63867,-2 0.81,-0.49 1.11992,-0.16063 2.66992,-0.64063 0.85659,-0.15685 1.65014,-0.55816 2.28125,-1.1582 0.39,-0.44 0.48555,-0.8286 0.56055,-1.1836 0.075,-0.355 0.12945,-0.67828 0.43945,-0.98828 0.31,-0.31 0.685,-0.39695 1.28125,-0.37695 0.59625,0.02 1.41242,0.14758 2.60742,0.26758 2.02,0.2 3.04781,0.16765 3.78906,0.16015 0.74126,-0.007 1.19727,0.0106 2.07227,0.31055 0.875,0.3 1.42695,0.61508 1.87695,0.83008 0.45,0.215 0.79672,0.33047 1.26172,0.23047 0.465,-0.1 0.72078,-0.30297 1.08203,-0.63672 0.36125,-0.33375 0.82875,-0.79883 1.71875,-1.42383 0.78151,-0.6316 1.67406,-1.11297 2.63086,-1.41992 0.62961,-0.14435 1.27195,-0.19694 1.91016,-0.1582 0.63821,0.0387 1.27137,0.16925 1.87891,0.38867 0.945,0.28 1.38531,0.57187 1.78906,0.85937 0.40375,0.2875 0.77031,0.57008 1.57031,0.83008 0.89,0.29 1.43664,0.26477 2.15039,0.19727 0.71375,-0.0675 1.59516,-0.1786 3.16016,-0.0586 1.035,0.08 1.8132,0.14063 2.4707,0.26563 0.6575,0.125 1.195,0.31625 1.75,0.65625 0.945,0.57 1.32523,1.19328 1.67773,1.76953 0.35251,0.57625 0.67672,1.10547 1.51172,1.48047 0.645,0.285 1.06758,0.24351 1.67383,0.16601 0.60625,-0.0775 1.39539,-0.19164 2.77539,-0.0566 -0.12844,-0.6212 -0.16661,-1.24804 -0.10742,-1.86328 0.0592,-0.61523 0.21684,-1.21901 0.47852,-1.79687 0.25,-0.5 0.51804,-0.82016 0.99804,-1.25391 0.48,-0.43375 1.17149,-0.98055 2.27149,-1.93555 1.1,-0.955 1.89773,-1.64812 2.45898,-2.20312 0.56125,-0.555 0.88602,-0.97196 1.04102,-1.37696 0.365,-0.955 0.24742,-1.63773 0.13867,-2.30273 -0.10875,-0.665 -0.20859,-1.31226 0.19141,-2.19727 0.3895,-0.694 0.90986,-1.29659 1.52343,-1.77929 0.61358,-0.4827 1.31974,-0.84537 2.08594,-1.06055 0.6225,-0.1775 1.17375,-0.22195 1.67188,-0.20117 0.49812,0.0208 0.94351,0.10687 1.35351,0.1875 0.41,0.0806 0.78641,0.15617 1.14453,0.1582 0.35813,0.002 0.69852,-0.0702 1.04102,-0.28515 0.175,-0.11 0.46047,-0.32836 0.73047,-1.00586 0.27,-0.6775 0.52367,-1.81367 0.63867,-3.76368 0.0925,-1.545 0.0521,-2.83164 -0.0371,-3.93164 -0.0892,-1.1 -0.2268,-2.01445 -0.32617,-2.81445 -0.0994,-0.8 -0.15969,-1.48586 -0.0977,-2.13086 0.062,-0.645 0.24758,-1.24781 0.64258,-1.88281 0.66,-1.07 1.04828,-0.84 2.73828,-3 0.98979,-1.12311 1.76691,-2.41804 2.29102,-3.82031 0.335,-1.035 0.31734,-1.69578 0.27734,-2.33203 -0.04,-0.63625 -0.10242,-1.24946 0.14258,-2.18946 0.215,-0.85 0.53312,-1.37414 1.07812,-2.02539 0.545,-0.65125 1.31641,-1.4282 2.44141,-2.7832 1.22,-1.47 2.13633,-2.57211 2.83008,-3.53711 0.69375,-0.965 1.165,-1.79289 1.5,-2.71289 0.58,-1.59 0.61078,-2.74844 0.70703,-3.77344 0.0481,-0.5125 0.1132,-0.99086 0.27148,-1.47461 0.15828,-0.48375 0.40953,-0.97195 0.83203,-1.50195 0.89,-1.11 1.22954,-0.78094 2.76954,-2.46094 0.63,-0.68 1.23468,-1.34242 1.71093,-2.07617 0.47625,-0.73375 0.82446,-1.53891 0.93946,-2.50391 0.0876,-0.55228 0.0858,-1.11104 -0.002,-1.65625 -0.0878,-0.5452 -0.26107,-1.07536 -0.51758,-1.57226 -0.57999,-1 -1.12039,-1.00047 -1.90039,-2.23047 -0.45217,-0.8338 -0.7886,-1.72573 -1,-2.65039 -0.32343,-1.05359 -0.5679,-2.13065 -0.73046,-3.2207 -0.21,-1.42001 -0.31961,-2.12985 -0.0996,-2.58985 -0.74894,-0.3322 -1.54479,-0.52878 -2.34961,-0.58203 -0.80483,-0.0532 -1.61864,0.038 -2.40039,0.2832 -0.825,0.295 -1.28086,0.69383 -1.78711,1.14258 -0.50625,0.44875 -1.06375,0.9475 -2.09375,1.4375 -1.38306,0.61959 -2.87371,0.95944 -4.38868,1 -1.96109,0.11058 -3.9297,-0.0147 -5.86132,-0.37109 -2.94,-0.4 -2.99907,-0.64 -4.78907,-0.75 -1.35,-0.09 -1.40007,0.001 -5.33007,0.29101 -2.18,0.14 -3.60774,0.19118 -4.67774,0.16992 -1.07,-0.0213 -1.7832,-0.11648 -2.5332,-0.27148 -0.88167,-0.1738 -1.7413,-0.43761 -2.56836,-0.78906 -0.72,-0.305 -1.61375,-0.68508 -2.4375,-1.23633 -0.82375,-0.55125 -1.57844,-1.27367 -2.02344,-2.26367 -0.285,-0.635 -0.31562,-1.0982 -0.35937,-1.50196 -0.0438,-0.40375 -0.10141,-0.74843 -0.44141,-1.14843 -0.34,-0.4 -0.74164,-0.61555 -1.30664,-0.74805 -0.565,-0.1325 -1.2932,-0.18195 -2.2832,-0.25195 -3.625,-0.29 -5.67485,-0.39789 -6.9336,-0.40039 -1.25875,-0.002 -1.72554,0.10047 -2.18554,0.23047 -0.67,0.19 -1.32086,0.43046 -2.63086,0.73046 -1.5,0.35 -2.44946,0.45227 -3.06446,0.44727 -0.615,-0.005 -0.89468,-0.11727 -1.05468,-0.19727 -0.89,-0.43 -0.74055,-1.00054 -1.81055,-1.56054 -0.8288,-0.41283 -1.74407,-0.62133 -2.66992,-0.60938 -1.50336,-0.12282 -3.01221,-0.15583 -4.51953,-0.0996 -8.26,0.56 -7.27055,0.86852 -9.06055,0.72852 -0.895,-0.07 -1.69484,-0.19758 -2.43359,-0.20508 -0.73875,-0.007 -1.41641,0.10563 -2.06641,0.51563 -0.84,0.53 -0.94984,1.09046 -2.08984,1.73046 -0.45973,0.30454 -0.96606,0.52345 -1.49415,0.65039 -0.52808,0.12695 -1.07708,0.16193 -1.625,0.0996 -0.68999,-0.14 -1.08312,-0.49031 -1.51562,-0.97656 -0.4325,-0.48625 -0.90586,-1.10797 -1.75586,-1.79297 -1.07006,-0.89421 -2.33274,-1.5291 -3.68945,-1.85156 -0.75,-0.1 -1.3636,0.0791 -1.9375,0.44336 -0.57391,0.36422 -1.1086,0.91367 -1.69922,1.56055 -0.59063,0.64687 -1.23695,1.3907 -2.03711,2.13867 -0.80016,0.74797 -1.75258,1.50047 -2.95508,2.16797 -0.98,0.545 -2.07906,1.00492 -3.22266,1.35351 -1.14359,0.3486 -2.33281,0.58617 -3.49218,0.68555 -1.15938,0.0994 -2.28906,0.0601 -3.31641,-0.14258 -1.02734,-0.20265 -1.95172,-0.56945 -2.69922,-1.12695 -0.58353,-0.55717 -1.26051,-1.00745 -2,-1.33008 -0.6025,-0.235 -1.14906,-0.31781 -1.65625,-0.32422 -0.50718,-0.006 -0.97562,0.0649 -1.42187,0.13672 -0.44625,0.0719 -0.86938,0.14469 -1.28907,0.14453 -0.41968,-1.5e-4 -0.83617,-0.0744 -1.26367,-0.29687 -0.59,-0.3 -0.51992,-0.54008 -2.16992,-3.33008 -0.825,-1.395 -1.43265,-2.41992 -1.94141,-3.16992 -0.50875,-0.75 -0.91765,-1.22453 -1.34765,-1.51953 -0.86,-0.59 -1.43047,-0.54055 -3.48047,-1.81055 -1.19,-0.74 -1.60914,-1.12945 -1.86914,-1.68945 -0.09,-0.2 -0.27039,-0.62914 -0.15039,-2.61915 0.13,-2.18999 0.39039,-2.39031 0.15039,-3.07031 -0.22696,-0.46432 -0.53301,-0.88027 -0.90039,-1.23242 -0.36738,-0.35215 -0.79602,-0.64056 -1.26953,-0.84766 -0.89,-0.53 -1.47078,-0.66046 -1.95703,-0.76171 -0.48625,-0.10125 -0.87954,-0.17289 -1.39453,-0.5879 -0.43501,-0.3525 -0.75516,-0.78593 -0.99219,-1.24218 -0.23703,-0.45625 -0.39016,-0.93586 -0.48828,-1.38086 -0.19625,-0.89 -0.17297,-1.64188 -0.16797,-1.79688 0,-1.05 0.3389,-1.00008 0.8789,-3.08008 0.335,-1.27999 0.58469,-2.24039 0.67969,-3.02539 0.095,-0.785 0.035,-1.3946 -0.25,-1.97461 -0.62031,-0.86047 -1.3165,-1.66408 -2.08008,-2.40039 -1,-1.07 -0.94961,-0.94992 -1.09961,-1.16992 -0.36531,-0.71885 -0.57944,-1.49652 -0.64062,-2.28515 -0.0612,-0.78864 0.0312,-1.58887 0.28125,-2.35547 0.32,-1.16 0.58992,-0.99946 0.91992,-2.18946 0.27734,-1.28858 0.31714,-2.61679 0.11914,-3.91992 -0.145,-2.195 -0.31461,-3.47289 -0.47461,-4.24414 -0.16,-0.77125 -0.30906,-1.03703 -0.41406,-1.20703 -0.48972,-0.79622 -1.14434,-1.47821 -1.91992,-2 -0.44,-0.32 -1.16055,-0.74906 -4.31055,-1.53906 -1.7335,-0.32496 -3.43392,-0.80639 -5.08008,-1.43946 -0.90364,-0.33674 -1.82478,-0.62516 -2.75976,-0.86132 -0.95,0.08 -2.32961,0.12031 -4.09961,0.32031 -3.44,0.38 -3.09086,0.48101 -4.38086,0.54101 -1.805,0.095 -3.25805,-0.0548 -4.3418,-0.0898 -0.54187,-0.0175 -0.99023,-0.007 -1.3457,0.0781 -0.35547,0.085 -0.61821,0.24398 -0.7832,0.52148 -0.19001,0.24 -0.0295,0.27016 -0.18946,0.66016 -0.1625,0.3825 -0.39383,0.64836 -0.6582,0.84961 -0.26438,0.20125 -0.56102,0.33648 -0.85352,0.45898 -0.585,0.245 -1.1532,0.43547 -1.4082,0.98047 -0.1275,0.2725 -0.12211,0.60492 -0.0176,0.9668 0.10453,0.36187 0.3086,0.75343 0.57422,1.14843 0.53125,0.79 1.3125,1.59078 2.0625,2.17578 1.225,0.975 2.35,1.37118 3.21875,1.70118 0.43438,0.165 0.80508,0.31476 1.0918,0.50976 0.28672,0.195 0.48984,0.43656 0.58984,0.78906 0.095,0.345 0.0499,0.72758 -0.11133,1.23633 -0.16125,0.50875 -0.43859,1.14219 -0.80859,1.99219 -0.57,1.28 -0.89,1.50156 -1,2.35156 -0.0849,0.47115 -0.0725,0.94864 0.0312,1.40625 0.10377,0.45761 0.30021,0.89479 0.58008,1.28321 0.46,0.515 1.01734,0.64945 1.52734,0.75195 0.51,0.1025 0.97219,0.17359 1.24219,0.55859 0.27,0.385 0.3243,0.83227 0.24805,1.38477 -0.0763,0.5525 -0.28407,1.20867 -0.53907,2.01367 -0.51,1.61 -0.80898,1.47 -1.20898,2.75 -0.35,1.125 -0.32281,1.88297 -0.32031,2.57422 0.002,0.69125 -0.0207,1.31578 -0.47071,2.17578 -0.5,0.95 -0.73906,0.73047 -1.28906,1.73047 -0.33,0.605 -0.43242,1.05094 -0.51367,1.64844 -0.0812,0.5975 -0.14172,1.3475 -0.38672,2.5625 -0.18,0.9 -0.31828,1.58031 -0.48828,2.13281 -0.17,0.5525 -0.37164,0.97719 -0.68164,1.36719 -0.42,0.52 -0.77516,0.72242 -1.09766,0.91992 -0.3225,0.1975 -0.61234,0.38867 -0.90234,0.88867 -0.29994,0.56558 -0.45944,1.18529 -0.47656,1.80859 -0.0171,0.62331 0.10852,1.25084 0.37695,1.83204 0.5153,0.95169 1.31532,1.71713 2.28906,2.18945 3.13,1.93 5.13086,2.41992 8.13086,4.41992 0.595,0.395 1.06148,0.74125 1.39649,1.09375 0.335,0.3525 0.53851,0.71172 0.60351,1.13672 0,0.46 -0.12,0.74109 -1,2.87109 -0.39837,0.8196 -0.7327,1.66787 -1,2.53907 -0.2039,1.02384 -0.24548,2.07287 -0.12109,3.10937 0.085,1.22 0.23265,2.02555 0.28515,2.62305 0.0525,0.5975 0.01,0.98695 -0.28515,1.37695 -0.45,0.63 -0.85961,0.4 -1.34961,1 -0.44387,0.69084 -0.62077,1.48905 -0.54297,2.26172 0.0778,0.77267 0.40975,1.52089 0.98242,2.10937 0.265,0.26 0.47852,0.34743 0.91602,0.45118 0.4375,0.10375 1.10062,0.22382 2.26562,0.54882 1.8,0.5 2.73883,0.81954 3.04883,1.26954 0.31,0.45 0.19,0.75 0,3.75 -0.12,1.75 -0.1193,2.34 0.2207,3 0.34925,0.57772 0.8373,1.05937 1.41992,1.40039 2.43,1.76 3.63969,2.63945 4.17969,3.43945 0.465,0.685 0.51235,1.20226 0.52735,1.82227 0.015,0.62 -0.003,1.34249 0.33203,2.4375 0.335,1.09499 0.76523,1.82375 1.30273,2.5625 0.5375,0.73874 1.18227,1.4889 1.94727,2.6289 0.66547,0.99871 1.26893,2.03841 1.79687,3.11524 0.52795,1.07682 0.981,2.19 1.34375,3.33398 1.25831,-0.0743 2.51368,0.0439 3.72266,0.3457 1.20898,0.30183 2.3715,0.7864 3.44726,1.44336 1.58737,1.12658 3.25896,2.12954 5,3 1.34,0.535 2.73266,0.92391 4.14844,1.2461 1.41578,0.32218 2.85399,0.57781 4.28711,0.85156 1.43313,0.27375 2.86188,0.56539 4.25391,0.95508 1.39203,0.38968 2.74851,0.87883 4.04101,1.54882 1.075,0.55501 2.02688,1.12133 2.73438,1.86133 0.35375,0.37 0.64734,0.78352 0.86328,1.25977 0.21594,0.47625 0.35484,1.01617 0.40234,1.63867 0.065,1.075 -0.0924,2.15672 -0.32617,3.23047 -0.23375,1.07375 -0.5432,2.13969 -0.7832,3.17969 -0.48,2.08 -0.81141,3.93961 -1.44141,5.84961 -0.45,1.36 -1.08937,2.57476 -1.79687,3.75976 -0.7075,1.185 -1.48313,2.34008 -2.20313,3.58008 -0.43,0.76 -1.06633,1.59477 -1.54883,2.47852 -0.24125,0.44187 -0.44406,0.8964 -0.5625,1.35937 -0.11843,0.46297 -0.15359,0.93461 -0.0586,1.41211 0.125,0.615 0.48023,1.0982 0.92773,1.50195 0.4475,0.40375 0.98743,0.72735 1.48243,1.02735 2.4446,0.74734 4.96211,1.23151 7.50976,1.4414 l 6.46094,0.83985 c 3.01826,0.44752 6.01685,1.00476 8.99219,1.67187 2.97533,0.66712 5.92726,1.44411 8.84765,2.32813 0.56992,0.16247 1.08572,0.28179 1.52149,0.41406 z"
     style="fill:none;stroke:#231f20;stroke-linecap:round;stroke-linejoin:round;stroke-opacity:1;paint-order:fill markers stroke"
     id="path887" />
  <path
     d="m 357.22945,574.47013 -9.78711,-3.22852 c -2.74,-0.89 -4.80484,-1.55687 -6.40234,-1.98437 -1.5975,-0.4275 -2.72766,-0.61492 -3.59766,-0.54492 -0.87,0.07 -1.64179,0.21453 -2.31054,0.23828 -0.66875,0.0238 -1.23446,-0.0733 -1.68946,-0.48828 -0.29,-0.27 -0.46015,-0.6025 -0.53515,-1.40625 -0.075,-0.80375 -0.0548,-2.07938 0.0352,-4.23438 0.07,-1.845 0.13805,-2.94453 0.12305,-3.70703 -0.015,-0.7625 -0.11305,-1.18859 -0.37305,-1.68359 -0.26,-0.495 -0.62734,-0.89438 -1.15234,-1.29688 -0.525,-0.4025 -1.20766,-0.8075 -2.09766,-1.3125 -2,-1.14 -3.47375,-1.58875 -4.5625,-1.96875 -0.54437,-0.19 -0.99273,-0.36133 -1.36133,-0.5957 -0.36859,-0.23438 -0.65726,-0.5318 -0.88476,-0.9668 -0.22,-0.43 -0.20992,-1.62 -0.16992,-4 0.03,-1.855 0.1139,-2.8932 0.1289,-3.56445 0.015,-0.67125 -0.0391,-0.97547 -0.28906,-1.35547 -0.2225,-0.335 -0.46992,-0.53437 -0.75195,-0.67187 -0.28203,-0.1375 -0.60031,-0.21243 -0.96094,-0.29493 -0.72125,-0.165 -1.61758,-0.36211 -2.76758,-1.16211 -0.91,-0.64 -1.29695,-1.18461 -1.68945,-1.69335 -0.3925,-0.50875 -0.7907,-0.98157 -1.7207,-1.47657 -1.08941,-0.56063 -2.27885,-0.90047 -3.5,-1 -1.26159,-0.0729 -2.52655,-0.0254 -3.7793,0.14063 -1.55,0.07 -2.71539,0.12211 -3.61914,0.0684 -0.90375,-0.0538 -1.54578,-0.21336 -2.05078,-0.56836 -0.725,-0.5 -0.94367,-1.08922 -1.16992,-1.66797 -0.22625,-0.57875 -0.46071,-1.14828 -1.22071,-1.61328 -0.365,-0.23 -0.83992,-0.34555 -1.51367,-0.4043 -0.67375,-0.0588 -1.54703,-0.0594 -2.70703,-0.0644 -1.43258,0.12706 -2.87548,0.0313 -4.2793,-0.28125 -0.55608,-0.10142 -1.08514,-0.32017 -1.55078,-0.64063 -0.2675,-0.2325 -0.45242,-0.50812 -0.57617,-0.85156 -0.12375,-0.34344 -0.18649,-0.75461 -0.20898,-1.25586 -0.045,-1.0025 0.0708,-2.36625 0.17578,-4.28125 0.125,-2.32 0.14078,-3.63289 0.082,-4.43164 -0.0587,-0.79875 -0.19133,-1.08461 -0.36133,-1.34961 -0.5,-0.75 -1.20109,-1.2368 -1.99609,-1.5918 -0.795,-0.355 -1.68446,-0.57687 -2.56446,-0.79687 -1.295,-0.32 -2.08742,-0.31969 -2.91992,-0.30469 -0.8325,0.015 -1.70516,0.0452 -3.16016,-0.21484 -1.14,-0.215 -2.19234,-0.41414 -3.08984,-0.74414 -0.8975,-0.33 -1.64016,-0.79211 -2.16016,-1.53711 -0.165,-0.24 -0.34562,-0.56024 -0.42187,-1.42774 -0.0762,-0.8675 -0.0488,-2.28289 0.20117,-4.71289 0.32,-3.21 0.82141,-6.09859 0.94141,-6.80859 0.27,-1.55 0.48945,-2.63563 0.62695,-3.60938 0.1375,-0.97375 0.19281,-1.8364 0.13281,-2.9414 -0.05,-0.91 -0.0936,-1.62055 -0.21484,-2.2168 -0.12125,-0.59625 -0.32055,-1.0782 -0.68555,-1.5332 -0.325,-0.4075 -0.68398,-0.67649 -1.05273,-0.87696 -0.36875,-0.20046 -0.74828,-0.33156 -1.11328,-0.46093 -0.365,-0.12938 -0.71555,-0.25696 -1.0293,-0.45118 -0.31375,-0.19421 -0.58969,-0.45656 -0.80469,-0.85156 -0.31,-0.55 -0.12,-0.66922 -0.25,-3.44922 0.0251,-1.2912 -0.12746,-2.57985 -0.45117,-3.83007 -0.24383,-0.64269 -0.57984,-1.24172 -0.99609,-1.7793 -0.41625,-0.53759 -0.91149,-1.01318 -1.47266,-1.41016 -0.5575,-0.3875 -1.0625,-0.60117 -1.53125,-0.72461 -0.46875,-0.12343 -0.90086,-0.15679 -1.31836,-0.18554 -0.4175,-0.0288 -0.8189,-0.0528 -1.22266,-0.15625 -0.40375,-0.10344 -0.81078,-0.28727 -1.23828,-0.63477 -0.3825,-0.3125 -0.61742,-0.62172 -0.7832,-0.94141 -0.16578,-0.31968 -0.26156,-0.64929 -0.36719,-0.99804 -0.21125,-0.6975 -0.45914,-1.47492 -1.36914,-2.41992 -0.54939,-0.52034 -1.15335,-0.97501 -1.80078,-1.35743 -0.64743,-0.38242 -1.3377,-0.69188 -2.05859,-0.92187 -1.25896,-0.48099 -2.57978,-0.78734 -3.92188,-0.91016 -1.38,-0.135 -2.16914,-0.0209 -2.77539,0.0566 -0.60625,0.0775 -1.02883,0.11899 -1.67383,-0.16601 -0.835,-0.375 -1.15921,-0.90422 -1.51172,-1.48047 -0.3525,-0.57625 -0.73273,-1.19953 -1.67773,-1.76953 -0.555,-0.34 -1.0925,-0.53125 -1.75,-0.65625 -0.6575,-0.125 -1.4357,-0.18563 -2.4707,-0.26563 -1.565,-0.12 -2.44641,-0.009 -3.16016,0.0586 -0.71375,0.0675 -1.26039,0.0927 -2.15039,-0.19727 -0.8,-0.26 -1.16656,-0.54258 -1.57031,-0.83008 -0.40375,-0.2875 -0.84406,-0.57937 -1.78906,-0.85937 -0.60754,-0.21942 -1.2407,-0.34994 -1.87891,-0.38867 -0.63821,-0.0387 -1.28055,0.0138 -1.91016,0.1582 -0.9568,0.30695 -1.84935,0.78832 -2.63086,1.41992 -0.89,0.625 -1.3575,1.09008 -1.71875,1.42383 -0.36125,0.33375 -0.61703,0.53672 -1.08203,0.63672 -0.465,0.1 -0.81172,-0.0155 -1.26172,-0.23047 -0.45,-0.215 -1.00195,-0.53008 -1.87695,-0.83008 -0.875,-0.3 -1.33101,-0.31805 -2.07227,-0.31055 -0.74125,0.007 -1.76906,0.0399 -3.78906,-0.16015 -1.195,-0.12 -2.01117,-0.24758 -2.60742,-0.26758 -0.59625,-0.02 -0.97125,0.067 -1.28125,0.37695 -0.31,0.31 -0.36445,0.63328 -0.43945,0.98828 -0.075,0.355 -0.17055,0.7436 -0.56055,1.1836 -0.63111,0.60004 -1.42466,1.00135 -2.28125,1.1582 -1.55,0.48 -1.85992,0.15063 -2.66992,0.64063 -0.61,0.37 -0.66867,0.7 -1.63867,2 -0.62383,0.84113 -1.29141,1.64883 -2,2.41992 -0.93825,0.97945 -2.06541,1.83117 -3.21875,2.54492 0.62702,0.19031 1.08875,0.40655 1.30468,0.81836 0.21594,0.41181 0.18649,1.01786 -0.16601,1.98633 -0.92576,2.48894 -1.62435,5.05236 -2.08789,7.65625 -0.46355,2.60388 -0.69158,5.24877 -0.68164,7.90429 0,1.775 0.24875,3.49774 0.53125,5.20899 0.2825,1.71125 0.59851,3.41062 0.72851,5.14062 0.23935,2.02397 0.30858,4.06397 0.20899,6.09961 0.93,0.27334 1.81119,0.23982 2.64453,-0.10351 0.83333,-0.34334 1.6188,-0.99508 2.35547,-1.95508 l 6.15039,-4.37109 c 4.83,-3.52 9.55015,-7.11008 14.41015,-10.58008 0.965,-0.695 2.25993,-2.1286 3.63868,-3.1836 0.68937,-0.5275 1.39914,-0.9607 2.09961,-1.1582 0.70046,-0.1975 1.39101,-0.16055 2.04101,0.25195 0.65,0.4125 1.14305,1.00399 1.51758,1.69727 0.37453,0.69328 0.63102,1.48937 0.80664,2.3125 0.35125,1.64625 0.38148,3.40016 0.39648,4.66016 0.05,3.16999 -0.24961,6.39789 -0.41211,9.61914 -0.0812,1.61062 -0.12851,3.22078 -0.0801,4.82031 0.0484,1.59953 0.19218,3.18922 0.49218,4.76172 0.275,1.39 0.5243,2.53476 1.0293,3.50976 0.2525,0.4875 0.56938,0.93188 0.98438,1.34375 0.415,0.41188 0.92867,0.79149 1.57617,1.14649 l 2.83008,1 c 0.96937,1.1056 1.70716,2.39339 2.16992,3.78906 0.675,1.55 1.29148,3.15883 2.11523,4.61133 0.41188,0.72625 0.87586,1.41297 1.42383,2.03515 0.54797,0.62219 1.18164,1.17954 1.93164,1.64453 1.055,0.655 1.94578,1.23657 2.70703,1.94532 0.76125,0.70875 1.39188,1.54312 1.92188,2.70312 0.395,0.86 0.81687,1.81102 1.10937,2.79102 0.2925,0.98 0.45508,1.9907 0.33008,2.9707 -0.08,0.6175 -0.27258,1.12813 -0.54883,1.5625 -0.27625,0.43438 -0.63492,0.79102 -1.04492,1.10352 -0.82,0.625 -1.84617,1.06726 -2.82617,1.57226 -2.45342,1.06671 -4.9505,2.02498 -7.48633,2.86914 -2.53583,0.84417 -5.10964,1.57478 -7.71289,2.19141 l -6.83984,0.91992 c -1.19,0.015 -2.37789,-0.15141 -3.55664,-0.43359 -1.17875,-0.28219 -2.34836,-0.68016 -3.50586,-1.12891 -2.315,-0.8975 -4.57805,-1.99734 -6.74805,-2.77734 -2.88,-1.035 -5.89219,-2.25047 -8.96094,-3.04297 -1.53437,-0.39625 -3.0818,-0.68524 -4.63476,-0.79492 -1.55297,-0.10969 -3.11157,-0.0384 -4.66407,0.28906 -1.43,0.305 -3.26054,0.61641 -4.87304,1.25391 -0.80625,0.31875 -1.55743,0.71929 -2.17774,1.24023 -0.62031,0.52094 -1.10867,1.16234 -1.38867,1.96484 -0.3675,1.0525 -0.51851,2.16446 -0.50195,3.29493 0.0166,1.13046 0.20125,2.27937 0.5,3.40625 0.29875,1.12687 0.71234,2.23171 1.1914,3.27343 0.47907,1.04172 1.02258,2.02149 1.58008,2.89649 1.02395,1.66053 2.18889,3.22359 3.48047,4.67578 1.29158,1.45219 2.71051,2.79321 4.24023,4.0039 0.80001,0.59 1.64352,0.91376 2.50977,1.1875 0.86625,0.27375 1.75367,0.49782 2.63867,0.88282 0.74711,0.31544 1.45174,0.71696 2.09961,1.19531 0.64787,0.47835 1.24032,1.03315 1.76172,1.6543 0.665,0.775 1.20227,1.56625 1.79102,2.3125 0.58875,0.74625 1.22765,1.44711 2.09765,2.03711 1,0.675 2.1675,1.07062 3.42578,1.28125 1.25829,0.21062 2.60899,0.23546 3.97461,0.16797 2.73125,-0.13501 5.52625,-0.63954 7.78125,-0.76954 2.63754,-0.24073 5.28369,-0.15796 7.88282,0.23828 2.59912,0.39625 5.14972,1.10536 7.5957,2.1211 2.445,1.045 4.72578,2.28164 7.01953,3.49414 2.29375,1.2125 4.60156,2.40242 7.10156,3.35742 2.035,0.775 3.94438,1.42133 5.64063,2.36133 0.84812,0.47 1.64289,1.01289 2.37304,1.68164 0.73016,0.66875 1.39633,1.46305 1.98633,2.43555 0.92,1.5 1.44242,3.17257 1.98242,4.83008 0.54,1.6575 1.09789,3.30023 2.08789,4.74023 0.62001,0.905 1.09454,1.57703 1.39454,2.33203 0.3,0.755 0.4257,1.59313 0.3457,2.82813 -0.065,0.97 -0.35281,1.97062 -0.41406,2.92187 -0.0306,0.47563 -0.006,0.93945 0.13281,1.38086 0.13859,0.44141 0.39055,0.86055 0.81055,1.24805 0.84,0.775 1.94242,1.39242 3.10742,1.91992 1.165,0.5275 2.39242,0.96391 3.48242,1.37891 2.00045,0.72564 3.95179,1.57387 5.84375,2.53906 1.89196,0.96518 3.72461,2.04856 5.48633,3.24218 l 3.24023,0.75 c 1.32476,0.98498 2.7325,1.8515 4.20899,2.58985 0.93066,0.38607 1.8837,0.71993 2.85156,1 0.6516,0.25293 1.25793,0.60614 1.79883,1.04883 0.69003,0.40411 1.40189,0.77285 2.13086,1.10156 1.025,0.6675 1.73906,1.53641 2.25,2.53125 0.51093,0.99484 0.81859,2.11492 1.02734,3.2793 0.4175,2.32875 0.44188,4.83843 0.92188,6.89843 0.0688,0.76095 0.27492,1.50249 0.60937,2.18946 0.33777,0.35742 0.74921,0.62976 1.19727,0.80078 0.44805,0.17101 0.93381,0.24069 1.42382,0.19922 0.675,0 1.44735,-0.0977 2.21485,-0.14649 0.7675,-0.0487 1.53054,-0.0485 2.18554,0.14649 0.73001,0.225 1.34274,0.84093 1.89649,1.52343 0.55375,0.6825 1.04797,1.43274 1.54297,1.92774 0.84298,0.96493 1.91538,1.69974 3.11914,2.13867 0.87158,0.18219 1.71718,0.47891 2.51172,0.88086 z"
     style="fill:none;stroke:#231f20;stroke-linecap:round;stroke-linejoin:round;stroke-opacity:1;paint-order:fill markers stroke"
     id="path885" />
  <path
     d="m 378.60641,461.71818 c -1.64131,0.51258 -3.07152,1.24287 -4.52344,2.16406 -0.92,0.585 -1.82172,1.1582 -2.63672,1.8457 -0.815,0.6875 -1.54328,1.48844 -2.11328,2.52344 -0.71,1.26 -0.83571,2.23219 -0.9707,3.05469 -0.0675,0.41125 -0.13633,0.78523 -0.28321,1.13867 -0.14687,0.35344 -0.37109,0.68758 -0.74609,1.01758 -0.605,0.565 -1.34485,0.84703 -2.08985,0.98828 -0.745,0.14125 -1.49609,0.14062 -2.12109,0.14062 -0.915,0.01 -1.54883,-0.10164 -2.20508,-0.27539 -0.65625,-0.17375 -1.33398,-0.40953 -2.33398,-0.64453 -1.08,-0.25 -2.81461,-0.65758 -4.53711,-0.73633 -0.86125,-0.0394 -1.72063,0.004 -2.49219,0.18946 -0.77156,0.18578 -1.4557,0.51437 -1.9707,1.04687 -0.475,0.495 -0.57016,0.92344 -0.69141,1.39844 -0.12125,0.475 -0.26961,0.99664 -0.84961,1.68164 -0.622,0.66413 -1.35484,1.20185 -2.16015,1.5918 -0.80532,0.38994 -1.68311,0.63289 -2.58985,0.70898 -0.965,0.08 -1.61945,-0.0641 -2.62695,-0.46289 -1.0075,-0.39875 -2.36719,-1.05305 -4.74219,-1.99805 -2.555,-1.02 -4.07984,-1.49718 -5.05859,-1.67968 -0.97875,-0.1825 -1.41125,-0.0702 -1.78125,0.0898 -0.59,0.285 -1.04211,0.71562 -1.50586,1.35938 -0.46375,0.64379 -0.93922,1.50066 -1.57422,2.64066 -0.785,1.42 -1.08555,2.33344 -1.3418,2.99219 -0.25625,0.65875 -0.46812,1.06375 -1.07812,1.46875 -0.61,0.405 -1.11727,0.41726 -1.88477,0.32226 -0.7675,-0.095 -1.79531,-0.29726 -3.44531,-0.32226 -1.335,-0.02 -2.67305,-0.0419 -3.8418,0.14062 -0.58437,0.0913 -1.12687,0.23336 -1.60547,0.45117 -0.47859,0.21782 -0.89265,0.51321 -1.22265,0.90821 -0.49,0.585 -0.53953,1.10062 -0.61328,1.73437 -0.0737,0.63375 -0.17086,1.38555 -0.75586,2.43555 -0.15,0.265 -0.56547,0.95344 -1.13672,1.58594 -0.28563,0.31625 -0.61078,0.61851 -0.96094,0.8457 -0.35015,0.22719 -0.72578,0.38094 -1.11328,0.39844 -0.3875,0.0175 -0.69641,-0.0893 -0.97266,-0.2793 -0.27625,-0.19 -0.51929,-0.46375 -0.77929,-0.78125 -0.52,-0.635 -1.10391,-1.44633 -2.12891,-2.11133 -0.5125,-0.3325 -0.97969,-0.5289 -1.51562,-0.63672 -0.53594,-0.10781 -1.14008,-0.12586 -1.92383,-0.0996 -1.5675,0.0525 -3.85477,0.28313 -7.75977,0.32813 -4.1,0.04 -4.21992,-0.18087 -5.91992,0.11913 -1.26575,0.25718 -2.5104,0.5994 -3.72656,1.02539 -1.21617,0.42599 -2.40316,0.93654 -3.55274,1.52539 -2.1,0.98 -3.8,1.92891 -5,2.62891 0.06,1.105 0.005,1.96765 -0.13281,2.9414 -0.1375,0.97375 -0.35695,2.05938 -0.62695,3.60938 -0.12,0.71 -0.62141,3.59859 -0.94141,6.80859 -0.25,2.43 -0.27742,3.84539 -0.20117,4.71289 0.0763,0.8675 0.25687,1.18774 0.42187,1.42774 0.52,0.745 1.26266,1.20711 2.16016,1.53711 0.8975,0.33 1.94984,0.52914 3.08984,0.74414 1.455,0.26 2.32766,0.22984 3.16016,0.21484 0.8325,-0.015 1.62492,-0.0153 2.91992,0.30469 0.88,0.22 1.76946,0.44187 2.56446,0.79687 0.795,0.355 1.49609,0.8418 1.99609,1.5918 0.17,0.265 0.30258,0.55086 0.36133,1.34961 0.0588,0.79875 0.043,2.11164 -0.082,4.43164 -0.105,1.915 -0.22078,3.27875 -0.17578,4.28125 0.0225,0.50125 0.0852,0.91242 0.20898,1.25586 0.12375,0.34344 0.30867,0.61906 0.57617,0.85156 0.46564,0.32046 0.9947,0.53921 1.55078,0.64063 1.40382,0.3126 2.84672,0.40831 4.2793,0.28125 1.16,0.005 2.03328,0.006 2.70703,0.0644 0.67375,0.0588 1.14867,0.1743 1.51367,0.4043 0.76,0.465 0.99446,1.03453 1.22071,1.61328 0.22625,0.57875 0.44492,1.16797 1.16992,1.66797 0.505,0.355 1.14703,0.51461 2.05078,0.56836 0.90375,0.0537 2.06914,0.002 3.61914,-0.0684 1.25275,-0.166 2.51771,-0.21353 3.7793,-0.14063 1.22115,0.0995 2.41059,0.43937 3.5,1 0.93,0.495 1.3282,0.96782 1.7207,1.47657 0.3925,0.50874 0.77945,1.05335 1.68945,1.69335 1.15,0.8 2.04633,0.99711 2.76758,1.16211 0.36063,0.0825 0.67891,0.15743 0.96094,0.29493 0.28203,0.1375 0.52945,0.33687 0.75195,0.67187 0.25,0.38 0.30406,0.68422 0.28906,1.35547 -0.015,0.67125 -0.0989,1.70945 -0.1289,3.56445 -0.04,2.38 -0.0501,3.57 0.16992,4 0.2275,0.435 0.51617,0.73242 0.88476,0.9668 0.3686,0.23437 0.81696,0.4057 1.36133,0.5957 1.08875,0.38 2.5625,0.82875 4.5625,1.96875 0.89,0.505 1.57266,0.91 2.09766,1.3125 0.525,0.4025 0.89234,0.80188 1.15234,1.29688 0.26,0.495 0.35805,0.92109 0.37305,1.68359 0.015,0.7625 -0.053,1.86203 -0.12305,3.70703 -0.09,2.155 -0.11015,3.43063 -0.0352,4.23438 0.075,0.80375 0.24515,1.13625 0.53515,1.40625 0.455,0.415 1.02071,0.51203 1.68946,0.48828 0.66875,-0.0237 1.44054,-0.16828 2.31054,-0.23828 0.87,-0.07 2.00016,0.11742 3.59766,0.54492 1.5975,0.4275 3.66234,1.09437 6.40234,1.98437 l 9.78711,3.22852 26.20313,-60.76953 z"
     style="fill:none;stroke:#231f20;stroke-linecap:round;stroke-linejoin:round;stroke-opacity:1;paint-order:fill markers stroke"
     id="path883" />
  <path
     d="m 364.55367,310.33146 c -1.71806,-0.42566 -3.38081,-1.05251 -4.95117,-1.86914 -0.9,-0.475 -1.47211,-0.86008 -1.94336,-1.11133 -0.47125,-0.25125 -0.84094,-0.37055 -1.33594,-0.31055 -0.4225,0.0525 -0.7407,0.21344 -1.01367,0.4336 -0.27297,0.22015 -0.50086,0.50125 -0.74023,0.79687 -0.23938,0.29563 -0.49078,0.60586 -0.8125,0.88477 -0.32172,0.2789 -0.71438,0.52531 -1.23438,0.69531 -0.69124,0.21063 -1.41204,0.26051 -2.10937,0.15625 -0.69734,-0.10426 -1.3713,-0.36203 -1.97071,-0.76563 -0.57,-0.415 -0.78523,-0.82234 -0.99023,-1.21484 -0.205,-0.3925 -0.39969,-0.77 -0.92969,-1.125 -0.455,-0.3 -0.88258,-0.4 -1.51758,-0.40625 -0.635,-0.006 -1.47672,0.0813 -2.76172,0.15625 -1.67,0.095 -2.92,0.16461 -3.84375,0.13086 -0.92375,-0.0337 -1.52171,-0.17219 -1.88671,-0.49219 -0.2975,-0.27 -0.45454,-0.56547 -0.54297,-0.88281 -0.0884,-0.31734 -0.10711,-0.65484 -0.13086,-1.01172 -0.0238,-0.35687 -0.0528,-0.7325 -0.15625,-1.12109 -0.10344,-0.3886 -0.28188,-0.79063 -0.60938,-1.20313 -0.565,-0.715 -1.32804,-1.15093 -2.09179,-1.42969 -0.76375,-0.27875 -1.52766,-0.40023 -2.09766,-0.49023 -1.535,-0.245 -2.61281,-0.0404 -3.47656,0.0996 -0.43188,0.07 -0.81055,0.12453 -1.16602,0.0977 -0.35547,-0.0269 -0.68734,-0.13422 -1.02734,-0.38672 -0.5,-0.39 -0.63531,-0.82297 -0.82032,-1.32422 -0.185,-0.50125 -0.42109,-1.07133 -1.12109,-1.73633 -0.80738,-0.72902 -1.77795,-1.25495 -2.83008,-1.53125 -1,-0.29 -1.60687,-0.26414 -2.14062,-0.24414 -0.53375,0.02 -0.99422,0.0346 -1.69922,-0.27539 -0.805,-0.36 -1.15211,-0.80766 -1.47461,-1.22266 -0.3225,-0.415 -0.61922,-0.79734 -1.32422,-1.02734 -0.47,-0.155 -0.78625,-0.1325 -1.34375,0 -0.5575,0.1325 -1.35687,0.37516 -2.79687,0.66016 -2.88,0.57 -2.90071,0.26929 -4.22071,0.77929 -1.74,0.67 -1.49867,1.16063 -3.38867,1.89063 -1.31609,0.46235 -2.69551,0.71846 -4.08984,0.75976 -0.84,0.075 -1.37352,0.0765 -1.72852,0.0215 -0.355,-0.055 -0.53211,-0.16555 -0.66211,-0.31055 0.105,1.265 0.2893,2.09281 0.5293,2.63281 0.24,0.54 0.53633,0.79125 0.86133,0.90625 0.325,0.115 0.68172,0.0679 1.04297,0.0566 0.36125,-0.0112 0.7264,0.0134 1.0664,0.27344 0.2723,0.23739 0.46785,0.55123 0.56055,0.90039 0.35504,1.56018 0.38867,3.17626 0.0996,4.75 -0.19,1.73655 -0.23743,3.48625 -0.14063,5.23047 0.025,1.65 0.1243,2.64203 0.24805,3.26953 0.12375,0.6275 0.27258,0.89008 0.39258,1.08008 0.67498,0.75584 1.29585,1.55817 1.85937,2.40039 0.215,0.385 0.42774,0.80508 0.55274,1.20508 0.125,0.4 0.16234,0.77898 0.0273,1.08398 -0.27,0.61 -0.83953,0.47961 -1.26953,1.09961 -0.26,0.4 -0.26031,0.80274 -0.19531,1.27149 0.065,0.46875 0.19531,1.00492 0.19531,1.66992 0.0169,0.63932 -0.0917,1.26975 -0.3125,1.85742 -0.2208,0.58767 -0.55455,1.13157 -0.98828,1.60156 -0.4225,0.35 -0.88914,0.47797 -1.38086,0.49219 -0.49172,0.0142 -1.00797,-0.0849 -1.52734,-0.18555 -0.51938,-0.10062 -1.04141,-0.20273 -1.54688,-0.19726 -0.50547,0.005 -0.99531,0.11867 -1.44531,0.45117 -0.26,0.185 -0.46922,0.59328 -0.69922,1.26953 -0.23,0.67625 -0.48031,1.62086 -0.82031,2.88086 -0.32,1.18 -0.47485,2.01008 -0.4961,2.64258 -0.0213,0.6325 0.0916,1.06703 0.30664,1.45703 0.29,0.48 0.48907,0.43 0.78907,1 0.23394,0.53401 0.36767,1.10103 0.39648,1.67383 0.0288,0.5728 -0.0474,1.15224 -0.22656,1.70703 -0.17957,0.75928 -0.45559,1.48753 -0.82031,2.16992 -0.36473,0.68239 -0.81808,1.31751 -1.34961,1.88867 -1.22,1.33 -1.63961,1.04133 -4.09961,3.11133 -1.025,0.85 -1.6168,1.45602 -1.9668,1.88477 -0.35,0.42875 -0.45867,0.67945 -0.51367,0.81445 -0.46,1.2 -0.0295,1.68086 -0.51953,3.38086 -0.39236,1.02654 -0.8459,2.02837 -1.35938,3 -1.06,2.33 -1.06054,2.73 -1.06054,3 0.02,0.405 0.12359,0.80094 0.40234,1.27344 0.27875,0.4725 0.73203,1.02156 1.45703,1.72656 1.67386,1.51992 3.51973,2.83857 5.5,3.92969 1.7282,0.91608 3.31306,2.08093 4.70117,3.45898 0.76092,0.70642 1.31112,1.61116 1.58985,2.61133 0.12831,0.6506 0.12834,1.31312 0.008,1.95312 -0.12053,0.64001 -0.36257,1.25705 -0.71875,1.81641 -0.29,0.44 -0.54344,0.66789 -0.92969,0.93164 -0.38625,0.26375 -0.90375,0.56344 -1.71875,1.14844 -1.47,1.065 -2.10555,1.77164 -2.62305,2.33789 -0.5175,0.56625 -0.91796,0.99219 -1.91796,1.49219 -0.91,0.465 -1.62774,0.64187 -2.17774,0.82812 -0.55,0.18625 -0.93187,0.38086 -1.17187,0.88086 -0.22,0.46 -0.11039,1.16984 0.0996,2.58985 0.16256,1.09005 0.40703,2.16711 0.73046,3.2207 0.2114,0.92466 0.54783,1.81659 1,2.65039 0.78,1.23 1.3204,1.23047 1.90039,2.23047 0.25651,0.4969 0.42982,1.02706 0.51758,1.57226 0.0878,0.54521 0.0895,1.10397 0.002,1.65625 -0.115,0.965 -0.46321,1.77016 -0.93946,2.50391 -0.47625,0.73375 -1.08093,1.39617 -1.71093,2.07617 -1.54,1.68 -1.87954,1.35094 -2.76954,2.46094 -0.4225,0.53 -0.67375,1.0182 -0.83203,1.50195 -0.15828,0.48375 -0.22336,0.96211 -0.27148,1.47461 -0.0962,1.025 -0.12703,2.18344 -0.70703,3.77344 -0.335,0.92 -0.80625,1.74789 -1.5,2.71289 -0.69375,0.965 -1.61008,2.06711 -2.83008,3.53711 -1.125,1.355 -1.89641,2.13195 -2.44141,2.7832 -0.545,0.65125 -0.86312,1.17539 -1.07812,2.02539 -0.245,0.94 -0.18258,1.55321 -0.14258,2.18946 0.04,0.63625 0.0577,1.29703 -0.27734,2.33203 -0.52411,1.40227 -1.30123,2.6972 -2.29102,3.82031 -1.69,2.16 -2.07828,1.93 -2.73828,3 -0.395,0.635 -0.58055,1.23781 -0.64258,1.88281 -0.062,0.645 -0.002,1.33086 0.0977,2.13086 0.0994,0.8 0.23695,1.71445 0.32617,2.81445 0.0892,1.1 0.12961,2.38664 0.0371,3.93164 -0.115,1.95001 -0.36867,3.08618 -0.63867,3.76368 -0.27,0.6775 -0.55547,0.89586 -0.73047,1.00586 -0.3425,0.215 -0.68289,0.28718 -1.04102,0.28515 -0.35812,-0.002 -0.73453,-0.0776 -1.14453,-0.1582 -0.41,-0.0806 -0.85539,-0.16672 -1.35351,-0.1875 -0.49813,-0.0208 -1.04938,0.0237 -1.67188,0.20117 -0.7662,0.21518 -1.47236,0.57785 -2.08594,1.06055 -0.61357,0.4827 -1.13393,1.08529 -1.52343,1.77929 -0.4,0.88501 -0.30016,1.53227 -0.19141,2.19727 0.10875,0.665 0.22633,1.34773 -0.13867,2.30273 -0.155,0.405 -0.47977,0.82196 -1.04102,1.37696 -0.56125,0.555 -1.35898,1.24812 -2.45898,2.20312 -1.1,0.955 -1.79149,1.5018 -2.27149,1.93555 -0.48,0.43375 -0.74804,0.75391 -0.99804,1.25391 -0.26168,0.57786 -0.41933,1.18164 -0.47852,1.79687 -0.0592,0.61524 -0.021,1.24208 0.10742,1.86328 1.3421,0.12282 2.66292,0.42917 3.92188,0.91016 0.72089,0.22999 1.41116,0.53945 2.05859,0.92187 0.64743,0.38242 1.25139,0.83709 1.80078,1.35743 0.91,0.945 1.15789,1.72242 1.36914,2.41992 0.10563,0.34875 0.20141,0.67836 0.36719,0.99804 0.16578,0.31969 0.4007,0.62891 0.7832,0.94141 0.4275,0.3475 0.83453,0.53133 1.23828,0.63477 0.40376,0.10343 0.80516,0.1275 1.22266,0.15625 0.4175,0.0288 0.84961,0.0621 1.31836,0.18554 0.46875,0.12344 0.97375,0.33711 1.53125,0.72461 0.56117,0.39698 1.05641,0.87257 1.47266,1.41016 0.41625,0.53758 0.75226,1.13661 0.99609,1.7793 0.32371,1.25022 0.47627,2.53887 0.45117,3.83007 0.13,2.78 -0.06,2.89922 0.25,3.44922 0.215,0.395 0.49094,0.65735 0.80469,0.85156 0.31375,0.19422 0.6643,0.3218 1.0293,0.45118 0.365,0.12937 0.74453,0.26047 1.11328,0.46093 0.36875,0.20047 0.72773,0.46946 1.05273,0.87696 0.365,0.455 0.5643,0.93695 0.68555,1.5332 0.12125,0.59625 0.16484,1.3068 0.21484,2.2168 1.2,-0.7 2.9,-1.64891 5,-2.62891 1.14958,-0.58885 2.33657,-1.0994 3.55274,-1.52539 1.21596,-0.42599 2.46061,-0.76821 3.72636,-1.02539 1.7,-0.3 1.81992,-0.0791 5.91992,-0.11914 3.905,-0.045 6.19227,-0.27563 7.75977,-0.32813 0.78375,-0.0263 1.38789,-0.008 1.92383,0.0996 0.53593,0.10782 1.00312,0.30422 1.51562,0.63672 1.025,0.665 1.60891,1.47633 2.12891,2.11133 0.26,0.3175 0.50304,0.59125 0.77929,0.78125 0.27625,0.19 0.58516,0.2968 0.97266,0.2793 0.3875,-0.0175 0.76313,-0.17125 1.11328,-0.39844 0.35016,-0.22719 0.67531,-0.52945 0.96094,-0.8457 0.57125,-0.6325 0.98672,-1.32094 1.13672,-1.58594 0.585,-1.05 0.68211,-1.8018 0.75586,-2.43555 0.0738,-0.63375 0.12328,-1.14937 0.61328,-1.73437 0.33,-0.395 0.74406,-0.69039 1.22265,-0.90821 0.4786,-0.21781 1.0211,-0.35992 1.60547,-0.45117 1.16875,-0.1825 2.5068,-0.16062 3.8418,-0.14062 1.65,0.025 2.67781,0.22726 3.44531,0.32226 0.7675,0.095 1.27477,0.0827 1.88477,-0.32226 0.61,-0.405 0.82187,-0.81 1.07812,-1.46875 0.25625,-0.65875 0.5568,-1.57219 1.3418,-2.99219 0.635,-1.14 1.11047,-1.99687 1.57422,-2.64062 0.46375,-0.64376 0.91586,-1.07438 1.50586,-1.35938 0.37,-0.16 0.8025,-0.27234 1.78125,-0.0898 0.97875,0.1825 2.50359,0.65968 5.05859,1.67968 2.375,0.945 3.73469,1.5993 4.74219,1.99805 1.0075,0.39875 1.66195,0.54289 2.62695,0.46289 0.90674,-0.0761 1.78453,-0.31904 2.58985,-0.70898 0.80531,-0.38995 1.53815,-0.92767 2.16015,-1.5918 0.58,-0.685 0.72836,-1.20664 0.84961,-1.68164 0.12125,-0.475 0.21641,-0.90344 0.69141,-1.39844 0.515,-0.5325 1.19914,-0.86109 1.9707,-1.04687 0.77156,-0.18578 1.63094,-0.22883 2.49219,-0.18946 1.7225,0.0788 3.45711,0.48633 4.53711,0.73633 1,0.235 1.67773,0.47078 2.33398,0.64453 0.65625,0.17375 1.29008,0.28539 2.20508,0.27539 0.625,0 1.37609,6.3e-4 2.12109,-0.14062 0.745,-0.14125 1.48485,-0.42328 2.08985,-0.98828 0.375,-0.33 0.59922,-0.66414 0.74609,-1.01758 0.14688,-0.35344 0.21571,-0.72742 0.28321,-1.13867 0.13499,-0.8225 0.2607,-1.79469 0.9707,-3.05469 0.57,-1.035 1.29828,-1.83594 2.11328,-2.52344 0.815,-0.6875 1.71672,-1.2607 2.63672,-1.8457 1.45192,-0.92119 2.88213,-1.65148 4.52344,-2.16406 z"
     style="fill:none;stroke:#231f20;stroke-linecap:round;stroke-linejoin:round;stroke-opacity:1;paint-order:fill markers stroke"
     id="path881" />
  <path
     d="m 429.82125,237.22013 -98.10352,-56.28125 c 0.15509,0.68505 0.22461,1.42679 0.22461,2.23242 -0.0261,1.57722 -0.19075,3.14686 -0.49023,4.68946 -0.29948,1.54259 -0.73286,3.05884 -1.29883,4.53124 -0.2807,0.71739 -0.64864,1.39415 -1.09375,2.01563 -0.44511,0.62148 -0.9678,1.1869 -1.55664,1.68359 -0.80836,0.60803 -1.67827,1.12325 -2.59375,1.53907 -0.91548,0.41582 -1.87745,0.73271 -2.86719,0.9414 -2.84954,0.75501 -5.7729,1.18985 -8.71875,1.29883 -1.82857,-0.0957 -3.6337,-0.4042 -5.3789,-0.91602 -1.74521,-0.51181 -3.43087,-1.22574 -5.02149,-2.13281 -0.755,-0.395 -1.30172,-0.8825 -1.88672,-1.21875 -0.2925,-0.16812 -0.59562,-0.29929 -0.9375,-0.36133 -0.34187,-0.062 -0.72328,-0.0562 -1.17578,0.0488 -1.11764,0.37915 -2.20679,0.83806 -3.25976,1.3711 -2,0.77 -4.00078,1.35 -6.05078,2 -2.5,0.845 -5.13711,1.28422 -7.50586,2.16796 -1.18438,0.44188 -2.30157,0.99579 -3.30079,1.76563 -0.99921,0.76984 -1.87929,1.75641 -2.59179,3.06641 -0.6975,1.27625 -1.09061,2.46699 -1.23047,3.58007 -0.13986,1.11309 -0.0266,2.14852 0.28711,3.11524 0.31367,0.96672 0.82713,1.86402 1.49023,2.70117 0.66311,0.83715 1.47438,1.61352 2.38281,2.33789 1.81688,1.44875 4.02172,2.68867 6.19532,3.78711 2.17359,1.09844 4.31617,2.055 6.01367,2.9375 0.915,0.4775 1.73383,1.00875 2.44727,1.60156 0.71343,0.59282 1.32265,1.24891 1.8164,1.97266 0.49375,0.72375 0.87297,1.51641 1.12891,2.38672 0.25594,0.87031 0.38867,1.81711 0.38867,2.84961 0,0.96 -0.19969,1.86492 -0.55469,2.70117 -0.355,0.83625 -0.86578,1.60406 -1.48828,2.28906 -0.6225,0.685 -1.35766,1.28672 -2.16016,1.79297 -0.8025,0.50625 -1.67335,0.9168 -2.56835,1.2168 -1.29501,0.4375 -2.64461,0.74219 -4.02149,0.92969 -1.37687,0.1875 -2.78055,0.25906 -4.18555,0.22656 -1.405,-0.0325 -2.81007,-0.16813 -4.18945,-0.39063 -1.37937,-0.2225 -2.7332,-0.53351 -4.0332,-0.91601 -0.78683,-0.26064 -1.52752,-0.63142 -2.20117,-1.09961 -0.67365,-0.46819 -1.28026,-1.03308 -1.79883,-1.67969 -0.29597,-0.43281 -0.63068,-0.83875 -1,-1.21094 -0.59,-0.4225 -1.335,-0.65 -2.16407,-0.75 -0.82906,-0.1 -1.74281,-0.0716 -2.66406,0.0234 -1.8425,0.19 -3.72078,0.64266 -5.05078,0.84766 -3.19,0.5 -6.39648,1.33695 -9.61523,2.06445 -1.60938,0.36375 -3.2218,0.70031 -4.83789,0.95312 -1.6161,0.25282 -3.23493,0.42313 -4.85743,0.45313 -1.4,0.03 -2.56468,0.0294 -3.64843,-0.20313 -1.08375,-0.2325 -2.08711,-0.69765 -3.16211,-1.59765 -0.50011,-0.52275 -1.08627,-0.94524 -1.72852,-1.25196 -0.64224,-0.30671 -1.33963,-0.49821 -2.06055,-0.55859 -0.81,0 -1.61656,0.1875 -2.39062,0.51172 -0.77406,0.32422 -1.51547,0.78516 -2.19922,1.33203 -0.68375,0.54688 -1.30859,1.17969 -1.84766,1.84766 -0.53906,0.66797 -0.99398,1.37109 -1.33398,2.05859 -0.39,0.8025 -0.62891,1.57024 -0.75,2.31836 -0.12109,0.74813 -0.12328,1.47758 -0.0352,2.20508 0.17625,1.455 0.71024,2.90156 1.36524,4.47656 0.93,2.24 1.24101,4.62078 2.29101,6.80078 0.71,1.5 1.42641,2.58289 2.31641,3.52539 0.89,0.9425 1.95352,1.7436 3.35352,2.6836 0.88,0.595 1.74546,1.34633 2.63672,2.04882 0.89125,0.7025 1.80796,1.35672 2.79296,1.76172 0.555,0.22 1.19329,0.31243 1.875,0.32227 0.68172,0.01 1.40789,-0.0627 2.13477,-0.17578 1.45375,-0.22625 2.91555,-0.61164 4.06055,-0.80664 1.43,-0.24 2.83953,7.8e-4 4.26953,-0.19922 2.30678,-0.47896 4.55921,-1.19353 6.7207,-2.13086 0.5,-0.165 1.44977,-0.61125 2.38477,-0.96875 0.935,-0.3575 1.85492,-0.62664 2.29492,-0.43164 1.2,0.53 2.60062,0.74367 3.85937,1.16992 0.62938,0.21313 1.22219,0.47883 1.73828,0.86524 0.5161,0.3864 0.95399,0.89343 1.27149,1.58593 0.535,1.175 0.82101,2.5443 1.04101,3.93555 0.22,1.39125 0.37539,2.80445 0.65039,4.06445 0.69,3.1 1.39008,6.24907 2.33008,9.28907 0.405,1.31999 0.90477,2.52406 1.19727,3.72656 0.14625,0.60125 0.23945,1.20242 0.24414,1.81836 0.005,0.61593 -0.0805,1.24625 -0.29297,1.90625 1.12324,-0.2414 2.2578,-0.40695 3.39648,-0.48047 1.13869,-0.0735 2.28183,-0.0552 3.42383,0.0703 1.6,0.17 2.45899,0.46047 3.30274,0.73047 0.84375,0.27 1.67375,0.51937 3.21875,0.60937 2.06,0.14 3.05859,-0.16 7.05859,0 0.815,0.03 1.63289,0.0691 2.30664,0.22657 0.67375,0.1575 1.20336,0.43359 1.44336,0.93359 0.18,0.355 0.13547,0.71539 0.10547,1.05664 -0.03,0.34125 -0.0447,0.66336 0.19531,0.94336 0.13,0.145 0.30711,0.25555 0.66211,0.31055 0.355,0.055 0.88852,0.0535 1.72852,-0.0215 1.39433,-0.0413 2.77375,-0.29741 4.08984,-0.75976 1.89,-0.73 1.64867,-1.22063 3.38867,-1.89063 1.32,-0.51 1.34071,-0.20929 4.22071,-0.77929 1.44,-0.285 2.23937,-0.52766 2.79687,-0.66016 0.5575,-0.1325 0.87375,-0.155 1.34375,0 0.705,0.23 1.00172,0.61234 1.32422,1.02734 0.3225,0.415 0.66961,0.86266 1.47461,1.22266 0.705,0.31 1.16547,0.29539 1.69922,0.27539 0.53375,-0.02 1.14062,-0.0459 2.14062,0.24414 1.05213,0.2763 2.0227,0.80223 2.83008,1.53125 0.7,0.665 0.93609,1.23508 1.12109,1.73633 0.18501,0.50125 0.32032,0.93422 0.82032,1.32422 0.34,0.2525 0.67187,0.35984 1.02734,0.38672 0.35547,0.0269 0.73414,-0.0277 1.16602,-0.0977 0.86375,-0.14 1.94156,-0.34461 3.47656,-0.0996 0.57,0.09 1.33391,0.21148 2.09766,0.49023 0.76375,0.27876 1.52679,0.71469 2.09179,1.42969 0.3275,0.4125 0.50594,0.81453 0.60938,1.20313 0.10343,0.38859 0.1325,0.76422 0.15625,1.12109 0.0238,0.35688 0.0424,0.69438 0.13086,1.01172 0.0884,0.31734 0.24547,0.61281 0.54297,0.88281 0.365,0.32 0.96296,0.45844 1.88671,0.49219 0.92375,0.0337 2.17375,-0.0359 3.84375,-0.13086 1.285,-0.075 2.12672,-0.1625 2.76172,-0.15625 0.635,0.006 1.06258,0.10625 1.51758,0.40625 0.53,0.355 0.72469,0.7325 0.92969,1.125 0.205,0.3925 0.42023,0.79984 0.99023,1.21484 0.59941,0.4036 1.27337,0.66137 1.97071,0.76563 0.69733,0.10426 1.41813,0.0544 2.10937,-0.15625 0.52,-0.17 0.91266,-0.41641 1.23438,-0.69531 0.32172,-0.27891 0.57312,-0.58914 0.8125,-0.88477 0.23937,-0.29562 0.46726,-0.57672 0.74023,-0.79687 0.27297,-0.22016 0.59117,-0.3811 1.01367,-0.4336 0.495,-0.06 0.86469,0.0593 1.33594,0.31055 0.47125,0.25125 1.04336,0.63633 1.94336,1.11133 1.57036,0.81663 3.23311,1.44348 4.95117,1.86914 z"
     style="fill:none;stroke:#231f20;stroke-linecap:round;stroke-linejoin:round;stroke-opacity:1;paint-order:fill markers stroke"
     id="path879" />
  <path
     d="m 437.0693,0.50333409 c -0.68907,-0.0221875 -1.37891,0.0635938 -2.06641,0.30859376 -1.565,0.56500005 -3.06414,1.48117195 -4.49414,2.51367195 -1.43,1.0324999 -2.79117,2.1800781 -4.07617,3.2050781 -0.455,0.37 -1.50016,1.0703125 -2.47266,1.8515625 -0.9725,0.78125 -1.87211,1.6448436 -2.03711,2.3398436 -0.0725,0.2975 -0.0202,0.577813 0.10938,0.84375 0.12953,0.265938 0.33664,0.517656 0.57226,0.753906 0.47125,0.4725 1.05891,0.886953 1.37891,1.251953 0.63002,0.701981 1.15255,1.486282 1.55664,2.328126 0.40408,0.841843 0.69011,1.74123 0.84375,2.671874 0.32,1.5 0.27187,3.073126 0.23437,4.640626 -0.0375,1.567499 -0.0651,3.129375 0.29493,4.609374 0.195,0.810001 0.44445,1.30875 0.62695,1.84375 0.1825,0.535001 0.29766,1.106641 0.22266,2.056641 -0.23968,2.727045 -0.6541,5.435304 -1.24024,8.109375 -0.25,1.25 -0.74906,2.412969 -1.32031,3.542969 -0.57125,1.13 -1.215,2.227656 -1.75,3.347656 -0.63,1.28 -1.51969,2.900156 -2.02344,4.566406 -0.25187,0.833125 -0.4068,1.676563 -0.38476,2.496094 0.022,0.819531 0.22218,1.615156 0.67968,2.347656 0.3625,0.5825 0.84641,1.042657 1.39844,1.4375 0.55203,0.394844 1.17156,0.722735 1.80469,1.03711 1.26625,0.62875 2.58539,1.204297 3.52539,2.154297 0.66887,0.728368 1.22091,1.548384 1.64062,2.43164 0.41972,0.883257 0.70735,1.829988 0.84961,2.808594 0.45,2.1 0.75055,4.267109 0.74805,6.412109 -10e-4,1.0725 -0.0784,2.139454 -0.25,3.189453 -0.17156,1.05 -0.43836,2.082891 -0.81836,3.087891 -0.83,2.22 -2.05922,4.290078 -2.69922,6.580078 -0.5,1.76 -1.22758,3.39211 -2.08008,4.97461 -0.8525,1.5825 -1.83007,3.115781 -2.83007,4.675781 -0.185,0.29 -1.0629,1.892265 -2.08789,3.447266 -0.5125,0.7775 -1.06196,1.543203 -1.58008,2.126951 -0.51813,0.58375 -1.00508,0.98516 -1.39258,1.03516 -0.94425,-0.22787 -1.82772,-0.65752 -2.58984,-1.25977 -1.66646,-0.838851 -3.25593,-1.822094 -4.75,-2.939451 -1.27,-1 -2.38852,-2.300703 -3.72852,-3.220703 -0.8575,-0.5925 -1.83898,-0.99625 -2.88867,-1.265625 -1.04969,-0.269375 -2.16899,-0.403984 -3.30274,-0.458984 -2.2675,-0.11 -4.59382,0.100312 -6.54883,0.195312 -0.64499,0.035 -1.39546,-0.06562 -2.04296,0.01563 -0.32375,0.04063 -0.62258,0.128047 -0.86914,0.298828 -0.24657,0.170782 -0.4411,0.424688 -0.5586,0.804688 0.0122,0.928684 0.1404,1.850006 0.37891,2.740234 0.23851,0.890229 0.5873,1.750145 1.04101,2.560547 1.09,2.240004 2.28032,4.409304 3.57032,6.529304 0.645,1.06 1.23718,2.04281 1.67968,3.07031 0.4425,1.0275 0.7343,2.09984 0.7793,3.33984 0.05,1.415 -0.11961,2.88899 -0.44726,4.37696 -0.32766,1.48796 -0.8125,2.99047 -1.39063,4.46484 -1.15625,2.94875 -2.68703,5.7832 -4.08203,8.1582 -0.47,0.8 -1.06883,2.0511 -1.86133,3.02735 -0.39625,0.48812 -0.84148,0.90718 -1.3418,1.16797 -0.50031,0.26078 -1.05578,0.36234 -1.67578,0.21484 -0.84,-0.49 -1.70054,-1.00016 -2.56054,-1.41016 -1.06471,-0.59829 -2.17142,-1.11821 -3.31055,-1.55859 -1.71,-0.77 -3.40969,-1.89149 -5.17969,-2.52148 -0.91699,-0.29141 -1.86875,-0.45955 -2.83008,-0.5 -1.66211,-0.29179 -3.2877,-0.75957 -4.84961,-1.39844 -1.92558,-0.8394 -3.90667,-1.54575 -5.92968,-2.11133 -1.1,-0.235 -2.17461,-0.21734 -3.22071,-0.0234 -1.04609,0.19391 -2.06336,0.56508 -3.05273,1.03321 -1.97875,0.93625 -3.84117,2.26609 -5.57617,3.37109 -1.0525,0.67 -1.86125,1.01969 -2.52344,1.22265 -0.66219,0.20297 -1.17828,0.25797 -1.64453,0.33985 -0.46625,0.0819 -0.88297,0.19133 -1.34766,0.49805 -0.46469,0.30671 -0.97726,0.81195 -1.63476,1.68945 -0.26,0.34 -0.56008,0.65 -0.83008,1 -0.27,0.35 -0.42086,0.53859 -0.63086,0.80859 -0.31967,0.47101 -0.68801,0.90756 -1.09961,1.30078 -0.47075,0.45242 -1.12323,0.66302 -1.76953,0.57032 -0.25696,-0.12965 -0.48724,-0.30552 -0.67969,-0.51954 -0.33738,-0.29511 -0.77249,-0.45652 -1.2207,-0.45117 -0.59581,0.0564 -1.17795,0.19714 -1.72852,0.41602 -0.29926,0.11897 -0.55961,0.31652 -0.83789,0.48047 0.34522,-0.16943 0.69529,-0.35676 1.03711,-0.52539 l -1.74023,0.92968 c 0.2154,-0.16799 0.46944,-0.26662 0.70312,-0.40429 -1.54842,0.75993 -3.11721,1.51408 -4.65039,2.35937 -1.875,1.03375 -3.6875,2.17539 -5.3125,3.52539 -1.98491,1.66332 -3.85283,3.45616 -5.5918,5.36719 -1.73896,1.91103 -3.34913,3.93969 -4.81836,6.07227 -0.805,1.19 -1.42203,2.43929 -1.70703,3.74804 -0.1425,0.65438 -0.20203,1.32422 -0.16015,2.00782 0.0419,0.68359 0.18476,1.38125 0.44726,2.09375 0.2775,0.75 0.65547,1.41445 1.10157,2.02148 0.44609,0.60703 0.96039,1.15711 1.50976,1.67773 1.09875,1.04125 2.33898,1.96696 3.45898,3.00196 1.29724,1.38589 2.44932,2.89992 3.43946,4.51953 0.37,0.5 0.71976,1.08711 1.10351,1.63086 0.38375,0.54375 0.80164,1.04414 1.30664,1.36914 1.21,0.83 2.71,1.12 4,2 0.76126,0.52621 1.35141,1.11321 1.79688,1.76953 0.44546,0.65632 0.74539,1.38208 0.92773,2.1875 l 98.10352,56.2812 75.18164,-84.21875 c -1.54,-0.385 -3.08258,-0.84164 -4.59961,-1.38086 -1.51703,-0.53922 -3.00859,-1.16008 -4.44922,-1.87695 -1.44062,-0.71688 -2.82984,-1.5293 -4.14062,-2.44727 -1.31078,-0.91797 -2.54243,-1.94148 -3.66993,-3.08398 -0.67,-0.68 -1.24999,-1.39 -2,-2 -0.89249,-0.75 -1.86585,-1.36696 -2.86914,-1.93164 -1.00328,-0.56469 -2.03765,-1.07789 -3.05078,-1.61914 -1.01312,-0.54125 -2.0057,-1.11133 -2.92773,-1.79102 -0.92203,-0.67969 -1.77391,-1.46922 -2.50391,-2.44922 -0.485,-0.65125 -0.87172,-1.34349 -1.17383,-2.0664 -0.3021,-0.72291 -0.51789,-1.47649 -0.6582,-2.25 -0.28062,-1.54704 -0.25953,-3.17375 -0.0195,-4.79688 0.24,-1.62312 0.69719,-3.24266 1.28906,-4.77344 0.59188,-1.53078 1.31875,-2.97414 2.09375,-4.24414 0.54766,-0.85149 0.99254,-1.75901 1.32813,-2.70703 0.33558,-0.94802 0.56187,-1.93499 0.67187,-2.94141 0.60291,-3.08527 0.93749,-6.2183 1,-9.36132 0,-0.665 -0.0949,-1.25993 -0.0762,-1.826174 0.0188,-0.56625 0.15047,-1.102344 0.60547,-1.652344 1.05746,-0.992804 2.24625,-1.838924 3.53125,-2.511719 0.435,-0.284999 1.38476,-0.763125 2.22852,-1.359374 0.42187,-0.298125 0.81632,-0.62625 1.10742,-0.972657 0.29109,-0.346406 0.47742,-0.71289 0.48242,-1.08789 -0.1937,-0.522074 -0.46354,-1.00831 -0.80078,-1.44336 -0.33725,-0.43505 -0.74191,-0.818993 -1.19922,-1.136719 -1.32,-1.17 -2.65,-2.338281 -4,-3.488281 -0.68,-0.765 -1.09945,-1.682578 -1.30274,-2.669922 -0.20328,-0.987343 -0.18882,-2.045468 -0.002,-3.089843 0.18688,-1.044375 0.54664,-2.075625 1.03711,-3.011719 0.49047,-0.936094 1.11086,-1.776953 1.81836,-2.439453 1.22,-1.14 3.03828,-1.801406 4.30078,-2.722656 0.63125,-0.460625 1.12234,-0.985938 1.33203,-1.667969 0.10485,-0.341016 0.14051,-0.721465 0.0859,-1.152344 -0.0546,-0.430879 -0.19922,-0.913281 -0.44922,-1.457031 -0.78939,-1.485289 -1.73556,-2.875905 -2.82031,-4.148438 -1.08476,-1.272532 -2.30685,-2.426825 -3.64844,-3.441406 -1.70224,-1.166645 -3.51055,-2.171044 -5.40039,-3 -1.24021,-0.534689 -2.42807,-1.176746 -3.55078,-1.917969 -1.12271,-0.741222 -2.18121,-1.581297 -3.16016,-2.511719 -0.96,-1.153332 -1.96,-2.260312 -3,-3.320312 -0.88978,-0.713629 -1.90818,-1.250061 -3,-1.580078 -0.73125,-0.32125 -1.26515,-0.724414 -1.63867,-1.191406 -0.37351,-0.466993 -0.58664,-0.9975 -0.67383,-1.574219 -0.0872,-0.576719 -0.0477,-1.19918 0.0801,-1.849609 0.12774,-0.65043 0.34399,-1.329454 0.61524,-2.017579 0.5425,-1.37625 1.30015,-2.790625 1.98828,-4.101562 0.68812,-1.310938 1.30781,-2.51711 1.57031,-3.474609 0.18,-0.65 0.1443,-1.295313 0.0606,-1.945313 -0.0838,-0.65 -0.21547,-1.306563 -0.23047,-1.976563 -0.045,-1.589999 0.17336,-3.183281 0.25586,-4.769531 0.0413,-0.793125 0.0485,-1.584062 -0.0293,-2.371093 -0.0778,-0.787032 -0.23961,-1.570157 -0.53711,-2.347657 -0.72538,-1.585948 -1.74314,-3.021459 -3,-4.230469 -1.29,-1.5 -2.45109,-3.152265 -3.68359,-4.728515 -1.2325,-1.5762501 -2.53719,-3.0764845 -4.11719,-4.2714845 -1.58,-1.195 -3.3593,-2.0607812 -5.2168,-2.7695313 -1.8575,-0.7087499 -3.79359,-1.2600781 -5.68359,-1.8300781 -1.335,-0.41 -2.69586,-1.0083593 -4.06836,-1.38085938 -0.68625,-0.18625 -1.37539,-0.31570312 -2.06445,-0.33789063 z"
     style="fill:none;stroke:#231f20;stroke-linecap:round;stroke-linejoin:round;stroke-opacity:1;paint-order:fill markers stroke"
     id="path877" />
  <path
     id="path898"
     d="m 437.0693,0.50333409 c 0.68906,0.0221875 1.3782,0.15164063 2.06445,0.33789063 1.3725,0.37250008 2.73336,0.97085938 4.06836,1.38085938 1.89,0.57 3.82609,1.1213282 5.68359,1.8300781 1.8575,0.7087501 3.6368,1.5745313 5.2168,2.7695313 1.58,1.195 2.88469,2.6952344 4.11719,4.2714845 1.2325,1.57625 2.39359,3.228515 3.68359,4.728515 1.25686,1.20901 2.27462,2.644521 3,4.230469 0.2975,0.7775 0.4593,1.560625 0.53711,2.347657 0.0778,0.787031 0.0706,1.577968 0.0293,2.371093 -0.0825,1.58625 -0.30086,3.179532 -0.25586,4.769531 0.015,0.67 0.14672,1.326563 0.23047,1.976563 0.0838,0.65 0.11945,1.295313 -0.0606,1.945313 -0.2625,0.957499 -0.88219,2.163671 -1.57031,3.474609 -0.68813,1.310937 -1.44578,2.725312 -1.98828,4.101562 -0.27125,0.688125 -0.4875,1.367149 -0.61524,2.017579 -0.12773,0.650429 -0.16726,1.27289 -0.0801,1.849609 0.0872,0.576719 0.30032,1.107226 0.67383,1.574219 0.37352,0.466992 0.90742,0.870156 1.63867,1.191406 1.09182,0.330017 2.11022,0.866449 3,1.580078 1.04,1.06 2.04,2.16698 3,3.320312 0.97895,0.930422 2.03745,1.770497 3.16016,2.511719 1.12271,0.741223 2.31057,1.38328 3.55078,1.917969 1.88984,0.828956 3.69815,1.833355 5.40039,3 1.34159,1.014581 2.56368,2.168874 3.64844,3.441406 1.08475,1.272533 2.03092,2.663149 2.82031,4.148438 0.25,0.54375 0.39465,1.026152 0.44922,1.457031 0.0546,0.430879 0.0189,0.811328 -0.0859,1.152344 -0.20969,0.682031 -0.70078,1.207344 -1.33203,1.667969 -1.2625,0.92125 -3.08078,1.582656 -4.30078,2.722656 -0.7075,0.6625 -1.32789,1.503359 -1.81836,2.439453 -0.49047,0.936094 -0.85023,1.967344 -1.03711,3.011719 -0.18687,1.044375 -0.20133,2.1025 0.002,3.089843 0.20329,0.987344 0.62274,1.904922 1.30274,2.669922 1.35,1.15 2.68,2.318281 4,3.488281 0.45731,0.317726 0.86197,0.701669 1.19922,1.136719 0.33724,0.43505 0.60708,0.921286 0.80078,1.44336 -0.005,0.375 -0.19133,0.741484 -0.48242,1.08789 -0.2911,0.346407 -0.68555,0.674532 -1.10742,0.972657 -0.84376,0.596249 -1.79352,1.074375 -2.22852,1.359374 -1.285,0.672795 -2.47379,1.518915 -3.53125,2.511719 -0.455,0.55 -0.58672,1.086094 -0.60547,1.652344 -0.0188,0.566244 0.0762,1.161174 0.0762,1.826174 -0.0625,3.14302 -0.39709,6.27605 -1,9.36132 -0.11,1.00642 -0.33629,1.99339 -0.67187,2.94141 -0.33559,0.94802 -0.78047,1.85554 -1.32813,2.70703 -0.775,1.27 -1.50187,2.71336 -2.09375,4.24414 -0.59187,1.53078 -1.04906,3.15032 -1.28906,4.77344 -0.24,1.62313 -0.26109,3.24984 0.0195,4.79688 0.14031,0.77351 0.3561,1.52709 0.6582,2.25 0.30211,0.72291 0.68883,1.41515 1.17383,2.0664 0.73,0.98 1.58188,1.76953 2.50391,2.44922 0.92203,0.67969 1.91461,1.24977 2.92773,1.79102 1.01313,0.54125 2.0475,1.05445 3.05078,1.61914 1.00329,0.56468 1.97665,1.18164 2.86914,1.93164 0.75001,0.61 1.33,1.32 2,2 1.1275,1.1425 2.35915,2.16601 3.66993,3.08398 1.31078,0.91797 2.7,1.73039 4.14062,2.44727 1.44063,0.71687 2.93219,1.33773 4.44922,1.87695 1.51701,0.53922 3.05959,0.99586 4.59959,1.38086 l -75.18164,84.21875 -65.26758,73.11133 14.05274,151.38672 4.82617,51.98242 -26.20313,60.76953 -36.01562,83.53125 c -0.79454,-0.40195 -1.64014,-0.69867 -2.51172,-0.88086 -1.20376,-0.43893 -2.27616,-1.17374 -3.11914,-2.13867 -0.495,-0.495 -0.98922,-1.24524 -1.54297,-1.92774 -0.55375,-0.6825 -1.16648,-1.29843 -1.89649,-1.52343 -0.655,-0.195 -1.41804,-0.19524 -2.18554,-0.14649 -0.7675,0.0488 -1.53985,0.14649 -2.21485,0.14649 -0.49001,0.0415 -0.97577,-0.0282 -1.42382,-0.19922 -0.44806,-0.17102 -0.8595,-0.44336 -1.19727,-0.80078 -0.33445,-0.68697 -0.54057,-1.42851 -0.60937,-2.18946 -0.48,-2.06 -0.50438,-4.56968 -0.92188,-6.89843 -0.20875,-1.16438 -0.51641,-2.28446 -1.02734,-3.2793 -0.51094,-0.99484 -1.225,-1.86375 -2.25,-2.53125 -0.72897,-0.32871 -1.44083,-0.69745 -2.13086,-1.10156 -0.5409,-0.44269 -1.14723,-0.7959 -1.79883,-1.04883 -0.96786,-0.28007 -1.9209,-0.61393 -2.85156,-1 -1.47649,-0.73835 -2.88423,-1.60487 -4.20899,-2.58985 l -3.24023,-0.75 c -1.76172,-1.19362 -3.59437,-2.277 -5.48633,-3.24218 -1.89196,-0.96519 -3.8433,-1.81342 -5.84375,-2.53906 -1.09,-0.415 -2.31742,-0.85141 -3.48242,-1.37891 -1.165,-0.5275 -2.26742,-1.14492 -3.10742,-1.91992 -0.42,-0.3875 -0.67196,-0.80664 -0.81055,-1.24805 -0.13859,-0.44141 -0.16344,-0.90523 -0.13281,-1.38086 0.0613,-0.95125 0.34906,-1.95187 0.41406,-2.92187 0.08,-1.235 -0.0457,-2.07313 -0.3457,-2.82813 -0.3,-0.755 -0.77453,-1.42703 -1.39454,-2.33203 -0.99,-1.44 -1.54789,-3.08273 -2.08789,-4.74023 -0.54,-1.65751 -1.06242,-3.33008 -1.98242,-4.83008 -0.59,-0.9725 -1.25617,-1.7668 -1.98633,-2.43555 -0.73015,-0.66875 -1.52492,-1.21164 -2.37304,-1.68164 -1.69625,-0.94 -3.60563,-1.58633 -5.64063,-2.36133 -2.5,-0.955 -4.80781,-2.14492 -7.10156,-3.35742 -2.29375,-1.2125 -4.57453,-2.44914 -7.01953,-3.49414 -2.44598,-1.01574 -4.99658,-1.72485 -7.5957,-2.1211 -2.59913,-0.39624 -5.24528,-0.47901 -7.88282,-0.23828 -2.255,0.13 -5.05,0.63453 -7.78125,0.76954 -1.36562,0.0675 -2.71632,0.0426 -3.97461,-0.16797 -1.25828,-0.21063 -2.42578,-0.60625 -3.42578,-1.28125 -0.87,-0.59 -1.5089,-1.29086 -2.09765,-2.03711 -0.58875,-0.74625 -1.12602,-1.5375 -1.79102,-2.3125 -0.5214,-0.62115 -1.11385,-1.17595 -1.76172,-1.6543 -0.64787,-0.47835 -1.3525,-0.87987 -2.09961,-1.19531 -0.885,-0.385 -1.77242,-0.60907 -2.63867,-0.88282 -0.86625,-0.27374 -1.70976,-0.5975 -2.50977,-1.1875 -1.52972,-1.21069 -2.94865,-2.55171 -4.24023,-4.0039 -1.29158,-1.45219 -2.45652,-3.01525 -3.48047,-4.67578 -0.5575,-0.875 -1.10101,-1.85477 -1.58008,-2.89649 -0.47906,-1.04172 -0.89265,-2.14656 -1.1914,-3.27343 -0.29875,-1.12688 -0.48344,-2.27579 -0.5,-3.40625 -0.0166,-1.13047 0.13445,-2.24243 0.50195,-3.29493 0.28,-0.8025 0.76836,-1.4439 1.38867,-1.96484 0.62031,-0.52094 1.37149,-0.92148 2.17774,-1.24023 1.6125,-0.6375 3.44304,-0.94891 4.87304,-1.25391 1.5525,-0.3275 3.1111,-0.39875 4.66407,-0.28906 1.55296,0.10968 3.10039,0.39867 4.63476,0.79492 3.06875,0.7925 6.08094,2.00797 8.96094,3.04297 2.17,0.78 4.43305,1.87984 6.74805,2.77734 1.1575,0.44875 2.32711,0.84672 3.50586,1.12891 1.17875,0.28218 2.36664,0.44859 3.55664,0.43359 l 6.83984,-0.91992 c 2.60325,-0.61663 5.17706,-1.34724 7.71289,-2.19141 2.53583,-0.84416 5.03291,-1.80243 7.48633,-2.86914 0.98,-0.505 2.00617,-0.94726 2.82617,-1.57226 0.41,-0.3125 0.76867,-0.66914 1.04492,-1.10352 0.27625,-0.43437 0.46883,-0.945 0.54883,-1.5625 0.125,-0.98 -0.0376,-1.9907 -0.33008,-2.9707 -0.2925,-0.98 -0.71437,-1.93102 -1.10937,-2.79102 -0.53,-1.16 -1.16063,-1.99437 -1.92188,-2.70312 -0.76125,-0.70875 -1.65203,-1.29032 -2.70703,-1.94532 -0.75,-0.46499 -1.38367,-1.02234 -1.93164,-1.64453 -0.54797,-0.62218 -1.01195,-1.3089 -1.42383,-2.03515 -0.82375,-1.4525 -1.44023,-3.06133 -2.11523,-4.61133 -0.46276,-1.39567 -1.20055,-2.68346 -2.16992,-3.78906 l -2.83008,-1 c -0.6475,-0.355 -1.16117,-0.73461 -1.57617,-1.14649 -0.415,-0.41187 -0.73188,-0.85625 -0.98438,-1.34375 -0.505,-0.975 -0.7543,-2.11976 -1.0293,-3.50976 -0.3,-1.5725 -0.44375,-3.16219 -0.49218,-4.76172 -0.0484,-1.59953 -0.001,-3.20969 0.0801,-4.82031 0.1625,-3.22125 0.46211,-6.44915 0.41211,-9.61914 -0.015,-1.26 -0.0452,-3.01391 -0.39648,-4.66016 -0.17562,-0.82313 -0.43211,-1.61922 -0.80664,-2.3125 -0.37453,-0.69328 -0.86758,-1.28477 -1.51758,-1.69727 -0.65,-0.4125 -1.34055,-0.44945 -2.04101,-0.25195 -0.70047,0.1975 -1.41024,0.6307 -2.09961,1.1582 -1.37875,1.055 -2.67368,2.4886 -3.63868,3.1836 -4.86,3.47 -9.58015,7.06008 -14.41015,10.58008 l -6.15039,4.37109 c -0.73667,0.96 -1.52214,1.61174 -2.35547,1.95508 -0.83334,0.34333 -1.71453,0.37685 -2.64453,0.10351 0.0996,-2.03564 0.0304,-4.07564 -0.20899,-6.09961 -0.13,-1.73 -0.44601,-3.42937 -0.72851,-5.14062 -0.2825,-1.71125 -0.53125,-3.43399 -0.53125,-5.20899 -0.01,-2.65552 0.21809,-5.30041 0.68164,-7.90429 0.46354,-2.60389 1.16213,-5.16731 2.08789,-7.65625 0.3525,-0.96847 0.38195,-1.57452 0.16601,-1.98633 -0.21593,-0.41181 -0.67766,-0.62805 -1.30468,-0.81836 -0.43577,-0.13227 -0.95157,-0.25159 -1.52149,-0.41406 -2.92039,-0.88402 -5.87232,-1.66101 -8.84765,-2.32813 -2.97534,-0.66711 -5.97393,-1.22435 -8.99219,-1.67187 l -6.46094,-0.83985 c -2.54765,-0.20989 -5.06516,-0.69406 -7.50976,-1.4414 -0.495,-0.3 -1.03493,-0.6236 -1.48243,-1.02735 -0.4475,-0.40375 -0.80273,-0.88695 -0.92773,-1.50195 -0.095,-0.4775 -0.0598,-0.94914 0.0586,-1.41211 0.11844,-0.46297 0.32125,-0.9175 0.5625,-1.35937 0.4825,-0.88375 1.11883,-1.71852 1.54883,-2.47852 0.72,-1.24 1.49563,-2.39508 2.20313,-3.58008 0.7075,-1.185 1.34687,-2.39976 1.79687,-3.75976 0.63,-1.91 0.96141,-3.76961 1.44141,-5.84961 0.24,-1.04 0.54945,-2.10594 0.7832,-3.17969 0.23375,-1.07375 0.39117,-2.15547 0.32617,-3.23047 -0.0475,-0.6225 -0.1864,-1.16242 -0.40234,-1.63867 -0.21594,-0.47625 -0.50953,-0.88977 -0.86328,-1.25977 -0.7075,-0.74 -1.65938,-1.30632 -2.73438,-1.86133 -1.2925,-0.66999 -2.64898,-1.15914 -4.04101,-1.54882 -1.39203,-0.38969 -2.82078,-0.68133 -4.25391,-0.95508 -1.43312,-0.27375 -2.87133,-0.52938 -4.28711,-0.85156 -1.41578,-0.32219 -2.80844,-0.7111 -4.14844,-1.2461 -1.74104,-0.87046 -3.41263,-1.87342 -5,-3 -1.07576,-0.65696 -2.23828,-1.14153 -3.44726,-1.44336 -1.20898,-0.30182 -2.46435,-0.41995 -3.72266,-0.3457 -2.795,0 -5.9575,0.59719 -9.03125,0.80469 -1.53687,0.10375 -3.05086,0.11117 -4.48633,-0.10352 -1.43546,-0.21469 -2.79172,-0.65164 -4.01172,-1.43164 -0.97,-0.62 -1.82609,-1.32383 -2.71484,-1.98633 -0.88875,-0.6625 -1.81101,-1.28242 -2.91601,-1.73242 -1.1,-0.44 -2.23594,-0.77195 -3.39454,-1.02539 -1.15859,-0.25344 -2.34046,-0.4293 -3.52734,-0.56055 -2.37375,-0.2625 -4.773126,-0.3439 -7.078126,-0.5039 -2.2,-0.11 -4.399844,-0.29055 -6.589844,-0.56055 -1.256414,-0.0279 -2.503171,-0.18259 -3.722656,-0.45898 -1.219486,-0.2764 -2.410995,-0.67484 -3.556641,-1.19141 -1.366913,-1.14472 -2.605701,-2.43537 -3.691406,-3.84961 -0.5825,-0.635 -1.248203,-1.05523 -1.966797,-1.33008 -0.718594,-0.27484 -1.489375,-0.40461 -2.28125,-0.45898 -1.58375,-0.10875 -3.251953,0.0845 -4.751953,0.0195 -0.1975,-0.29 -0.257422,-0.71078 -0.236328,-1.19922 0.02109,-0.48844 0.123125,-1.04562 0.25,-1.60937 0.25375,-1.1275 0.607421,-2.28266 0.607421,-2.97266 0.0175,-0.795 -0.124843,-1.56281 -0.367187,-2.3125 -0.242344,-0.74969 -0.584375,-1.48047 -0.96875,-2.19922 -0.76875,-1.4375 -1.703984,-2.82852 -2.333984,-4.22851 -1.085,-2.44 -1.93461,-5.04375 -2.94336,-7.5625 -0.504375,-1.25938 -1.048672,-2.49876 -1.68164,-3.6836 -0.632969,-1.18484 -1.354844,-2.31578 -2.214844,-3.36328 -0.18056,-0.48758 -0.494751,-0.90085 -0.892578,-1.20312 -0.397828,-0.30228 -0.880308,-0.49381 -1.398438,-0.53711 -0.309184,-0.27907 -0.705468,-0.38981 -1.083984,-0.34571 -0.378517,0.0441 -0.73786,0.24327 -0.974609,0.58594 -0.865,0.35 -1.473672,1.01742 -1.951172,1.79492 -0.4775,0.7775 -0.824922,1.66508 -1.169922,2.45508 -1.07,2.415 -1.998906,4.8325 -3.003906,7.21875 -1.005041,2.38628 -2.085119,4.74128 -3.455119,7.03128 -2.044708,3.30039 -4.190598,6.53694 -6.43164,9.70508 -2.241043,3.16814 -4.578643,6.26787 -7.009766,9.29492 -0.58292,0.74912 -1.238128,1.43601 -1.955078,2.05078 -0.71695,0.61477 -1.494937,1.15733 -2.324219,1.61914 -0.665,0.42 -1.904687,1.38281 -3.179687,2.03906 -0.6375,0.32813 -1.283594,0.57954 -1.871094,0.64844 -0.5875,0.0689 -1.117031,-0.0448 -1.519531,-0.44726 -0.505,-0.505 -0.697422,-1.27196 -0.888672,-2.06446 -0.19125,-0.7925 -0.38086,-1.60984 -0.88086,-2.21484 -0.73,-0.925 -1.495624,-1.78766 -2.203124,-2.69141 -0.707501,-0.90375 -1.357422,-1.84945 -1.857422,-2.93945 -0.485,-1.04 -0.852188,-2.11555 -1.136719,-3.21289 -0.284531,-1.09734 -0.485547,-2.21633 -0.638672,-3.3457 -0.30625,-2.25875 -0.420234,-4.55602 -0.615234,-6.79102 -0.17,-1.95 -0.273438,-3.93289 -0.710938,-5.77539 -0.21875,-0.92125 -0.520391,-1.80703 -0.955078,-2.63672 -0.434687,-0.82969 -1.003906,-1.60383 -1.753906,-2.29883 -0.79,-0.74 -1.6891406,-1.45101 -2.2753906,-2.29101 -0.293125,-0.42 -0.5085156,-0.87188 -0.5917969,-1.375 -0.083281,-0.50313 -0.035234,-1.0586 0.1972657,-1.6836 0.7615917,-1.54825 1.6515168,-3.02977 2.6601558,-4.42968 1.49,-2.42 2.939922,-4.93993 4.419922,-7.41993 0.935,-1.565 2.636563,-3.81117 4.039063,-6.20117 0.70125,-1.195 1.326406,-2.42437 1.746093,-3.625 0.419688,-1.20062 0.63336,-2.37086 0.50586,-3.44336 -0.292512,-1.95978 -0.439034,-3.93843 -0.439453,-5.91992 0.07524,-1.18847 0.01573,-2.37078 -0.167969,-3.52539 -0.183698,-1.15461 -0.492869,-2.28198 -0.919922,-3.36328 -0.427053,-1.0813 -0.972125,-2.11545 -1.626953,-3.08399 -0.654829,-0.96853 -1.418132,-1.87116 -2.285156,-2.6875 -0.591636,-0.57325 -1.205632,-1.12236 -1.830079,-1.65624 -1.387068,-1.18594 -2.834126,-2.29978 -4.25,-3.44922 -1.4158733,-1.14945 -2.7994207,-2.33551 -4.0605462,-3.66602 -0.8143474,-0.88101 -1.5522951,-1.82133 -2.2070313,-2.8125 -0.6547361,-0.99117 -1.2273406,-2.03325 -1.7128906,-3.11328 -0.4855499,-1.08003 -0.8826643,-2.19811 -1.1894531,-3.3457 -0.30678881,-1.1476 -0.52217226,-2.32372 -0.64062499,-3.51758 -0.165,-1.555 -0.0574219,-2.77821 0.36132812,-3.9082 0.41874997,-1.13 1.14851557,-2.16657 2.22851557,-3.35157 1.3100001,-1.415 2.7232032,-2.87539 4.2519532,-4.18164 1.52875,-1.30625 3.1722653,-2.45781 4.9472653,-3.25781 0.855,-0.375 1.594844,-0.4932 2.339844,-0.5332 0.745,-0.04 1.496093,-0.003 2.371093,-0.0684 0.61,-0.0425 1.178594,-0.17664 1.714844,-0.38086 0.53625,-0.20422 1.039531,-0.4775 1.519532,-0.79688 0.959999,-0.63875 1.826015,-1.46125 2.666015,-2.28125 1.22755,-1.17833 2.368095,-2.44064 3.414063,-3.77734 1.045967,-1.3367 1.997122,-2.74778 2.845703,-4.22266 0.790474,-1.54724 1.433697,-3.16162 1.925781,-4.82031 0.492084,-1.65869 0.832481,-3.36185 1.013672,-5.08984 0.24,-1.64 0.597422,-3.61688 0.701172,-5.57813 0.05188,-0.98062 0.04133,-1.95844 -0.08008,-2.88672 -0.121407,-0.92828 -0.352735,-1.8082 -0.740235,-2.5957 -0.325,-0.6475 -0.733984,-1.17688 -1.201172,-1.625 -0.467187,-0.44813 -0.993984,-0.81477 -1.552734,-1.13477 -1.1175,-0.64 -2.366875,-1.09539 -3.546875,-1.65039 -0.59,-0.2775 -1.022031,-0.55398 -1.332031,-0.84961 -0.31,-0.29562 -0.497656,-0.60984 -0.597657,-0.96484 -0.199999,-0.71 -0.05008,-1.58039 0.169922,-2.77539 0.265,-1.435 0.297344,-2.96922 0.402344,-4.48047 0.105,-1.51125 0.282891,-2.99984 0.837891,-4.33984 0.855,-2.07 1.618984,-4.2986 2.458984,-6.4961 0.84,-2.1975 1.755156,-4.36273 2.910156,-6.30273 1.035,-1.73 2.476016,-3.32133 4.009766,-4.83008 1.53375,-1.50875 3.160313,-2.93484 4.570313,-4.33984 1.539999,-1.5325 3.142421,-3.07516 4.810546,-4.57032 1.668125,-1.49515 3.402579,-2.94343 5.205078,-4.28906 1.8025,-1.34562 3.674063,-2.58797 5.617188,-3.67187 1.943125,-1.08391 3.956875,-2.00875 6.046875,-2.71875 0.73,-0.245 1.845781,-0.65274 2.988281,-0.86524 0.57125,-0.10625 1.149141,-0.16484 1.689453,-0.1289 0.540315,0.036 1.042893,0.16613 1.462893,0.43363 0.518119,0.44004 0.949187,0.96453 1.279297,1.54688 0.33011,0.58234 0.55848,1.222 0.669922,1.89257 0.73,3.01 1,6.08985 2,9.08985 0.3875,1.17125 0.872734,2.24037 1.439453,3.22265 0.566719,0.98229 1.216015,1.87844 1.93164,2.70508 1.43125,1.65328 3.12961,3.02914 4.97461,4.25977 3.69,2.46125 7.965469,4.34289 11.855469,6.71289 2.46114,1.43693 4.775691,3.1116 6.910156,5 1.325,1.225 2.297735,2.51703 3.115235,3.89453 0.8175,1.3775 1.4786,2.84125 2.1836,4.40625 0.77999,1.82 1.78124,3.35031 2.78124,5.07031 -0.99999,1.71 -2.19281,3.23266 -3.28906,4.81641 -0.54812,0.79187 -1.0732,1.59758 -1.53711,2.45117 -0.4639,0.85359 -0.86632,1.75492 -1.17383,2.73242 -0.474997,1.53 -0.596481,2.91344 -0.615231,4.30469 -0.01875,1.39125 0.06414,2.78875 -0.0059,4.34375 -0.156091,2.43486 -0.458493,4.85764 -0.904297,7.25195 -0.445803,2.39432 -1.034931,4.76002 -1.765625,7.08789 -0.82,2.81 -1.609453,5.64172 -2.189453,8.51172 -0.095,0.475 -0.242656,1.125 -0.316406,1.78125 -0.07375,0.65625 -0.07305,1.31836 0.126953,1.81836 0.175,0.435 0.464219,0.78524 0.824219,1.07617 0.36,0.29094 0.790547,0.52196 1.248047,0.72071 0.915,0.3975 1.936797,0.66195 2.716797,1.00195 2.490006,1.08 4.850076,2.42125 7.330076,3.53125 1.48363,0.64214 3.03086,1.10735 4.61133,1.39258 1.58047,0.28522 3.1941,0.38967 4.8086,0.30664 2.26896,0.0339 4.53757,-0.0663 6.79296,-0.29883 1.07248,-0.11056 2.14154,-0.24939 3.20704,-0.41992 4.59,-0.85 9.19929,-1.79117 13.77929,-2.70117 3.215,-0.635 6.41032,-1.72415 9.63282,-2.55665 1.61125,-0.41624 3.23039,-0.76835 4.86132,-0.96679 1.63094,-0.19844 3.275,-0.24438 4.9375,-0.0469 1.0675,0.1275 2.02907,0.54289 2.89844,1.14649 0.86938,0.60359 1.6468,1.39601 2.3418,2.27539 1.39,1.75875 2.45406,3.8693 3.28906,5.52929 1.39,2.84 2.77062,5.68016 4.39062,8.41016 0.63001,1.055 1.34422,2.35984 2.13672,3.58984 0.7925,1.23001 1.66352,2.38368 2.60352,3.13868 0.8,0.63 1.48898,1.1125 2.20898,1.3125 0.36,0.1 0.7286,0.13039 1.1211,0.0723 0.3925,-0.0581 0.80953,-0.20312 1.26953,-0.45312 0.825,-0.46 1.25906,-0.92828 1.60156,-1.45703 0.3425,-0.52875 0.59383,-1.11922 1.04883,-1.82422 0.54,-0.84 1.25578,-1.56172 2.01953,-2.26172 0.76375,-0.7 1.57383,-1.37891 2.29883,-2.12891 1.45,-1.5 2.79117,-3.1082 4.20117,-4.6582 1.16542,-1.03523 2.20542,-2.20363 3.09961,-3.48047 0.54,-1.02 0.78023,-2.34969 1.24023,-3.42969 1.40303,-3.2595 3.10364,-6.38278 5.08008,-9.33008 1.51,-2.31 3.05992,-4.59984 4.66992,-6.83984 -0.445,0.62 0.25563,-0.43117 1.17188,-1.63867 0.91625,-1.2075 2.04875,-2.57203 2.46875,-2.58203 0.42,-0.01 0.9525,0.38 1.46875,0.8125 0.51625,0.4325 1.01609,0.90836 1.37109,1.06836 2.55701,1.13611 5.1967,2.07108 7.89844,2.79883 1.925,0.53 3.86016,0.94117 5.78516,1.38867 1.925,0.4475 3.84156,0.93133 5.72656,1.61133 1.37,0.495 2.75586,1.10789 4.16211,1.65039 1.40625,0.5425 2.83234,1.01546 4.27734,1.23046 1.34,0.2 3.06289,-0.0387 4.74414,-0.45117 1.68125,-0.4125 3.3211,-1 4.4961,-1.5 2.16,-0.93 4.16015,-2.18882 6.16015,-3.29883 1.05,-0.57 1.84961,-1.2914 2.84961,-1.9414 1.75335,-1.04258 3.5697,-1.97346 5.43946,-2.78906 1.18,-0.6 2.55734,-1.08977 3.74609,-1.75977 0.59437,-0.335 1.14203,-0.71453 1.59375,-1.17578 0.45172,-0.46125 0.80703,-1.00406 1.01953,-1.66406 0.2125,-0.66 0.29766,-1.29032 0.29297,-1.90625 -0.005,-0.61594 -0.0979,-1.21711 -0.24414,-1.81836 -0.2925,-1.2025 -0.79227,-2.40657 -1.19727,-3.72656 -0.94,-3.04 -1.64008,-6.18907 -2.33008,-9.28907 -0.275,-1.26 -0.43039,-2.6732 -0.65039,-4.06445 -0.22,-1.39125 -0.50601,-2.76055 -1.04101,-3.93555 -0.3175,-0.6925 -0.75539,-1.19953 -1.27149,-1.58593 -0.51609,-0.38641 -1.1089,-0.65211 -1.73828,-0.86524 -1.25875,-0.42625 -2.65937,-0.63992 -3.85937,-1.16992 -0.44,-0.195 -1.35992,0.0741 -2.29492,0.43164 -0.935,0.3575 -1.88477,0.80375 -2.38477,0.96875 -2.16149,0.93733 -4.41392,1.6519 -6.7207,2.13086 -1.43,0.2 -2.83953,-0.0408 -4.26953,0.19922 -1.145,0.195 -2.6068,0.58039 -4.06055,0.80664 -0.72688,0.11312 -1.45305,0.18562 -2.13477,0.17578 -0.68171,-0.01 -1.32,-0.10227 -1.875,-0.32227 -0.985,-0.405 -1.90171,-1.05922 -2.79296,-1.76172 -0.89126,-0.70249 -1.75672,-1.45382 -2.63672,-2.04882 -1.4,-0.94 -2.46352,-1.7411 -3.35352,-2.6836 -0.89,-0.9425 -1.60641,-2.02539 -2.31641,-3.52539 -1.05,-2.18 -1.36101,-4.56078 -2.29101,-6.80078 -0.655,-1.575 -1.18899,-3.02156 -1.36524,-4.47656 -0.0881,-0.7275 -0.0859,-1.45695 0.0352,-2.20508 0.12109,-0.74812 0.36,-1.51586 0.75,-2.31836 0.34,-0.6875 0.79492,-1.39062 1.33398,-2.05859 0.53907,-0.66797 1.16391,-1.30078 1.84766,-1.84766 0.68375,-0.54687 1.42516,-1.00781 2.19922,-1.33203 0.77406,-0.32422 1.58062,-0.51172 2.39062,-0.51172 0.72092,0.0604 1.41831,0.25188 2.06055,0.55859 0.64225,0.30672 1.22841,0.72921 1.72852,1.25196 1.075,0.9 2.07836,1.36515 3.16211,1.59765 1.08375,0.2325 2.24843,0.23313 3.64843,0.20313 1.6225,-0.03 3.24133,-0.20031 4.85743,-0.45313 1.61609,-0.25281 3.22851,-0.58937 4.83789,-0.95312 3.21875,-0.7275 6.42523,-1.56445 9.61523,-2.06445 1.33,-0.205 3.20828,-0.65766 5.05078,-0.84766 0.92125,-0.095 1.835,-0.12344 2.66406,-0.0234 0.82907,0.1 1.57407,0.3275 2.16407,0.75 0.36932,0.37219 0.70403,0.77813 1,1.21094 0.51857,0.64661 1.12518,1.2115 1.79883,1.67969 0.67365,0.46819 1.41434,0.83897 2.20117,1.09961 1.3,0.3825 2.65383,0.69351 4.0332,0.91601 1.37938,0.2225 2.78445,0.35813 4.18945,0.39063 1.405,0.0325 2.80868,-0.0391 4.18555,-0.22656 1.37688,-0.1875 2.72648,-0.49219 4.02149,-0.92969 0.895,-0.3 1.76585,-0.71055 2.56835,-1.2168 0.8025,-0.50625 1.53766,-1.10797 2.16016,-1.79297 0.6225,-0.685 1.13328,-1.45281 1.48828,-2.28906 0.355,-0.83625 0.55469,-1.74117 0.55469,-2.70117 0,-1.0325 -0.13273,-1.9793 -0.38867,-2.84961 -0.25594,-0.87031 -0.63516,-1.66297 -1.12891,-2.38672 -0.49375,-0.72375 -1.10297,-1.37984 -1.8164,-1.97266 -0.71344,-0.59281 -1.53227,-1.12406 -2.44727,-1.60156 -1.6975,-0.8825 -3.84008,-1.83906 -6.01367,-2.9375 -2.1736,-1.09844 -4.37844,-2.33836 -6.19532,-3.78711 -0.90843,-0.72437 -1.7197,-1.50074 -2.38281,-2.33789 -0.6631,-0.83715 -1.17656,-1.73445 -1.49023,-2.70117 -0.31367,-0.96672 -0.42697,-2.00215 -0.28711,-3.11524 0.13986,-1.11308 0.53297,-2.30382 1.23047,-3.58007 0.7125,-1.31 1.59258,-2.29657 2.59179,-3.06641 0.99922,-0.76984 2.11641,-1.32375 3.30079,-1.76563 2.36875,-0.88374 5.00586,-1.32296 7.50586,-2.16796 2.05,-0.65 4.05078,-1.23 6.05078,-2 1.05297,-0.53304 2.14212,-0.99195 3.25976,-1.3711 0.4525,-0.105 0.83391,-0.11086 1.17578,-0.0488 0.34188,0.062 0.645,0.19321 0.9375,0.36133 0.585,0.33625 1.13172,0.82375 1.88672,1.21875 1.59062,0.90707 3.27628,1.621 5.02149,2.13281 1.7452,0.51182 3.55033,0.82034 5.3789,0.91602 2.94585,-0.10898 5.86921,-0.54382 8.71875,-1.29883 0.98974,-0.20869 1.95171,-0.52558 2.86719,-0.9414 0.91548,-0.41582 1.78539,-0.93104 2.59375,-1.53907 0.58884,-0.49669 1.11153,-1.06211 1.55664,-1.68359 0.44511,-0.62148 0.81305,-1.29824 1.09375,-2.01563 0.56597,-1.4724 0.99935,-2.98865 1.29883,-4.53124 0.29948,-1.5426 0.46413,-3.11224 0.49023,-4.68946 0,-0.80563 -0.0695,-1.54737 -0.22461,-2.23242 -0.18234,-0.80542 -0.48227,-1.53118 -0.92773,-2.1875 -0.44547,-0.65632 -1.03562,-1.24332 -1.79688,-1.76953 -1.29,-0.88 -2.79,-1.17 -4,-2 -0.505,-0.325 -0.92289,-0.82539 -1.30664,-1.36914 -0.38375,-0.54375 -0.73351,-1.13086 -1.10351,-1.63086 -0.99014,-1.61961 -2.14222,-3.13364 -3.43946,-4.51953 -1.12,-1.035 -2.36023,-1.96071 -3.45898,-3.00196 -0.54937,-0.52062 -1.06367,-1.0707 -1.50976,-1.67773 -0.4461,-0.60703 -0.82407,-1.27148 -1.10157,-2.02148 -0.2625,-0.7125 -0.40539,-1.41016 -0.44726,-2.09375 -0.0419,-0.6836 0.0177,-1.35344 0.16015,-2.00782 0.285,-1.30875 0.90203,-2.55804 1.70703,-3.74804 1.46923,-2.13258 3.0794,-4.16124 4.81836,-6.07227 1.73897,-1.91103 3.60689,-3.70387 5.5918,-5.36719 1.625,-1.35 3.4375,-2.49164 5.3125,-3.52539 1.53318,-0.84529 3.10197,-1.59944 4.65039,-2.35937 0.27828,-0.16395 0.53863,-0.3615 0.83789,-0.48047 0.55057,-0.21888 1.13271,-0.35959 1.72852,-0.41602 0.44821,-0.005 0.88332,0.15606 1.2207,0.45117 0.19245,0.21402 0.42273,0.38989 0.67969,0.51954 0.6463,0.0927 1.29878,-0.1179 1.76953,-0.57032 0.4116,-0.39322 0.77994,-0.82977 1.09961,-1.30078 0.21,-0.27 0.36086,-0.45859 0.63086,-0.80859 0.27,-0.35 0.57008,-0.66 0.83008,-1 0.6575,-0.8775 1.17007,-1.38274 1.63476,-1.68945 0.46469,-0.30672 0.88141,-0.41618 1.34766,-0.49805 0.46625,-0.0819 0.98234,-0.13688 1.64453,-0.33985 0.66219,-0.20296 1.47094,-0.55265 2.52344,-1.22265 1.735,-1.105 3.59742,-2.43484 5.57617,-3.37109 0.98937,-0.46813 2.00664,-0.8393 3.05273,-1.03321 1.0461,-0.1939 2.12071,-0.21156 3.22071,0.0234 2.02301,0.56558 4.0041,1.27193 5.92968,2.11133 1.56191,0.63887 3.1875,1.10665 4.84961,1.39844 0.96133,0.0404 1.91309,0.20859 2.83008,0.5 1.77,0.62999 3.46969,1.75148 5.17969,2.52148 1.13913,0.44038 2.24584,0.9603 3.31055,1.55859 0.86,0.41 1.72054,0.92016 2.56054,1.41016 0.62,0.1475 1.17547,0.0459 1.67578,-0.21484 0.50032,-0.26079 0.94555,-0.67985 1.3418,-1.16797 0.7925,-0.97625 1.39133,-2.22735 1.86133,-3.02735 1.395,-2.375 2.92578,-5.20945 4.08203,-8.1582 0.57813,-1.47437 1.06297,-2.97688 1.39063,-4.46484 0.32765,-1.48797 0.49726,-2.96196 0.44726,-4.37696 -0.045,-1.24 -0.3368,-2.31234 -0.7793,-3.33984 -0.4425,-1.0275 -1.03468,-2.01031 -1.67968,-3.07031 -1.29,-2.12 -2.48032,-4.2893 -3.57032,-6.529299 -0.45371,-0.810402 -0.8025,-1.670318 -1.04101,-2.560547 -0.23851,-0.890228 -0.36666,-1.81155 -0.37891,-2.740234 0.1175,-0.38 0.31203,-0.633906 0.5586,-0.804688 0.24656,-0.170781 0.54539,-0.258203 0.86914,-0.298828 0.6475,-0.08125 1.39797,0.01937 2.04296,-0.01563 1.95501,-0.095 4.28133,-0.305312 6.54883,-0.195312 1.13375,0.055 2.25305,0.189609 3.30274,0.458984 1.04969,0.269375 2.03117,0.673125 2.88867,1.265625 1.34,0.92 2.45852,2.220703 3.72852,3.220703 1.49407,1.117357 3.08354,2.1006 4.75,2.939456 0.76212,0.60225 1.64559,1.0319 2.58984,1.25977 0.3875,-0.05 0.87445,-0.45141 1.39258,-1.03516 0.51812,-0.583753 1.06758,-1.349456 1.58008,-2.126956 1.02499,-1.555001 1.90289,-3.157266 2.08789,-3.447266 1,-1.56 1.97757,-3.093281 2.83007,-4.675781 0.8525,-1.5825 1.58008,-3.21461 2.08008,-4.97461 0.64,-2.29 1.86922,-4.360078 2.69922,-6.580078 0.38,-1.005 0.6468,-2.037891 0.81836,-3.087891 0.17156,-1.049999 0.24875,-2.116953 0.25,-3.189453 0.002,-2.145045 -0.29805,-4.312154 -0.74805,-6.412154 -0.14226,-0.978606 -0.42989,-1.925337 -0.84961,-2.808594 -0.41971,-0.883256 -0.97175,-1.703272 -1.64062,-2.43164 -0.94,-0.95 -2.25914,-1.525547 -3.52539,-2.154297 -0.63313,-0.314375 -1.25266,-0.642266 -1.80469,-1.03711 -0.55203,-0.394843 -1.03594,-0.855 -1.39844,-1.4375 -0.4575,-0.7325 -0.65765,-1.528125 -0.67968,-2.347656 -0.022,-0.819531 0.13289,-1.662969 0.38476,-2.496094 0.50375,-1.66625 1.39344,-3.286406 2.02344,-4.566406 0.535,-1.12 1.17875,-2.217656 1.75,-3.347656 0.57125,-1.13 1.07031,-2.292969 1.32031,-3.542969 0.58614,-2.674071 1.00056,-5.38233 1.24024,-8.109375 0.075,-0.95 -0.0402,-1.52164 -0.22266,-2.056641 -0.1825,-0.535 -0.43195,-1.033749 -0.62695,-1.84375 -0.36,-1.479999 -0.33243,-3.041875 -0.29493,-4.609374 0.0375,-1.5675 0.0856,-3.140626 -0.23437,-4.640626 -0.15364,-0.930644 -0.43967,-1.830031 -0.84375,-2.671874 -0.40409,-0.841844 -0.92662,-1.626145 -1.55664,-2.328126 -0.32,-0.365 -0.90766,-0.779453 -1.37891,-1.251953 -0.23562,-0.23625 -0.44273,-0.487968 -0.57226,-0.753906 -0.12953,-0.265937 -0.18188,-0.54625 -0.10938,-0.84375 0.165,-0.695 1.06461,-1.5585936 2.03711,-2.3398436 0.9725,-0.78125 2.01766,-1.4815625 2.47266,-1.8515625 1.285,-1.025 2.64617,-2.1725782 4.07617,-3.2050781 1.43,-1.0325 2.92914,-1.9486719 4.49414,-2.51367195 0.6875,-0.245 1.37734,-0.33078126 2.06641,-0.30859376 z"
     style="fill:none;stroke:#231f20;stroke-linecap:round;stroke-linejoin:round;stroke-opacity:1;paint-order:fill markers stroke" />
</svg>
