<?xml version="1.0" encoding="UTF-8" standalone="no"?>
<!-- Created with Inkscape (http://www.inkscape.org/) -->

<svg
   id="svg5"
   version="1.1"
   viewBox="0 0 357.18749 238.12501"
   height="900"
   width="1350"
   xmlns="http://www.w3.org/2000/svg"
   xmlns:svg="http://www.w3.org/2000/svg">
  <defs
     id="defs2" />
  <g
     id="layer3">
    <path
       style="display:inline;fill:#ffffff;fill-opacity:1;stroke:none;stroke-width:3.348;stroke-linecap:butt;stroke-linejoin:miter;stroke-miterlimit:4;stroke-dasharray:none;stroke-opacity:1;paint-order:normal"
       d="M -2.45e-6,8e-7 V 238.125 H 357.18752 V 8e-7 Z"
       id="path2291-8" />
  </g>
  <g
     id="g5217"
     style="display:inline"
     transform="translate(2.45e-6,-0.6013308)">
    <path
       id="path2291-8-6"
       style="display:inline;fill:#d40000;fill-opacity:1;stroke:none;stroke-width:1.116;stroke-linecap:butt;stroke-linejoin:miter;stroke-miterlimit:4;stroke-dasharray:none;stroke-opacity:1;paint-order:normal"
       d="M 50.632591,27.059656 94.056292,53.517988 H 357.18751 V 27.059656 Z" />
    <path
       id="path2291-8-6-5-9"
       style="display:inline;fill:#d40000;fill-opacity:1;stroke:none;stroke-width:1.116;stroke-linecap:butt;stroke-linejoin:miter;stroke-miterlimit:4;stroke-dasharray:none;stroke-opacity:1;paint-order:normal"
       d="m 140.24469,79.976321 46.9687,26.458329 H 357.18751 V 79.976321 Z" />
    <path
       id="path2291-8-6-5-9-5-2"
       style="display:inline;fill:#d40000;fill-opacity:1;stroke:none;stroke-width:1.116;stroke-linecap:butt;stroke-linejoin:miter;stroke-miterlimit:4;stroke-dasharray:none;stroke-opacity:1;paint-order:normal"
       d="m 187.22373,132.89299 -47.8317,26.45832 h 217.79548 v -26.45832 z" />
    <path
       id="path2291-8-6-5-9-5-2-2"
       style="display:inline;fill:#d40000;fill-opacity:1;stroke:none;stroke-width:1.116;stroke-linecap:butt;stroke-linejoin:miter;stroke-miterlimit:4;stroke-dasharray:none;stroke-opacity:1;paint-order:normal"
       d="M 92.433655,185.80965 48.203797,212.26798 H 357.18751 v -26.45833 z" />
  </g>
  <g
     id="layer4"
     style="display:inline;opacity:1"
     transform="translate(2.45e-6,-0.60133081)">
    <path
       id="path2812-7-8"
       style="opacity:1;fill:#d40000;fill-opacity:1;stroke:none;stroke-width:13.4488;stroke-linecap:butt;stroke-linejoin:miter;stroke-miterlimit:4;stroke-dasharray:none;stroke-opacity:1;paint-order:stroke markers fill"
       d="m 65.390073,62.268348 c -0.43668,0.12816 -2.93517,3.932519 -6.265934,6.700433 -6.399963,5.318442 -4.531882,9.695277 -2.33311,12.767544 0.47643,0.66598 0.93661,1.33951 1.378543,2.021048 0,0 4.851728,-1.280614 7.336362,-1.294276 2.484657,-0.0144 7.29292,1.232388 7.29292,1.232388 0.479871,-0.711144 0.98235,-1.418454 1.508877,-2.119792 2.475063,-3.295472 4.559598,-7.913808 -2.448963,-13.022973 -3.556111,-2.592365 -6.032223,-6.191298 -6.468695,-6.284372 z m -28.556801,8.185613 c -0.28672,0.29534 -0.35328,4.610101 -1.75114,8.491072 -2.723369,7.561083 0.49634,10.336224 4.322559,12.219807 0.73821,0.3636 1.466147,0.74106 2.184317,1.131012 0,0 3.578242,-3.445119 5.66027,-4.675419 2.082033,-1.230309 6.599052,-2.605652 6.599052,-2.605652 0.0063,-0.81207 0.0306,-1.62657 0.0738,-2.443697 0.223465,-4.234838 -0.626243,-8.371121 -8.696511,-9.585207 -4.142319,-0.62316 -7.992757,-2.638548 -8.392325,-2.531916 z m 57.408519,0.21857 c -0.39861,-0.1094 -4.263422,1.878853 -8.40812,2.472664 -8.074903,1.156896 -8.957218,5.284323 -8.767561,9.520695 0.0364,0.81741 0.0538,1.632869 0.054,2.445016 0,0 4.731804,1.527123 6.796534,2.786034 2.121539,1.293507 5.408807,4.584564 5.408807,4.584564 0.720846,-0.38484 1.452825,-0.75681 2.193525,-1.115199 3.839166,-1.856475 7.076313,-4.609836 4.40946,-12.190849 -1.368828,-3.8912 -1.402362,-8.205548 -1.686645,-8.502925 z M 65.346617,86.045739 A 33.43875,33.122322 0 0 0 31.909004,119.16735 33.43875,33.122322 0 0 0 65.346617,152.29027 33.43875,33.122322 0 0 0 98.78554,119.16735 33.43875,33.122322 0 0 0 65.346617,86.045739 Z M 30.00118,87.799533 c -1.350323,0.0033 -2.942437,0.29349 -4.837366,0.951939 -3.890525,1.351809 -8.193926,1.372086 -8.492385,1.656333 -0.11179,0.39951 1.844382,4.280517 2.410782,8.437087 1.103497,8.098058 5.224614,8.977918 9.448273,8.793898 0.81497,-0.035 1.626418,-0.052 2.435802,-0.051 0,0 1.544575,-4.71842 2.81368,-6.77285 1.303712,-2.109858 4.614851,-5.371328 4.614851,-5.371328 -0.37875,-0.72344 -0.744479,-1.457263 -1.096765,-2.201068 -1.368779,-2.891358 -3.245889,-5.453874 -7.296872,-5.443038 z m 70.94367,0.26856 c -4.050309,-0.0414 -5.946006,2.508795 -7.335048,5.390343 -0.35748,0.74124 -0.72873,1.472476 -1.112553,2.193546 0,0 3.466737,3.55014 4.707009,5.622078 1.240263,2.07196 2.630655,6.57668 2.630655,6.57668 0.809367,0.005 1.621077,0.029 2.435787,0.071 4.22234,0.2186 8.35191,-0.6277 9.5128,-8.721498 0.5959,-4.15433 2.57905,-8.022074 2.47004,-8.422592 -0.2965,-0.28674 -4.59878,-0.34092 -8.47922,-1.722186 -1.89001,-0.67275 -3.47935,-0.97392 -4.82947,-0.98748 z M 65.185998,92.717214 A 26.863535,26.851847 0 0 1 92.04958,119.56895 26.863535,26.851847 0 0 1 65.185998,146.42199 26.863535,26.851847 0 0 1 38.323723,119.56895 26.863535,26.851847 0 0 1 65.185998,92.717214 Z M 22.164486,108.39716 c -2.139201,0.043 -4.571688,1.16062 -7.26,4.35943 -2.800722,3.33258 -6.6317699,5.83929 -6.7649407,6.27911 0.00666,0.034 0.03357,0.079 0.079,0.1369 0.621141,0.6987 4.0733227,3.08927 6.6490767,6.18431 5.350814,6.42951 9.710884,4.52558 12.757006,2.32255 0.66151,-0.4784 1.331413,-0.9393 2.009206,-1.38246 0,0 -1.249473,-4.56916 -1.304797,-7.1244 1.91e-4,-0.072 3.6e-5,-0.1453 0.0013,-0.2147 0.0459,-2.48604 1.340356,-7.06779 1.340356,-7.06777 -0.67562,-0.44628 -1.343375,-0.91035 -2.00263,-1.39162 -1.518073,-1.10883 -3.364385,-2.14342 -5.503592,-2.10142 z m 86.468274,0.3357 c -2.13966,-0.06 -3.99401,0.9604 -5.52069,2.0566 -0.6631,0.476 -1.33512,0.9337 -2.0145,1.37457 0,0 1.20677,4.33823 1.27716,7.00851 2.4e-4,0.1174 -2.7e-4,0.2306 -0.003,0.3384 -0.055,2.48456 -1.36406,7.06122 -1.36406,7.06122 0.674,0.4487 1.33975,0.9147 1.99737,1.39827 3.02886,2.22807 7.37227,4.16372 12.76753,-2.21065 2.81016,-3.32015 6.64766,-5.80993 6.78206,-6.24884 -0.013,-0.066 -0.1064,-0.1797 -0.262,-0.3384 -0.8614,-0.7978 -4.19385,-3.30642 -6.43046,-6.01311 -2.666,-3.22641 -5.09005,-4.36642 -7.22972,-4.42662 z m -80.948881,21.78658 c -3.936948,-0.045 -7.629435,1.1859 -8.695148,8.77546 -0.58348,4.15531 -2.555213,8.03044 -2.445018,8.43052 0.29732,0.2858 4.60111,0.3243 8.485802,1.6932 7.568358,2.66691 10.31065,-0.5922 12.151354,-4.43973 0.3553,-0.7423 0.7243,-1.47395 1.10599,-2.19617 0,0 -3.47745,-3.54084 -4.724139,-5.60894 -1.246691,-2.06801 -2.651737,-6.56732 -2.651737,-6.56732 -0.80935,-0.002 -1.622281,-0.023 -2.437113,-0.063 -0.26395,-0.013 -0.52752,-0.022 -0.78999,-0.025 z m 75.239891,0.2896 c -0.2625,6.7e-4 -0.526,0.006 -0.79,0.017 -0.815,0.032 -1.62774,0.047 -2.437122,0.043 0,0 -1.557972,4.71181 -2.833425,6.76229 -1.310229,2.1064 -4.631967,5.35877 -4.631967,5.35877 0.37665,0.725 0.74007,1.46055 1.09017,2.20538 1.813617,3.86054 4.533246,7.1375 12.121064,4.52795 3.89471,-1.33945 8.19837,-1.34549 8.49767,-1.6287 0.1129,-0.3991 -1.83178,-4.28622 -2.38579,-8.44367 -1.01187,-7.59321 -4.69385,-8.85284 -8.63065,-8.841 z m -61.455893,15.13502 c -0.71976,0.387 -1.449918,0.7598 -2.189587,1.12046 -3.833722,1.8679 -7.063233,4.63136 -4.372591,12.20403 1.381051,3.88692 1.427688,8.20113 1.712961,8.49764 0.399,0.108 4.257818,-1.89154 8.401534,-2.49768 8.072991,-1.18094 8.942513,-5.31126 8.738604,-9.54702 -0.0392,-0.8173 -0.0603,-1.63291 -0.0632,-2.44502 0,0 -4.735827,-1.51234 -6.804435,-2.76496 -2.125537,-1.28714 -5.423295,-4.56756 -5.423292,-4.56756 z m 47.55998,0.1844 c 0,0 -3.588926,3.43436 -5.674761,4.65828 -2.085813,1.22397 -6.606936,2.58458 -6.606936,2.58458 -0.009,0.8119 -0.0369,1.62671 -0.083,2.44371 -0.23778,4.23411 0.59802,8.37343 8.666167,9.61154 4.141237,0.6355 7.987064,2.66237 8.387051,2.55695 0.28773,-0.2946 0.36738,-4.60926 1.777446,-8.48585 2.747142,-7.55257 -0.46368,-10.33672 -4.284378,-12.23167 -0.73719,-0.3658 -1.464664,-0.7455 -2.18168,-1.13759 z m -31.017607,8.42506 c -0.4451,0.6795 -0.90829,1.35069 -1.387746,2.01448 -2.21315,3.0626 -4.100495,7.43096 2.268585,12.77544 3.314262,2.78111 5.790981,6.59431 6.226433,6.72415 0.0503,-0.009 0.12911,-0.068 0.23436,-0.1672 0.804669,-0.8156 3.104585,-4.05854 6.060531,-6.49766 6.4224,-5.2995 4.567469,-9.68302 2.379186,-12.76228 -0.47421,-0.6676 -0.93234,-1.34196 -1.371951,-2.025 0,0 -4.417078,1.2073 -7.067775,1.26526 -0.0946,1.9e-4 -0.18684,-0.001 -0.27517,-0.003 -2.480229,-0.045 -7.066461,-1.32449 -7.066452,-1.32449 z" />
  </g>
</svg>
