<svg xmlns="http://www.w3.org/2000/svg" viewBox="0 0 905.96 497.86"><defs><style>.cls-1{fill:none;stroke:#231f20;stroke-miterlimit:10;}</style></defs><g id="Layer_2" data-name="Layer 2"><g id="Districts"><path id="Ardenti_Terra" data-name="Ardenti Terra" class="cls-1" d="M905.68,250.17,538.13.58.61,273.77,71.86,497.36,438.92,497h0a15.68,15.68,0,0,1-2.4-4.49c-.43-1.39-1-2.8-.47-4.23.88-2.19,3.54-3.6,5.45-4.79,3.27-2,6.95-2.85,10.39-4.44a19.47,19.47,0,0,0,6.53-5.51c.81-1,2.77-2.81,2.25-4.25-.39-1.11-1.67-1.6-2.07-2.73a9.14,9.14,0,0,1-.06-3.46,48.41,48.41,0,0,1,.76-4.8,25.93,25.93,0,0,1,1.32-5,16.36,16.36,0,0,1,2.79-4.07,51.76,51.76,0,0,1,4.7-5.12,92.18,92.18,0,0,1,17.77-13,12.47,12.47,0,0,1,9.2-1.35c5.79,1.19,11.67-1.54,16.8-3.93,6.33-3,12.55-6.12,18.83-9.17,1.15-.56,2.3-1.1,3.42-1.72a29.51,29.51,0,0,0,6.14-4.84,28.68,28.68,0,0,0,6.53-9,18.22,18.22,0,0,0,1.05-4.09c.57-3.16,3.29-9.93,3.29-9.93.5-2.54,1.1-5.06,1.67-7.59.47-2.08,1.2-4.13,1.59-6.23a9.86,9.86,0,0,0,0-1.33,12.55,12.55,0,0,1,.48-1.77c.11-.47.28-.95.37-1.43a5,5,0,0,0-.15-1.67,31,31,0,0,0-.89-5.92A5.69,5.69,0,0,0,552.9,359a4.34,4.34,0,0,1-1.27-1.58,5.82,5.82,0,0,1,.31-3.42c.36-1.14.85-2.25,1.17-3.41.23-.83.39-1.68.62-2.51.36-1.28.75-2.62,1.2-3.88a4.59,4.59,0,0,1,.82-1.14c.32-.44.57-.93.89-1.36s.85-1.1,1.31-1.6a8.82,8.82,0,0,1,1.4-1.12c1.64-1.15,3.34-2.22,5-3.35a21.64,21.64,0,0,0,4.49-3.82,7.06,7.06,0,0,1,1.21-1.44c.45-.29,1-.14,1.52-.15,1.56,0,3.06-.95,4.65-.81a4,4,0,0,1,1.53.61,5.89,5.89,0,0,0,3.76.22c1.72-.32,3.34-1,5-1.42a8.17,8.17,0,0,1,1.53-.32,1.87,1.87,0,0,0,.53,0,6.59,6.59,0,0,0,1.29-.67,23.3,23.3,0,0,0,3.25-2.43c1.88-1.55,3.66-3.24,5.39-5a34.46,34.46,0,0,0,4.08-4.78,3.91,3.91,0,0,0,.83-1.95,2.51,2.51,0,0,0-.06-.55,3,3,0,0,1,0-1.27,29,29,0,0,1,2.24-6.57,31.54,31.54,0,0,1,1.91-3.7,2.28,2.28,0,0,1,1.59-1.06,44.27,44.27,0,0,1,4.85-1c1.73-.28,4-.68,5.69.18,1.23.64,1.59,2.39,2.52,3.31a3.27,3.27,0,0,0,2.43.76,18.11,18.11,0,0,0,4.4-.44c2.11-.41,4.36-1.15,6.54-1,1.28.09,2.08.76,3.25,1.2a6,6,0,0,0,3,0,36.86,36.86,0,0,0,5.2-1.16c2.81-.82,5.55-1.82,8.33-2.72,1.21-.39,2.47-.6,3.68-1a26.58,26.58,0,0,0,6.16-3.16c.56-.39,1.52-.92,1.47-1.73a2.64,2.64,0,0,0-.14-.48,2.07,2.07,0,0,1,.28-1.55c1.71-3.76,5.09-6.26,8-9,1.19-1.1,2.37-2.7.78-4a4.31,4.31,0,0,0-1-.63,5.29,5.29,0,0,1-1.06-.36c-.88-.63.52-1.5,1.07-1.77a10.44,10.44,0,0,1,3.57-1.14,29.1,29.1,0,0,1,4.82.58c1.46.16,3.33-.08,4.68.59s1.21,2,1.53,3.1a4.54,4.54,0,0,0,1.81,2.41,8.75,8.75,0,0,1,2.19,2.73,6.75,6.75,0,0,0,2,2.67c1.2.79,2.79.58,4.08,1.15,1.13.5,1.82,1.48,3.16,1.47a14.73,14.73,0,0,0,2.51-.33c.67-.11,2-.64,2.62-.27l.3.1a1.62,1.62,0,0,1,.05,1.36c-.25,1.28-.68,2.52-.84,3.83a5.68,5.68,0,0,0,.07,2.17c.28,1,1.34,1.61,2.12,2.15a7.18,7.18,0,0,1,1.53,1.2,21.82,21.82,0,0,1,1.72,3.11,4.48,4.48,0,0,0,1.18,1.51,8.21,8.21,0,0,0,2.3.87,26,26,0,0,1,3.87,1.86c2.18,1,4.87-.05,7-.79.81-.29,1.58-.64,2.38-.95a4.65,4.65,0,0,0,1.28-.59,12.49,12.49,0,0,0,1.18-1.23,49.3,49.3,0,0,0,3.39-4c.37-.5,1.13-1.34,1.17-2a2.86,2.86,0,0,0-.86-1.94c-1.45-1.92-.1-4.67.55-6.65a54.57,54.57,0,0,1,1.85-5.16c1-2.28,3-4.06,4.59-5.94a17.21,17.21,0,0,1,4.29-3.64,24.48,24.48,0,0,1,6.47-2.18c5.72-2.89,11.72-5.08,17.37-8.15,3.31-1.79,6.77-3.19,10-4.95,2.91-1.58,4.95-4.16,7.31-6.39a26.89,26.89,0,0,1,4.12-3,5.44,5.44,0,0,1,1.61-.77,9.38,9.38,0,0,1,3.21-.45c.74.15,1.18.79,1.75,1.23s1.33.79,1.94,1.27c.83.64,1.47,1.47,2.3,2.12,1.6,1.26,2.44.75,4.2,0,2.25-1,4.77-1,7.12-1.68a29.21,29.21,0,0,0,7.25-3.33,22.32,22.32,0,0,1,5.07-2.22,8.9,8.9,0,0,0,2.94-1.9c1.85-1.53,3.64-3.16,5.45-4.75s3.29-3.62,5.16-5.1c.9-.72,1.27-1.41,2.12-2.16,1.28-1.14,3.29-2.93,5.08-3.16,1-.13,1.1.19,2,.48a23.06,23.06,0,0,0,5.1.65c5,.43,12-.65,15.79,3.42,2.07,2.23,3.14,5.38,3.88,8.23.39,1.52,1.4,3.1,1.42,4.71,0,2-.93,3.89-.75,5.91.3,3.31,4.63,2.1,6.79,1.85a8.73,8.73,0,0,1,5.55.91c2.17,1.09,4.35.76,6.65.15a75.71,75.71,0,0,0,12.15-4.87"/></g></g></svg>