<svg xmlns="http://www.w3.org/2000/svg" viewBox="0 0 505.35 658.78"><defs><style>.cls-1{fill:none;stroke:#231f20;stroke-miterlimit:10;}</style></defs><g id="Layer_2" data-name="Layer 2"><g id="Districts"><path id="Avalon" class="cls-1" d="M505,153c-6.16-1.54-12.35-4.22-16.86-8.79-.67-.68-1.25-1.39-2-2-3.57-3-8.43-3.87-11.35-7.79-3.88-5.21-1.57-13.05,1.53-18.13a13.07,13.07,0,0,0,2-5.65,54.45,54.45,0,0,0,1-9.36c0-1.33-.38-2.38.53-3.48a16,16,0,0,1,3.53-2.51c.87-.57,3.8-1.92,3.82-3.42a5.45,5.45,0,0,0-2-2.58c-1.32-1.17-2.65-2.34-4-3.49-2.72-3.06-1.28-8.56,1.55-11.21,2.44-2.28,7.27-2.65,5.27-7A23.12,23.12,0,0,0,481.55,60a33,33,0,0,0-5.4-3,22.9,22.9,0,0,1-6.71-4.43q-1.44-1.73-3-3.32a8.92,8.92,0,0,0-3-1.58c-5.85-2.57.89-10.38,1.94-14.21.36-1.3-.14-2.58-.17-3.92-.09-3.18.88-6.38-.31-9.49a13.88,13.88,0,0,0-3-4.23c-2.58-3-4.64-6.61-7.8-9s-7.12-3.46-10.9-4.6C440.53,1.4,437.75-.17,435,.81c-3.13,1.13-6,3.67-8.57,5.72-.91.74-4.18,2.8-4.51,4.19-.29,1.19,1.42,2.12,2.06,2.85a9.9,9.9,0,0,1,2.4,5c.64,3-.19,6.29.53,9.25.39,1.62,1,2,.85,3.9a64.08,64.08,0,0,1-1.24,8.11c-.5,2.5-2,4.65-3.07,6.89-1.26,2.56-3.56,6.48-1.73,9.41,1.45,2.33,4.85,2.73,6.73,4.63A9.84,9.84,0,0,1,430.94,66c.9,4.2,1.2,8.67-.32,12.69-.83,2.22-2.06,4.29-2.7,6.58-1,3.52-2.91,6.53-4.91,9.65-.37.58-3.51,6.41-5.06,6.61a6.72,6.72,0,0,1-2.59-1.26,31.82,31.82,0,0,1-4.75-2.94c-1.27-1-2.39-2.3-3.73-3.22-3.43-2.37-8.83-1.72-12.74-1.53-1.29.07-3-.4-3.47,1.12A11.15,11.15,0,0,0,392.09,99c1.09,2.24,2.28,4.41,3.57,6.53s2.37,3.93,2.46,6.41c.2,5.66-3.13,12.25-5.92,17-.94,1.6-2.4,5-4.88,4.41-.84-.49-1.7-1-2.56-1.41a25.6,25.6,0,0,0-3.31-1.56c-1.71-.77-3.41-1.89-5.18-2.52a10.85,10.85,0,0,0-2.83-.5,23.58,23.58,0,0,1-4.85-1.4,45.49,45.49,0,0,0-5.93-2.11c-4.4-.94-8.38,2.17-11.85,4.38-4.21,2.68-4.52.24-7.15,3.75-.26.34-.56.65-.83,1s-.42.54-.63.81a8.05,8.05,0,0,1-1.1,1.3,2.12,2.12,0,0,1-1.77.57,2.32,2.32,0,0,1-.68-.52,1.82,1.82,0,0,0-1.22-.45,6.28,6.28,0,0,0-3.27,1.3l1.74-.93c-3.75,1.85-7.75,3.71-11,6.41a57.45,57.45,0,0,0-10.41,11.44c-1.61,2.38-2.47,5-1.42,7.85,1.11,3,3.83,4.63,6.07,6.7a27.94,27.94,0,0,1,3.44,4.52c.74,1,1.4,2.35,2.41,3,1.21.83,2.71,1.12,4,2,2.17,1.5,2.95,3.49,2.95,6.19a26.94,26.94,0,0,1-1.79,9.22,9.25,9.25,0,0,1-2.65,3.7,13.83,13.83,0,0,1-5.46,2.48,39.79,39.79,0,0,1-8.72,1.3,23.47,23.47,0,0,1-10.4-3.05c-1.51-.79-2.19-1.95-4-1.53a25,25,0,0,0-3.26,1.37c-2,.77-4,1.35-6.05,2-5,1.69-10.55,1.76-13.4,7-5.58,10.21,8.35,14.93,15.14,18.46,3.66,1.91,5.78,4.68,5.78,8.81,0,3.84-3.19,6.8-6.77,8-5.18,1.75-11.23,1.38-16.43-.15a8.59,8.59,0,0,1-4-2.78,8.65,8.65,0,0,0-1-1.21c-2.36-1.69-7.22-.29-9.88.12-6.38,1-12.82,3.35-19.31,3.47-2.8.06-4.66,0-6.81-1.8a5.93,5.93,0,0,0-3.79-1.81c-3.24,0-6.41,3-7.77,5.75-1.56,3.21-.73,5.85.58,9,.93,2.24,1.24,4.62,2.29,6.8,1.42,3,2.87,4.33,5.67,6.21,1.76,1.19,3.46,3,5.43,3.81,2.22.88,5.78-.27,8.07-.66,1.43-.24,2.84,0,4.27-.2a34.54,34.54,0,0,0,6.72-2.13c1-.33,3.8-1.79,4.68-1.4,2.4,1.06,5.6.85,6.87,3.62,1.07,2.35,1.14,5.48,1.69,8,.69,3.1,1.39,6.25,2.33,9.29.81,2.64,2,4.81,1.15,7.45s-4,3.4-6.36,4.6a48.89,48.89,0,0,0-5.44,2.79c-1,.65-1.8,1.37-2.85,1.94-2,1.11-4,2.37-6.16,3.3-2.35,1-6.56,2.35-9.24,1.95-2.89-.43-5.7-1.89-8.44-2.88-3.77-1.36-7.66-1.94-11.51-3a54.13,54.13,0,0,1-7.9-2.8c-.71-.32-2-1.9-2.84-1.88s-4.53,5.46-3.64,4.22c-1.61,2.24-3.16,4.53-4.67,6.84a57.74,57.74,0,0,0-5.08,9.33c-.46,1.08-.7,2.41-1.24,3.43a20,20,0,0,1-3.1,3.48c-1.41,1.55-2.75,3.16-4.2,4.66s-3.24,2.71-4.32,4.39c-.91,1.41-1,2.36-2.65,3.28-1.84,1-3,.33-4.6-.93-1.88-1.51-3.48-4.62-4.74-6.73-1.62-2.73-3-5.57-4.39-8.41-1.67-3.32-4.26-8.44-8.53-8.95-6.65-.79-13,2.3-19.43,3.57-4.58.91-9.19,1.85-13.78,2.7a57.81,57.81,0,0,1-10,.72,21,21,0,0,1-9.42-1.7c-2.48-1.11-4.84-2.45-7.33-3.53-1.56-.68-4.09-1.06-4.79-2.8-.4-1,0-2.65.19-3.6.58-2.87,1.37-5.7,2.19-8.51a60.89,60.89,0,0,0,2.67-14.34c.14-3.11-.33-5.59.62-8.65,1.23-3.91,4-6.58,6-10-1-1.72-2-3.25-2.78-5.07-1.41-3.13-2.65-5.85-5.3-8.3a43.62,43.62,0,0,0-6.91-5c-7.78-4.74-17.1-7.53-20.2-16.9-1-3-1.27-6.08-2-9.09A5.75,5.75,0,0,0,67,217c-1.68-1.07-4.68.07-6.14.56-8.36,2.84-15.52,9.12-21.68,15.25-2.82,2.81-6.51,5.71-8.58,9.17-2.31,3.88-3.66,8.66-5.37,12.8-1.11,2.68-.71,5.95-1.24,8.82-.44,2.39-.6,3.48,1.76,4.59s5,1.82,6.3,4.41c1.55,3.15.6,7.78.12,11.06a28.26,28.26,0,0,1-2.94,9.91,35.92,35.92,0,0,1-6.26,8c-1.68,1.64-3.46,3.29-5.9,3.46-1.75.13-3-.15-4.71.6-3.55,1.6-6.58,4.61-9.2,7.44C1,315.44.24,317.22.57,320.33a22.05,22.05,0,0,0,5.75,12.79c3.09,3.26,6.92,5.65,10.14,8.77a16,16,0,0,1,5,12.66,40.16,40.16,0,0,0,.44,5.92c.51,4.29-4.42,10.14-6.29,13.27-1.48,2.48-2.93,5-4.42,7.42a30.94,30.94,0,0,0-2.66,4.43c-.93,2.5,1.09,3.87,2.67,5.35,3,2.78,3.08,6.81,3.42,10.71.39,4.47.45,9.19,2.39,13.35,1,2.18,2.6,3.78,4.06,5.63,1,1.21.76,3.27,1.77,4.28,1.61,1.61,5.24-1.4,6.57-2.24A14.14,14.14,0,0,0,33.69,419a190.9,190.9,0,0,0,13.44-19c2.74-4.58,4.32-9.42,6.46-14.25.69-1.58,1.39-3.55,3.12-4.25a1.38,1.38,0,0,1,2.06-.24A2.68,2.68,0,0,1,61.06,383c3.44,4.19,4.67,9.73,6.84,14.61,1.26,2.8,3.74,5.56,3.67,8.74,0,1.38-1.41,4.62-.62,5.78,3,.13,6.67-.77,9,1.77a24.41,24.41,0,0,0,3.69,3.85,18.72,18.72,0,0,0,7.28,1.65c2.19.27,4.39.45,6.59.56,4.61.32,9.6.33,14,2.09,2.21.9,3.69,2.48,5.63,3.72,4.88,3.12,11.94.73,17.53.73a12.36,12.36,0,0,1,7.17,1.79,38,38,0,0,0,5,3c5.36,2.14,11.56,1.92,16.73,4.6,2.15,1.11,3.81,2.27,4,4.76.13,2.15-.63,4.33-1.11,6.41s-.81,3.94-1.44,5.85c-.9,2.72-2.56,4.86-4,7.34-.86,1.52-2.55,3.34-2.17,5.25.25,1.23,1.42,1.93,2.41,2.53a35.72,35.72,0,0,0,7.51,1.44l6.46.84a124.71,124.71,0,0,1,17.84,4c2.21.63,3.61.61,2.66,3.22a44.16,44.16,0,0,0-2.77,15.56c0,3.55,1,6.89,1.26,10.35a36.68,36.68,0,0,1,.21,6.1q2.79.82,5-2.06l6.15-4.37c4.83-3.52,9.55-7.11,14.41-10.58,1.93-1.39,5.18-5.74,7.78-4.09s2.69,6.15,2.72,8.67c.1,6.34-1.2,12.91,0,19.2.55,2.78,1,4.58,3.59,6l2.83,1a11,11,0,0,1,2.17,3.79c1.35,3.1,2.47,6.43,5.47,8.29,2.11,1.31,3.57,2.33,4.63,4.65.79,1.72,1.69,3.8,1.44,5.76-.32,2.47-2.46,3.23-4.42,4.24A90.35,90.35,0,0,1,231,555.1l-6.84.92c-4.76.06-9.47-2.78-13.81-4.34-5.76-2.07-12.05-4.86-18.26-3.55-2.86.61-7.32,1.25-8.44,4.46-1.47,4.21.54,9.37,2.77,12.87a33.48,33.48,0,0,0,7.72,8.68c1.6,1.18,3.38,1.3,5.15,2.07a10.24,10.24,0,0,1,3.86,2.85c1.33,1.55,2.15,3.17,3.89,4.35,4,2.7,10.67.94,15.18.68a32.63,32.63,0,0,1,15.48,2.36c4.89,2.09,9.12,4.94,14.12,6.85,4.07,1.55,7.64,2.59,10,6.48,1.84,3,2.09,6.69,4.07,9.57,1.24,1.81,1.9,2.69,1.74,5.16-.13,1.94-1.15,4,.53,5.55s4.41,2.47,6.59,3.3a51.52,51.52,0,0,1,11.33,5.78l3.24.75a28.18,28.18,0,0,0,4.21,2.59,27.09,27.09,0,0,0,2.85,1,6.63,6.63,0,0,1,1.8,1.05,22.59,22.59,0,0,0,2.13,1.1c4.1,2.67,3.24,8.59,4.2,12.71a6.3,6.3,0,0,0,.61,2.19,3.23,3.23,0,0,0,2.62,1c1.35,0,3.09-.39,4.4,0,1.46.45,2.45,2.46,3.44,3.45a7.6,7.6,0,0,0,3.12,2.14,10.17,10.17,0,0,1,2.51.88l62.22-144.3L364.55,310.33,505,153"/></g></g></svg>