<svg xmlns="http://www.w3.org/2000/svg" viewBox="0 0 771.87 586.28"><defs><style>.cls-1{fill:none;stroke:#231f20;stroke-miterlimit:10;}</style></defs><g id="Layer_2" data-name="Layer 2"><g id="Districts"><path id="Kogi" class="cls-1" d="M719.81,233.25a29.68,29.68,0,0,1-5,3.53c-2.75,1.62-5.41,3.46-8.5,4.41-1.34.41-3.68,1.31-5.08.88-1.09-.33-1.53-1.33-2.58-1.71a19.52,19.52,0,0,0-2.76-.48c-3.25-.63-5.9-1.8-7.37-4.89-.69-1.45-1.15-2.62-2.66-3.45-1-.55-2.13-.79-3.12-1.37-2-1.18-1.61-2.78-2.59-4.66-1.43-2.73-5.31-2.84-7.81-4.06-1-.48-1.35-1.23-2.17-1.85s-.85-.44-1.76-.29a12.72,12.72,0,0,0-2.85,1.21q-2.73,1.39-5.43,2.86a42,42,0,0,1-6.63,3.33c-1,.33-1.44-.06-2.32.1a9.45,9.45,0,0,0-2.36,1.38c-4.47,2.72-9.7,4.56-14.56,6.42-2,.75-4.06,1.35-6,2.21-.53.23-1.87.68-2.11,1.28-.33.82.29,1.85.58,2.64,1.26,3.47.67,6.95.92,10.57.22,3.11,1.63,6,2.75,8.81,1,2.55,1,4.66,1.39,7.29a12.13,12.13,0,0,0,1.58,4.69c1.07,1.9.54,3.7,0,5.72-.39,1.45-1.52,3.44-.49,4.82a23.94,23.94,0,0,0,1.9,2,45.78,45.78,0,0,0,3.18,3.66c1.77,1.55,3.7,2.87,5.5,4.38a11.46,11.46,0,0,1,3.41,4.83c.81,1.89,1.38,3.61,3.59,4a30.07,30.07,0,0,0,6,.07c1.57-.09,2.16-.72,3.31-1.68,2.28-1.9,4.47-3.73,6.59-5.81a13.26,13.26,0,0,1,3.37-2.49,16.55,16.55,0,0,1,2.39-.85c1.86-.57,3.61-1.41,5.45-2a11.5,11.5,0,0,1,6.9-.51c1.56.41,3.11.95,4.65,1.44s2.85.91,2.9,2.73-.59,3.57-.54,5.39c0,1.39.54,1.41,1.26,2.44a7.32,7.32,0,0,1,1,3.73A53.36,53.36,0,0,0,695,313c.79,2.91,2.66,5.27,4.07,7.91a32.73,32.73,0,0,1,2.66,5.65c.34,1.08.52,2.15.94,3.22a7.59,7.59,0,0,0,2.42,3.48,12.08,12.08,0,0,1,3.36,3.25c1.09,1.82,1,4.18,2.11,6,1,1.57,3.36,1.9,5,2.44,2.16.71,4.47,1.19,6.42,2.4a28.26,28.26,0,0,0,5,2.72c1.45.56,2.24.21,3.61-.49a4.61,4.61,0,0,0,2.77-3,22.5,22.5,0,0,1,.49-2.78c.89-2.54,3.66-3.49,6.21-3.49a28.87,28.87,0,0,0,4.35-.34,46.86,46.86,0,0,1,6.16-.11,9.8,9.8,0,0,1,4.65.76,14.66,14.66,0,0,0,2.63,1.47c2.1.71,3.92.92,5.53,2.61a18.76,18.76,0,0,1,3.54,6.09,9.76,9.76,0,0,0,3,4c1,.89,1.22,1.14,1.22,1.14h0L437.86,445.71l-196,140L.65,421.9,222.49.65,720.63,232.54Z"/></g></g></svg>