<svg xmlns="http://www.w3.org/2000/svg" viewBox="0 0 551.27 465.64"><defs><style>.cls-1{fill:none;stroke:#231f20;stroke-miterlimit:10;}</style></defs><g id="Layer_2" data-name="Layer 2"><g id="Districts"><path id="Lanatia" class="cls-1" d="M94.92,307.81a45.15,45.15,0,0,0-2.23,4.08c-1.61.2-2.07,2.66-2.64,4.19a1.55,1.55,0,0,0,.22,1.91c.27.36.8.59.93,1.08s-.27,1.05-.1,1.57c.1.31.43.51.54.8a5.24,5.24,0,0,1,.12,1.81,34.35,34.35,0,0,1-.47,4.41c-.36,3.26,1.12,4.17,3.81,5.5a24.83,24.83,0,0,1,3.29,1.68c1,.67,1.65,1.66,2.92,1.75a10.13,10.13,0,0,0,4.64-1.25c.88-.4,3.44-2.24,4.58-2,.88.15,1.12,1.72,1.85,2.23,1.06.73,3.19.31,4.4.21,3.08-.27,6-1.5,9-1.78a56.59,56.59,0,0,1,6-.06c3.76.05,6.52-1.61,9.24-4.14,2.29-2.12,5.65-4,5.73-7.42a16.3,16.3,0,0,1,2.19-7.55c.94-1.69,1.68-3.58,2.68-5.22.57-.94,1.44-2.17,2.64-1.89,1,.24,1.69,1.61,2.57,2.14a43.67,43.67,0,0,0,5.52,2.95c2.09.87,4.84,1,6.73,2.32,1.59,1.08,1.29,3.23,2,4.82a29.11,29.11,0,0,0,2.46,4.35,15.94,15.94,0,0,1,1.91,4.93c.38,1.39.45,3,1.41,4.13a8.77,8.77,0,0,0,2.48,1.77c1.11.61,2.21,1,2.88,2.12.89,1.54,1.13,3.47,2.19,4.88a13.82,13.82,0,0,0,3.2,2.9c1.21.8,2.24.85,2.68,2.4a13.64,13.64,0,0,1,.09,5.69,26.07,26.07,0,0,1-.52,3.92c-.44,1.26-3.75,2.3-4.83,2.84-2.46,1.26-5.09,2.27-7.64,3.33s-4.26,1-5.8,3.54c-.4.65-1.24,1.75-1,2.56.37,1.16,2.43,1.64,3.43,2a32,32,0,0,1,8.06,3.88c2,1.4,4,3.28,6.4,4.07,3.28,1.08,7.57,0,10.81-.62,1.7-.31,3.73-1,5.18.29,1.11.95,1.34,1.84,3.09,1.63,2.45-.3,5.31-1.67,7.83-.88s3.09,3.94,5.23,5.21a6.35,6.35,0,0,1,3.14,3.43c.78,2.49-.3,5.28-.28,7.87,0,2.24.43,3.71,2.72,4.38,1.51.44,3.15.45,4.69.8,1.82.42,2.9,1.47,4.36,2.53,3.59,2.6,8.21,1.44,12.23.36,6.47-1.74,13.88-4.84,18.56-9.86,2.48-2.66,3.4-6,5.18-9,.86-1.48,1.51-2.92,2.92-3.93,2.57-1.84,5.73-3,8.49-4.47a20,20,0,0,1,4.15-1.37c6.62-2,11.07-7.24,17.16-10.08a105.8,105.8,0,0,1,11.27-4.17c1.42-.47,2.88-.8,4.31-1.25.95-.29,1.88-.84,2.82-1.1,2.1-.59,3.92,1.72,5.34,3,4.72,4.38,7.74,10.24,12.6,14.48,2,1.78,4.35,3.16,6.43,4.84,1.32,1.06,1.79,3,2.5,4.48s1.13,3.35,2.23,4.41c1.48,1.42,3.85.56,5.59,1.11,2.31.74,2.79,3,3.4,5.11s1.12,4.31,3.14,5.8,4.86,2,7.24,2.32a15.69,15.69,0,0,0,5.1-.4c1.16-.25,2.11,2.2,3.07,2.94,4.55,3.54,11.41-.2,16.53,3,2.43,1.53,4.5,3,7.51,3.07,4.54.15,9.62-1.53,13.93-2.82a92.92,92.92,0,0,1,9.14-2.77c3.77-.73,4.28,5,4.82,7.58a84.22,84.22,0,0,0,2.13,8.45,13.12,13.12,0,0,1,.67,6.06c-.31,2.24-1.07,4.46-.86,6.75.24,2.56,1.64,4.44,1.26,7.16-.34,2.42-1.93,5.22-1.23,7.71.52,1.85,3,2.55,4,4.07a20,20,0,0,1,1.92,4.54,6.5,6.5,0,0,0,3.38,3.9,8.88,8.88,0,0,0,10.35-.71c2.83-2,5.14-4.63,7.67-7a12.68,12.68,0,0,0,3.67-4.9c1.2-3.14,2.21-6.33,3.12-9.58.81-2.89,2.09-5.65,1.44-8.68a34.86,34.86,0,0,1-.54-7.44c0-3,.47-5.89.52-8.85a36.9,36.9,0,0,1,.64-8.25,86.61,86.61,0,0,0,2.46-11.94c.26-2.78-1.15-4.79-1.64-7.44-.53-2.82.24-5.91.44-8.73a11.58,11.58,0,0,0-1.54-6.35,26.82,26.82,0,0,1-2.29-5.95c-.6-2.49-1.15-4.44-4.1-4.38a5.15,5.15,0,0,0-3.56,1.13c-.8.82-.84,1.88-2,2.21a8.26,8.26,0,0,1-2.42-.17,28.25,28.25,0,0,0-4.77.48c-3,.45-6.69.52-9.39,2a19,19,0,0,0-2.94,2.46,17.44,17.44,0,0,1-13.71,4.44c-3.63-.66-5.3-4.28-6.6-7.27-.95-2.21-2.22-2.63-4-4.18s-1.44-3-1.2-5.12a24.37,24.37,0,0,0-.73-8.84c-.86-3.65-.25-7.25.53-10.87,1.31-6.08,2-12.31,5.68-17.49,1.53-2.15,3.28-4.2,5.78-5.11.29-.11.68.12.88,0,2.2-.92,4.08-4.44,5.46-6.17,3.16-4,5.87-8.45,9.12-12.38a22,22,0,0,1,4.1-4.13c2.1-1.47,3.23-1.22,5.65-.72,6.36,1.32,13.41.52,17.74,6.37a66.34,66.34,0,0,0,4.18,5.25c2.49,2.75,2.62,6,3.49,9.53.81,3.27,2.15,6.21,5.11,8a41.5,41.5,0,0,0,11.5,4.28,35.24,35.24,0,0,1,6.47,1.95c2.25,1,2.77,2.85,4.36,4.48s3.41,2.3,4.71,4.06c1,1.3,1.48,3.49,2,5.05a43.63,43.63,0,0,1,1.44,4.95c.52,2.38.76,4.82,1.47,7.16.55,1.81,1.71,3.52,2.13,5.38a12.9,12.9,0,0,1-.05,5c-.36,2-2.17,5.59-.63,7.44,1.26,1.52,3.73,1.46,5.5,1.47a29.71,29.71,0,0,0,7.87-.75c.92-.24,2.89-.33,3.44-1.12a12.12,12.12,0,0,0,.38-1.67c.39-1.11.93-2.17,1.36-3.27s.75-2.07,1.14-3.1a57.2,57.2,0,0,1,3.73-7c2.72-4.87,5.88-10.19,5-16a48.56,48.56,0,0,0-1.5-5.81A35.79,35.79,0,0,1,538,325c.23-7.72,4-14.92,4.57-22.61a99.7,99.7,0,0,0-.49-16,82.61,82.61,0,0,1,.47-20.12c.46-3,1-6.07,1.2-9.14a48.4,48.4,0,0,0-.41-8.59c-.55-4.91-.38-10.12-3.86-14a34.35,34.35,0,0,0-3.89-3.64c-1.56-1.28-3.93-2.54-5.06-4.25a6.42,6.42,0,0,1-.92-3.46,20,20,0,0,0-1-6.89c-1.26-3.38-3.23-6.45-4.5-9.83-1.81-4.83-6.34-8.57-9.93-12.09,0,0-2.6-1.85-4.57-3.13-1-.64-3.54-1.56-4.07-2.73-.66-1.48.87-4,1.43-5.24,1.14-2.44,3.18-4.68,4.08-7.19.72-2,0-4.25.69-6.33s1.4-4.3,2.2-6.39a20.87,20.87,0,0,0,1.7-5.07,25,25,0,0,0-.74-8.18c-.91-4-3.07-7.27-3.51-11.4-.47-4.36,1-8.81-2.61-12.07-.89-.78-2.49-1.58-2.75-2.83a4,4,0,0,1,.4-2c.54-1.63,1-3.29,1.49-4.92.44-1.38,1.51-3.13,1.72-4.57.14-.91-.31-1.35-.65-2.22-.55-1.46-.24-2.34.28-3.78,1.6-4.45,5.55-7.7,8.94-10.83,2.5-2.31,4.62-4.49,8-5.16a43.15,43.15,0,0,1,7.43-.85c1.42,0,3,.21,4.42.05s2.91-1.24,4.18-2a27.78,27.78,0,0,0,6.29-4.74,7,7,0,0,0,2.21-4.33c.08-1.75,0-3.55,0-5.31a6.53,6.53,0,0,0-.59-3.38c-.57-.93-1.64-1.28-1.89-2.39a9.76,9.76,0,0,1,.52-2.53,39.79,39.79,0,0,0,.92-4.14,8.5,8.5,0,0,0,0-2.85c-.35-1.44-1.5-2.29-2.3-3.44-1.18-1.7-1.51-4-1.78-6-.31-2.28.14-4.75-.6-7-.89-2.65-3.11-4.69-4.85-6.78-2.26-2.72-3.49-5.9-4.91-9.08a16.87,16.87,0,0,0-10.58-9.19c-1.64-.54-3.17-1.33-4.78-1.9-2-.71-3.68-2.15-5.77-2.9-3.15-1.13-6.72-1.32-10-2-4.21-.93-8.38-2.06-12.59-3-3.28-.72-6.51-1.28-9.73-2.24a17.3,17.3,0,0,0-4.39-.89c-2.24,0-4.92,1.88-6.83,2.84a73.89,73.89,0,0,0-7.4,4.39,21.64,21.64,0,0,0-3,2.32c-.82.74-1.63,1.53-2.49,2.23a26.29,26.29,0,0,1-2.31,2.18,5.24,5.24,0,0,1-2,.55,52.94,52.94,0,0,1-6.53.81c-4.31.17-8.65.79-12.86-.49a14.86,14.86,0,0,1-7.32-4.78c-1.83-2.15-3.06-4.6-4.82-6.77-1.95-2.39-3.57-4.17-6.77-4.83a42.79,42.79,0,0,0-7.39-.92c-1,0-1.94.1-2.89,0S403,.55,402,.5A9.07,9.07,0,0,0,397.53,2a57,57,0,0,0-9.42,5.8,33.77,33.77,0,0,0-4.39,4c-1.13,1.35-2.12,2.84-3.25,4.19a24.45,24.45,0,0,0-2.7,3.05,3.05,3.05,0,0,0,.62,3.54c3.18,3.66,8.39,4.87,12.1,7.88a14.61,14.61,0,0,1,4.87,6.2c.42,1.09,1.25,2.19.86,3.41s-2.36,2.07-3.47,2.74C390,44.45,387,46,384.2,47.51c-1.87,1-3.23,1.82-2.83,4.22.46,2.69,3.21,4.42,3.74,7.09.7,3.58-.82,7.44-2.72,10.41a24.91,24.91,0,0,1-8.48,8.23c-3.77,2-7.92.86-11.29-1.43a14.77,14.77,0,0,0-7.26-2.94c-1.83-.2-4.16-1-6-.24-2,.81-4.27,3.82-5.42,5.62-1,1.58-1.61,2.87-.16,4.25a31.6,31.6,0,0,0,5.45,4c1.76,1,4,1.51,5.55,2.83a5.81,5.81,0,0,1,2.13,3.63,11.52,11.52,0,0,0,2.53,4.44c1.51,1.91,1.68,2.89,1.68,5.24,0,.84,0,2.78.5,3.47.36.52,1.17.52,1.73.54,2.82.13,5.77-.91,8.5-1.51,3.72-.81,7-1.58,10.57,0a12.78,12.78,0,0,0,6,1c2.07-.12,4-.62,5.9.39,2.27,1.2,2.55,5.21,2.77,7.37s-.56,6.36,1.67,7.62c1.26.72,3.68.5,5.12.51.84,0,3.27-.43,4.15.22,1.6,1.2.7,3.74,1.64,5.26a5.37,5.37,0,0,0,2.51,1.83c.78.36,2.45.67,3,1.26,1,1.06.22,2.69-.13,3.84a35,35,0,0,1-3.35,6.67c-1.64,2.88-3.28,6.56-6.3,8.28-4.7,2.67-9.92,4.38-15.31,2.91a17.23,17.23,0,0,1-5.33-2.27c-1-.7-2-1.75-3.07-2.37-2.73-1.54-6.3-1.66-9.32-1.41-3.78.3-7.77-.78-11.32-2.06-6.66-2.4-13.38-4.78-19.62-8.15-3.89-2.11-7.47-4.77-11.35-6.86s-8.06-1-12.21-.79a63.84,63.84,0,0,1-7.32,0,25.42,25.42,0,0,0-3.31-.23c-3.45.23-4.54,6-5.37,8.58s-2,5.2-1.89,8c0,.73.63.88.17,1.77s-4.47,2-4.51,2c-1.93.58-3.94,1.08-5.92,1.47-.77.15-3,.12-3.77.69-1,.76-.63,1.41-.52,2.63a15.41,15.41,0,0,1-.6,5.35c-1.27,5-3.71,9.44-7.95,12.48-2.49,1.78-4.72,2.83-7.7,1.9-4-1.24-7.12.28-11,1.34a44.07,44.07,0,0,1-7.88,1.53c-2.09.16-4.79-.09-6.73.79-1.15.52-.81.73-.61,1.85a17.32,17.32,0,0,0,2,4.53c1.05,2.07,2.17,4.09,3.17,6.18a9,9,0,0,0,1.57,2.88c1.85,1.68,5,1.09,6.55,3.47,1,1.51,0,2.9,1.49,4.06.71.53,1.59.67,2.28,1.26A7.71,7.71,0,0,1,262,204c.58,1.36,1.43,3.6.56,5-1.76,2.76-8.1,3.24-11,3.27-3.12,0-6,.25-9.17.59a39,39,0,0,1-8.64-.26c-7.86-.81-15.37-.74-22.81-4-6.75-3-13-7.79-18.53-12.69a30,30,0,0,1-3.71-3.85c-.63-.8-.69-1.13-1.84-1.43-1.33-.35-3.25,0-4.65,0a39.15,39.15,0,0,1-5.83-.44c-4.15-.59-8.14-2.3-12.38-2.28-3.56,0-4.76,2.85-6.77,5.48a28.46,28.46,0,0,1-5.28,5.78,47,47,0,0,0-4.8,3.93c-.83.8-2.38,2.38-3.68,2.39s-2.31-1.51-3-2.29a39,39,0,0,1-5.4-8.19c-1.74-3.23-2.85-6.72-4.57-9.94-1.86-3.47-3.81-6.67-5-10.45-.75-2.32-1.19-3.13-3.67-3.75-2.24-.56-4.62-.76-6.88-1.26-3.14-.69-6-2.13-9-3-4.73-1.4-9.78.11-14.58-.57a8.21,8.21,0,0,1-3.32-1A16.78,16.78,0,0,1,86,163.07a9.72,9.72,0,0,0-2.89-1.46c-2-1-2-2.1-1.73-4.15a34.34,34.34,0,0,1,3.92-11.32,18.37,18.37,0,0,1,7.27-6.64,5.11,5.11,0,0,1,3-.17q2.82.28,5.63.68c1.45.21,3.75.94,5.26.33,2.11-.85,2.13-2.45,2-4.84a31.84,31.84,0,0,0-2.33-9.88c-1.31-3.14-3.27-6.06-4.38-9.28-.81-2.36-.63-5.06-1.88-7.23A20.92,20.92,0,0,1,98,105.79c-.91-2.47-.59-5.49-.58-8.07,0-3.07-.39-7.34,1.93-9.81,1.6-1.7,4.43-1.51,6.44-2.73,2.34-1.42,7-4.5,7.76-7.31a6.31,6.31,0,0,0-.18-2.62,56.35,56.35,0,0,1-.48-6.36c-.11-3.79-1.4-7-2.43-10.58-.69-2.4-1-4.93-1.69-7.33-1.12-3.88-3.5-7.06-6-10.15C99.68,36.91,96.24,32,91.42,30.09a27.66,27.66,0,0,0-9-1.66c-1.49-.09-3.71-.46-5.14,0-2.55.79-1.92,4.35-2.19,6.44-.68,5.21-4.36,9.3-8.35,12.49A40.83,40.83,0,0,1,61.6,50.4a115.74,115.74,0,0,1-12,6.34,36.52,36.52,0,0,1-8.4,2.67,38.15,38.15,0,0,0-5.2,1c-6.35,2-4,11-4.91,16a46.73,46.73,0,0,1-3.76,11.79,5.26,5.26,0,0,0-.56,2.45c-.09,2.6,0,5.23.05,7.83.06,3.48-.08,7.41,1.14,10.73.47,1.3,2.34,4,2.28,5.24-.12,2.78-2.78,5.13-4.41,6.82a142.12,142.12,0,0,1-13.5,12.07c-1.16.93-2.73,1.87-3.88,2.9a15.66,15.66,0,0,0-2.92,4.23,34.29,34.29,0,0,0-3.68,8.64c-.64,2.69.14,4.73.47,7.42A50.93,50.93,0,0,1,2.22,168c-.4,3.86-1.54,8-1.71,12a8.78,8.78,0,0,0,1.25,5.36c.2.32,1.86,1.68.77,2.16A13.4,13.4,0,0,0,9,192.39a48.31,48.31,0,0,0,16.5,5.72,25.56,25.56,0,0,0,10.31-.45,18.64,18.64,0,0,1,3.44-1.25,3.85,3.85,0,0,1,1,2.7,4.51,4.51,0,0,0,3.94,3.69c4.69,1.5,10.41-.88,14.94-2,2.78-.66,5.68-1.52,8,.67l2,2.44a7.39,7.39,0,0,1,1.48.76c-1.58,5.19-4.37,10-7.18,14.58-.57.94-5.42,6.48-4.2,8.67.75,1.34,5.53,2.54,6.67,3.08,4.1,1.94,7.86,4.55,12.19,6,4,1.37,9.41,3.75,13.64,2a21.45,21.45,0,0,1,2.71-1.36c2.24-.61,5.21,0,7.43.36,1.06,2.23.52,4.27-1.6,6.11a43.92,43.92,0,0,0-3.94,6.41c1.58.22,3.92-2.37,5.19-2.93a7.17,7.17,0,0,1,7.12.71c4.41,3.2,4.32,7.61,3.21,12.52-.72,3.22-2.26,6.35-2.08,9.73.14,2.85,2.36,5.06,4.13,7,.9,1,2,1.95,2.18,3.35.1.81,0,1.09.49,1.72,1.33,1.56,3.66,1.49,4.65,3.6s.13,3.91-1,5.73a11.68,11.68,0,0,1-5.76,5.25c-3.51,1.53-11.31,3.58-12.35,4a11.09,11.09,0,0,0-1.58,1c-.5.34-1,.64-1.53,1a11.18,11.18,0,0,0-2.41,2.14,7.4,7.4,0,0,0-1,1.25c-.16.27-.73,1.43-.62,1.25"/></g></g></svg>