<?xml version="1.0" encoding="UTF-8" standalone="no"?>
<svg
   xmlns:dc="http://purl.org/dc/elements/1.1/"
   xmlns:cc="http://creativecommons.org/ns#"
   xmlns:rdf="http://www.w3.org/1999/02/22-rdf-syntax-ns#"
   xmlns:svg="http://www.w3.org/2000/svg"
   xmlns="http://www.w3.org/2000/svg"
   viewBox="0 0 662.31569 684.78722"
   version="1.1"
   id="svg24"
   width="662.31567"
   height="684.78723">
  <metadata
     id="metadata28">
    <rdf:RDF>
      <cc:Work
         rdf:about="">
        <dc:format>image/svg+xml</dc:format>
        <dc:type
           rdf:resource="http://purl.org/dc/dcmitype/StillImage" />
        <dc:title></dc:title>
      </cc:Work>
    </rdf:RDF>
  </metadata>
  <defs
     id="defs4">
    <style
       id="style2">
      .cls-1 {
        fill: none;
        stroke: #231f20;
        stroke-miterlimit: 10;
      }
    </style>
  </defs>
  <path
     d="m 529.77143,0.499995 c 0.67647,0.5595 1.24539,1.2371 1.67969,2 0.255,0.5 0.325,0.7966 0.25,1.0703 -0.075,0.2738 -0.29609,0.5247 -0.62109,0.9297 -0.82235,1.1269 -1.79333,2.1362 -2.88867,3 -1.39945,1.0766 -2.69352,2.2773 -3.86524,3.5879 -1.17172,1.3107 -2.22108,2.7314 -3.13476,4.2422 -1.80666,2.8046 -3.46028,5.705 -4.95117,8.6895 -0.66125,1.0187 -1.0804,2.1734 -1.22852,3.3789 -0.13,1.24 -0.7543,2.76 -1.0918,4.2363 -0.16875,0.7381 -0.26625,1.4668 -0.19531,2.1426 0.0709,0.6758 0.31141,1.2995 0.81641,1.832 0.3675,0.3875 0.81547,0.6291 1.30468,0.7969 0.48922,0.1678 1.01946,0.2622 1.54883,0.3535 0.52938,0.091 1.05891,0.1801 1.54688,0.3379 0.48797,0.1578 0.93382,0.3844 1.29883,0.7519 0.54999,0.55 0.75999,1.9004 1,2.6504 0.28094,0.8293 0.39014,1.7073 0.32031,2.5801 0,1.045 -0.55774,2.3393 -1.11524,3.3731 -0.5575,1.0337 -1.11523,1.8066 -1.11523,1.8066 -0.305,1.39 -0.80477,2.9898 -0.97852,4.5586 -0.0869,0.7844 -0.0926,1.5602 0.0488,2.2988 0.14141,0.7386 0.42969,1.4398 0.92969,2.0723 0.82,1.06 1.87156,1.9401 2.60156,3.0801 0.5,0.755 0.87188,1.6067 1.29688,2.4179 0.425,0.8113 0.90328,1.5819 1.61328,2.1719 1.25283,0.9581 2.69303,1.6397 4.22851,2 2.84,0.83 5.75032,1.2697 8.57032,2.1797 1.22,0.39 2.43062,0.8307 3.64062,1.2207 1.155,0.375 2.22172,0.6902 3.23047,1.1152 1.00875,0.425 1.95891,0.9585 2.87891,1.7735 0.585,0.5 1.33437,1.0242 2.01562,1.6054 0.68125,0.5813 1.29547,1.2201 1.60547,1.9551 0.3629,1.0212 0.8273,2.0026 1.38867,2.9297 0.53515,0.8395 0.89621,1.7779 1.06055,2.7598 0.16206,0.7732 0.42173,1.5203 0.76953,2.2226 0.34779,0.7023 0.78402,1.3615 1.30078,1.959 0.5272,0.5984 0.98067,1.2533 1.35156,1.9531 0.3709,0.6999 0.65821,1.4446 0.85743,2.2168 0.0593,0.2696 0.10982,0.5169 0.17187,0.7461 0.0841,0.3105 0.18895,0.5861 0.36523,0.8301 0.17629,0.244 0.42412,0.4563 0.79297,0.6426 0.505,0.255 1.07828,0.458 1.64453,0.7168 0.56625,0.2587 1.12547,0.5727 1.60547,1.0527 0.69469,0.6837 1.57533,1.1513 2.53125,1.3418 1.00367,0.2542 1.97021,0.6327 2.87891,1.1289 0.69,0.41 1.21016,1.04993 1.91016,1.41993 0.63474,0.23036 1.29971,0.34571 1.96484,0.34571 0.66513,0 1.3301,-0.11535 1.96484,-0.34571 1.08,-0.28 2.12117,-0.74003 3.20117,-1.00003 1.34001,-0.35 2.73008,-0.399 4.08008,-0.709 0.4678,-0.1826 0.96148,-0.2753 1.45508,-0.2753 0.4936,0 0.98728,0.093 1.45508,0.2753 0.725,0.34 1.59328,0.7465 2.39453,1.2403 0.80125,0.49373 1.53438,1.07475 1.98438,1.75975 0.45,0.684995 0.71937,1.414295 0.95312,2.154295 0.23375,0.74 0.43133,1.48984 0.73633,2.21484 0.46,1.105 1.23008,2.04453 1.98633,2.98828 0.75625,0.94376 1.49929,1.89172 1.90429,3.01172 0.27229,0.93068 0.36657,1.90534 0.2793,2.8711 0.0322,0.37598 0.0322,0.75292 0,1.1289 -0.17,0.545 -0.63398,1.12672 -1.14648,1.66797 -0.5125,0.54125 -1.0736,1.04188 -1.4336,1.42188 -1.10332,1.01117 -2.07024,2.16061 -2.8789,3.41992 -0.93,1.75 -1.65078,3.65969 -2.55078,5.42969 -0.74951,1.11272 -1.24671,2.37647 -1.45899,3.70117 0,0.3 0.0505,0.60992 0.0606,0.91992 -0.10512,1.02398 -0.10512,2.0561 0,3.08008 0.30864,1.04744 0.703,2.0664 1.17968,3.04883 0.3148,1.19058 0.55402,2.40067 0.71876,3.62109 0.30375,1.12061 0.82445,2.15814 1.51953,3.06055 0.69507,0.90241 1.56437,1.67024 2.57031,2.25 1.28,0.67 2.78133,0.87898 4.11133,1.45898 0.82,0.37 1.47,1.00086 2.25,1.38086 0.305,0.16 0.76687,0.28578 1.10937,0.23828 0.17125,-0.0238 0.31211,-0.0897 0.38867,-0.21875 0.0766,-0.12906 0.0895,-0.31984 0.002,-0.58984 -0.105,-0.34 -0.31047,-0.58977 -0.48047,-0.85352 -0.17,-0.26375 -0.30453,-0.5425 -0.26953,-0.9375 0.055,-0.56 0.41195,-1.03539 0.8457,-1.46289 0.43375,-0.4275 0.94469,-0.80578 1.30469,-1.17578 0.67691,-0.6852 1.40542,-1.3177 2.17968,-1.89062 0.43547,-0.39329 0.91884,-0.72934 1.43946,-1 0.33,-0.08 0.49422,-0.0427 0.63672,0.0586 0.1425,0.10125 0.2639,0.26641 0.5039,0.44141 0.48,0.35 0.76891,0.39937 1.12891,0.60937 0.8,0.46 1.53125,1.00078 2.28125,1.55078 1,0.71 2.1282,1.23992 3.1582,1.91992 1.04438,0.75782 1.98911,1.64551 2.81055,2.64063 0.32456,0.425 0.72036,0.79051 1.16992,1.08008 0.34,0.19 0.93,0.17945 1,0.43945 0.18,0.5 -0.0898,0.98281 -0.49609,1.44531 -0.40625,0.4625 -0.9475,0.90422 -1.3125,1.32422 -0.365,0.42 -0.84282,0.89344 -1.19532,1.42969 -0.35249,0.53625 -0.58031,1.13555 -0.44531,1.81055 0.17,0.85 0.31946,1.62023 0.43946,2.49023 0.0657,0.93892 0.35687,1.84846 0.84961,2.65039 0.94566,1.23419 1.79291,2.54181 2.53124,3.91016 0.27174,0.7632 0.43188,1.56035 0.47852,2.36914 0.0766,0.75471 0.2349,1.49969 0.4707,2.2207 0.25,0.67 0.205,1.44977 0.0625,2.22852 -0.1425,0.77875 -0.38148,1.5557 -0.52148,2.2207 -0.1511,0.87045 -0.49257,1.69671 -1,2.41992 -0.49183,0.51024 -1.08027,0.91729 -1.73047,1.19922 -0.90023,0.73303 -1.93767,1.28158 -3.05078,1.61133 -0.62822,0.099 -1.2647,0.13834 -1.90039,0.11914 -0.86613,0.0406 -1.7168,0.202 -2.53125,0.47461 -0.81446,0.27261 -1.59254,0.65752 -2.30859,1.14648 -0.685,0.39 -1.60993,0.93172 -2.32618,1.60547 -0.35812,0.33688 -0.66367,0.70758 -0.86132,1.10742 -0.19766,0.39985 -0.28594,0.82961 -0.21094,1.28711 0.1507,0.61305 0.24066,1.2385 0.26953,1.86914 -0.0468,0.93202 -0.004,1.86739 0.12891,2.79102 0.26305,1.36224 0.69746,2.68542 1.29101,3.93945 0.51784,1.38147 0.87712,2.81667 1.07031,4.2793 0.10142,0.7345 0.31275,1.45041 0.62891,2.12109 0.41902,0.60631 0.62623,1.33224 0.58984,2.06836 -0.15825,1.22681 -0.23051,2.46425 -0.21875,3.70117 0.115,0.865 -0.0226,1.58211 -0.34765,2.22461 -0.325,0.6425 -0.83766,1.21039 -1.47266,1.77539 -0.52862,0.58418 -1.17696,1.04736 -1.90039,1.35938 -0.46,0.12 -1.00094,0.0997 -1.46094,0.17969 -1.78507,0.43724 -3.62381,0.60884 -5.45898,0.50976 -0.39,-0.055 -0.87547,-0.0548 -1.26172,0.084 -0.38625,0.13875 -0.67297,0.41601 -0.66797,0.91601 0,0.19 0.22024,0.63086 0.24023,0.88086 0.012,0.37355 0.0576,0.74455 0.13868,1.10938 0.13328,0.397 0.30057,0.78215 0.5,1.15039 0.57271,1.28972 1.02922,2.62848 1.36132,4 l -0.0801,0.0703 c 0.43863,1.44532 1.02914,2.83557 1.76172,4.14648 0.73257,1.31092 1.60634,2.54282 2.60742,3.67383 2.35607,2.61637 4.46584,5.44431 6.30078,8.44922 0.31431,0.5776 0.72513,1.09128 1.21094,1.51953 0.4858,0.42826 1.04574,0.77234 1.6582,1.01172 0.79242,0.19062 1.55323,0.49213 2.25977,0.89844 0.44,0.345 0.55601,0.88258 0.57226,1.45508 0.0163,0.5725 -0.0665,1.18101 -0.0215,1.66601 0.0468,0.92865 0.16969,1.85159 0.36914,2.75977 0.16,0.6125 0.41843,1.11148 0.74218,1.53711 0.32375,0.42562 0.71313,0.7782 1.14063,1.0957 0.855,0.635 1.85758,1.13164 2.76758,1.80664 0.91,0.675 1.71593,1.50219 2.55469,2.30469 0.83875,0.8025 1.71085,1.58125 2.75585,2.15625 0.8,0.44 1.58235,0.60195 2.3711,0.7207 0.78875,0.11875 1.5832,0.19399 2.4082,0.45899 0.40085,0.11227 0.76589,0.31352 1.07031,0.58203 0.30443,0.26851 0.54949,0.60459 0.71094,0.98828 0.415,0.885 0.36203,1.85984 0.26953,2.83984 -0.0925,0.98 -0.2257,1.96414 0.0293,2.86914 0.105,0.37 0.31477,0.68461 0.58789,0.95899 0.27312,0.27437 0.6107,0.50875 0.9707,0.71875 0.72,0.42 1.53133,0.74375 2.11133,1.09375 0.79203,0.56965 1.4574,1.29724 1.95117,2.13867 0.60724,0.89774 1.10541,1.86034 1.48633,2.86719 0.38093,1.00685 0.64414,2.05794 0.7832,3.13281 0.23,1.265 0.31266,2.53844 0.44141,3.80469 0.12875,1.26625 0.30375,2.52562 0.71875,3.76562 0.35785,0.84057 0.61487,1.71689 0.76758,2.61133 0.15271,0.89444 0.20126,1.80706 0.14258,2.71875 -0.22834,1.86695 -0.68565,3.692 -1.35743,5.43359 -0.67177,1.74159 -1.55802,3.39886 -2.64257,4.93555 -0.5,0.68 -1.06367,1.57055 -1.73243,2.31055 -0.33437,0.37 -0.69492,0.70312 -1.08789,0.95312 -0.39296,0.25 -0.81679,0.41703 -1.27929,0.45703 -0.61,0.06 -1.25156,-0.12078 -1.85156,-0.0508 -0.60001,0.07 -0.99883,0.25008 -1.54883,0.33008 -1.10833,0.23002 -2.23921,0.34073 -3.3711,0.33008 -1.4,-0.07 -2.84851,-0.61984 -4.22851,-0.58984 -0.69,0.015 -1.28774,0.28898 -1.83399,0.64648 -0.54625,0.3575 -1.04234,0.7993 -1.52734,1.1543 -0.86257,0.5982 -1.66384,1.26759 -2.39844,2 -0.7346,0.7324 -1.40149,1.52835 -1.99414,2.375 -0.59265,0.84664 -1.1121,1.74463 -1.54883,2.68554 -0.43672,0.94092 -0.79176,1.92423 -1.05859,2.93946 -0.59384,2.25523 -0.89167,4.57805 -0.88867,6.91015 0.11585,1.07324 0.36269,2.1286 0.73828,3.14063 0.19,0.66 0.1982,1.32461 0.12695,1.99023 -0.0713,0.66563 -0.22125,1.33219 -0.34375,1.99219 -0.1225,0.66 -0.21789,1.31391 -0.18164,1.95703 0.0362,0.64313 0.20438,1.27367 0.60938,1.88867 0.395,0.605 0.89398,1.06891 1.33398,1.56641 0.44,0.4975 0.82156,1.03039 0.97656,1.77539 0.31,1.49 0.09,3.07008 0.5,4.58008 0.2845,1.05486 0.71466,2.06467 1.2793,3 0.38303,0.49152 0.68425,1.04093 0.89062,1.6289 0.23001,1 0.33961,2.10039 0.59961,3.15039 0.2921,0.92431 0.4277,1.8904 0.40039,2.85938 -0.24766,1.22805 -0.19259,2.49909 0.16016,3.70117 0.21,0.47 0.51742,0.79172 0.79492,1.13672 0.2775,0.345 0.52524,0.71344 0.61524,1.27344 0.18,1.12 -0.43125,2.27992 -0.28125,3.41992 0.075,0.57 0.46992,1.06828 0.79492,1.55078 0.325,0.4825 0.58,0.94922 0.375,1.44922 -0.24,0.59 -1.27875,1.36937 -1.71875,1.85937 -0.91,1 -1.92063,1.53024 -2.64063,2.74024 -0.47878,0.7193 -0.84307,1.50742 -1.08007,2.33594 -0.0532,0.18609 -0.10033,0.3746 -0.14063,0.56445 -0.0958,0.94173 -0.0238,1.89156 0.21094,2.80859 0.11,0.56 0.46984,0.92047 0.33984,1.48047 -0.0604,0.77799 0,1.56095 0.17969,2.32031 1.20562,2.00392 2.59868,3.88793 4.16016,5.62891 0.955,0.97 2.095,1.74367 3.28125,2.45117 1.18625,0.7075 2.41859,1.35055 3.55859,2.06055 0.945,0.59 1.80836,1.26164 2.69336,1.90039 0.885,0.63875 1.79117,1.24422 2.82617,1.69922 0.42,0.18 0.99984,0.25898 1.08985,0.70898 0.09,0.45 -0.80915,1.77086 -0.86915,1.88086 -1.045,2.085 -2.14703,4.17282 -3.08203,6.32031 -0.935,2.1475 -1.70312,4.35469 -2.07812,6.67969 -0.18194,0.65719 -0.21734,1.33766 -0.11328,1.9961 0.10405,0.65844 0.34693,1.29422 0.72265,1.86328 0.45564,0.53587 0.87627,1.0998 1.25977,1.68945 0.32,0.5525 0.5139,1.11156 0.6289,1.67578 0.11501,0.56422 0.15211,1.13461 0.16211,1.70899 0.02,1.14875 -0.0711,2.31609 0.12891,3.49609 0.19,1.13 0.51109,2.1293 0.62109,3.2793 0.11,1 0.17954,2 0.26954,3 0.15,1.5 0.31328,3.11078 0.80078,4.55078 0.24375,0.72 0.56836,1.39804 1.01367,1.99804 0.44531,0.60001 1.01133,1.12125 1.73633,1.53126 0.4475,0.25 0.96445,0.41023 1.51757,0.49804 0.55313,0.0878 1.14243,0.10461 1.73243,0.0684 1.18,-0.0725 2.36429,-0.35531 3.27929,-0.69531 1.51,-0.56 2.74993,-1.81984 4.16993,-2.58985 0.535,-0.28499 1.20773,-0.59781 1.89648,-0.75781 0.68875,-0.16 1.39414,-0.16875 1.99414,0.15625 0.42,0.23 0.74016,0.66039 1.16016,0.90039 0.815,0.47 1.8139,0.50078 2.78515,0.58203 0.48563,0.0406 0.96368,0.0931 1.40821,0.22071 0.44453,0.12765 0.85703,0.33047 1.20703,0.66797 0.41481,0.51156 0.71665,1.10449 0.88867,1.74023 0.2678,0.53443 0.69009,0.9762 1.21094,1.26953 0.86,0.58 1.84922,0.9293 2.69922,1.5293 0.53986,0.46057 1.00267,0.99835 1.37695,1.5918 0.37428,0.59344 0.66073,1.24405 0.84375,1.92968 0.365,0.95 0.80187,1.92422 1.17187,2.91797 0.37,0.99375 0.67258,2.00625 0.76758,3.03125 0.14,1.5 -0.0398,3.01992 -0.24609,4.54492 -0.20625,1.525 -0.4393,3.05422 -0.4043,4.57422 -0.0437,0.65164 0.0952,1.30344 0.40039,1.88086 0.34118,0.45453 0.61462,0.95675 0.81055,1.49024 0.265,1.13 0.2425,2.46461 0.0937,3.78711 -0.14875,1.3225 -0.42406,2.63289 -0.66406,3.71289 -0.35,1.54 -0.55485,3.22773 -1.02735,4.77148 -0.23625,0.77188 -0.53937,1.50828 -0.96093,2.17188 -0.42157,0.66359 -0.96188,1.25382 -1.67188,1.73632 -0.96845,0.63544 -1.99204,1.17751 -3.05664,1.6211 -1.06461,0.44358 -2.16961,0.78907 -3.30274,1.02929 -0.845,0.175 -1.6439,0.16133 -2.4414,0.11133 -0.7975,-0.05 -1.59445,-0.13633 -2.43945,-0.11133 -1.04462,0.0559 -2.06622,0.3272 -3,0.79883 -1.5,0.67 -3.0793,1.24 -4.5293,2 -0.9039,0.38149 -1.66354,1.04054 -2.16992,1.88086 -0.56005,1.18407 -0.99351,2.42361 -1.29102,3.69922 -0.5,1.71 -1.04156,3.50281 -1.41406,5.32031 -0.3725,1.8175 -0.57453,3.66071 -0.39453,5.47071 0.21,2.05 1.32953,3.80031 1.51953,5.82031 0.115,1.265 -0.18844,2.45687 -0.55469,3.64062 -0.36625,1.18375 -0.79555,2.35985 -0.93555,3.58985 -0.12,1 0.32024,1.80929 0.24024,2.77929 -0.065,0.84 -0.36531,1.68571 -0.63281,2.53321 -0.2675,0.8475 -0.5025,1.69687 -0.4375,2.54687 0.04,0.53 0.30578,0.97305 0.64453,1.37305 0.33875,0.4 0.75093,0.75719 1.08593,1.11719 0.57926,0.5583 1.02931,1.22241 1.33399,1.94922 0.30468,0.7268 0.46305,1.51584 0.45508,2.32031 0,0.57 -0.17742,0.96711 -0.45117,1.31836 -0.27375,0.35125 -0.6443,0.65601 -1.0293,1.04101 -1.12733,1.2128 -2.34275,2.34039 -3.63867,3.3711 -0.47947,0.39426 -1.02213,0.6947 -1.59961,0.89453 -0.57748,0.19983 -1.18994,0.29874 -1.81055,0.28515 -1.37,0.07 -2.68055,0.26977 -4.06055,0.25977 -0.71,0 -1.42961,-0.16961 -2.09961,-0.0996 -0.83266,0.19337 -1.6246,0.53187 -2.33984,1 -0.77,0.4 -1.35062,1.07234 -1.85937,1.80859 -0.50875,0.73625 -0.94665,1.53641 -1.43164,2.19141 -0.98204,1.32638 -1.89677,2.7006 -2.74024,4.11914 -0.34947,0.68557 -0.73173,1.35309 -1.14844,2 -1.13,1.54 -2.33109,2.99984 -3.37109,4.58985 -0.4149,0.83316 -0.88939,1.63564 -1.41992,2.40039 -0.44,0.48 -0.48938,0.44023 -1.10938,0.49023 -1.065,0.095 -2.20039,0.34492 -3.33789,0.51367 -1.1375,0.16875 -2.27656,0.25539 -3.35156,0.0254 -1.2065,-0.32739 -2.3586,-0.82765 -3.41992,-1.48828 -0.60343,-0.32502 -1.15733,-0.72997 -1.64844,-1.19922 -0.49111,-0.46924 -0.92129,-1.00379 -1.27344,-1.59179 -0.41,-0.82 -0.30867,-1.66071 -0.63867,-2.47071 -0.33,-0.81 -0.90125,-0.99843 -1.28125,-1.64844 -0.64,-1.03999 -1.1382,-2.14156 -1.6582,-3.22656 -0.52,-1.085 -1.06125,-2.15476 -1.78125,-3.13476 -0.445,-0.59 -0.81961,-1.17219 -1.28711,-1.52344 -0.23375,-0.17563 -0.4907,-0.29219 -0.79102,-0.32422 -0.30031,-0.032 -0.64328,0.02 -1.05078,0.1875 -1.9623,0.91303 -3.826,2.02587 -5.56055,3.32031 -0.855,0.58 -1.77046,1.23016 -2.73046,1.78516 -0.96,0.555 -1.965,1.01484 -3,1.21484 -1.21,0.22 -2.56289,0.33266 -3.86915,0.19141 -0.65312,-0.0706 -1.29398,-0.20414 -1.90039,-0.41992 -0.6064,-0.21578 -1.17695,-0.51266 -1.68945,-0.91016 -1.11233,-0.98494 -2.10389,-2.09985 -2.95117,-3.32031 -0.511,-0.6111 -1.10283,-1.14525 -1.75586,-1.58789 -0.65303,-0.44265 -1.36615,-0.79464 -2.12305,-1.04297 -1.57668,-0.38028 -3.20652,-0.49193 -4.82031,-0.33008 h -3.46094 -3.13867 -1.90039 c -1.24666,0.18425 -2.46296,0.54155 -3.61133,1.06055 -1.76089,0.50959 -3.41547,1.329 -4.88867,2.41992 -1,0.83 -2.00031,1.74914 -3.07031,2.61914 -1.57,1.33 -3.29985,2.54992 -4.83985,3.91992 -1.57271,1.4602 -2.92064,3.14512 -4,5 -1,1.595 -1.66539,3.34602 -2.21289,5.13477 -0.5475,1.78875 -0.97781,3.61523 -1.50781,5.36523 -0.3,1 -0.66773,1.96031 -1.20898,2.78906 -0.54125,0.82876 -1.255,1.52696 -2.25,2.00196 -0.66,0.32 -1,0.34945 -1.5,0.93945 -0.43358,0.63833 -0.82138,1.30668 -1.16016,2 -0.94177,1.64088 -2.0482,3.1817 -3.30078,4.59961 -1.0191,1.34747 -2.22821,2.54092 -3.58984,3.54102 -1,0.66 -2.13485,1.05804 -3.3086,1.34179 -1.17375,0.28375 -2.38601,0.45321 -3.54101,0.65821 l -1.49024,-1 c -0.4425,-0.1275 -0.9043,0.12101 -1.35742,0.58007 -0.45312,0.45907 -0.89773,1.12805 -1.30273,1.8418 -0.81,1.4275 -1.46547,3.03328 -1.73047,3.48828 -1.22795,2.09573 -2.24906,4.29965 -3.05274,6.58008 -0.80367,2.28043 -1.38874,4.63652 -1.74609,7.03906 -0.0853,1.4585 -0.27606,2.90879 -0.57031,4.33985 -0.43,1.59 -1.26102,3.09992 -1.79102,4.66992 -0.78211,2.02173 -1.74315,3.96579 -2.87109,5.80664 -1.12794,1.84085 -2.42106,3.57849 -3.86719,5.19336 -0.76,0.9 -1.63922,1.55336 -2.57422,2.13086 -0.935,0.5775 -1.92601,1.07969 -2.91602,1.67969 -2.83999,1.71 -5.91984,3.05086 -8.83984,4.63085 -0.57,0.31 -1.09508,0.67274 -1.64258,0.92774 -0.5475,0.255 -1.11734,0.40125 -1.77734,0.28125 -0.61273,-0.1986 -1.24272,-0.34219 -1.88086,-0.42969 -0.90499,0.0696 -1.80337,0.20364 -2.68945,0.40039 -1.36493,0.13063 -2.70846,0.4302 -4,0.89063 -2.02608,0.57875 -3.9862,1.36591 -5.84961,2.34961 -1.12,0.7 -2.21063,1.30039 -3.39063,1.90039 -1.17,0.6 -2.22601,1.39812 -3.25976,2.23437 -1.03375,0.83625 -2.04586,1.71008 -3.13086,2.45508 -0.93958,0.61434 -1.86072,1.25604 -2.76172,1.92383 -2.04263,1.51393 -3.98326,3.16211 -5.80859,4.93555 -0.87665,0.97865 -1.68587,2.01338 -2.42579,3.0957 -0.73991,1.08231 -1.41021,2.21268 -2.0039,3.38476 -0.645,1.155 -1.36008,2.54297 -1.92383,3.98047 -0.56375,1.4375 -0.97563,2.9243 -1.01563,4.2793 0.024,1.64389 -0.14384,3.2856 -0.5,4.89062 -0.48821,2.4426 -1.23624,4.82549 -2.23046,7.10938 -0.3,0.615 -0.5493,1.275 -0.8418,1.90625 -0.2925,0.63125 -0.62766,1.23437 -1.09766,1.73437 -0.595,0.61751 -1.27804,1.11274 -2.01367,1.53711 -0.73562,0.42438 -1.52508,0.77743 -2.33008,1.10743 -1.61,0.66 -3.28609,1.23046 -4.74609,2.10546 -1,0.61501 -2.71859,1.32165 -4.30859,1.93165 -1.59001,0.61 -3.05102,1.12265 -3.54102,1.34765 -0.44,0.2 -0.9018,0.3393 -1.3418,0.5293 -0.43891,0.18962 -0.88951,0.35045 -1.34961,0.48047 -0.95193,0.36548 -1.93577,0.64034 -2.93945,0.82031 -0.51,0.07 -0.9993,0.0806 -1.5293,0.14062 -0.53,0.06 -0.84,-6.2e-4 -1.25,0.10938 -0.62324,0.0534 -1.25159,0.0358 -1.87109,-0.0508 l -0.90039,-0.10938 c -0.36272,-0.0299 -0.72713,-0.0299 -1.08984,0 -0.33714,0.006 -0.67256,0.0504 -1,0.13086 -0.36818,0.0516 -0.73221,0.12699 -1.08985,0.22852 -0.35481,0.16927 -0.72227,0.30964 -1.09961,0.41992 -0.4195,0.081 -0.82939,0.20934 -1.2207,0.38086 -0.69017,0.23266 -1.35926,0.52285 -2,0.86914 0,0 -8.25985,2.00055 -9.58984,2.06055 -1.97735,0.26424 -3.98437,0.19743 -5.93946,-0.19922 -0.945,-0.26 -1.67929,-0.70781 -2.31054,-1.28906 -0.63126,-0.58125 -1.15946,-1.2968 -1.68946,-2.0918 -1.195,-1.76 -2.41711,-3.34508 -3.81836,-4.73633 -1.40125,-1.39125 -2.98062,-2.58922 -4.89062,-3.57422 -3.25,-1.69 -6.63164,-3.09945 -9.93163,-4.68945 -4.15814,-2.01752 -8.42395,-3.80319 -12.7793,-5.34961 -1.77,-0.62 -3.46797,-1.36977 -5.19922,-1.97852 -0.86562,-0.30437 -1.73898,-0.57359 -2.63476,-0.77343 -0.89579,-0.19985 -1.81313,-0.32993 -2.76563,-0.35743 -2.265,-0.08 -4.67836,0.13258 -7.06836,0.14258 -1.195,0.005 -2.38437,-0.0411 -3.54687,-0.19922 -1.1625,-0.15812 -2.29727,-0.42804 -3.38477,-0.87304 -3.07,-1.26 -5.85945,-3.35141 -8.93945,-4.69141 -3.38,-1.48 -6.73031,-2.9993 -10.07032,-4.5293 -1.27825,-0.58761 -2.61556,-1.02705 -3.98437,-1.31054 -1.36881,-0.28349 -2.76928,-0.41049 -4.17578,-0.37891 -0.72845,0.0653 -1.46006,0.0272 -2.17188,-0.10742 -0.71181,-0.13462 -1.4043,-0.36656 -2.05859,-0.69336 -1.1567,-1.00695 -2.18226,-2.15597 -3.05078,-3.41992 -1.055,-1.3 -2.13266,-2.62453 -3.09766,-4.01953 -0.965,-1.395 -1.81687,-2.86141 -2.42187,-4.44141 -0.385,-1 -0.74977,-2.1982 -0.82227,-3.37695 -0.0362,-0.58938 4.7e-4,-1.17352 0.14453,-1.72461 0.14407,-0.5511 0.39461,-1.06985 0.78711,-1.52735 0.625,-0.725 1.59063,-1.29515 2.60938,-1.78515 1.01875,-0.49 2.09164,-0.89969 2.93164,-1.30469 0.665,-0.32 1.37304,-0.57008 2.0293,-0.89258 0.65624,-0.3225 1.2607,-0.71812 1.7207,-1.32812 0.75821,-1.12982 1.39546,-2.33611 1.90039,-3.59961 0.74052,-1.22464 1.22947,-2.58436 1.43945,-4 0,-1.54 -0.41992,-3.11922 -0.41992,-4.69922 0,-1.085 -0.0871,-2.42141 -0.006,-3.72266 0.0406,-0.65062 0.12227,-1.29234 0.2793,-1.89062 0.15703,-0.59828 0.38906,-1.15195 0.72656,-1.62696 0.675,-0.94999 1.69227,-1.71984 2.82227,-2.33984 1.13,-0.62 2.37304,-1.09141 3.49804,-1.4414 1.595,-0.5 3.28852,-0.9411 5.01758,-1.25 1.72906,-0.30891 3.49422,-0.48501 5.23047,-0.45313 1.73625,0.0319 3.44398,0.27062 5.06055,0.79297 0.80828,0.26117 1.59308,0.594 2.34765,1.00586 0.75457,0.41185 1.47906,0.90312 2.16406,1.48437 1.2,1 2.39454,2.55118 3.73829,3.82617 0.67187,0.63751 1.38101,1.20469 2.14648,1.60157 0.76547,0.39687 1.58688,0.62226 2.48438,0.57226 1.32365,-0.24554 2.59706,-0.7076 3.76953,-1.36914 l 4.41992,-2 c 1.815,-0.855 3.64633,-1.78351 5.51758,-2.60351 1.87125,-0.82 3.78367,-1.53203 5.76367,-1.95703 1.245,-0.265 2.37648,-0.42243 3.45898,-0.32618 1.0825,0.0963 2.11516,0.44727 3.16016,1.19727 1.725,1.23 3.335,2.51891 5.03124,3.66016 0.84812,0.57062 1.71836,1.10406 2.63476,1.57421 0.91641,0.47016 1.87907,0.87782 2.91407,1.19532 0.8825,0.27 1.74039,0.40914 2.58398,0.44726 0.8436,0.0381 1.67367,-0.0251 2.49805,-0.16015 1.64875,-0.27 3.27875,-0.8275 4.96875,-1.4375 1.76725,-0.57988 3.45683,-1.35851 5.03711,-2.31641 1.58028,-0.9579 3.05118,-2.096 4.38281,-3.39453 0.63,-0.635 1.65547,-1.59906 2.48047,-2.66406 0.4125,-0.5325 0.77359,-1.09078 1.01172,-1.64454 0.23812,-0.55375 0.35258,-1.10359 0.26758,-1.62109 -0.13,-0.84 -0.82008,-1.56023 -0.83008,-2.49023 0.12192,-1.37746 0.45936,-2.72723 1,-4 0.26902,-0.76354 0.54184,-1.53556 0.80273,-2.31446 0.52899,-1.57935 1.0118,-3.18742 1.32813,-4.8164 0.31633,-1.62898 0.46449,-3.27697 0.32812,-4.9375 -0.18245,-1.52632 -0.51746,-3.03075 -1,-4.49024 -0.50035,-1.91626 -0.74738,-3.8906 -0.73828,-5.87109 0,-1.64623 0.11467,-3.33458 0.19531,-5.02734 0.0806,-1.69277 0.12654,-3.38891 -0.0117,-5.05079 -0.13081,-1.57236 -0.42598,-3.11452 -1.01368,-4.59179 -0.4575,-1.15 -1.06172,-2.20813 -1.72265,-3.23047 -0.66094,-1.02235 -1.38016,-2.00789 -2.06641,-3.00977 -0.68625,-1.00187 -1.33961,-2.02078 -1.87305,-3.10937 -0.53343,-1.0886 -0.94593,-2.2468 -1.14843,-3.5293 -0.31,-1.9 -0.25797,-3.89984 -0.0742,-5.90234 0.18375,-2.0025 0.49984,-4.00797 0.71484,-5.91797 0.0689,-1.02325 0.29732,-2.02339 0.67188,-2.96485 0.37456,-0.94145 0.89402,-1.8243 1.54687,-2.61523 1.46,-1.87 3.25781,-3.49367 5.10156,-5.07617 1.84375,-1.5825 3.73391,-3.12399 5.37891,-4.83399 2.29639,-2.59795 4.36086,-5.39156 6.16992,-8.34961 1.55,-2.32499 3.08922,-4.7532 4.41797,-7.2832 0.66438,-1.265 1.27695,-2.55484 1.81055,-3.87109 0.53359,-1.31625 0.98929,-2.65789 1.34179,-4.02539 0.49985,-1.64305 0.75552,-3.3415 0.76563,-5.04102 0.0101,-1.69952 -0.2248,-3.4019 -0.70508,-5.05078 -0.47236,-1.07744 -0.63581,-2.2649 -0.4707,-3.42969 0.2,-1 0.46945,-1.95226 0.62695,-2.91601 0.1575,-0.96375 0.20313,-1.93938 -0.0469,-2.98438 -0.71737,-2.29667 -1.7004,-4.49999 -2.92969,-6.56836 -1,-2 -1.79055,-4.13062 -2.81055,-6.14062 -0.49733,-0.84026 -0.74609,-1.78224 -0.74609,-2.72461 0,-0.94237 0.24876,-1.88435 0.74609,-2.72461 1.05,-2.24 2.6043,-4.34789 3.9668,-6.52539 0.68125,-1.08875 1.31469,-2.19469 1.8125,-3.34375 0.49781,-1.14906 0.86,-2.34156 1,-3.60156 0.21885,-0.50644 0.28991,-1.05241 0.2207,-1.58008 -0.0692,-0.52767 -0.2771,-1.03783 -0.61914,-1.4707 -0.19,-0.43001 -0.38984,-0.85883 -0.58984,-1.29883 -0.6871,-1.43592 -1.1274,-2.97817 -1.30078,-4.56055 -0.195,-1.825 -0.13266,-3.75008 -0.22266,-5.64258 -0.045,-0.94625 -0.12828,-1.88344 -0.30078,-2.79687 -0.1725,-0.91344 -0.43344,-1.80289 -0.83594,-2.65039 -0.3125,-0.65 -0.71398,-1.21383 -1.16211,-1.73243 -0.44812,-0.51859 -0.94281,-0.9921 -1.44531,-1.45898 -1.005,-0.93375 -2.03844,-1.84383 -2.77344,-3.04883 -0.3675,-0.6025 -0.59765,-1.2493 -0.76172,-1.91211 -0.16406,-0.66281 -0.26148,-1.34101 -0.36523,-2.00976 -0.10375,-0.66875 -0.21383,-1.32696 -0.40039,-1.94727 -0.18656,-0.62031 -0.45078,-1.2032 -0.86328,-1.7207 -0.295,-0.375 -0.64735,-0.63828 -1.03125,-0.83985 -0.38391,-0.20156 -0.79867,-0.34195 -1.2168,-0.4707 -0.83625,-0.2575 -1.68703,-0.46906 -2.33203,-1.03906 -0.45,-0.395 -0.7225,-0.99875 -0.96875,-1.625 -0.24625,-0.62625 -0.46555,-1.27563 -0.81055,-1.76563 -0.69,-1 -1.51922,-1.85562 -2.38672,-2.67187 -0.8675,-0.81625 -1.77328,-1.5925 -2.61328,-2.4375 -0.67134,-0.61417 -1.27891,-1.29233 -1.81445,-2.02149 -0.63794,-0.86859 -1.17397,-1.81011 -1.5957,-2.80859 -0.39,-1 -0.65985,-2.08031 -1.08985,-3.07031 -0.74,-1.7 -1.87953,-3.22961 -2.76953,-4.84961 -0.38,-0.685 -0.74336,-1.43492 -1.19336,-2.10742 -0.45,-0.6725 -0.9868,-1.26758 -1.7168,-1.64258 -1.17,-0.63 -2.48,-0.90781 -3.8125,-1.10156 -1.3325,-0.19375 -2.68726,-0.30461 -3.94726,-0.59961 -1.12,-0.265 -2.2111,-0.76352 -3.30859,-1.19727 -1.0975,-0.43375 -2.20157,-0.80273 -3.35157,-0.80273 -1.285,0 -2.58203,0.24984 -3.86327,0.58984 -1.28125,0.34 -2.54758,0.77086 -3.76758,1.13086 -1.6575,0.48 -3.33679,1.00336 -5.02539,1.46289 -1.68859,0.45953 -3.3857,0.85445 -5.08008,1.08008 -1.69437,0.22562 -3.3857,0.28226 -5.06054,0.0605 -0.83742,-0.11086 -1.67026,-0.29198 -2.49805,-0.55469 -0.82779,-0.26272 -1.64984,-0.60758 -2.46484,-1.04883 -0.72,-0.385 -1.94547,-1.2532 -3.19922,-1.87695 -0.62688,-0.31188 -1.26008,-0.56289 -1.8418,-0.66211 -0.58172,-0.0992 -1.1118,-0.045 -1.5293,0.25 -0.535,0.375 -0.83992,1.01945 -1.04492,1.7207 -0.205,0.70125 -0.31031,1.45859 -0.44531,2.05859 -0.47,2.05 -0.79906,4.12993 -1.28906,6.16993 -0.165,0.705 -0.38649,1.85984 -0.74024,2.93359 -0.17687,0.53687 -0.38703,1.05258 -0.64062,1.48242 -0.2536,0.42985 -0.55039,0.77289 -0.90039,0.96289 -0.5,0.26 -1.29774,0.23266 -2.11524,0.12891 -0.8175,-0.10375 -1.65437,-0.28313 -2.23437,-0.32813 -1.165,-0.095 -2.37914,-0.26961 -3.58789,-0.31836 -1.20875,-0.0487 -2.41274,0.0295 -3.55274,0.43946 -0.805,0.29 -1.51164,0.81984 -2.15039,1.43359 -0.63875,0.61375 -1.20828,1.31055 -1.73828,1.93555 -1.36602,1.55852 -2.62177,3.2081 -3.75781,4.93554 -1.13604,1.72745 -2.15314,3.53261 -3.04297,5.4043 -0.63653,1.39201 -1.19417,2.81724 -1.66992,4.26953 -0.47575,1.45229 -0.86922,2.93087 -1.17969,4.42969 -0.15447,1.07914 -0.37504,2.14898 -0.66016,3.20117 -0.38,1.115 -0.98367,2.08391 -1.66992,3.00391 -0.68625,0.92 -1.45492,1.79008 -2.16992,2.70508 -0.835,1.0725 -1.55172,2.18914 -2.19531,3.33398 -0.6436,1.14485 -1.21539,2.31899 -1.75977,3.50586 -1.08875,2.37375 -2.06945,4.80016 -3.31445,7.16016 -0.625,1.175 -1.6543,2.62054 -2.4668,4.12304 -0.40625,0.75125 -0.75695,1.5161 -0.97851,2.26954 -0.22157,0.75343 -0.31282,1.49476 -0.19532,2.19726 0.14,0.83 0.69891,1.3707 0.62891,2.2207 -0.0625,0.75 -0.42367,1.45993 -0.9707,2.10743 -0.54703,0.6475 -1.27891,1.23187 -2.08203,1.73437 -0.80313,0.5025 -1.67704,0.92328 -2.50782,1.23828 -0.83078,0.315 -1.61804,0.52438 -2.24804,0.60938 -1.6977,0.12502 -3.40191,0.12502 -5.09961,0 -0.64,0 -1.11313,-0.0223 -1.48438,-0.19727 -0.37125,-0.175 -0.64195,-0.50133 -0.87695,-1.11133 -0.43,-1.135 -0.96508,-2.25984 -1.60352,-3.32422 -0.63843,-1.06437 -1.3789,-2.06984 -2.22265,-2.96484 -0.84375,-0.895 -1.79,-1.67976 -2.83594,-2.30664 -1.04594,-0.62688 -2.1925,-1.09547 -3.4375,-1.35547 -0.965,-0.2025 -1.9343,-0.28125 -2.9043,-0.26953 -0.97,0.0117 -1.94125,0.11352 -2.90625,0.27539 -1.93,0.32375 -3.83945,0.88383 -5.68945,1.42383 -3.64046,0.97284 -7.20623,2.20742 -10.66992,3.6914 -1.76782,0.74688 -3.44061,1.68693 -4.99024,2.79883 -1.54962,1.11191 -2.97631,2.39457 -4.25,3.83008 -1.2071,1.43718 -2.31416,2.95328 -3.3164,4.53516 -1.00225,1.58188 -1.89968,3.23024 -2.6836,4.93554 -0.62428,1.42121 -1.35745,2.78946 -2.19336,4.0918 -0.8359,1.30234 -1.77453,2.53782 -2.80664,3.69727 -1.14569,1.03355 -2.18106,2.18466 -3.08984,3.43164 -0.94,1.45 -1.65953,3 -2.51953,4.5 -0.6575,1.155 -1.43469,2.19484 -2.29688,3.15234 -0.86218,0.9575 -1.80984,1.8318 -2.80859,2.6543 -1.9975,1.645 -4.20094,3.0825 -6.33594,4.5625 -1.13,0.785 -2.6282,1.86523 -4.2207,2.67773 -0.79625,0.40625 -1.61602,0.74508 -2.42383,0.94727 -0.80781,0.20219 -1.60547,0.2675 -2.35547,0.125 -0.69,-0.13 -1.20711,-0.46047 -1.69336,-0.85547 -0.48625,-0.395 -0.94086,-0.85414 -1.50586,-1.24414 -0.775,-0.53 -1.64453,-0.91289 -2.48828,-1.33789 -0.84375,-0.425 -1.66203,-0.8918 -2.33203,-1.5918 -0.67,-0.7 -0.99508,-1.51367 -1.08008,-2.38867 -0.085,-0.875 0.0713,-1.81172 0.36133,-2.76172 0.3625,-1.185 0.92899,-2.32469 1.58008,-3.44531 0.65109,-1.12063 1.38516,-2.22203 2.08203,-3.33203 0.69688,-1.11 1.35758,-2.22774 1.85742,-3.38086 0.49985,-1.15313 0.84039,-2.3418 0.90039,-3.5918 0.14,-2.78 0.33938,-5.57062 0.35938,-8.39062 0,-0.9125 0.009,-1.83547 -0.0508,-2.70704 -0.0602,-0.87156 -0.18922,-1.69078 -0.46485,-2.39453 -0.27562,-0.70375 -0.69929,-1.29211 -1.3457,-1.70117 -0.64641,-0.40906 -1.51695,-0.63945 -2.68945,-0.62695 -1.315,0 -2.59219,0.33758 -3.86719,0.70508 -1.275,0.3675 -2.54656,0.76476 -3.85156,0.88476 -0.9546,0.0723 -1.89356,0.29193 -2.78125,0.65039 -2.34,0.89 -4.70914,1.64961 -7.11914,2.34961 -1,0.29 -1.96735,0.63203 -2.8711,0.67578 -0.45187,0.0219 -0.88859,-0.0298 -1.30468,-0.20117 -0.4161,-0.17141 -0.8111,-0.46156 -1.1836,-0.91406 -1.49001,-1.81 -2.88087,-3.39008 -4.38087,-5.08008 -0.65372,-0.70819 -1.23591,-1.47773 -1.73828,-2.29492 -0.50237,-0.81719 -0.92493,-1.6829 -1.26172,-2.58594 -0.52243,-1.67293 -1.34213,-3.23711 -2.41992,-4.61914 -0.56,-0.66 -1.28531,-1.21703 -1.97656,-1.80078 -0.69125,-0.58375 -1.34844,-1.19399 -1.77344,-1.95899 -0.25,-0.475 -0.37094,-0.95664 -0.39453,-1.43945 -0.0236,-0.48281 0.0499,-0.96656 0.18555,-1.44531 0.27125,-0.9575 0.79382,-1.89563 1.29882,-2.76563 0.45083,-0.88 0.97902,-1.71652 1.57813,-2.49804 0.59911,-0.78153 1.26923,-1.50798 2.00195,-2.17188 0.715,-0.53 1.68571,-0.76594 2.68946,-0.86719 1.00374,-0.10124 2.04062,-0.0675 2.89062,-0.0625 1.37,0 2.76087,-0.08 4.13087,0 1.42469,0.21394 2.85913,0.34592 4.29883,0.39844 1.91314,-0.22034 3.80014,-0.63092 5.63086,-1.22851 1.16404,-0.20011 2.27556,-0.63348 3.26953,-1.27149 0.725,-0.575 1.53672,-1.20672 2.26172,-1.91797 0.725,-0.71125 1.36328,-1.50062 1.73828,-2.39062 0.33483,-0.82885 0.57142,-1.69096 0.70898,-2.56836 0.13757,-0.8774 0.17643,-1.77056 0.11133,-2.66211 -0.0852,-0.66531 -0.33462,-1.28683 -0.71289,-1.81641 -0.37827,-0.52957 -0.88658,-0.96727 -1.48828,-1.26367 -0.71265,-0.56253 -1.45575,-1.08395 -2.22852,-1.56054 -0.49098,-0.11616 -0.97625,-0.25939 -1.45117,-0.42969 -0.698,-0.53632 -1.32535,-1.15741 -1.86914,-1.84961 -1.245,-1.245 -2.93,-2.64813 -4.375,-4.20313 -0.7225,-0.7775 -1.38484,-1.59218 -1.90234,-2.44531 -0.5175,-0.85312 -0.89071,-1.74437 -1.03321,-2.67187 -0.0925,-0.6025 0.0497,-1.21985 0.34766,-1.8086 0.29797,-0.58875 0.75273,-1.14867 1.28711,-1.63867 0.53437,-0.49 1.14695,-0.90859 1.76367,-1.21484 0.61672,-0.30625 1.23625,-0.49961 1.78125,-0.53711 1.05509,0.063 2.09414,0.28897 3.08008,0.66992 2.5305,0.39148 5.09915,0.47852 7.65039,0.25976 2.66,-0.06 5.31,-0.42117 8,-0.45117 1.67431,0.0582 3.35012,-0.0587 5,-0.34961 2.89046,-0.68239 5.71428,-1.61821 8.43945,-2.79883 0.645,-0.26999 1.39477,-0.65132 2.16602,-0.95507 0.77125,-0.30375 1.56492,-0.5311 2.29492,-0.4961 0.85,0 1.6493,0.38016 2.5293,0.41016 2.54385,0.0357 5.0845,-0.19497 7.58008,-0.68945 1.145,-0.205 2.43414,-0.48579 3.74804,-0.8711 1.31391,-0.38531 2.65336,-0.87484 3.89649,-1.49609 1.24312,-0.62125 2.38961,-1.3743 3.32226,-2.28711 0.46633,-0.45641 0.87889,-0.95246 1.22266,-1.49219 0.34377,-0.53972 0.6193,-1.1239 0.81055,-1.7539 0.435,-1.42 0.98734,-2.91907 1.12109,-4.35157 0.0669,-0.71625 0.0298,-1.41601 -0.17969,-2.08008 -0.20953,-0.66406 -0.59094,-1.29218 -1.21094,-1.86718 -1.20622,-0.91783 -2.27918,-1.999 -3.18945,-3.21094 -0.78556,-1.43903 -1.33375,-2.99527 -1.62109,-4.60938 -0.25,-0.9825 -0.71211,-1.81609 -1.27539,-2.57812 -0.56328,-0.76203 -1.22828,-1.45227 -1.87891,-2.15039 -0.65062,-0.69813 -1.2868,-1.40453 -1.79883,-2.19531 -0.51203,-0.79078 -0.89937,-1.66703 -1.04687,-2.70703 -0.205,-1.5 -0.0716,-3.02946 0.0684,-4.56446 0.14,-1.535 0.28632,-3.0757 0.11133,-4.5957 -0.14,-1.16 -0.63868,-2.14523 -1.29493,-3.05273 -0.65625,-0.90751 -1.46937,-1.73594 -2.23437,-2.58594 -0.65,-0.745 -1.2043,-1.43094 -1.56055,-2.17969 -0.35625,-0.74875 -0.51414,-1.56055 -0.36914,-2.56055 0.13177,-0.87432 0.44491,-1.70029 0.91016,-2.42968 0.46524,-0.7294 1.08305,-1.36346 1.82031,-1.85157 0.535,-0.27 1.14578,-0.35148 1.76953,-0.36523 0.62375,-0.0138 1.25984,0.0399 1.83984,0.0449 2.21,0 4.42063,-0.05 6.64063,0 1.11,0.025 2.35945,0.0577 3.5957,0.22266 1.23625,0.165 2.45867,0.46257 3.51367,1.01758 1,0.5 1.56047,1.40039 2.48047,1.90039 0.305,0.165 0.63102,0.2175 0.9668,0.19531 0.33578,-0.0222 0.68031,-0.1182 1.02344,-0.25196 0.68625,-0.26749 1.36445,-0.68335 1.93945,-0.94335 1.91,-0.84 3.66906,-1.90961 5.53906,-2.84961 2.3511,-1.0538 4.60385,-2.31501 6.73047,-3.76954 1.25,-0.935 2.51563,-1.91976 3.67188,-3.00976 1.15625,-1.09 2.20257,-2.28563 3.01758,-3.64063 0.93,-1.56 1.74156,-3.24984 2.60156,-4.83984 0.43,-0.795 0.98445,-1.6775 1.37695,-2.59375 0.19625,-0.45812 0.35063,-0.9243 0.42969,-1.39258 0.0791,-0.46828 0.0827,-0.93929 -0.0274,-1.40429 -2.19,-0.49 -4.45015,-0.42977 -6.66015,-0.75977 -0.69,-0.105 -1.22422,-0.1893 -1.66797,-0.4043 -0.44375,-0.215 -0.79805,-0.56054 -1.12305,-1.18554 -0.325,-0.625 -0.57422,-1.33289 -0.91797,-1.99414 -0.34375,-0.66125 -0.78047,-1.2768 -1.48047,-1.7168 -0.1783,-0.11207 -0.36783,-0.20247 -0.56445,-0.27734 -0.67365,-0.25653 -1.44136,-0.31718 -2.2207,-0.32813 -0.77934,-0.0109 -1.56959,0.0279 -2.28516,-0.0332 -1.86374,-0.11855 -3.71849,-0.35977 -5.55078,-0.72071 -1.57,-0.36 -2.87039,-1.33945 -4.40039,-1.68945 -2.29187,-0.32497 -4.61633,-0.32497 -6.9082,0 -2.78,0.24 -5.51078,0.99992 -8.30078,1.16992 -0.6975,0.0425 -1.34735,-0.0345 -1.97266,-0.17578 -0.62531,-0.14125 -1.22547,-0.3475 -1.82422,-0.5625 -1.1975,-0.43 -2.3889,-0.89789 -3.7539,-0.96289 -3.45799,-0.0191 -6.90863,0.28882 -10.3086,0.91992 -0.805,0.115 -1.67375,0.31016 -2.53125,0.37891 -0.8575,0.0687 -1.70375,0.0111 -2.46875,-0.37891 -1.14326,-0.67087 -2.36199,-1.19273 -3.625,-1.56054 -1.26301,-0.36782 -2.57179,-0.58106 -3.89648,-0.62891 -1.175,-0.025 -2.39383,0.0663 -3.61133,0.11133 -1.2175,0.045 -2.43266,0.0448 -3.59766,-0.16016 -0.73108,-0.24304 -1.47614,-0.44494 -2.23047,-0.60156 -0.655,-0.0375 -1.32734,0.0662 -2.0039,0.2539 -0.67656,0.18766 -1.35805,0.46055 -2.0293,0.76368 -1.3425,0.60625 -2.64664,1.33414 -3.80664,1.74414 -0.82,0.29 -1.56961,0.3125 -2.31836,0.3125 -0.74875,0 -1.4975,-0.0242 -2.3125,0.17578 -1.06,0.27 -2.45922,1.51 -3.44922,2 -1.0716,0.63243 -2.17708,1.2073 -3.31054,1.7207 -1.13954,0.29614 -2.2268,0.76216 -3.22853,1.38086 -2.43,1.75 -5.10023,2.86977 -7.49024,4.75977 -2.38999,1.89 -4.9014,3.74906 -7.1914,5.78906 -0.66,0.585 -1.19211,1.17523 -1.75586,1.70898 -0.56375,0.53375 -1.15836,1.0111 -1.94336,1.3711 L 0.49996253,230.30862 196.49996,90.308595 l 48.53125,-13.0781 z m -284.74009,76.7308 c 0.46,3.43 0.69938,6.3997 0.85938,8.6797 0.13,1.93 0.29953,4.53 0.26953,8 0.0521,2.4978 -0.0945,4.99442 -0.43946,7.468775 -0.41,2.78 -0.68007,2.60054 -1.08007,5.06054 -0.32207,1.93556 -0.44203,3.89347 -0.36329,5.84375 0.0788,1.95029 0.35691,3.89359 0.83399,5.79688 0.28,1.08 0.49609,1.91203 0.77734,2.61328 0.28125,0.70125 0.62711,1.27117 1.16211,1.82617 0.535,0.555 1.12352,0.95985 1.91602,1.3711 0.7925,0.41125 1.78953,0.8282 3.14453,1.4082 2.71,1.16 3.68945,1.7207 3.68945,1.7207 v 33.7793 c -0.48083,-0.11716 -0.97457,-0.11809 -1.44531,-0.0137 -0.47074,0.10441 -0.91849,0.3155 -1.30469,0.625 -0.5,0.5 -0.58078,1.11195 -0.67578,1.7207 -0.095,0.60875 -0.20367,1.21422 -0.76367,1.69922 -0.345,0.295 -0.62586,0.33727 -0.97461,0.38476 -0.34875,0.0475 -0.76672,0.0991 -1.38672,0.41407 -0.7,0.36 -1.01898,0.73125 -1.30273,1.09375 -0.28375,0.3625 -0.53094,0.71687 -1.08594,1.04687 -0.475,0.285 -0.93149,0.40602 -1.36524,0.44336 -0.43375,0.0374 -0.84546,-0.01 -1.23046,-0.0605 -0.385,-0.0506 -0.74352,-0.10507 -1.07227,-0.084 -0.32875,0.0211 -0.62758,0.11859 -0.89258,0.37109 -0.25,0.24 -0.34242,0.48969 -0.35742,1.14844 -0.015,0.65875 0.0474,1.72656 0.10742,3.60156 0.12,3.56 -7e-4,3.6693 0.2793,4.2793 0.31,0.7025 0.76484,1.27375 1.27734,1.73438 0.5125,0.46062 1.08305,0.81117 1.62305,1.07617 1.08,0.53 2.03969,0.71523 2.17969,0.74023 0.74184,0.12788 1.50915,0.16499 2.26367,0.0957 0.75451,-0.0693 1.4974,-0.24612 2.1875,-0.54688 0.29,-0.44 0.82445,-0.57601 1.81445,-0.57226 0.99,0.004 2.43492,0.14843 4.54492,0.27343 2.5,0.14 3.74993,0.21016 5.16993,0.16016 1.92,-0.065 2.94687,-0.28781 3.92187,-0.50781 0.975,-0.22 1.89742,-0.43719 3.60742,-0.49219 2.13914,-0.0312 4.27566,0.19363 6.36133,0.66992 2.4,0.55 3.07055,1.0793 5.81055,1.5293 1.5,0.24 2.5157,0.28554 3.2207,0.24804 0.705,-0.0375 1.09766,-0.15804 1.34766,-0.24804 0.6716,-0.24349 1.29787,-0.58733 1.85937,-1.01563 0.5615,-0.42829 1.05832,-0.9401 1.47071,-1.52344 0.91499,-0.415 1.49867,-0.48984 2.07617,-0.55859 0.5775,-0.0687 1.14992,-0.13148 2.04492,-0.52148 1.165,-0.5 1.71133,-1.05211 2.23633,-1.56836 0.525,-0.51625 1.02851,-0.99656 2.10351,-1.35157 1.39,-0.46 1.62906,-8.5e-4 3.78907,-0.38085 2,-0.33 2.51007,-0.83 4.58007,-1.5 1.43,-0.45 1.4,-0.27914 6.75,-1.11915 4.53,-0.71 4.89094,-0.89 6.21094,-0.75 1.66745,0.27722 3.30139,0.72291 4.87891,1.33008 1.60038,0.4273 3.15059,1.02657 4.62109,1.78907 0.56,0.365 1.55992,1.97062 2.41992,3.48437 0.86,1.51375 1.58008,2.93555 1.58008,2.93555 l 0.0801,23.88086 c 0,0 2,2.83008 3,4.58007 1.36211,2.27085 2.88137,4.4429 4.54883,6.5 1.10805,-0.95462 2.28342,-1.82491 3.52343,-2.58203 1.24001,-0.75712 2.54606,-1.4013 3.91796,-1.9082 1.055,-0.38 1.92157,-0.59867 2.82032,-0.88867 0.89875,-0.29 1.82976,-0.65227 3.00976,-1.32227 0.95552,-0.6791 2.00626,-1.21172 3.11914,-1.58007 0.935,-0.24501 1.56461,-0.22157 2.19336,-0.16407 0.62875,0.0575 1.2575,0.14992 2.1875,0.0449 0.93,-0.105 1.37859,-0.32203 1.9961,-0.67578 0.6175,-0.35375 1.4039,-0.84414 3.0039,-1.49414 1.9936,-0.7554 4.04208,-1.3549 6.12891,-1.79101 2.92,-0.71 2.65,-0.45 4.5,-1 3.42,-0.95 3.61109,-1.64 6.87109,-2.5 1.49,-0.39 1.38,-0.23 4.5,-1 3.31,-0.77 3.92,-1.07 4.5,-1.5 0.72,-0.54 1.02203,-1.01094 1.33203,-1.46094 0.31,-0.45 0.62696,-0.87813 1.37696,-1.32813 0.655,-0.395 1.08968,-0.47476 1.55468,-0.54101 0.465,-0.0662 0.96133,-0.11899 1.73633,-0.45899 0.72645,-0.36193 1.39461,-0.82123 1.99024,-1.36132 0.59562,-0.5401 1.11776,-1.16193 1.54882,-1.84961 0.8602,-1.33355 1.45444,-2.81976 1.75,-4.37891 0.105,-0.645 0.12055,-1.14625 0.18555,-1.5625 0.065,-0.41625 0.17938,-0.74859 0.48438,-1.05859 0.305,-0.31 0.6157,-0.39461 1.00195,-0.47461 0.38625,-0.08 0.84898,-0.15532 1.45898,-0.44531 0.61,-0.29001 0.85844,-0.56211 1.14844,-0.91211 0.29,-0.35 0.62063,-0.77696 1.39063,-1.37696 0.86,-0.67 1.5282,-0.97273 2.0332,-1.24023 0.505,-0.2675 0.84664,-0.4993 1.05664,-1.0293 0.33,-0.83 -0.17,-1.10055 0,-2.06055 0.115,-0.5475 0.39445,-1.02554 0.75586,-1.43554 0.36141,-0.41 0.80437,-0.75125 1.25,-1.03125 0.89125,-0.56 1.78992,-0.86813 2.04492,-0.95313 0.75,-0.25 1.28,-0.29109 4.25,-0.37109 1.75,-0.05 3.28922,-0.0991 4.44922,-0.11914 -2.41,-2.72 -2.11914,-2.99992 -3.11914,-3.66992 -0.905,-0.575 -1.63774,-0.66844 -2.33399,-0.77344 -0.69625,-0.105 -1.35718,-0.22266 -2.11718,-0.84766 -0.48,-0.4 -0.60125,-0.76359 -0.75,-1.18359 -0.14875,-0.42 -0.32516,-0.89563 -0.91016,-1.51563 -0.485,-0.51 -0.86492,-0.74945 -1.16992,-0.9707 -0.305,-0.22125 -0.53375,-0.42437 -0.71875,-0.85937 -0.37,-0.87 0.0487,-1.29922 -0.28125,-2.44922 -0.2383,-0.64808 -0.57564,-1.25607 -1,-1.80078 -0.3475,-0.5925 -0.51797,-1.13774 -0.60156,-1.65039 -0.0836,-0.51266 -0.0799,-0.99305 -0.0742,-1.45118 0.006,-0.45812 0.0134,-0.89531 -0.0664,-1.32422 -0.0798,-0.4289 -0.24789,-0.84843 -0.58789,-1.27343 -0.405,-0.5 -0.76258,-0.64571 -1.08008,-0.78321 -0.3175,-0.1375 -0.59484,-0.26828 -0.83984,-0.73828 -0.35,-0.655 -0.23461,-1.26 -0.0996,-1.9375 0.135,-0.6775 0.28953,-1.42609 0.0195,-2.37109 -0.16,-0.53 -0.29867,-0.62141 -1.38867,-2.19141 -0.92689,-1.2236 -1.76248,-2.51312 -2.5,-3.85937 -0.40779,-1.06708 -0.55039,-2.19908 -0.43555,-3.30469 0.11485,-1.10561 0.48707,-2.18406 1.10547,-3.14453 0.45,-0.615 0.90172,-0.92203 1.29297,-1.23828 0.39125,-0.31625 0.72078,-0.64297 0.92578,-1.29297 0.16,-0.51 0.13867,-0.8668 0.0762,-1.31055 -0.0625,-0.44375 -0.16601,-0.97312 -0.16601,-1.82812 0.0936,-1.214 0.3182,-2.41439 0.66992,-3.58008 0.99,-4.3 0.97055,-4.27 1.06055,-4.5 0.25708,-0.84166 0.63792,-1.63608 1.125,-2.35742 0.48707,-0.72134 1.081,-1.37086 1.76562,-1.92383 0.50285,-0.40815 1.06611,-0.72563 1.66602,-0.94531 0.5999,-0.21969 1.23529,-0.34042 1.88281,-0.35352 0.565,0.015 0.87781,0.1268 1.32031,0.3418 0.4425,0.215 1.01461,0.53203 2.09961,0.95703 1.5,0.595 2.43148,0.77336 3.14648,0.94336 0.71501,0.17 1.21352,0.33148 1.85352,0.89648 0.83,0.77 0.90008,1.29071 1.83008,1.72071 0.90811,0.33555 1.89225,0.40926 2.83984,0.21093 1.26118,-0.13104 2.50578,-0.39687 3.71094,-0.79101 2.32524,-0.72664 4.59109,-1.62847 6.7793,-2.69922 1.71,-0.86 2.53765,-1.40774 3.2539,-1.86524 0.71625,-0.4575 1.32094,-0.82617 2.58594,-1.32617 1.70723,-0.65823 3.47729,-1.1432 5.28125,-1.44922 1.665,-0.325 2.91898,-0.56734 3.99023,-0.65234 1.07126,-0.085 1.95868,-0.012 2.88868,0.29297 0.93,0.305 1.29882,0.62617 1.67382,0.95117 0.375,0.325 0.7568,0.65375 1.7168,0.96875 0.7225,0.235 1.35617,0.32844 1.93164,0.35547 0.57547,0.027 1.09266,-0.0136 1.58203,-0.043 0.48938,-0.0294 0.9518,-0.0482 1.41602,0.0176 0.46422,0.0658 0.92969,0.2168 1.42969,0.5293 0.65,0.4 0.86312,0.75468 1.07812,1.11718 0.215,0.3625 0.4318,0.73211 1.0918,1.16211 0.51,0.335 0.97984,0.5075 1.4414,0.58985 0.46157,0.0823 0.91633,0.0748 1.39258,0.0566 0.9525,-0.0363 1.99672,-0.12149 3.38672,0.35351 0.995,0.335 1.39172,0.695 1.85547,1.125 0.46375,0.43 0.99391,0.93188 2.25391,1.54688 1.47,0.71 2.40375,0.83359 3.21875,0.93359 0.815,0.1 1.51172,0.17516 2.51172,0.78516 1.12,0.695 1.92109,1.62742 2.55859,2.66992 0.6375,1.0425 1.11203,2.19508 1.58203,3.33008 0.74591,1.87823 1.22989,3.84934 1.43945,5.85937 0.3,2.435 0.22016,3.98375 0.0352,5.90625 -0.185,1.9225 -0.4757,4.2193 -0.5957,8.1543 -0.06,2.94 0.08,2.35 0,7.25 -0.02,1.01 -0.0687,3.75953 0.11132,7.26953 -2.2e-4,1.22848 0.1565,2.4525 0.46876,3.64063 0.55359,1.51059 1.27184,2.95644 2.14062,4.31054 1.81,3.46 1.39,3.46008 2,4.08008 0.405,0.4025 0.82961,0.65633 1.33398,0.81055 0.50438,0.15422 1.08805,0.20851 1.81055,0.21289 1.445,0.009 3.44461,-0.1836 6.47461,-0.1836 3.305,-0.005 5.22289,0.21493 6.68164,0.29493 0.72938,0.04 1.34484,0.0444 1.96094,-0.0312 0.61609,-0.0756 1.23375,-0.23118 1.96875,-0.51368 1.63134,-0.71135 3.22313,-1.50976 4.76953,-2.39062 2.25,-1.22 3.31055,-1.91016 3.31055,-1.91016 0.11,-18.54 -0.11,-37.07914 0,-55.61914 0.8361,-1.06217 1.49098,-2.25605 1.93945,-3.53125 0.35,-1.23 0.38992,-2.175 0.48242,-2.90625 0.0462,-0.36562 0.10485,-0.67765 0.22266,-0.94531 0.11781,-0.26766 0.29422,-0.49023 0.57422,-0.67773 0.56,-0.375 1.19593,-0.26633 1.80468,-0.17383 0.30438,0.0463 0.60227,0.0879 0.88086,0.0645 0.2786,-0.0234 0.53813,-0.11258 0.76563,-0.33008 0.29,-0.28 0.29969,-0.53203 0.30469,-0.86328 0.005,-0.33125 0.005,-0.74289 0.27539,-1.33789 0.27,-0.595 0.64922,-0.91391 1.26172,-1.28516 0.6125,-0.37125 1.4582,-0.79375 2.6582,-1.59375 1.88,-1.259995 1.5,-1.331085 2.5,-1.871085 1.035,-0.535 1.77766,-0.63172 2.53515,-0.69922 0.7575,-0.0675 1.53,-0.10453 2.625,-0.51953 0.84501,-0.29 1.16711,-0.563 1.59961,-0.9492 0.4325,-0.3863 0.97477,-0.8859 2.25977,-1.6309 1.67393,-0.8761 3.40049,-1.6481 5.16992,-2.3105 1.69,-0.67 3.11133,-1.3129 4.11133,-1.7129 -0.062,-0.2292 -0.11257,-0.4765 -0.17187,-0.7461 M 426.98047,172.02961 c 1.31,1.47 1.99953,2.20976 2.76953,2.50976 1.26035,0.35764 2.57359,0.49648 3.88086,0.41016 0.89,0 1.51258,-0.0355 1.95508,-0.0117 0.4425,0.0238 0.705,0.1068 0.875,0.3418 0.17,0.235 0.0957,0.59023 0.0332,0.99023 -0.0625,0.4 -0.11258,0.84477 0.10742,1.25977 0.22,0.415 0.50696,0.59312 0.84571,0.70312 0.33875,0.11 0.72929,0.15188 1.15429,0.29688 1.12,0.39 1.68524,0.95289 2.27149,1.61914 0.58625,0.66625 1.19343,1.43523 2.39843,2.24023 1.19129,0.6564 2.44818,1.18605 3.75,1.58008 4.15,1.52 4.45993,1.18055 6.41993,2.06055 0.98,0.44 1.36773,0.72805 2.08398,1.31054 0.71625,0.5825 1.75969,1.46008 4.05469,3.08008 2.63,1.85 3.0714,1.99938 5.1914,3.60938 1.885,1.44 2.9593,2.42586 3.5918,3.16211 0.6325,0.73625 0.8225,1.22297 0.9375,1.66797 0.18,0.725 0.1225,1.205 0.0937,1.71875 -0.0288,0.51375 -0.0294,1.06187 0.26563,1.92187 0.47321,1.17788 1.1292,2.27447 1.9414,3.25 0.755,1.045 1.22024,1.54453 1.52149,1.89453 0.30125,0.35 0.43711,0.54914 0.53711,0.99414 0.18,0.78 0.008,1.31977 -0.15039,1.85352 -0.15875,0.53375 -0.30336,1.06141 -0.0684,1.81641 0.18,0.58499 0.42992,0.8164 0.70117,1.0664 0.27125,0.25 0.56312,0.5186 0.82812,1.1836 0.265,0.665 0.24047,1.16585 0.23047,1.69335 -0.01,0.5275 -0.005,1.08243 0.32031,1.85743 0.37001,0.88 0.60008,0.76 0.83008,1.5 0.25,0.8 0.13664,1.43797 0.0254,1.94922 -0.11125,0.51124 -0.22179,0.8964 0.0332,1.1914 0.255,0.295 0.52633,0.31109 1.01758,0.2461 0.49124,-0.065 1.20375,-0.2111 2.34374,-0.2461 0.835,-0.035 1.46407,-0.0576 1.94532,-0.0176 0.48125,0.04 0.81469,0.14242 1.05468,0.35742 0.415,0.37001 0.44688,0.81266 0.48438,1.31641 0.0375,0.50375 0.0806,1.06859 0.51562,1.68359 0.35,0.46501 0.67501,0.59688 1.03126,0.73438 0.35624,0.1375 0.74374,0.28062 1.21874,0.76562 0.47501,0.48501 0.60743,0.93258 0.76368,1.45508 0.15625,0.5225 0.33625,1.1193 0.90625,1.9043 0.83,1.16 1.28937,1.00008 1.85937,2.08008 0.33617,0.83351 0.5413,1.71321 0.60938,2.60937 0.0903,1.25743 0.24789,2.50918 0.4707,3.75 0.43,1.54 0.86031,1.53008 1.07031,2.83008 0.0884,1.00214 0.0376,2.01168 -0.15039,3 -0.15,1.58 -5.4e-4,1.89063 -0.0605,3.89063 -0.05,2.74 -0.28993,2.69 -0.41993,5.5 -0.0612,2.198 0.0429,4.39756 0.31055,6.58007 0.0759,0.9873 0.32006,1.95384 0.7207,2.85938 0.71,1.69 1.28985,1.74117 2.08985,3.45117 0.71,1.53 0.38,1.77953 1.25,3.76953 0.3577,0.87614 0.80338,1.71376 1.33007,2.5 0.85231,1.28236 1.92558,2.40366 3.16993,3.31055 1.18,0.84 1.27937,0.57 3.60937,1.75 0.89203,0.393 1.74666,0.86171 2.55469,1.40039 0.80803,0.53868 1.56953,1.1461 2.27539,1.81836 0.83844,0.68094 1.46669,1.58741 1.81055,2.61133 0.15,0.615 0.0885,1.01476 -0.0215,1.54101 -0.11,0.52625 -0.26836,1.17883 -0.31836,2.29883 -0.0528,1.23815 0.0499,2.47747 0.3086,3.68945 0.15,0.68 0.14133,0.41 0.86132,2.75 0.25489,1.10962 0.62636,2.18973 1.10938,3.22071 0.67,1.23 1.00008,0.99867 1.33008,1.88867 0.255,0.58 0.27172,1.01281 0.19922,1.66406 -0.0725,0.65125 -0.23485,1.52156 -0.33985,2.97656 -0.16823,1.35223 -0.12034,2.72312 0.14063,4.06055 0.19121,0.77607 0.46323,1.53013 0.81054,2.25 0.66709,1.24686 1.39751,2.45738 2.18946,3.62891 0.54778,0.83555 0.99726,1.73138 1.33984,2.66992 0.17,0.585 0.20469,1.00969 0.17969,1.58594 -0.025,0.57625 -0.10969,1.30414 -0.17969,2.49414 -0.11,1.71 -0.0998,3.44062 -0.0898,6.89062 v 2.44922 2.34961 c -0.17909,1.16131 -0.5372,2.28975 -1.06055,3.3418 -0.55363,1.30567 -1.03382,2.64105 -1.43945,4 -0.28081,1.50485 -0.44179,3.02826 -0.48047,4.55859 -0.16,2.57 -0.0888,3.44063 0.20117,4.39063 0.20151,0.80559 0.61144,1.54439 1.18945,2.14062 0.77,0.7 1.21993,0.49 1.66993,1 0.315,0.375 0.34226,0.77734 0.25976,1.4336 -0.0825,0.65624 -0.27539,1.56507 -0.40039,2.95507 -0.125,1.39 -0.10359,2.31727 -0.0273,2.94727 0.0762,0.63 0.20859,0.96406 0.30859,1.16406 0.39,0.8 0.67,0.76985 1,1.58984 0.26,0.7 0.24453,1.2386 0.20703,1.8086 -0.0375,0.57 -0.0977,1.17023 0.0723,1.99023 0.17811,0.69876 0.44785,1.37116 0.80078,2 0.415,0.96 0.50719,1.80313 0.46094,2.79688 -0.0462,0.99375 -0.2311,2.13812 -0.3711,3.70312 -0.32,3.5 0.18946,2.51992 -0.0605,7.66993 -0.07,1.475 -0.15758,2.53851 -0.11133,3.38476 0.0463,0.84625 0.2264,1.47594 0.6914,2.08594 0.78,1 1.46047,0.80008 2.48047,2.08008 0.51,0.64 0.65946,1.08461 0.81446,1.59961 0.155,0.515 0.3157,1.09953 0.8457,2.01953 0.62091,1.11067 1.45245,2.08993 2.44922,2.88086 0.8592,0.66647 1.83708,1.16586 2.88086,1.4707 m 81.44909,-29.81475 c -1.38699,0.49374 -2.90371,0.97803 -4.01746,1.79136 -0.85509,0.63727 -1.29797,1.30289 -1.54297,1.96289 -0.28,0.75 -0.26617,1.3668 -0.29492,2.0293 -0.0288,0.6625 -0.0999,1.37078 -0.54492,2.30078 -0.32902,0.69059 -0.76345,1.32069 -1.28321,1.86914 -0.51976,0.54845 -1.12494,1.01525 -1.79687,1.38086 -0.95,0.495 -1.65477,0.54875 -2.35352,0.625 -0.69875,0.0762 -1.3914,0.17391 -2.3164,0.75391 -0.87963,0.52701 -1.60866,1.27082 -2.11915,2.16015 -0.39499,0.715 -0.50398,1.31891 -0.52148,2.16016 -0.0175,0.84125 0.0565,1.91984 0.0215,3.58984 0.0256,1.46747 -0.0881,2.93492 -0.33984,4.38086 -0.33,1.89 -0.7,1.94016 -2,5.66016 -0.45,1.295 -0.67133,2.04469 -0.86133,2.55469 -0.19,0.51 -0.34968,0.78023 -0.67968,1.11523 -0.57226,0.61575 -1.2923,1.0431 -2.07227,1.25977 -0.77997,0.21666 -1.61988,0.22263 -2.42773,-0.01 -0.405,-0.165 -0.62938,-0.37367 -0.95313,-0.82617 -0.32375,-0.4525 -0.74687,-1.14992 -1.54687,-2.29492 -2.14,-3.09 -2.32899,-2.75 -2.70899,-3.75 -0.22,-0.61 -0.295,-1.12547 -0.29687,-1.59375 -0.002,-0.46828 0.0687,-0.88852 0.13867,-1.30664 0.07,-0.41813 0.13914,-0.83344 0.13476,-1.29297 -0.004,-0.45953 -0.0816,-0.96414 -0.30664,-1.55664 -0.315,-0.87 -0.68875,-1.21407 -1.125,-1.60157 -0.43625,-0.3875 -0.93586,-0.81742 -1.50586,-1.85742 -0.62,-1.145 -0.7532,-1.95594 -0.87695,-2.80469 -0.12375,-0.84874 -0.23726,-1.73515 -0.82227,-3.03515 -0.425,-0.925 -0.75484,-1.32063 -1.12109,-1.73438 -0.36625,-0.41375 -0.76984,-0.8457 -1.33984,-1.8457 -0.67,-1.155 -1.09211,-2.25234 -1.41211,-3.46484 -0.32,-1.2125 -0.53688,-2.54125 -0.79688,-4.15625 -0.48,-2.99 -0.16093,-2.89883 -0.71093,-7.04883 -0.17415,-2.16722 -0.6063,-4.30688 -1.28907,-6.37109 -0.69472,-1.87062 -1.66633,-3.62572 -2.88086,-5.20899 -1.05,-1.37 -1.2,-1.18008 -1.75,-2.08008 -0.585,-0.98 -0.72734,-1.73758 -0.80859,-2.64258 -0.0812,-0.905 -0.10141,-1.95734 -0.44141,-3.52734 -0.31,-1.5 -0.37015,-0.87 -1.91015,-5.5 -1.08,-3.24 -1.06891,-3.56109 -1.62891,-4.12109 -0.46807,-0.40381 -0.98636,-0.72802 -1.5332,-0.97071 -0.54684,-0.24268 -1.12319,-0.40384 -1.71094,-0.48047 -0.58775,-0.0766 -1.18656,-0.069 -1.77734,0.0254 -0.59079,0.0944 -1.17257,0.27657 -1.72852,0.54687 -0.81,0.42 -1.62,1.41992 -3.25,3.41992 -1.02409,1.12301 -1.90529,2.36827 -2.62109,3.70899 -0.47,0.99 -0.59453,1.64656 -0.73828,2.28906 -0.14375,0.6425 -0.30657,1.27094 -0.85157,2.21094 -0.71,1.29 -1,1.22 -2,2.75 -1.1107,1.70852 -1.95377,3.57776 -2.5,5.54101 -0.3385,1.31106 -0.55952,2.64969 -0.66015,4 -0.13,1.11 -0.17032,1.8768 -0.13281,2.4668 0.0375,0.59 0.15398,1.00234 0.33398,1.40234 0.27531,0.51164 0.61105,0.98832 1,1.41993 0.285,0.40499 0.4507,0.79093 0.54102,1.20312 0.0903,0.41219 0.10468,0.85148 0.0859,1.36523 -0.0375,1.0275 -0.20797,2.35157 -0.16797,4.35157 0.035,1.755 0.20789,2.8132 0.27539,3.62695 0.0675,0.81375 0.0295,1.38406 -0.35546,2.16406 -0.52,1.05 -1.02891,1.18914 -1.37891,2.36914 -0.26,0.895 -0.17805,1.50555 -0.0918,2.06055 0.0863,0.555 0.17664,1.05547 -0.0684,1.73047 -0.245,0.675 -0.65976,0.99734 -1.19726,1.33984 -0.5375,0.3425 -1.1986,0.70399 -1.9336,1.45899 -0.735,0.755 -0.9814,1.28484 -1.2539,1.93359 -0.2725,0.64875 -0.57125,1.41648 -1.40625,2.64649 -0.835,1.23 -1.40422,1.76835 -1.91797,2.25585 -0.51375,0.4875 -0.97203,0.92508 -1.58203,1.95508 -0.61,1.03 -0.745,1.63766 -0.875,2.31641 -0.13,0.67875 -0.25375,1.42914 -0.84375,2.74414 -0.64,1.41 -0.73008,1.07844 -4.08008,5.89844 -0.765,1.1 -1.22375,1.7807 -1.59375,2.2207 -0.37,0.44 -0.65141,0.6393 -1.06641,0.7793 -0.4375,0.14 -0.8832,0.16914 -1.32226,0.12304 -0.43906,-0.0461 -0.87141,-0.16625 -1.28516,-0.32812 -0.8275,-0.32375 -1.57758,-0.80883 -2.14258,-1.17383 -1.195,-0.765 -1.71742,-1.40734 -2.16992,-1.96484 -0.4525,-0.5575 -0.835,-1.03008 -1.75,-1.45508 -0.625,-0.2875 -1.18664,-0.40797 -1.69726,-0.44531 -0.51063,-0.0374 -0.97149,0.007 -1.39649,0.0527 -0.425,0.0456 -0.81351,0.0913 -1.18164,0.0527 -0.36812,-0.0386 -0.71469,-0.16117 -1.05469,-0.45117 -0.38,-0.32 -0.57343,-0.69179 -0.67187,-1.11914 -0.0984,-0.42734 -0.10313,-0.91039 -0.10938,-1.44726 -0.006,-0.53688 -0.0138,-1.12875 -0.11718,-1.77735 -0.10344,-0.64859 -0.30141,-1.35273 -0.69141,-2.11523 -0.48,-0.94 -0.90531,-1.29266 -1.41406,-1.69141 -0.50875,-0.39875 -1.10102,-0.84375 -1.91602,-1.96875 -0.77305,-1.12018 -1.40048,-2.32914 -1.86914,-3.5957 -0.46866,-1.26656 -0.77957,-2.59174 -0.92187,-3.94531 -0.13,-1.145 -0.0863,-1.90477 -0.0801,-2.72852 0.006,-0.82375 -0.0238,-1.71133 -0.29883,-3.11133 -0.24,-1.27 -0.5107,-2.08203 -0.75195,-2.61328 -0.24125,-0.53125 -0.45313,-0.78078 -0.57813,-0.92578 -0.525,-0.6 -1.02906,-0.86492 -1.53906,-1.13867 -0.51,-0.27375 -1.02703,-0.55641 -1.58203,-1.19141 -0.555,-0.635 -0.70399,-1.07726 -0.83399,-1.47851 -0.13,-0.40125 -0.23984,-0.76242 -0.71484,-1.23242 -0.66,-0.66 -1.29625,-0.80477 -2.03125,-0.94727 -0.735,-0.1425 -1.56891,-0.28164 -2.62891,-0.93164 -0.8,-0.485 -1.06023,-0.86024 -1.30273,-1.20899 -0.2425,-0.34875 -0.46727,-0.67078 -1.19727,-1.05078 -0.73,-0.38 -1.51039,-0.50484 -2.52539,-0.46484 -1.015,0.04 -2.26554,0.24344 -3.93554,0.52344 -1.61897,0.13357 -3.2007,0.55697 -4.66993,1.25 -1.17147,0.72551 -2.2485,1.59205 -3.20898,2.58008 -1.03757,0.80176 -1.94905,1.75597 -2.70117,2.83007 -0.41,0.865 -0.38899,1.47063 -0.36524,2.23438 0.0237,0.76375 0.0512,1.68555 -0.34375,3.18555 -0.3,1.11999 -0.46,1.13109 -0.75,2.37109 -0.54,2.19 -0.11101,2.5289 -0.54101,3.62891 -0.215,0.54999 -0.55633,1.01078 -1.08008,1.51953 -0.52375,0.50875 -1.22992,1.06554 -2.16992,1.81054 -1.02,0.805 -1.63703,1.18024 -2.05078,1.45899 -0.41375,0.27875 -0.62313,0.46086 -0.82813,0.88086 -0.27,0.54 -0.29367,1.00132 -0.20117,1.67382 0.0925,0.67251 0.30023,1.55727 0.49023,2.94727 0.38,3 -0.0191,2.59 0.38086,5 0.4,2.41 0.82907,2.53906 1.53907,5.78906 0.44,2 0.60992,3.51 0.66992,4 0.25133,2.02033 0.29263,4.06119 0.12109,6.08985 -0.01,1.54082 -0.306,3.06651 -0.87109,4.5 -0.475,0.99 -0.95141,1.47812 -1.47266,2.01562 -0.52125,0.5375 -1.08633,1.12446 -1.73633,2.31446 -0.93,1.7 -0.46093,1.81101 -1.46093,3.54101 -0.675,1.19 -1.24774,1.76922 -1.70899,2.26172 -0.46125,0.4925 -0.81101,0.89828 -1.04101,1.73828 -0.26,0.95 0.0801,0.83883 0.0801,4.04883 0.0536,1.21067 -0.0157,2.42474 -0.20898,3.62109 -0.32,1.7 -0.71008,1.78891 -1.08008,3.37891 -0.30699,1.54757 -0.3643,3.13546 -0.16992,4.70117 0.085,1.505 0.25219,2.41008 0.33594,3.08008 0.0838,0.67 0.084,1.10492 -0.16602,1.66992 -0.25,0.565 -0.51922,0.78633 -0.79297,1.04883 -0.27375,0.2625 -0.55312,0.56601 -0.82812,1.29101 -0.275,0.725 -0.2568,1.16282 -0.24805,1.60157 0.009,0.43875 0.009,0.87742 -0.30078,1.60742 -0.31,0.73 -0.70508,1.08992 -1.04883,1.41992 -0.34375,0.33 -0.63719,0.63023 -0.74219,1.24024 -0.085,0.48499 0.007,0.82648 0.13672,1.17773 0.13,0.35125 0.29828,0.71219 0.36328,1.24219 0.11,0.85 -0.10945,1.57367 -0.43945,2.23242 -0.33,0.65875 -0.76961,1.25265 -1.09961,1.84766 -0.375,0.71499 -0.50265,1.84906 -0.47266,3.57031 0.03,1.72125 0.21766,4.02961 0.47266,7.09961 0.29074,2.29751 0.29074,4.62241 0,6.91992 -0.145,0.95 -0.31851,1.70547 -0.57226,2.32422 -0.25375,0.61875 -0.5886,1.10086 -1.0586,1.50586 -0.94,0.81 -1.53,0.50008 -2.75,1.33008 -0.52,0.35999 -0.91469,0.78085 -1.30469,1.3496 -0.39,0.56875 -0.77539,1.28524 -1.27539,2.24024 -1.3,2.44 -0.99914,2.66016 -2.11914,4.66016 -0.645,1.175 -1.10086,1.77101 -1.44336,2.25976 -0.3425,0.48875 -0.57257,0.87109 -0.76757,1.62109 -0.31476,1.31476 -0.31476,2.68524 0,4 0.37,1.84 0.90093,1.91016 1.46093,3.91016 0.27383,0.7493 0.42721,1.53068 0.46094,2.31836 0.0337,0.78768 -0.053,1.5816 -0.26172,2.35156 -0.28,0.79 -0.54922,0.88907 -2.19922,2.78907 -1.58,1.825 -2.4232,3.00335 -2.87695,3.7871 -0.45375,0.78375 -0.51797,1.17383 -0.54297,1.42383 -0.082,0.57608 -0.0396,1.15595 0.11719,1.70313 0.15682,0.54718 0.42804,1.06067 0.80273,1.50586 0.4,0.38 0.78399,0.48562 1.24024,0.57812 0.45625,0.0925 0.98492,0.17196 1.66992,0.50196 0.6185,0.27402 1.17206,0.66137 1.63867,1.13476 0.46661,0.4734 0.84627,1.03385 1.11133,1.65625 0.11,0.3825 0.10766,0.76617 -0.004,1.17773 -0.11156,0.41157 -0.33336,0.85055 -0.66211,1.3418 -0.6575,0.9825 -1.74414,2.1743 -3.24414,3.7793 -2.41,2.55 -4.21765,4.45914 -5.6914,5.90039 -1.47375,1.44125 -2.61446,2.41461 -3.68946,3.09961 -1.33932,0.84912 -2.73371,1.60487 -4.17382,2.25976 -1.44011,0.6549 -2.92508,1.20888 -4.44532,1.66016 -1.385,0.435 -2.91898,0.76008 -4.92773,1.08008 -2.00875,0.32 -4.4932,0.63578 -7.7832,1.05078 -6.02,0.75 -6.67891,0.65906 -10.37891,1.28906 -3.89,0.71 -4.89008,1.05094 -8.33008,1.71094 -4.15285,0.77709 -8.34802,1.2863 -12.5664,1.52148 m 60.18372,80.30303 c -0.56326,-1.71311 -0.88707,-3.53167 -0.94727,-5.33399 0.0321,-2.46518 0.36798,-4.91778 1,-7.30078 0.68,-3.36 0.86,-3.16914 1,-4.61914 0.11436,-1.25853 0.0857,-2.52305 -0.082,-3.76758 -0.16772,-1.24452 -0.47452,-2.46898 -0.91797,-3.65234 -0.56,-1.415 -1.2514,-2.50734 -2.1914,-3.62109 -0.94,-1.11375 -2.12946,-2.25 -3.68946,-3.75 -2.52203,-2.34591 -5.25711,-4.45075 -8.16992,-6.28907 -2,-1.34 -3.5,-2.34351 -4.875,-3.16601 -1.375,-0.8225 -2.625,-1.46399 -4.125,-2.08399 -1.63,-0.675 -3.14984,-1.125 -4.96484,-1.53125 -1.815,-0.40625 -3.92438,-0.76953 -6.73438,-1.26953 -4.75,-0.81 -9.31,-1.27922 -11,-1.44922 -3.13,-0.32 -4.72992,-0.44085 -7.66992,-0.88085 -2.94,-0.44 -5.35797,-0.98454 -6.91797,-1.39454 m 86.168,-195.68554 c -0.85096,-1.04352 -1.62579,-2.23637 -2.23047,-3.43946 -0.70558,-1.59372 -1.31065,-3.23069 -1.81054,-4.90039 -1.05,-3.07 -0.98899,-2.98 -1.20899,-3.5 -0.76969,-1.60432 -1.62478,-3.16621 -2.56055,-4.67968 -0.98,-1.76 -0.91007,-1.72032 -2.33007,-4.32032 -1.17,-2.12 -1.75985,-3.18867 -2.08985,-3.63867 -0.78,-1.17 -1.11,-1.29992 -4,-4.16992 -2.57,-2.55 -2.45109,-2.60156 -3.62109,-3.60156 -1.31421,-1.14802 -2.69205,-2.21877 -4.12891,-3.20899 -1.38,-0.97 -2.09,-1.35054 -5,-3.06054 -5.43,-3.17 -4.94054,-3 -6.81054,-4 -2.0923,-1.15894 -4.24814,-2.19668 -6.45899,-3.10938 -1.83169,-0.85587 -3.74553,-1.52589 -5.71094,-2 -1.83974,-0.16119 -3.65182,-0.55745 -5.39062,-1.17969 -0.96,-0.39 -0.87875,-0.36086 -1.96875,-0.88086 -1.375,-0.655 -2.78242,-1.3625 -4.07617,-1.78125 -0.64688,-0.20937 -1.26617,-0.34679 -1.83789,-0.36914 -0.57172,-0.0223 -1.09664,0.0703 -1.55664,0.32032 -0.405,0.2125 -0.72922,0.50867 -0.99219,0.86914 -0.26297,0.36046 -0.46508,0.78507 -0.62696,1.25195 -0.32374,0.93375 -0.48539,2.03844 -0.65039,3.14844 -0.165,1.11 -0.12718,1.74781 -0.0547,2.53906 0.0725,0.79125 0.17929,1.73594 0.15429,3.46094 -0.03,2.54 -0.29,2.29015 -0.5,6.16015 -0.18,3.33 8.6e-4,3.87094 -0.36914,5.46094 0.003,0.84805 -0.16892,1.67773 -0.49218,2.44336 -0.32327,0.76563 -0.79846,1.46723 -1.40821,2.05664 -0.76,0.64 -1.42,0.70906 -3,1.28906 -1.67288,0.60494 -3.27922,1.38279 -4.79101,2.32032 -1.195,0.81 -2.06992,1.78507 -2.79492,2.86132 -0.72501,1.07625 -1.29954,2.25375 -1.89454,3.46875 -0.655,1.31 -0.88234,2.07211 -1.12109,2.81836 -0.23875,0.74625 -0.48945,1.47766 -1.18945,2.72266 -0.84448,1.49554 -1.8505,2.89382 -3,4.16992 -1.38376,1.51726 -2.9383,2.81057 -4.67383,3.9082 m -4e-5,0 c 1.73553,-1.09763 3.29007,-2.39094 4.67383,-3.9082 1.1495,-1.2761 2.15552,-2.67438 3,-4.16992 0.7,-1.245 0.9507,-1.97641 1.18945,-2.72266 0.23875,-0.74625 0.46609,-1.50836 1.12109,-2.81836 0.595,-1.215 1.16953,-2.3925 1.89454,-3.46875 0.725,-1.07625 1.59992,-2.05132 2.79492,-2.86132 1.51179,-0.93753 3.11813,-1.71538 4.79101,-2.32032 1.58,-0.58 2.24,-0.64906 3,-1.28906 0.60975,-0.58941 1.08494,-1.29101 1.40821,-2.05664 0.32326,-0.76563 0.495,-1.59531 0.49218,-2.44336 0.37,-1.59 0.18914,-2.13094 0.36914,-5.46094 0.21,-3.87 0.47,-3.62015 0.5,-6.16015 0.025,-1.725 -0.0818,-2.66969 -0.15429,-3.46094 -0.0725,-0.79125 -0.11032,-1.42906 0.0547,-2.53906 0.165,-1.11 0.32665,-2.21469 0.65039,-3.14844 0.16188,-0.46688 0.36399,-0.89149 0.62696,-1.25195 0.26297,-0.36047 0.58719,-0.65664 0.99219,-0.86914 0.46,-0.25 0.98492,-0.34266 1.55664,-0.32032 0.57172,0.0223 1.19101,0.15977 1.83789,0.36914 1.29375,0.41875 2.70117,1.12625 4.07617,1.78125 -0.075,-2.12707 -0.32587,-4.24436 -0.75,-6.33007 -0.36385,-1.71701 -0.82229,-3.41295 -1.37109,-5.08008 -1.03372,-3.1805 -1.79879,-6.44186 -2.28907,-9.75 -0.4,-2.98 -0.25453,-4.81492 -0.20703,-6.41992 0.0238,-0.8025 0.0233,-1.54774 -0.082,-2.34961 -0.10531,-0.80188 -0.31594,-1.65946 -0.71094,-2.68946 -0.56,-1.45 -1.81086,-4.11 -1.88086,-4.25 -1.76,-3.78 -1.95015,-3.51 -2.41015,-5 -0.5,-1.585 -0.52375,-2.64578 -0.59375,-3.55078 -0.035,-0.4525 -0.0826,-0.86586 -0.20508,-1.28711 -0.1225,-0.42125 -0.32016,-0.84953 -0.66016,-1.33203 -0.77,-1.08 -1.28,-1.05008 -2,-2.33008 -0.44,-0.77 -0.57242,-1.33757 -0.66992,-1.89258 -0.0975,-0.555 -0.16094,-1.09835 -0.46094,-1.81835 -0.385,-0.925 -0.85609,-1.4175 -1.43359,-1.90625 -0.5775,-0.48875 -1.26141,-0.97282 -2.06641,-1.88282 -0.72,-0.815 -1.06922,-1.43054 -1.41797,-2.21679 -0.34875,-0.78625 -0.6971,-1.74414 -1.4121,-3.24414 -1.3522,-2.70707 -2.97023,-5.27318 -4.83008,-7.66016 -1.7,-2.16 -1.79985,-1.78883 -6.08985,-6.54883 -1.26867,-1.33399 -2.46385,-2.73724 -3.58007,-4.20117 -1.48005,-2.2343 -2.73614,-4.60897 -3.75,-7.08984 -1.18,-2.57 -1.90876,-4.40469 -2.59376,-5.67969 -0.34249,-0.6375 -0.67429,-1.1343 -1.04492,-1.51367 -0.37062,-0.37938 -0.78125,-0.64164 -1.28125,-0.80664 -0.72429,-0.0946 -1.38833,-0.45013 -1.86914,-1 -0.325,-0.465 -0.31211,-0.9393 -0.28711,-1.4668 0.025,-0.5275 0.0621,-1.1082 -0.21289,-1.7832 -0.32,-0.79 -0.78086,-1.01907 -1.63086,-1.78907 -1.09136,-1.14216 -2.09425,-2.36584 -3,-3.66015 -2.72,-3.38 -4.14,-5.30086 -5,-6.38086 -2.145,-2.715 -3.46031,-3.90227 -4.82031,-5.13477 -1.35999,-1.2325 -2.76483,-2.5093 -5.08983,-5.4043 m -90.04885,-35.27148 c -0.16,0.22 -0.19133,0.48 0.38867,3 0.71,3.19 0.86,3.24992 1,4.41992 0.14,1.17 -0.0494,1.01133 -0.10937,4.36133 -0.094,1.35039 -0.0577,2.70553 0.10937,4.04883 0.37,1.82 0.91,1.99 1.25,3.75 0.16084,1.24817 0.16084,2.51355 0,3.76172 -0.22,3.99 -0.44922,4.04883 -0.44922,6.04883 0.03,2.49 0.44922,2.29062 0.44922,4.89062 0.0491,1.79533 -0.14928,3.58895 -0.58984,5.33008 -0.42226,1.33108 -0.91166,2.6394 -1.46875,3.91992 -0.6,1.62 -1.03078,2.93883 -1.80078,5.29883 -1.16,3.56 -1.16922,3.81055 -1.69922,4.56055 -1,1.33 -1.46,1.16 -3,3 -0.88176,1.06114 -1.64746,2.21396 -2.28125,3.43945 -0.68008,1.43317 -1.26469,2.90964 -1.75,4.41992 -1.48,4.11 -1.54883,4.67078 -1.54883,5.30078 0.0359,1.41931 0.37696,2.8141 1,4.08985 0.52642,1.08671 1.19935,2.09611 2,3 1.25,1.48 1.65,1.48046 2.25,2.48046 0.60377,1.07357 0.90957,2.28802 0.88867,3.51954 0.175,3.895 0.71664,6.89867 0.96289,9.38867 0.12313,1.245 0.1725,2.36023 0.0664,3.39648 -0.1061,1.03625 -0.36914,1.99352 -0.86914,2.91602 -0.17,0.3 -0.59,1.04883 -1.25,2.29883 -0.86,1.81 -0.99938,2.12054 -1.85938,3.81054 -1.02,2.01 -1.14937,2 -1.85937,3.5 -0.71,1.5 -1.11063,2.63063 -1.39063,3.39063 -0.61,1.67 -1.51375,4.16093 -3.09375,7.46094"
     style="fill:none;stroke:#231f20;stroke-linecap:round;stroke-linejoin:round;paint-order:fill markers stroke"
     id="path934" />
  <g
     id="Districts"
     transform="translate(245.77564,1098.1336)" />
</svg>
