<svg xmlns="http://www.w3.org/2000/svg" viewBox="0 0 662.73 684.76"><defs><style>.cls-1{fill:none;stroke:#231f20;stroke-miterlimit:10;}</style></defs><g id="Layer_2" data-name="Layer 2"><g id="Districts"><path id="Thesonica" class="cls-1" d="M127.25,316.18.87,230.36l196-140L530.14.55a7.25,7.25,0,0,1,1.68,2c.51,1,.28,1.19-.37,2a15.33,15.33,0,0,1-2.89,3,28.46,28.46,0,0,0-7,7.83,91.81,91.81,0,0,0-4.95,8.69,8,8,0,0,0-1.23,3.38c-.26,2.48-2.49,6.08-.47,8.21,1.47,1.55,4.24.77,5.7,2.24.55.55.76,1.9,1,2.65a6.44,6.44,0,0,1,.32,2.58c0,2.09-2.23,5.18-2.23,5.18-.61,2.78-2,6.4,0,8.93.82,1.06,1.87,1.94,2.6,3.08,1,1.51,1.49,3.41,2.91,4.59a11.16,11.16,0,0,0,4.23,2c2.84.83,5.75,1.27,8.57,2.18,1.22.39,2.43.83,3.64,1.22,2.31.75,4.27,1.26,6.11,2.89,1.17,1,3,2.09,3.62,3.56a16,16,0,0,0,1.39,2.93,7.41,7.41,0,0,1,1.06,2.76,9.31,9.31,0,0,0,2.07,4.18,10.14,10.14,0,0,1,2.21,4.17c.22,1,.32,1.71,1.33,2.22s2.29.81,3.25,1.77a5,5,0,0,0,2.53,1.34,12.32,12.32,0,0,1,2.88,1.13c.69.41,1.21,1.05,1.91,1.42a5.76,5.76,0,0,0,3.93,0c1.08-.28,2.12-.74,3.2-1,1.34-.35,2.73-.4,4.08-.71a4,4,0,0,1,2.91,0c1.45.68,3.48,1.63,4.38,3s1.08,2.92,1.69,4.37c.92,2.21,3.08,3.76,3.89,6a7.74,7.74,0,0,1,.28,2.87,6.63,6.63,0,0,1,0,1.13c-.34,1.09-1.86,2.33-2.58,3.09a17.37,17.37,0,0,0-2.88,3.42c-.93,1.75-1.65,3.66-2.55,5.43a9.24,9.24,0,0,0-1.46,3.7c0,.3.05.61.06.92a15.08,15.08,0,0,0,0,3.08,19.82,19.82,0,0,0,1.18,3.05,29.71,29.71,0,0,1,.72,3.62,8.78,8.78,0,0,0,4.09,5.31c1.28.67,2.78.88,4.11,1.46.82.37,1.47,1,2.25,1.38.61.32,1.85.51,1.5-.57-.21-.68-.82-1-.75-1.79.11-1.12,1.43-1.9,2.15-2.64a18.7,18.7,0,0,1,2.18-1.89,6.89,6.89,0,0,1,1.44-1c.66-.16.66.15,1.14.5s.77.4,1.13.61c.8.46,1.53,1,2.28,1.55,1,.71,2.13,1.24,3.16,1.92a15.28,15.28,0,0,1,2.81,2.64,4.62,4.62,0,0,0,1.17,1.08c.34.19.93.18,1,.44.36,1-1.08,1.93-1.81,2.77s-1.91,1.89-1.64,3.24c.17.85.32,1.62.44,2.49a5.84,5.84,0,0,0,.85,2.65,29.32,29.32,0,0,1,2.53,3.91,8.53,8.53,0,0,1,.48,2.37,10.58,10.58,0,0,0,.47,2.22c.5,1.34-.18,3.12-.46,4.45a6,6,0,0,1-1,2.42,5.37,5.37,0,0,1-1.73,1.2,8.78,8.78,0,0,1-3.05,1.61,10.22,10.22,0,0,1-1.9.12,9.36,9.36,0,0,0-4.84,1.62c-1.37.78-3.7,2.17-3.4,4a9.69,9.69,0,0,1,.27,1.87,14.46,14.46,0,0,0,.13,2.79,16.54,16.54,0,0,0,1.29,3.94,19.45,19.45,0,0,1,1.07,4.28,7.32,7.32,0,0,0,.63,2.12,3.35,3.35,0,0,1,.59,2.07,26.92,26.92,0,0,0-.22,3.7c.23,1.73-.55,2.87-1.82,4a5.5,5.5,0,0,1-1.9,1.36c-.46.12-1,.1-1.46.18a18.71,18.71,0,0,1-5.46.51c-.78-.11-1.94,0-1.93,1,0,.19.22.63.24.88a6,6,0,0,0,.14,1.11,7.28,7.28,0,0,0,.5,1.15,23.46,23.46,0,0,1,1.36,4l-.08.07a21,21,0,0,0,4.37,7.82,57.09,57.09,0,0,1,6.3,8.45,5.58,5.58,0,0,0,2.87,2.53,8.54,8.54,0,0,1,2.26.9c.88.69.46,2.15.55,3.12a16.81,16.81,0,0,0,.37,2.76c.64,2.45,2.83,3.09,4.65,4.44s3.22,3.31,5.31,4.46c1.6.88,3.13.65,4.78,1.18a2.73,2.73,0,0,1,1.78,1.57c.83,1.77-.21,3.9.3,5.71.42,1.48,2.51,2.07,3.67,2.77a7,7,0,0,1,1.95,2.14,13.89,13.89,0,0,1,2.27,6c.46,2.53.33,5.09,1.16,7.57a11.69,11.69,0,0,1,.91,5.33,22.78,22.78,0,0,1-4,10.37c-1,1.36-2.25,3.56-4.1,3.72-.61.06-1.25-.12-1.85-.05s-1,.25-1.55.33a15.85,15.85,0,0,1-3.37.33c-1.4-.07-2.85-.62-4.23-.59s-2.39,1.09-3.36,1.8a17.62,17.62,0,0,0-7,10,27,27,0,0,0-.89,6.91,13.05,13.05,0,0,0,.74,3.14c.76,2.64-1.41,5.37.21,7.83.79,1.21,2,1.85,2.31,3.34s.09,3.07.5,4.58a11.7,11.7,0,0,0,1.28,3,5.75,5.75,0,0,1,.89,1.63c.23,1,.34,2.1.6,3.15a8.68,8.68,0,0,1,.4,2.86,7.72,7.72,0,0,0,.16,3.7c.42.94,1.23,1.29,1.41,2.41s-.43,2.28-.28,3.42,1.58,2,1.17,3c-.24.59-1.28,1.37-1.72,1.86-.91,1-1.92,1.53-2.64,2.74a8.37,8.37,0,0,0-1.22,2.9,8.05,8.05,0,0,0,.21,2.81c.11.56.47.92.34,1.48a7.54,7.54,0,0,0,.18,2.32,37,37,0,0,0,4.16,5.63c1.91,1.94,4.56,3.09,6.84,4.51,1.89,1.18,3.45,2.69,5.52,3.6.42.18,1,.26,1.09.71s-.81,1.77-.87,1.88c-2.09,4.17-4.41,8.35-5.16,13a4.72,4.72,0,0,0,.61,3.86,16.48,16.48,0,0,1,1.26,1.69c1.28,2.21.52,4.52.92,6.88.19,1.13.51,2.13.62,3.28.11,1,.18,2,.27,3,.3,3,.65,6.44,3.55,8.08,1.79,1,4.7.55,6.53-.13,1.51-.56,2.75-1.82,4.17-2.59,1.07-.57,2.69-1.25,3.89-.6.42.23.74.66,1.16.9,1.63.94,4,.12,5.4,1.47a4.72,4.72,0,0,1,.89,1.74,3,3,0,0,0,1.21,1.27c.86.58,1.85.93,2.7,1.53a7,7,0,0,1,2.22,3.52c.73,1.9,1.75,3.9,1.94,5.95.28,3-.72,6.08-.65,9.12a3.52,3.52,0,0,0,.4,1.88,5.83,5.83,0,0,1,.81,1.49c.53,2.26-.09,5.34-.57,7.5-.7,3.08-.82,6.75-3.66,8.68a18.64,18.64,0,0,1-6.36,2.65c-1.69.35-3.19-.05-4.88,0a7.55,7.55,0,0,0-3,.8c-1.5.67-3.08,1.24-4.53,2a4.64,4.64,0,0,0-2.17,1.88,18.46,18.46,0,0,0-1.29,3.7c-1,3.42-2.17,7.17-1.81,10.79.21,2.05,1.33,3.8,1.52,5.82.23,2.53-1.21,4.77-1.49,7.23-.12,1,.32,1.81.24,2.78-.13,1.68-1.2,3.38-1.07,5.08.08,1.06,1.06,1.77,1.73,2.49a5.85,5.85,0,0,1,1.79,4.27c0,1.14-.71,1.59-1.48,2.36a33.1,33.1,0,0,1-3.64,3.37,5.19,5.19,0,0,1-3.41,1.18c-1.37.07-2.68.27-4.06.26-.71,0-1.43-.17-2.1-.1a7.28,7.28,0,0,0-2.34,1c-1.54.8-2.32,2.69-3.29,4a49.07,49.07,0,0,0-2.74,4.12,22.89,22.89,0,0,1-1.15,2c-1.13,1.54-2.33,3-3.37,4.59a19.32,19.32,0,0,1-1.42,2.4c-.44.48-.49.44-1.11.49-2.13.19-4.54,1-6.69.54a12.83,12.83,0,0,1-3.42-1.49,7.61,7.61,0,0,1-2.92-2.79c-.41-.82-.31-1.66-.64-2.47s-.9-1-1.28-1.65c-1.28-2.08-2-4.4-3.44-6.36-.89-1.18-1.5-2.33-3.13-1.66a31.55,31.55,0,0,0-5.56,3.32c-1.71,1.16-3.66,2.6-5.73,3-2.42.44-5.41.45-7.46-1.14a18.61,18.61,0,0,1-2.95-3.32,8.52,8.52,0,0,0-3.88-2.63,14.42,14.42,0,0,0-4.82-.33c-1.15,0-2.31,0-3.46,0s-2.06,0-3.14,0c-.63,0-1.27,0-1.9,0a13.59,13.59,0,0,0-3.61,1.06A15.42,15.42,0,0,0,537.4,535c-1,.83-2,1.75-3.07,2.62-1.57,1.33-3.3,2.55-4.84,3.92a21.75,21.75,0,0,0-4,5c-2,3.19-2.66,7-3.72,10.5-.6,2-1.47,3.84-3.46,4.79-.66.32-1,.35-1.5.94a16.28,16.28,0,0,0-1.16,2,28,28,0,0,1-3.3,4.6,17.46,17.46,0,0,1-3.59,3.54c-2,1.32-4.54,1.59-6.85,2l-1.49-1c-1.77-.51-3.86,5-4.39,5.91a38,38,0,0,0-4.8,13.62,30.34,30.34,0,0,1-.57,4.34c-.43,1.59-1.26,3.1-1.79,4.67a35.91,35.91,0,0,1-6.74,11c-1.52,1.8-3.51,2.61-5.49,3.81-2.84,1.71-5.92,3.05-8.84,4.63-1.14.62-2.1,1.45-3.42,1.21a10.9,10.9,0,0,0-1.88-.43,19.2,19.2,0,0,0-2.69.4,16.63,16.63,0,0,0-4,.89,30.44,30.44,0,0,0-5.85,2.35c-1.12.7-2.21,1.3-3.39,1.9-2.34,1.2-4.22,3.2-6.39,4.69a57.29,57.29,0,0,0-8.57,6.86,30.09,30.09,0,0,0-4.43,6.48c-1.29,2.31-2.86,5.55-2.94,8.26a21.15,21.15,0,0,1-.5,4.89,35,35,0,0,1-2.23,7.11c-.6,1.23-1,2.64-1.94,3.64-2.38,2.47-6.17,3-9.09,4.75-2,1.23-6.87,2.83-7.85,3.28-.44.2-.9.34-1.34.53a10.83,10.83,0,0,1-1.35.48A16.16,16.16,0,0,1,397,680c-.51.07-1,.08-1.53.14s-.84,0-1.25.11a8.36,8.36,0,0,1-1.87-.05l-.9-.11a6.63,6.63,0,0,0-1.09,0,4.52,4.52,0,0,0-1,.13,8.12,8.12,0,0,0-1.09.23,7.33,7.33,0,0,1-1.1.42,5.76,5.76,0,0,0-1.22.38,12.82,12.82,0,0,0-2,.87s-8.26,2-9.59,2.06a17.93,17.93,0,0,1-5.94-.2c-1.89-.52-2.94-1.79-4-3.38-2.39-3.52-4.89-6.34-8.71-8.31-3.25-1.69-6.63-3.1-9.93-4.69A125.38,125.38,0,0,0,333,662.25c-3.54-1.24-6.79-3-10.6-3.11-4.53-.16-9.65.85-14-.93-3.07-1.26-5.86-3.35-8.94-4.69-3.38-1.48-6.73-3-10.07-4.53a18.54,18.54,0,0,0-8.16-1.69,7.89,7.89,0,0,1-4.23-.8,18.2,18.2,0,0,1-3.05-3.42c-2.11-2.6-4.31-5.3-5.52-8.46-.77-2-1.46-4.8.11-6.63,1.25-1.45,3.86-2.28,5.54-3.09,1.33-.64,2.83-1,3.75-2.22a19.34,19.34,0,0,0,1.9-3.6,10.79,10.79,0,0,0,1.44-4c0-1.54-.42-3.12-.42-4.7,0-2.17-.35-5.34,1-7.24s4.07-3.08,6.32-3.78c6.38-2,14.34-3.07,19.82,1.58,2.4,2,4.78,6.2,8.37,6a12.2,12.2,0,0,0,3.77-1.37l4.42-2c3.63-1.71,7.32-3.71,11.28-4.56,2.49-.53,4.53-.63,6.62.87,3.45,2.46,6.44,5.16,10.58,6.43,3.53,1.08,6.67.07,10.05-1.15a24.38,24.38,0,0,0,9.42-5.71c1.26-1.27,4.1-3.86,3.76-5.93-.13-.84-.82-1.56-.83-2.49a13.21,13.21,0,0,1,1-4c1.36-3.86,2.8-7.93,2.46-12.07a23,23,0,0,0-1-4.49,22.82,22.82,0,0,1-.74-5.87c0-4.85,1-10.07-.83-14.67s-6-7.75-6.81-12.88c-.62-3.8.21-8,.64-11.82a9.8,9.8,0,0,1,2.22-5.58c2.92-3.74,7.19-6.49,10.48-9.91a59.41,59.41,0,0,0,6.17-8.35c3.1-4.65,6.16-9.71,7.57-15.18a17.68,17.68,0,0,0,.06-10.09,6.33,6.33,0,0,1-.47-3.43c.4-2,1.08-3.81.58-5.9a30.88,30.88,0,0,0-2.93-6.57c-1-2-1.79-4.13-2.81-6.14a5.35,5.35,0,0,1,0-5.45c2.1-4.48,6.22-8.43,6.78-13.47a3,3,0,0,0-.4-3.05c-.19-.43-.39-.86-.59-1.3a14.13,14.13,0,0,1-1.3-4.56c-.39-3.65.25-7.7-1.36-11.09-1.25-2.6-3.91-3.83-5.38-6.24s-.74-5.52-2.39-7.59c-1.18-1.5-3.29-1.21-4.58-2.35-.9-.79-1.09-2.41-1.78-3.39-1.38-2-3.32-3.42-5-5.11a13.85,13.85,0,0,1-3.41-4.83c-.39-1-.66-2.08-1.09-3.07-.74-1.7-1.88-3.23-2.77-4.85-.76-1.37-1.45-3-2.91-3.75-2.34-1.26-5.24-1.11-7.76-1.7-2.24-.53-4.36-2-6.66-2-2.57,0-5.19,1-7.63,1.72-6.63,1.92-13.61,4.53-20.13,1-1.44-.77-4.9-3.47-6.57-2.29-1.07.75-1.22,2.58-1.49,3.78-.47,2.05-.8,4.13-1.29,6.17-.33,1.41-.88,4.62-2.28,5.38-1,.52-3.19-.11-4.35-.2-2.33-.19-4.86-.7-7.14.12-1.61.58-2.83,2.12-3.89,3.37a45,45,0,0,0-6.8,10.34,40.84,40.84,0,0,0-2.85,8.7,26.7,26.7,0,0,1-.66,3.2c-.76,2.23-2.41,3.88-3.84,5.71-3.34,4.29-4.78,9.28-7.27,14-1.25,2.35-4.11,5.78-3.64,8.59.14.83.7,1.37.63,2.22-.25,3-5.29,5.35-7.81,5.69a34.72,34.72,0,0,1-5.1,0c-1.28,0-1.89-.09-2.36-1.31-1.72-4.54-5.12-8.91-10.1-9.95-3.86-.81-7.8.35-11.5,1.43a78.66,78.66,0,0,0-10.67,3.69,25.75,25.75,0,0,0-9.24,6.63,42,42,0,0,0-6,9.47,29.65,29.65,0,0,1-5,7.79,22.34,22.34,0,0,0-3.09,3.43c-.94,1.45-1.66,3-2.52,4.5-2.63,4.62-7.17,7.41-11.44,10.37-2.26,1.57-6,4.32-9,3.75-1.38-.26-2.07-1.32-3.2-2.1-1.55-1.06-3.48-1.53-4.82-2.93s-1.3-3.25-.72-5.15c1.45-4.74,6.18-8.75,6.42-13.75.14-2.78.34-5.57.36-8.39,0-3.65.14-7.48-4.55-7.43-2.63,0-5.11,1.35-7.72,1.59a9.3,9.3,0,0,0-2.78.65c-2.34.89-4.71,1.65-7.12,2.35-2,.58-3.87,1.37-5.36-.44s-2.88-3.39-4.38-5.08a14.84,14.84,0,0,1-3-4.88A14.58,14.58,0,0,0,138,437.4c-1.12-1.32-2.9-2.23-3.75-3.76-1-1.9.08-3.91,1.09-5.65a16.38,16.38,0,0,1,3.58-4.67c1.43-1.06,3.88-.94,5.58-.93,1.37,0,2.76-.08,4.13,0a38.38,38.38,0,0,0,4.3.4,28.74,28.74,0,0,0,5.63-1.23,8.82,8.82,0,0,0,3.27-1.27c1.45-1.15,3.25-2.53,4-4.31a11.69,11.69,0,0,0,.82-5.23,4,4,0,0,0-2.2-3.08,23.56,23.56,0,0,0-2.23-1.56,13.51,13.51,0,0,1-1.45-.43,10.56,10.56,0,0,1-1.87-1.85c-2.49-2.49-6.74-5.61-7.31-9.32-.37-2.41,3-5.05,5.18-5.2a10.24,10.24,0,0,1,3.08.67,32.1,32.1,0,0,0,7.65.26c2.66-.06,5.31-.42,8-.45a24,24,0,0,0,5-.35,50.31,50.31,0,0,0,8.44-2.8c1.29-.54,3-1.52,4.46-1.45.85,0,1.65.38,2.53.41a36.37,36.37,0,0,0,7.58-.69c4.58-.82,11.47-2.86,13-7.9.87-2.84,2.21-6-.27-8.3a16.44,16.44,0,0,1-3.19-3.21,15.17,15.17,0,0,1-1.62-4.61c-1-3.93-5.41-5.47-6-9.63-.41-3,.53-6.12.18-9.16-.28-2.32-2-3.94-3.53-5.64-1.3-1.49-2.22-2.74-1.93-4.74a6.25,6.25,0,0,1,2.73-4.28c1.07-.54,2.45-.33,3.61-.32,2.21,0,4.42-.05,6.64,0s5,.13,7.11,1.24c1,.5,1.56,1.4,2.48,1.9,1.22.66,2.78-.48,3.93-1,1.91-.84,3.67-1.91,5.54-2.85a43.27,43.27,0,0,0,6.73-3.77c2.5-1.87,5.06-3.94,6.69-6.65.93-1.56,1.74-3.25,2.6-4.84s2.22-3.53,1.78-5.39c-2.19-.49-4.45-.43-6.66-.76-1.38-.21-2.14-.34-2.79-1.59s-1-2.83-2.4-3.71-3.43-.5-5.07-.64a42.76,42.76,0,0,1-5.55-.72c-1.57-.36-2.87-1.34-4.4-1.69a24.61,24.61,0,0,0-6.91,0c-2.78.24-5.51,1-8.3,1.17s-4.82-1.57-7.55-1.7a54.83,54.83,0,0,0-10.31.92c-1.61.23-3.47.78-5,0a16,16,0,0,0-7.52-2.19c-2.35-.05-4.88.36-7.21-.05a19.88,19.88,0,0,0-2.23-.6c-2.62-.15-5.52,1.94-7.84,2.76-1.64.58-3,.09-4.63.49-1.06.27-2.46,1.51-3.45,2a34.6,34.6,0,0,1-3.31,1.72,11.79,11.79,0,0,0-3.23,1.38c-2.43,1.75-5.1,2.87-7.49,4.76s-4.9,3.75-7.19,5.79c-1.32,1.17-2.14,2.33-3.71,3.05a75.65,75.65,0,0,1-12.14,4.88"/></g></g></svg>