<?xml version="1.0" encoding="UTF-8" standalone="no"?>
<svg
   xmlns:dc="http://purl.org/dc/elements/1.1/"
   xmlns:cc="http://creativecommons.org/ns#"
   xmlns:rdf="http://www.w3.org/1999/02/22-rdf-syntax-ns#"
   xmlns:svg="http://www.w3.org/2000/svg"
   xmlns="http://www.w3.org/2000/svg"
   viewBox="0 0 440.27335 264.04934"
   version="1.1"
   id="svg42">
  <metadata
     id="metadata46">
    <rdf:RDF>
      <cc:Work
         rdf:about="">
        <dc:format>image/svg+xml</dc:format>
        <dc:type
           rdf:resource="http://purl.org/dc/dcmitype/StillImage" />
        <dc:title></dc:title>
      </cc:Work>
    </rdf:RDF>
  </metadata>
  <defs
     id="defs4">
    <style
       id="style2">.cls-1{fill:#15296d;}.cls-2{fill:#ec2e25;}.cls-3{fill:#fefefe;}</style>
  </defs>
  <g
     id="Layer_2"
     data-name="Layer 2">
    <g
       id="Layer_3"
       data-name="Layer 3">
      <polygon
         class="cls-1"
         points="233.015 61.99 233.015 0 207.258 0 207.258 61.99 0 61.99 0 73.607 185.985 73.607 204.261 92.642 235.77 92.642 254.046 73.607 440.273 73.607 440.273 61.99 233.015 61.99"
         id="polygon6" />
      <polygon
         class="cls-2"
         points="188.863 0 188.863 41.568 0 41.568 0 61.99 188.863 61.99 207.258 61.99 207.258 0 188.863 0"
         id="polygon8" />
      <polygon
         class="cls-2"
         points="251.411 41.568 251.411 0 233.015 0 233.015 61.99 251.411 61.99 440.273 61.99 440.273 41.568 251.411 41.568"
         id="polygon10" />
      <rect
         class="cls-3"
         width="188.8625"
         height="41.56834"
         id="rect12" />
      <rect
         class="cls-3"
         x="251.41083"
         width="188.8625"
         height="41.56834"
         id="rect14" />
      <rect
         class="cls-1"
         y="174.70682"
         width="176.34109"
         height="89.34252"
         id="rect16" />
      <polygon
         class="cls-3"
         points="176.341 178.345 176.341 179.442 16.786 264.049 26.586 264.049 176.341 184.639 176.341 264.049 186.839 264.049 186.839 178.345 176.341 178.345"
         id="polygon18" />
      <rect
         class="cls-1"
         y="92.64161"
         width="186.83919"
         height="65.34041"
         id="rect20" />
      <rect
         class="cls-1"
         x="253.43414"
         y="92.64161"
         width="186.83919"
         height="65.34041"
         id="rect22" />
      <polygon
         class="cls-2"
         points="204.261 92.642 185.985 73.607 0 73.607 0 92.642 185.985 92.642 186.839 92.642 186.839 172.669 178.409 172.669 130.438 172.669 0 241.882 0 264.049 16.786 264.049 178.409 178.345 186.839 178.345 186.839 264.049 208.091 264.049 208.091 92.642 204.261 92.642"
         id="polygon24" />
      <polygon
         class="cls-3"
         points="0 157.982 0 174.707 75.345 174.707 0 214.421 0 241.882 126.597 174.707 186.839 174.707 186.839 157.982 0 157.982"
         id="polygon26" />
      <rect
         class="cls-1"
         x="263.93223"
         y="174.70682"
         width="176.34109"
         height="89.34252"
         transform="translate(704.20556 438.75616) rotate(180)"
         id="rect28" />
      <polygon
         class="cls-3"
         points="423.487 264.049 263.932 179.442 263.932 178.345 253.434 178.345 253.434 264.049 263.932 264.049 263.932 184.639 413.687 264.049 423.487 264.049"
         id="polygon30" />
      <polygon
         class="cls-2"
         points="254.046 92.642 440.273 92.642 440.273 73.607 254.046 73.607 235.77 92.642 232.182 92.642 232.182 264.049 253.434 264.049 253.434 178.345 261.864 178.345 423.487 264.049 440.273 264.049 440.273 241.882 309.836 172.669 261.864 172.669 253.434 172.669 253.434 92.642 254.046 92.642"
         id="polygon32" />
      <polygon
         class="cls-3"
         points="440.273 157.982 253.434 157.982 253.434 174.707 313.676 174.707 440.273 241.882 440.273 214.421 364.929 174.707 440.273 174.707 440.273 157.982"
         id="polygon34" />
      <rect
         class="cls-3"
         x="208.09101"
         y="89.80293"
         width="24.0913"
         height="174.24641"
         id="rect36" />
      <path
         class="cls-3"
         d="m 219.80548,31.69583 11.4704,30.29375 h 28.51202 q -12.64813,8.21036 -25.29629,16.42069 5.33937,15.54624 10.6787,31.09246 -12.64818,-9.84989 -25.29629,-19.6998 -12.5606,9.88944 -25.12123,19.7789 5.33937,-15.58579 10.67872,-31.17156 -12.4731,-8.21037 -24.94622,-16.42069 h 27.84967 z"
         id="path38"
         style="stroke-width:1.05184" />
    </g>
  </g>
</svg>
