<?xml version="1.0" encoding="UTF-8" standalone="no"?>
<!-- Created with Inkscape (http://www.inkscape.org/) -->

<svg
   width="600"
   height="400"
   viewBox="0 0 158.75 105.83333"
   version="1.1"
   id="svg5"
   xmlns="http://www.w3.org/2000/svg"
   xmlns:svg="http://www.w3.org/2000/svg">
  <defs
     id="defs2" />
  <g
     id="layer2">
    <g
       id="layer4"
       style="display:inline">
      <path
         id="rect3114"
         style="fill:#1c1b17;fill-opacity:1;stroke:none;stroke-width:5.59517"
         d="M 0,0 V 400 H 600 V 0 Z"
         transform="scale(0.26458333)" />
    </g>
    <g
       id="layer5"
       style="display:inline;opacity:1">
      <path
         style="opacity:1;fill:#ffffff;fill-opacity:1;stroke:none;stroke-width:0.264583px;stroke-linecap:butt;stroke-linejoin:miter;stroke-opacity:1"
         d="M 158.75,105.83333 H 0 V 92.069914 c 0,0 41.976778,0.190227 45.464274,-0.06341 3.487497,-0.253635 24.951425,-0.776289 40.454963,-6.974994 5.159303,-2.062819 20.290393,-8.39038 33.099513,-21.051797 2.90432,-2.87083 12.26678,-12.480584 21.11521,-19.339756 3.17491,-2.461147 5.77022,-4.692266 10.20885,-6.404311 4.43864,-1.712045 8.40719,-2.392837 8.40719,-2.392837 z"
         id="path4617" />
    </g>
    <g
       id="layer6"
       style="display:inline;opacity:1">
      <path
         style="fill:#00089b;fill-opacity:1;stroke:none;stroke-width:4.23232"
         d="m 600,266.49805 -25.90234,4.65625 c -20.08104,4.96078 -52.50297,15.20257 -100.0586,36.56445 -89.63138,40.26225 -52.24433,23.24621 -70.9375,31.39453 -18.69316,8.14828 -68.30273,19.17188 -68.30273,19.17188 0,0 -50.58902,10.63775 -110.59961,13.18164 C 125.31647,375.65844 0,374.34375 0,374.34375 V 400 h 600 z"
         id="path10020"
         transform="scale(0.26458333)" />
    </g>
  </g>
  <g
     id="layer7">
    <path
       style="display:inline;opacity:1;fill:#ffffff;fill-opacity:1;stroke:none;stroke-width:4.21795"
       id="path12260"
       transform="matrix(0.12529555,0,0,0.12529555,6.8273156,24.079556)"
       d="M 75.580286,24.393303 88.07914,62.783107 128.45237,62.807124 95.803856,86.557343 108.25703,124.96199 75.580284,101.25063 42.903536,124.96199 55.356712,86.557342 22.708197,62.807121 63.08143,62.783107 Z" />
    <path
       style="display:inline;opacity:1;fill:#ffffff;fill-opacity:1;stroke:none;stroke-width:4.21795"
       id="path12260-7"
       transform="matrix(0.12529555,0,0,0.12529555,42.840404,6.4477521)"
       d="M 75.580286,24.393303 88.07914,62.783107 128.45237,62.807124 95.803856,86.557343 108.25703,124.96199 75.580284,101.25063 42.903536,124.96199 55.356712,86.557342 22.708197,62.807121 63.08143,62.783107 Z" />
    <path
       style="display:inline;opacity:1;fill:#ffffff;fill-opacity:1;stroke:none;stroke-width:4.21795"
       id="path12260-7-2"
       transform="matrix(0.12529555,0,0,0.12529555,70.940748,23.443107)"
       d="M 75.580286,24.393303 88.07914,62.783107 128.45237,62.807124 95.803856,86.557343 108.25703,124.96199 75.580284,101.25063 42.903536,124.96199 55.356712,86.557342 22.708197,62.807121 63.08143,62.783107 Z" />
    <path
       style="display:inline;opacity:1;fill:#ffffff;fill-opacity:1;stroke:none;stroke-width:4.21795"
       id="path12260-7-2-2"
       transform="matrix(0.12529555,0,0,0.12529555,29.840904,50.911795)"
       d="M 75.580286,24.393303 88.07914,62.783107 128.45237,62.807124 95.803856,86.557343 108.25703,124.96199 75.580284,101.25063 42.903536,124.96199 55.356712,86.557342 22.708197,62.807121 63.08143,62.783107 Z" />
  </g>
</svg>
